<?xml version="1.0" encoding="UTF-8"?>
<svg xmlns="http://www.w3.org/2000/svg"
     xmlns:xlink="http://www.w3.org/1999/xlink"
     version="1.2"
     width="141.42mm" height="100mm" viewBox="0 0 141.42 100"
     stroke="none"
     fill="#000000"
     stroke-width="0.3"
     font-size="3.88"
>
<defs>
  <marker id="arrow" markerWidth="15" markerHeight="7" refX="5" refY="3.5" orient="auto" markerUnits="strokeWidth">
    <path d="M0,0 L15,3.5 L0,7 z" stroke="context-stroke" fill="context-stroke"/>
  </marker>
</defs>
<g stroke-width="1.5" fill="#000000" fill-opacity="0.000" stroke="#D3D3D3" id="img-6fa48341-1">
  <g transform="translate(49.1,12.15)">
    <path fill="none" d="M-30.03,-3.07 L30.03,3.07 " class="primitive"/>
  </g>
  <g transform="translate(33.78,46.45)">
    <path fill="none" d="M-19.21,-33.3 L19.21,33.3 " class="primitive"/>
  </g>
  <g transform="translate(71.1,50.27)">
    <path fill="none" d="M13.1,-29.34 L-13.1,29.34 " class="primitive"/>
  </g>
  <g transform="translate(108.03,53.82)">
    <path fill="none" d="M-18.85,-33.02 L18.85,33.02 " class="primitive"/>
  </g>
  <g transform="translate(92.71,88.12)">
    <path fill="none" d="M29.63,2.85 L-29.63,-2.85 " class="primitive"/>
  </g>
</g>
<g stroke-width="1.5" stroke="#D3D3D3" id="img-6fa48341-2">
  <g transform="translate(75.48,14.85)">
    <path fill="none" d="M-1.54,-1.6 L3.65,0.37 -2.12,1.22 " class="primitive"/>
  </g>
  <g transform="translate(51.6,77.34)">
    <path fill="none" d="M1.17,-1.75 L1.39,2.42 -2.56,-0.67 " class="primitive"/>
  </g>
  <g transform="translate(59.1,77.12)">
    <path fill="none" d="M2.48,-0.82 L-1.11,2.49 -1.37,-1.67 " class="primitive"/>
  </g>
  <g transform="translate(125.5,84.42)">
    <path fill="none" d="M1.18,-1.74 L1.38,2.42 -2.56,-0.68 " class="primitive"/>
  </g>
  <g transform="translate(66.73,85.63)">
    <path fill="none" d="M1.56,1.59 L-3.66,-0.35 2.1,-1.24 " class="primitive"/>
  </g>
</g>
<g font-size="4" stroke="#000000" stroke-opacity="0.000" fill="#000000" id="img-6fa48341-3">
  <g transform="translate(67.76,14.06)">
    <g class="primitive">
      <text text-anchor="middle" dy="0.35em">b1</text>
    </g>
  </g>
  <g transform="translate(44.78,65.51)">
    <g class="primitive">
      <text text-anchor="middle" dy="0.35em">b2</text>
    </g>
  </g>
  <g transform="translate(63.44,67.42)">
    <g class="primitive">
      <text text-anchor="middle" dy="0.35em">b3</text>
    </g>
  </g>
  <g transform="translate(118.83,72.74)">
    <g class="primitive">
      <text text-anchor="middle" dy="0.35em">b4</text>
    </g>
  </g>
  <g transform="translate(74.24,86.35)">
    <g class="primitive">
      <text text-anchor="middle" dy="0.35em">b5</text>
    </g>
  </g>
</g>
<g stroke-width="0" stroke="#000000" stroke-opacity="0.000" fill="#40E0D0" id="img-6fa48341-4">
  <g transform="translate(11.79,8.33)">
    <circle cx="0" cy="0" r="7.07" class="primitive"/>
  </g>
  <g transform="translate(86.42,15.97)">
    <circle cx="0" cy="0" r="7.07" class="primitive"/>
  </g>
  <g transform="translate(55.77,84.57)">
    <circle cx="0" cy="0" r="7.07" class="primitive"/>
  </g>
  <g transform="translate(129.64,91.67)">
    <circle cx="0" cy="0" r="7.07" class="primitive"/>
  </g>
</g>
<g font-size="4" stroke="#000000" stroke-opacity="0.000" fill="#000000" id="img-6fa48341-5">
  <g transform="translate(11.79,8.33)">
    <g class="primitive">
      <text text-anchor="middle" dy="0.35em">x1</text>
    </g>
  </g>
  <g transform="translate(86.42,15.97)">
    <g class="primitive">
      <text text-anchor="middle" dy="0.35em">x2</text>
    </g>
  </g>
  <g transform="translate(55.77,84.57)">
    <g class="primitive">
      <text text-anchor="middle" dy="0.35em">x3</text>
    </g>
  </g>
  <g transform="translate(129.64,91.67)">
    <g class="primitive">
      <text text-anchor="middle" dy="0.35em">x4</text>
    </g>
  </g>
</g>
</svg>
