<?xml version="1.0" encoding="utf-8"?>
<svg xmlns="http://www.w3.org/2000/svg" xmlns:xlink="http://www.w3.org/1999/xlink" width="1000" height="300" viewBox="0 0 4000 1200">
<defs>
  <clipPath id="clip170">
    <rect x="0" y="0" width="4000" height="1200"/>
  </clipPath>
</defs>
<path clip-path="url(#clip170)" d="
M0 1200 L4000 1200 L4000 0 L0 0  Z
  " fill="#ffffff" fill-rule="evenodd" fill-opacity="1"/>
<defs>
  <clipPath id="clip171">
    <rect x="800" y="0" width="2801" height="1200"/>
  </clipPath>
</defs>
<path clip-path="url(#clip170)" d="
M172.598 1109.46 L1286.09 1109.46 L1286.09 47.2441 L172.598 47.2441  Z
  " fill="#ffffff" fill-rule="evenodd" fill-opacity="1"/>
<defs>
  <clipPath id="clip172">
    <rect x="172" y="47" width="1114" height="1063"/>
  </clipPath>
</defs>
<polyline clip-path="url(#clip172)" style="stroke:#000000; stroke-linecap:round; stroke-linejoin:round; stroke-width:2; stroke-opacity:0.1; fill:none" points="
  274.291,1109.46 274.291,47.2441 
  "/>
<polyline clip-path="url(#clip172)" style="stroke:#000000; stroke-linecap:round; stroke-linejoin:round; stroke-width:2; stroke-opacity:0.1; fill:none" points="
  527.098,1109.46 527.098,47.2441 
  "/>
<polyline clip-path="url(#clip172)" style="stroke:#000000; stroke-linecap:round; stroke-linejoin:round; stroke-width:2; stroke-opacity:0.1; fill:none" points="
  779.905,1109.46 779.905,47.2441 
  "/>
<polyline clip-path="url(#clip172)" style="stroke:#000000; stroke-linecap:round; stroke-linejoin:round; stroke-width:2; stroke-opacity:0.1; fill:none" points="
  1032.71,1109.46 1032.71,47.2441 
  "/>
<polyline clip-path="url(#clip172)" style="stroke:#000000; stroke-linecap:round; stroke-linejoin:round; stroke-width:2; stroke-opacity:0.1; fill:none" points="
  1285.52,1109.46 1285.52,47.2441 
  "/>
<polyline clip-path="url(#clip170)" style="stroke:#000000; stroke-linecap:round; stroke-linejoin:round; stroke-width:4; stroke-opacity:1; fill:none" points="
  172.598,1109.46 1286.09,1109.46 
  "/>
<polyline clip-path="url(#clip170)" style="stroke:#000000; stroke-linecap:round; stroke-linejoin:round; stroke-width:4; stroke-opacity:1; fill:none" points="
  274.291,1109.46 274.291,1090.56 
  "/>
<polyline clip-path="url(#clip170)" style="stroke:#000000; stroke-linecap:round; stroke-linejoin:round; stroke-width:4; stroke-opacity:1; fill:none" points="
  527.098,1109.46 527.098,1090.56 
  "/>
<polyline clip-path="url(#clip170)" style="stroke:#000000; stroke-linecap:round; stroke-linejoin:round; stroke-width:4; stroke-opacity:1; fill:none" points="
  779.905,1109.46 779.905,1090.56 
  "/>
<polyline clip-path="url(#clip170)" style="stroke:#000000; stroke-linecap:round; stroke-linejoin:round; stroke-width:4; stroke-opacity:1; fill:none" points="
  1032.71,1109.46 1032.71,1090.56 
  "/>
<polyline clip-path="url(#clip170)" style="stroke:#000000; stroke-linecap:round; stroke-linejoin:round; stroke-width:4; stroke-opacity:1; fill:none" points="
  1285.52,1109.46 1285.52,1090.56 
  "/>
<path clip-path="url(#clip170)" d="M251.676 1153.17 Q248.065 1153.17 246.236 1156.74 Q244.43 1160.28 244.43 1167.41 Q244.43 1174.52 246.236 1178.08 Q248.065 1181.62 251.676 1181.62 Q255.31 1181.62 257.115 1178.08 Q258.944 1174.52 258.944 1167.41 Q258.944 1160.28 257.115 1156.74 Q255.31 1153.17 251.676 1153.17 M251.676 1149.47 Q257.486 1149.47 260.541 1154.08 Q263.62 1158.66 263.62 1167.41 Q263.62 1176.14 260.541 1180.74 Q257.486 1185.33 251.676 1185.33 Q245.866 1185.33 242.787 1180.74 Q239.731 1176.14 239.731 1167.41 Q239.731 1158.66 242.787 1154.08 Q245.866 1149.47 251.676 1149.47 Z" fill="#000000" fill-rule="evenodd" fill-opacity="1" /><path clip-path="url(#clip170)" d="M271.838 1178.78 L276.722 1178.78 L276.722 1184.66 L271.838 1184.66 L271.838 1178.78 Z" fill="#000000" fill-rule="evenodd" fill-opacity="1" /><path clip-path="url(#clip170)" d="M296.907 1153.17 Q293.296 1153.17 291.467 1156.74 Q289.662 1160.28 289.662 1167.41 Q289.662 1174.52 291.467 1178.08 Q293.296 1181.62 296.907 1181.62 Q300.541 1181.62 302.347 1178.08 Q304.175 1174.52 304.175 1167.41 Q304.175 1160.28 302.347 1156.74 Q300.541 1153.17 296.907 1153.17 M296.907 1149.47 Q302.717 1149.47 305.773 1154.08 Q308.851 1158.66 308.851 1167.41 Q308.851 1176.14 305.773 1180.74 Q302.717 1185.33 296.907 1185.33 Q291.097 1185.33 288.018 1180.74 Q284.963 1176.14 284.963 1167.41 Q284.963 1158.66 288.018 1154.08 Q291.097 1149.47 296.907 1149.47 Z" fill="#000000" fill-rule="evenodd" fill-opacity="1" /><path clip-path="url(#clip170)" d="M498.834 1180.72 L515.154 1180.72 L515.154 1184.66 L493.21 1184.66 L493.21 1180.72 Q495.872 1177.97 500.455 1173.34 Q505.061 1168.68 506.242 1167.34 Q508.487 1164.82 509.367 1163.08 Q510.27 1161.32 510.27 1159.63 Q510.27 1156.88 508.325 1155.14 Q506.404 1153.41 503.302 1153.41 Q501.103 1153.41 498.649 1154.17 Q496.219 1154.93 493.441 1156.48 L493.441 1151.76 Q496.265 1150.63 498.719 1150.05 Q501.172 1149.47 503.209 1149.47 Q508.58 1149.47 511.774 1152.16 Q514.969 1154.84 514.969 1159.33 Q514.969 1161.46 514.158 1163.38 Q513.371 1165.28 511.265 1167.87 Q510.686 1168.54 507.584 1171.76 Q504.483 1174.96 498.834 1180.72 Z" fill="#000000" fill-rule="evenodd" fill-opacity="1" /><path clip-path="url(#clip170)" d="M524.969 1178.78 L529.853 1178.78 L529.853 1184.66 L524.969 1184.66 L524.969 1178.78 Z" fill="#000000" fill-rule="evenodd" fill-opacity="1" /><path clip-path="url(#clip170)" d="M540.084 1150.1 L558.441 1150.1 L558.441 1154.03 L544.367 1154.03 L544.367 1162.5 Q545.385 1162.16 546.404 1161.99 Q547.422 1161.81 548.441 1161.81 Q554.228 1161.81 557.607 1164.98 Q560.987 1168.15 560.987 1173.57 Q560.987 1179.15 557.515 1182.25 Q554.043 1185.33 547.723 1185.33 Q545.547 1185.33 543.279 1184.96 Q541.033 1184.59 538.626 1183.85 L538.626 1179.15 Q540.709 1180.28 542.931 1180.84 Q545.154 1181.39 547.631 1181.39 Q551.635 1181.39 553.973 1179.29 Q556.311 1177.18 556.311 1173.57 Q556.311 1169.96 553.973 1167.85 Q551.635 1165.74 547.631 1165.74 Q545.756 1165.74 543.881 1166.16 Q542.029 1166.58 540.084 1167.46 L540.084 1150.1 Z" fill="#000000" fill-rule="evenodd" fill-opacity="1" /><path clip-path="url(#clip170)" d="M747.07 1150.1 L765.426 1150.1 L765.426 1154.03 L751.352 1154.03 L751.352 1162.5 Q752.371 1162.16 753.389 1161.99 Q754.408 1161.81 755.426 1161.81 Q761.213 1161.81 764.593 1164.98 Q767.972 1168.15 767.972 1173.57 Q767.972 1179.15 764.5 1182.25 Q761.028 1185.33 754.708 1185.33 Q752.533 1185.33 750.264 1184.96 Q748.019 1184.59 745.611 1183.85 L745.611 1179.15 Q747.695 1180.28 749.917 1180.84 Q752.139 1181.39 754.616 1181.39 Q758.621 1181.39 760.958 1179.29 Q763.296 1177.18 763.296 1173.57 Q763.296 1169.96 760.958 1167.85 Q758.621 1165.74 754.616 1165.74 Q752.741 1165.74 750.866 1166.16 Q749.014 1166.58 747.07 1167.46 L747.07 1150.1 Z" fill="#000000" fill-rule="evenodd" fill-opacity="1" /><path clip-path="url(#clip170)" d="M777.185 1178.78 L782.069 1178.78 L782.069 1184.66 L777.185 1184.66 L777.185 1178.78 Z" fill="#000000" fill-rule="evenodd" fill-opacity="1" /><path clip-path="url(#clip170)" d="M802.255 1153.17 Q798.643 1153.17 796.815 1156.74 Q795.009 1160.28 795.009 1167.41 Q795.009 1174.52 796.815 1178.08 Q798.643 1181.62 802.255 1181.62 Q805.889 1181.62 807.694 1178.08 Q809.523 1174.52 809.523 1167.41 Q809.523 1160.28 807.694 1156.74 Q805.889 1153.17 802.255 1153.17 M802.255 1149.47 Q808.065 1149.47 811.12 1154.08 Q814.199 1158.66 814.199 1167.41 Q814.199 1176.14 811.12 1180.74 Q808.065 1185.33 802.255 1185.33 Q796.444 1185.33 793.366 1180.74 Q790.31 1176.14 790.31 1167.41 Q790.31 1158.66 793.366 1154.08 Q796.444 1149.47 802.255 1149.47 Z" fill="#000000" fill-rule="evenodd" fill-opacity="1" /><path clip-path="url(#clip170)" d="M999.032 1150.1 L1021.25 1150.1 L1021.25 1152.09 L1008.71 1184.66 L1003.82 1184.66 L1015.63 1154.03 L999.032 1154.03 L999.032 1150.1 Z" fill="#000000" fill-rule="evenodd" fill-opacity="1" /><path clip-path="url(#clip170)" d="M1030.37 1178.78 L1035.26 1178.78 L1035.26 1184.66 L1030.37 1184.66 L1030.37 1178.78 Z" fill="#000000" fill-rule="evenodd" fill-opacity="1" /><path clip-path="url(#clip170)" d="M1045.49 1150.1 L1063.85 1150.1 L1063.85 1154.03 L1049.77 1154.03 L1049.77 1162.5 Q1050.79 1162.16 1051.81 1161.99 Q1052.83 1161.81 1053.85 1161.81 Q1059.63 1161.81 1063.01 1164.98 Q1066.39 1168.15 1066.39 1173.57 Q1066.39 1179.15 1062.92 1182.25 Q1059.45 1185.33 1053.13 1185.33 Q1050.95 1185.33 1048.68 1184.96 Q1046.44 1184.59 1044.03 1183.85 L1044.03 1179.15 Q1046.11 1180.28 1048.34 1180.84 Q1050.56 1181.39 1053.04 1181.39 Q1057.04 1181.39 1059.38 1179.29 Q1061.72 1177.18 1061.72 1173.57 Q1061.72 1169.96 1059.38 1167.85 Q1057.04 1165.74 1053.04 1165.74 Q1051.16 1165.74 1049.29 1166.16 Q1047.43 1166.58 1045.49 1167.46 L1045.49 1150.1 Z" fill="#000000" fill-rule="evenodd" fill-opacity="1" /><path clip-path="url(#clip170)" d="M1237.59 1180.72 L1245.23 1180.72 L1245.23 1154.36 L1236.92 1156.02 L1236.92 1151.76 L1245.18 1150.1 L1249.86 1150.1 L1249.86 1180.72 L1257.5 1180.72 L1257.5 1184.66 L1237.59 1184.66 L1237.59 1180.72 Z" fill="#000000" fill-rule="evenodd" fill-opacity="1" /><path clip-path="url(#clip170)" d="M1276.94 1153.17 Q1273.33 1153.17 1271.5 1156.74 Q1269.7 1160.28 1269.7 1167.41 Q1269.7 1174.52 1271.5 1178.08 Q1273.33 1181.62 1276.94 1181.62 Q1280.58 1181.62 1282.38 1178.08 Q1284.21 1174.52 1284.21 1167.41 Q1284.21 1160.28 1282.38 1156.74 Q1280.58 1153.17 1276.94 1153.17 M1276.94 1149.47 Q1282.75 1149.47 1285.81 1154.08 Q1288.89 1158.66 1288.89 1167.41 Q1288.89 1176.14 1285.81 1180.74 Q1282.75 1185.33 1276.94 1185.33 Q1271.13 1185.33 1268.05 1180.74 Q1265 1176.14 1265 1167.41 Q1265 1158.66 1268.05 1154.08 Q1271.13 1149.47 1276.94 1149.47 Z" fill="#000000" fill-rule="evenodd" fill-opacity="1" /><path clip-path="url(#clip170)" d="M1297.1 1178.78 L1301.99 1178.78 L1301.99 1184.66 L1297.1 1184.66 L1297.1 1178.78 Z" fill="#000000" fill-rule="evenodd" fill-opacity="1" /><path clip-path="url(#clip170)" d="M1322.17 1153.17 Q1318.56 1153.17 1316.73 1156.74 Q1314.93 1160.28 1314.93 1167.41 Q1314.93 1174.52 1316.73 1178.08 Q1318.56 1181.62 1322.17 1181.62 Q1325.81 1181.62 1327.61 1178.08 Q1329.44 1174.52 1329.44 1167.41 Q1329.44 1160.28 1327.61 1156.74 Q1325.81 1153.17 1322.17 1153.17 M1322.17 1149.47 Q1327.98 1149.47 1331.04 1154.08 Q1334.12 1158.66 1334.12 1167.41 Q1334.12 1176.14 1331.04 1180.74 Q1327.98 1185.33 1322.17 1185.33 Q1316.36 1185.33 1313.28 1180.74 Q1310.23 1176.14 1310.23 1167.41 Q1310.23 1158.66 1313.28 1154.08 Q1316.36 1149.47 1322.17 1149.47 Z" fill="#000000" fill-rule="evenodd" fill-opacity="1" /><polyline clip-path="url(#clip172)" style="stroke:#000000; stroke-linecap:round; stroke-linejoin:round; stroke-width:2; stroke-opacity:0.1; fill:none" points="
  172.598,1109.46 1286.09,1109.46 
  "/>
<polyline clip-path="url(#clip172)" style="stroke:#000000; stroke-linecap:round; stroke-linejoin:round; stroke-width:2; stroke-opacity:0.1; fill:none" points="
  172.598,843.903 1286.09,843.903 
  "/>
<polyline clip-path="url(#clip172)" style="stroke:#000000; stroke-linecap:round; stroke-linejoin:round; stroke-width:2; stroke-opacity:0.1; fill:none" points="
  172.598,578.35 1286.09,578.35 
  "/>
<polyline clip-path="url(#clip172)" style="stroke:#000000; stroke-linecap:round; stroke-linejoin:round; stroke-width:2; stroke-opacity:0.1; fill:none" points="
  172.598,312.797 1286.09,312.797 
  "/>
<polyline clip-path="url(#clip172)" style="stroke:#000000; stroke-linecap:round; stroke-linejoin:round; stroke-width:2; stroke-opacity:0.1; fill:none" points="
  172.598,47.2441 1286.09,47.2441 
  "/>
<polyline clip-path="url(#clip170)" style="stroke:#000000; stroke-linecap:round; stroke-linejoin:round; stroke-width:4; stroke-opacity:1; fill:none" points="
  172.598,1109.46 172.598,47.2441 
  "/>
<polyline clip-path="url(#clip170)" style="stroke:#000000; stroke-linecap:round; stroke-linejoin:round; stroke-width:4; stroke-opacity:1; fill:none" points="
  172.598,1109.46 191.496,1109.46 
  "/>
<polyline clip-path="url(#clip170)" style="stroke:#000000; stroke-linecap:round; stroke-linejoin:round; stroke-width:4; stroke-opacity:1; fill:none" points="
  172.598,843.903 191.496,843.903 
  "/>
<polyline clip-path="url(#clip170)" style="stroke:#000000; stroke-linecap:round; stroke-linejoin:round; stroke-width:4; stroke-opacity:1; fill:none" points="
  172.598,578.35 191.496,578.35 
  "/>
<polyline clip-path="url(#clip170)" style="stroke:#000000; stroke-linecap:round; stroke-linejoin:round; stroke-width:4; stroke-opacity:1; fill:none" points="
  172.598,312.797 191.496,312.797 
  "/>
<polyline clip-path="url(#clip170)" style="stroke:#000000; stroke-linecap:round; stroke-linejoin:round; stroke-width:4; stroke-opacity:1; fill:none" points="
  172.598,47.2441 191.496,47.2441 
  "/>
<path clip-path="url(#clip170)" d="M55.4226 1095.25 Q51.8115 1095.25 49.9828 1098.82 Q48.1773 1102.36 48.1773 1109.49 Q48.1773 1116.6 49.9828 1120.16 Q51.8115 1123.7 55.4226 1123.7 Q59.0569 1123.7 60.8624 1120.16 Q62.6911 1116.6 62.6911 1109.49 Q62.6911 1102.36 60.8624 1098.82 Q59.0569 1095.25 55.4226 1095.25 M55.4226 1091.55 Q61.2328 1091.55 64.2883 1096.16 Q67.367 1100.74 67.367 1109.49 Q67.367 1118.22 64.2883 1122.82 Q61.2328 1127.41 55.4226 1127.41 Q49.6125 1127.41 46.5338 1122.82 Q43.4782 1118.22 43.4782 1109.49 Q43.4782 1100.74 46.5338 1096.16 Q49.6125 1091.55 55.4226 1091.55 Z" fill="#000000" fill-rule="evenodd" fill-opacity="1" /><path clip-path="url(#clip170)" d="M75.5845 1120.86 L80.4688 1120.86 L80.4688 1126.74 L75.5845 1126.74 L75.5845 1120.86 Z" fill="#000000" fill-rule="evenodd" fill-opacity="1" /><path clip-path="url(#clip170)" d="M100.654 1095.25 Q97.0428 1095.25 95.2141 1098.82 Q93.4085 1102.36 93.4085 1109.49 Q93.4085 1116.6 95.2141 1120.16 Q97.0428 1123.7 100.654 1123.7 Q104.288 1123.7 106.094 1120.16 Q107.922 1116.6 107.922 1109.49 Q107.922 1102.36 106.094 1098.82 Q104.288 1095.25 100.654 1095.25 M100.654 1091.55 Q106.464 1091.55 109.52 1096.16 Q112.598 1100.74 112.598 1109.49 Q112.598 1118.22 109.52 1122.82 Q106.464 1127.41 100.654 1127.41 Q94.8437 1127.41 91.765 1122.82 Q88.7095 1118.22 88.7095 1109.49 Q88.7095 1100.74 91.765 1096.16 Q94.8437 1091.55 100.654 1091.55 Z" fill="#000000" fill-rule="evenodd" fill-opacity="1" /><path clip-path="url(#clip170)" d="M56.6495 829.702 Q53.0384 829.702 51.2097 833.266 Q49.4041 836.808 49.4041 843.938 Q49.4041 851.044 51.2097 854.609 Q53.0384 858.151 56.6495 858.151 Q60.2837 858.151 62.0892 854.609 Q63.9179 851.044 63.9179 843.938 Q63.9179 836.808 62.0892 833.266 Q60.2837 829.702 56.6495 829.702 M56.6495 825.998 Q62.4596 825.998 65.5152 830.604 Q68.5938 835.188 68.5938 843.938 Q68.5938 852.664 65.5152 857.271 Q62.4596 861.854 56.6495 861.854 Q50.8393 861.854 47.7606 857.271 Q44.7051 852.664 44.7051 843.938 Q44.7051 835.188 47.7606 830.604 Q50.8393 825.998 56.6495 825.998 Z" fill="#000000" fill-rule="evenodd" fill-opacity="1" /><path clip-path="url(#clip170)" d="M76.8114 855.303 L81.6956 855.303 L81.6956 861.183 L76.8114 861.183 L76.8114 855.303 Z" fill="#000000" fill-rule="evenodd" fill-opacity="1" /><path clip-path="url(#clip170)" d="M92.6909 857.248 L100.33 857.248 L100.33 830.882 L92.0196 832.549 L92.0196 828.29 L100.283 826.623 L104.959 826.623 L104.959 857.248 L112.598 857.248 L112.598 861.183 L92.6909 861.183 L92.6909 857.248 Z" fill="#000000" fill-rule="evenodd" fill-opacity="1" /><path clip-path="url(#clip170)" d="M57.0198 564.149 Q53.4087 564.149 51.58 567.713 Q49.7745 571.255 49.7745 578.385 Q49.7745 585.491 51.58 589.056 Q53.4087 592.598 57.0198 592.598 Q60.6541 592.598 62.4596 589.056 Q64.2883 585.491 64.2883 578.385 Q64.2883 571.255 62.4596 567.713 Q60.6541 564.149 57.0198 564.149 M57.0198 560.445 Q62.83 560.445 65.8855 565.051 Q68.9642 569.635 68.9642 578.385 Q68.9642 587.112 65.8855 591.718 Q62.83 596.301 57.0198 596.301 Q51.2097 596.301 48.131 591.718 Q45.0754 587.112 45.0754 578.385 Q45.0754 569.635 48.131 565.051 Q51.2097 560.445 57.0198 560.445 Z" fill="#000000" fill-rule="evenodd" fill-opacity="1" /><path clip-path="url(#clip170)" d="M77.1818 589.75 L82.066 589.75 L82.066 595.63 L77.1818 595.63 L77.1818 589.75 Z" fill="#000000" fill-rule="evenodd" fill-opacity="1" /><path clip-path="url(#clip170)" d="M96.2789 591.695 L112.598 591.695 L112.598 595.63 L90.6539 595.63 L90.6539 591.695 Q93.3159 588.94 97.8992 584.311 Q102.506 579.658 103.686 578.315 Q105.932 575.792 106.811 574.056 Q107.714 572.297 107.714 570.607 Q107.714 567.852 105.77 566.116 Q103.848 564.38 100.746 564.38 Q98.5474 564.38 96.0937 565.144 Q93.6632 565.908 90.8854 567.459 L90.8854 562.737 Q93.7094 561.602 96.1631 561.024 Q98.6168 560.445 100.654 560.445 Q106.024 560.445 109.219 563.13 Q112.413 565.815 112.413 570.306 Q112.413 572.436 111.603 574.357 Q110.816 576.255 108.709 578.848 Q108.131 579.519 105.029 582.737 Q101.927 585.931 96.2789 591.695 Z" fill="#000000" fill-rule="evenodd" fill-opacity="1" /><path clip-path="url(#clip170)" d="M56.0708 298.596 Q52.4597 298.596 50.631 302.161 Q48.8254 305.702 48.8254 312.832 Q48.8254 319.938 50.631 323.503 Q52.4597 327.045 56.0708 327.045 Q59.705 327.045 61.5105 323.503 Q63.3392 319.938 63.3392 312.832 Q63.3392 305.702 61.5105 302.161 Q59.705 298.596 56.0708 298.596 M56.0708 294.892 Q61.8809 294.892 64.9365 299.498 Q68.0151 304.082 68.0151 312.832 Q68.0151 321.559 64.9365 326.165 Q61.8809 330.748 56.0708 330.748 Q50.2606 330.748 47.1819 326.165 Q44.1264 321.559 44.1264 312.832 Q44.1264 304.082 47.1819 299.498 Q50.2606 294.892 56.0708 294.892 Z" fill="#000000" fill-rule="evenodd" fill-opacity="1" /><path clip-path="url(#clip170)" d="M76.2327 324.197 L81.1169 324.197 L81.1169 330.077 L76.2327 330.077 L76.2327 324.197 Z" fill="#000000" fill-rule="evenodd" fill-opacity="1" /><path clip-path="url(#clip170)" d="M105.469 311.443 Q108.825 312.16 110.7 314.429 Q112.598 316.697 112.598 320.031 Q112.598 325.147 109.08 327.947 Q105.561 330.748 99.0798 330.748 Q96.9039 330.748 94.5891 330.309 Q92.2974 329.892 89.8437 329.035 L89.8437 324.522 Q91.7882 325.656 94.103 326.234 Q96.4178 326.813 98.9409 326.813 Q103.339 326.813 105.631 325.077 Q107.945 323.341 107.945 320.031 Q107.945 316.975 105.793 315.262 Q103.663 313.526 99.8437 313.526 L95.8159 313.526 L95.8159 309.684 L100.029 309.684 Q103.478 309.684 105.307 308.318 Q107.135 306.929 107.135 304.336 Q107.135 301.674 105.237 300.262 Q103.362 298.827 99.8437 298.827 Q97.9224 298.827 95.7233 299.244 Q93.5243 299.661 90.8854 300.54 L90.8854 296.374 Q93.5474 295.633 95.8622 295.262 Q98.2002 294.892 100.26 294.892 Q105.584 294.892 108.686 297.323 Q111.788 299.73 111.788 303.85 Q111.788 306.721 110.145 308.711 Q108.501 310.679 105.469 311.443 Z" fill="#000000" fill-rule="evenodd" fill-opacity="1" /><path clip-path="url(#clip170)" d="M54.9365 33.0428 Q51.3254 33.0428 49.4967 36.6076 Q47.6912 40.1492 47.6912 47.2788 Q47.6912 54.3853 49.4967 57.9501 Q51.3254 61.4917 54.9365 61.4917 Q58.5707 61.4917 60.3763 57.9501 Q62.205 54.3853 62.205 47.2788 Q62.205 40.1492 60.3763 36.6076 Q58.5707 33.0428 54.9365 33.0428 M54.9365 29.3391 Q60.7467 29.3391 63.8022 33.9456 Q66.8809 38.5289 66.8809 47.2788 Q66.8809 56.0056 63.8022 60.6121 Q60.7467 65.1954 54.9365 65.1954 Q49.1264 65.1954 46.0477 60.6121 Q42.9921 56.0056 42.9921 47.2788 Q42.9921 38.5289 46.0477 33.9456 Q49.1264 29.3391 54.9365 29.3391 Z" fill="#000000" fill-rule="evenodd" fill-opacity="1" /><path clip-path="url(#clip170)" d="M75.0984 58.6445 L79.9827 58.6445 L79.9827 64.5241 L75.0984 64.5241 L75.0984 58.6445 Z" fill="#000000" fill-rule="evenodd" fill-opacity="1" /><path clip-path="url(#clip170)" d="M103.015 34.0381 L91.2095 52.4871 L103.015 52.4871 L103.015 34.0381 M101.788 29.9641 L107.668 29.9641 L107.668 52.4871 L112.598 52.4871 L112.598 56.376 L107.668 56.376 L107.668 64.5241 L103.015 64.5241 L103.015 56.376 L87.4132 56.376 L87.4132 51.8621 L101.788 29.9641 Z" fill="#000000" fill-rule="evenodd" fill-opacity="1" /><path clip-path="url(#clip172)" d="
M233.842 1104.27 L233.842 1109.46 L314.74 1109.46 L314.74 1104.27 L233.842 1104.27 L233.842 1104.27  Z
  " fill="#009af9" fill-rule="evenodd" fill-opacity="1"/>
<polyline clip-path="url(#clip172)" style="stroke:#000000; stroke-linecap:round; stroke-linejoin:round; stroke-width:4; stroke-opacity:1; fill:none" points="
  233.842,1104.27 233.842,1109.46 314.74,1109.46 314.74,1104.27 233.842,1104.27 
  "/>
<path clip-path="url(#clip172)" d="
M334.965 1062.78 L334.965 1109.46 L415.863 1109.46 L415.863 1062.78 L334.965 1062.78 L334.965 1062.78  Z
  " fill="#009af9" fill-rule="evenodd" fill-opacity="1"/>
<polyline clip-path="url(#clip172)" style="stroke:#000000; stroke-linecap:round; stroke-linejoin:round; stroke-width:4; stroke-opacity:1; fill:none" points="
  334.965,1062.78 334.965,1109.46 415.863,1109.46 415.863,1062.78 334.965,1062.78 
  "/>
<path clip-path="url(#clip172)" d="
M436.088 922.739 L436.088 1109.46 L516.986 1109.46 L516.986 922.739 L436.088 922.739 L436.088 922.739  Z
  " fill="#009af9" fill-rule="evenodd" fill-opacity="1"/>
<polyline clip-path="url(#clip172)" style="stroke:#000000; stroke-linecap:round; stroke-linejoin:round; stroke-width:4; stroke-opacity:1; fill:none" points="
  436.088,922.739 436.088,1109.46 516.986,1109.46 516.986,922.739 436.088,922.739 
  "/>
<path clip-path="url(#clip172)" d="
M537.21 673.783 L537.21 1109.46 L618.109 1109.46 L618.109 673.783 L537.21 673.783 L537.21 673.783  Z
  " fill="#009af9" fill-rule="evenodd" fill-opacity="1"/>
<polyline clip-path="url(#clip172)" style="stroke:#000000; stroke-linecap:round; stroke-linejoin:round; stroke-width:4; stroke-opacity:1; fill:none" points="
  537.21,673.783 537.21,1109.46 618.109,1109.46 618.109,673.783 537.21,673.783 
  "/>
<path clip-path="url(#clip172)" d="
M638.333 455.947 L638.333 1109.46 L719.231 1109.46 L719.231 455.947 L638.333 455.947 L638.333 455.947  Z
  " fill="#009af9" fill-rule="evenodd" fill-opacity="1"/>
<polyline clip-path="url(#clip172)" style="stroke:#000000; stroke-linecap:round; stroke-linejoin:round; stroke-width:4; stroke-opacity:1; fill:none" points="
  638.333,455.947 638.333,1109.46 719.231,1109.46 719.231,455.947 638.333,455.947 
  "/>
<path clip-path="url(#clip172)" d="
M739.456 455.947 L739.456 1109.46 L820.354 1109.46 L820.354 455.947 L739.456 455.947 L739.456 455.947  Z
  " fill="#009af9" fill-rule="evenodd" fill-opacity="1"/>
<polyline clip-path="url(#clip172)" style="stroke:#000000; stroke-linecap:round; stroke-linejoin:round; stroke-width:4; stroke-opacity:1; fill:none" points="
  739.456,455.947 739.456,1109.46 820.354,1109.46 820.354,455.947 739.456,455.947 
  "/>
<path clip-path="url(#clip172)" d="
M840.579 673.783 L840.579 1109.46 L921.477 1109.46 L921.477 673.783 L840.579 673.783 L840.579 673.783  Z
  " fill="#009af9" fill-rule="evenodd" fill-opacity="1"/>
<polyline clip-path="url(#clip172)" style="stroke:#000000; stroke-linecap:round; stroke-linejoin:round; stroke-width:4; stroke-opacity:1; fill:none" points="
  840.579,673.783 840.579,1109.46 921.477,1109.46 921.477,673.783 840.579,673.783 
  "/>
<path clip-path="url(#clip172)" d="
M941.702 922.739 L941.702 1109.46 L1022.6 1109.46 L1022.6 922.739 L941.702 922.739 L941.702 922.739  Z
  " fill="#009af9" fill-rule="evenodd" fill-opacity="1"/>
<polyline clip-path="url(#clip172)" style="stroke:#000000; stroke-linecap:round; stroke-linejoin:round; stroke-width:4; stroke-opacity:1; fill:none" points="
  941.702,922.739 941.702,1109.46 1022.6,1109.46 1022.6,922.739 941.702,922.739 
  "/>
<path clip-path="url(#clip172)" d="
M1042.82 1062.78 L1042.82 1109.46 L1123.72 1109.46 L1123.72 1062.78 L1042.82 1062.78 L1042.82 1062.78  Z
  " fill="#009af9" fill-rule="evenodd" fill-opacity="1"/>
<polyline clip-path="url(#clip172)" style="stroke:#000000; stroke-linecap:round; stroke-linejoin:round; stroke-width:4; stroke-opacity:1; fill:none" points="
  1042.82,1062.78 1042.82,1109.46 1123.72,1109.46 1123.72,1062.78 1042.82,1062.78 
  "/>
<path clip-path="url(#clip172)" d="
M1143.95 1104.27 L1143.95 1109.46 L1224.85 1109.46 L1224.85 1104.27 L1143.95 1104.27 L1143.95 1104.27  Z
  " fill="#009af9" fill-rule="evenodd" fill-opacity="1"/>
<polyline clip-path="url(#clip172)" style="stroke:#000000; stroke-linecap:round; stroke-linejoin:round; stroke-width:4; stroke-opacity:1; fill:none" points="
  1143.95,1104.27 1143.95,1109.46 1224.85,1109.46 1224.85,1104.27 1143.95,1104.27 
  "/>
<circle clip-path="url(#clip172)" style="fill:#009af9; stroke:none; fill-opacity:0" cx="274.291" cy="1104.27" r="2"/>
<circle clip-path="url(#clip172)" style="fill:#009af9; stroke:none; fill-opacity:0" cx="375.414" cy="1062.78" r="2"/>
<circle clip-path="url(#clip172)" style="fill:#009af9; stroke:none; fill-opacity:0" cx="476.537" cy="922.739" r="2"/>
<circle clip-path="url(#clip172)" style="fill:#009af9; stroke:none; fill-opacity:0" cx="577.66" cy="673.783" r="2"/>
<circle clip-path="url(#clip172)" style="fill:#009af9; stroke:none; fill-opacity:0" cx="678.782" cy="455.947" r="2"/>
<circle clip-path="url(#clip172)" style="fill:#009af9; stroke:none; fill-opacity:0" cx="779.905" cy="455.947" r="2"/>
<circle clip-path="url(#clip172)" style="fill:#009af9; stroke:none; fill-opacity:0" cx="881.028" cy="673.783" r="2"/>
<circle clip-path="url(#clip172)" style="fill:#009af9; stroke:none; fill-opacity:0" cx="982.151" cy="922.739" r="2"/>
<circle clip-path="url(#clip172)" style="fill:#009af9; stroke:none; fill-opacity:0" cx="1083.27" cy="1062.78" r="2"/>
<circle clip-path="url(#clip172)" style="fill:#009af9; stroke:none; fill-opacity:0" cx="1184.4" cy="1104.27" r="2"/>
<path clip-path="url(#clip170)" d="
M810.114 186.331 L1248.97 186.331 L1248.97 82.6512 L810.114 82.6512  Z
  " fill="#ffffff" fill-rule="evenodd" fill-opacity="1"/>
<polyline clip-path="url(#clip170)" style="stroke:#000000; stroke-linecap:round; stroke-linejoin:round; stroke-width:4; stroke-opacity:1; fill:none" points="
  810.114,186.331 1248.97,186.331 1248.97,82.6512 810.114,82.6512 810.114,186.331 
  "/>
<path clip-path="url(#clip170)" d="
M822.487 155.227 L896.719 155.227 L896.719 113.755 L822.487 113.755 L822.487 155.227  Z
  " fill="#009af9" fill-rule="evenodd" fill-opacity="1"/>
<polyline clip-path="url(#clip170)" style="stroke:#000000; stroke-linecap:round; stroke-linejoin:round; stroke-width:4; stroke-opacity:1; fill:none" points="
  822.487,155.227 896.719,155.227 896.719,113.755 822.487,113.755 822.487,155.227 
  "/>
<path clip-path="url(#clip170)" d="M910.665 117.211 L915.689 117.211 L924.277 130.058 L932.911 117.211 L937.934 117.211 L926.823 133.808 L938.675 151.771 L933.651 151.771 L923.929 137.072 L914.138 151.771 L909.091 151.771 L921.429 133.322 L910.665 117.211 Z" fill="#000000" fill-rule="evenodd" fill-opacity="1" /><path clip-path="url(#clip170)" d="M974.855 132.836 L974.855 136.98 Q972.424 138.785 970.341 139.595 Q968.281 140.382 966.036 140.382 Q963.489 140.382 960.11 139.017 Q959.878 138.924 959.716 138.855 Q959.577 138.808 959.23 138.669 Q955.642 137.257 953.466 137.257 Q951.429 137.257 949.438 138.137 Q947.448 139.017 945.179 140.961 L945.179 136.818 Q947.61 135.012 949.67 134.225 Q951.753 133.415 953.999 133.415 Q956.545 133.415 959.948 134.781 Q960.202 134.896 960.318 134.943 Q960.457 134.989 960.804 135.128 Q964.392 136.54 966.568 136.54 Q968.559 136.54 970.503 135.683 Q972.471 134.804 974.855 132.836 Z" fill="#000000" fill-rule="evenodd" fill-opacity="1" /><path clip-path="url(#clip170)" d="M989.207 135.267 L989.207 147.929 L996.707 147.929 Q1000.48 147.929 1002.29 146.378 Q1004.11 144.804 1004.11 141.586 Q1004.11 138.345 1002.29 136.818 Q1000.48 135.267 996.707 135.267 L989.207 135.267 M989.207 121.054 L989.207 131.47 L996.128 131.47 Q999.554 131.47 1001.22 130.197 Q1002.91 128.901 1002.91 126.262 Q1002.91 123.646 1001.22 122.35 Q999.554 121.054 996.128 121.054 L989.207 121.054 M984.531 117.211 L996.475 117.211 Q1001.82 117.211 1004.72 119.433 Q1007.61 121.656 1007.61 125.753 Q1007.61 128.924 1006.13 130.799 Q1004.65 132.674 1001.78 133.137 Q1005.23 133.878 1007.12 136.239 Q1009.04 138.577 1009.04 142.095 Q1009.04 146.725 1005.9 149.248 Q1002.75 151.771 996.938 151.771 L984.531 151.771 L984.531 117.211 Z" fill="#000000" fill-rule="evenodd" fill-opacity="1" /><path clip-path="url(#clip170)" d="M1016.87 125.845 L1021.13 125.845 L1021.13 151.771 L1016.87 151.771 L1016.87 125.845 M1016.87 115.753 L1021.13 115.753 L1021.13 121.146 L1016.87 121.146 L1016.87 115.753 Z" fill="#000000" fill-rule="evenodd" fill-opacity="1" /><path clip-path="url(#clip170)" d="M1051.59 136.123 L1051.59 151.771 L1047.33 151.771 L1047.33 136.262 Q1047.33 132.581 1045.9 130.753 Q1044.46 128.924 1041.59 128.924 Q1038.14 128.924 1036.15 131.123 Q1034.16 133.322 1034.16 137.118 L1034.16 151.771 L1029.88 151.771 L1029.88 125.845 L1034.16 125.845 L1034.16 129.873 Q1035.69 127.535 1037.75 126.378 Q1039.83 125.22 1042.54 125.22 Q1047.01 125.22 1049.3 127.998 Q1051.59 130.753 1051.59 136.123 Z" fill="#000000" fill-rule="evenodd" fill-opacity="1" /><path clip-path="url(#clip170)" d="M1070.32 115.799 Q1067.22 121.123 1065.71 126.331 Q1064.21 131.54 1064.21 136.887 Q1064.21 142.234 1065.71 147.489 Q1067.24 152.72 1070.32 158.021 L1066.61 158.021 Q1063.14 152.581 1061.41 147.327 Q1059.69 142.072 1059.69 136.887 Q1059.69 131.725 1061.41 126.494 Q1063.12 121.262 1066.61 115.799 L1070.32 115.799 Z" fill="#000000" fill-rule="evenodd" fill-opacity="1" /><path clip-path="url(#clip170)" d="M1079.32 151.054 L1079.32 146.794 Q1081.08 147.628 1082.89 148.067 Q1084.69 148.507 1086.43 148.507 Q1091.06 148.507 1093.49 145.405 Q1095.94 142.28 1096.29 135.938 Q1094.95 137.929 1092.89 138.993 Q1090.83 140.058 1088.33 140.058 Q1083.14 140.058 1080.11 136.933 Q1077.1 133.785 1077.1 128.345 Q1077.1 123.021 1080.25 119.804 Q1083.4 116.586 1088.63 116.586 Q1094.62 116.586 1097.77 121.193 Q1100.94 125.776 1100.94 134.526 Q1100.94 142.697 1097.05 147.581 Q1093.19 152.442 1086.64 152.442 Q1084.88 152.442 1083.07 152.095 Q1081.27 151.748 1079.32 151.054 M1088.63 136.401 Q1091.78 136.401 1093.6 134.248 Q1095.46 132.095 1095.46 128.345 Q1095.46 124.619 1093.6 122.466 Q1091.78 120.29 1088.63 120.29 Q1085.48 120.29 1083.63 122.466 Q1081.8 124.619 1081.8 128.345 Q1081.8 132.095 1083.63 134.248 Q1085.48 136.401 1088.63 136.401 Z" fill="#000000" fill-rule="evenodd" fill-opacity="1" /><path clip-path="url(#clip170)" d="M1109.83 145.892 L1114.72 145.892 L1114.72 149.873 L1110.92 157.28 L1107.93 157.28 L1109.83 149.873 L1109.83 145.892 Z" fill="#000000" fill-rule="evenodd" fill-opacity="1" /><path clip-path="url(#clip170)" d="M1149.48 120.29 Q1145.87 120.29 1144.04 123.855 Q1142.24 127.396 1142.24 134.526 Q1142.24 141.632 1144.04 145.197 Q1145.87 148.739 1149.48 148.739 Q1153.12 148.739 1154.92 145.197 Q1156.75 141.632 1156.75 134.526 Q1156.75 127.396 1154.92 123.855 Q1153.12 120.29 1149.48 120.29 M1149.48 116.586 Q1155.29 116.586 1158.35 121.193 Q1161.43 125.776 1161.43 134.526 Q1161.43 143.253 1158.35 147.859 Q1155.29 152.442 1149.48 152.442 Q1143.67 152.442 1140.59 147.859 Q1137.54 143.253 1137.54 134.526 Q1137.54 125.776 1140.59 121.193 Q1143.67 116.586 1149.48 116.586 Z" fill="#000000" fill-rule="evenodd" fill-opacity="1" /><path clip-path="url(#clip170)" d="M1169.65 145.892 L1174.53 145.892 L1174.53 151.771 L1169.65 151.771 L1169.65 145.892 Z" fill="#000000" fill-rule="evenodd" fill-opacity="1" /><path clip-path="url(#clip170)" d="M1184.76 117.211 L1203.12 117.211 L1203.12 121.146 L1189.04 121.146 L1189.04 129.618 Q1190.06 129.271 1191.08 129.109 Q1192.1 128.924 1193.12 128.924 Q1198.9 128.924 1202.28 132.095 Q1205.66 135.267 1205.66 140.683 Q1205.66 146.262 1202.19 149.364 Q1198.72 152.442 1192.4 152.442 Q1190.22 152.442 1187.96 152.072 Q1185.71 151.702 1183.3 150.961 L1183.3 146.262 Q1185.39 147.396 1187.61 147.952 Q1189.83 148.507 1192.31 148.507 Q1196.31 148.507 1198.65 146.401 Q1200.99 144.294 1200.99 140.683 Q1200.99 137.072 1198.65 134.966 Q1196.31 132.859 1192.31 132.859 Q1190.43 132.859 1188.56 133.276 Q1186.71 133.693 1184.76 134.572 L1184.76 117.211 Z" fill="#000000" fill-rule="evenodd" fill-opacity="1" /><path clip-path="url(#clip170)" d="M1213.6 115.799 L1217.31 115.799 Q1220.78 121.262 1222.49 126.494 Q1224.23 131.725 1224.23 136.887 Q1224.23 142.072 1222.49 147.327 Q1220.78 152.581 1217.31 158.021 L1213.6 158.021 Q1216.68 152.72 1218.19 147.489 Q1219.71 142.234 1219.71 136.887 Q1219.71 131.54 1218.19 126.331 Q1216.68 121.123 1213.6 115.799 Z" fill="#000000" fill-rule="evenodd" fill-opacity="1" /><path clip-path="url(#clip170)" d="
M1505.93 1109.46 L2619.42 1109.46 L2619.42 47.2441 L1505.93 47.2441  Z
  " fill="#ffffff" fill-rule="evenodd" fill-opacity="1"/>
<defs>
  <clipPath id="clip173">
    <rect x="1505" y="47" width="1114" height="1063"/>
  </clipPath>
</defs>
<polyline clip-path="url(#clip173)" style="stroke:#000000; stroke-linecap:round; stroke-linejoin:round; stroke-width:2; stroke-opacity:0.1; fill:none" points="
  1531.78,1109.46 1531.78,47.2441 
  "/>
<polyline clip-path="url(#clip173)" style="stroke:#000000; stroke-linecap:round; stroke-linejoin:round; stroke-width:2; stroke-opacity:0.1; fill:none" points="
  1708.75,1109.46 1708.75,47.2441 
  "/>
<polyline clip-path="url(#clip173)" style="stroke:#000000; stroke-linecap:round; stroke-linejoin:round; stroke-width:2; stroke-opacity:0.1; fill:none" points="
  1885.71,1109.46 1885.71,47.2441 
  "/>
<polyline clip-path="url(#clip173)" style="stroke:#000000; stroke-linecap:round; stroke-linejoin:round; stroke-width:2; stroke-opacity:0.1; fill:none" points="
  2062.68,1109.46 2062.68,47.2441 
  "/>
<polyline clip-path="url(#clip173)" style="stroke:#000000; stroke-linecap:round; stroke-linejoin:round; stroke-width:2; stroke-opacity:0.1; fill:none" points="
  2239.64,1109.46 2239.64,47.2441 
  "/>
<polyline clip-path="url(#clip173)" style="stroke:#000000; stroke-linecap:round; stroke-linejoin:round; stroke-width:2; stroke-opacity:0.1; fill:none" points="
  2416.61,1109.46 2416.61,47.2441 
  "/>
<polyline clip-path="url(#clip173)" style="stroke:#000000; stroke-linecap:round; stroke-linejoin:round; stroke-width:2; stroke-opacity:0.1; fill:none" points="
  2593.57,1109.46 2593.57,47.2441 
  "/>
<polyline clip-path="url(#clip170)" style="stroke:#000000; stroke-linecap:round; stroke-linejoin:round; stroke-width:4; stroke-opacity:1; fill:none" points="
  1505.93,1109.46 2619.42,1109.46 
  "/>
<polyline clip-path="url(#clip170)" style="stroke:#000000; stroke-linecap:round; stroke-linejoin:round; stroke-width:4; stroke-opacity:1; fill:none" points="
  1531.78,1109.46 1531.78,1090.56 
  "/>
<polyline clip-path="url(#clip170)" style="stroke:#000000; stroke-linecap:round; stroke-linejoin:round; stroke-width:4; stroke-opacity:1; fill:none" points="
  1708.75,1109.46 1708.75,1090.56 
  "/>
<polyline clip-path="url(#clip170)" style="stroke:#000000; stroke-linecap:round; stroke-linejoin:round; stroke-width:4; stroke-opacity:1; fill:none" points="
  1885.71,1109.46 1885.71,1090.56 
  "/>
<polyline clip-path="url(#clip170)" style="stroke:#000000; stroke-linecap:round; stroke-linejoin:round; stroke-width:4; stroke-opacity:1; fill:none" points="
  2062.68,1109.46 2062.68,1090.56 
  "/>
<polyline clip-path="url(#clip170)" style="stroke:#000000; stroke-linecap:round; stroke-linejoin:round; stroke-width:4; stroke-opacity:1; fill:none" points="
  2239.64,1109.46 2239.64,1090.56 
  "/>
<polyline clip-path="url(#clip170)" style="stroke:#000000; stroke-linecap:round; stroke-linejoin:round; stroke-width:4; stroke-opacity:1; fill:none" points="
  2416.61,1109.46 2416.61,1090.56 
  "/>
<polyline clip-path="url(#clip170)" style="stroke:#000000; stroke-linecap:round; stroke-linejoin:round; stroke-width:4; stroke-opacity:1; fill:none" points="
  2593.57,1109.46 2593.57,1090.56 
  "/>
<path clip-path="url(#clip170)" d="M1478.81 1167.83 L1508.48 1167.83 L1508.48 1171.76 L1478.81 1171.76 L1478.81 1167.83 Z" fill="#000000" fill-rule="evenodd" fill-opacity="1" /><path clip-path="url(#clip170)" d="M1528.58 1153.17 Q1524.97 1153.17 1523.14 1156.74 Q1521.33 1160.28 1521.33 1167.41 Q1521.33 1174.52 1523.14 1178.08 Q1524.97 1181.62 1528.58 1181.62 Q1532.21 1181.62 1534.02 1178.08 Q1535.85 1174.52 1535.85 1167.41 Q1535.85 1160.28 1534.02 1156.74 Q1532.21 1153.17 1528.58 1153.17 M1528.58 1149.47 Q1534.39 1149.47 1537.44 1154.08 Q1540.52 1158.66 1540.52 1167.41 Q1540.52 1176.14 1537.44 1180.74 Q1534.39 1185.33 1528.58 1185.33 Q1522.77 1185.33 1519.69 1180.74 Q1516.63 1176.14 1516.63 1167.41 Q1516.63 1158.66 1519.69 1154.08 Q1522.77 1149.47 1528.58 1149.47 Z" fill="#000000" fill-rule="evenodd" fill-opacity="1" /><path clip-path="url(#clip170)" d="M1548.74 1178.78 L1553.62 1178.78 L1553.62 1184.66 L1548.74 1184.66 L1548.74 1178.78 Z" fill="#000000" fill-rule="evenodd" fill-opacity="1" /><path clip-path="url(#clip170)" d="M1563.85 1150.1 L1582.21 1150.1 L1582.21 1154.03 L1568.14 1154.03 L1568.14 1162.5 Q1569.16 1162.16 1570.17 1161.99 Q1571.19 1161.81 1572.21 1161.81 Q1578 1161.81 1581.38 1164.98 Q1584.76 1168.15 1584.76 1173.57 Q1584.76 1179.15 1581.28 1182.25 Q1577.81 1185.33 1571.49 1185.33 Q1569.32 1185.33 1567.05 1184.96 Q1564.8 1184.59 1562.4 1183.85 L1562.4 1179.15 Q1564.48 1180.28 1566.7 1180.84 Q1568.92 1181.39 1571.4 1181.39 Q1575.41 1181.39 1577.74 1179.29 Q1580.08 1177.18 1580.08 1173.57 Q1580.08 1169.96 1577.74 1167.85 Q1575.41 1165.74 1571.4 1165.74 Q1569.53 1165.74 1567.65 1166.16 Q1565.8 1166.58 1563.85 1167.46 L1563.85 1150.1 Z" fill="#000000" fill-rule="evenodd" fill-opacity="1" /><path clip-path="url(#clip170)" d="M1686.13 1153.17 Q1682.52 1153.17 1680.69 1156.74 Q1678.89 1160.28 1678.89 1167.41 Q1678.89 1174.52 1680.69 1178.08 Q1682.52 1181.62 1686.13 1181.62 Q1689.77 1181.62 1691.57 1178.08 Q1693.4 1174.52 1693.4 1167.41 Q1693.4 1160.28 1691.57 1156.74 Q1689.77 1153.17 1686.13 1153.17 M1686.13 1149.47 Q1691.94 1149.47 1695 1154.08 Q1698.08 1158.66 1698.08 1167.41 Q1698.08 1176.14 1695 1180.74 Q1691.94 1185.33 1686.13 1185.33 Q1680.32 1185.33 1677.24 1180.74 Q1674.19 1176.14 1674.19 1167.41 Q1674.19 1158.66 1677.24 1154.08 Q1680.32 1149.47 1686.13 1149.47 Z" fill="#000000" fill-rule="evenodd" fill-opacity="1" /><path clip-path="url(#clip170)" d="M1706.29 1178.78 L1711.18 1178.78 L1711.18 1184.66 L1706.29 1184.66 L1706.29 1178.78 Z" fill="#000000" fill-rule="evenodd" fill-opacity="1" /><path clip-path="url(#clip170)" d="M1731.36 1153.17 Q1727.75 1153.17 1725.92 1156.74 Q1724.12 1160.28 1724.12 1167.41 Q1724.12 1174.52 1725.92 1178.08 Q1727.75 1181.62 1731.36 1181.62 Q1735 1181.62 1736.8 1178.08 Q1738.63 1174.52 1738.63 1167.41 Q1738.63 1160.28 1736.8 1156.74 Q1735 1153.17 1731.36 1153.17 M1731.36 1149.47 Q1737.17 1149.47 1740.23 1154.08 Q1743.31 1158.66 1743.31 1167.41 Q1743.31 1176.14 1740.23 1180.74 Q1737.17 1185.33 1731.36 1185.33 Q1725.55 1185.33 1722.47 1180.74 Q1719.42 1176.14 1719.42 1167.41 Q1719.42 1158.66 1722.47 1154.08 Q1725.55 1149.47 1731.36 1149.47 Z" fill="#000000" fill-rule="evenodd" fill-opacity="1" /><path clip-path="url(#clip170)" d="M1863.59 1153.17 Q1859.98 1153.17 1858.15 1156.74 Q1856.35 1160.28 1856.35 1167.41 Q1856.35 1174.52 1858.15 1178.08 Q1859.98 1181.62 1863.59 1181.62 Q1867.23 1181.62 1869.03 1178.08 Q1870.86 1174.52 1870.86 1167.41 Q1870.86 1160.28 1869.03 1156.74 Q1867.23 1153.17 1863.59 1153.17 M1863.59 1149.47 Q1869.4 1149.47 1872.46 1154.08 Q1875.54 1158.66 1875.54 1167.41 Q1875.54 1176.14 1872.46 1180.74 Q1869.4 1185.33 1863.59 1185.33 Q1857.78 1185.33 1854.71 1180.74 Q1851.65 1176.14 1851.65 1167.41 Q1851.65 1158.66 1854.71 1154.08 Q1857.78 1149.47 1863.59 1149.47 Z" fill="#000000" fill-rule="evenodd" fill-opacity="1" /><path clip-path="url(#clip170)" d="M1883.76 1178.78 L1888.64 1178.78 L1888.64 1184.66 L1883.76 1184.66 L1883.76 1178.78 Z" fill="#000000" fill-rule="evenodd" fill-opacity="1" /><path clip-path="url(#clip170)" d="M1898.87 1150.1 L1917.23 1150.1 L1917.23 1154.03 L1903.15 1154.03 L1903.15 1162.5 Q1904.17 1162.16 1905.19 1161.99 Q1906.21 1161.81 1907.23 1161.81 Q1913.02 1161.81 1916.39 1164.98 Q1919.77 1168.15 1919.77 1173.57 Q1919.77 1179.15 1916.3 1182.25 Q1912.83 1185.33 1906.51 1185.33 Q1904.33 1185.33 1902.07 1184.96 Q1899.82 1184.59 1897.41 1183.85 L1897.41 1179.15 Q1899.5 1180.28 1901.72 1180.84 Q1903.94 1181.39 1906.42 1181.39 Q1910.42 1181.39 1912.76 1179.29 Q1915.1 1177.18 1915.1 1173.57 Q1915.1 1169.96 1912.76 1167.85 Q1910.42 1165.74 1906.42 1165.74 Q1904.54 1165.74 1902.67 1166.16 Q1900.82 1166.58 1898.87 1167.46 L1898.87 1150.1 Z" fill="#000000" fill-rule="evenodd" fill-opacity="1" /><path clip-path="url(#clip170)" d="M2029.83 1180.72 L2037.47 1180.72 L2037.47 1154.36 L2029.16 1156.02 L2029.16 1151.76 L2037.42 1150.1 L2042.1 1150.1 L2042.1 1180.72 L2049.74 1180.72 L2049.74 1184.66 L2029.83 1184.66 L2029.83 1180.72 Z" fill="#000000" fill-rule="evenodd" fill-opacity="1" /><path clip-path="url(#clip170)" d="M2059.18 1178.78 L2064.07 1178.78 L2064.07 1184.66 L2059.18 1184.66 L2059.18 1178.78 Z" fill="#000000" fill-rule="evenodd" fill-opacity="1" /><path clip-path="url(#clip170)" d="M2084.25 1153.17 Q2080.64 1153.17 2078.81 1156.74 Q2077.01 1160.28 2077.01 1167.41 Q2077.01 1174.52 2078.81 1178.08 Q2080.64 1181.62 2084.25 1181.62 Q2087.89 1181.62 2089.69 1178.08 Q2091.52 1174.52 2091.52 1167.41 Q2091.52 1160.28 2089.69 1156.74 Q2087.89 1153.17 2084.25 1153.17 M2084.25 1149.47 Q2090.06 1149.47 2093.12 1154.08 Q2096.2 1158.66 2096.2 1167.41 Q2096.2 1176.14 2093.12 1180.74 Q2090.06 1185.33 2084.25 1185.33 Q2078.44 1185.33 2075.36 1180.74 Q2072.31 1176.14 2072.31 1167.41 Q2072.31 1158.66 2075.36 1154.08 Q2078.44 1149.47 2084.25 1149.47 Z" fill="#000000" fill-rule="evenodd" fill-opacity="1" /><path clip-path="url(#clip170)" d="M2207.29 1180.72 L2214.93 1180.72 L2214.93 1154.36 L2206.62 1156.02 L2206.62 1151.76 L2214.89 1150.1 L2219.56 1150.1 L2219.56 1180.72 L2227.2 1180.72 L2227.2 1184.66 L2207.29 1184.66 L2207.29 1180.72 Z" fill="#000000" fill-rule="evenodd" fill-opacity="1" /><path clip-path="url(#clip170)" d="M2236.64 1178.78 L2241.53 1178.78 L2241.53 1184.66 L2236.64 1184.66 L2236.64 1178.78 Z" fill="#000000" fill-rule="evenodd" fill-opacity="1" /><path clip-path="url(#clip170)" d="M2251.76 1150.1 L2270.12 1150.1 L2270.12 1154.03 L2256.04 1154.03 L2256.04 1162.5 Q2257.06 1162.16 2258.08 1161.99 Q2259.1 1161.81 2260.12 1161.81 Q2265.9 1161.81 2269.28 1164.98 Q2272.66 1168.15 2272.66 1173.57 Q2272.66 1179.15 2269.19 1182.25 Q2265.72 1185.33 2259.4 1185.33 Q2257.22 1185.33 2254.95 1184.96 Q2252.71 1184.59 2250.3 1183.85 L2250.3 1179.15 Q2252.38 1180.28 2254.61 1180.84 Q2256.83 1181.39 2259.31 1181.39 Q2263.31 1181.39 2265.65 1179.29 Q2267.99 1177.18 2267.99 1173.57 Q2267.99 1169.96 2265.65 1167.85 Q2263.31 1165.74 2259.31 1165.74 Q2257.43 1165.74 2255.56 1166.16 Q2253.7 1166.58 2251.76 1167.46 L2251.76 1150.1 Z" fill="#000000" fill-rule="evenodd" fill-opacity="1" /><path clip-path="url(#clip170)" d="M2387.85 1180.72 L2404.16 1180.72 L2404.16 1184.66 L2382.22 1184.66 L2382.22 1180.72 Q2384.88 1177.97 2389.47 1173.34 Q2394.07 1168.68 2395.25 1167.34 Q2397.5 1164.82 2398.38 1163.08 Q2399.28 1161.32 2399.28 1159.63 Q2399.28 1156.88 2397.34 1155.14 Q2395.41 1153.41 2392.31 1153.41 Q2390.11 1153.41 2387.66 1154.17 Q2385.23 1154.93 2382.45 1156.48 L2382.45 1151.76 Q2385.28 1150.63 2387.73 1150.05 Q2390.18 1149.47 2392.22 1149.47 Q2397.59 1149.47 2400.79 1152.16 Q2403.98 1154.84 2403.98 1159.33 Q2403.98 1161.46 2403.17 1163.38 Q2402.38 1165.28 2400.28 1167.87 Q2399.7 1168.54 2396.6 1171.76 Q2393.49 1174.96 2387.85 1180.72 Z" fill="#000000" fill-rule="evenodd" fill-opacity="1" /><path clip-path="url(#clip170)" d="M2413.98 1178.78 L2418.86 1178.78 L2418.86 1184.66 L2413.98 1184.66 L2413.98 1178.78 Z" fill="#000000" fill-rule="evenodd" fill-opacity="1" /><path clip-path="url(#clip170)" d="M2439.05 1153.17 Q2435.44 1153.17 2433.61 1156.74 Q2431.8 1160.28 2431.8 1167.41 Q2431.8 1174.52 2433.61 1178.08 Q2435.44 1181.62 2439.05 1181.62 Q2442.68 1181.62 2444.49 1178.08 Q2446.32 1174.52 2446.32 1167.41 Q2446.32 1160.28 2444.49 1156.74 Q2442.68 1153.17 2439.05 1153.17 M2439.05 1149.47 Q2444.86 1149.47 2447.91 1154.08 Q2450.99 1158.66 2450.99 1167.41 Q2450.99 1176.14 2447.91 1180.74 Q2444.86 1185.33 2439.05 1185.33 Q2433.24 1185.33 2430.16 1180.74 Q2427.1 1176.14 2427.1 1167.41 Q2427.1 1158.66 2430.16 1154.08 Q2433.24 1149.47 2439.05 1149.47 Z" fill="#000000" fill-rule="evenodd" fill-opacity="1" /><path clip-path="url(#clip170)" d="M2565.31 1180.72 L2581.63 1180.72 L2581.63 1184.66 L2559.68 1184.66 L2559.68 1180.72 Q2562.34 1177.97 2566.93 1173.34 Q2571.53 1168.68 2572.72 1167.34 Q2574.96 1164.82 2575.84 1163.08 Q2576.74 1161.32 2576.74 1159.63 Q2576.74 1156.88 2574.8 1155.14 Q2572.88 1153.41 2569.78 1153.41 Q2567.58 1153.41 2565.12 1154.17 Q2562.69 1154.93 2559.91 1156.48 L2559.91 1151.76 Q2562.74 1150.63 2565.19 1150.05 Q2567.65 1149.47 2569.68 1149.47 Q2575.05 1149.47 2578.25 1152.16 Q2581.44 1154.84 2581.44 1159.33 Q2581.44 1161.46 2580.63 1163.38 Q2579.84 1165.28 2577.74 1167.87 Q2577.16 1168.54 2574.06 1171.76 Q2570.96 1174.96 2565.31 1180.72 Z" fill="#000000" fill-rule="evenodd" fill-opacity="1" /><path clip-path="url(#clip170)" d="M2591.44 1178.78 L2596.33 1178.78 L2596.33 1184.66 L2591.44 1184.66 L2591.44 1178.78 Z" fill="#000000" fill-rule="evenodd" fill-opacity="1" /><path clip-path="url(#clip170)" d="M2606.56 1150.1 L2624.91 1150.1 L2624.91 1154.03 L2610.84 1154.03 L2610.84 1162.5 Q2611.86 1162.16 2612.88 1161.99 Q2613.9 1161.81 2614.91 1161.81 Q2620.7 1161.81 2624.08 1164.98 Q2627.46 1168.15 2627.46 1173.57 Q2627.46 1179.15 2623.99 1182.25 Q2620.52 1185.33 2614.2 1185.33 Q2612.02 1185.33 2609.75 1184.96 Q2607.51 1184.59 2605.1 1183.85 L2605.1 1179.15 Q2607.18 1180.28 2609.4 1180.84 Q2611.63 1181.39 2614.1 1181.39 Q2618.11 1181.39 2620.45 1179.29 Q2622.78 1177.18 2622.78 1173.57 Q2622.78 1169.96 2620.45 1167.85 Q2618.11 1165.74 2614.1 1165.74 Q2612.23 1165.74 2610.35 1166.16 Q2608.5 1166.58 2606.56 1167.46 L2606.56 1150.1 Z" fill="#000000" fill-rule="evenodd" fill-opacity="1" /><polyline clip-path="url(#clip173)" style="stroke:#000000; stroke-linecap:round; stroke-linejoin:round; stroke-width:2; stroke-opacity:0.1; fill:none" points="
  1505.93,1109.46 2619.42,1109.46 
  "/>
<polyline clip-path="url(#clip173)" style="stroke:#000000; stroke-linecap:round; stroke-linejoin:round; stroke-width:2; stroke-opacity:0.1; fill:none" points="
  1505.93,843.903 2619.42,843.903 
  "/>
<polyline clip-path="url(#clip173)" style="stroke:#000000; stroke-linecap:round; stroke-linejoin:round; stroke-width:2; stroke-opacity:0.1; fill:none" points="
  1505.93,578.35 2619.42,578.35 
  "/>
<polyline clip-path="url(#clip173)" style="stroke:#000000; stroke-linecap:round; stroke-linejoin:round; stroke-width:2; stroke-opacity:0.1; fill:none" points="
  1505.93,312.797 2619.42,312.797 
  "/>
<polyline clip-path="url(#clip173)" style="stroke:#000000; stroke-linecap:round; stroke-linejoin:round; stroke-width:2; stroke-opacity:0.1; fill:none" points="
  1505.93,47.2441 2619.42,47.2441 
  "/>
<polyline clip-path="url(#clip170)" style="stroke:#000000; stroke-linecap:round; stroke-linejoin:round; stroke-width:4; stroke-opacity:1; fill:none" points="
  1505.93,1109.46 1505.93,47.2441 
  "/>
<polyline clip-path="url(#clip170)" style="stroke:#000000; stroke-linecap:round; stroke-linejoin:round; stroke-width:4; stroke-opacity:1; fill:none" points="
  1505.93,1109.46 1524.83,1109.46 
  "/>
<polyline clip-path="url(#clip170)" style="stroke:#000000; stroke-linecap:round; stroke-linejoin:round; stroke-width:4; stroke-opacity:1; fill:none" points="
  1505.93,843.903 1524.83,843.903 
  "/>
<polyline clip-path="url(#clip170)" style="stroke:#000000; stroke-linecap:round; stroke-linejoin:round; stroke-width:4; stroke-opacity:1; fill:none" points="
  1505.93,578.35 1524.83,578.35 
  "/>
<polyline clip-path="url(#clip170)" style="stroke:#000000; stroke-linecap:round; stroke-linejoin:round; stroke-width:4; stroke-opacity:1; fill:none" points="
  1505.93,312.797 1524.83,312.797 
  "/>
<polyline clip-path="url(#clip170)" style="stroke:#000000; stroke-linecap:round; stroke-linejoin:round; stroke-width:4; stroke-opacity:1; fill:none" points="
  1505.93,47.2441 1524.83,47.2441 
  "/>
<path clip-path="url(#clip170)" d="M1388.76 1095.25 Q1385.14 1095.25 1383.32 1098.82 Q1381.51 1102.36 1381.51 1109.49 Q1381.51 1116.6 1383.32 1120.16 Q1385.14 1123.7 1388.76 1123.7 Q1392.39 1123.7 1394.2 1120.16 Q1396.02 1116.6 1396.02 1109.49 Q1396.02 1102.36 1394.2 1098.82 Q1392.39 1095.25 1388.76 1095.25 M1388.76 1091.55 Q1394.57 1091.55 1397.62 1096.16 Q1400.7 1100.74 1400.7 1109.49 Q1400.7 1118.22 1397.62 1122.82 Q1394.57 1127.41 1388.76 1127.41 Q1382.95 1127.41 1379.87 1122.82 Q1376.81 1118.22 1376.81 1109.49 Q1376.81 1100.74 1379.87 1096.16 Q1382.95 1091.55 1388.76 1091.55 Z" fill="#000000" fill-rule="evenodd" fill-opacity="1" /><path clip-path="url(#clip170)" d="M1408.92 1120.86 L1413.8 1120.86 L1413.8 1126.74 L1408.92 1126.74 L1408.92 1120.86 Z" fill="#000000" fill-rule="evenodd" fill-opacity="1" /><path clip-path="url(#clip170)" d="M1433.99 1095.25 Q1430.38 1095.25 1428.55 1098.82 Q1426.74 1102.36 1426.74 1109.49 Q1426.74 1116.6 1428.55 1120.16 Q1430.38 1123.7 1433.99 1123.7 Q1437.62 1123.7 1439.43 1120.16 Q1441.26 1116.6 1441.26 1109.49 Q1441.26 1102.36 1439.43 1098.82 Q1437.62 1095.25 1433.99 1095.25 M1433.99 1091.55 Q1439.8 1091.55 1442.85 1096.16 Q1445.93 1100.74 1445.93 1109.49 Q1445.93 1118.22 1442.85 1122.82 Q1439.8 1127.41 1433.99 1127.41 Q1428.18 1127.41 1425.1 1122.82 Q1422.04 1118.22 1422.04 1109.49 Q1422.04 1100.74 1425.1 1096.16 Q1428.18 1091.55 1433.99 1091.55 Z" fill="#000000" fill-rule="evenodd" fill-opacity="1" /><path clip-path="url(#clip170)" d="M1389.98 829.702 Q1386.37 829.702 1384.54 833.266 Q1382.74 836.808 1382.74 843.938 Q1382.74 851.044 1384.54 854.609 Q1386.37 858.151 1389.98 858.151 Q1393.62 858.151 1395.42 854.609 Q1397.25 851.044 1397.25 843.938 Q1397.25 836.808 1395.42 833.266 Q1393.62 829.702 1389.98 829.702 M1389.98 825.998 Q1395.79 825.998 1398.85 830.604 Q1401.93 835.188 1401.93 843.938 Q1401.93 852.664 1398.85 857.271 Q1395.79 861.854 1389.98 861.854 Q1384.17 861.854 1381.09 857.271 Q1378.04 852.664 1378.04 843.938 Q1378.04 835.188 1381.09 830.604 Q1384.17 825.998 1389.98 825.998 Z" fill="#000000" fill-rule="evenodd" fill-opacity="1" /><path clip-path="url(#clip170)" d="M1410.14 855.303 L1415.03 855.303 L1415.03 861.183 L1410.14 861.183 L1410.14 855.303 Z" fill="#000000" fill-rule="evenodd" fill-opacity="1" /><path clip-path="url(#clip170)" d="M1426.02 857.248 L1433.66 857.248 L1433.66 830.882 L1425.35 832.549 L1425.35 828.29 L1433.62 826.623 L1438.29 826.623 L1438.29 857.248 L1445.93 857.248 L1445.93 861.183 L1426.02 861.183 L1426.02 857.248 Z" fill="#000000" fill-rule="evenodd" fill-opacity="1" /><path clip-path="url(#clip170)" d="M1390.35 564.149 Q1386.74 564.149 1384.91 567.713 Q1383.11 571.255 1383.11 578.385 Q1383.11 585.491 1384.91 589.056 Q1386.74 592.598 1390.35 592.598 Q1393.99 592.598 1395.79 589.056 Q1397.62 585.491 1397.62 578.385 Q1397.62 571.255 1395.79 567.713 Q1393.99 564.149 1390.35 564.149 M1390.35 560.445 Q1396.16 560.445 1399.22 565.051 Q1402.3 569.635 1402.3 578.385 Q1402.3 587.112 1399.22 591.718 Q1396.16 596.301 1390.35 596.301 Q1384.54 596.301 1381.46 591.718 Q1378.41 587.112 1378.41 578.385 Q1378.41 569.635 1381.46 565.051 Q1384.54 560.445 1390.35 560.445 Z" fill="#000000" fill-rule="evenodd" fill-opacity="1" /><path clip-path="url(#clip170)" d="M1410.52 589.75 L1415.4 589.75 L1415.4 595.63 L1410.52 595.63 L1410.52 589.75 Z" fill="#000000" fill-rule="evenodd" fill-opacity="1" /><path clip-path="url(#clip170)" d="M1429.61 591.695 L1445.93 591.695 L1445.93 595.63 L1423.99 595.63 L1423.99 591.695 Q1426.65 588.94 1431.23 584.311 Q1435.84 579.658 1437.02 578.315 Q1439.26 575.792 1440.14 574.056 Q1441.05 572.297 1441.05 570.607 Q1441.05 567.852 1439.1 566.116 Q1437.18 564.38 1434.08 564.38 Q1431.88 564.38 1429.43 565.144 Q1427 565.908 1424.22 567.459 L1424.22 562.737 Q1427.04 561.602 1429.5 561.024 Q1431.95 560.445 1433.99 560.445 Q1439.36 560.445 1442.55 563.13 Q1445.75 565.815 1445.75 570.306 Q1445.75 572.436 1444.94 574.357 Q1444.15 576.255 1442.04 578.848 Q1441.46 579.519 1438.36 582.737 Q1435.26 585.931 1429.61 591.695 Z" fill="#000000" fill-rule="evenodd" fill-opacity="1" /><path clip-path="url(#clip170)" d="M1389.4 298.596 Q1385.79 298.596 1383.96 302.161 Q1382.16 305.702 1382.16 312.832 Q1382.16 319.938 1383.96 323.503 Q1385.79 327.045 1389.4 327.045 Q1393.04 327.045 1394.84 323.503 Q1396.67 319.938 1396.67 312.832 Q1396.67 305.702 1394.84 302.161 Q1393.04 298.596 1389.4 298.596 M1389.4 294.892 Q1395.21 294.892 1398.27 299.498 Q1401.35 304.082 1401.35 312.832 Q1401.35 321.559 1398.27 326.165 Q1395.21 330.748 1389.4 330.748 Q1383.59 330.748 1380.52 326.165 Q1377.46 321.559 1377.46 312.832 Q1377.46 304.082 1380.52 299.498 Q1383.59 294.892 1389.4 294.892 Z" fill="#000000" fill-rule="evenodd" fill-opacity="1" /><path clip-path="url(#clip170)" d="M1409.57 324.197 L1414.45 324.197 L1414.45 330.077 L1409.57 330.077 L1409.57 324.197 Z" fill="#000000" fill-rule="evenodd" fill-opacity="1" /><path clip-path="url(#clip170)" d="M1438.8 311.443 Q1442.16 312.16 1444.03 314.429 Q1445.93 316.697 1445.93 320.031 Q1445.93 325.147 1442.41 327.947 Q1438.89 330.748 1432.41 330.748 Q1430.24 330.748 1427.92 330.309 Q1425.63 329.892 1423.18 329.035 L1423.18 324.522 Q1425.12 325.656 1427.44 326.234 Q1429.75 326.813 1432.27 326.813 Q1436.67 326.813 1438.96 325.077 Q1441.28 323.341 1441.28 320.031 Q1441.28 316.975 1439.13 315.262 Q1437 313.526 1433.18 313.526 L1429.15 313.526 L1429.15 309.684 L1433.36 309.684 Q1436.81 309.684 1438.64 308.318 Q1440.47 306.929 1440.47 304.336 Q1440.47 301.674 1438.57 300.262 Q1436.7 298.827 1433.18 298.827 Q1431.26 298.827 1429.06 299.244 Q1426.86 299.661 1424.22 300.54 L1424.22 296.374 Q1426.88 295.633 1429.2 295.262 Q1431.53 294.892 1433.59 294.892 Q1438.92 294.892 1442.02 297.323 Q1445.12 299.73 1445.12 303.85 Q1445.12 306.721 1443.48 308.711 Q1441.83 310.679 1438.8 311.443 Z" fill="#000000" fill-rule="evenodd" fill-opacity="1" /><path clip-path="url(#clip170)" d="M1388.27 33.0428 Q1384.66 33.0428 1382.83 36.6076 Q1381.02 40.1492 1381.02 47.2788 Q1381.02 54.3853 1382.83 57.9501 Q1384.66 61.4917 1388.27 61.4917 Q1391.9 61.4917 1393.71 57.9501 Q1395.54 54.3853 1395.54 47.2788 Q1395.54 40.1492 1393.71 36.6076 Q1391.9 33.0428 1388.27 33.0428 M1388.27 29.3391 Q1394.08 29.3391 1397.14 33.9456 Q1400.21 38.5289 1400.21 47.2788 Q1400.21 56.0056 1397.14 60.6121 Q1394.08 65.1954 1388.27 65.1954 Q1382.46 65.1954 1379.38 60.6121 Q1376.33 56.0056 1376.33 47.2788 Q1376.33 38.5289 1379.38 33.9456 Q1382.46 29.3391 1388.27 29.3391 Z" fill="#000000" fill-rule="evenodd" fill-opacity="1" /><path clip-path="url(#clip170)" d="M1408.43 58.6445 L1413.32 58.6445 L1413.32 64.5241 L1408.43 64.5241 L1408.43 58.6445 Z" fill="#000000" fill-rule="evenodd" fill-opacity="1" /><path clip-path="url(#clip170)" d="M1436.35 34.0381 L1424.54 52.4871 L1436.35 52.4871 L1436.35 34.0381 M1435.12 29.9641 L1441 29.9641 L1441 52.4871 L1445.93 52.4871 L1445.93 56.376 L1441 56.376 L1441 64.5241 L1436.35 64.5241 L1436.35 56.376 L1420.75 56.376 L1420.75 51.8621 L1435.12 29.9641 Z" fill="#000000" fill-rule="evenodd" fill-opacity="1" /><path clip-path="url(#clip173)" d="
M1567.18 224.279 L1567.18 1109.46 L1850.32 1109.46 L1850.32 224.279 L1567.18 224.279 L1567.18 224.279  Z
  " fill="#009af9" fill-rule="evenodd" fill-opacity="1"/>
<polyline clip-path="url(#clip173)" style="stroke:#000000; stroke-linecap:round; stroke-linejoin:round; stroke-width:4; stroke-opacity:1; fill:none" points="
  1567.18,224.279 1567.18,1109.46 1850.32,1109.46 1850.32,224.279 1567.18,224.279 
  "/>
<path clip-path="url(#clip173)" d="
M1921.11 224.279 L1921.11 1109.46 L2204.25 1109.46 L2204.25 224.279 L1921.11 224.279 L1921.11 224.279  Z
  " fill="#009af9" fill-rule="evenodd" fill-opacity="1"/>
<polyline clip-path="url(#clip173)" style="stroke:#000000; stroke-linecap:round; stroke-linejoin:round; stroke-width:4; stroke-opacity:1; fill:none" points="
  1921.11,224.279 1921.11,1109.46 2204.25,1109.46 2204.25,224.279 1921.11,224.279 
  "/>
<path clip-path="url(#clip173)" d="
M2275.03 224.279 L2275.03 1109.46 L2558.18 1109.46 L2558.18 224.279 L2275.03 224.279 L2275.03 224.279  Z
  " fill="#009af9" fill-rule="evenodd" fill-opacity="1"/>
<polyline clip-path="url(#clip173)" style="stroke:#000000; stroke-linecap:round; stroke-linejoin:round; stroke-width:4; stroke-opacity:1; fill:none" points="
  2275.03,224.279 2275.03,1109.46 2558.18,1109.46 2558.18,224.279 2275.03,224.279 
  "/>
<circle clip-path="url(#clip173)" style="fill:#009af9; stroke:none; fill-opacity:0" cx="1708.75" cy="224.279" r="2"/>
<circle clip-path="url(#clip173)" style="fill:#009af9; stroke:none; fill-opacity:0" cx="2062.68" cy="224.279" r="2"/>
<circle clip-path="url(#clip173)" style="fill:#009af9; stroke:none; fill-opacity:0" cx="2416.61" cy="224.279" r="2"/>
<path clip-path="url(#clip170)" d="
M2171.83 186.331 L2582.31 186.331 L2582.31 82.6512 L2171.83 82.6512  Z
  " fill="#ffffff" fill-rule="evenodd" fill-opacity="1"/>
<polyline clip-path="url(#clip170)" style="stroke:#000000; stroke-linecap:round; stroke-linejoin:round; stroke-width:4; stroke-opacity:1; fill:none" points="
  2171.83,186.331 2582.31,186.331 2582.31,82.6512 2171.83,82.6512 2171.83,186.331 
  "/>
<path clip-path="url(#clip170)" d="
M2184.2 155.227 L2258.43 155.227 L2258.43 113.755 L2184.2 113.755 L2184.2 155.227  Z
  " fill="#009af9" fill-rule="evenodd" fill-opacity="1"/>
<polyline clip-path="url(#clip170)" style="stroke:#000000; stroke-linecap:round; stroke-linejoin:round; stroke-width:4; stroke-opacity:1; fill:none" points="
  2184.2,155.227 2258.43,155.227 2258.43,113.755 2184.2,113.755 2184.2,155.227 
  "/>
<path clip-path="url(#clip170)" d="M2270.8 117.211 L2275.83 117.211 L2285.41 131.424 L2294.92 117.211 L2299.95 117.211 L2287.73 135.313 L2287.73 151.771 L2283.03 151.771 L2283.03 135.313 L2270.8 117.211 Z" fill="#000000" fill-rule="evenodd" fill-opacity="1" /><path clip-path="url(#clip170)" d="M2334.55 132.836 L2334.55 136.98 Q2332.12 138.785 2330.04 139.595 Q2327.98 140.382 2325.73 140.382 Q2323.19 140.382 2319.81 139.017 Q2319.58 138.924 2319.42 138.855 Q2319.28 138.808 2318.93 138.669 Q2315.34 137.257 2313.17 137.257 Q2311.13 137.257 2309.14 138.137 Q2307.15 139.017 2304.88 140.961 L2304.88 136.818 Q2307.31 135.012 2309.37 134.225 Q2311.45 133.415 2313.7 133.415 Q2316.24 133.415 2319.65 134.781 Q2319.9 134.896 2320.02 134.943 Q2320.16 134.989 2320.5 135.128 Q2324.09 136.54 2326.27 136.54 Q2328.26 136.54 2330.2 135.683 Q2332.17 134.804 2334.55 132.836 Z" fill="#000000" fill-rule="evenodd" fill-opacity="1" /><path clip-path="url(#clip170)" d="M2343.7 117.211 L2348.4 117.211 L2348.4 138.206 Q2348.4 143.762 2350.41 146.216 Q2352.42 148.646 2356.94 148.646 Q2361.43 148.646 2363.44 146.216 Q2365.46 143.762 2365.46 138.206 L2365.46 117.211 L2370.16 117.211 L2370.16 138.785 Q2370.16 145.544 2366.8 148.993 Q2363.47 152.442 2356.94 152.442 Q2350.39 152.442 2347.03 148.993 Q2343.7 145.544 2343.7 138.785 L2343.7 117.211 Z" fill="#000000" fill-rule="evenodd" fill-opacity="1" /><path clip-path="url(#clip170)" d="M2400.29 136.123 L2400.29 151.771 L2396.04 151.771 L2396.04 136.262 Q2396.04 132.581 2394.6 130.753 Q2393.16 128.924 2390.29 128.924 Q2386.85 128.924 2384.85 131.123 Q2382.86 133.322 2382.86 137.118 L2382.86 151.771 L2378.58 151.771 L2378.58 125.845 L2382.86 125.845 L2382.86 129.873 Q2384.39 127.535 2386.45 126.378 Q2388.54 125.22 2391.24 125.22 Q2395.71 125.22 2398 127.998 Q2400.29 130.753 2400.29 136.123 Z" fill="#000000" fill-rule="evenodd" fill-opacity="1" /><path clip-path="url(#clip170)" d="M2408.79 125.845 L2413.05 125.845 L2413.05 151.771 L2408.79 151.771 L2408.79 125.845 M2408.79 115.753 L2413.05 115.753 L2413.05 121.146 L2408.79 121.146 L2408.79 115.753 Z" fill="#000000" fill-rule="evenodd" fill-opacity="1" /><path clip-path="url(#clip170)" d="M2435.09 115.753 L2435.09 119.294 L2431.01 119.294 Q2428.72 119.294 2427.82 120.22 Q2426.94 121.146 2426.94 123.554 L2426.94 125.845 L2433.95 125.845 L2433.95 129.156 L2426.94 129.156 L2426.94 151.771 L2422.66 151.771 L2422.66 129.156 L2418.58 129.156 L2418.58 125.845 L2422.66 125.845 L2422.66 124.04 Q2422.66 119.711 2424.67 117.744 Q2426.68 115.753 2431.06 115.753 L2435.09 115.753 Z" fill="#000000" fill-rule="evenodd" fill-opacity="1" /><path clip-path="url(#clip170)" d="M2448.88 115.799 Q2445.78 121.123 2444.28 126.331 Q2442.77 131.54 2442.77 136.887 Q2442.77 142.234 2444.28 147.489 Q2445.8 152.72 2448.88 158.021 L2445.18 158.021 Q2441.71 152.581 2439.97 147.327 Q2438.26 142.072 2438.26 136.887 Q2438.26 131.725 2439.97 126.494 Q2441.68 121.262 2445.18 115.799 L2448.88 115.799 Z" fill="#000000" fill-rule="evenodd" fill-opacity="1" /><path clip-path="url(#clip170)" d="M2467.75 120.29 Q2464.14 120.29 2462.31 123.855 Q2460.5 127.396 2460.5 134.526 Q2460.5 141.632 2462.31 145.197 Q2464.14 148.739 2467.75 148.739 Q2471.38 148.739 2473.19 145.197 Q2475.02 141.632 2475.02 134.526 Q2475.02 127.396 2473.19 123.855 Q2471.38 120.29 2467.75 120.29 M2467.75 116.586 Q2473.56 116.586 2476.61 121.193 Q2479.69 125.776 2479.69 134.526 Q2479.69 143.253 2476.61 147.859 Q2473.56 152.442 2467.75 152.442 Q2461.94 152.442 2458.86 147.859 Q2455.8 143.253 2455.8 134.526 Q2455.8 125.776 2458.86 121.193 Q2461.94 116.586 2467.75 116.586 Z" fill="#000000" fill-rule="evenodd" fill-opacity="1" /><path clip-path="url(#clip170)" d="M2488.4 145.892 L2493.28 145.892 L2493.28 149.873 L2489.48 157.28 L2486.5 157.28 L2488.4 149.873 L2488.4 145.892 Z" fill="#000000" fill-rule="evenodd" fill-opacity="1" /><path clip-path="url(#clip170)" d="M2522.08 147.836 L2538.4 147.836 L2538.4 151.771 L2516.45 151.771 L2516.45 147.836 Q2519.11 145.081 2523.7 140.452 Q2528.3 135.799 2529.48 134.456 Q2531.73 131.933 2532.61 130.197 Q2533.51 128.438 2533.51 126.748 Q2533.51 123.994 2531.57 122.257 Q2529.65 120.521 2526.54 120.521 Q2524.34 120.521 2521.89 121.285 Q2519.46 122.049 2516.68 123.6 L2516.68 118.878 Q2519.51 117.744 2521.96 117.165 Q2524.41 116.586 2526.45 116.586 Q2531.82 116.586 2535.02 119.271 Q2538.21 121.956 2538.21 126.447 Q2538.21 128.577 2537.4 130.498 Q2536.61 132.396 2534.51 134.989 Q2533.93 135.66 2530.83 138.878 Q2527.72 142.072 2522.08 147.836 Z" fill="#000000" fill-rule="evenodd" fill-opacity="1" /><path clip-path="url(#clip170)" d="M2546.94 115.799 L2550.64 115.799 Q2554.11 121.262 2555.83 126.494 Q2557.56 131.725 2557.56 136.887 Q2557.56 142.072 2555.83 147.327 Q2554.11 152.581 2550.64 158.021 L2546.94 158.021 Q2550.02 152.72 2551.52 147.489 Q2553.05 142.234 2553.05 136.887 Q2553.05 131.54 2551.52 126.331 Q2550.02 121.123 2546.94 115.799 Z" fill="#000000" fill-rule="evenodd" fill-opacity="1" /><path clip-path="url(#clip170)" d="
M2839.26 1109.46 L3952.76 1109.46 L3952.76 47.2441 L2839.26 47.2441  Z
  " fill="#ffffff" fill-rule="evenodd" fill-opacity="1"/>
<defs>
  <clipPath id="clip174">
    <rect x="2839" y="47" width="1114" height="1063"/>
  </clipPath>
</defs>
<polyline clip-path="url(#clip174)" style="stroke:#000000; stroke-linecap:round; stroke-linejoin:round; stroke-width:2; stroke-opacity:0.1; fill:none" points="
  2892.11,1109.46 2892.11,47.2441 
  "/>
<polyline clip-path="url(#clip174)" style="stroke:#000000; stroke-linecap:round; stroke-linejoin:round; stroke-width:2; stroke-opacity:0.1; fill:none" points="
  3060.08,1109.46 3060.08,47.2441 
  "/>
<polyline clip-path="url(#clip174)" style="stroke:#000000; stroke-linecap:round; stroke-linejoin:round; stroke-width:2; stroke-opacity:0.1; fill:none" points="
  3228.04,1109.46 3228.04,47.2441 
  "/>
<polyline clip-path="url(#clip174)" style="stroke:#000000; stroke-linecap:round; stroke-linejoin:round; stroke-width:2; stroke-opacity:0.1; fill:none" points="
  3396.01,1109.46 3396.01,47.2441 
  "/>
<polyline clip-path="url(#clip174)" style="stroke:#000000; stroke-linecap:round; stroke-linejoin:round; stroke-width:2; stroke-opacity:0.1; fill:none" points="
  3563.98,1109.46 3563.98,47.2441 
  "/>
<polyline clip-path="url(#clip174)" style="stroke:#000000; stroke-linecap:round; stroke-linejoin:round; stroke-width:2; stroke-opacity:0.1; fill:none" points="
  3731.94,1109.46 3731.94,47.2441 
  "/>
<polyline clip-path="url(#clip174)" style="stroke:#000000; stroke-linecap:round; stroke-linejoin:round; stroke-width:2; stroke-opacity:0.1; fill:none" points="
  3899.91,1109.46 3899.91,47.2441 
  "/>
<polyline clip-path="url(#clip170)" style="stroke:#000000; stroke-linecap:round; stroke-linejoin:round; stroke-width:4; stroke-opacity:1; fill:none" points="
  2839.26,1109.46 3952.76,1109.46 
  "/>
<polyline clip-path="url(#clip170)" style="stroke:#000000; stroke-linecap:round; stroke-linejoin:round; stroke-width:4; stroke-opacity:1; fill:none" points="
  2892.11,1109.46 2892.11,1090.56 
  "/>
<polyline clip-path="url(#clip170)" style="stroke:#000000; stroke-linecap:round; stroke-linejoin:round; stroke-width:4; stroke-opacity:1; fill:none" points="
  3060.08,1109.46 3060.08,1090.56 
  "/>
<polyline clip-path="url(#clip170)" style="stroke:#000000; stroke-linecap:round; stroke-linejoin:round; stroke-width:4; stroke-opacity:1; fill:none" points="
  3228.04,1109.46 3228.04,1090.56 
  "/>
<polyline clip-path="url(#clip170)" style="stroke:#000000; stroke-linecap:round; stroke-linejoin:round; stroke-width:4; stroke-opacity:1; fill:none" points="
  3396.01,1109.46 3396.01,1090.56 
  "/>
<polyline clip-path="url(#clip170)" style="stroke:#000000; stroke-linecap:round; stroke-linejoin:round; stroke-width:4; stroke-opacity:1; fill:none" points="
  3563.98,1109.46 3563.98,1090.56 
  "/>
<polyline clip-path="url(#clip170)" style="stroke:#000000; stroke-linecap:round; stroke-linejoin:round; stroke-width:4; stroke-opacity:1; fill:none" points="
  3731.94,1109.46 3731.94,1090.56 
  "/>
<polyline clip-path="url(#clip170)" style="stroke:#000000; stroke-linecap:round; stroke-linejoin:round; stroke-width:4; stroke-opacity:1; fill:none" points="
  3899.91,1109.46 3899.91,1090.56 
  "/>
<path clip-path="url(#clip170)" d="M2892.11 1153.17 Q2888.5 1153.17 2886.67 1156.74 Q2884.87 1160.28 2884.87 1167.41 Q2884.87 1174.52 2886.67 1178.08 Q2888.5 1181.62 2892.11 1181.62 Q2895.74 1181.62 2897.55 1178.08 Q2899.38 1174.52 2899.38 1167.41 Q2899.38 1160.28 2897.55 1156.74 Q2895.74 1153.17 2892.11 1153.17 M2892.11 1149.47 Q2897.92 1149.47 2900.98 1154.08 Q2904.05 1158.66 2904.05 1167.41 Q2904.05 1176.14 2900.98 1180.74 Q2897.92 1185.33 2892.11 1185.33 Q2886.3 1185.33 2883.22 1180.74 Q2880.17 1176.14 2880.17 1167.41 Q2880.17 1158.66 2883.22 1154.08 Q2886.3 1149.47 2892.11 1149.47 Z" fill="#000000" fill-rule="evenodd" fill-opacity="1" /><path clip-path="url(#clip170)" d="M3054.73 1180.72 L3071.05 1180.72 L3071.05 1184.66 L3049.11 1184.66 L3049.11 1180.72 Q3051.77 1177.97 3056.35 1173.34 Q3060.96 1168.68 3062.14 1167.34 Q3064.38 1164.82 3065.26 1163.08 Q3066.17 1161.32 3066.17 1159.63 Q3066.17 1156.88 3064.22 1155.14 Q3062.3 1153.41 3059.2 1153.41 Q3057 1153.41 3054.54 1154.17 Q3052.11 1154.93 3049.34 1156.48 L3049.34 1151.76 Q3052.16 1150.63 3054.61 1150.05 Q3057.07 1149.47 3059.1 1149.47 Q3064.48 1149.47 3067.67 1152.16 Q3070.86 1154.84 3070.86 1159.33 Q3070.86 1161.46 3070.05 1163.38 Q3069.27 1165.28 3067.16 1167.87 Q3066.58 1168.54 3063.48 1171.76 Q3060.38 1174.96 3054.73 1180.72 Z" fill="#000000" fill-rule="evenodd" fill-opacity="1" /><path clip-path="url(#clip170)" d="M3231.05 1154.17 L3219.25 1172.62 L3231.05 1172.62 L3231.05 1154.17 M3229.83 1150.1 L3235.71 1150.1 L3235.71 1172.62 L3240.64 1172.62 L3240.64 1176.51 L3235.71 1176.51 L3235.71 1184.66 L3231.05 1184.66 L3231.05 1176.51 L3215.45 1176.51 L3215.45 1171.99 L3229.83 1150.1 Z" fill="#000000" fill-rule="evenodd" fill-opacity="1" /><path clip-path="url(#clip170)" d="M3396.42 1165.51 Q3393.27 1165.51 3391.42 1167.67 Q3389.59 1169.82 3389.59 1173.57 Q3389.59 1177.29 3391.42 1179.47 Q3393.27 1181.62 3396.42 1181.62 Q3399.56 1181.62 3401.39 1179.47 Q3403.24 1177.29 3403.24 1173.57 Q3403.24 1169.82 3401.39 1167.67 Q3399.56 1165.51 3396.42 1165.51 M3405.7 1150.86 L3405.7 1155.12 Q3403.94 1154.29 3402.13 1153.85 Q3400.35 1153.41 3398.59 1153.41 Q3393.96 1153.41 3391.51 1156.53 Q3389.08 1159.66 3388.73 1165.98 Q3390.1 1163.96 3392.16 1162.9 Q3394.22 1161.81 3396.69 1161.81 Q3401.9 1161.81 3404.91 1164.98 Q3407.94 1168.13 3407.94 1173.57 Q3407.94 1178.89 3404.8 1182.11 Q3401.65 1185.33 3396.42 1185.33 Q3390.42 1185.33 3387.25 1180.74 Q3384.08 1176.14 3384.08 1167.41 Q3384.08 1159.22 3387.97 1154.36 Q3391.86 1149.47 3398.41 1149.47 Q3400.17 1149.47 3401.95 1149.82 Q3403.75 1150.17 3405.7 1150.86 Z" fill="#000000" fill-rule="evenodd" fill-opacity="1" /><path clip-path="url(#clip170)" d="M3563.98 1168.24 Q3560.64 1168.24 3558.72 1170.03 Q3556.82 1171.81 3556.82 1174.93 Q3556.82 1178.06 3558.72 1179.84 Q3560.64 1181.62 3563.98 1181.62 Q3567.31 1181.62 3569.23 1179.84 Q3571.15 1178.04 3571.15 1174.93 Q3571.15 1171.81 3569.23 1170.03 Q3567.33 1168.24 3563.98 1168.24 M3559.3 1166.25 Q3556.29 1165.51 3554.6 1163.45 Q3552.94 1161.39 3552.94 1158.43 Q3552.94 1154.29 3555.88 1151.88 Q3558.84 1149.47 3563.98 1149.47 Q3569.14 1149.47 3572.08 1151.88 Q3575.02 1154.29 3575.02 1158.43 Q3575.02 1161.39 3573.33 1163.45 Q3571.66 1165.51 3568.68 1166.25 Q3572.06 1167.04 3573.93 1169.33 Q3575.83 1171.62 3575.83 1174.93 Q3575.83 1179.96 3572.75 1182.64 Q3569.69 1185.33 3563.98 1185.33 Q3558.26 1185.33 3555.18 1182.64 Q3552.13 1179.96 3552.13 1174.93 Q3552.13 1171.62 3554.02 1169.33 Q3555.92 1167.04 3559.3 1166.25 M3557.59 1158.87 Q3557.59 1161.55 3559.25 1163.06 Q3560.94 1164.56 3563.98 1164.56 Q3566.99 1164.56 3568.68 1163.06 Q3570.39 1161.55 3570.39 1158.87 Q3570.39 1156.18 3568.68 1154.68 Q3566.99 1153.17 3563.98 1153.17 Q3560.94 1153.17 3559.25 1154.68 Q3557.59 1156.18 3557.59 1158.87 Z" fill="#000000" fill-rule="evenodd" fill-opacity="1" /><path clip-path="url(#clip170)" d="M3706.63 1180.72 L3714.27 1180.72 L3714.27 1154.36 L3705.96 1156.02 L3705.96 1151.76 L3714.22 1150.1 L3718.9 1150.1 L3718.9 1180.72 L3726.54 1180.72 L3726.54 1184.66 L3706.63 1184.66 L3706.63 1180.72 Z" fill="#000000" fill-rule="evenodd" fill-opacity="1" /><path clip-path="url(#clip170)" d="M3745.98 1153.17 Q3742.37 1153.17 3740.54 1156.74 Q3738.74 1160.28 3738.74 1167.41 Q3738.74 1174.52 3740.54 1178.08 Q3742.37 1181.62 3745.98 1181.62 Q3749.62 1181.62 3751.42 1178.08 Q3753.25 1174.52 3753.25 1167.41 Q3753.25 1160.28 3751.42 1156.74 Q3749.62 1153.17 3745.98 1153.17 M3745.98 1149.47 Q3751.79 1149.47 3754.85 1154.08 Q3757.93 1158.66 3757.93 1167.41 Q3757.93 1176.14 3754.85 1180.74 Q3751.79 1185.33 3745.98 1185.33 Q3740.17 1185.33 3737.09 1180.74 Q3734.04 1176.14 3734.04 1167.41 Q3734.04 1158.66 3737.09 1154.08 Q3740.17 1149.47 3745.98 1149.47 Z" fill="#000000" fill-rule="evenodd" fill-opacity="1" /><path clip-path="url(#clip170)" d="M3875.4 1180.72 L3883.04 1180.72 L3883.04 1154.36 L3874.73 1156.02 L3874.73 1151.76 L3882.99 1150.1 L3887.66 1150.1 L3887.66 1180.72 L3895.3 1180.72 L3895.3 1184.66 L3875.4 1184.66 L3875.4 1180.72 Z" fill="#000000" fill-rule="evenodd" fill-opacity="1" /><path clip-path="url(#clip170)" d="M3908.78 1180.72 L3925.1 1180.72 L3925.1 1184.66 L3903.15 1184.66 L3903.15 1180.72 Q3905.81 1177.97 3910.4 1173.34 Q3915 1168.68 3916.18 1167.34 Q3918.43 1164.82 3919.31 1163.08 Q3920.21 1161.32 3920.21 1159.63 Q3920.21 1156.88 3918.27 1155.14 Q3916.35 1153.41 3913.24 1153.41 Q3911.04 1153.41 3908.59 1154.17 Q3906.16 1154.93 3903.38 1156.48 L3903.38 1151.76 Q3906.21 1150.63 3908.66 1150.05 Q3911.11 1149.47 3913.15 1149.47 Q3918.52 1149.47 3921.72 1152.16 Q3924.91 1154.84 3924.91 1159.33 Q3924.91 1161.46 3924.1 1163.38 Q3923.31 1165.28 3921.21 1167.87 Q3920.63 1168.54 3917.53 1171.76 Q3914.42 1174.96 3908.78 1180.72 Z" fill="#000000" fill-rule="evenodd" fill-opacity="1" /><polyline clip-path="url(#clip174)" style="stroke:#000000; stroke-linecap:round; stroke-linejoin:round; stroke-width:2; stroke-opacity:0.1; fill:none" points="
  2839.26,1109.46 3952.76,1109.46 
  "/>
<polyline clip-path="url(#clip174)" style="stroke:#000000; stroke-linecap:round; stroke-linejoin:round; stroke-width:2; stroke-opacity:0.1; fill:none" points="
  2839.26,843.903 3952.76,843.903 
  "/>
<polyline clip-path="url(#clip174)" style="stroke:#000000; stroke-linecap:round; stroke-linejoin:round; stroke-width:2; stroke-opacity:0.1; fill:none" points="
  2839.26,578.35 3952.76,578.35 
  "/>
<polyline clip-path="url(#clip174)" style="stroke:#000000; stroke-linecap:round; stroke-linejoin:round; stroke-width:2; stroke-opacity:0.1; fill:none" points="
  2839.26,312.797 3952.76,312.797 
  "/>
<polyline clip-path="url(#clip174)" style="stroke:#000000; stroke-linecap:round; stroke-linejoin:round; stroke-width:2; stroke-opacity:0.1; fill:none" points="
  2839.26,47.2441 3952.76,47.2441 
  "/>
<polyline clip-path="url(#clip170)" style="stroke:#000000; stroke-linecap:round; stroke-linejoin:round; stroke-width:4; stroke-opacity:1; fill:none" points="
  2839.26,1109.46 2839.26,47.2441 
  "/>
<polyline clip-path="url(#clip170)" style="stroke:#000000; stroke-linecap:round; stroke-linejoin:round; stroke-width:4; stroke-opacity:1; fill:none" points="
  2839.26,1109.46 2858.16,1109.46 
  "/>
<polyline clip-path="url(#clip170)" style="stroke:#000000; stroke-linecap:round; stroke-linejoin:round; stroke-width:4; stroke-opacity:1; fill:none" points="
  2839.26,843.903 2858.16,843.903 
  "/>
<polyline clip-path="url(#clip170)" style="stroke:#000000; stroke-linecap:round; stroke-linejoin:round; stroke-width:4; stroke-opacity:1; fill:none" points="
  2839.26,578.35 2858.16,578.35 
  "/>
<polyline clip-path="url(#clip170)" style="stroke:#000000; stroke-linecap:round; stroke-linejoin:round; stroke-width:4; stroke-opacity:1; fill:none" points="
  2839.26,312.797 2858.16,312.797 
  "/>
<polyline clip-path="url(#clip170)" style="stroke:#000000; stroke-linecap:round; stroke-linejoin:round; stroke-width:4; stroke-opacity:1; fill:none" points="
  2839.26,47.2441 2858.16,47.2441 
  "/>
<path clip-path="url(#clip170)" d="M2722.09 1095.25 Q2718.48 1095.25 2716.65 1098.82 Q2714.84 1102.36 2714.84 1109.49 Q2714.84 1116.6 2716.65 1120.16 Q2718.48 1123.7 2722.09 1123.7 Q2725.72 1123.7 2727.53 1120.16 Q2729.36 1116.6 2729.36 1109.49 Q2729.36 1102.36 2727.53 1098.82 Q2725.72 1095.25 2722.09 1095.25 M2722.09 1091.55 Q2727.9 1091.55 2730.95 1096.16 Q2734.03 1100.74 2734.03 1109.49 Q2734.03 1118.22 2730.95 1122.82 Q2727.9 1127.41 2722.09 1127.41 Q2716.28 1127.41 2713.2 1122.82 Q2710.14 1118.22 2710.14 1109.49 Q2710.14 1100.74 2713.2 1096.16 Q2716.28 1091.55 2722.09 1091.55 Z" fill="#000000" fill-rule="evenodd" fill-opacity="1" /><path clip-path="url(#clip170)" d="M2742.25 1120.86 L2747.14 1120.86 L2747.14 1126.74 L2742.25 1126.74 L2742.25 1120.86 Z" fill="#000000" fill-rule="evenodd" fill-opacity="1" /><path clip-path="url(#clip170)" d="M2767.32 1095.25 Q2763.71 1095.25 2761.88 1098.82 Q2760.08 1102.36 2760.08 1109.49 Q2760.08 1116.6 2761.88 1120.16 Q2763.71 1123.7 2767.32 1123.7 Q2770.95 1123.7 2772.76 1120.16 Q2774.59 1116.6 2774.59 1109.49 Q2774.59 1102.36 2772.76 1098.82 Q2770.95 1095.25 2767.32 1095.25 M2767.32 1091.55 Q2773.13 1091.55 2776.19 1096.16 Q2779.26 1100.74 2779.26 1109.49 Q2779.26 1118.22 2776.19 1122.82 Q2773.13 1127.41 2767.32 1127.41 Q2761.51 1127.41 2758.43 1122.82 Q2755.38 1118.22 2755.38 1109.49 Q2755.38 1100.74 2758.43 1096.16 Q2761.51 1091.55 2767.32 1091.55 Z" fill="#000000" fill-rule="evenodd" fill-opacity="1" /><path clip-path="url(#clip170)" d="M2723.32 829.702 Q2719.71 829.702 2717.88 833.266 Q2716.07 836.808 2716.07 843.938 Q2716.07 851.044 2717.88 854.609 Q2719.71 858.151 2723.32 858.151 Q2726.95 858.151 2728.76 854.609 Q2730.58 851.044 2730.58 843.938 Q2730.58 836.808 2728.76 833.266 Q2726.95 829.702 2723.32 829.702 M2723.32 825.998 Q2729.13 825.998 2732.18 830.604 Q2735.26 835.188 2735.26 843.938 Q2735.26 852.664 2732.18 857.271 Q2729.13 861.854 2723.32 861.854 Q2717.51 861.854 2714.43 857.271 Q2711.37 852.664 2711.37 843.938 Q2711.37 835.188 2714.43 830.604 Q2717.51 825.998 2723.32 825.998 Z" fill="#000000" fill-rule="evenodd" fill-opacity="1" /><path clip-path="url(#clip170)" d="M2743.48 855.303 L2748.36 855.303 L2748.36 861.183 L2743.48 861.183 L2743.48 855.303 Z" fill="#000000" fill-rule="evenodd" fill-opacity="1" /><path clip-path="url(#clip170)" d="M2759.36 857.248 L2767 857.248 L2767 830.882 L2758.69 832.549 L2758.69 828.29 L2766.95 826.623 L2771.63 826.623 L2771.63 857.248 L2779.26 857.248 L2779.26 861.183 L2759.36 861.183 L2759.36 857.248 Z" fill="#000000" fill-rule="evenodd" fill-opacity="1" /><path clip-path="url(#clip170)" d="M2723.69 564.149 Q2720.08 564.149 2718.25 567.713 Q2716.44 571.255 2716.44 578.385 Q2716.44 585.491 2718.25 589.056 Q2720.08 592.598 2723.69 592.598 Q2727.32 592.598 2729.13 589.056 Q2730.95 585.491 2730.95 578.385 Q2730.95 571.255 2729.13 567.713 Q2727.32 564.149 2723.69 564.149 M2723.69 560.445 Q2729.5 560.445 2732.55 565.051 Q2735.63 569.635 2735.63 578.385 Q2735.63 587.112 2732.55 591.718 Q2729.5 596.301 2723.69 596.301 Q2717.88 596.301 2714.8 591.718 Q2711.74 587.112 2711.74 578.385 Q2711.74 569.635 2714.8 565.051 Q2717.88 560.445 2723.69 560.445 Z" fill="#000000" fill-rule="evenodd" fill-opacity="1" /><path clip-path="url(#clip170)" d="M2743.85 589.75 L2748.73 589.75 L2748.73 595.63 L2743.85 595.63 L2743.85 589.75 Z" fill="#000000" fill-rule="evenodd" fill-opacity="1" /><path clip-path="url(#clip170)" d="M2762.95 591.695 L2779.26 591.695 L2779.26 595.63 L2757.32 595.63 L2757.32 591.695 Q2759.98 588.94 2764.57 584.311 Q2769.17 579.658 2770.35 578.315 Q2772.6 575.792 2773.48 574.056 Q2774.38 572.297 2774.38 570.607 Q2774.38 567.852 2772.44 566.116 Q2770.51 564.38 2767.41 564.38 Q2765.21 564.38 2762.76 565.144 Q2760.33 565.908 2757.55 567.459 L2757.55 562.737 Q2760.38 561.602 2762.83 561.024 Q2765.28 560.445 2767.32 560.445 Q2772.69 560.445 2775.89 563.13 Q2779.08 565.815 2779.08 570.306 Q2779.08 572.436 2778.27 574.357 Q2777.48 576.255 2775.38 578.848 Q2774.8 579.519 2771.7 582.737 Q2768.59 585.931 2762.95 591.695 Z" fill="#000000" fill-rule="evenodd" fill-opacity="1" /><path clip-path="url(#clip170)" d="M2722.74 298.596 Q2719.13 298.596 2717.3 302.161 Q2715.49 305.702 2715.49 312.832 Q2715.49 319.938 2717.3 323.503 Q2719.13 327.045 2722.74 327.045 Q2726.37 327.045 2728.18 323.503 Q2730.01 319.938 2730.01 312.832 Q2730.01 305.702 2728.18 302.161 Q2726.37 298.596 2722.74 298.596 M2722.74 294.892 Q2728.55 294.892 2731.6 299.498 Q2734.68 304.082 2734.68 312.832 Q2734.68 321.559 2731.6 326.165 Q2728.55 330.748 2722.74 330.748 Q2716.93 330.748 2713.85 326.165 Q2710.79 321.559 2710.79 312.832 Q2710.79 304.082 2713.85 299.498 Q2716.93 294.892 2722.74 294.892 Z" fill="#000000" fill-rule="evenodd" fill-opacity="1" /><path clip-path="url(#clip170)" d="M2742.9 324.197 L2747.78 324.197 L2747.78 330.077 L2742.9 330.077 L2742.9 324.197 Z" fill="#000000" fill-rule="evenodd" fill-opacity="1" /><path clip-path="url(#clip170)" d="M2772.14 311.443 Q2775.49 312.16 2777.37 314.429 Q2779.26 316.697 2779.26 320.031 Q2779.26 325.147 2775.75 327.947 Q2772.23 330.748 2765.75 330.748 Q2763.57 330.748 2761.26 330.309 Q2758.96 329.892 2756.51 329.035 L2756.51 324.522 Q2758.45 325.656 2760.77 326.234 Q2763.08 326.813 2765.61 326.813 Q2770.01 326.813 2772.3 325.077 Q2774.61 323.341 2774.61 320.031 Q2774.61 316.975 2772.46 315.262 Q2770.33 313.526 2766.51 313.526 L2762.48 313.526 L2762.48 309.684 L2766.7 309.684 Q2770.14 309.684 2771.97 308.318 Q2773.8 306.929 2773.8 304.336 Q2773.8 301.674 2771.9 300.262 Q2770.03 298.827 2766.51 298.827 Q2764.59 298.827 2762.39 299.244 Q2760.19 299.661 2757.55 300.54 L2757.55 296.374 Q2760.21 295.633 2762.53 295.262 Q2764.87 294.892 2766.93 294.892 Q2772.25 294.892 2775.35 297.323 Q2778.45 299.73 2778.45 303.85 Q2778.45 306.721 2776.81 308.711 Q2775.17 310.679 2772.14 311.443 Z" fill="#000000" fill-rule="evenodd" fill-opacity="1" /><path clip-path="url(#clip170)" d="M2721.6 33.0428 Q2717.99 33.0428 2716.16 36.6076 Q2714.36 40.1492 2714.36 47.2788 Q2714.36 54.3853 2716.16 57.9501 Q2717.99 61.4917 2721.6 61.4917 Q2725.24 61.4917 2727.04 57.9501 Q2728.87 54.3853 2728.87 47.2788 Q2728.87 40.1492 2727.04 36.6076 Q2725.24 33.0428 2721.6 33.0428 M2721.6 29.3391 Q2727.41 29.3391 2730.47 33.9456 Q2733.55 38.5289 2733.55 47.2788 Q2733.55 56.0056 2730.47 60.6121 Q2727.41 65.1954 2721.6 65.1954 Q2715.79 65.1954 2712.71 60.6121 Q2709.66 56.0056 2709.66 47.2788 Q2709.66 38.5289 2712.71 33.9456 Q2715.79 29.3391 2721.6 29.3391 Z" fill="#000000" fill-rule="evenodd" fill-opacity="1" /><path clip-path="url(#clip170)" d="M2741.77 58.6445 L2746.65 58.6445 L2746.65 64.5241 L2741.77 64.5241 L2741.77 58.6445 Z" fill="#000000" fill-rule="evenodd" fill-opacity="1" /><path clip-path="url(#clip170)" d="M2769.68 34.0381 L2757.88 52.4871 L2769.68 52.4871 L2769.68 34.0381 M2768.45 29.9641 L2774.33 29.9641 L2774.33 52.4871 L2779.26 52.4871 L2779.26 56.376 L2774.33 56.376 L2774.33 64.5241 L2769.68 64.5241 L2769.68 56.376 L2754.08 56.376 L2754.08 51.8621 L2768.45 29.9641 Z" fill="#000000" fill-rule="evenodd" fill-opacity="1" /><path clip-path="url(#clip174)" d="
M2900.51 1107.73 L2900.51 1109.46 L2967.7 1109.46 L2967.7 1107.73 L2900.51 1107.73 L2900.51 1107.73  Z
  " fill="#009af9" fill-rule="evenodd" fill-opacity="1"/>
<polyline clip-path="url(#clip174)" style="stroke:#000000; stroke-linecap:round; stroke-linejoin:round; stroke-width:4; stroke-opacity:1; fill:none" points="
  2900.51,1107.73 2900.51,1109.46 2967.7,1109.46 2967.7,1107.73 2900.51,1107.73 
  "/>
<path clip-path="url(#clip174)" d="
M2984.49 1092.17 L2984.49 1109.46 L3051.68 1109.46 L3051.68 1092.17 L2984.49 1092.17 L2984.49 1092.17  Z
  " fill="#009af9" fill-rule="evenodd" fill-opacity="1"/>
<polyline clip-path="url(#clip174)" style="stroke:#000000; stroke-linecap:round; stroke-linejoin:round; stroke-width:4; stroke-opacity:1; fill:none" points="
  2984.49,1092.17 2984.49,1109.46 3051.68,1109.46 3051.68,1092.17 2984.49,1092.17 
  "/>
<path clip-path="url(#clip174)" d="
M3068.48 1029.93 L3068.48 1109.46 L3135.66 1109.46 L3135.66 1029.93 L3068.48 1029.93 L3068.48 1029.93  Z
  " fill="#009af9" fill-rule="evenodd" fill-opacity="1"/>
<polyline clip-path="url(#clip174)" style="stroke:#000000; stroke-linecap:round; stroke-linejoin:round; stroke-width:4; stroke-opacity:1; fill:none" points="
  3068.48,1029.93 3068.48,1109.46 3135.66,1109.46 3135.66,1029.93 3068.48,1029.93 
  "/>
<path clip-path="url(#clip174)" d="
M3152.46 886.433 L3152.46 1109.46 L3219.65 1109.46 L3219.65 886.433 L3152.46 886.433 L3152.46 886.433  Z
  " fill="#009af9" fill-rule="evenodd" fill-opacity="1"/>
<polyline clip-path="url(#clip174)" style="stroke:#000000; stroke-linecap:round; stroke-linejoin:round; stroke-width:4; stroke-opacity:1; fill:none" points="
  3152.46,886.433 3152.46,1109.46 3219.65,1109.46 3219.65,886.433 3152.46,886.433 
  "/>
<path clip-path="url(#clip174)" d="
M3236.44 684.156 L3236.44 1109.46 L3303.63 1109.46 L3303.63 684.156 L3236.44 684.156 L3236.44 684.156  Z
  " fill="#009af9" fill-rule="evenodd" fill-opacity="1"/>
<polyline clip-path="url(#clip174)" style="stroke:#000000; stroke-linecap:round; stroke-linejoin:round; stroke-width:4; stroke-opacity:1; fill:none" points="
  3236.44,684.156 3236.44,1109.46 3303.63,1109.46 3303.63,684.156 3236.44,684.156 
  "/>
<path clip-path="url(#clip174)" d="
M3320.43 528.559 L3320.43 1109.46 L3387.61 1109.46 L3387.61 528.559 L3320.43 528.559 L3320.43 528.559  Z
  " fill="#009af9" fill-rule="evenodd" fill-opacity="1"/>
<polyline clip-path="url(#clip174)" style="stroke:#000000; stroke-linecap:round; stroke-linejoin:round; stroke-width:4; stroke-opacity:1; fill:none" points="
  3320.43,528.559 3320.43,1109.46 3387.61,1109.46 3387.61,528.559 3320.43,528.559 
  "/>
<path clip-path="url(#clip174)" d="
M3404.41 528.559 L3404.41 1109.46 L3471.6 1109.46 L3471.6 528.559 L3404.41 528.559 L3404.41 528.559  Z
  " fill="#009af9" fill-rule="evenodd" fill-opacity="1"/>
<polyline clip-path="url(#clip174)" style="stroke:#000000; stroke-linecap:round; stroke-linejoin:round; stroke-width:4; stroke-opacity:1; fill:none" points="
  3404.41,528.559 3404.41,1109.46 3471.6,1109.46 3471.6,528.559 3404.41,528.559 
  "/>
<path clip-path="url(#clip174)" d="
M3488.39 684.156 L3488.39 1109.46 L3555.58 1109.46 L3555.58 684.156 L3488.39 684.156 L3488.39 684.156  Z
  " fill="#009af9" fill-rule="evenodd" fill-opacity="1"/>
<polyline clip-path="url(#clip174)" style="stroke:#000000; stroke-linecap:round; stroke-linejoin:round; stroke-width:4; stroke-opacity:1; fill:none" points="
  3488.39,684.156 3488.39,1109.46 3555.58,1109.46 3555.58,684.156 3488.39,684.156 
  "/>
<path clip-path="url(#clip174)" d="
M3572.38 886.433 L3572.38 1109.46 L3639.56 1109.46 L3639.56 886.433 L3572.38 886.433 L3572.38 886.433  Z
  " fill="#009af9" fill-rule="evenodd" fill-opacity="1"/>
<polyline clip-path="url(#clip174)" style="stroke:#000000; stroke-linecap:round; stroke-linejoin:round; stroke-width:4; stroke-opacity:1; fill:none" points="
  3572.38,886.433 3572.38,1109.46 3639.56,1109.46 3639.56,886.433 3572.38,886.433 
  "/>
<path clip-path="url(#clip174)" d="
M3656.36 1029.93 L3656.36 1109.46 L3723.55 1109.46 L3723.55 1029.93 L3656.36 1029.93 L3656.36 1029.93  Z
  " fill="#009af9" fill-rule="evenodd" fill-opacity="1"/>
<polyline clip-path="url(#clip174)" style="stroke:#000000; stroke-linecap:round; stroke-linejoin:round; stroke-width:4; stroke-opacity:1; fill:none" points="
  3656.36,1029.93 3656.36,1109.46 3723.55,1109.46 3723.55,1029.93 3656.36,1029.93 
  "/>
<path clip-path="url(#clip174)" d="
M3740.34 1092.17 L3740.34 1109.46 L3807.53 1109.46 L3807.53 1092.17 L3740.34 1092.17 L3740.34 1092.17  Z
  " fill="#009af9" fill-rule="evenodd" fill-opacity="1"/>
<polyline clip-path="url(#clip174)" style="stroke:#000000; stroke-linecap:round; stroke-linejoin:round; stroke-width:4; stroke-opacity:1; fill:none" points="
  3740.34,1092.17 3740.34,1109.46 3807.53,1109.46 3807.53,1092.17 3740.34,1092.17 
  "/>
<path clip-path="url(#clip174)" d="
M3824.33 1107.73 L3824.33 1109.46 L3891.51 1109.46 L3891.51 1107.73 L3824.33 1107.73 L3824.33 1107.73  Z
  " fill="#009af9" fill-rule="evenodd" fill-opacity="1"/>
<polyline clip-path="url(#clip174)" style="stroke:#000000; stroke-linecap:round; stroke-linejoin:round; stroke-width:4; stroke-opacity:1; fill:none" points="
  3824.33,1107.73 3824.33,1109.46 3891.51,1109.46 3891.51,1107.73 3824.33,1107.73 
  "/>
<circle clip-path="url(#clip174)" style="fill:#009af9; stroke:none; fill-opacity:0" cx="2892.11" cy="1107.73" r="2"/>
<circle clip-path="url(#clip174)" style="fill:#009af9; stroke:none; fill-opacity:0" cx="2976.09" cy="1092.17" r="2"/>
<circle clip-path="url(#clip174)" style="fill:#009af9; stroke:none; fill-opacity:0" cx="3060.08" cy="1029.93" r="2"/>
<circle clip-path="url(#clip174)" style="fill:#009af9; stroke:none; fill-opacity:0" cx="3144.06" cy="886.433" r="2"/>
<circle clip-path="url(#clip174)" style="fill:#009af9; stroke:none; fill-opacity:0" cx="3228.04" cy="684.156" r="2"/>
<circle clip-path="url(#clip174)" style="fill:#009af9; stroke:none; fill-opacity:0" cx="3312.03" cy="528.559" r="2"/>
<circle clip-path="url(#clip174)" style="fill:#009af9; stroke:none; fill-opacity:0" cx="3396.01" cy="528.559" r="2"/>
<circle clip-path="url(#clip174)" style="fill:#009af9; stroke:none; fill-opacity:0" cx="3479.99" cy="684.156" r="2"/>
<circle clip-path="url(#clip174)" style="fill:#009af9; stroke:none; fill-opacity:0" cx="3563.98" cy="886.433" r="2"/>
<circle clip-path="url(#clip174)" style="fill:#009af9; stroke:none; fill-opacity:0" cx="3647.96" cy="1029.93" r="2"/>
<circle clip-path="url(#clip174)" style="fill:#009af9; stroke:none; fill-opacity:0" cx="3731.94" cy="1092.17" r="2"/>
<circle clip-path="url(#clip174)" style="fill:#009af9; stroke:none; fill-opacity:0" cx="3815.93" cy="1107.73" r="2"/>
<circle clip-path="url(#clip174)" style="fill:#009af9; stroke:none; fill-opacity:0" cx="3899.91" cy="1107.73" r="2"/>
<path clip-path="url(#clip170)" d="
M3620.6 186.331 L3915.64 186.331 L3915.64 82.6512 L3620.6 82.6512  Z
  " fill="#ffffff" fill-rule="evenodd" fill-opacity="1"/>
<polyline clip-path="url(#clip170)" style="stroke:#000000; stroke-linecap:round; stroke-linejoin:round; stroke-width:4; stroke-opacity:1; fill:none" points="
  3620.6,186.331 3915.64,186.331 3915.64,82.6512 3620.6,82.6512 3620.6,186.331 
  "/>
<path clip-path="url(#clip170)" d="
M3632.97 155.227 L3707.2 155.227 L3707.2 113.755 L3632.97 113.755 L3632.97 155.227  Z
  " fill="#009af9" fill-rule="evenodd" fill-opacity="1"/>
<polyline clip-path="url(#clip170)" style="stroke:#000000; stroke-linecap:round; stroke-linejoin:round; stroke-width:4; stroke-opacity:1; fill:none" points="
  3632.97,155.227 3707.2,155.227 3707.2,113.755 3632.97,113.755 3632.97,155.227 
  "/>
<path clip-path="url(#clip170)" d="M3720.11 117.211 L3747.26 117.211 L3747.26 120.776 L3725.41 147.836 L3747.79 147.836 L3747.79 151.771 L3719.58 151.771 L3719.58 148.206 L3741.43 121.146 L3720.11 121.146 L3720.11 117.211 Z" fill="#000000" fill-rule="evenodd" fill-opacity="1" /><path clip-path="url(#clip170)" d="M3754.95 130.243 L3784.62 130.243 L3784.62 134.132 L3754.95 134.132 L3754.95 130.243 M3754.95 139.688 L3784.62 139.688 L3784.62 143.623 L3754.95 143.623 L3754.95 139.688 Z" fill="#000000" fill-rule="evenodd" fill-opacity="1" /><path clip-path="url(#clip170)" d="M3792.63 117.211 L3797.66 117.211 L3806.24 130.058 L3814.88 117.211 L3819.9 117.211 L3808.79 133.808 L3820.64 151.771 L3815.62 151.771 L3805.9 137.072 L3796.1 151.771 L3791.06 151.771 L3803.4 133.322 L3792.63 117.211 Z" fill="#000000" fill-rule="evenodd" fill-opacity="1" /><path clip-path="url(#clip170)" d="M3843.93 122.049 L3843.93 134.943 L3856.82 134.943 L3856.82 138.878 L3843.93 138.878 L3843.93 151.771 L3840.04 151.771 L3840.04 138.878 L3827.15 138.878 L3827.15 134.943 L3840.04 134.943 L3840.04 122.049 L3843.93 122.049 Z" fill="#000000" fill-rule="evenodd" fill-opacity="1" /><path clip-path="url(#clip170)" d="M3861.75 117.211 L3866.78 117.211 L3876.36 131.424 L3885.87 117.211 L3890.9 117.211 L3878.67 135.313 L3878.67 151.771 L3873.97 151.771 L3873.97 135.313 L3861.75 117.211 Z" fill="#000000" fill-rule="evenodd" fill-opacity="1" /></svg>
