<?xml version="1.0" encoding="UTF-8"?>
<svg xmlns="http://www.w3.org/2000/svg"
     xmlns:xlink="http://www.w3.org/1999/xlink"
     version="1.2"
     width="141.42mm" height="100mm" viewBox="0 0 141.42 100"
     stroke="none"
     fill="#000000"
     stroke-width="0.3"
     font-size="3.88"
>
<defs>
  <marker id="arrow" markerWidth="15" markerHeight="7" refX="5" refY="3.5" orient="auto" markerUnits="strokeWidth">
    <path d="M0,0 L15,3.5 L0,7 z" stroke="context-stroke" fill="context-stroke"/>
  </marker>
</defs>
<g stroke-width="1.5" fill="#000000" fill-opacity="0.000" stroke="#D3D3D3" id="img-6ae7e958-1">
  <g transform="translate(87.8,27.26)">
    <path fill="none" d="M-35.63,-16.12 L35.63,16.12 " class="primitive"/>
  </g>
  <g transform="translate(28.87,31.07)">
    <path fill="none" d="M13.63,-18.14 L-13.63,18.14 " class="primitive"/>
  </g>
  <g transform="translate(70.71,50)">
    <path fill="none" d="M51.59,-3.34 L-51.59,3.34 " class="primitive"/>
  </g>
  <g transform="translate(112.55,68.93)">
    <path fill="none" d="M13.63,-18.14 L-13.63,18.14 " class="primitive"/>
  </g>
  <g transform="translate(53.62,72.74)">
    <path fill="none" d="M35.63,16.12 L-35.63,-16.12 " class="primitive"/>
  </g>
</g>
<g stroke-width="1.5" stroke="#D3D3D3" id="img-6ae7e958-2">
  <g transform="translate(120.32,41.97)">
    <path fill="none" d="M-0.47,-1.9 L3.11,1.41 -2.64,0.5 " class="primitive"/>
  </g>
  <g transform="translate(16.97,46.91)">
    <path fill="none" d="M2.65,-0.48 L-1.73,2.31 -0.91,-1.82 " class="primitive"/>
  </g>
  <g transform="translate(22.8,53.1)">
    <path fill="none" d="M2.02,1.3 L-3.68,0.24 1.65,-1.54 " class="primitive"/>
  </g>
  <g transform="translate(100.65,84.76)">
    <path fill="none" d="M2.65,-0.48 L-1.73,2.31 -0.91,-1.82 " class="primitive"/>
  </g>
  <g transform="translate(21.1,58.03)">
    <path fill="none" d="M0.47,1.9 L-3.11,-1.41 2.64,-0.5 " class="primitive"/>
  </g>
</g>
<g font-size="4" stroke="#000000" stroke-opacity="0.000" fill="#000000" id="img-6ae7e958-3">
  <g transform="translate(108.72,36.72)">
    <g class="primitive">
      <text text-anchor="middle" dy="0.35em">b1</text>
    </g>
  </g>
  <g transform="translate(20.33,42.45)">
    <g class="primitive">
      <text text-anchor="middle" dy="0.35em">b2</text>
    </g>
  </g>
  <g transform="translate(41.25,51.91)">
    <g class="primitive">
      <text text-anchor="middle" dy="0.35em">b3</text>
    </g>
  </g>
  <g transform="translate(104,80.3)">
    <g class="primitive">
      <text text-anchor="middle" dy="0.35em">b4</text>
    </g>
  </g>
  <g transform="translate(32.7,63.28)">
    <g class="primitive">
      <text text-anchor="middle" dy="0.35em">b5</text>
    </g>
  </g>
</g>
<g stroke-width="0" stroke="#000000" stroke-opacity="0.000" fill="#40E0D0" id="img-6ae7e958-4">
  <g transform="translate(45.96,8.33)">
    <circle cx="0" cy="0" r="7.07" class="primitive"/>
  </g>
  <g transform="translate(129.64,46.18)">
    <circle cx="0" cy="0" r="7.07" class="primitive"/>
  </g>
  <g transform="translate(11.79,53.82)">
    <circle cx="0" cy="0" r="7.07" class="primitive"/>
  </g>
  <g transform="translate(95.46,91.67)">
    <circle cx="0" cy="0" r="7.07" class="primitive"/>
  </g>
</g>
<g font-size="4" stroke="#000000" stroke-opacity="0.000" fill="#000000" id="img-6ae7e958-5">
  <g transform="translate(45.96,8.33)">
    <g class="primitive">
      <text text-anchor="middle" dy="0.35em">x1</text>
    </g>
  </g>
  <g transform="translate(129.64,46.18)">
    <g class="primitive">
      <text text-anchor="middle" dy="0.35em">x2</text>
    </g>
  </g>
  <g transform="translate(11.79,53.82)">
    <g class="primitive">
      <text text-anchor="middle" dy="0.35em">x3</text>
    </g>
  </g>
  <g transform="translate(95.46,91.67)">
    <g class="primitive">
      <text text-anchor="middle" dy="0.35em">x4</text>
    </g>
  </g>
</g>
</svg>
