<?xml version="1.0" encoding="utf-8"?>
<svg xmlns="http://www.w3.org/2000/svg" xmlns:xlink="http://www.w3.org/1999/xlink" width="600" height="400" viewBox="0 0 2400 1600">
<defs>
  <clipPath id="clip210">
    <rect x="0" y="0" width="2400" height="1600"/>
  </clipPath>
</defs>
<path clip-path="url(#clip210)" d="
M0 1600 L2400 1600 L2400 0 L0 0  Z
  " fill="#ffffff" fill-rule="evenodd" fill-opacity="1"/>
<defs>
  <clipPath id="clip211">
    <rect x="480" y="0" width="1681" height="1600"/>
  </clipPath>
</defs>
<path clip-path="url(#clip210)" d="
M112.177 1486.45 L2352.76 1486.45 L2352.76 47.2441 L112.177 47.2441  Z
  " fill="#ffffff" fill-rule="evenodd" fill-opacity="1"/>
<defs>
  <clipPath id="clip212">
    <rect x="112" y="47" width="2242" height="1440"/>
  </clipPath>
</defs>
<polyline clip-path="url(#clip212)" style="stroke:#000000; stroke-linecap:round; stroke-linejoin:round; stroke-width:2; stroke-opacity:0.1; fill:none" points="
  175.59,1486.45 175.59,47.2441 
  "/>
<polyline clip-path="url(#clip212)" style="stroke:#000000; stroke-linecap:round; stroke-linejoin:round; stroke-width:2; stroke-opacity:0.1; fill:none" points="
  704.028,1486.45 704.028,47.2441 
  "/>
<polyline clip-path="url(#clip212)" style="stroke:#000000; stroke-linecap:round; stroke-linejoin:round; stroke-width:2; stroke-opacity:0.1; fill:none" points="
  1232.47,1486.45 1232.47,47.2441 
  "/>
<polyline clip-path="url(#clip212)" style="stroke:#000000; stroke-linecap:round; stroke-linejoin:round; stroke-width:2; stroke-opacity:0.1; fill:none" points="
  1760.9,1486.45 1760.9,47.2441 
  "/>
<polyline clip-path="url(#clip212)" style="stroke:#000000; stroke-linecap:round; stroke-linejoin:round; stroke-width:2; stroke-opacity:0.1; fill:none" points="
  2289.34,1486.45 2289.34,47.2441 
  "/>
<polyline clip-path="url(#clip210)" style="stroke:#000000; stroke-linecap:round; stroke-linejoin:round; stroke-width:4; stroke-opacity:1; fill:none" points="
  112.177,1486.45 2352.76,1486.45 
  "/>
<polyline clip-path="url(#clip210)" style="stroke:#000000; stroke-linecap:round; stroke-linejoin:round; stroke-width:4; stroke-opacity:1; fill:none" points="
  175.59,1486.45 175.59,1467.55 
  "/>
<polyline clip-path="url(#clip210)" style="stroke:#000000; stroke-linecap:round; stroke-linejoin:round; stroke-width:4; stroke-opacity:1; fill:none" points="
  704.028,1486.45 704.028,1467.55 
  "/>
<polyline clip-path="url(#clip210)" style="stroke:#000000; stroke-linecap:round; stroke-linejoin:round; stroke-width:4; stroke-opacity:1; fill:none" points="
  1232.47,1486.45 1232.47,1467.55 
  "/>
<polyline clip-path="url(#clip210)" style="stroke:#000000; stroke-linecap:round; stroke-linejoin:round; stroke-width:4; stroke-opacity:1; fill:none" points="
  1760.9,1486.45 1760.9,1467.55 
  "/>
<polyline clip-path="url(#clip210)" style="stroke:#000000; stroke-linecap:round; stroke-linejoin:round; stroke-width:4; stroke-opacity:1; fill:none" points="
  2289.34,1486.45 2289.34,1467.55 
  "/>
<path clip-path="url(#clip210)" d="M122.118 1532.02 L151.794 1532.02 L151.794 1535.95 L122.118 1535.95 L122.118 1532.02 Z" fill="#000000" fill-rule="evenodd" fill-opacity="1" /><path clip-path="url(#clip210)" d="M162.696 1544.91 L170.335 1544.91 L170.335 1518.55 L162.025 1520.21 L162.025 1515.95 L170.289 1514.29 L174.965 1514.29 L174.965 1544.91 L182.604 1544.91 L182.604 1548.85 L162.696 1548.85 L162.696 1544.91 Z" fill="#000000" fill-rule="evenodd" fill-opacity="1" /><path clip-path="url(#clip210)" d="M192.048 1542.97 L196.932 1542.97 L196.932 1548.85 L192.048 1548.85 L192.048 1542.97 Z" fill="#000000" fill-rule="evenodd" fill-opacity="1" /><path clip-path="url(#clip210)" d="M217.117 1517.37 Q213.506 1517.37 211.678 1520.93 Q209.872 1524.47 209.872 1531.6 Q209.872 1538.71 211.678 1542.27 Q213.506 1545.82 217.117 1545.82 Q220.752 1545.82 222.557 1542.27 Q224.386 1538.71 224.386 1531.6 Q224.386 1524.47 222.557 1520.93 Q220.752 1517.37 217.117 1517.37 M217.117 1513.66 Q222.927 1513.66 225.983 1518.27 Q229.062 1522.85 229.062 1531.6 Q229.062 1540.33 225.983 1544.94 Q222.927 1549.52 217.117 1549.52 Q211.307 1549.52 208.228 1544.94 Q205.173 1540.33 205.173 1531.6 Q205.173 1522.85 208.228 1518.27 Q211.307 1513.66 217.117 1513.66 Z" fill="#000000" fill-rule="evenodd" fill-opacity="1" /><path clip-path="url(#clip210)" d="M651.054 1532.02 L680.73 1532.02 L680.73 1535.95 L651.054 1535.95 L651.054 1532.02 Z" fill="#000000" fill-rule="evenodd" fill-opacity="1" /><path clip-path="url(#clip210)" d="M700.822 1517.37 Q697.211 1517.37 695.382 1520.93 Q693.577 1524.47 693.577 1531.6 Q693.577 1538.71 695.382 1542.27 Q697.211 1545.82 700.822 1545.82 Q704.456 1545.82 706.262 1542.27 Q708.091 1538.71 708.091 1531.6 Q708.091 1524.47 706.262 1520.93 Q704.456 1517.37 700.822 1517.37 M700.822 1513.66 Q706.632 1513.66 709.688 1518.27 Q712.767 1522.85 712.767 1531.6 Q712.767 1540.33 709.688 1544.94 Q706.632 1549.52 700.822 1549.52 Q695.012 1549.52 691.933 1544.94 Q688.878 1540.33 688.878 1531.6 Q688.878 1522.85 691.933 1518.27 Q695.012 1513.66 700.822 1513.66 Z" fill="#000000" fill-rule="evenodd" fill-opacity="1" /><path clip-path="url(#clip210)" d="M720.984 1542.97 L725.868 1542.97 L725.868 1548.85 L720.984 1548.85 L720.984 1542.97 Z" fill="#000000" fill-rule="evenodd" fill-opacity="1" /><path clip-path="url(#clip210)" d="M736.1 1514.29 L754.456 1514.29 L754.456 1518.22 L740.382 1518.22 L740.382 1526.7 Q741.401 1526.35 742.419 1526.19 Q743.438 1526 744.456 1526 Q750.243 1526 753.623 1529.17 Q757.002 1532.34 757.002 1537.76 Q757.002 1543.34 753.53 1546.44 Q750.058 1549.52 743.739 1549.52 Q741.563 1549.52 739.294 1549.15 Q737.049 1548.78 734.641 1548.04 L734.641 1543.34 Q736.725 1544.47 738.947 1545.03 Q741.169 1545.58 743.646 1545.58 Q747.651 1545.58 749.989 1543.48 Q752.327 1541.37 752.327 1537.76 Q752.327 1534.15 749.989 1532.04 Q747.651 1529.94 743.646 1529.94 Q741.771 1529.94 739.896 1530.35 Q738.044 1530.77 736.1 1531.65 L736.1 1514.29 Z" fill="#000000" fill-rule="evenodd" fill-opacity="1" /><path clip-path="url(#clip210)" d="M1209.85 1517.37 Q1206.24 1517.37 1204.41 1520.93 Q1202.61 1524.47 1202.61 1531.6 Q1202.61 1538.71 1204.41 1542.27 Q1206.24 1545.82 1209.85 1545.82 Q1213.49 1545.82 1215.29 1542.27 Q1217.12 1538.71 1217.12 1531.6 Q1217.12 1524.47 1215.29 1520.93 Q1213.49 1517.37 1209.85 1517.37 M1209.85 1513.66 Q1215.66 1513.66 1218.72 1518.27 Q1221.8 1522.85 1221.8 1531.6 Q1221.8 1540.33 1218.72 1544.94 Q1215.66 1549.52 1209.85 1549.52 Q1204.04 1549.52 1200.96 1544.94 Q1197.91 1540.33 1197.91 1531.6 Q1197.91 1522.85 1200.96 1518.27 Q1204.04 1513.66 1209.85 1513.66 Z" fill="#000000" fill-rule="evenodd" fill-opacity="1" /><path clip-path="url(#clip210)" d="M1230.01 1542.97 L1234.9 1542.97 L1234.9 1548.85 L1230.01 1548.85 L1230.01 1542.97 Z" fill="#000000" fill-rule="evenodd" fill-opacity="1" /><path clip-path="url(#clip210)" d="M1255.08 1517.37 Q1251.47 1517.37 1249.64 1520.93 Q1247.84 1524.47 1247.84 1531.6 Q1247.84 1538.71 1249.64 1542.27 Q1251.47 1545.82 1255.08 1545.82 Q1258.72 1545.82 1260.52 1542.27 Q1262.35 1538.71 1262.35 1531.6 Q1262.35 1524.47 1260.52 1520.93 Q1258.72 1517.37 1255.08 1517.37 M1255.08 1513.66 Q1260.89 1513.66 1263.95 1518.27 Q1267.03 1522.85 1267.03 1531.6 Q1267.03 1540.33 1263.95 1544.94 Q1260.89 1549.52 1255.08 1549.52 Q1249.27 1549.52 1246.19 1544.94 Q1243.14 1540.33 1243.14 1531.6 Q1243.14 1522.85 1246.19 1518.27 Q1249.27 1513.66 1255.08 1513.66 Z" fill="#000000" fill-rule="evenodd" fill-opacity="1" /><path clip-path="url(#clip210)" d="M1738.79 1517.37 Q1735.18 1517.37 1733.35 1520.93 Q1731.54 1524.47 1731.54 1531.6 Q1731.54 1538.71 1733.35 1542.27 Q1735.18 1545.82 1738.79 1545.82 Q1742.42 1545.82 1744.23 1542.27 Q1746.06 1538.71 1746.06 1531.6 Q1746.06 1524.47 1744.23 1520.93 Q1742.42 1517.37 1738.79 1517.37 M1738.79 1513.66 Q1744.6 1513.66 1747.65 1518.27 Q1750.73 1522.85 1750.73 1531.6 Q1750.73 1540.33 1747.65 1544.94 Q1744.6 1549.52 1738.79 1549.52 Q1732.98 1549.52 1729.9 1544.94 Q1726.84 1540.33 1726.84 1531.6 Q1726.84 1522.85 1729.9 1518.27 Q1732.98 1513.66 1738.79 1513.66 Z" fill="#000000" fill-rule="evenodd" fill-opacity="1" /><path clip-path="url(#clip210)" d="M1758.95 1542.97 L1763.83 1542.97 L1763.83 1548.85 L1758.95 1548.85 L1758.95 1542.97 Z" fill="#000000" fill-rule="evenodd" fill-opacity="1" /><path clip-path="url(#clip210)" d="M1774.06 1514.29 L1792.42 1514.29 L1792.42 1518.22 L1778.35 1518.22 L1778.35 1526.7 Q1779.37 1526.35 1780.38 1526.19 Q1781.4 1526 1782.42 1526 Q1788.21 1526 1791.59 1529.17 Q1794.97 1532.34 1794.97 1537.76 Q1794.97 1543.34 1791.5 1546.44 Q1788.02 1549.52 1781.7 1549.52 Q1779.53 1549.52 1777.26 1549.15 Q1775.01 1548.78 1772.61 1548.04 L1772.61 1543.34 Q1774.69 1544.47 1776.91 1545.03 Q1779.13 1545.58 1781.61 1545.58 Q1785.62 1545.58 1787.95 1543.48 Q1790.29 1541.37 1790.29 1537.76 Q1790.29 1534.15 1787.95 1532.04 Q1785.62 1529.94 1781.61 1529.94 Q1779.74 1529.94 1777.86 1530.35 Q1776.01 1530.77 1774.06 1531.65 L1774.06 1514.29 Z" fill="#000000" fill-rule="evenodd" fill-opacity="1" /><path clip-path="url(#clip210)" d="M2256.5 1544.91 L2264.14 1544.91 L2264.14 1518.55 L2255.82 1520.21 L2255.82 1515.95 L2264.09 1514.29 L2268.76 1514.29 L2268.76 1544.91 L2276.4 1544.91 L2276.4 1548.85 L2256.5 1548.85 L2256.5 1544.91 Z" fill="#000000" fill-rule="evenodd" fill-opacity="1" /><path clip-path="url(#clip210)" d="M2285.85 1542.97 L2290.73 1542.97 L2290.73 1548.85 L2285.85 1548.85 L2285.85 1542.97 Z" fill="#000000" fill-rule="evenodd" fill-opacity="1" /><path clip-path="url(#clip210)" d="M2310.92 1517.37 Q2307.31 1517.37 2305.48 1520.93 Q2303.67 1524.47 2303.67 1531.6 Q2303.67 1538.71 2305.48 1542.27 Q2307.31 1545.82 2310.92 1545.82 Q2314.55 1545.82 2316.36 1542.27 Q2318.19 1538.71 2318.19 1531.6 Q2318.19 1524.47 2316.36 1520.93 Q2314.55 1517.37 2310.92 1517.37 M2310.92 1513.66 Q2316.73 1513.66 2319.78 1518.27 Q2322.86 1522.85 2322.86 1531.6 Q2322.86 1540.33 2319.78 1544.94 Q2316.73 1549.52 2310.92 1549.52 Q2305.11 1549.52 2302.03 1544.94 Q2298.97 1540.33 2298.97 1531.6 Q2298.97 1522.85 2302.03 1518.27 Q2305.11 1513.66 2310.92 1513.66 Z" fill="#000000" fill-rule="evenodd" fill-opacity="1" /><polyline clip-path="url(#clip212)" style="stroke:#000000; stroke-linecap:round; stroke-linejoin:round; stroke-width:2; stroke-opacity:0.1; fill:none" points="
  112.177,1445.72 2352.76,1445.72 
  "/>
<polyline clip-path="url(#clip212)" style="stroke:#000000; stroke-linecap:round; stroke-linejoin:round; stroke-width:2; stroke-opacity:0.1; fill:none" points="
  112.177,1233.21 2352.76,1233.21 
  "/>
<polyline clip-path="url(#clip212)" style="stroke:#000000; stroke-linecap:round; stroke-linejoin:round; stroke-width:2; stroke-opacity:0.1; fill:none" points="
  112.177,1020.7 2352.76,1020.7 
  "/>
<polyline clip-path="url(#clip212)" style="stroke:#000000; stroke-linecap:round; stroke-linejoin:round; stroke-width:2; stroke-opacity:0.1; fill:none" points="
  112.177,808.185 2352.76,808.185 
  "/>
<polyline clip-path="url(#clip212)" style="stroke:#000000; stroke-linecap:round; stroke-linejoin:round; stroke-width:2; stroke-opacity:0.1; fill:none" points="
  112.177,595.675 2352.76,595.675 
  "/>
<polyline clip-path="url(#clip212)" style="stroke:#000000; stroke-linecap:round; stroke-linejoin:round; stroke-width:2; stroke-opacity:0.1; fill:none" points="
  112.177,383.165 2352.76,383.165 
  "/>
<polyline clip-path="url(#clip212)" style="stroke:#000000; stroke-linecap:round; stroke-linejoin:round; stroke-width:2; stroke-opacity:0.1; fill:none" points="
  112.177,170.655 2352.76,170.655 
  "/>
<polyline clip-path="url(#clip210)" style="stroke:#000000; stroke-linecap:round; stroke-linejoin:round; stroke-width:4; stroke-opacity:1; fill:none" points="
  112.177,1486.45 112.177,47.2441 
  "/>
<polyline clip-path="url(#clip210)" style="stroke:#000000; stroke-linecap:round; stroke-linejoin:round; stroke-width:4; stroke-opacity:1; fill:none" points="
  112.177,1445.72 131.075,1445.72 
  "/>
<polyline clip-path="url(#clip210)" style="stroke:#000000; stroke-linecap:round; stroke-linejoin:round; stroke-width:4; stroke-opacity:1; fill:none" points="
  112.177,1233.21 131.075,1233.21 
  "/>
<polyline clip-path="url(#clip210)" style="stroke:#000000; stroke-linecap:round; stroke-linejoin:round; stroke-width:4; stroke-opacity:1; fill:none" points="
  112.177,1020.7 131.075,1020.7 
  "/>
<polyline clip-path="url(#clip210)" style="stroke:#000000; stroke-linecap:round; stroke-linejoin:round; stroke-width:4; stroke-opacity:1; fill:none" points="
  112.177,808.185 131.075,808.185 
  "/>
<polyline clip-path="url(#clip210)" style="stroke:#000000; stroke-linecap:round; stroke-linejoin:round; stroke-width:4; stroke-opacity:1; fill:none" points="
  112.177,595.675 131.075,595.675 
  "/>
<polyline clip-path="url(#clip210)" style="stroke:#000000; stroke-linecap:round; stroke-linejoin:round; stroke-width:4; stroke-opacity:1; fill:none" points="
  112.177,383.165 131.075,383.165 
  "/>
<polyline clip-path="url(#clip210)" style="stroke:#000000; stroke-linecap:round; stroke-linejoin:round; stroke-width:4; stroke-opacity:1; fill:none" points="
  112.177,170.655 131.075,170.655 
  "/>
<path clip-path="url(#clip210)" d="M64.2328 1431.51 Q60.6217 1431.51 58.793 1435.08 Q56.9875 1438.62 56.9875 1445.75 Q56.9875 1452.86 58.793 1456.42 Q60.6217 1459.96 64.2328 1459.96 Q67.867 1459.96 69.6726 1456.42 Q71.5013 1452.86 71.5013 1445.75 Q71.5013 1438.62 69.6726 1435.08 Q67.867 1431.51 64.2328 1431.51 M64.2328 1427.81 Q70.0429 1427.81 73.0985 1432.42 Q76.1772 1437 76.1772 1445.75 Q76.1772 1454.48 73.0985 1459.08 Q70.0429 1463.67 64.2328 1463.67 Q58.4226 1463.67 55.344 1459.08 Q52.2884 1454.48 52.2884 1445.75 Q52.2884 1437 55.344 1432.42 Q58.4226 1427.81 64.2328 1427.81 Z" fill="#000000" fill-rule="evenodd" fill-opacity="1" /><path clip-path="url(#clip210)" d="M56.2699 1246.55 L63.9087 1246.55 L63.9087 1220.18 L55.5986 1221.85 L55.5986 1217.59 L63.8624 1215.93 L68.5383 1215.93 L68.5383 1246.55 L76.1772 1246.55 L76.1772 1250.49 L56.2699 1250.49 L56.2699 1246.55 Z" fill="#000000" fill-rule="evenodd" fill-opacity="1" /><path clip-path="url(#clip210)" d="M59.8578 1034.04 L76.1772 1034.04 L76.1772 1037.98 L54.2328 1037.98 L54.2328 1034.04 Q56.8949 1031.29 61.4782 1026.66 Q66.0846 1022 67.2652 1020.66 Q69.5105 1018.14 70.3902 1016.4 Q71.2929 1014.64 71.2929 1012.95 Q71.2929 1010.2 69.3485 1008.46 Q67.4272 1006.73 64.3254 1006.73 Q62.1263 1006.73 59.6726 1007.49 Q57.2421 1008.25 54.4643 1009.8 L54.4643 1005.08 Q57.2884 1003.95 59.7421 1003.37 Q62.1958 1002.79 64.2328 1002.79 Q69.6031 1002.79 72.7976 1005.48 Q75.992 1008.16 75.992 1012.65 Q75.992 1014.78 75.1818 1016.7 Q74.3948 1018.6 72.2883 1021.19 Q71.7096 1021.86 68.6078 1025.08 Q65.5059 1028.28 59.8578 1034.04 Z" fill="#000000" fill-rule="evenodd" fill-opacity="1" /><path clip-path="url(#clip210)" d="M69.0476 806.831 Q72.404 807.549 74.279 809.817 Q76.1772 812.086 76.1772 815.419 Q76.1772 820.535 72.6587 823.336 Q69.1402 826.136 62.6587 826.136 Q60.4828 826.136 58.168 825.697 Q55.8764 825.28 53.4227 824.424 L53.4227 819.91 Q55.3671 821.044 57.6819 821.623 Q59.9967 822.201 62.5198 822.201 Q66.918 822.201 69.2096 820.465 Q71.5244 818.729 71.5244 815.419 Q71.5244 812.363 69.3717 810.65 Q67.242 808.914 63.4226 808.914 L59.3949 808.914 L59.3949 805.072 L63.6078 805.072 Q67.0569 805.072 68.8855 803.706 Q70.7142 802.317 70.7142 799.725 Q70.7142 797.063 68.8161 795.651 Q66.9411 794.215 63.4226 794.215 Q61.5013 794.215 59.3023 794.632 Q57.1032 795.049 54.4643 795.928 L54.4643 791.762 Q57.1264 791.021 59.4412 790.651 Q61.7791 790.28 63.8393 790.28 Q69.1633 790.28 72.2652 792.711 Q75.367 795.118 75.367 799.238 Q75.367 802.109 73.7235 804.1 Q72.08 806.067 69.0476 806.831 Z" fill="#000000" fill-rule="evenodd" fill-opacity="1" /><path clip-path="url(#clip210)" d="M66.5939 582.469 L54.7884 600.918 L66.5939 600.918 L66.5939 582.469 M65.367 578.395 L71.2466 578.395 L71.2466 600.918 L76.1772 600.918 L76.1772 604.807 L71.2466 604.807 L71.2466 612.955 L66.5939 612.955 L66.5939 604.807 L50.9921 604.807 L50.9921 600.293 L65.367 578.395 Z" fill="#000000" fill-rule="evenodd" fill-opacity="1" /><path clip-path="url(#clip210)" d="M55.2745 365.885 L73.6309 365.885 L73.6309 369.82 L59.5569 369.82 L59.5569 378.292 Q60.5754 377.945 61.5939 377.783 Q62.6124 377.598 63.6309 377.598 Q69.418 377.598 72.7976 380.769 Q76.1772 383.94 76.1772 389.357 Q76.1772 394.936 72.705 398.037 Q69.2328 401.116 62.9134 401.116 Q60.7374 401.116 58.4689 400.746 Q56.2236 400.375 53.8162 399.635 L53.8162 394.936 Q55.8995 396.07 58.1217 396.625 Q60.3439 397.181 62.8208 397.181 Q66.8254 397.181 69.1633 395.074 Q71.5013 392.968 71.5013 389.357 Q71.5013 385.746 69.1633 383.639 Q66.8254 381.533 62.8208 381.533 Q60.9458 381.533 59.0708 381.95 Q57.2189 382.366 55.2745 383.246 L55.2745 365.885 Z" fill="#000000" fill-rule="evenodd" fill-opacity="1" /><path clip-path="url(#clip210)" d="M64.6495 168.791 Q61.5013 168.791 59.6495 170.944 Q57.8208 173.097 57.8208 176.847 Q57.8208 180.574 59.6495 182.749 Q61.5013 184.902 64.6495 184.902 Q67.7976 184.902 69.6263 182.749 Q71.4781 180.574 71.4781 176.847 Q71.4781 173.097 69.6263 170.944 Q67.7976 168.791 64.6495 168.791 M73.9318 154.139 L73.9318 158.398 Q72.1726 157.564 70.367 157.125 Q68.5846 156.685 66.8254 156.685 Q62.1958 156.685 59.7421 159.81 Q57.3115 162.935 56.9643 169.254 Q58.33 167.24 60.3902 166.176 Q62.4504 165.088 64.9272 165.088 Q70.1355 165.088 73.1448 168.259 Q76.1772 171.407 76.1772 176.847 Q76.1772 182.171 73.029 185.388 Q69.8809 188.606 64.6495 188.606 Q58.6541 188.606 55.4828 184.023 Q52.3116 179.416 52.3116 170.689 Q52.3116 162.495 56.2004 157.634 Q60.0893 152.75 66.6402 152.75 Q68.3994 152.75 70.1818 153.097 Q71.9874 153.444 73.9318 154.139 Z" fill="#000000" fill-rule="evenodd" fill-opacity="1" /><polyline clip-path="url(#clip212)" style="stroke:#009af9; stroke-linecap:round; stroke-linejoin:round; stroke-width:4; stroke-opacity:1; fill:none" points="
  175.59,1204.45 281.277,1219.33 386.965,1232.8 492.653,1244.55 598.34,1254.2 704.028,1261.28 809.716,1265.22 915.404,1265.33 1021.09,1260.76 1126.78,1250.48 
  1232.47,1233.21 1338.15,1207.41 1443.84,1171.19 1549.53,1122.25 1655.22,1057.77 1760.9,974.308 1866.59,867.663 1972.28,732.702 2077.97,563.154 2183.66,351.363 
  2289.34,87.9763 
  "/>
<polyline clip-path="url(#clip212)" style="stroke:#e26f46; stroke-linecap:round; stroke-linejoin:round; stroke-width:4; stroke-opacity:1; fill:none" points="
  175.59,1445.72 281.277,1424.46 386.965,1403.21 492.653,1381.96 598.34,1360.71 704.028,1339.46 809.716,1318.21 915.404,1296.96 1021.09,1275.71 1126.78,1254.46 
  1232.47,1233.21 1338.15,1211.95 1443.84,1190.7 1549.53,1169.45 1655.22,1148.2 1760.9,1126.95 1866.59,1105.7 1972.28,1084.45 2077.97,1063.2 2183.66,1041.95 
  2289.34,1020.7 
  "/>
<path clip-path="url(#clip210)" d="
M186.863 250.738 L787.111 250.738 L787.111 95.2176 L186.863 95.2176  Z
  " fill="#ffffff" fill-rule="evenodd" fill-opacity="1"/>
<polyline clip-path="url(#clip210)" style="stroke:#000000; stroke-linecap:round; stroke-linejoin:round; stroke-width:4; stroke-opacity:1; fill:none" points="
  186.863,250.738 787.111,250.738 787.111,95.2176 186.863,95.2176 186.863,250.738 
  "/>
<polyline clip-path="url(#clip210)" style="stroke:#009af9; stroke-linecap:round; stroke-linejoin:round; stroke-width:4; stroke-opacity:1; fill:none" points="
  211.758,147.058 361.13,147.058 
  "/>
<path clip-path="url(#clip210)" d="M402.53 128.319 L402.53 131.861 L398.456 131.861 Q396.165 131.861 395.262 132.787 Q394.382 133.713 394.382 136.12 L394.382 138.412 L401.396 138.412 L401.396 141.722 L394.382 141.722 L394.382 164.338 L390.1 164.338 L390.1 141.722 L386.026 141.722 L386.026 138.412 L390.1 138.412 L390.1 136.606 Q390.1 132.278 392.114 130.31 Q394.127 128.319 398.502 128.319 L402.53 128.319 Z" fill="#000000" fill-rule="evenodd" fill-opacity="1" /><path clip-path="url(#clip210)" d="M416.326 128.366 Q413.225 133.69 411.72 138.898 Q410.215 144.106 410.215 149.453 Q410.215 154.801 411.72 160.055 Q413.248 165.287 416.326 170.588 L412.623 170.588 Q409.151 165.148 407.414 159.893 Q405.702 154.639 405.702 149.453 Q405.702 144.291 407.414 139.06 Q409.127 133.828 412.623 128.366 L416.326 128.366 Z" fill="#000000" fill-rule="evenodd" fill-opacity="1" /><path clip-path="url(#clip210)" d="M446.141 138.412 L436.766 151.027 L446.627 164.338 L441.604 164.338 L434.058 154.152 L426.512 164.338 L421.488 164.338 L431.558 150.773 L422.345 138.412 L427.368 138.412 L434.243 147.648 L441.118 138.412 L446.141 138.412 Z" fill="#000000" fill-rule="evenodd" fill-opacity="1" /><path clip-path="url(#clip210)" d="M451.974 128.366 L455.678 128.366 Q459.15 133.828 460.863 139.06 Q462.599 144.291 462.599 149.453 Q462.599 154.639 460.863 159.893 Q459.15 165.148 455.678 170.588 L451.974 170.588 Q455.053 165.287 456.558 160.055 Q458.085 154.801 458.085 149.453 Q458.085 144.106 456.558 138.898 Q455.053 133.69 451.974 128.366 Z" fill="#000000" fill-rule="evenodd" fill-opacity="1" /><polyline clip-path="url(#clip210)" style="stroke:#e26f46; stroke-linecap:round; stroke-linejoin:round; stroke-width:4; stroke-opacity:1; fill:none" points="
  211.758,198.898 361.13,198.898 
  "/>
<path clip-path="url(#clip210)" d="M402.53 180.159 L402.53 183.701 L398.456 183.701 Q396.165 183.701 395.262 184.627 Q394.382 185.553 394.382 187.96 L394.382 190.252 L401.396 190.252 L401.396 193.562 L394.382 193.562 L394.382 216.178 L390.1 216.178 L390.1 193.562 L386.026 193.562 L386.026 190.252 L390.1 190.252 L390.1 188.446 Q390.1 184.118 392.114 182.15 Q394.127 180.159 398.502 180.159 L402.53 180.159 Z" fill="#000000" fill-rule="evenodd" fill-opacity="1" /><path clip-path="url(#clip210)" d="M416.326 180.206 Q413.225 185.53 411.72 190.738 Q410.215 195.946 410.215 201.293 Q410.215 206.641 411.72 211.895 Q413.248 217.127 416.326 222.428 L412.623 222.428 Q409.151 216.988 407.414 211.733 Q405.702 206.479 405.702 201.293 Q405.702 196.131 407.414 190.9 Q409.127 185.668 412.623 180.206 L416.326 180.206 Z" fill="#000000" fill-rule="evenodd" fill-opacity="1" /><path clip-path="url(#clip210)" d="M435.192 184.696 Q431.581 184.696 429.752 188.261 Q427.947 191.803 427.947 198.932 Q427.947 206.039 429.752 209.604 Q431.581 213.145 435.192 213.145 Q438.826 213.145 440.632 209.604 Q442.461 206.039 442.461 198.932 Q442.461 191.803 440.632 188.261 Q438.826 184.696 435.192 184.696 M435.192 180.993 Q441.002 180.993 444.058 185.599 Q447.136 190.182 447.136 198.932 Q447.136 207.659 444.058 212.266 Q441.002 216.849 435.192 216.849 Q429.382 216.849 426.303 212.266 Q423.248 207.659 423.248 198.932 Q423.248 190.182 426.303 185.599 Q429.382 180.993 435.192 180.993 Z" fill="#000000" fill-rule="evenodd" fill-opacity="1" /><path clip-path="url(#clip210)" d="M454.081 180.206 L457.785 180.206 Q461.257 185.668 462.97 190.9 Q464.706 196.131 464.706 201.293 Q464.706 206.479 462.97 211.733 Q461.257 216.988 457.785 222.428 L454.081 222.428 Q457.16 217.127 458.664 211.895 Q460.192 206.641 460.192 201.293 Q460.192 195.946 458.664 190.738 Q457.16 185.53 454.081 180.206 Z" fill="#000000" fill-rule="evenodd" fill-opacity="1" /><path clip-path="url(#clip210)" d="M490.585 186.455 L490.585 199.349 L503.479 199.349 L503.479 203.284 L490.585 203.284 L490.585 216.178 L486.696 216.178 L486.696 203.284 L473.803 203.284 L473.803 199.349 L486.696 199.349 L486.696 186.455 L490.585 186.455 Z" fill="#000000" fill-rule="evenodd" fill-opacity="1" /><path clip-path="url(#clip210)" d="M526.094 180.159 L526.094 183.701 L522.02 183.701 Q519.729 183.701 518.826 184.627 Q517.946 185.553 517.946 187.96 L517.946 190.252 L524.96 190.252 L524.96 193.562 L517.946 193.562 L517.946 216.178 L513.664 216.178 L513.664 193.562 L509.59 193.562 L509.59 190.252 L513.664 190.252 L513.664 188.446 Q513.664 184.118 515.678 182.15 Q517.692 180.159 522.067 180.159 L526.094 180.159 Z" fill="#000000" fill-rule="evenodd" fill-opacity="1" /><path clip-path="url(#clip210)" d="M533.687 181.618 L533.687 194.465 L529.752 194.465 L529.752 181.618 L533.687 181.618 Z" fill="#000000" fill-rule="evenodd" fill-opacity="1" /><path clip-path="url(#clip210)" d="M552.923 180.206 Q549.821 185.53 548.316 190.738 Q546.812 195.946 546.812 201.293 Q546.812 206.641 548.316 211.895 Q549.844 217.127 552.923 222.428 L549.219 222.428 Q545.747 216.988 544.011 211.733 Q542.298 206.479 542.298 201.293 Q542.298 196.131 544.011 190.9 Q545.724 185.668 549.219 180.206 L552.923 180.206 Z" fill="#000000" fill-rule="evenodd" fill-opacity="1" /><path clip-path="url(#clip210)" d="M571.789 184.696 Q568.177 184.696 566.349 188.261 Q564.543 191.803 564.543 198.932 Q564.543 206.039 566.349 209.604 Q568.177 213.145 571.789 213.145 Q575.423 213.145 577.228 209.604 Q579.057 206.039 579.057 198.932 Q579.057 191.803 577.228 188.261 Q575.423 184.696 571.789 184.696 M571.789 180.993 Q577.599 180.993 580.654 185.599 Q583.733 190.182 583.733 198.932 Q583.733 207.659 580.654 212.266 Q577.599 216.849 571.789 216.849 Q565.978 216.849 562.9 212.266 Q559.844 207.659 559.844 198.932 Q559.844 190.182 562.9 185.599 Q565.978 180.993 571.789 180.993 Z" fill="#000000" fill-rule="evenodd" fill-opacity="1" /><path clip-path="url(#clip210)" d="M590.677 180.206 L594.381 180.206 Q597.853 185.668 599.566 190.9 Q601.302 196.131 601.302 201.293 Q601.302 206.479 599.566 211.733 Q597.853 216.988 594.381 222.428 L590.677 222.428 Q593.756 217.127 595.261 211.895 Q596.788 206.641 596.788 201.293 Q596.788 195.946 595.261 190.738 Q593.756 185.53 590.677 180.206 Z" fill="#000000" fill-rule="evenodd" fill-opacity="1" /><path clip-path="url(#clip210)" d="M627.668 187.312 L619.358 191.803 L627.668 196.317 L626.325 198.585 L618.548 193.886 L618.548 202.613 L615.909 202.613 L615.909 193.886 L608.131 198.585 L606.788 196.317 L615.099 191.803 L606.788 187.312 L608.131 185.02 L615.909 189.719 L615.909 180.993 L618.548 180.993 L618.548 189.719 L626.325 185.02 L627.668 187.312 Z" fill="#000000" fill-rule="evenodd" fill-opacity="1" /><path clip-path="url(#clip210)" d="M643.779 180.206 Q640.677 185.53 639.172 190.738 Q637.668 195.946 637.668 201.293 Q637.668 206.641 639.172 211.895 Q640.7 217.127 643.779 222.428 L640.075 222.428 Q636.603 216.988 634.867 211.733 Q633.154 206.479 633.154 201.293 Q633.154 196.131 634.867 190.9 Q636.58 185.668 640.075 180.206 L643.779 180.206 Z" fill="#000000" fill-rule="evenodd" fill-opacity="1" /><path clip-path="url(#clip210)" d="M673.594 190.252 L664.219 202.867 L674.08 216.178 L669.057 216.178 L661.51 205.992 L653.964 216.178 L648.941 216.178 L659.01 202.613 L649.797 190.252 L654.821 190.252 L661.696 199.488 L668.57 190.252 L673.594 190.252 Z" fill="#000000" fill-rule="evenodd" fill-opacity="1" /><path clip-path="url(#clip210)" d="M677.945 201.293 L690.422 201.293 L690.422 205.09 L677.945 205.09 L677.945 201.293 Z" fill="#000000" fill-rule="evenodd" fill-opacity="1" /><path clip-path="url(#clip210)" d="M707.806 184.696 Q704.195 184.696 702.367 188.261 Q700.561 191.803 700.561 198.932 Q700.561 206.039 702.367 209.604 Q704.195 213.145 707.806 213.145 Q711.441 213.145 713.246 209.604 Q715.075 206.039 715.075 198.932 Q715.075 191.803 713.246 188.261 Q711.441 184.696 707.806 184.696 M707.806 180.993 Q713.617 180.993 716.672 185.599 Q719.751 190.182 719.751 198.932 Q719.751 207.659 716.672 212.266 Q713.617 216.849 707.806 216.849 Q701.996 216.849 698.918 212.266 Q695.862 207.659 695.862 198.932 Q695.862 190.182 698.918 185.599 Q701.996 180.993 707.806 180.993 Z" fill="#000000" fill-rule="evenodd" fill-opacity="1" /><path clip-path="url(#clip210)" d="M726.695 180.206 L730.399 180.206 Q733.871 185.668 735.584 190.9 Q737.32 196.131 737.32 201.293 Q737.32 206.479 735.584 211.733 Q733.871 216.988 730.399 222.428 L726.695 222.428 Q729.774 217.127 731.278 211.895 Q732.806 206.641 732.806 201.293 Q732.806 195.946 731.278 190.738 Q729.774 185.53 726.695 180.206 Z" fill="#000000" fill-rule="evenodd" fill-opacity="1" /></svg>
