<?xml version="1.0" encoding="utf-8"?>
<svg xmlns="http://www.w3.org/2000/svg" xmlns:xlink="http://www.w3.org/1999/xlink" width="600" height="400" viewBox="0 0 2400 1600">
<defs>
  <clipPath id="clip890">
    <rect x="0" y="0" width="2400" height="1600"/>
  </clipPath>
</defs>
<path clip-path="url(#clip890)" d="
M0 1600 L2400 1600 L2400 0 L0 0  Z
  " fill="#ffffff" fill-rule="evenodd" fill-opacity="1"/>
<defs>
  <clipPath id="clip891">
    <rect x="480" y="0" width="1681" height="1600"/>
  </clipPath>
</defs>
<path clip-path="url(#clip890)" d="
M170.714 1486.45 L2329.52 1486.45 L2329.52 47.2441 L170.714 47.2441  Z
  " fill="#ffffff" fill-rule="evenodd" fill-opacity="1"/>
<defs>
  <clipPath id="clip892">
    <rect x="170" y="47" width="2160" height="1440"/>
  </clipPath>
</defs>
<polyline clip-path="url(#clip892)" style="stroke:#000000; stroke-linecap:round; stroke-linejoin:round; stroke-width:2; stroke-opacity:0.1; fill:none" points="
  170.714,1486.45 170.714,47.2441 
  "/>
<polyline clip-path="url(#clip892)" style="stroke:#000000; stroke-linecap:round; stroke-linejoin:round; stroke-width:2; stroke-opacity:0.1; fill:none" points="
  530.515,1486.45 530.515,47.2441 
  "/>
<polyline clip-path="url(#clip892)" style="stroke:#000000; stroke-linecap:round; stroke-linejoin:round; stroke-width:2; stroke-opacity:0.1; fill:none" points="
  890.316,1486.45 890.316,47.2441 
  "/>
<polyline clip-path="url(#clip892)" style="stroke:#000000; stroke-linecap:round; stroke-linejoin:round; stroke-width:2; stroke-opacity:0.1; fill:none" points="
  1609.92,1486.45 1609.92,47.2441 
  "/>
<polyline clip-path="url(#clip892)" style="stroke:#000000; stroke-linecap:round; stroke-linejoin:round; stroke-width:2; stroke-opacity:0.1; fill:none" points="
  1969.72,1486.45 1969.72,47.2441 
  "/>
<polyline clip-path="url(#clip892)" style="stroke:#000000; stroke-linecap:round; stroke-linejoin:round; stroke-width:2; stroke-opacity:0.1; fill:none" points="
  2329.52,1486.45 2329.52,47.2441 
  "/>
<polyline clip-path="url(#clip890)" style="stroke:#000000; stroke-linecap:round; stroke-linejoin:round; stroke-width:4; stroke-opacity:1; fill:none" points="
  170.714,766.846 2329.52,766.846 
  "/>
<polyline clip-path="url(#clip890)" style="stroke:#000000; stroke-linecap:round; stroke-linejoin:round; stroke-width:4; stroke-opacity:1; fill:none" points="
  170.714,785.744 170.714,747.948 
  "/>
<polyline clip-path="url(#clip890)" style="stroke:#000000; stroke-linecap:round; stroke-linejoin:round; stroke-width:4; stroke-opacity:1; fill:none" points="
  530.515,785.744 530.515,747.948 
  "/>
<polyline clip-path="url(#clip890)" style="stroke:#000000; stroke-linecap:round; stroke-linejoin:round; stroke-width:4; stroke-opacity:1; fill:none" points="
  890.316,785.744 890.316,747.948 
  "/>
<polyline clip-path="url(#clip890)" style="stroke:#000000; stroke-linecap:round; stroke-linejoin:round; stroke-width:4; stroke-opacity:1; fill:none" points="
  1609.92,785.744 1609.92,747.948 
  "/>
<polyline clip-path="url(#clip890)" style="stroke:#000000; stroke-linecap:round; stroke-linejoin:round; stroke-width:4; stroke-opacity:1; fill:none" points="
  1969.72,785.744 1969.72,747.948 
  "/>
<polyline clip-path="url(#clip890)" style="stroke:#000000; stroke-linecap:round; stroke-linejoin:round; stroke-width:4; stroke-opacity:1; fill:none" points="
  2329.52,785.744 2329.52,747.948 
  "/>
<path clip-path="url(#clip890)" d="M140.182 812.417 L169.858 812.417 L169.858 816.353 L140.182 816.353 L140.182 812.417 Z" fill="#000000" fill-rule="evenodd" fill-opacity="1" /><path clip-path="url(#clip890)" d="M194.117 810.612 Q197.473 811.329 199.348 813.598 Q201.246 815.866 201.246 819.2 Q201.246 824.315 197.728 827.116 Q194.209 829.917 187.728 829.917 Q185.552 829.917 183.237 829.477 Q180.946 829.061 178.492 828.204 L178.492 823.69 Q180.436 824.825 182.751 825.403 Q185.066 825.982 187.589 825.982 Q191.987 825.982 194.279 824.246 Q196.594 822.51 196.594 819.2 Q196.594 816.144 194.441 814.431 Q192.311 812.695 188.492 812.695 L184.464 812.695 L184.464 808.853 L188.677 808.853 Q192.126 808.853 193.955 807.487 Q195.783 806.098 195.783 803.505 Q195.783 800.843 193.885 799.431 Q192.01 797.996 188.492 797.996 Q186.57 797.996 184.371 798.413 Q182.172 798.829 179.533 799.709 L179.533 795.542 Q182.195 794.802 184.51 794.431 Q186.848 794.061 188.908 794.061 Q194.232 794.061 197.334 796.492 Q200.436 798.899 200.436 803.019 Q200.436 805.89 198.793 807.88 Q197.149 809.848 194.117 810.612 Z" fill="#000000" fill-rule="evenodd" fill-opacity="1" /><path clip-path="url(#clip890)" d="M500.457 812.417 L530.133 812.417 L530.133 816.353 L500.457 816.353 L500.457 812.417 Z" fill="#000000" fill-rule="evenodd" fill-opacity="1" /><path clip-path="url(#clip890)" d="M544.253 825.311 L560.573 825.311 L560.573 829.246 L538.628 829.246 L538.628 825.311 Q541.29 822.556 545.874 817.927 Q550.48 813.274 551.661 811.931 Q553.906 809.408 554.786 807.672 Q555.688 805.913 555.688 804.223 Q555.688 801.468 553.744 799.732 Q551.823 797.996 548.721 797.996 Q546.522 797.996 544.068 798.76 Q541.638 799.524 538.86 801.075 L538.86 796.353 Q541.684 795.218 544.138 794.64 Q546.591 794.061 548.628 794.061 Q553.999 794.061 557.193 796.746 Q560.388 799.431 560.388 803.922 Q560.388 806.052 559.577 807.973 Q558.79 809.871 556.684 812.464 Q556.105 813.135 553.003 816.353 Q549.901 819.547 544.253 825.311 Z" fill="#000000" fill-rule="evenodd" fill-opacity="1" /><path clip-path="url(#clip890)" d="M860.073 812.417 L889.749 812.417 L889.749 816.353 L860.073 816.353 L860.073 812.417 Z" fill="#000000" fill-rule="evenodd" fill-opacity="1" /><path clip-path="url(#clip890)" d="M900.652 825.311 L908.29 825.311 L908.29 798.945 L899.98 800.612 L899.98 796.353 L908.244 794.686 L912.92 794.686 L912.92 825.311 L920.559 825.311 L920.559 829.246 L900.652 829.246 L900.652 825.311 Z" fill="#000000" fill-rule="evenodd" fill-opacity="1" /><path clip-path="url(#clip890)" d="M1600.3 825.311 L1607.94 825.311 L1607.94 798.945 L1599.63 800.612 L1599.63 796.353 L1607.89 794.686 L1612.57 794.686 L1612.57 825.311 L1620.21 825.311 L1620.21 829.246 L1600.3 829.246 L1600.3 825.311 Z" fill="#000000" fill-rule="evenodd" fill-opacity="1" /><path clip-path="url(#clip890)" d="M1964.37 825.311 L1980.69 825.311 L1980.69 829.246 L1958.75 829.246 L1958.75 825.311 Q1961.41 822.556 1965.99 817.927 Q1970.6 813.274 1971.78 811.931 Q1974.02 809.408 1974.9 807.672 Q1975.81 805.913 1975.81 804.223 Q1975.81 801.468 1973.86 799.732 Q1971.94 797.996 1968.84 797.996 Q1966.64 797.996 1964.19 798.76 Q1961.76 799.524 1958.98 801.075 L1958.98 796.353 Q1961.8 795.218 1964.26 794.64 Q1966.71 794.061 1968.75 794.061 Q1974.12 794.061 1977.31 796.746 Q1980.51 799.431 1980.51 803.922 Q1980.51 806.052 1979.7 807.973 Q1978.91 809.871 1976.8 812.464 Q1976.22 813.135 1973.12 816.353 Q1970.02 819.547 1964.37 825.311 Z" fill="#000000" fill-rule="evenodd" fill-opacity="1" /><path clip-path="url(#clip890)" d="M2333.77 810.612 Q2337.12 811.329 2339 813.598 Q2340.9 815.866 2340.9 819.2 Q2340.9 824.315 2337.38 827.116 Q2333.86 829.917 2327.38 829.917 Q2325.2 829.917 2322.89 829.477 Q2320.6 829.061 2318.14 828.204 L2318.14 823.69 Q2320.09 824.825 2322.4 825.403 Q2324.72 825.982 2327.24 825.982 Q2331.64 825.982 2333.93 824.246 Q2336.24 822.51 2336.24 819.2 Q2336.24 816.144 2334.09 814.431 Q2331.96 812.695 2328.14 812.695 L2324.11 812.695 L2324.11 808.853 L2328.33 808.853 Q2331.78 808.853 2333.61 807.487 Q2335.43 806.098 2335.43 803.505 Q2335.43 800.843 2333.54 799.431 Q2331.66 797.996 2328.14 797.996 Q2326.22 797.996 2324.02 798.413 Q2321.82 798.829 2319.18 799.709 L2319.18 795.542 Q2321.85 794.802 2324.16 794.431 Q2326.5 794.061 2328.56 794.061 Q2333.88 794.061 2336.98 796.492 Q2340.09 798.899 2340.09 803.019 Q2340.09 805.89 2338.44 807.88 Q2336.8 809.848 2333.77 810.612 Z" fill="#000000" fill-rule="evenodd" fill-opacity="1" /><polyline clip-path="url(#clip892)" style="stroke:#000000; stroke-linecap:round; stroke-linejoin:round; stroke-width:2; stroke-opacity:0.1; fill:none" points="
  170.714,1486.45 2329.52,1486.45 
  "/>
<polyline clip-path="url(#clip892)" style="stroke:#000000; stroke-linecap:round; stroke-linejoin:round; stroke-width:2; stroke-opacity:0.1; fill:none" points="
  170.714,1126.65 2329.52,1126.65 
  "/>
<polyline clip-path="url(#clip892)" style="stroke:#000000; stroke-linecap:round; stroke-linejoin:round; stroke-width:2; stroke-opacity:0.1; fill:none" points="
  170.714,407.045 2329.52,407.045 
  "/>
<polyline clip-path="url(#clip892)" style="stroke:#000000; stroke-linecap:round; stroke-linejoin:round; stroke-width:2; stroke-opacity:0.1; fill:none" points="
  170.714,47.2441 2329.52,47.2441 
  "/>
<polyline clip-path="url(#clip890)" style="stroke:#000000; stroke-linecap:round; stroke-linejoin:round; stroke-width:4; stroke-opacity:1; fill:none" points="
  1250.12,1486.45 1250.12,47.2441 
  "/>
<polyline clip-path="url(#clip890)" style="stroke:#000000; stroke-linecap:round; stroke-linejoin:round; stroke-width:4; stroke-opacity:1; fill:none" points="
  1231.62,1486.45 1268.62,1486.45 
  "/>
<polyline clip-path="url(#clip890)" style="stroke:#000000; stroke-linecap:round; stroke-linejoin:round; stroke-width:4; stroke-opacity:1; fill:none" points="
  1231.62,1126.65 1268.62,1126.65 
  "/>
<polyline clip-path="url(#clip890)" style="stroke:#000000; stroke-linecap:round; stroke-linejoin:round; stroke-width:4; stroke-opacity:1; fill:none" points="
  1231.62,407.045 1268.62,407.045 
  "/>
<polyline clip-path="url(#clip890)" style="stroke:#000000; stroke-linecap:round; stroke-linejoin:round; stroke-width:4; stroke-opacity:1; fill:none" points="
  1231.62,47.2441 1268.62,47.2441 
  "/>
<path clip-path="url(#clip890)" d="M1154 1486.9 L1183.68 1486.9 L1183.68 1490.83 L1154 1490.83 L1154 1486.9 Z" fill="#000000" fill-rule="evenodd" fill-opacity="1" /><path clip-path="url(#clip890)" d="M1197.8 1499.79 L1214.12 1499.79 L1214.12 1503.73 L1192.17 1503.73 L1192.17 1499.79 Q1194.83 1497.04 1199.42 1492.41 Q1204.02 1487.76 1205.2 1486.41 Q1207.45 1483.89 1208.33 1482.15 Q1209.23 1480.39 1209.23 1478.7 Q1209.23 1475.95 1207.29 1474.21 Q1205.37 1472.48 1202.27 1472.48 Q1200.07 1472.48 1197.61 1473.24 Q1195.18 1474.01 1192.4 1475.56 L1192.4 1470.83 Q1195.23 1469.7 1197.68 1469.12 Q1200.14 1468.54 1202.17 1468.54 Q1207.54 1468.54 1210.74 1471.23 Q1213.93 1473.91 1213.93 1478.4 Q1213.93 1480.53 1213.12 1482.45 Q1212.33 1484.35 1210.23 1486.95 Q1209.65 1487.62 1206.55 1490.83 Q1203.45 1494.03 1197.8 1499.79 Z" fill="#000000" fill-rule="evenodd" fill-opacity="1" /><path clip-path="url(#clip890)" d="M1153.63 1127.1 L1183.31 1127.1 L1183.31 1131.03 L1153.63 1131.03 L1153.63 1127.1 Z" fill="#000000" fill-rule="evenodd" fill-opacity="1" /><path clip-path="url(#clip890)" d="M1194.21 1139.99 L1201.85 1139.99 L1201.85 1113.63 L1193.54 1115.29 L1193.54 1111.03 L1201.8 1109.37 L1206.48 1109.37 L1206.48 1139.99 L1214.12 1139.99 L1214.12 1143.93 L1194.21 1143.93 L1194.21 1139.99 Z" fill="#000000" fill-rule="evenodd" fill-opacity="1" /><path clip-path="url(#clip890)" d="M1194.21 420.39 L1201.85 420.39 L1201.85 394.024 L1193.54 395.691 L1193.54 391.432 L1201.8 389.765 L1206.48 389.765 L1206.48 420.39 L1214.12 420.39 L1214.12 424.325 L1194.21 424.325 L1194.21 420.39 Z" fill="#000000" fill-rule="evenodd" fill-opacity="1" /><path clip-path="url(#clip890)" d="M1197.8 60.5889 L1214.12 60.5889 L1214.12 64.5241 L1192.17 64.5241 L1192.17 60.5889 Q1194.83 57.8343 1199.42 53.2047 Q1204.02 48.552 1205.2 47.2094 Q1207.45 44.6862 1208.33 42.9501 Q1209.23 41.1909 1209.23 39.5011 Q1209.23 36.7465 1207.29 35.0104 Q1205.37 33.2743 1202.27 33.2743 Q1200.07 33.2743 1197.61 34.0381 Q1195.18 34.802 1192.4 36.3529 L1192.4 31.6308 Q1195.23 30.4965 1197.68 29.9178 Q1200.14 29.3391 1202.17 29.3391 Q1207.54 29.3391 1210.74 32.0243 Q1213.93 34.7094 1213.93 39.2002 Q1213.93 41.3298 1213.12 43.2511 Q1212.33 45.1492 1210.23 47.7418 Q1209.65 48.4131 1206.55 51.6306 Q1203.45 54.8251 1197.8 60.5889 Z" fill="#000000" fill-rule="evenodd" fill-opacity="1" /><polyline clip-path="url(#clip892)" style="stroke:#0000ff; stroke-linecap:round; stroke-linejoin:round; stroke-width:4; stroke-opacity:1; fill:none" points="
  1250.12,766.846 1969.72,766.846 
  "/>
<polyline clip-path="url(#clip892)" style="stroke:#0000ff; stroke-linecap:round; stroke-linejoin:round; stroke-width:4; stroke-opacity:1; fill:none" points="
  1933.72,748.846 1969.72,766.846 1933.72,784.846 
  "/>
<polyline clip-path="url(#clip892)" style="stroke:#0000ff; stroke-linecap:round; stroke-linejoin:round; stroke-width:4; stroke-opacity:1; fill:none" points="
  1969.72,766.846 1250.12,766.846 
  "/>
<polyline clip-path="url(#clip892)" style="stroke:#0000ff; stroke-linecap:round; stroke-linejoin:round; stroke-width:4; stroke-opacity:1; fill:none" points="
  1969.72,766.846 1969.72,407.045 
  "/>
<polyline clip-path="url(#clip892)" style="stroke:#0000ff; stroke-linecap:round; stroke-linejoin:round; stroke-width:4; stroke-opacity:1; fill:none" points="
  1951.72,443.045 1969.72,407.045 1987.72,443.045 
  "/>
<polyline clip-path="url(#clip892)" style="stroke:#0000ff; stroke-linecap:round; stroke-linejoin:round; stroke-width:4; stroke-opacity:1; fill:none" points="
  1969.72,407.045 1969.72,766.846 
  "/>
<path clip-path="url(#clip890)" d="M1936.25 288.332 Q1936.25 290.627 1934.82 291.939 Q1933.38 293.21 1931.75 293.21 Q1930.19 293.21 1929.37 292.308 Q1928.55 291.406 1928.55 290.259 Q1928.55 288.701 1929.7 287.348 Q1930.84 285.996 1932.57 285.709 Q1930.88 284.643 1928.38 284.643 Q1926.74 284.643 1925.31 285.504 Q1923.92 286.365 1923.06 287.471 Q1922.24 288.578 1921.5 290.177 Q1920.8 291.734 1920.51 292.677 Q1920.27 293.579 1920.06 294.562 L1917.19 306.039 Q1915.8 311.491 1915.8 313.418 Q1915.8 315.795 1916.95 317.393 Q1918.1 318.951 1920.39 318.951 Q1921.29 318.951 1922.32 318.705 Q1923.34 318.418 1924.65 317.68 Q1926.01 316.902 1927.2 315.754 Q1928.43 314.565 1929.61 312.557 Q1930.8 310.548 1931.58 307.966 Q1931.83 307.064 1932.65 307.064 Q1933.67 307.064 1933.67 307.884 Q1933.67 308.581 1933.1 310.056 Q1932.57 311.491 1931.38 313.377 Q1930.23 315.221 1928.71 316.902 Q1927.2 318.541 1924.94 319.689 Q1922.69 320.837 1920.23 320.837 Q1916.7 320.837 1914.37 318.951 Q1912.03 317.066 1911.17 314.442 Q1910.96 314.811 1910.68 315.303 Q1910.39 315.795 1909.53 316.902 Q1908.71 317.967 1907.77 318.787 Q1906.82 319.566 1905.35 320.181 Q1903.91 320.837 1902.36 320.837 Q1900.39 320.837 1898.63 320.263 Q1896.9 319.689 1895.67 318.377 Q1894.45 317.066 1894.45 315.262 Q1894.45 313.254 1895.8 311.86 Q1897.19 310.425 1899.08 310.425 Q1900.27 310.425 1901.21 311.122 Q1902.19 311.819 1902.19 313.336 Q1902.19 315.016 1901.04 316.287 Q1899.9 317.557 1898.26 317.885 Q1899.94 318.951 1902.44 318.951 Q1905.14 318.951 1907.27 316.574 Q1909.41 314.196 1910.43 310.22 Q1912.97 300.67 1913.96 296.407 Q1914.94 292.103 1914.94 290.259 Q1914.94 288.537 1914.49 287.348 Q1914.04 286.16 1913.26 285.627 Q1912.52 285.053 1911.82 284.848 Q1911.17 284.643 1910.43 284.643 Q1909.2 284.643 1907.81 285.135 Q1906.46 285.627 1904.82 286.774 Q1903.22 287.881 1901.7 290.177 Q1900.18 292.472 1899.16 295.628 Q1898.95 296.571 1898.05 296.571 Q1897.07 296.53 1897.07 295.71 Q1897.07 295.013 1897.6 293.579 Q1898.18 292.103 1899.32 290.259 Q1900.51 288.414 1902.03 286.774 Q1903.59 285.094 1905.84 283.946 Q1908.14 282.799 1910.59 282.799 Q1911.7 282.799 1912.77 283.044 Q1913.87 283.249 1915.19 283.864 Q1916.54 284.479 1917.73 285.832 Q1918.92 287.184 1919.65 289.152 Q1920.15 288.209 1920.8 287.307 Q1921.5 286.406 1922.56 285.299 Q1923.67 284.151 1925.19 283.495 Q1926.74 282.799 1928.47 282.799 Q1930.15 282.799 1931.79 283.249 Q1933.43 283.659 1934.82 285.012 Q1936.25 286.324 1936.25 288.332 Z" fill="#000000" fill-rule="evenodd" fill-opacity="1" /><path clip-path="url(#clip890)" d="M1965.27 307.146 Q1965.36 306.121 1966.95 306.121 L2018.4 306.121 Q2020.81 306.121 2020.86 307.064 Q2020.86 308.089 2018.56 308.048 L1967.53 308.048 Q1965.27 308.089 1965.27 307.146 M1965.27 290.75 Q1965.27 289.726 1967.04 289.767 L2018.31 289.767 Q2020.81 289.767 2020.86 290.75 Q2020.86 291.693 2018.72 291.693 L1966.95 291.693 Q1965.27 291.693 1965.27 290.75 Z" fill="#000000" fill-rule="evenodd" fill-opacity="1" /><path clip-path="url(#clip890)" d="M2053.23 298.907 Q2053.23 284.725 2058.52 273.289 Q2060.78 268.493 2063.93 264.476 Q2067.09 260.459 2069.18 258.697 Q2071.27 256.934 2071.84 256.934 Q2072.66 256.934 2072.7 257.754 Q2072.7 258.164 2071.6 259.189 Q2058.07 272.961 2058.11 298.907 Q2058.11 324.935 2071.27 338.175 Q2072.7 339.61 2072.7 340.061 Q2072.7 340.88 2071.84 340.88 Q2071.27 340.88 2069.26 339.2 Q2067.25 337.519 2064.14 333.666 Q2061.02 329.813 2058.77 325.099 Q2053.23 313.663 2053.23 298.907 Z" fill="#000000" fill-rule="evenodd" fill-opacity="1" /><path clip-path="url(#clip890)" d="M2080.76 319.894 Q2080.76 318.377 2080.89 317.926 Q2081.05 317.475 2081.71 316.779 L2097.81 298.825 Q2106.63 288.906 2106.63 280.257 Q2106.63 274.642 2103.68 270.625 Q2100.77 266.608 2095.4 266.608 Q2091.71 266.608 2088.59 268.862 Q2085.48 271.117 2084.04 275.134 Q2084.29 275.052 2085.15 275.052 Q2087.24 275.052 2088.39 276.363 Q2089.58 277.675 2089.58 279.437 Q2089.58 281.692 2088.1 282.799 Q2086.67 283.864 2085.23 283.864 Q2084.66 283.864 2083.88 283.741 Q2083.14 283.618 2081.95 282.471 Q2080.76 281.282 2080.76 279.191 Q2080.76 273.33 2085.19 268.657 Q2089.66 263.984 2096.46 263.984 Q2104.17 263.984 2109.21 268.575 Q2114.29 273.125 2114.29 280.257 Q2114.29 282.758 2113.51 285.053 Q2112.78 287.307 2111.75 289.07 Q2110.77 290.832 2108.06 293.661 Q2105.36 296.489 2103.18 298.497 Q2101.01 300.506 2096.13 304.769 L2087.24 313.418 L2102.36 313.418 Q2109.74 313.418 2110.32 312.762 Q2111.14 311.573 2112.16 305.302 L2114.29 305.302 L2111.91 319.894 L2080.76 319.894 Z" fill="#000000" fill-rule="evenodd" fill-opacity="1" /><path clip-path="url(#clip890)" d="M2123.52 318.541 Q2122.33 317.189 2122.33 315.426 Q2122.33 313.663 2123.48 312.352 Q2124.67 310.999 2126.8 310.999 Q2129.3 310.999 2130.74 313.418 Q2132.17 315.795 2132.17 319.812 Q2132.17 324.157 2130.41 328.174 Q2128.65 332.232 2126.92 334.158 Q2125.2 336.085 2124.51 336.085 Q2123.69 336.085 2123.69 335.183 Q2123.69 334.855 2124.26 334.24 Q2130.29 327.764 2130.33 319.812 Q2130.33 318.541 2130.16 318.541 L2129.96 318.705 Q2128.52 319.894 2126.8 319.894 Q2124.71 319.894 2123.52 318.541 Z" fill="#000000" fill-rule="evenodd" fill-opacity="1" /><path clip-path="url(#clip890)" d="M2158.66 271.977 L2158.66 269.354 Q2168.74 269.354 2173.95 263.984 Q2175.38 263.984 2175.63 264.312 Q2175.88 264.64 2175.88 266.157 L2175.88 313.254 Q2175.88 315.754 2177.11 316.533 Q2178.33 317.311 2183.7 317.311 L2186.37 317.311 L2186.37 319.894 Q2183.42 319.648 2172.76 319.648 Q2162.1 319.648 2159.19 319.894 L2159.19 317.311 L2161.86 317.311 Q2167.14 317.311 2168.42 316.574 Q2169.69 315.795 2169.69 313.254 L2169.69 269.764 Q2165.3 271.977 2158.66 271.977 Z" fill="#000000" fill-rule="evenodd" fill-opacity="1" /><path clip-path="url(#clip890)" d="M2198.89 340.061 Q2198.89 339.651 2199.95 338.626 Q2213.48 324.854 2213.48 298.907 Q2213.48 272.879 2200.48 259.722 Q2198.89 258.205 2198.89 257.754 Q2198.89 256.934 2199.71 256.934 Q2200.28 256.934 2202.29 258.615 Q2204.34 260.295 2207.41 264.148 Q2210.53 268.001 2212.82 272.715 Q2218.36 284.151 2218.36 298.907 Q2218.36 313.09 2213.07 324.526 Q2210.81 329.321 2207.66 333.338 Q2204.5 337.355 2202.41 339.118 Q2200.32 340.88 2199.71 340.88 Q2198.89 340.88 2198.89 340.061 Z" fill="#000000" fill-rule="evenodd" fill-opacity="1" /><path clip-path="url(#clip890)" d="M2237.77 264.148 Q2237.77 262.058 2239.04 261.197 Q2240.32 260.295 2241.67 260.295 Q2243.35 260.295 2244.41 261.32 Q2245.52 262.304 2245.52 264.148 Q2245.52 264.968 2245.44 265.419 L2242.65 290.75 L2240.73 290.75 L2237.86 265.419 Q2237.77 264.968 2237.77 264.148 Z" fill="#000000" fill-rule="evenodd" fill-opacity="1" /></svg>
