<?xml version="1.0" encoding="utf-8"?>
<svg xmlns="http://www.w3.org/2000/svg" xmlns:xlink="http://www.w3.org/1999/xlink" width="600" height="400" viewBox="0 0 2400 1600">
<defs>
  <clipPath id="clip280">
    <rect x="0" y="0" width="2400" height="1600"/>
  </clipPath>
</defs>
<path clip-path="url(#clip280)" d="
M0 1600 L2400 1600 L2400 0 L0 0  Z
  " fill="#ffffff" fill-rule="evenodd" fill-opacity="1"/>
<defs>
  <clipPath id="clip281">
    <rect x="480" y="0" width="1681" height="1600"/>
  </clipPath>
</defs>
<defs>
  <clipPath id="clip282">
    <rect x="227" y="123" width="2045" height="1364"/>
  </clipPath>
</defs>
<path clip-path="url(#clip280)" d="
M273.245 1486.45 L2226.99 1486.45 L2226.99 183.952 L273.245 183.952  Z
  " fill="#ffffff" fill-rule="evenodd" fill-opacity="1"/>
<defs>
  <clipPath id="clip283">
    <rect x="273" y="183" width="1955" height="1303"/>
  </clipPath>
</defs>
<polyline clip-path="url(#clip283)" style="stroke:#000000; stroke-linecap:round; stroke-linejoin:round; stroke-width:2; stroke-opacity:0.1; fill:none" points="
  273.245,1486.45 273.245,183.952 
  "/>
<polyline clip-path="url(#clip283)" style="stroke:#000000; stroke-linecap:round; stroke-linejoin:round; stroke-width:2; stroke-opacity:0.1; fill:none" points="
  598.869,1486.45 598.869,183.952 
  "/>
<polyline clip-path="url(#clip283)" style="stroke:#000000; stroke-linecap:round; stroke-linejoin:round; stroke-width:2; stroke-opacity:0.1; fill:none" points="
  924.493,1486.45 924.493,183.952 
  "/>
<polyline clip-path="url(#clip283)" style="stroke:#000000; stroke-linecap:round; stroke-linejoin:round; stroke-width:2; stroke-opacity:0.1; fill:none" points="
  1575.74,1486.45 1575.74,183.952 
  "/>
<polyline clip-path="url(#clip283)" style="stroke:#000000; stroke-linecap:round; stroke-linejoin:round; stroke-width:2; stroke-opacity:0.1; fill:none" points="
  1901.36,1486.45 1901.36,183.952 
  "/>
<polyline clip-path="url(#clip283)" style="stroke:#000000; stroke-linecap:round; stroke-linejoin:round; stroke-width:2; stroke-opacity:0.1; fill:none" points="
  2226.99,1486.45 2226.99,183.952 
  "/>
<polyline clip-path="url(#clip280)" style="stroke:#000000; stroke-linecap:round; stroke-linejoin:round; stroke-width:4; stroke-opacity:1; fill:none" points="
  273.245,835.2 2226.99,835.2 
  "/>
<polyline clip-path="url(#clip280)" style="stroke:#000000; stroke-linecap:round; stroke-linejoin:round; stroke-width:4; stroke-opacity:1; fill:none" points="
  273.245,854.098 273.245,816.302 
  "/>
<polyline clip-path="url(#clip280)" style="stroke:#000000; stroke-linecap:round; stroke-linejoin:round; stroke-width:4; stroke-opacity:1; fill:none" points="
  598.869,854.098 598.869,816.302 
  "/>
<polyline clip-path="url(#clip280)" style="stroke:#000000; stroke-linecap:round; stroke-linejoin:round; stroke-width:4; stroke-opacity:1; fill:none" points="
  924.493,854.098 924.493,816.302 
  "/>
<polyline clip-path="url(#clip280)" style="stroke:#000000; stroke-linecap:round; stroke-linejoin:round; stroke-width:4; stroke-opacity:1; fill:none" points="
  1575.74,854.098 1575.74,816.302 
  "/>
<polyline clip-path="url(#clip280)" style="stroke:#000000; stroke-linecap:round; stroke-linejoin:round; stroke-width:4; stroke-opacity:1; fill:none" points="
  1901.36,854.098 1901.36,816.302 
  "/>
<polyline clip-path="url(#clip280)" style="stroke:#000000; stroke-linecap:round; stroke-linejoin:round; stroke-width:4; stroke-opacity:1; fill:none" points="
  2226.99,854.098 2226.99,816.302 
  "/>
<path clip-path="url(#clip280)" d="M242.713 880.771 L272.389 880.771 L272.389 884.707 L242.713 884.707 L242.713 880.771 Z" fill="#000000" fill-rule="evenodd" fill-opacity="1" /><path clip-path="url(#clip280)" d="M296.648 878.966 Q300.004 879.683 301.879 881.952 Q303.777 884.22 303.777 887.554 Q303.777 892.669 300.259 895.47 Q296.74 898.271 290.259 898.271 Q288.083 898.271 285.768 897.831 Q283.477 897.415 281.023 896.558 L281.023 892.044 Q282.967 893.179 285.282 893.757 Q287.597 894.336 290.12 894.336 Q294.518 894.336 296.81 892.6 Q299.125 890.864 299.125 887.554 Q299.125 884.498 296.972 882.785 Q294.842 881.049 291.023 881.049 L286.995 881.049 L286.995 877.207 L291.208 877.207 Q294.657 877.207 296.486 875.841 Q298.314 874.452 298.314 871.859 Q298.314 869.197 296.416 867.785 Q294.541 866.35 291.023 866.35 Q289.101 866.35 286.902 866.767 Q284.703 867.183 282.064 868.063 L282.064 863.896 Q284.727 863.156 287.041 862.785 Q289.379 862.415 291.439 862.415 Q296.763 862.415 299.865 864.846 Q302.967 867.253 302.967 871.373 Q302.967 874.244 301.324 876.234 Q299.68 878.202 296.648 878.966 Z" fill="#000000" fill-rule="evenodd" fill-opacity="1" /><path clip-path="url(#clip280)" d="M568.811 880.771 L598.487 880.771 L598.487 884.707 L568.811 884.707 L568.811 880.771 Z" fill="#000000" fill-rule="evenodd" fill-opacity="1" /><path clip-path="url(#clip280)" d="M612.607 893.665 L628.927 893.665 L628.927 897.6 L606.982 897.6 L606.982 893.665 Q609.644 890.91 614.228 886.281 Q618.834 881.628 620.015 880.285 Q622.26 877.762 623.14 876.026 Q624.043 874.267 624.043 872.577 Q624.043 869.822 622.098 868.086 Q620.177 866.35 617.075 866.35 Q614.876 866.35 612.422 867.114 Q609.992 867.878 607.214 869.429 L607.214 864.707 Q610.038 863.572 612.492 862.994 Q614.945 862.415 616.982 862.415 Q622.353 862.415 625.547 865.1 Q628.742 867.785 628.742 872.276 Q628.742 874.406 627.931 876.327 Q627.144 878.225 625.038 880.818 Q624.459 881.489 621.357 884.707 Q618.256 887.901 612.607 893.665 Z" fill="#000000" fill-rule="evenodd" fill-opacity="1" /><path clip-path="url(#clip280)" d="M894.25 880.771 L923.926 880.771 L923.926 884.707 L894.25 884.707 L894.25 880.771 Z" fill="#000000" fill-rule="evenodd" fill-opacity="1" /><path clip-path="url(#clip280)" d="M934.829 893.665 L942.467 893.665 L942.467 867.299 L934.157 868.966 L934.157 864.707 L942.421 863.04 L947.097 863.04 L947.097 893.665 L954.736 893.665 L954.736 897.6 L934.829 897.6 L934.829 893.665 Z" fill="#000000" fill-rule="evenodd" fill-opacity="1" /><path clip-path="url(#clip280)" d="M1566.12 893.665 L1573.76 893.665 L1573.76 867.299 L1565.45 868.966 L1565.45 864.707 L1573.72 863.04 L1578.39 863.04 L1578.39 893.665 L1586.03 893.665 L1586.03 897.6 L1566.12 897.6 L1566.12 893.665 Z" fill="#000000" fill-rule="evenodd" fill-opacity="1" /><path clip-path="url(#clip280)" d="M1896.02 893.665 L1912.34 893.665 L1912.34 897.6 L1890.39 897.6 L1890.39 893.665 Q1893.05 890.91 1897.64 886.281 Q1902.24 881.628 1903.42 880.285 Q1905.67 877.762 1906.55 876.026 Q1907.45 874.267 1907.45 872.577 Q1907.45 869.822 1905.51 868.086 Q1903.59 866.35 1900.49 866.35 Q1898.29 866.35 1895.83 867.114 Q1893.4 867.878 1890.62 869.429 L1890.62 864.707 Q1893.45 863.572 1895.9 862.994 Q1898.36 862.415 1900.39 862.415 Q1905.76 862.415 1908.96 865.1 Q1912.15 867.785 1912.15 872.276 Q1912.15 874.406 1911.34 876.327 Q1910.55 878.225 1908.45 880.818 Q1907.87 881.489 1904.77 884.707 Q1901.67 887.901 1896.02 893.665 Z" fill="#000000" fill-rule="evenodd" fill-opacity="1" /><path clip-path="url(#clip280)" d="M2231.24 878.966 Q2234.59 879.683 2236.47 881.952 Q2238.37 884.22 2238.37 887.554 Q2238.37 892.669 2234.85 895.47 Q2231.33 898.271 2224.85 898.271 Q2222.67 898.271 2220.36 897.831 Q2218.07 897.415 2215.61 896.558 L2215.61 892.044 Q2217.56 893.179 2219.87 893.757 Q2222.19 894.336 2224.71 894.336 Q2229.11 894.336 2231.4 892.6 Q2233.71 890.864 2233.71 887.554 Q2233.71 884.498 2231.56 882.785 Q2229.43 881.049 2225.61 881.049 L2221.58 881.049 L2221.58 877.207 L2225.8 877.207 Q2229.25 877.207 2231.07 875.841 Q2232.9 874.452 2232.9 871.859 Q2232.9 869.197 2231 867.785 Q2229.13 866.35 2225.61 866.35 Q2223.69 866.35 2221.49 866.767 Q2219.29 867.183 2216.65 868.063 L2216.65 863.896 Q2219.32 863.156 2221.63 862.785 Q2223.97 862.415 2226.03 862.415 Q2231.35 862.415 2234.45 864.846 Q2237.56 867.253 2237.56 871.373 Q2237.56 874.244 2235.91 876.234 Q2234.27 878.202 2231.24 878.966 Z" fill="#000000" fill-rule="evenodd" fill-opacity="1" /><polyline clip-path="url(#clip283)" style="stroke:#000000; stroke-linecap:round; stroke-linejoin:round; stroke-width:2; stroke-opacity:0.1; fill:none" points="
  273.245,1486.45 2226.99,1486.45 
  "/>
<polyline clip-path="url(#clip283)" style="stroke:#000000; stroke-linecap:round; stroke-linejoin:round; stroke-width:2; stroke-opacity:0.1; fill:none" points="
  273.245,1160.82 2226.99,1160.82 
  "/>
<polyline clip-path="url(#clip283)" style="stroke:#000000; stroke-linecap:round; stroke-linejoin:round; stroke-width:2; stroke-opacity:0.1; fill:none" points="
  273.245,509.576 2226.99,509.576 
  "/>
<polyline clip-path="url(#clip283)" style="stroke:#000000; stroke-linecap:round; stroke-linejoin:round; stroke-width:2; stroke-opacity:0.1; fill:none" points="
  273.245,183.952 2226.99,183.952 
  "/>
<polyline clip-path="url(#clip280)" style="stroke:#000000; stroke-linecap:round; stroke-linejoin:round; stroke-width:4; stroke-opacity:1; fill:none" points="
  1250.12,1486.45 1250.12,183.952 
  "/>
<polyline clip-path="url(#clip280)" style="stroke:#000000; stroke-linecap:round; stroke-linejoin:round; stroke-width:4; stroke-opacity:1; fill:none" points="
  1233.37,1486.45 1266.86,1486.45 
  "/>
<polyline clip-path="url(#clip280)" style="stroke:#000000; stroke-linecap:round; stroke-linejoin:round; stroke-width:4; stroke-opacity:1; fill:none" points="
  1233.37,1160.82 1266.86,1160.82 
  "/>
<polyline clip-path="url(#clip280)" style="stroke:#000000; stroke-linecap:round; stroke-linejoin:round; stroke-width:4; stroke-opacity:1; fill:none" points="
  1233.37,509.576 1266.86,509.576 
  "/>
<polyline clip-path="url(#clip280)" style="stroke:#000000; stroke-linecap:round; stroke-linejoin:round; stroke-width:4; stroke-opacity:1; fill:none" points="
  1233.37,183.952 1266.86,183.952 
  "/>
<path clip-path="url(#clip280)" d="M1154 1486.9 L1183.68 1486.9 L1183.68 1490.83 L1154 1490.83 L1154 1486.9 Z" fill="#000000" fill-rule="evenodd" fill-opacity="1" /><path clip-path="url(#clip280)" d="M1197.8 1499.79 L1214.12 1499.79 L1214.12 1503.73 L1192.17 1503.73 L1192.17 1499.79 Q1194.83 1497.04 1199.42 1492.41 Q1204.02 1487.76 1205.2 1486.41 Q1207.45 1483.89 1208.33 1482.15 Q1209.23 1480.39 1209.23 1478.7 Q1209.23 1475.95 1207.29 1474.21 Q1205.37 1472.48 1202.27 1472.48 Q1200.07 1472.48 1197.61 1473.24 Q1195.18 1474.01 1192.4 1475.56 L1192.4 1470.83 Q1195.23 1469.7 1197.68 1469.12 Q1200.14 1468.54 1202.17 1468.54 Q1207.54 1468.54 1210.74 1471.23 Q1213.93 1473.91 1213.93 1478.4 Q1213.93 1480.53 1213.12 1482.45 Q1212.33 1484.35 1210.23 1486.95 Q1209.65 1487.62 1206.55 1490.83 Q1203.45 1494.03 1197.8 1499.79 Z" fill="#000000" fill-rule="evenodd" fill-opacity="1" /><path clip-path="url(#clip280)" d="M1153.63 1161.28 L1183.31 1161.28 L1183.31 1165.21 L1153.63 1165.21 L1153.63 1161.28 Z" fill="#000000" fill-rule="evenodd" fill-opacity="1" /><path clip-path="url(#clip280)" d="M1194.21 1174.17 L1201.85 1174.17 L1201.85 1147.8 L1193.54 1149.47 L1193.54 1145.21 L1201.8 1143.54 L1206.48 1143.54 L1206.48 1174.17 L1214.12 1174.17 L1214.12 1178.1 L1194.21 1178.1 L1194.21 1174.17 Z" fill="#000000" fill-rule="evenodd" fill-opacity="1" /><path clip-path="url(#clip280)" d="M1194.21 522.921 L1201.85 522.921 L1201.85 496.555 L1193.54 498.222 L1193.54 493.963 L1201.8 492.296 L1206.48 492.296 L1206.48 522.921 L1214.12 522.921 L1214.12 526.856 L1194.21 526.856 L1194.21 522.921 Z" fill="#000000" fill-rule="evenodd" fill-opacity="1" /><path clip-path="url(#clip280)" d="M1197.8 197.297 L1214.12 197.297 L1214.12 201.232 L1192.17 201.232 L1192.17 197.297 Q1194.83 194.542 1199.42 189.913 Q1204.02 185.26 1205.2 183.917 Q1207.45 181.394 1208.33 179.658 Q1209.23 177.899 1209.23 176.209 Q1209.23 173.454 1207.29 171.718 Q1205.37 169.982 1202.27 169.982 Q1200.07 169.982 1197.61 170.746 Q1195.18 171.51 1192.4 173.061 L1192.4 168.339 Q1195.23 167.205 1197.68 166.626 Q1200.14 166.047 1202.17 166.047 Q1207.54 166.047 1210.74 168.732 Q1213.93 171.417 1213.93 175.908 Q1213.93 178.038 1213.12 179.959 Q1212.33 181.857 1210.23 184.45 Q1209.65 185.121 1206.55 188.339 Q1203.45 191.533 1197.8 197.297 Z" fill="#000000" fill-rule="evenodd" fill-opacity="1" /><path clip-path="url(#clip280)" d="M666.493 49.8407 Q666.493 52.1361 665.059 53.4477 Q663.624 54.7184 661.985 54.7184 Q660.427 54.7184 659.607 53.8167 Q658.787 52.9149 658.787 51.7672 Q658.787 50.2096 659.935 48.857 Q661.083 47.5043 662.804 47.2174 Q661.124 46.1517 658.623 46.1517 Q656.984 46.1517 655.549 47.0124 Q654.156 47.8732 653.295 48.9799 Q652.475 50.0866 651.737 51.6852 Q651.04 53.2428 650.753 54.1856 Q650.508 55.0873 650.303 56.0711 L647.433 67.5481 Q646.04 72.9996 646.04 74.9261 Q646.04 77.3035 647.187 78.9021 Q648.335 80.4597 650.631 80.4597 Q651.532 80.4597 652.557 80.2137 Q653.582 79.9268 654.893 79.189 Q656.246 78.4102 657.435 77.2625 Q658.664 76.0738 659.853 74.0654 Q661.042 72.0569 661.821 69.4746 Q662.067 68.5728 662.886 68.5728 Q663.911 68.5728 663.911 69.3926 Q663.911 70.0894 663.337 71.565 Q662.804 72.9996 661.616 74.8851 Q660.468 76.7297 658.951 78.4102 Q657.435 80.0498 655.18 81.1975 Q652.926 82.3452 650.467 82.3452 Q646.941 82.3452 644.605 80.4597 Q642.269 78.5742 641.408 75.9509 Q641.203 76.3198 640.916 76.8116 Q640.629 77.3035 639.768 78.4102 Q638.949 79.4759 638.006 80.2957 Q637.063 81.0745 635.587 81.6894 Q634.153 82.3452 632.595 82.3452 Q630.628 82.3452 628.865 81.7713 Q627.144 81.1975 625.914 79.8858 Q624.684 78.5742 624.684 76.7706 Q624.684 74.7622 626.037 73.3685 Q627.431 71.9339 629.316 71.9339 Q630.505 71.9339 631.448 72.6307 Q632.431 73.3275 632.431 74.8442 Q632.431 76.5247 631.284 77.7954 Q630.136 79.066 628.496 79.394 Q630.177 80.4597 632.677 80.4597 Q635.383 80.4597 637.514 78.0823 Q639.645 75.7049 640.67 71.729 Q643.211 62.1785 644.195 57.9156 Q645.179 53.6117 645.179 51.7672 Q645.179 50.0456 644.728 48.857 Q644.277 47.6683 643.498 47.1354 Q642.761 46.5616 642.064 46.3566 Q641.408 46.1517 640.67 46.1517 Q639.44 46.1517 638.047 46.6435 Q636.694 47.1354 635.055 48.2831 Q633.456 49.3898 631.939 51.6852 Q630.423 53.9806 629.398 57.1368 Q629.193 58.0795 628.291 58.0795 Q627.308 58.0385 627.308 57.2188 Q627.308 56.5219 627.84 55.0873 Q628.414 53.6117 629.562 51.7672 Q630.751 49.9227 632.267 48.2831 Q633.825 46.6025 636.079 45.4548 Q638.375 44.3071 640.834 44.3071 Q641.941 44.3071 643.007 44.5531 Q644.113 44.758 645.425 45.3729 Q646.778 45.9877 647.966 47.3403 Q649.155 48.693 649.893 50.6605 Q650.385 49.7177 651.04 48.816 Q651.737 47.9142 652.803 46.8075 Q653.91 45.6598 655.426 45.004 Q656.984 44.3071 658.705 44.3071 Q660.386 44.3071 662.026 44.758 Q663.665 45.1679 665.059 46.5206 Q666.493 47.8322 666.493 49.8407 Z" fill="#000000" fill-rule="evenodd" fill-opacity="1" /><path clip-path="url(#clip280)" d="M727.031 58.5958 Q717.997 58.5958 714.514 60.6618 Q711.03 62.7278 711.03 67.7104 Q711.03 71.6803 713.622 74.0298 Q716.256 76.3388 720.752 76.3388 Q726.95 76.3388 730.677 71.9638 Q734.444 67.5483 734.444 60.2567 L734.444 58.5958 L727.031 58.5958 M741.898 55.5172 L741.898 81.4024 L734.444 81.4024 L734.444 74.5159 Q731.892 78.6478 728.084 80.6328 Q724.276 82.5772 718.767 82.5772 Q711.8 82.5772 707.668 78.6883 Q703.576 74.759 703.576 68.1965 Q703.576 60.5403 708.68 56.6514 Q713.825 52.7625 723.993 52.7625 L734.444 52.7625 L734.444 52.0334 Q734.444 46.8887 731.041 44.0936 Q727.679 41.258 721.562 41.258 Q717.673 41.258 713.987 42.1897 Q710.301 43.1214 706.898 44.9848 L706.898 38.0983 Q710.989 36.5184 714.838 35.7487 Q718.686 34.9386 722.332 34.9386 Q732.176 34.9386 737.037 40.0427 Q741.898 45.1468 741.898 55.5172 Z" fill="#000000" fill-rule="evenodd" fill-opacity="1" /><path clip-path="url(#clip280)" d="M794.965 54.0183 L794.965 81.4024 L787.511 81.4024 L787.511 54.2614 Q787.511 47.8204 784.999 44.6202 Q782.488 41.42 777.465 41.42 Q771.429 41.42 767.945 45.2684 Q764.461 49.1167 764.461 55.7602 L764.461 81.4024 L756.967 81.4024 L756.967 36.0323 L764.461 36.0323 L764.461 43.0809 Q767.135 38.9895 770.74 36.964 Q774.386 34.9386 779.126 34.9386 Q786.944 34.9386 790.954 39.7997 Q794.965 44.6202 794.965 54.0183 Z" fill="#000000" fill-rule="evenodd" fill-opacity="1" /><path clip-path="url(#clip280)" d="M839.687 42.9188 L839.687 18.3704 L847.14 18.3704 L847.14 81.4024 L839.687 81.4024 L839.687 74.5969 Q837.337 78.6478 833.732 80.6328 Q830.167 82.5772 825.144 82.5772 Q816.921 82.5772 811.735 76.0147 Q806.591 69.4523 806.591 58.7579 Q806.591 48.0635 811.735 41.501 Q816.921 34.9386 825.144 34.9386 Q830.167 34.9386 833.732 36.9235 Q837.337 38.8679 839.687 42.9188 M814.287 58.7579 Q814.287 66.9812 817.65 71.6803 Q821.052 76.3388 826.967 76.3388 Q832.881 76.3388 836.284 71.6803 Q839.687 66.9812 839.687 58.7579 Q839.687 50.5345 836.284 45.876 Q832.881 41.177 826.967 41.177 Q821.052 41.177 817.65 45.876 Q814.287 50.5345 814.287 58.7579 Z" fill="#000000" fill-rule="evenodd" fill-opacity="1" /><path clip-path="url(#clip280)" d="M919.781 39.4496 Q919.781 40.0235 919.412 41.3761 L911.378 73.4297 Q909.616 80.5619 903.877 85.5626 Q898.18 90.5632 891.704 90.5632 Q887.81 90.5632 885.309 88.4728 Q882.809 86.4233 882.809 83.2672 Q882.809 80.4799 884.284 79.1272 Q885.76 77.8156 887.523 77.8156 Q888.096 77.8156 888.711 77.9795 Q889.326 78.1435 889.982 78.8403 Q890.638 79.5371 890.638 80.7258 Q890.638 82.6523 888.957 84.1689 Q888.137 84.8657 887.359 85.0297 Q886.621 85.1937 885.35 85.1937 Q885.842 86.3414 886.744 87.1201 Q887.646 87.8989 888.67 88.1859 Q889.695 88.5138 890.351 88.5958 Q891.048 88.7187 891.704 88.7187 Q896.95 88.7187 900.967 83.4311 Q902.156 81.8325 903.017 80.2339 Q903.918 78.6764 904.574 76.7499 Q905.23 74.8644 905.517 73.8396 Q905.845 72.8149 906.419 70.4785 Q902.607 74.2905 897.934 74.2905 Q895.966 74.2905 894.204 73.7576 Q892.482 73.2248 890.966 72.1181 Q889.449 70.9704 888.547 68.9619 Q887.687 66.9534 887.687 64.2891 Q887.687 61.4609 888.793 57.6079 Q889.9 53.7549 892.564 46.6637 Q893.999 42.6878 893.999 40.7613 Q893.999 39.8185 893.794 39.2447 Q893.589 38.6298 893.179 38.4249 Q892.769 38.1789 892.523 38.138 Q892.318 38.097 891.908 38.097 Q889.49 38.097 887.236 40.5563 Q884.981 43.0157 883.424 48.5082 Q883.096 49.533 882.891 49.7789 Q882.686 50.0249 882.071 50.0249 Q881.046 49.9839 881.046 49.1641 Q881.046 48.8362 881.415 47.5655 Q881.784 46.2538 882.645 44.3273 Q883.547 42.3599 884.776 40.5973 Q886.006 38.7938 887.933 37.5231 Q889.9 36.2525 892.154 36.2525 Q895.229 36.2525 897.114 38.2609 Q899.041 40.2284 899.041 43.1387 Q899.041 44.3273 898.713 45.3931 Q898.426 46.4178 897.36 49.1641 Q893.056 60.2312 893.056 65.6418 Q893.056 66.9534 893.261 68.0601 Q893.507 69.1259 894.04 70.1916 Q894.573 71.2163 895.639 71.8311 Q896.745 72.405 898.262 72.405 Q900.188 72.405 901.992 71.5032 Q903.836 70.5605 904.984 69.2898 Q906.173 68.0191 906.87 66.9534 Q907.607 65.8467 907.771 65.2729 L911.542 50.1888 L913.223 43.4666 Q914.002 39.8185 914.371 38.9168 Q914.862 38.056 915.723 37.6051 Q916.584 37.1542 917.322 37.1542 Q918.347 37.1542 919.043 37.7691 Q919.781 38.3839 919.781 39.4496 Z" fill="#000000" fill-rule="evenodd" fill-opacity="1" /><path clip-path="url(#clip280)" d="M991.278 44.7418 Q994.073 39.7186 997.962 37.3286 Q1001.85 34.9386 1007.12 34.9386 Q1014.21 34.9386 1018.05 39.9212 Q1021.9 44.8633 1021.9 54.0183 L1021.9 81.4024 L1014.41 81.4024 L1014.41 54.2614 Q1014.41 47.7394 1012.1 44.5797 Q1009.79 41.42 1005.05 41.42 Q999.258 41.42 995.896 45.2684 Q992.533 49.1167 992.533 55.7602 L992.533 81.4024 L985.039 81.4024 L985.039 54.2614 Q985.039 47.6989 982.73 44.5797 Q980.421 41.42 975.601 41.42 Q969.889 41.42 966.527 45.3089 Q963.164 49.1572 963.164 55.7602 L963.164 81.4024 L955.67 81.4024 L955.67 36.0323 L963.164 36.0323 L963.164 43.0809 Q965.716 38.9085 969.281 36.9235 Q972.846 34.9386 977.748 34.9386 Q982.69 34.9386 986.133 37.4501 Q989.617 39.9617 991.278 44.7418 Z" fill="#000000" fill-rule="evenodd" fill-opacity="1" /><path clip-path="url(#clip280)" d="M1057.39 58.5958 Q1048.35 58.5958 1044.87 60.6618 Q1041.39 62.7278 1041.39 67.7104 Q1041.39 71.6803 1043.98 74.0298 Q1046.61 76.3388 1051.11 76.3388 Q1057.31 76.3388 1061.03 71.9638 Q1064.8 67.5483 1064.8 60.2567 L1064.8 58.5958 L1057.39 58.5958 M1072.26 55.5172 L1072.26 81.4024 L1064.8 81.4024 L1064.8 74.5159 Q1062.25 78.6478 1058.44 80.6328 Q1054.63 82.5772 1049.12 82.5772 Q1042.16 82.5772 1038.03 78.6883 Q1033.93 74.759 1033.93 68.1965 Q1033.93 60.5403 1039.04 56.6514 Q1044.18 52.7625 1054.35 52.7625 L1064.8 52.7625 L1064.8 52.0334 Q1064.8 46.8887 1061.4 44.0936 Q1058.04 41.258 1051.92 41.258 Q1048.03 41.258 1044.34 42.1897 Q1040.66 43.1214 1037.26 44.9848 L1037.26 38.0983 Q1041.35 36.5184 1045.2 35.7487 Q1049.04 34.9386 1052.69 34.9386 Q1062.53 34.9386 1067.39 40.0427 Q1072.26 45.1468 1072.26 55.5172 Z" fill="#000000" fill-rule="evenodd" fill-opacity="1" /><path clip-path="url(#clip280)" d="M1087.32 18.3704 L1094.82 18.3704 L1094.82 55.5982 L1117.06 36.0323 L1126.58 36.0323 L1102.52 57.259 L1127.59 81.4024 L1117.87 81.4024 L1094.82 59.244 L1094.82 81.4024 L1087.32 81.4024 L1087.32 18.3704 Z" fill="#000000" fill-rule="evenodd" fill-opacity="1" /><path clip-path="url(#clip280)" d="M1171.5 56.854 L1171.5 60.4998 L1137.23 60.4998 Q1137.72 68.1965 1141.85 72.2474 Q1146.02 76.2578 1153.44 76.2578 Q1157.73 76.2578 1161.74 75.2046 Q1165.79 74.1513 1169.76 72.0448 L1169.76 79.0934 Q1165.75 80.7948 1161.54 81.686 Q1157.32 82.5772 1152.99 82.5772 Q1142.13 82.5772 1135.77 76.2578 Q1129.45 69.9384 1129.45 59.163 Q1129.45 48.023 1135.45 41.501 Q1141.49 34.9386 1151.69 34.9386 Q1160.85 34.9386 1166.16 40.8529 Q1171.5 46.7267 1171.5 56.854 M1164.05 54.6665 Q1163.97 48.5496 1160.61 44.9038 Q1157.28 41.258 1151.77 41.258 Q1145.54 41.258 1141.77 44.7823 Q1138.04 48.3066 1137.47 54.707 L1164.05 54.6665 Z" fill="#000000" fill-rule="evenodd" fill-opacity="1" /><path clip-path="url(#clip280)" d="M1230.73 58.5958 Q1221.69 58.5958 1218.21 60.6618 Q1214.73 62.7278 1214.73 67.7104 Q1214.73 71.6803 1217.32 74.0298 Q1219.95 76.3388 1224.45 76.3388 Q1230.65 76.3388 1234.37 71.9638 Q1238.14 67.5483 1238.14 60.2567 L1238.14 58.5958 L1230.73 58.5958 M1245.59 55.5172 L1245.59 81.4024 L1238.14 81.4024 L1238.14 74.5159 Q1235.59 78.6478 1231.78 80.6328 Q1227.97 82.5772 1222.46 82.5772 Q1215.5 82.5772 1211.36 78.6883 Q1207.27 74.759 1207.27 68.1965 Q1207.27 60.5403 1212.38 56.6514 Q1217.52 52.7625 1227.69 52.7625 L1238.14 52.7625 L1238.14 52.0334 Q1238.14 46.8887 1234.74 44.0936 Q1231.37 41.258 1225.26 41.258 Q1221.37 41.258 1217.68 42.1897 Q1214 43.1214 1210.59 44.9848 L1210.59 38.0983 Q1214.69 36.5184 1218.53 35.7487 Q1222.38 34.9386 1226.03 34.9386 Q1235.87 34.9386 1240.73 40.0427 Q1245.59 45.1468 1245.59 55.5172 Z" fill="#000000" fill-rule="evenodd" fill-opacity="1" /><path clip-path="url(#clip280)" d="M1298.66 54.0183 L1298.66 81.4024 L1291.21 81.4024 L1291.21 54.2614 Q1291.21 47.8204 1288.7 44.6202 Q1286.18 41.42 1281.16 41.42 Q1275.12 41.42 1271.64 45.2684 Q1268.16 49.1167 1268.16 55.7602 L1268.16 81.4024 L1260.66 81.4024 L1260.66 36.0323 L1268.16 36.0323 L1268.16 43.0809 Q1270.83 38.9895 1274.44 36.964 Q1278.08 34.9386 1282.82 34.9386 Q1290.64 34.9386 1294.65 39.7997 Q1298.66 44.6202 1298.66 54.0183 Z" fill="#000000" fill-rule="evenodd" fill-opacity="1" /><path clip-path="url(#clip280)" d="M1360.52 58.5958 Q1351.48 58.5958 1348 60.6618 Q1344.52 62.7278 1344.52 67.7104 Q1344.52 71.6803 1347.11 74.0298 Q1349.74 76.3388 1354.24 76.3388 Q1360.44 76.3388 1364.16 71.9638 Q1367.93 67.5483 1367.93 60.2567 L1367.93 58.5958 L1360.52 58.5958 M1375.38 55.5172 L1375.38 81.4024 L1367.93 81.4024 L1367.93 74.5159 Q1365.38 78.6478 1361.57 80.6328 Q1357.76 82.5772 1352.25 82.5772 Q1345.29 82.5772 1341.15 78.6883 Q1337.06 74.759 1337.06 68.1965 Q1337.06 60.5403 1342.17 56.6514 Q1347.31 52.7625 1357.48 52.7625 L1367.93 52.7625 L1367.93 52.0334 Q1367.93 46.8887 1364.53 44.0936 Q1361.17 41.258 1355.05 41.258 Q1351.16 41.258 1347.47 42.1897 Q1343.79 43.1214 1340.38 44.9848 L1340.38 38.0983 Q1344.48 36.5184 1348.32 35.7487 Q1352.17 34.9386 1355.82 34.9386 Q1365.66 34.9386 1370.52 40.0427 Q1375.38 45.1468 1375.38 55.5172 Z" fill="#000000" fill-rule="evenodd" fill-opacity="1" /><path clip-path="url(#clip280)" d="M1423.39 37.7742 L1423.39 44.7418 Q1420.23 42.9999 1417.03 42.1492 Q1413.87 41.258 1410.63 41.258 Q1403.38 41.258 1399.37 45.876 Q1395.36 50.4535 1395.36 58.7579 Q1395.36 67.0622 1399.37 71.6803 Q1403.38 76.2578 1410.63 76.2578 Q1413.87 76.2578 1417.03 75.4071 Q1420.23 74.5159 1423.39 72.774 L1423.39 79.6605 Q1420.27 81.1189 1416.91 81.848 Q1413.58 82.5772 1409.82 82.5772 Q1399.57 82.5772 1393.53 76.1363 Q1387.5 69.6953 1387.5 58.7579 Q1387.5 47.6584 1393.57 41.2985 Q1399.69 34.9386 1410.3 34.9386 Q1413.75 34.9386 1417.03 35.6677 Q1420.31 36.3564 1423.39 37.7742 Z" fill="#000000" fill-rule="evenodd" fill-opacity="1" /><path clip-path="url(#clip280)" d="M1435.58 63.4974 L1435.58 36.0323 L1443.03 36.0323 L1443.03 63.2139 Q1443.03 69.6548 1445.55 72.8955 Q1448.06 76.0958 1453.08 76.0958 Q1459.12 76.0958 1462.6 72.2474 Q1466.12 68.399 1466.12 61.7556 L1466.12 36.0323 L1473.58 36.0323 L1473.58 81.4024 L1466.12 81.4024 L1466.12 74.4349 Q1463.41 78.5668 1459.81 80.5923 Q1456.24 82.5772 1451.5 82.5772 Q1443.68 82.5772 1439.63 77.7161 Q1435.58 72.855 1435.58 63.4974 M1454.34 34.9386 L1454.34 34.9386 Z" fill="#000000" fill-rule="evenodd" fill-opacity="1" /><path clip-path="url(#clip280)" d="M1496.3 23.1504 L1496.3 36.0323 L1511.66 36.0323 L1511.66 41.8251 L1496.3 41.8251 L1496.3 66.4546 Q1496.3 72.0043 1497.8 73.5842 Q1499.34 75.164 1504 75.164 L1511.66 75.164 L1511.66 81.4024 L1504 81.4024 Q1495.37 81.4024 1492.09 78.2022 Q1488.81 74.9615 1488.81 66.4546 L1488.81 41.8251 L1483.34 41.8251 L1483.34 36.0323 L1488.81 36.0323 L1488.81 23.1504 L1496.3 23.1504 Z" fill="#000000" fill-rule="evenodd" fill-opacity="1" /><path clip-path="url(#clip280)" d="M1560.27 56.854 L1560.27 60.4998 L1526 60.4998 Q1526.48 68.1965 1530.62 72.2474 Q1534.79 76.2578 1542.2 76.2578 Q1546.49 76.2578 1550.5 75.2046 Q1554.56 74.1513 1558.53 72.0448 L1558.53 79.0934 Q1554.52 80.7948 1550.3 81.686 Q1546.09 82.5772 1541.76 82.5772 Q1530.9 82.5772 1524.54 76.2578 Q1518.22 69.9384 1518.22 59.163 Q1518.22 48.023 1524.21 41.501 Q1530.25 34.9386 1540.46 34.9386 Q1549.61 34.9386 1554.92 40.8529 Q1560.27 46.7267 1560.27 56.854 M1552.81 54.6665 Q1552.73 48.5496 1549.37 44.9038 Q1546.05 41.258 1540.54 41.258 Q1534.3 41.258 1530.53 44.7823 Q1526.81 48.3066 1526.24 54.707 L1552.81 54.6665 Z" fill="#000000" fill-rule="evenodd" fill-opacity="1" /><path clip-path="url(#clip280)" d="M1619.49 58.5958 Q1610.46 58.5958 1606.97 60.6618 Q1603.49 62.7278 1603.49 67.7104 Q1603.49 71.6803 1606.08 74.0298 Q1608.72 76.3388 1613.21 76.3388 Q1619.41 76.3388 1623.14 71.9638 Q1626.91 67.5483 1626.91 60.2567 L1626.91 58.5958 L1619.49 58.5958 M1634.36 55.5172 L1634.36 81.4024 L1626.91 81.4024 L1626.91 74.5159 Q1624.35 78.6478 1620.55 80.6328 Q1616.74 82.5772 1611.23 82.5772 Q1604.26 82.5772 1600.13 78.6883 Q1596.04 74.759 1596.04 68.1965 Q1596.04 60.5403 1601.14 56.6514 Q1606.29 52.7625 1616.45 52.7625 L1626.91 52.7625 L1626.91 52.0334 Q1626.91 46.8887 1623.5 44.0936 Q1620.14 41.258 1614.02 41.258 Q1610.13 41.258 1606.45 42.1897 Q1602.76 43.1214 1599.36 44.9848 L1599.36 38.0983 Q1603.45 36.5184 1607.3 35.7487 Q1611.15 34.9386 1614.79 34.9386 Q1624.64 34.9386 1629.5 40.0427 Q1634.36 45.1468 1634.36 55.5172 Z" fill="#000000" fill-rule="evenodd" fill-opacity="1" /><path clip-path="url(#clip280)" d="M1687.43 54.0183 L1687.43 81.4024 L1679.97 81.4024 L1679.97 54.2614 Q1679.97 47.8204 1677.46 44.6202 Q1674.95 41.42 1669.93 41.42 Q1663.89 41.42 1660.41 45.2684 Q1656.92 49.1167 1656.92 55.7602 L1656.92 81.4024 L1649.43 81.4024 L1649.43 36.0323 L1656.92 36.0323 L1656.92 43.0809 Q1659.6 38.9895 1663.2 36.964 Q1666.85 34.9386 1671.59 34.9386 Q1679.4 34.9386 1683.42 39.7997 Q1687.43 44.6202 1687.43 54.0183 Z" fill="#000000" fill-rule="evenodd" fill-opacity="1" /><path clip-path="url(#clip280)" d="M1732.15 58.1908 Q1732.15 50.0889 1728.79 45.633 Q1725.46 41.177 1719.43 41.177 Q1713.43 41.177 1710.07 45.633 Q1706.75 50.0889 1706.75 58.1908 Q1706.75 66.2521 1710.07 70.7081 Q1713.43 75.164 1719.43 75.164 Q1725.46 75.164 1728.79 70.7081 Q1732.15 66.2521 1732.15 58.1908 M1739.6 75.7717 Q1739.6 87.3573 1734.46 92.988 Q1729.31 98.6593 1718.7 98.6593 Q1714.77 98.6593 1711.29 98.0517 Q1707.8 97.4845 1704.52 96.2693 L1704.52 89.0181 Q1707.8 90.8005 1711 91.6512 Q1714.2 92.5019 1717.52 92.5019 Q1724.86 92.5019 1728.5 88.6536 Q1732.15 84.8457 1732.15 77.1085 L1732.15 73.4222 Q1729.84 77.4326 1726.23 79.4175 Q1722.63 81.4024 1717.6 81.4024 Q1709.26 81.4024 1704.16 75.0425 Q1699.05 68.6826 1699.05 58.1908 Q1699.05 47.6584 1704.16 41.2985 Q1709.26 34.9386 1717.6 34.9386 Q1722.63 34.9386 1726.23 36.9235 Q1729.84 38.9085 1732.15 42.9188 L1732.15 36.0323 L1739.6 36.0323 L1739.6 75.7717 Z" fill="#000000" fill-rule="evenodd" fill-opacity="1" /><path clip-path="url(#clip280)" d="M1754.95 18.3704 L1762.41 18.3704 L1762.41 81.4024 L1754.95 81.4024 L1754.95 18.3704 Z" fill="#000000" fill-rule="evenodd" fill-opacity="1" /><path clip-path="url(#clip280)" d="M1816.81 56.854 L1816.81 60.4998 L1782.54 60.4998 Q1783.03 68.1965 1787.16 72.2474 Q1791.33 76.2578 1798.74 76.2578 Q1803.04 76.2578 1807.05 75.2046 Q1811.1 74.1513 1815.07 72.0448 L1815.07 79.0934 Q1811.06 80.7948 1806.85 81.686 Q1802.63 82.5772 1798.3 82.5772 Q1787.44 82.5772 1781.08 76.2578 Q1774.76 69.9384 1774.76 59.163 Q1774.76 48.023 1780.76 41.501 Q1786.79 34.9386 1797 34.9386 Q1806.16 34.9386 1811.46 40.8529 Q1816.81 46.7267 1816.81 56.854 M1809.36 54.6665 Q1809.28 48.5496 1805.91 44.9038 Q1802.59 41.258 1797.08 41.258 Q1790.85 41.258 1787.08 44.7823 Q1783.35 48.3066 1782.78 54.707 L1809.36 54.6665 Z" fill="#000000" fill-rule="evenodd" fill-opacity="1" /><path clip-path="url(#clip280)" d="M1830.95 71.1131 L1839.5 71.1131 L1839.5 81.4024 L1830.95 81.4024 L1830.95 71.1131 M1830.95 38.5034 L1839.5 38.5034 L1839.5 48.7927 L1830.95 48.7927 L1830.95 38.5034 Z" fill="#000000" fill-rule="evenodd" fill-opacity="1" /><path clip-path="url(#clip280)" d="M757.185 148.165 Q757.185 135.827 760.3 129.105 Q764.645 119.104 774.892 119.104 Q777.064 119.104 779.319 119.719 Q781.614 120.292 784.484 122.547 Q787.394 124.801 789.156 128.49 Q792.517 135.622 792.517 148.165 Q792.517 160.421 789.402 167.102 Q784.852 176.858 774.81 176.858 Q771.039 176.858 767.186 174.931 Q763.374 173.005 760.956 168.373 Q757.185 161.446 757.185 148.165 M764.153 147.14 Q764.153 159.806 765.055 164.848 Q766.079 170.299 768.867 172.677 Q771.695 175.013 774.81 175.013 Q778.171 175.013 780.958 172.513 Q783.787 169.971 784.647 164.52 Q785.59 159.15 785.549 147.14 Q785.549 135.458 784.729 130.786 Q783.623 125.334 780.672 123.162 Q777.761 120.948 774.81 120.948 Q773.703 120.948 772.515 121.276 Q771.367 121.604 769.686 122.547 Q768.006 123.49 766.694 125.826 Q765.424 128.162 764.809 131.687 Q764.153 136.237 764.153 147.14 Z" fill="#000000" fill-rule="evenodd" fill-opacity="1" /><path clip-path="url(#clip280)" d="M822.045 154.027 Q822.045 153.371 823.398 152.674 L869.962 131.441 Q871.643 130.622 872.093 130.622 Q872.913 130.622 872.913 131.441 Q872.913 132.097 870.987 133.04 L830.038 151.854 Q827.538 153.043 825.161 154.027 Q827.497 155.051 830.038 156.199 L870.987 175.013 Q872.913 175.833 872.913 176.612 Q872.913 177.431 872.093 177.431 Q871.684 177.431 869.962 176.612 L823.398 155.379 Q822.127 154.846 822.045 154.027 Z" fill="#000000" fill-rule="evenodd" fill-opacity="1" /><path clip-path="url(#clip280)" d="M951.815 143.451 Q951.815 145.747 950.38 147.058 Q948.945 148.329 947.306 148.329 Q945.748 148.329 944.928 147.427 Q944.109 146.526 944.109 145.378 Q944.109 143.82 945.256 142.468 Q946.404 141.115 948.125 140.828 Q946.445 139.762 943.945 139.762 Q942.305 139.762 940.87 140.623 Q939.477 141.484 938.616 142.591 Q937.796 143.697 937.058 145.296 Q936.362 146.853 936.075 147.796 Q935.829 148.698 935.624 149.682 L932.754 161.159 Q931.361 166.61 931.361 168.537 Q931.361 170.914 932.509 172.513 Q933.656 174.07 935.952 174.07 Q936.853 174.07 937.878 173.824 Q938.903 173.537 940.215 172.8 Q941.567 172.021 942.756 170.873 Q943.986 169.684 945.174 167.676 Q946.363 165.668 947.142 163.085 Q947.388 162.183 948.207 162.183 Q949.232 162.183 949.232 163.003 Q949.232 163.7 948.658 165.176 Q948.125 166.61 946.937 168.496 Q945.789 170.34 944.272 172.021 Q942.756 173.66 940.501 174.808 Q938.247 175.956 935.788 175.956 Q932.263 175.956 929.926 174.07 Q927.59 172.185 926.729 169.561 Q926.524 169.93 926.237 170.422 Q925.95 170.914 925.089 172.021 Q924.27 173.087 923.327 173.906 Q922.384 174.685 920.909 175.3 Q919.474 175.956 917.916 175.956 Q915.949 175.956 914.186 175.382 Q912.465 174.808 911.235 173.496 Q910.005 172.185 910.005 170.381 Q910.005 168.373 911.358 166.979 Q912.752 165.545 914.637 165.545 Q915.826 165.545 916.769 166.241 Q917.752 166.938 917.752 168.455 Q917.752 170.135 916.605 171.406 Q915.457 172.677 913.817 173.005 Q915.498 174.07 917.998 174.07 Q920.704 174.07 922.835 171.693 Q924.967 169.316 925.991 165.34 Q928.533 155.789 929.516 151.526 Q930.5 147.222 930.5 145.378 Q930.5 143.656 930.049 142.468 Q929.598 141.279 928.82 140.746 Q928.082 140.172 927.385 139.967 Q926.729 139.762 925.991 139.762 Q924.762 139.762 923.368 140.254 Q922.015 140.746 920.376 141.894 Q918.777 143 917.261 145.296 Q915.744 147.591 914.719 150.747 Q914.514 151.69 913.612 151.69 Q912.629 151.649 912.629 150.829 Q912.629 150.133 913.162 148.698 Q913.735 147.222 914.883 145.378 Q916.072 143.533 917.588 141.894 Q919.146 140.213 921.4 139.065 Q923.696 137.918 926.155 137.918 Q927.262 137.918 928.328 138.164 Q929.434 138.369 930.746 138.983 Q932.099 139.598 933.287 140.951 Q934.476 142.304 935.214 144.271 Q935.706 143.328 936.362 142.427 Q937.058 141.525 938.124 140.418 Q939.231 139.27 940.747 138.615 Q942.305 137.918 944.027 137.918 Q945.707 137.918 947.347 138.369 Q948.986 138.779 950.38 140.131 Q951.815 141.443 951.815 143.451 Z" fill="#000000" fill-rule="evenodd" fill-opacity="1" /><path clip-path="url(#clip280)" d="M964.198 119.268 Q964.198 117.177 965.468 116.316 Q966.739 115.415 968.092 115.415 Q969.772 115.415 970.838 116.439 Q971.945 117.423 971.945 119.268 Q971.945 120.087 971.863 120.538 L969.076 145.87 L967.149 145.87 L964.28 120.538 Q964.198 120.087 964.198 119.268 Z" fill="#000000" fill-rule="evenodd" fill-opacity="1" /><path clip-path="url(#clip280)" d="M1026.03 141.115 Q1026.03 141.689 1025.66 143.041 L1017.63 175.095 Q1015.87 182.227 1010.13 187.228 Q1004.43 192.229 997.954 192.229 Q994.06 192.229 991.56 190.138 Q989.059 188.089 989.059 184.932 Q989.059 182.145 990.535 180.793 Q992.011 179.481 993.773 179.481 Q994.347 179.481 994.962 179.645 Q995.577 179.809 996.233 180.506 Q996.888 181.202 996.888 182.391 Q996.888 184.318 995.208 185.834 Q994.388 186.531 993.609 186.695 Q992.871 186.859 991.601 186.859 Q992.093 188.007 992.994 188.785 Q993.896 189.564 994.921 189.851 Q995.946 190.179 996.601 190.261 Q997.298 190.384 997.954 190.384 Q1003.2 190.384 1007.22 185.096 Q1008.41 183.498 1009.27 181.899 Q1010.17 180.342 1010.82 178.415 Q1011.48 176.53 1011.77 175.505 Q1012.1 174.48 1012.67 172.144 Q1008.86 175.956 1004.18 175.956 Q1002.22 175.956 1000.45 175.423 Q998.733 174.89 997.216 173.783 Q995.7 172.636 994.798 170.627 Q993.937 168.619 993.937 165.954 Q993.937 163.126 995.044 159.273 Q996.151 155.42 998.815 148.329 Q1000.25 144.353 1000.25 142.427 Q1000.25 141.484 1000.04 140.91 Q999.84 140.295 999.43 140.09 Q999.02 139.844 998.774 139.803 Q998.569 139.762 998.159 139.762 Q995.741 139.762 993.486 142.222 Q991.232 144.681 989.674 150.174 Q989.346 151.198 989.141 151.444 Q988.936 151.69 988.322 151.69 Q987.297 151.649 987.297 150.829 Q987.297 150.501 987.666 149.231 Q988.035 147.919 988.895 145.993 Q989.797 144.025 991.027 142.263 Q992.257 140.459 994.183 139.188 Q996.151 137.918 998.405 137.918 Q1001.48 137.918 1003.36 139.926 Q1005.29 141.894 1005.29 144.804 Q1005.29 145.993 1004.96 147.058 Q1004.68 148.083 1003.61 150.829 Q999.307 161.896 999.307 167.307 Q999.307 168.619 999.512 169.725 Q999.758 170.791 1000.29 171.857 Q1000.82 172.882 1001.89 173.496 Q1003 174.07 1004.51 174.07 Q1006.44 174.07 1008.24 173.169 Q1010.09 172.226 1011.23 170.955 Q1012.42 169.684 1013.12 168.619 Q1013.86 167.512 1014.02 166.938 L1017.79 151.854 L1019.47 145.132 Q1020.25 141.484 1020.62 140.582 Q1021.11 139.721 1021.97 139.27 Q1022.83 138.82 1023.57 138.82 Q1024.6 138.82 1025.29 139.434 Q1026.03 140.049 1026.03 141.115 Z" fill="#000000" fill-rule="evenodd" fill-opacity="1" /><path clip-path="url(#clip280)" d="M1051.31 162.265 Q1051.39 161.241 1052.99 161.241 L1104.43 161.241 Q1106.85 161.241 1106.89 162.183 Q1106.89 163.208 1104.59 163.167 L1053.56 163.167 Q1051.31 163.208 1051.31 162.265 M1051.31 145.87 Q1051.31 144.845 1053.07 144.886 L1104.35 144.886 Q1106.85 144.886 1106.89 145.87 Q1106.89 146.812 1104.76 146.812 L1052.99 146.812 Q1051.31 146.812 1051.31 145.87 Z" fill="#000000" fill-rule="evenodd" fill-opacity="1" /><path clip-path="url(#clip280)" d="M1139.27 127.097 L1139.27 124.473 Q1149.35 124.473 1154.55 119.104 Q1155.99 119.104 1156.23 119.432 Q1156.48 119.76 1156.48 121.276 L1156.48 168.373 Q1156.48 170.873 1157.71 171.652 Q1158.94 172.431 1164.31 172.431 L1166.97 172.431 L1166.97 175.013 Q1164.02 174.767 1153.37 174.767 Q1142.71 174.767 1139.8 175.013 L1139.8 172.431 L1142.46 172.431 Q1147.75 172.431 1149.02 171.693 Q1150.29 170.914 1150.29 168.373 L1150.29 124.883 Q1145.91 127.097 1139.27 127.097 Z" fill="#000000" fill-rule="evenodd" fill-opacity="1" /><path clip-path="url(#clip280)" d="M1173.61 173.66 Q1172.34 172.308 1172.34 170.545 Q1172.34 168.783 1173.61 167.512 Q1174.88 166.2 1176.8 166.2 Q1178.65 166.2 1179.88 167.43 Q1181.15 168.619 1181.15 170.586 Q1181.15 172.513 1179.8 173.783 Q1178.48 175.013 1176.8 175.013 Q1174.88 175.013 1173.61 173.66 Z" fill="#000000" fill-rule="evenodd" fill-opacity="1" /><path clip-path="url(#clip280)" d="M1195.43 162.347 Q1195.43 152.961 1207.53 146.894 Q1202.32 143.369 1201.38 142.345 Q1197.69 138.246 1197.69 133.122 Q1197.69 127.261 1202.12 123.203 Q1206.58 119.104 1212.9 119.104 Q1218.92 119.104 1223.47 122.588 Q1228.02 126.072 1228.02 131.605 Q1228.02 139.393 1217.86 144.64 Q1224.58 148.821 1226.18 150.583 Q1230.28 155.133 1230.28 160.913 Q1230.28 167.635 1225.11 172.267 Q1219.95 176.858 1212.81 176.858 Q1205.85 176.858 1200.64 172.8 Q1195.43 168.742 1195.43 162.347 M1199.62 162.347 Q1199.62 167.553 1203.51 171.037 Q1207.44 174.521 1212.9 174.521 Q1218.18 174.521 1222.12 171.488 Q1226.09 168.455 1226.09 163.946 Q1226.09 162.183 1225.48 160.667 Q1224.91 159.15 1223.72 157.962 Q1222.57 156.732 1221.83 156.199 Q1221.13 155.625 1219.78 154.682 L1209.45 148.165 Q1199.62 153.617 1199.62 162.347 M1201.38 129.843 Q1201.38 133.86 1205.6 136.647 L1216.01 143.369 Q1224.33 138.492 1224.33 131.605 Q1224.33 127.138 1220.93 124.186 Q1217.53 121.194 1212.81 121.194 Q1208.18 121.194 1204.78 123.653 Q1201.38 126.072 1201.38 129.843 Z" fill="#000000" fill-rule="evenodd" fill-opacity="1" /><path clip-path="url(#clip280)" d="M1260.3 154.027 Q1260.3 153.371 1261.65 152.674 L1308.21 131.441 Q1309.89 130.622 1310.34 130.622 Q1311.16 130.622 1311.16 131.441 Q1311.16 132.097 1309.24 133.04 L1268.29 151.854 Q1265.79 153.043 1263.41 154.027 Q1265.75 155.051 1268.29 156.199 L1309.24 175.013 Q1311.16 175.833 1311.16 176.612 Q1311.16 177.431 1310.34 177.431 Q1309.93 177.431 1308.21 176.612 L1261.65 155.379 Q1260.38 154.846 1260.3 154.027 Z" fill="#000000" fill-rule="evenodd" fill-opacity="1" /><path clip-path="url(#clip280)" d="M1348.26 175.013 Q1348.26 173.496 1348.38 173.046 Q1348.54 172.595 1349.2 171.898 L1365.31 153.945 Q1374.12 144.025 1374.12 135.376 Q1374.12 129.761 1371.17 125.744 Q1368.26 121.727 1362.89 121.727 Q1359.2 121.727 1356.08 123.981 Q1352.97 126.236 1351.53 130.253 Q1351.78 130.171 1352.64 130.171 Q1354.73 130.171 1355.88 131.482 Q1357.07 132.794 1357.07 134.557 Q1357.07 136.811 1355.59 137.918 Q1354.16 138.983 1352.72 138.983 Q1352.15 138.983 1351.37 138.861 Q1350.63 138.738 1349.44 137.59 Q1348.26 136.401 1348.26 134.311 Q1348.26 128.449 1352.68 123.776 Q1357.15 119.104 1363.95 119.104 Q1371.66 119.104 1376.7 123.694 Q1381.78 128.244 1381.78 135.376 Q1381.78 137.877 1381.01 140.172 Q1380.27 142.427 1379.24 144.189 Q1378.26 145.952 1375.55 148.78 Q1372.85 151.608 1370.68 153.617 Q1368.5 155.625 1363.63 159.888 L1354.73 168.537 L1369.86 168.537 Q1377.23 168.537 1377.81 167.881 Q1378.63 166.692 1379.65 160.421 L1381.78 160.421 L1379.41 175.013 L1348.26 175.013 Z" fill="#000000" fill-rule="evenodd" fill-opacity="1" /><path clip-path="url(#clip280)" d="M1391.1 173.66 Q1389.83 172.308 1389.83 170.545 Q1389.83 168.783 1391.1 167.512 Q1392.37 166.2 1394.29 166.2 Q1396.14 166.2 1397.37 167.43 Q1398.64 168.619 1398.64 170.586 Q1398.64 172.513 1397.29 173.783 Q1395.97 175.013 1394.29 175.013 Q1392.37 175.013 1391.1 173.66 Z" fill="#000000" fill-rule="evenodd" fill-opacity="1" /><path clip-path="url(#clip280)" d="M1412.92 161.487 Q1412.92 158.986 1414.28 158.044 Q1415.63 157.06 1417.06 157.06 Q1418.99 157.06 1420.1 158.289 Q1421.25 159.478 1421.25 161.159 Q1421.25 162.839 1420.1 164.069 Q1418.99 165.258 1417.06 165.258 Q1416.12 165.258 1415.63 165.094 Q1416.74 168.947 1420.1 171.734 Q1423.5 174.521 1427.97 174.521 Q1433.58 174.521 1436.94 169.07 Q1438.95 165.545 1438.95 157.552 Q1438.95 150.501 1437.44 146.976 Q1435.1 141.607 1430.3 141.607 Q1423.5 141.607 1419.48 147.468 Q1418.99 148.206 1418.42 148.247 Q1417.6 148.247 1417.39 147.796 Q1417.23 147.304 1417.23 146.034 L1417.23 121.194 Q1417.23 119.186 1418.05 119.186 Q1418.38 119.186 1419.07 119.432 Q1424.36 121.768 1430.22 121.809 Q1436.25 121.809 1441.66 119.35 Q1442.07 119.104 1442.31 119.104 Q1443.13 119.104 1443.17 120.046 Q1443.17 120.374 1442.48 121.358 Q1441.82 122.301 1440.39 123.572 Q1438.95 124.801 1437.11 125.99 Q1435.26 127.179 1432.56 127.998 Q1429.89 128.777 1426.94 128.777 Q1423.42 128.777 1419.81 127.67 L1419.81 144.025 Q1424.16 139.762 1430.47 139.762 Q1437.19 139.762 1441.82 145.173 Q1446.45 150.583 1446.45 158.125 Q1446.45 166.036 1440.96 171.447 Q1435.51 176.858 1428.13 176.858 Q1421.41 176.858 1417.15 172.062 Q1412.92 167.266 1412.92 161.487 Z" fill="#000000" fill-rule="evenodd" fill-opacity="1" /><path clip-path="url(#clip280)" d="M1477.79 162.265 Q1477.87 161.241 1479.47 161.241 L1530.91 161.241 Q1533.33 161.241 1533.37 162.183 Q1533.37 163.208 1531.07 163.167 L1480.04 163.167 Q1477.79 163.208 1477.79 162.265 M1477.79 145.87 Q1477.79 144.845 1479.55 144.886 L1530.83 144.886 Q1533.33 144.886 1533.37 145.87 Q1533.37 146.812 1531.24 146.812 L1479.47 146.812 Q1477.79 146.812 1477.79 145.87 Z" fill="#000000" fill-rule="evenodd" fill-opacity="1" /><path clip-path="url(#clip280)" d="M1565.75 193.417 L1565.75 115.251 Q1565.75 112.136 1567.43 112.136 Q1569.11 112.136 1569.11 114.636 L1569.11 192.802 Q1569.11 195.918 1567.43 195.918 Q1565.75 195.918 1565.75 193.417 Z" fill="#000000" fill-rule="evenodd" fill-opacity="1" /><path clip-path="url(#clip280)" d="M1588.3 193.417 L1588.3 115.251 Q1588.3 112.136 1589.98 112.136 Q1591.66 112.136 1591.66 114.636 L1591.66 192.802 Q1591.66 195.918 1589.98 195.918 Q1588.3 195.918 1588.3 193.417 Z" fill="#000000" fill-rule="evenodd" fill-opacity="1" /><path clip-path="url(#clip280)" d="M1644.93 143.451 Q1644.93 145.747 1643.5 147.058 Q1642.06 148.329 1640.42 148.329 Q1638.87 148.329 1638.05 147.427 Q1637.23 146.526 1637.23 145.378 Q1637.23 143.82 1638.37 142.468 Q1639.52 141.115 1641.24 140.828 Q1639.56 139.762 1637.06 139.762 Q1635.42 139.762 1633.99 140.623 Q1632.59 141.484 1631.73 142.591 Q1630.91 143.697 1630.18 145.296 Q1629.48 146.853 1629.19 147.796 Q1628.95 148.698 1628.74 149.682 L1625.87 161.159 Q1624.48 166.61 1624.48 168.537 Q1624.48 170.914 1625.63 172.513 Q1626.77 174.07 1629.07 174.07 Q1629.97 174.07 1631 173.824 Q1632.02 173.537 1633.33 172.8 Q1634.68 172.021 1635.87 170.873 Q1637.1 169.684 1638.29 167.676 Q1639.48 165.668 1640.26 163.085 Q1640.51 162.183 1641.32 162.183 Q1642.35 162.183 1642.35 163.003 Q1642.35 163.7 1641.78 165.176 Q1641.24 166.61 1640.05 168.496 Q1638.91 170.34 1637.39 172.021 Q1635.87 173.66 1633.62 174.808 Q1631.36 175.956 1628.91 175.956 Q1625.38 175.956 1623.04 174.07 Q1620.71 172.185 1619.85 169.561 Q1619.64 169.93 1619.35 170.422 Q1619.07 170.914 1618.21 172.021 Q1617.39 173.087 1616.44 173.906 Q1615.5 174.685 1614.03 175.3 Q1612.59 175.956 1611.03 175.956 Q1609.07 175.956 1607.3 175.382 Q1605.58 174.808 1604.35 173.496 Q1603.12 172.185 1603.12 170.381 Q1603.12 168.373 1604.48 166.979 Q1605.87 165.545 1607.75 165.545 Q1608.94 165.545 1609.89 166.241 Q1610.87 166.938 1610.87 168.455 Q1610.87 170.135 1609.72 171.406 Q1608.57 172.677 1606.93 173.005 Q1608.62 174.07 1611.12 174.07 Q1613.82 174.07 1615.95 171.693 Q1618.08 169.316 1619.11 165.34 Q1621.65 155.789 1622.63 151.526 Q1623.62 147.222 1623.62 145.378 Q1623.62 143.656 1623.17 142.468 Q1622.72 141.279 1621.94 140.746 Q1621.2 140.172 1620.5 139.967 Q1619.85 139.762 1619.11 139.762 Q1617.88 139.762 1616.49 140.254 Q1615.13 140.746 1613.49 141.894 Q1611.89 143 1610.38 145.296 Q1608.86 147.591 1607.84 150.747 Q1607.63 151.69 1606.73 151.69 Q1605.75 151.649 1605.75 150.829 Q1605.75 150.133 1606.28 148.698 Q1606.85 147.222 1608 145.378 Q1609.19 143.533 1610.71 141.894 Q1612.26 140.213 1614.52 139.065 Q1616.81 137.918 1619.27 137.918 Q1620.38 137.918 1621.45 138.164 Q1622.55 138.369 1623.86 138.983 Q1625.22 139.598 1626.4 140.951 Q1627.59 142.304 1628.33 144.271 Q1628.82 143.328 1629.48 142.427 Q1630.18 141.525 1631.24 140.418 Q1632.35 139.27 1633.86 138.615 Q1635.42 137.918 1637.14 137.918 Q1638.82 137.918 1640.46 138.369 Q1642.1 138.779 1643.5 140.131 Q1644.93 141.443 1644.93 143.451 Z" fill="#000000" fill-rule="evenodd" fill-opacity="1" /><path clip-path="url(#clip280)" d="M1657.72 193.417 L1657.72 115.251 Q1657.72 112.136 1659.4 112.136 Q1661.08 112.136 1661.08 114.636 L1661.08 192.802 Q1661.08 195.918 1659.4 195.918 Q1657.72 195.918 1657.72 193.417 Z" fill="#000000" fill-rule="evenodd" fill-opacity="1" /><path clip-path="url(#clip280)" d="M1680.27 193.417 L1680.27 115.251 Q1680.27 112.136 1681.95 112.136 Q1683.63 112.136 1683.63 114.636 L1683.63 192.802 Q1683.63 195.918 1681.95 195.918 Q1680.27 195.918 1680.27 193.417 Z" fill="#000000" fill-rule="evenodd" fill-opacity="1" /><path clip-path="url(#clip280)" d="M1702.82 193.417 L1702.82 115.251 Q1702.82 112.136 1704.5 112.136 Q1706.18 112.136 1706.18 114.636 L1706.18 192.802 Q1706.18 195.918 1704.5 195.918 Q1702.82 195.918 1702.82 193.417 Z" fill="#000000" fill-rule="evenodd" fill-opacity="1" /><path clip-path="url(#clip280)" d="M1725.37 193.417 L1725.37 115.251 Q1725.37 112.136 1727.06 112.136 Q1728.74 112.136 1728.74 114.636 L1728.74 192.802 Q1728.74 195.918 1727.06 195.918 Q1725.37 195.918 1725.37 193.417 Z" fill="#000000" fill-rule="evenodd" fill-opacity="1" /><path clip-path="url(#clip280)" d="M1778.93 141.115 Q1778.93 141.689 1778.57 143.041 L1770.53 175.095 Q1768.77 182.227 1763.03 187.228 Q1757.33 192.229 1750.86 192.229 Q1746.96 192.229 1744.46 190.138 Q1741.96 188.089 1741.96 184.932 Q1741.96 182.145 1743.44 180.793 Q1744.91 179.481 1746.68 179.481 Q1747.25 179.481 1747.86 179.645 Q1748.48 179.809 1749.14 180.506 Q1749.79 181.202 1749.79 182.391 Q1749.79 184.318 1748.11 185.834 Q1747.29 186.531 1746.51 186.695 Q1745.77 186.859 1744.5 186.859 Q1745 188.007 1745.9 188.785 Q1746.8 189.564 1747.82 189.851 Q1748.85 190.179 1749.5 190.261 Q1750.2 190.384 1750.86 190.384 Q1756.1 190.384 1760.12 185.096 Q1761.31 183.498 1762.17 181.899 Q1763.07 180.342 1763.73 178.415 Q1764.38 176.53 1764.67 175.505 Q1765 174.48 1765.57 172.144 Q1761.76 175.956 1757.09 175.956 Q1755.12 175.956 1753.36 175.423 Q1751.64 174.89 1750.12 173.783 Q1748.6 172.636 1747.7 170.627 Q1746.84 168.619 1746.84 165.954 Q1746.84 163.126 1747.95 159.273 Q1749.05 155.42 1751.72 148.329 Q1753.15 144.353 1753.15 142.427 Q1753.15 141.484 1752.95 140.91 Q1752.74 140.295 1752.33 140.09 Q1751.92 139.844 1751.68 139.803 Q1751.47 139.762 1751.06 139.762 Q1748.64 139.762 1746.39 142.222 Q1744.13 144.681 1742.58 150.174 Q1742.25 151.198 1742.04 151.444 Q1741.84 151.69 1741.22 151.69 Q1740.2 151.649 1740.2 150.829 Q1740.2 150.501 1740.57 149.231 Q1740.94 147.919 1741.8 145.993 Q1742.7 144.025 1743.93 142.263 Q1745.16 140.459 1747.09 139.188 Q1749.05 137.918 1751.31 137.918 Q1754.38 137.918 1756.27 139.926 Q1758.19 141.894 1758.19 144.804 Q1758.19 145.993 1757.87 147.058 Q1757.58 148.083 1756.51 150.829 Q1752.21 161.896 1752.21 167.307 Q1752.21 168.619 1752.41 169.725 Q1752.66 170.791 1753.19 171.857 Q1753.73 172.882 1754.79 173.496 Q1755.9 174.07 1757.42 174.07 Q1759.34 174.07 1761.15 173.169 Q1762.99 172.226 1764.14 170.955 Q1765.33 169.684 1766.02 168.619 Q1766.76 167.512 1766.92 166.938 L1770.7 151.854 L1772.38 145.132 Q1773.15 141.484 1773.52 140.582 Q1774.02 139.721 1774.88 139.27 Q1775.74 138.82 1776.48 138.82 Q1777.5 138.82 1778.2 139.434 Q1778.93 140.049 1778.93 141.115 Z" fill="#000000" fill-rule="evenodd" fill-opacity="1" /><path clip-path="url(#clip280)" d="M1791.33 193.417 L1791.33 115.251 Q1791.33 112.136 1793.01 112.136 Q1794.69 112.136 1794.69 114.636 L1794.69 192.802 Q1794.69 195.918 1793.01 195.918 Q1791.33 195.918 1791.33 193.417 Z" fill="#000000" fill-rule="evenodd" fill-opacity="1" /><path clip-path="url(#clip280)" d="M1813.89 193.417 L1813.89 115.251 Q1813.89 112.136 1815.57 112.136 Q1817.25 112.136 1817.25 114.636 L1817.25 192.802 Q1817.25 195.918 1815.57 195.918 Q1813.89 195.918 1813.89 193.417 Z" fill="#000000" fill-rule="evenodd" fill-opacity="1" /><polyline clip-path="url(#clip283)" style="stroke:#0000ff; stroke-linecap:round; stroke-linejoin:round; stroke-width:4; stroke-opacity:1; fill:none" points="
  1250.12,835.2 1901.36,509.576 
  "/>
<polyline clip-path="url(#clip283)" style="stroke:#0000ff; stroke-linecap:round; stroke-linejoin:round; stroke-width:4; stroke-opacity:1; fill:none" points="
  1861.12,509.576 1901.36,509.576 1877.22,541.775 
  "/>
<polyline clip-path="url(#clip283)" style="stroke:#0000ff; stroke-linecap:round; stroke-linejoin:round; stroke-width:4; stroke-opacity:1; fill:none" points="
  1901.36,509.576 1250.12,835.2 
  "/>
<polyline clip-path="url(#clip283)" style="stroke:#0000ff; stroke-linecap:round; stroke-linejoin:round; stroke-width:4; stroke-opacity:1; fill:none" points="
  1250.12,835.2 1365.24,489.824 
  "/>
<polyline clip-path="url(#clip283)" style="stroke:#0000ff; stroke-linecap:round; stroke-linejoin:round; stroke-width:4; stroke-opacity:1; fill:none" points="
  1336.78,518.284 1365.24,489.824 1370.93,529.668 
  "/>
<polyline clip-path="url(#clip283)" style="stroke:#0000ff; stroke-linecap:round; stroke-linejoin:round; stroke-width:4; stroke-opacity:1; fill:none" points="
  1365.24,489.824 1250.12,835.2 
  "/>
<path clip-path="url(#clip280)" d="M1955.33 498.803 Q1955.33 501.099 1953.9 502.41 Q1952.47 503.681 1950.83 503.681 Q1949.27 503.681 1948.45 502.779 Q1947.63 501.878 1947.63 500.73 Q1947.63 499.172 1948.78 497.82 Q1949.92 496.467 1951.65 496.18 Q1949.96 495.114 1947.46 495.114 Q1945.82 495.114 1944.39 495.975 Q1943 496.836 1942.14 497.943 Q1941.32 499.049 1940.58 500.648 Q1939.88 502.205 1939.59 503.148 Q1939.35 504.05 1939.14 505.034 L1936.27 516.511 Q1934.88 521.962 1934.88 523.889 Q1934.88 526.266 1936.03 527.865 Q1937.18 529.422 1939.47 529.422 Q1940.37 529.422 1941.4 529.176 Q1942.42 528.89 1943.73 528.152 Q1945.09 527.373 1946.28 526.225 Q1947.51 525.037 1948.69 523.028 Q1949.88 521.02 1950.66 518.437 Q1950.91 517.535 1951.73 517.535 Q1952.75 517.535 1952.75 518.355 Q1952.75 519.052 1952.18 520.528 Q1951.65 521.962 1950.46 523.848 Q1949.31 525.692 1947.79 527.373 Q1946.28 529.012 1944.02 530.16 Q1941.77 531.308 1939.31 531.308 Q1935.78 531.308 1933.45 529.422 Q1931.11 527.537 1930.25 524.914 Q1930.04 525.282 1929.76 525.774 Q1929.47 526.266 1928.61 527.373 Q1927.79 528.439 1926.85 529.258 Q1925.9 530.037 1924.43 530.652 Q1922.99 531.308 1921.44 531.308 Q1919.47 531.308 1917.71 530.734 Q1915.98 530.16 1914.75 528.849 Q1913.53 527.537 1913.53 525.733 Q1913.53 523.725 1914.88 522.331 Q1916.27 520.897 1918.16 520.897 Q1919.35 520.897 1920.29 521.593 Q1921.27 522.29 1921.27 523.807 Q1921.27 525.487 1920.12 526.758 Q1918.98 528.029 1917.34 528.357 Q1919.02 529.422 1921.52 529.422 Q1924.22 529.422 1926.35 527.045 Q1928.49 524.668 1929.51 520.692 Q1932.05 511.141 1933.04 506.878 Q1934.02 502.574 1934.02 500.73 Q1934.02 499.008 1933.57 497.82 Q1933.12 496.631 1932.34 496.098 Q1931.6 495.524 1930.9 495.319 Q1930.25 495.114 1929.51 495.114 Q1928.28 495.114 1926.89 495.606 Q1925.54 496.098 1923.9 497.246 Q1922.3 498.352 1920.78 500.648 Q1919.26 502.943 1918.24 506.099 Q1918.03 507.042 1917.13 507.042 Q1916.15 507.001 1916.15 506.181 Q1916.15 505.485 1916.68 504.05 Q1917.26 502.574 1918.4 500.73 Q1919.59 498.885 1921.11 497.246 Q1922.67 495.565 1924.92 494.418 Q1927.22 493.27 1929.68 493.27 Q1930.78 493.27 1931.85 493.516 Q1932.95 493.721 1934.27 494.336 Q1935.62 494.95 1936.81 496.303 Q1938 497.656 1938.73 499.623 Q1939.23 498.68 1939.88 497.779 Q1940.58 496.877 1941.64 495.77 Q1942.75 494.622 1944.27 493.967 Q1945.82 493.27 1947.55 493.27 Q1949.23 493.27 1950.87 493.721 Q1952.51 494.131 1953.9 495.483 Q1955.33 496.795 1955.33 498.803 Z" fill="#000000" fill-rule="evenodd" fill-opacity="1" /><path clip-path="url(#clip280)" d="M1984.35 517.617 Q1984.44 516.593 1986.03 516.593 L2037.48 516.593 Q2039.89 516.593 2039.94 517.535 Q2039.94 518.56 2037.64 518.519 L1986.61 518.519 Q1984.35 518.56 1984.35 517.617 M1984.35 501.222 Q1984.35 500.197 1986.12 500.238 L2037.39 500.238 Q2039.89 500.238 2039.94 501.222 Q2039.94 502.165 2037.8 502.165 L1986.03 502.165 Q1984.35 502.165 1984.35 501.222 Z" fill="#000000" fill-rule="evenodd" fill-opacity="1" /><path clip-path="url(#clip280)" d="M2072.31 509.379 Q2072.31 495.196 2077.6 483.76 Q2079.86 478.965 2083.01 474.948 Q2086.17 470.931 2088.26 469.168 Q2090.35 467.406 2090.92 467.406 Q2091.74 467.406 2091.78 468.225 Q2091.78 468.635 2090.68 469.66 Q2077.15 483.432 2077.19 509.379 Q2077.19 535.407 2090.35 548.646 Q2091.78 550.081 2091.78 550.532 Q2091.78 551.352 2090.92 551.352 Q2090.35 551.352 2088.34 549.671 Q2086.33 547.991 2083.22 544.138 Q2080.1 540.285 2077.85 535.571 Q2072.31 524.135 2072.31 509.379 Z" fill="#000000" fill-rule="evenodd" fill-opacity="1" /><path clip-path="url(#clip280)" d="M2099.84 530.365 Q2099.84 528.849 2099.97 528.398 Q2100.13 527.947 2100.79 527.25 L2116.89 509.297 Q2125.71 499.377 2125.71 490.728 Q2125.71 485.113 2122.76 481.096 Q2119.85 477.079 2114.48 477.079 Q2110.79 477.079 2107.67 479.333 Q2104.56 481.588 2103.12 485.605 Q2103.37 485.523 2104.23 485.523 Q2106.32 485.523 2107.47 486.835 Q2108.66 488.146 2108.66 489.909 Q2108.66 492.163 2107.18 493.27 Q2105.75 494.336 2104.31 494.336 Q2103.74 494.336 2102.96 494.213 Q2102.22 494.09 2101.03 492.942 Q2099.84 491.753 2099.84 489.663 Q2099.84 483.801 2104.27 479.129 Q2108.74 474.456 2115.54 474.456 Q2123.25 474.456 2128.29 479.047 Q2133.37 483.596 2133.37 490.728 Q2133.37 493.229 2132.59 495.524 Q2131.86 497.779 2130.83 499.541 Q2129.85 501.304 2127.14 504.132 Q2124.44 506.96 2122.26 508.969 Q2120.09 510.977 2115.21 515.24 L2106.32 523.889 L2121.44 523.889 Q2128.82 523.889 2129.4 523.233 Q2130.22 522.044 2131.24 515.773 L2133.37 515.773 L2130.99 530.365 L2099.84 530.365 Z" fill="#000000" fill-rule="evenodd" fill-opacity="1" /><path clip-path="url(#clip280)" d="M2142.6 529.012 Q2141.41 527.66 2141.41 525.897 Q2141.41 524.135 2142.56 522.823 Q2143.75 521.47 2145.88 521.47 Q2148.38 521.47 2149.82 523.889 Q2151.25 526.266 2151.25 530.283 Q2151.25 534.628 2149.49 538.645 Q2147.73 542.703 2146 544.629 Q2144.28 546.556 2143.59 546.556 Q2142.77 546.556 2142.77 545.654 Q2142.77 545.326 2143.34 544.711 Q2149.37 538.235 2149.41 530.283 Q2149.41 529.012 2149.24 529.012 L2149.04 529.176 Q2147.6 530.365 2145.88 530.365 Q2143.79 530.365 2142.6 529.012 Z" fill="#000000" fill-rule="evenodd" fill-opacity="1" /><path clip-path="url(#clip280)" d="M2177.74 482.449 L2177.74 479.825 Q2187.82 479.825 2193.03 474.456 Q2194.46 474.456 2194.71 474.784 Q2194.96 475.112 2194.96 476.628 L2194.96 523.725 Q2194.96 526.225 2196.19 527.004 Q2197.41 527.783 2202.78 527.783 L2205.45 527.783 L2205.45 530.365 Q2202.5 530.119 2191.84 530.119 Q2181.18 530.119 2178.27 530.365 L2178.27 527.783 L2180.94 527.783 Q2186.22 527.783 2187.5 527.045 Q2188.77 526.266 2188.77 523.725 L2188.77 480.235 Q2184.38 482.449 2177.74 482.449 Z" fill="#000000" fill-rule="evenodd" fill-opacity="1" /><path clip-path="url(#clip280)" d="M2217.97 550.532 Q2217.97 550.122 2219.03 549.097 Q2232.56 535.325 2232.56 509.379 Q2232.56 483.35 2219.56 470.193 Q2217.97 468.676 2217.97 468.225 Q2217.97 467.406 2218.79 467.406 Q2219.36 467.406 2221.37 469.086 Q2223.42 470.767 2226.49 474.62 Q2229.61 478.473 2231.9 483.186 Q2237.44 494.622 2237.44 509.379 Q2237.44 523.561 2232.15 534.997 Q2229.89 539.793 2226.74 543.81 Q2223.58 547.827 2221.49 549.589 Q2219.4 551.352 2218.79 551.352 Q2217.97 551.352 2217.97 550.532 Z" fill="#000000" fill-rule="evenodd" fill-opacity="1" /><path clip-path="url(#clip280)" d="M2256.85 474.62 Q2256.85 472.529 2258.12 471.668 Q2259.4 470.767 2260.75 470.767 Q2262.43 470.767 2263.49 471.791 Q2264.6 472.775 2264.6 474.62 Q2264.6 475.439 2264.52 475.89 L2261.73 501.222 L2259.81 501.222 L2256.94 475.89 Q2256.85 475.439 2256.85 474.62 Z" fill="#000000" fill-rule="evenodd" fill-opacity="1" /><path clip-path="url(#clip280)" d="M1086.6 411.59 Q1086.6 412.164 1086.23 413.516 L1078.2 445.57 Q1076.43 452.702 1070.69 457.703 Q1065 462.703 1058.52 462.703 Q1054.63 462.703 1052.13 460.613 Q1049.63 458.564 1049.63 455.407 Q1049.63 452.62 1051.1 451.267 Q1052.58 449.956 1054.34 449.956 Q1054.91 449.956 1055.53 450.12 Q1056.14 450.284 1056.8 450.98 Q1057.45 451.677 1057.45 452.866 Q1057.45 454.793 1055.77 456.309 Q1054.95 457.006 1054.18 457.17 Q1053.44 457.334 1052.17 457.334 Q1052.66 458.482 1053.56 459.26 Q1054.46 460.039 1055.49 460.326 Q1056.51 460.654 1057.17 460.736 Q1057.86 460.859 1058.52 460.859 Q1063.77 460.859 1067.78 455.571 Q1068.97 453.973 1069.83 452.374 Q1070.74 450.817 1071.39 448.89 Q1072.05 447.005 1072.33 445.98 Q1072.66 444.955 1073.24 442.619 Q1069.42 446.431 1064.75 446.431 Q1062.78 446.431 1061.02 445.898 Q1059.3 445.365 1057.78 444.258 Q1056.27 443.111 1055.36 441.102 Q1054.5 439.094 1054.5 436.429 Q1054.5 433.601 1055.61 429.748 Q1056.72 425.895 1059.38 418.804 Q1060.82 414.828 1060.82 412.901 Q1060.82 411.959 1060.61 411.385 Q1060.41 410.77 1060 410.565 Q1059.59 410.319 1059.34 410.278 Q1059.14 410.237 1058.73 410.237 Q1056.31 410.237 1054.05 412.697 Q1051.8 415.156 1050.24 420.648 Q1049.91 421.673 1049.71 421.919 Q1049.5 422.165 1048.89 422.165 Q1047.86 422.124 1047.86 421.304 Q1047.86 420.976 1048.23 419.706 Q1048.6 418.394 1049.46 416.468 Q1050.36 414.5 1051.59 412.738 Q1052.82 410.934 1054.75 409.663 Q1056.72 408.393 1058.97 408.393 Q1062.05 408.393 1063.93 410.401 Q1065.86 412.369 1065.86 415.279 Q1065.86 416.468 1065.53 417.533 Q1065.24 418.558 1064.18 421.304 Q1059.87 432.371 1059.87 437.782 Q1059.87 439.094 1060.08 440.2 Q1060.32 441.266 1060.86 442.332 Q1061.39 443.356 1062.46 443.971 Q1063.56 444.545 1065.08 444.545 Q1067.01 444.545 1068.81 443.643 Q1070.65 442.701 1071.8 441.43 Q1072.99 440.159 1073.69 439.094 Q1074.42 437.987 1074.59 437.413 L1078.36 422.329 L1080.04 415.607 Q1080.82 411.959 1081.19 411.057 Q1081.68 410.196 1082.54 409.745 Q1083.4 409.294 1084.14 409.294 Q1085.16 409.294 1085.86 409.909 Q1086.6 410.524 1086.6 411.59 Z" fill="#000000" fill-rule="evenodd" fill-opacity="1" /><path clip-path="url(#clip280)" d="M1111.87 432.74 Q1111.95 431.716 1113.55 431.716 L1164.99 431.716 Q1167.41 431.716 1167.45 432.658 Q1167.45 433.683 1165.16 433.642 L1114.13 433.642 Q1111.87 433.683 1111.87 432.74 M1111.87 416.345 Q1111.87 415.32 1113.63 415.361 L1164.91 415.361 Q1167.41 415.361 1167.45 416.345 Q1167.45 417.287 1165.32 417.287 L1113.55 417.287 Q1111.87 417.287 1111.87 416.345 Z" fill="#000000" fill-rule="evenodd" fill-opacity="1" /><path clip-path="url(#clip280)" d="M1199.83 424.501 Q1199.83 410.319 1205.12 398.883 Q1207.37 394.087 1210.53 390.07 Q1213.69 386.053 1215.78 384.291 Q1217.87 382.528 1218.44 382.528 Q1219.26 382.528 1219.3 383.348 Q1219.3 383.758 1218.19 384.783 Q1204.67 398.555 1204.71 424.501 Q1204.71 450.53 1217.87 463.769 Q1219.3 465.204 1219.3 465.655 Q1219.3 466.474 1218.44 466.474 Q1217.87 466.474 1215.86 464.794 Q1213.85 463.113 1210.73 459.26 Q1207.62 455.407 1205.36 450.694 Q1199.83 439.258 1199.83 424.501 Z" fill="#000000" fill-rule="evenodd" fill-opacity="1" /><path clip-path="url(#clip280)" d="M1227.36 418.64 Q1227.36 406.302 1230.48 399.58 Q1234.82 389.579 1245.07 389.579 Q1247.24 389.579 1249.49 390.193 Q1251.79 390.767 1254.66 393.022 Q1257.57 395.276 1259.33 398.965 Q1262.69 406.097 1262.69 418.64 Q1262.69 430.896 1259.58 437.577 Q1255.03 447.332 1244.99 447.332 Q1241.21 447.332 1237.36 445.406 Q1233.55 443.479 1231.13 438.848 Q1227.36 431.92 1227.36 418.64 M1234.33 417.615 Q1234.33 430.281 1235.23 435.323 Q1236.26 440.774 1239.04 443.152 Q1241.87 445.488 1244.99 445.488 Q1248.35 445.488 1251.13 442.988 Q1253.96 440.446 1254.82 434.995 Q1255.77 429.625 1255.73 417.615 Q1255.73 405.933 1254.91 401.261 Q1253.8 395.809 1250.85 393.636 Q1247.94 391.423 1244.99 391.423 Q1243.88 391.423 1242.69 391.751 Q1241.54 392.079 1239.86 393.022 Q1238.18 393.964 1236.87 396.301 Q1235.6 398.637 1234.98 402.162 Q1234.33 406.712 1234.33 417.615 Z" fill="#000000" fill-rule="evenodd" fill-opacity="1" /><path clip-path="url(#clip280)" d="M1270.2 444.135 Q1268.93 442.783 1268.93 441.02 Q1268.93 439.258 1270.2 437.987 Q1271.47 436.675 1273.4 436.675 Q1275.24 436.675 1276.47 437.905 Q1277.74 439.094 1277.74 441.061 Q1277.74 442.988 1276.39 444.258 Q1275.08 445.488 1273.4 445.488 Q1271.47 445.488 1270.2 444.135 Z" fill="#000000" fill-rule="evenodd" fill-opacity="1" /><path clip-path="url(#clip280)" d="M1292.03 431.634 L1292.03 429.051 L1317.81 389.661 Q1318.47 388.636 1319.49 388.677 Q1320.44 388.677 1320.64 389.046 Q1320.85 389.415 1320.85 390.849 L1320.85 429.051 L1329.25 429.051 L1329.25 431.634 L1320.85 431.634 L1320.85 438.93 Q1320.85 441.348 1321.83 442.127 Q1322.85 442.906 1327.2 442.906 L1328.96 442.906 L1328.96 445.488 Q1325.52 445.242 1317.57 445.242 Q1309.66 445.242 1306.21 445.488 L1306.21 442.906 L1307.97 442.906 Q1312.32 442.906 1313.34 442.168 Q1314.37 441.389 1314.37 438.93 L1314.37 431.634 L1292.03 431.634 M1294.41 429.051 L1314.86 429.051 L1314.86 397.735 L1294.41 429.051 Z" fill="#000000" fill-rule="evenodd" fill-opacity="1" /><path clip-path="url(#clip280)" d="M1334.79 444.135 Q1333.6 442.783 1333.6 441.02 Q1333.6 439.258 1334.75 437.946 Q1335.94 436.593 1338.07 436.593 Q1340.57 436.593 1342 439.012 Q1343.44 441.389 1343.44 445.406 Q1343.44 449.751 1341.68 453.768 Q1339.91 457.826 1338.19 459.752 Q1336.47 461.679 1335.77 461.679 Q1334.95 461.679 1334.95 460.777 Q1334.95 460.449 1335.53 459.834 Q1341.55 453.358 1341.59 445.406 Q1341.59 444.135 1341.43 444.135 L1341.22 444.299 Q1339.79 445.488 1338.07 445.488 Q1335.98 445.488 1334.79 444.135 Z" fill="#000000" fill-rule="evenodd" fill-opacity="1" /><path clip-path="url(#clip280)" d="M1369.93 397.571 L1369.93 394.948 Q1380.01 394.948 1385.22 389.579 Q1386.65 389.579 1386.9 389.906 Q1387.14 390.234 1387.14 391.751 L1387.14 438.848 Q1387.14 441.348 1388.37 442.127 Q1389.6 442.906 1394.97 442.906 L1397.64 442.906 L1397.64 445.488 Q1394.68 445.242 1384.03 445.242 Q1373.37 445.242 1370.46 445.488 L1370.46 442.906 L1373.12 442.906 Q1378.41 442.906 1379.68 442.168 Q1380.95 441.389 1380.95 438.848 L1380.95 395.358 Q1376.57 397.571 1369.93 397.571 Z" fill="#000000" fill-rule="evenodd" fill-opacity="1" /><path clip-path="url(#clip280)" d="M1404.27 444.135 Q1403 442.783 1403 441.02 Q1403 439.258 1404.27 437.987 Q1405.54 436.675 1407.47 436.675 Q1409.31 436.675 1410.54 437.905 Q1411.81 439.094 1411.81 441.061 Q1411.81 442.988 1410.46 444.258 Q1409.15 445.488 1407.47 445.488 Q1405.54 445.488 1404.27 444.135 Z" fill="#000000" fill-rule="evenodd" fill-opacity="1" /><path clip-path="url(#clip280)" d="M1417.6 397.571 L1417.6 394.948 Q1427.68 394.948 1432.89 389.579 Q1434.32 389.579 1434.57 389.906 Q1434.81 390.234 1434.81 391.751 L1434.81 438.848 Q1434.81 441.348 1436.04 442.127 Q1437.27 442.906 1442.64 442.906 L1445.31 442.906 L1445.31 445.488 Q1442.35 445.242 1431.7 445.242 Q1421.04 445.242 1418.13 445.488 L1418.13 442.906 L1420.79 442.906 Q1426.08 442.906 1427.35 442.168 Q1428.62 441.389 1428.62 438.848 L1428.62 395.358 Q1424.24 397.571 1417.6 397.571 Z" fill="#000000" fill-rule="evenodd" fill-opacity="1" /><path clip-path="url(#clip280)" d="M1457.82 465.655 Q1457.82 465.245 1458.89 464.22 Q1472.42 450.448 1472.42 424.501 Q1472.42 398.473 1459.42 385.316 Q1457.82 383.799 1457.82 383.348 Q1457.82 382.528 1458.64 382.528 Q1459.22 382.528 1461.22 384.209 Q1463.27 385.89 1466.35 389.743 Q1469.46 393.596 1471.76 398.309 Q1477.29 409.745 1477.29 424.501 Q1477.29 438.684 1472.01 450.12 Q1469.75 454.915 1466.59 458.932 Q1463.44 462.949 1461.35 464.712 Q1459.26 466.474 1458.64 466.474 Q1457.82 466.474 1457.82 465.655 Z" fill="#000000" fill-rule="evenodd" fill-opacity="1" /><path clip-path="url(#clip280)" d="M1496.71 389.743 Q1496.71 387.652 1497.98 386.791 Q1499.25 385.89 1500.6 385.89 Q1502.29 385.89 1503.35 386.914 Q1504.46 387.898 1504.46 389.743 Q1504.46 390.562 1504.38 391.013 L1501.59 416.345 L1499.66 416.345 L1496.79 391.013 Q1496.71 390.562 1496.71 389.743 Z" fill="#000000" fill-rule="evenodd" fill-opacity="1" /></svg>
