<?xml version="1.0" encoding="utf-8"?>
<svg xmlns="http://www.w3.org/2000/svg" xmlns:xlink="http://www.w3.org/1999/xlink" width="600" height="400" viewBox="0 0 2400 1600">
<defs>
  <clipPath id="clip460">
    <rect x="0" y="0" width="2400" height="1600"/>
  </clipPath>
</defs>
<path clip-path="url(#clip460)" d="
M0 1600 L2400 1600 L2400 0 L0 0  Z
  " fill="#ffffff" fill-rule="evenodd" fill-opacity="1"/>
<defs>
  <clipPath id="clip461">
    <rect x="480" y="0" width="1681" height="1600"/>
  </clipPath>
</defs>
<defs>
  <clipPath id="clip462">
    <rect x="170" y="47" width="2160" height="1440"/>
  </clipPath>
</defs>
<path clip-path="url(#clip460)" d="
M227.885 1486.45 L2272.35 1486.45 L2272.35 123.472 L227.885 123.472  Z
  " fill="#ffffff" fill-rule="evenodd" fill-opacity="1"/>
<defs>
  <clipPath id="clip463">
    <rect x="227" y="123" width="2045" height="1364"/>
  </clipPath>
</defs>
<polyline clip-path="url(#clip463)" style="stroke:#000000; stroke-linecap:round; stroke-linejoin:round; stroke-width:2; stroke-opacity:0.1; fill:none" points="
  227.885,1486.45 227.885,123.472 
  "/>
<polyline clip-path="url(#clip463)" style="stroke:#000000; stroke-linecap:round; stroke-linejoin:round; stroke-width:2; stroke-opacity:0.1; fill:none" points="
  568.629,1486.45 568.629,123.472 
  "/>
<polyline clip-path="url(#clip463)" style="stroke:#000000; stroke-linecap:round; stroke-linejoin:round; stroke-width:2; stroke-opacity:0.1; fill:none" points="
  909.373,1486.45 909.373,123.472 
  "/>
<polyline clip-path="url(#clip463)" style="stroke:#000000; stroke-linecap:round; stroke-linejoin:round; stroke-width:2; stroke-opacity:0.1; fill:none" points="
  1590.86,1486.45 1590.86,123.472 
  "/>
<polyline clip-path="url(#clip463)" style="stroke:#000000; stroke-linecap:round; stroke-linejoin:round; stroke-width:2; stroke-opacity:0.1; fill:none" points="
  1931.6,1486.45 1931.6,123.472 
  "/>
<polyline clip-path="url(#clip463)" style="stroke:#000000; stroke-linecap:round; stroke-linejoin:round; stroke-width:2; stroke-opacity:0.1; fill:none" points="
  2272.35,1486.45 2272.35,123.472 
  "/>
<polyline clip-path="url(#clip460)" style="stroke:#000000; stroke-linecap:round; stroke-linejoin:round; stroke-width:4; stroke-opacity:1; fill:none" points="
  227.885,804.96 2272.35,804.96 
  "/>
<polyline clip-path="url(#clip460)" style="stroke:#000000; stroke-linecap:round; stroke-linejoin:round; stroke-width:4; stroke-opacity:1; fill:none" points="
  227.885,823.858 227.885,786.062 
  "/>
<polyline clip-path="url(#clip460)" style="stroke:#000000; stroke-linecap:round; stroke-linejoin:round; stroke-width:4; stroke-opacity:1; fill:none" points="
  568.629,823.858 568.629,786.062 
  "/>
<polyline clip-path="url(#clip460)" style="stroke:#000000; stroke-linecap:round; stroke-linejoin:round; stroke-width:4; stroke-opacity:1; fill:none" points="
  909.373,823.858 909.373,786.062 
  "/>
<polyline clip-path="url(#clip460)" style="stroke:#000000; stroke-linecap:round; stroke-linejoin:round; stroke-width:4; stroke-opacity:1; fill:none" points="
  1590.86,823.858 1590.86,786.062 
  "/>
<polyline clip-path="url(#clip460)" style="stroke:#000000; stroke-linecap:round; stroke-linejoin:round; stroke-width:4; stroke-opacity:1; fill:none" points="
  1931.6,823.858 1931.6,786.062 
  "/>
<polyline clip-path="url(#clip460)" style="stroke:#000000; stroke-linecap:round; stroke-linejoin:round; stroke-width:4; stroke-opacity:1; fill:none" points="
  2272.35,823.858 2272.35,786.062 
  "/>
<path clip-path="url(#clip460)" d="M197.353 850.531 L227.029 850.531 L227.029 854.467 L197.353 854.467 L197.353 850.531 Z" fill="#000000" fill-rule="evenodd" fill-opacity="1" /><path clip-path="url(#clip460)" d="M251.288 848.726 Q254.644 849.443 256.519 851.712 Q258.417 853.98 258.417 857.314 Q258.417 862.429 254.899 865.23 Q251.38 868.031 244.899 868.031 Q242.723 868.031 240.408 867.591 Q238.117 867.175 235.663 866.318 L235.663 861.804 Q237.607 862.939 239.922 863.517 Q242.237 864.096 244.76 864.096 Q249.158 864.096 251.45 862.36 Q253.765 860.624 253.765 857.314 Q253.765 854.258 251.612 852.545 Q249.482 850.809 245.663 850.809 L241.635 850.809 L241.635 846.967 L245.848 846.967 Q249.297 846.967 251.126 845.601 Q252.954 844.212 252.954 841.619 Q252.954 838.957 251.056 837.545 Q249.181 836.11 245.663 836.11 Q243.741 836.11 241.542 836.527 Q239.343 836.943 236.704 837.823 L236.704 833.656 Q239.367 832.916 241.681 832.545 Q244.019 832.175 246.079 832.175 Q251.403 832.175 254.505 834.606 Q257.607 837.013 257.607 841.133 Q257.607 844.004 255.964 845.994 Q254.32 847.962 251.288 848.726 Z" fill="#000000" fill-rule="evenodd" fill-opacity="1" /><path clip-path="url(#clip460)" d="M538.571 850.531 L568.247 850.531 L568.247 854.467 L538.571 854.467 L538.571 850.531 Z" fill="#000000" fill-rule="evenodd" fill-opacity="1" /><path clip-path="url(#clip460)" d="M582.367 863.425 L598.687 863.425 L598.687 867.36 L576.742 867.36 L576.742 863.425 Q579.404 860.67 583.988 856.041 Q588.594 851.388 589.775 850.045 Q592.02 847.522 592.9 845.786 Q593.803 844.027 593.803 842.337 Q593.803 839.582 591.858 837.846 Q589.937 836.11 586.835 836.11 Q584.636 836.11 582.182 836.874 Q579.752 837.638 576.974 839.189 L576.974 834.467 Q579.798 833.332 582.252 832.754 Q584.705 832.175 586.742 832.175 Q592.113 832.175 595.307 834.86 Q598.502 837.545 598.502 842.036 Q598.502 844.166 597.691 846.087 Q596.904 847.985 594.798 850.578 Q594.219 851.249 591.117 854.467 Q588.016 857.661 582.367 863.425 Z" fill="#000000" fill-rule="evenodd" fill-opacity="1" /><path clip-path="url(#clip460)" d="M879.13 850.531 L908.806 850.531 L908.806 854.467 L879.13 854.467 L879.13 850.531 Z" fill="#000000" fill-rule="evenodd" fill-opacity="1" /><path clip-path="url(#clip460)" d="M919.709 863.425 L927.347 863.425 L927.347 837.059 L919.037 838.726 L919.037 834.467 L927.301 832.8 L931.977 832.8 L931.977 863.425 L939.616 863.425 L939.616 867.36 L919.709 867.36 L919.709 863.425 Z" fill="#000000" fill-rule="evenodd" fill-opacity="1" /><path clip-path="url(#clip460)" d="M1581.24 863.425 L1588.88 863.425 L1588.88 837.059 L1580.57 838.726 L1580.57 834.467 L1588.84 832.8 L1593.51 832.8 L1593.51 863.425 L1601.15 863.425 L1601.15 867.36 L1581.24 867.36 L1581.24 863.425 Z" fill="#000000" fill-rule="evenodd" fill-opacity="1" /><path clip-path="url(#clip460)" d="M1926.26 863.425 L1942.58 863.425 L1942.58 867.36 L1920.63 867.36 L1920.63 863.425 Q1923.29 860.67 1927.88 856.041 Q1932.48 851.388 1933.66 850.045 Q1935.91 847.522 1936.79 845.786 Q1937.69 844.027 1937.69 842.337 Q1937.69 839.582 1935.75 837.846 Q1933.83 836.11 1930.73 836.11 Q1928.53 836.11 1926.07 836.874 Q1923.64 837.638 1920.86 839.189 L1920.86 834.467 Q1923.69 833.332 1926.14 832.754 Q1928.6 832.175 1930.63 832.175 Q1936 832.175 1939.2 834.86 Q1942.39 837.545 1942.39 842.036 Q1942.39 844.166 1941.58 846.087 Q1940.79 847.985 1938.69 850.578 Q1938.11 851.249 1935.01 854.467 Q1931.91 857.661 1926.26 863.425 Z" fill="#000000" fill-rule="evenodd" fill-opacity="1" /><path clip-path="url(#clip460)" d="M2276.6 848.726 Q2279.95 849.443 2281.83 851.712 Q2283.73 853.98 2283.73 857.314 Q2283.73 862.429 2280.21 865.23 Q2276.69 868.031 2270.21 868.031 Q2268.03 868.031 2265.72 867.591 Q2263.43 867.175 2260.97 866.318 L2260.97 861.804 Q2262.92 862.939 2265.23 863.517 Q2267.55 864.096 2270.07 864.096 Q2274.47 864.096 2276.76 862.36 Q2279.07 860.624 2279.07 857.314 Q2279.07 854.258 2276.92 852.545 Q2274.79 850.809 2270.97 850.809 L2266.94 850.809 L2266.94 846.967 L2271.16 846.967 Q2274.61 846.967 2276.43 845.601 Q2278.26 844.212 2278.26 841.619 Q2278.26 838.957 2276.36 837.545 Q2274.49 836.11 2270.97 836.11 Q2269.05 836.11 2266.85 836.527 Q2264.65 836.943 2262.01 837.823 L2262.01 833.656 Q2264.68 832.916 2266.99 832.545 Q2269.33 832.175 2271.39 832.175 Q2276.71 832.175 2279.81 834.606 Q2282.92 837.013 2282.92 841.133 Q2282.92 844.004 2281.27 845.994 Q2279.63 847.962 2276.6 848.726 Z" fill="#000000" fill-rule="evenodd" fill-opacity="1" /><polyline clip-path="url(#clip463)" style="stroke:#000000; stroke-linecap:round; stroke-linejoin:round; stroke-width:2; stroke-opacity:0.1; fill:none" points="
  227.885,1486.45 2272.35,1486.45 
  "/>
<polyline clip-path="url(#clip463)" style="stroke:#000000; stroke-linecap:round; stroke-linejoin:round; stroke-width:2; stroke-opacity:0.1; fill:none" points="
  227.885,1145.7 2272.35,1145.7 
  "/>
<polyline clip-path="url(#clip463)" style="stroke:#000000; stroke-linecap:round; stroke-linejoin:round; stroke-width:2; stroke-opacity:0.1; fill:none" points="
  227.885,464.216 2272.35,464.216 
  "/>
<polyline clip-path="url(#clip463)" style="stroke:#000000; stroke-linecap:round; stroke-linejoin:round; stroke-width:2; stroke-opacity:0.1; fill:none" points="
  227.885,123.472 2272.35,123.472 
  "/>
<polyline clip-path="url(#clip460)" style="stroke:#000000; stroke-linecap:round; stroke-linejoin:round; stroke-width:4; stroke-opacity:1; fill:none" points="
  1250.12,1486.45 1250.12,123.472 
  "/>
<polyline clip-path="url(#clip460)" style="stroke:#000000; stroke-linecap:round; stroke-linejoin:round; stroke-width:4; stroke-opacity:1; fill:none" points="
  1232.6,1486.45 1267.64,1486.45 
  "/>
<polyline clip-path="url(#clip460)" style="stroke:#000000; stroke-linecap:round; stroke-linejoin:round; stroke-width:4; stroke-opacity:1; fill:none" points="
  1232.6,1145.7 1267.64,1145.7 
  "/>
<polyline clip-path="url(#clip460)" style="stroke:#000000; stroke-linecap:round; stroke-linejoin:round; stroke-width:4; stroke-opacity:1; fill:none" points="
  1232.6,464.216 1267.64,464.216 
  "/>
<polyline clip-path="url(#clip460)" style="stroke:#000000; stroke-linecap:round; stroke-linejoin:round; stroke-width:4; stroke-opacity:1; fill:none" points="
  1232.6,123.472 1267.64,123.472 
  "/>
<path clip-path="url(#clip460)" d="M1154 1486.9 L1183.68 1486.9 L1183.68 1490.83 L1154 1490.83 L1154 1486.9 Z" fill="#000000" fill-rule="evenodd" fill-opacity="1" /><path clip-path="url(#clip460)" d="M1197.8 1499.79 L1214.12 1499.79 L1214.12 1503.73 L1192.17 1503.73 L1192.17 1499.79 Q1194.83 1497.04 1199.42 1492.41 Q1204.02 1487.76 1205.2 1486.41 Q1207.45 1483.89 1208.33 1482.15 Q1209.23 1480.39 1209.23 1478.7 Q1209.23 1475.95 1207.29 1474.21 Q1205.37 1472.48 1202.27 1472.48 Q1200.07 1472.48 1197.61 1473.24 Q1195.18 1474.01 1192.4 1475.56 L1192.4 1470.83 Q1195.23 1469.7 1197.68 1469.12 Q1200.14 1468.54 1202.17 1468.54 Q1207.54 1468.54 1210.74 1471.23 Q1213.93 1473.91 1213.93 1478.4 Q1213.93 1480.53 1213.12 1482.45 Q1212.33 1484.35 1210.23 1486.95 Q1209.65 1487.62 1206.55 1490.83 Q1203.45 1494.03 1197.8 1499.79 Z" fill="#000000" fill-rule="evenodd" fill-opacity="1" /><path clip-path="url(#clip460)" d="M1153.63 1146.16 L1183.31 1146.16 L1183.31 1150.09 L1153.63 1150.09 L1153.63 1146.16 Z" fill="#000000" fill-rule="evenodd" fill-opacity="1" /><path clip-path="url(#clip460)" d="M1194.21 1159.05 L1201.85 1159.05 L1201.85 1132.68 L1193.54 1134.35 L1193.54 1130.09 L1201.8 1128.42 L1206.48 1128.42 L1206.48 1159.05 L1214.12 1159.05 L1214.12 1162.98 L1194.21 1162.98 L1194.21 1159.05 Z" fill="#000000" fill-rule="evenodd" fill-opacity="1" /><path clip-path="url(#clip460)" d="M1194.21 477.561 L1201.85 477.561 L1201.85 451.195 L1193.54 452.862 L1193.54 448.603 L1201.8 446.936 L1206.48 446.936 L1206.48 477.561 L1214.12 477.561 L1214.12 481.496 L1194.21 481.496 L1194.21 477.561 Z" fill="#000000" fill-rule="evenodd" fill-opacity="1" /><path clip-path="url(#clip460)" d="M1197.8 136.817 L1214.12 136.817 L1214.12 140.752 L1192.17 140.752 L1192.17 136.817 Q1194.83 134.062 1199.42 129.433 Q1204.02 124.78 1205.2 123.437 Q1207.45 120.914 1208.33 119.178 Q1209.23 117.419 1209.23 115.729 Q1209.23 112.974 1207.29 111.238 Q1205.37 109.502 1202.27 109.502 Q1200.07 109.502 1197.61 110.266 Q1195.18 111.03 1192.4 112.581 L1192.4 107.859 Q1195.23 106.725 1197.68 106.146 Q1200.14 105.567 1202.17 105.567 Q1207.54 105.567 1210.74 108.252 Q1213.93 110.937 1213.93 115.428 Q1213.93 117.558 1213.12 119.479 Q1212.33 121.377 1210.23 123.97 Q1209.65 124.641 1206.55 127.859 Q1203.45 131.053 1197.8 136.817 Z" fill="#000000" fill-rule="evenodd" fill-opacity="1" /><path clip-path="url(#clip460)" d="M281.935 40.7687 Q281.935 43.0641 280.501 44.3757 Q279.066 45.6464 277.426 45.6464 Q275.869 45.6464 275.049 44.7447 Q274.229 43.8429 274.229 42.6952 Q274.229 41.1376 275.377 39.785 Q276.525 38.4323 278.246 38.1454 Q276.566 37.0797 274.065 37.0797 Q272.426 37.0797 270.991 37.9404 Q269.597 38.8012 268.737 39.9079 Q267.917 41.0146 267.179 42.6132 Q266.482 44.1708 266.195 45.1136 Q265.949 46.0153 265.744 46.9991 L262.875 58.4761 Q261.482 63.9276 261.482 65.8541 Q261.482 68.2315 262.629 69.8301 Q263.777 71.3877 266.072 71.3877 Q266.974 71.3877 267.999 71.1417 Q269.024 70.8548 270.335 70.117 Q271.688 69.3382 272.877 68.1905 Q274.106 67.0018 275.295 64.9934 Q276.484 62.9849 277.262 60.4026 Q277.508 59.5008 278.328 59.5008 Q279.353 59.5008 279.353 60.3206 Q279.353 61.0174 278.779 62.493 Q278.246 63.9276 277.057 65.8131 Q275.91 67.6577 274.393 69.3382 Q272.877 70.9778 270.622 72.1255 Q268.368 73.2732 265.908 73.2732 Q262.383 73.2732 260.047 71.3877 Q257.711 69.5022 256.85 66.8789 Q256.645 67.2478 256.358 67.7396 Q256.071 68.2315 255.21 69.3382 Q254.39 70.4039 253.448 71.2237 Q252.505 72.0025 251.029 72.6174 Q249.595 73.2732 248.037 73.2732 Q246.07 73.2732 244.307 72.6993 Q242.585 72.1255 241.356 70.8138 Q240.126 69.5022 240.126 67.6986 Q240.126 65.6902 241.479 64.2965 Q242.872 62.8619 244.758 62.8619 Q245.947 62.8619 246.889 63.5587 Q247.873 64.2555 247.873 65.7722 Q247.873 67.4527 246.725 68.7234 Q245.578 69.994 243.938 70.322 Q245.619 71.3877 248.119 71.3877 Q250.824 71.3877 252.956 69.0103 Q255.087 66.6329 256.112 62.657 Q258.653 53.1065 259.637 48.8436 Q260.621 44.5397 260.621 42.6952 Q260.621 40.9736 260.17 39.785 Q259.719 38.5963 258.94 38.0634 Q258.202 37.4896 257.506 37.2846 Q256.85 37.0797 256.112 37.0797 Q254.882 37.0797 253.489 37.5715 Q252.136 38.0634 250.496 39.2111 Q248.898 40.3178 247.381 42.6132 Q245.865 44.9086 244.84 48.0648 Q244.635 49.0075 243.733 49.0075 Q242.749 48.9665 242.749 48.1468 Q242.749 47.4499 243.282 46.0153 Q243.856 44.5397 245.004 42.6952 Q246.193 40.8507 247.709 39.2111 Q249.267 37.5305 251.521 36.3828 Q253.817 35.2351 256.276 35.2351 Q257.383 35.2351 258.448 35.4811 Q259.555 35.686 260.867 36.3009 Q262.219 36.9157 263.408 38.2683 Q264.597 39.621 265.335 41.5885 Q265.826 40.6457 266.482 39.744 Q267.179 38.8422 268.245 37.7355 Q269.351 36.5878 270.868 35.932 Q272.426 35.2351 274.147 35.2351 Q275.828 35.2351 277.467 35.686 Q279.107 36.0959 280.501 37.4486 Q281.935 38.7602 281.935 40.7687 Z" fill="#000000" fill-rule="evenodd" fill-opacity="1" /><path clip-path="url(#clip460)" d="M342.473 49.5238 Q333.439 49.5238 329.955 51.5898 Q326.472 53.6558 326.472 58.6384 Q326.472 62.6083 329.064 64.9578 Q331.697 67.2668 336.194 67.2668 Q342.392 67.2668 346.119 62.8918 Q349.886 58.4763 349.886 51.1847 L349.886 49.5238 L342.473 49.5238 M357.34 46.4452 L357.34 72.3304 L349.886 72.3304 L349.886 65.4439 Q347.334 69.5758 343.526 71.5608 Q339.718 73.5052 334.209 73.5052 Q327.241 73.5052 323.109 69.6163 Q319.018 65.687 319.018 59.1245 Q319.018 51.4683 324.122 47.5794 Q329.267 43.6905 339.435 43.6905 L349.886 43.6905 L349.886 42.9614 Q349.886 37.8167 346.483 35.0216 Q343.121 32.186 337.004 32.186 Q333.115 32.186 329.429 33.1177 Q325.743 34.0494 322.34 35.9128 L322.34 29.0263 Q326.431 27.4464 330.28 26.6767 Q334.128 25.8666 337.774 25.8666 Q347.617 25.8666 352.478 30.9707 Q357.34 36.0748 357.34 46.4452 Z" fill="#000000" fill-rule="evenodd" fill-opacity="1" /><path clip-path="url(#clip460)" d="M410.406 44.9463 L410.406 72.3304 L402.953 72.3304 L402.953 45.1894 Q402.953 38.7484 400.441 35.5482 Q397.93 32.348 392.907 32.348 Q386.871 32.348 383.387 36.1964 Q379.903 40.0447 379.903 46.6882 L379.903 72.3304 L372.409 72.3304 L372.409 26.9603 L379.903 26.9603 L379.903 34.0089 Q382.577 29.9175 386.182 27.892 Q389.828 25.8666 394.567 25.8666 Q402.386 25.8666 406.396 30.7277 Q410.406 35.5482 410.406 44.9463 Z" fill="#000000" fill-rule="evenodd" fill-opacity="1" /><path clip-path="url(#clip460)" d="M455.128 33.8468 L455.128 9.29837 L462.582 9.29837 L462.582 72.3304 L455.128 72.3304 L455.128 65.5249 Q452.779 69.5758 449.174 71.5608 Q445.609 73.5052 440.586 73.5052 Q432.362 73.5052 427.177 66.9427 Q422.033 60.3803 422.033 49.6859 Q422.033 38.9915 427.177 32.429 Q432.362 25.8666 440.586 25.8666 Q445.609 25.8666 449.174 27.8515 Q452.779 29.7959 455.128 33.8468 M429.729 49.6859 Q429.729 57.9092 433.091 62.6083 Q436.494 67.2668 442.409 67.2668 Q448.323 67.2668 451.726 62.6083 Q455.128 57.9092 455.128 49.6859 Q455.128 41.4625 451.726 36.804 Q448.323 32.105 442.409 32.105 Q436.494 32.105 433.091 36.804 Q429.729 41.4625 429.729 49.6859 Z" fill="#000000" fill-rule="evenodd" fill-opacity="1" /><path clip-path="url(#clip460)" d="M535.223 30.3776 Q535.223 30.9515 534.854 32.3041 L526.82 64.3577 Q525.058 71.4899 519.319 76.4906 Q513.622 81.4912 507.145 81.4912 Q503.251 81.4912 500.751 79.4008 Q498.251 77.3513 498.251 74.1952 Q498.251 71.4079 499.726 70.0552 Q501.202 68.7436 502.964 68.7436 Q503.538 68.7436 504.153 68.9075 Q504.768 69.0715 505.424 69.7683 Q506.08 70.4651 506.08 71.6538 Q506.08 73.5803 504.399 75.0969 Q503.579 75.7937 502.8 75.9577 Q502.063 76.1217 500.792 76.1217 Q501.284 77.2694 502.186 78.0481 Q503.087 78.8269 504.112 79.1139 Q505.137 79.4418 505.793 79.5238 Q506.49 79.6467 507.145 79.6467 Q512.392 79.6467 516.409 74.3591 Q517.598 72.7605 518.458 71.1619 Q519.36 69.6044 520.016 67.6779 Q520.672 65.7924 520.959 64.7676 Q521.287 63.7429 521.86 61.4065 Q518.048 65.2185 513.376 65.2185 Q511.408 65.2185 509.646 64.6856 Q507.924 64.1528 506.408 63.0461 Q504.891 61.8984 503.989 59.8899 Q503.128 57.8814 503.128 55.2171 Q503.128 52.3889 504.235 48.5359 Q505.342 44.6829 508.006 37.5917 Q509.441 33.6158 509.441 31.6893 Q509.441 30.7465 509.236 30.1727 Q509.031 29.5578 508.621 29.3529 Q508.211 29.1069 507.965 29.066 Q507.76 29.025 507.35 29.025 Q504.932 29.025 502.678 31.4843 Q500.423 33.9437 498.866 39.4362 Q498.538 40.461 498.333 40.7069 Q498.128 40.9529 497.513 40.9529 Q496.488 40.9119 496.488 40.0921 Q496.488 39.7642 496.857 38.4935 Q497.226 37.1818 498.087 35.2553 Q498.988 33.2879 500.218 31.5253 Q501.448 29.7218 503.374 28.4511 Q505.342 27.1805 507.596 27.1805 Q510.67 27.1805 512.556 29.1889 Q514.482 31.1564 514.482 34.0667 Q514.482 35.2553 514.155 36.3211 Q513.868 37.3458 512.802 40.0921 Q508.498 51.1592 508.498 56.5698 Q508.498 57.8814 508.703 58.9881 Q508.949 60.0539 509.482 61.1196 Q510.015 62.1443 511.08 62.7591 Q512.187 63.333 513.704 63.333 Q515.63 63.333 517.434 62.4312 Q519.278 61.4885 520.426 60.2178 Q521.615 58.9471 522.311 57.8814 Q523.049 56.7747 523.213 56.2009 L526.984 41.1168 L528.665 34.3946 Q529.444 30.7465 529.812 29.8448 Q530.304 28.984 531.165 28.5331 Q532.026 28.0822 532.764 28.0822 Q533.788 28.0822 534.485 28.6971 Q535.223 29.3119 535.223 30.3776 Z" fill="#000000" fill-rule="evenodd" fill-opacity="1" /><path clip-path="url(#clip460)" d="M592.015 49.5238 Q582.981 49.5238 579.497 51.5898 Q576.014 53.6558 576.014 58.6384 Q576.014 62.6083 578.606 64.9578 Q581.239 67.2668 585.736 67.2668 Q591.934 67.2668 595.66 62.8918 Q599.428 58.4763 599.428 51.1847 L599.428 49.5238 L592.015 49.5238 M606.881 46.4452 L606.881 72.3304 L599.428 72.3304 L599.428 65.4439 Q596.876 69.5758 593.068 71.5608 Q589.26 73.5052 583.751 73.5052 Q576.783 73.5052 572.651 69.6163 Q568.56 65.687 568.56 59.1245 Q568.56 51.4683 573.664 47.5794 Q578.809 43.6905 588.976 43.6905 L599.428 43.6905 L599.428 42.9614 Q599.428 37.8167 596.025 35.0216 Q592.663 32.186 586.546 32.186 Q582.657 32.186 578.971 33.1177 Q575.284 34.0494 571.882 35.9128 L571.882 29.0263 Q575.973 27.4464 579.821 26.6767 Q583.67 25.8666 587.316 25.8666 Q597.159 25.8666 602.02 30.9707 Q606.881 36.0748 606.881 46.4452 Z" fill="#000000" fill-rule="evenodd" fill-opacity="1" /><path clip-path="url(#clip460)" d="M648.525 33.9279 Q647.269 33.1987 645.77 32.8746 Q644.312 32.51 642.529 32.51 Q636.21 32.51 632.807 36.642 Q629.445 40.7334 629.445 48.4301 L629.445 72.3304 L621.951 72.3304 L621.951 26.9603 L629.445 26.9603 L629.445 34.0089 Q631.795 29.877 635.562 27.892 Q639.329 25.8666 644.717 25.8666 Q645.487 25.8666 646.418 25.9881 Q647.35 26.0691 648.484 26.2717 L648.525 33.9279 Z" fill="#000000" fill-rule="evenodd" fill-opacity="1" /><path clip-path="url(#clip460)" d="M693.328 47.782 L693.328 51.4278 L659.057 51.4278 Q659.543 59.1245 663.675 63.1754 Q667.848 67.1858 675.261 67.1858 Q679.555 67.1858 683.565 66.1326 Q687.616 65.0793 691.586 62.9728 L691.586 70.0214 Q687.575 71.7228 683.363 72.614 Q679.15 73.5052 674.815 73.5052 Q663.959 73.5052 657.599 67.1858 Q651.279 60.8664 651.279 50.091 Q651.279 38.951 657.275 32.429 Q663.311 25.8666 673.519 25.8666 Q682.674 25.8666 687.981 31.7809 Q693.328 37.6547 693.328 47.782 M685.874 45.5945 Q685.793 39.4776 682.431 35.8318 Q679.109 32.186 673.6 32.186 Q667.361 32.186 663.594 35.7103 Q659.867 39.2346 659.3 45.635 L685.874 45.5945 Z" fill="#000000" fill-rule="evenodd" fill-opacity="1" /><path clip-path="url(#clip460)" d="M752.552 49.5238 Q743.518 49.5238 740.035 51.5898 Q736.551 53.6558 736.551 58.6384 Q736.551 62.6083 739.144 64.9578 Q741.777 67.2668 746.273 67.2668 Q752.471 67.2668 756.198 62.8918 Q759.965 58.4763 759.965 51.1847 L759.965 49.5238 L752.552 49.5238 M767.419 46.4452 L767.419 72.3304 L759.965 72.3304 L759.965 65.4439 Q757.413 69.5758 753.605 71.5608 Q749.797 73.5052 744.288 73.5052 Q737.321 73.5052 733.189 69.6163 Q729.097 65.687 729.097 59.1245 Q729.097 51.4683 734.201 47.5794 Q739.346 43.6905 749.514 43.6905 L759.965 43.6905 L759.965 42.9614 Q759.965 37.8167 756.562 35.0216 Q753.2 32.186 747.083 32.186 Q743.194 32.186 739.508 33.1177 Q735.822 34.0494 732.419 35.9128 L732.419 29.0263 Q736.51 27.4464 740.359 26.6767 Q744.207 25.8666 747.853 25.8666 Q757.697 25.8666 762.558 30.9707 Q767.419 36.0748 767.419 46.4452 Z" fill="#000000" fill-rule="evenodd" fill-opacity="1" /><path clip-path="url(#clip460)" d="M782.772 9.29837 L790.225 9.29837 L790.225 72.3304 L782.772 72.3304 L782.772 9.29837 Z" fill="#000000" fill-rule="evenodd" fill-opacity="1" /><path clip-path="url(#clip460)" d="M805.821 26.9603 L813.275 26.9603 L813.275 72.3304 L805.821 72.3304 L805.821 26.9603 M805.821 9.29837 L813.275 9.29837 L813.275 18.737 L805.821 18.737 L805.821 9.29837 Z" fill="#000000" fill-rule="evenodd" fill-opacity="1" /><path clip-path="url(#clip460)" d="M858.726 49.1188 Q858.726 41.0169 855.364 36.561 Q852.042 32.105 846.006 32.105 Q840.011 32.105 836.649 36.561 Q833.327 41.0169 833.327 49.1188 Q833.327 57.1801 836.649 61.6361 Q840.011 66.092 846.006 66.092 Q852.042 66.092 855.364 61.6361 Q858.726 57.1801 858.726 49.1188 M866.18 66.6997 Q866.18 78.2853 861.035 83.916 Q855.891 89.5873 845.277 89.5873 Q841.348 89.5873 837.864 88.9797 Q834.38 88.4125 831.099 87.1973 L831.099 79.9461 Q834.38 81.7285 837.58 82.5792 Q840.781 83.4299 844.102 83.4299 Q851.435 83.4299 855.08 79.5816 Q858.726 75.7737 858.726 68.0365 L858.726 64.3502 Q856.417 68.3606 852.812 70.3455 Q849.207 72.3304 844.183 72.3304 Q835.839 72.3304 830.734 65.9705 Q825.63 59.6106 825.63 49.1188 Q825.63 38.5864 830.734 32.2265 Q835.839 25.8666 844.183 25.8666 Q849.207 25.8666 852.812 27.8515 Q856.417 29.8365 858.726 33.8468 L858.726 26.9603 L866.18 26.9603 L866.18 66.6997 Z" fill="#000000" fill-rule="evenodd" fill-opacity="1" /><path clip-path="url(#clip460)" d="M919.247 44.9463 L919.247 72.3304 L911.793 72.3304 L911.793 45.1894 Q911.793 38.7484 909.281 35.5482 Q906.77 32.348 901.747 32.348 Q895.711 32.348 892.227 36.1964 Q888.743 40.0447 888.743 46.6882 L888.743 72.3304 L881.249 72.3304 L881.249 26.9603 L888.743 26.9603 L888.743 34.0089 Q891.417 29.9175 895.022 27.892 Q898.668 25.8666 903.408 25.8666 Q911.226 25.8666 915.236 30.7277 Q919.247 35.5482 919.247 44.9463 Z" fill="#000000" fill-rule="evenodd" fill-opacity="1" /><path clip-path="url(#clip460)" d="M972.921 47.782 L972.921 51.4278 L938.651 51.4278 Q939.137 59.1245 943.269 63.1754 Q947.441 67.1858 954.854 67.1858 Q959.148 67.1858 963.159 66.1326 Q967.209 65.0793 971.179 62.9728 L971.179 70.0214 Q967.169 71.7228 962.956 72.614 Q958.743 73.5052 954.409 73.5052 Q943.552 73.5052 937.192 67.1858 Q930.873 60.8664 930.873 50.091 Q930.873 38.951 936.868 32.429 Q942.904 25.8666 953.112 25.8666 Q962.267 25.8666 967.574 31.7809 Q972.921 37.6547 972.921 47.782 M965.468 45.5945 Q965.387 39.4776 962.024 35.8318 Q958.703 32.186 953.193 32.186 Q946.955 32.186 943.188 35.7103 Q939.461 39.2346 938.894 45.635 L965.468 45.5945 Z" fill="#000000" fill-rule="evenodd" fill-opacity="1" /><path clip-path="url(#clip460)" d="M1015.01 33.8468 L1015.01 9.29837 L1022.46 9.29837 L1022.46 72.3304 L1015.01 72.3304 L1015.01 65.5249 Q1012.66 69.5758 1009.06 71.5608 Q1005.49 73.5052 1000.47 73.5052 Q992.244 73.5052 987.059 66.9427 Q981.914 60.3803 981.914 49.6859 Q981.914 38.9915 987.059 32.429 Q992.244 25.8666 1000.47 25.8666 Q1005.49 25.8666 1009.06 27.8515 Q1012.66 29.7959 1015.01 33.8468 M989.611 49.6859 Q989.611 57.9092 992.973 62.6083 Q996.376 67.2668 1002.29 67.2668 Q1008.2 67.2668 1011.61 62.6083 Q1015.01 57.9092 1015.01 49.6859 Q1015.01 41.4625 1011.61 36.804 Q1008.2 32.105 1002.29 32.105 Q996.376 32.105 992.973 36.804 Q989.611 41.4625 989.611 49.6859 Z" fill="#000000" fill-rule="evenodd" fill-opacity="1" /><path clip-path="url(#clip460)" d="M1081.77 32.186 Q1075.77 32.186 1072.29 36.885 Q1068.81 41.5436 1068.81 49.6859 Q1068.81 57.8282 1072.25 62.5272 Q1075.73 67.1858 1081.77 67.1858 Q1087.72 67.1858 1091.21 62.4867 Q1094.69 57.7877 1094.69 49.6859 Q1094.69 41.6246 1091.21 36.9255 Q1087.72 32.186 1081.77 32.186 M1081.77 25.8666 Q1091.49 25.8666 1097.04 32.186 Q1102.59 38.5054 1102.59 49.6859 Q1102.59 60.8259 1097.04 67.1858 Q1091.49 73.5052 1081.77 73.5052 Q1072.01 73.5052 1066.46 67.1858 Q1060.95 60.8259 1060.95 49.6859 Q1060.95 38.5054 1066.46 32.186 Q1072.01 25.8666 1081.77 25.8666 Z" fill="#000000" fill-rule="evenodd" fill-opacity="1" /><path clip-path="url(#clip460)" d="M1141.24 33.9279 Q1139.98 33.1987 1138.48 32.8746 Q1137.02 32.51 1135.24 32.51 Q1128.92 32.51 1125.52 36.642 Q1122.16 40.7334 1122.16 48.4301 L1122.16 72.3304 L1114.66 72.3304 L1114.66 26.9603 L1122.16 26.9603 L1122.16 34.0089 Q1124.51 29.877 1128.27 27.892 Q1132.04 25.8666 1137.43 25.8666 Q1138.2 25.8666 1139.13 25.9881 Q1140.06 26.0691 1141.2 26.2717 L1141.24 33.9279 Z" fill="#000000" fill-rule="evenodd" fill-opacity="1" /><path clip-path="url(#clip460)" d="M1182.64 65.5249 L1182.64 89.5873 L1175.14 89.5873 L1175.14 26.9603 L1182.64 26.9603 L1182.64 33.8468 Q1184.99 29.7959 1188.55 27.8515 Q1192.16 25.8666 1197.14 25.8666 Q1205.4 25.8666 1210.55 32.429 Q1215.73 38.9915 1215.73 49.6859 Q1215.73 60.3803 1210.55 66.9427 Q1205.4 73.5052 1197.14 73.5052 Q1192.16 73.5052 1188.55 71.5608 Q1184.99 69.5758 1182.64 65.5249 M1208 49.6859 Q1208 41.4625 1204.59 36.804 Q1201.23 32.105 1195.32 32.105 Q1189.4 32.105 1186 36.804 Q1182.64 41.4625 1182.64 49.6859 Q1182.64 57.9092 1186 62.6083 Q1189.4 67.2668 1195.32 67.2668 Q1201.23 67.2668 1204.59 62.6083 Q1208 57.9092 1208 49.6859 Z" fill="#000000" fill-rule="evenodd" fill-opacity="1" /><path clip-path="url(#clip460)" d="M1248.71 49.5238 Q1239.67 49.5238 1236.19 51.5898 Q1232.71 53.6558 1232.71 58.6384 Q1232.71 62.6083 1235.3 64.9578 Q1237.93 67.2668 1242.43 67.2668 Q1248.63 67.2668 1252.35 62.8918 Q1256.12 58.4763 1256.12 51.1847 L1256.12 49.5238 L1248.71 49.5238 M1263.57 46.4452 L1263.57 72.3304 L1256.12 72.3304 L1256.12 65.4439 Q1253.57 69.5758 1249.76 71.5608 Q1245.95 73.5052 1240.44 73.5052 Q1233.48 73.5052 1229.34 69.6163 Q1225.25 65.687 1225.25 59.1245 Q1225.25 51.4683 1230.36 47.5794 Q1235.5 43.6905 1245.67 43.6905 L1256.12 43.6905 L1256.12 42.9614 Q1256.12 37.8167 1252.72 35.0216 Q1249.35 32.186 1243.24 32.186 Q1239.35 32.186 1235.66 33.1177 Q1231.98 34.0494 1228.57 35.9128 L1228.57 29.0263 Q1232.67 27.4464 1236.51 26.6767 Q1240.36 25.8666 1244.01 25.8666 Q1253.85 25.8666 1258.71 30.9707 Q1263.57 36.0748 1263.57 46.4452 Z" fill="#000000" fill-rule="evenodd" fill-opacity="1" /><path clip-path="url(#clip460)" d="M1305.22 33.9279 Q1303.96 33.1987 1302.46 32.8746 Q1301 32.51 1299.22 32.51 Q1292.9 32.51 1289.5 36.642 Q1286.14 40.7334 1286.14 48.4301 L1286.14 72.3304 L1278.64 72.3304 L1278.64 26.9603 L1286.14 26.9603 L1286.14 34.0089 Q1288.49 29.877 1292.25 27.892 Q1296.02 25.8666 1301.41 25.8666 Q1302.18 25.8666 1303.11 25.9881 Q1304.04 26.0691 1305.18 26.2717 L1305.22 33.9279 Z" fill="#000000" fill-rule="evenodd" fill-opacity="1" /><path clip-path="url(#clip460)" d="M1333.65 49.5238 Q1324.62 49.5238 1321.14 51.5898 Q1317.65 53.6558 1317.65 58.6384 Q1317.65 62.6083 1320.25 64.9578 Q1322.88 67.2668 1327.38 67.2668 Q1333.57 67.2668 1337.3 62.8918 Q1341.07 58.4763 1341.07 51.1847 L1341.07 49.5238 L1333.65 49.5238 M1348.52 46.4452 L1348.52 72.3304 L1341.07 72.3304 L1341.07 65.4439 Q1338.52 69.5758 1334.71 71.5608 Q1330.9 73.5052 1325.39 73.5052 Q1318.42 73.5052 1314.29 69.6163 Q1310.2 65.687 1310.2 59.1245 Q1310.2 51.4683 1315.3 47.5794 Q1320.45 43.6905 1330.62 43.6905 L1341.07 43.6905 L1341.07 42.9614 Q1341.07 37.8167 1337.66 35.0216 Q1334.3 32.186 1328.19 32.186 Q1324.3 32.186 1320.61 33.1177 Q1316.92 34.0494 1313.52 35.9128 L1313.52 29.0263 Q1317.61 27.4464 1321.46 26.6767 Q1325.31 25.8666 1328.96 25.8666 Q1338.8 25.8666 1343.66 30.9707 Q1348.52 36.0748 1348.52 46.4452 Z" fill="#000000" fill-rule="evenodd" fill-opacity="1" /><path clip-path="url(#clip460)" d="M1363.87 9.29837 L1371.33 9.29837 L1371.33 72.3304 L1363.87 72.3304 L1363.87 9.29837 Z" fill="#000000" fill-rule="evenodd" fill-opacity="1" /><path clip-path="url(#clip460)" d="M1386.92 9.29837 L1394.38 9.29837 L1394.38 72.3304 L1386.92 72.3304 L1386.92 9.29837 Z" fill="#000000" fill-rule="evenodd" fill-opacity="1" /><path clip-path="url(#clip460)" d="M1448.78 47.782 L1448.78 51.4278 L1414.51 51.4278 Q1415 59.1245 1419.13 63.1754 Q1423.3 67.1858 1430.71 67.1858 Q1435.01 67.1858 1439.02 66.1326 Q1443.07 65.0793 1447.04 62.9728 L1447.04 70.0214 Q1443.03 71.7228 1438.82 72.614 Q1434.6 73.5052 1430.27 73.5052 Q1419.41 73.5052 1413.05 67.1858 Q1406.73 60.8664 1406.73 50.091 Q1406.73 38.951 1412.73 32.429 Q1418.76 25.8666 1428.97 25.8666 Q1438.13 25.8666 1443.43 31.7809 Q1448.78 37.6547 1448.78 47.782 M1441.33 45.5945 Q1441.25 39.4776 1437.88 35.8318 Q1434.56 32.186 1429.05 32.186 Q1422.81 32.186 1419.05 35.7103 Q1415.32 39.2346 1414.75 45.635 L1441.33 45.5945 Z" fill="#000000" fill-rule="evenodd" fill-opacity="1" /><path clip-path="url(#clip460)" d="M1461.01 9.29837 L1468.47 9.29837 L1468.47 72.3304 L1461.01 72.3304 L1461.01 9.29837 Z" fill="#000000" fill-rule="evenodd" fill-opacity="1" /><path clip-path="url(#clip460)" d="M1485.97 62.0411 L1494.52 62.0411 L1494.52 72.3304 L1485.97 72.3304 L1485.97 62.0411 M1485.97 29.4314 L1494.52 29.4314 L1494.52 39.7207 L1485.97 39.7207 L1485.97 29.4314 Z" fill="#000000" fill-rule="evenodd" fill-opacity="1" /><path clip-path="url(#clip460)" d="M1572.38 43.6593 Q1572.38 45.9547 1570.94 47.2664 Q1569.51 48.537 1567.87 48.537 Q1566.31 48.537 1565.49 47.6353 Q1564.67 46.7335 1564.67 45.5858 Q1564.67 44.0282 1565.82 42.6756 Q1566.97 41.3229 1568.69 41.036 Q1567.01 39.9703 1564.51 39.9703 Q1562.87 39.9703 1561.43 40.8311 Q1560.04 41.6918 1559.18 42.7985 Q1558.36 43.9053 1557.62 45.5038 Q1556.92 47.0614 1556.64 48.0042 Q1556.39 48.9059 1556.19 49.8897 L1553.32 61.3667 Q1551.92 66.8183 1551.92 68.7448 Q1551.92 71.1221 1553.07 72.7207 Q1554.22 74.2783 1556.51 74.2783 Q1557.42 74.2783 1558.44 74.0324 Q1559.47 73.7454 1560.78 73.0076 Q1562.13 72.2288 1563.32 71.0811 Q1564.55 69.8925 1565.74 67.884 Q1566.93 65.8755 1567.7 63.2932 Q1567.95 62.3914 1568.77 62.3914 Q1569.8 62.3914 1569.8 63.2112 Q1569.8 63.908 1569.22 65.3836 Q1568.69 66.8183 1567.5 68.7038 Q1566.35 70.5483 1564.84 72.2288 Q1563.32 73.8684 1561.06 75.0161 Q1558.81 76.1638 1556.35 76.1638 Q1552.83 76.1638 1550.49 74.2783 Q1548.15 72.3928 1547.29 69.7695 Q1547.09 70.1384 1546.8 70.6303 Q1546.51 71.1221 1545.65 72.2288 Q1544.83 73.2946 1543.89 74.1144 Q1542.95 74.8931 1541.47 75.508 Q1540.04 76.1638 1538.48 76.1638 Q1536.51 76.1638 1534.75 75.59 Q1533.03 75.0161 1531.8 73.7045 Q1530.57 72.3928 1530.57 70.5893 Q1530.57 68.5808 1531.92 67.1872 Q1533.31 65.7525 1535.2 65.7525 Q1536.39 65.7525 1537.33 66.4494 Q1538.32 67.1462 1538.32 68.6628 Q1538.32 70.3433 1537.17 71.614 Q1536.02 72.8847 1534.38 73.2126 Q1536.06 74.2783 1538.56 74.2783 Q1541.27 74.2783 1543.4 71.9009 Q1545.53 69.5236 1546.55 65.5476 Q1549.1 55.9971 1550.08 51.7342 Q1551.06 47.4303 1551.06 45.5858 Q1551.06 43.8643 1550.61 42.6756 Q1550.16 41.4869 1549.38 40.954 Q1548.64 40.3802 1547.95 40.1752 Q1547.29 39.9703 1546.55 39.9703 Q1545.32 39.9703 1543.93 40.4622 Q1542.58 40.954 1540.94 42.1017 Q1539.34 43.2084 1537.82 45.5038 Q1536.31 47.7992 1535.28 50.9554 Q1535.08 51.8982 1534.18 51.8982 Q1533.19 51.8572 1533.19 51.0374 Q1533.19 50.3406 1533.72 48.9059 Q1534.3 47.4303 1535.45 45.5858 Q1536.64 43.7413 1538.15 42.1017 Q1539.71 40.4212 1541.96 39.2735 Q1544.26 38.1258 1546.72 38.1258 Q1547.83 38.1258 1548.89 38.3717 Q1550 38.5766 1551.31 39.1915 Q1552.66 39.8063 1553.85 41.159 Q1555.04 42.5116 1555.78 44.4791 Q1556.27 43.5364 1556.92 42.6346 Q1557.62 41.7328 1558.69 40.6261 Q1559.79 39.4784 1561.31 38.8226 Q1562.87 38.1258 1564.59 38.1258 Q1566.27 38.1258 1567.91 38.5766 Q1569.55 38.9865 1570.94 40.3392 Q1572.38 41.6508 1572.38 43.6593 Z" fill="#000000" fill-rule="evenodd" fill-opacity="1" /><path clip-path="url(#clip460)" d="M1584.76 19.4756 Q1584.76 17.3852 1586.03 16.5244 Q1587.3 15.6227 1588.65 15.6227 Q1590.34 15.6227 1591.4 16.6474 Q1592.51 17.6311 1592.51 19.4756 Q1592.51 20.2954 1592.43 20.7463 L1589.64 46.0777 L1587.71 46.0777 L1584.84 20.7463 Q1584.76 20.2954 1584.76 19.4756 Z" fill="#000000" fill-rule="evenodd" fill-opacity="1" /><path clip-path="url(#clip460)" d="M1646.59 41.3229 Q1646.59 41.8968 1646.23 43.2494 L1638.19 75.303 Q1636.43 82.4352 1630.69 87.4359 Q1624.99 92.4366 1618.52 92.4366 Q1614.62 92.4366 1612.12 90.3461 Q1609.62 88.2966 1609.62 85.1405 Q1609.62 82.3532 1611.1 81.0006 Q1612.57 79.6889 1614.34 79.6889 Q1614.91 79.6889 1615.53 79.8529 Q1616.14 80.0168 1616.8 80.7136 Q1617.45 81.4104 1617.45 82.5991 Q1617.45 84.5256 1615.77 86.0422 Q1614.95 86.739 1614.17 86.903 Q1613.43 87.067 1612.16 87.067 Q1612.66 88.2147 1613.56 88.9935 Q1614.46 89.7723 1615.48 90.0592 Q1616.51 90.3871 1617.16 90.4691 Q1617.86 90.592 1618.52 90.592 Q1623.76 90.592 1627.78 85.3044 Q1628.97 83.7058 1629.83 82.1073 Q1630.73 80.5497 1631.39 78.6232 Q1632.04 76.7377 1632.33 75.7129 Q1632.66 74.6882 1633.23 72.3518 Q1629.42 76.1638 1624.75 76.1638 Q1622.78 76.1638 1621.02 75.631 Q1619.3 75.0981 1617.78 73.9914 Q1616.26 72.8437 1615.36 70.8352 Q1614.5 68.8267 1614.5 66.1624 Q1614.5 63.3342 1615.61 59.4812 Q1616.71 55.6282 1619.38 48.537 Q1620.81 44.5611 1620.81 42.6346 Q1620.81 41.6918 1620.61 41.118 Q1620.4 40.5031 1619.99 40.2982 Q1619.58 40.0523 1619.34 40.0113 Q1619.13 39.9703 1618.72 39.9703 Q1616.3 39.9703 1614.05 42.4296 Q1611.8 44.889 1610.24 50.3816 Q1609.91 51.4063 1609.7 51.6522 Q1609.5 51.8982 1608.88 51.8982 Q1607.86 51.8572 1607.86 51.0374 Q1607.86 50.7095 1608.23 49.4388 Q1608.6 48.1271 1609.46 46.2007 Q1610.36 44.2332 1611.59 42.4706 Q1612.82 40.6671 1614.75 39.3964 Q1616.71 38.1258 1618.97 38.1258 Q1622.04 38.1258 1623.93 40.1342 Q1625.85 42.1017 1625.85 45.012 Q1625.85 46.2007 1625.53 47.2664 Q1625.24 48.2911 1624.17 51.0374 Q1619.87 62.1045 1619.87 67.5151 Q1619.87 68.8267 1620.07 69.9334 Q1620.32 70.9992 1620.85 72.0649 Q1621.39 73.0896 1622.45 73.7045 Q1623.56 74.2783 1625.08 74.2783 Q1627 74.2783 1628.81 73.3765 Q1630.65 72.4338 1631.8 71.1631 Q1632.99 69.8925 1633.68 68.8267 Q1634.42 67.72 1634.59 67.1462 L1638.36 52.0621 L1640.04 45.3399 Q1640.82 41.6918 1641.18 40.7901 Q1641.68 39.9293 1642.54 39.4784 Q1643.4 39.0275 1644.14 39.0275 Q1645.16 39.0275 1645.86 39.6424 Q1646.59 40.2572 1646.59 41.3229 Z" fill="#000000" fill-rule="evenodd" fill-opacity="1" /><path clip-path="url(#clip460)" d="M1671.87 62.4734 Q1671.95 61.4487 1673.55 61.4487 L1724.99 61.4487 Q1727.41 61.4487 1727.45 62.3914 Q1727.45 63.4162 1725.15 63.3752 L1674.12 63.3752 Q1671.87 63.4162 1671.87 62.4734 M1671.87 46.0777 Q1671.87 45.053 1673.63 45.0939 L1724.91 45.0939 Q1727.41 45.0939 1727.45 46.0777 Q1727.45 47.0204 1725.32 47.0204 L1673.55 47.0204 Q1671.87 47.0204 1671.87 46.0777 Z" fill="#000000" fill-rule="evenodd" fill-opacity="1" /><path clip-path="url(#clip460)" d="M1759.83 75.2211 Q1759.83 73.7045 1759.95 73.2536 Q1760.12 72.8027 1760.77 72.1059 L1776.88 54.1526 Q1785.69 44.2332 1785.69 35.5844 Q1785.69 29.9689 1782.74 25.952 Q1779.83 21.935 1774.46 21.935 Q1770.77 21.935 1767.66 24.1894 Q1764.54 26.4438 1763.11 30.4608 Q1763.35 30.3788 1764.21 30.3788 Q1766.3 30.3788 1767.45 31.6904 Q1768.64 33.0021 1768.64 34.7646 Q1768.64 37.0191 1767.17 38.1258 Q1765.73 39.1915 1764.3 39.1915 Q1763.72 39.1915 1762.94 39.0685 Q1762.21 38.9456 1761.02 37.7979 Q1759.83 36.6092 1759.83 34.5187 Q1759.83 28.6572 1764.26 23.9845 Q1768.72 19.3117 1775.53 19.3117 Q1783.23 19.3117 1788.27 23.9025 Q1793.36 28.4523 1793.36 35.5844 Q1793.36 38.0848 1792.58 40.3802 Q1791.84 42.6346 1790.82 44.3971 Q1789.83 46.1597 1787.13 48.9879 Q1784.42 51.8162 1782.25 53.8247 Q1780.08 55.8331 1775.2 60.096 L1766.3 68.7448 L1781.43 68.7448 Q1788.81 68.7448 1789.38 68.0889 Q1790.2 66.9002 1791.23 60.6289 L1793.36 60.6289 L1790.98 75.2211 L1759.83 75.2211 Z" fill="#000000" fill-rule="evenodd" fill-opacity="1" /><path clip-path="url(#clip460)" d="M1802.67 73.8684 Q1801.4 72.5158 1801.4 70.7532 Q1801.4 68.9907 1802.67 67.72 Q1803.94 66.4084 1805.87 66.4084 Q1807.71 66.4084 1808.94 67.638 Q1810.21 68.8267 1810.21 70.7942 Q1810.21 72.7207 1808.86 73.9914 Q1807.55 75.2211 1805.87 75.2211 Q1803.94 75.2211 1802.67 73.8684 Z" fill="#000000" fill-rule="evenodd" fill-opacity="1" /><path clip-path="url(#clip460)" d="M1824.5 61.6946 Q1824.5 59.1943 1825.85 58.2515 Q1827.2 57.2678 1828.64 57.2678 Q1830.56 57.2678 1831.67 58.4974 Q1832.82 59.6861 1832.82 61.3667 Q1832.82 63.0472 1831.67 64.2769 Q1830.56 65.4656 1828.64 65.4656 Q1827.69 65.4656 1827.2 65.3017 Q1828.31 69.1546 1831.67 71.9419 Q1835.07 74.7292 1839.54 74.7292 Q1845.16 74.7292 1848.52 69.2776 Q1850.53 65.7525 1850.53 57.7596 Q1850.53 50.7095 1849.01 47.1844 Q1846.67 41.8148 1841.88 41.8148 Q1835.07 41.8148 1831.06 47.6763 Q1830.56 48.4141 1829.99 48.4551 Q1829.17 48.4551 1828.97 48.0042 Q1828.8 47.5123 1828.8 46.2416 L1828.8 21.4021 Q1828.8 19.3937 1829.62 19.3937 Q1829.95 19.3937 1830.65 19.6396 Q1835.93 21.976 1841.8 22.017 Q1847.82 22.017 1853.23 19.5576 Q1853.64 19.3117 1853.89 19.3117 Q1854.71 19.3117 1854.75 20.2544 Q1854.75 20.5824 1854.05 21.5661 Q1853.4 22.5089 1851.96 23.7795 Q1850.53 25.0092 1848.68 26.1979 Q1846.84 27.3866 1844.13 28.2064 Q1841.47 28.9852 1838.52 28.9852 Q1834.99 28.9852 1831.38 27.8784 L1831.38 44.2332 Q1835.73 39.9703 1842.04 39.9703 Q1848.76 39.9703 1853.4 45.3809 Q1858.03 50.7915 1858.03 58.3335 Q1858.03 66.2444 1852.53 71.655 Q1847.08 77.0656 1839.7 77.0656 Q1832.98 77.0656 1828.72 72.2698 Q1824.5 67.4741 1824.5 61.6946 Z" fill="#000000" fill-rule="evenodd" fill-opacity="1" /><path clip-path="url(#clip460)" d="M1889.36 62.4734 Q1889.44 61.4487 1891.04 61.4487 L1942.48 61.4487 Q1944.9 61.4487 1944.94 62.3914 Q1944.94 63.4162 1942.64 63.3752 L1891.61 63.3752 Q1889.36 63.4162 1889.36 62.4734 M1889.36 46.0777 Q1889.36 45.053 1891.12 45.0939 L1942.4 45.0939 Q1944.9 45.0939 1944.94 46.0777 Q1944.94 47.0204 1942.81 47.0204 L1891.04 47.0204 Q1889.36 47.0204 1889.36 46.0777 Z" fill="#000000" fill-rule="evenodd" fill-opacity="1" /><path clip-path="url(#clip460)" d="M1977.32 93.6252 L1977.32 15.4587 Q1977.32 12.3435 1979 12.3435 Q1980.68 12.3435 1980.68 14.8439 L1980.68 93.0104 Q1980.68 96.1256 1979 96.1256 Q1977.32 96.1256 1977.32 93.6252 Z" fill="#000000" fill-rule="evenodd" fill-opacity="1" /><path clip-path="url(#clip460)" d="M1999.87 93.6252 L1999.87 15.4587 Q1999.87 12.3435 2001.55 12.3435 Q2003.23 12.3435 2003.23 14.8439 L2003.23 93.0104 Q2003.23 96.1256 2001.55 96.1256 Q1999.87 96.1256 1999.87 93.6252 Z" fill="#000000" fill-rule="evenodd" fill-opacity="1" /><path clip-path="url(#clip460)" d="M2056.5 43.6593 Q2056.5 45.9547 2055.07 47.2664 Q2053.64 48.537 2052 48.537 Q2050.44 48.537 2049.62 47.6353 Q2048.8 46.7335 2048.8 45.5858 Q2048.8 44.0282 2049.95 42.6756 Q2051.09 41.3229 2052.82 41.036 Q2051.14 39.9703 2048.64 39.9703 Q2047 39.9703 2045.56 40.8311 Q2044.17 41.6918 2043.31 42.7985 Q2042.49 43.9053 2041.75 45.5038 Q2041.05 47.0614 2040.77 48.0042 Q2040.52 48.9059 2040.31 49.8897 L2037.44 61.3667 Q2036.05 66.8183 2036.05 68.7448 Q2036.05 71.1221 2037.2 72.7207 Q2038.35 74.2783 2040.64 74.2783 Q2041.54 74.2783 2042.57 74.0324 Q2043.59 73.7454 2044.91 73.0076 Q2046.26 72.2288 2047.45 71.0811 Q2048.68 69.8925 2049.86 67.884 Q2051.05 65.8755 2051.83 63.2932 Q2052.08 62.3914 2052.9 62.3914 Q2053.92 62.3914 2053.92 63.2112 Q2053.92 63.908 2053.35 65.3836 Q2052.82 66.8183 2051.63 68.7038 Q2050.48 70.5483 2048.96 72.2288 Q2047.45 73.8684 2045.19 75.0161 Q2042.94 76.1638 2040.48 76.1638 Q2036.95 76.1638 2034.62 74.2783 Q2032.28 72.3928 2031.42 69.7695 Q2031.21 70.1384 2030.93 70.6303 Q2030.64 71.1221 2029.78 72.2288 Q2028.96 73.2946 2028.02 74.1144 Q2027.07 74.8931 2025.6 75.508 Q2024.16 76.1638 2022.61 76.1638 Q2020.64 76.1638 2018.88 75.59 Q2017.16 75.0161 2015.93 73.7045 Q2014.7 72.3928 2014.7 70.5893 Q2014.7 68.5808 2016.05 67.1872 Q2017.44 65.7525 2019.33 65.7525 Q2020.52 65.7525 2021.46 66.4494 Q2022.44 67.1462 2022.44 68.6628 Q2022.44 70.3433 2021.3 71.614 Q2020.15 72.8847 2018.51 73.2126 Q2020.19 74.2783 2022.69 74.2783 Q2025.39 74.2783 2027.53 71.9009 Q2029.66 69.5236 2030.68 65.5476 Q2033.22 55.9971 2034.21 51.7342 Q2035.19 47.4303 2035.19 45.5858 Q2035.19 43.8643 2034.74 42.6756 Q2034.29 41.4869 2033.51 40.954 Q2032.77 40.3802 2032.08 40.1752 Q2031.42 39.9703 2030.68 39.9703 Q2029.45 39.9703 2028.06 40.4622 Q2026.71 40.954 2025.07 42.1017 Q2023.47 43.2084 2021.95 45.5038 Q2020.43 47.7992 2019.41 50.9554 Q2019.2 51.8982 2018.3 51.8982 Q2017.32 51.8572 2017.32 51.0374 Q2017.32 50.3406 2017.85 48.9059 Q2018.43 47.4303 2019.57 45.5858 Q2020.76 43.7413 2022.28 42.1017 Q2023.84 40.4212 2026.09 39.2735 Q2028.39 38.1258 2030.85 38.1258 Q2031.95 38.1258 2033.02 38.3717 Q2034.12 38.5766 2035.44 39.1915 Q2036.79 39.8063 2037.98 41.159 Q2039.17 42.5116 2039.9 44.4791 Q2040.4 43.5364 2041.05 42.6346 Q2041.75 41.7328 2042.81 40.6261 Q2043.92 39.4784 2045.44 38.8226 Q2047 38.1258 2048.72 38.1258 Q2050.4 38.1258 2052.04 38.5766 Q2053.68 38.9865 2055.07 40.3392 Q2056.5 41.6508 2056.5 43.6593 Z" fill="#000000" fill-rule="evenodd" fill-opacity="1" /><path clip-path="url(#clip460)" d="M2069.29 93.6252 L2069.29 15.4587 Q2069.29 12.3435 2070.97 12.3435 Q2072.65 12.3435 2072.65 14.8439 L2072.65 93.0104 Q2072.65 96.1256 2070.97 96.1256 Q2069.29 96.1256 2069.29 93.6252 Z" fill="#000000" fill-rule="evenodd" fill-opacity="1" /><path clip-path="url(#clip460)" d="M2091.84 93.6252 L2091.84 15.4587 Q2091.84 12.3435 2093.52 12.3435 Q2095.2 12.3435 2095.2 14.8439 L2095.2 93.0104 Q2095.2 96.1256 2093.52 96.1256 Q2091.84 96.1256 2091.84 93.6252 Z" fill="#000000" fill-rule="evenodd" fill-opacity="1" /><path clip-path="url(#clip460)" d="M2114.4 93.6252 L2114.4 15.4587 Q2114.4 12.3435 2116.08 12.3435 Q2117.76 12.3435 2117.76 14.8439 L2117.76 93.0104 Q2117.76 96.1256 2116.08 96.1256 Q2114.4 96.1256 2114.4 93.6252 Z" fill="#000000" fill-rule="evenodd" fill-opacity="1" /><path clip-path="url(#clip460)" d="M2136.95 93.6252 L2136.95 15.4587 Q2136.95 12.3435 2138.63 12.3435 Q2140.31 12.3435 2140.31 14.8439 L2140.31 93.0104 Q2140.31 96.1256 2138.63 96.1256 Q2136.95 96.1256 2136.95 93.6252 Z" fill="#000000" fill-rule="evenodd" fill-opacity="1" /><path clip-path="url(#clip460)" d="M2190.51 41.3229 Q2190.51 41.8968 2190.14 43.2494 L2182.1 75.303 Q2180.34 82.4352 2174.6 87.4359 Q2168.91 92.4366 2162.43 92.4366 Q2158.54 92.4366 2156.04 90.3461 Q2153.54 88.2966 2153.54 85.1405 Q2153.54 82.3532 2155.01 81.0006 Q2156.49 79.6889 2158.25 79.6889 Q2158.82 79.6889 2159.44 79.8529 Q2160.05 80.0168 2160.71 80.7136 Q2161.36 81.4104 2161.36 82.5991 Q2161.36 84.5256 2159.68 86.0422 Q2158.86 86.739 2158.08 86.903 Q2157.35 87.067 2156.08 87.067 Q2156.57 88.2147 2157.47 88.9935 Q2158.37 89.7723 2159.4 90.0592 Q2160.42 90.3871 2161.08 90.4691 Q2161.77 90.592 2162.43 90.592 Q2167.68 90.592 2171.69 85.3044 Q2172.88 83.7058 2173.74 82.1073 Q2174.64 80.5497 2175.3 78.6232 Q2175.96 76.7377 2176.24 75.7129 Q2176.57 74.6882 2177.14 72.3518 Q2173.33 76.1638 2168.66 76.1638 Q2166.69 76.1638 2164.93 75.631 Q2163.21 75.0981 2161.69 73.9914 Q2160.18 72.8437 2159.27 70.8352 Q2158.41 68.8267 2158.41 66.1624 Q2158.41 63.3342 2159.52 59.4812 Q2160.63 55.6282 2163.29 48.537 Q2164.73 44.5611 2164.73 42.6346 Q2164.73 41.6918 2164.52 41.118 Q2164.32 40.5031 2163.91 40.2982 Q2163.5 40.0523 2163.25 40.0113 Q2163.04 39.9703 2162.63 39.9703 Q2160.22 39.9703 2157.96 42.4296 Q2155.71 44.889 2154.15 50.3816 Q2153.82 51.4063 2153.62 51.6522 Q2153.41 51.8982 2152.8 51.8982 Q2151.77 51.8572 2151.77 51.0374 Q2151.77 50.7095 2152.14 49.4388 Q2152.51 48.1271 2153.37 46.2007 Q2154.27 44.2332 2155.5 42.4706 Q2156.73 40.6671 2158.66 39.3964 Q2160.63 38.1258 2162.88 38.1258 Q2165.95 38.1258 2167.84 40.1342 Q2169.77 42.1017 2169.77 45.012 Q2169.77 46.2007 2169.44 47.2664 Q2169.15 48.2911 2168.09 51.0374 Q2163.78 62.1045 2163.78 67.5151 Q2163.78 68.8267 2163.99 69.9334 Q2164.23 70.9992 2164.77 72.0649 Q2165.3 73.0896 2166.36 73.7045 Q2167.47 74.2783 2168.99 74.2783 Q2170.91 74.2783 2172.72 73.3765 Q2174.56 72.4338 2175.71 71.1631 Q2176.9 69.8925 2177.6 68.8267 Q2178.33 67.72 2178.5 67.1462 L2182.27 52.0621 L2183.95 45.3399 Q2184.73 41.6918 2185.1 40.7901 Q2185.59 39.9293 2186.45 39.4784 Q2187.31 39.0275 2188.05 39.0275 Q2189.07 39.0275 2189.77 39.6424 Q2190.51 40.2572 2190.51 41.3229 Z" fill="#000000" fill-rule="evenodd" fill-opacity="1" /><path clip-path="url(#clip460)" d="M2202.91 93.6252 L2202.91 15.4587 Q2202.91 12.3435 2204.59 12.3435 Q2206.27 12.3435 2206.27 14.8439 L2206.27 93.0104 Q2206.27 96.1256 2204.59 96.1256 Q2202.91 96.1256 2202.91 93.6252 Z" fill="#000000" fill-rule="evenodd" fill-opacity="1" /><path clip-path="url(#clip460)" d="M2225.46 93.6252 L2225.46 15.4587 Q2225.46 12.3435 2227.14 12.3435 Q2228.82 12.3435 2228.82 14.8439 L2228.82 93.0104 Q2228.82 96.1256 2227.14 96.1256 Q2225.46 96.1256 2225.46 93.6252 Z" fill="#000000" fill-rule="evenodd" fill-opacity="1" /><polyline clip-path="url(#clip463)" style="stroke:#0000ff; stroke-linecap:round; stroke-linejoin:round; stroke-width:4; stroke-opacity:1; fill:none" points="
  1250.12,804.96 1931.6,464.216 
  "/>
<polyline clip-path="url(#clip463)" style="stroke:#0000ff; stroke-linecap:round; stroke-linejoin:round; stroke-width:4; stroke-opacity:1; fill:none" points="
  1891.36,464.216 1931.6,464.216 1907.46,496.415 
  "/>
<polyline clip-path="url(#clip463)" style="stroke:#0000ff; stroke-linecap:round; stroke-linejoin:round; stroke-width:4; stroke-opacity:1; fill:none" points="
  1931.6,464.216 1250.12,804.96 
  "/>
<polyline clip-path="url(#clip463)" style="stroke:#0000ff; stroke-linecap:round; stroke-linejoin:round; stroke-width:4; stroke-opacity:1; fill:none" points="
  1250.12,804.96 1590.86,634.588 
  "/>
<polyline clip-path="url(#clip463)" style="stroke:#0000ff; stroke-linecap:round; stroke-linejoin:round; stroke-width:4; stroke-opacity:1; fill:none" points="
  1550.61,634.588 1590.86,634.588 1566.71,666.787 
  "/>
<polyline clip-path="url(#clip463)" style="stroke:#0000ff; stroke-linecap:round; stroke-linejoin:round; stroke-width:4; stroke-opacity:1; fill:none" points="
  1590.86,634.588 1250.12,804.96 
  "/>
<path clip-path="url(#clip460)" d="M1994.65 453.443 Q1994.65 455.739 1993.21 457.05 Q1991.78 458.321 1990.14 458.321 Q1988.58 458.321 1987.76 457.419 Q1986.94 456.518 1986.94 455.37 Q1986.94 453.812 1988.09 452.46 Q1989.24 451.107 1990.96 450.82 Q1989.28 449.754 1986.78 449.754 Q1985.14 449.754 1983.7 450.615 Q1982.31 451.476 1981.45 452.583 Q1980.63 453.689 1979.89 455.288 Q1979.19 456.845 1978.91 457.788 Q1978.66 458.69 1978.46 459.674 L1975.59 471.151 Q1974.19 476.602 1974.19 478.529 Q1974.19 480.906 1975.34 482.505 Q1976.49 484.062 1978.78 484.062 Q1979.69 484.062 1980.71 483.816 Q1981.73 483.53 1983.05 482.792 Q1984.4 482.013 1985.59 480.865 Q1986.82 479.677 1988.01 477.668 Q1989.19 475.66 1989.97 473.077 Q1990.22 472.175 1991.04 472.175 Q1992.06 472.175 1992.06 472.995 Q1992.06 473.692 1991.49 475.168 Q1990.96 476.602 1989.77 478.488 Q1988.62 480.332 1987.1 482.013 Q1985.59 483.652 1983.33 484.8 Q1981.08 485.948 1978.62 485.948 Q1975.09 485.948 1972.76 484.062 Q1970.42 482.177 1969.56 479.554 Q1969.36 479.922 1969.07 480.414 Q1968.78 480.906 1967.92 482.013 Q1967.1 483.079 1966.16 483.898 Q1965.22 484.677 1963.74 485.292 Q1962.31 485.948 1960.75 485.948 Q1958.78 485.948 1957.02 485.374 Q1955.3 484.8 1954.07 483.489 Q1952.84 482.177 1952.84 480.373 Q1952.84 478.365 1954.19 476.971 Q1955.58 475.537 1957.47 475.537 Q1958.66 475.537 1959.6 476.233 Q1960.58 476.93 1960.58 478.447 Q1960.58 480.127 1959.44 481.398 Q1958.29 482.669 1956.65 482.997 Q1958.33 484.062 1960.83 484.062 Q1963.54 484.062 1965.67 481.685 Q1967.8 479.308 1968.82 475.332 Q1971.36 465.781 1972.35 461.518 Q1973.33 457.214 1973.33 455.37 Q1973.33 453.648 1972.88 452.46 Q1972.43 451.271 1971.65 450.738 Q1970.91 450.164 1970.22 449.959 Q1969.56 449.754 1968.82 449.754 Q1967.59 449.754 1966.2 450.246 Q1964.85 450.738 1963.21 451.886 Q1961.61 452.992 1960.09 455.288 Q1958.58 457.583 1957.55 460.739 Q1957.35 461.682 1956.44 461.682 Q1955.46 461.641 1955.46 460.821 Q1955.46 460.125 1955.99 458.69 Q1956.57 457.214 1957.71 455.37 Q1958.9 453.525 1960.42 451.886 Q1961.98 450.205 1964.23 449.058 Q1966.53 447.91 1968.99 447.91 Q1970.09 447.91 1971.16 448.156 Q1972.27 448.361 1973.58 448.976 Q1974.93 449.59 1976.12 450.943 Q1977.31 452.296 1978.05 454.263 Q1978.54 453.32 1979.19 452.419 Q1979.89 451.517 1980.96 450.41 Q1982.06 449.262 1983.58 448.607 Q1985.14 447.91 1986.86 447.91 Q1988.54 447.91 1990.18 448.361 Q1991.82 448.771 1993.21 450.123 Q1994.65 451.435 1994.65 453.443 Z" fill="#000000" fill-rule="evenodd" fill-opacity="1" /><path clip-path="url(#clip460)" d="M2023.67 472.257 Q2023.75 471.233 2025.35 471.233 L2076.79 471.233 Q2079.21 471.233 2079.25 472.175 Q2079.25 473.2 2076.95 473.159 L2025.92 473.159 Q2023.67 473.2 2023.67 472.257 M2023.67 455.862 Q2023.67 454.837 2025.43 454.878 L2076.71 454.878 Q2079.21 454.878 2079.25 455.862 Q2079.25 456.805 2077.12 456.805 L2025.35 456.805 Q2023.67 456.805 2023.67 455.862 Z" fill="#000000" fill-rule="evenodd" fill-opacity="1" /><path clip-path="url(#clip460)" d="M2111.63 464.019 Q2111.63 449.836 2116.91 438.4 Q2119.17 433.605 2122.32 429.588 Q2125.48 425.571 2127.57 423.808 Q2129.66 422.046 2130.23 422.046 Q2131.05 422.046 2131.1 422.865 Q2131.1 423.275 2129.99 424.3 Q2116.46 438.072 2116.5 464.019 Q2116.5 490.047 2129.66 503.286 Q2131.1 504.721 2131.1 505.172 Q2131.1 505.992 2130.23 505.992 Q2129.66 505.992 2127.65 504.311 Q2125.64 502.631 2122.53 498.778 Q2119.41 494.925 2117.16 490.211 Q2111.63 478.775 2111.63 464.019 Z" fill="#000000" fill-rule="evenodd" fill-opacity="1" /><path clip-path="url(#clip460)" d="M2139.15 485.005 Q2139.15 483.489 2139.28 483.038 Q2139.44 482.587 2140.1 481.89 L2156.21 463.937 Q2165.02 454.017 2165.02 445.368 Q2165.02 439.753 2162.07 435.736 Q2159.16 431.719 2153.79 431.719 Q2150.1 431.719 2146.98 433.973 Q2143.87 436.228 2142.43 440.245 Q2142.68 440.163 2143.54 440.163 Q2145.63 440.163 2146.78 441.475 Q2147.97 442.786 2147.97 444.549 Q2147.97 446.803 2146.49 447.91 Q2145.06 448.976 2143.62 448.976 Q2143.05 448.976 2142.27 448.853 Q2141.53 448.73 2140.34 447.582 Q2139.15 446.393 2139.15 444.303 Q2139.15 438.441 2143.58 433.769 Q2148.05 429.096 2154.85 429.096 Q2162.56 429.096 2167.6 433.687 Q2172.68 438.236 2172.68 445.368 Q2172.68 447.869 2171.91 450.164 Q2171.17 452.419 2170.14 454.181 Q2169.16 455.944 2166.45 458.772 Q2163.75 461.6 2161.58 463.609 Q2159.4 465.617 2154.53 469.88 L2145.63 478.529 L2160.76 478.529 Q2168.13 478.529 2168.71 477.873 Q2169.53 476.684 2170.55 470.413 L2172.68 470.413 L2170.31 485.005 L2139.15 485.005 Z" fill="#000000" fill-rule="evenodd" fill-opacity="1" /><path clip-path="url(#clip460)" d="M2181.91 483.652 Q2180.73 482.3 2180.73 480.537 Q2180.73 478.775 2181.87 477.463 Q2183.06 476.11 2185.19 476.11 Q2187.69 476.11 2189.13 478.529 Q2190.56 480.906 2190.56 484.923 Q2190.56 489.268 2188.8 493.285 Q2187.04 497.343 2185.32 499.269 Q2183.59 501.196 2182.9 501.196 Q2182.08 501.196 2182.08 500.294 Q2182.08 499.966 2182.65 499.351 Q2188.68 492.875 2188.72 484.923 Q2188.72 483.652 2188.55 483.652 L2188.35 483.816 Q2186.91 485.005 2185.19 485.005 Q2183.1 485.005 2181.91 483.652 Z" fill="#000000" fill-rule="evenodd" fill-opacity="1" /><path clip-path="url(#clip460)" d="M2217.05 437.089 L2217.05 434.465 Q2227.14 434.465 2232.34 429.096 Q2233.78 429.096 2234.02 429.424 Q2234.27 429.752 2234.27 431.268 L2234.27 478.365 Q2234.27 480.865 2235.5 481.644 Q2236.73 482.423 2242.1 482.423 L2244.76 482.423 L2244.76 485.005 Q2241.81 484.759 2231.15 484.759 Q2220.5 484.759 2217.58 485.005 L2217.58 482.423 L2220.25 482.423 Q2225.54 482.423 2226.81 481.685 Q2228.08 480.906 2228.08 478.365 L2228.08 434.875 Q2223.69 437.089 2217.05 437.089 Z" fill="#000000" fill-rule="evenodd" fill-opacity="1" /><path clip-path="url(#clip460)" d="M2257.28 505.172 Q2257.28 504.762 2258.34 503.737 Q2271.87 489.965 2271.87 464.019 Q2271.87 437.99 2258.88 424.833 Q2257.28 423.316 2257.28 422.865 Q2257.28 422.046 2258.1 422.046 Q2258.67 422.046 2260.68 423.726 Q2262.73 425.407 2265.8 429.26 Q2268.92 433.113 2271.21 437.826 Q2276.75 449.262 2276.75 464.019 Q2276.75 478.201 2271.46 489.637 Q2269.21 494.433 2266.05 498.45 Q2262.89 502.467 2260.8 504.229 Q2258.71 505.992 2258.1 505.992 Q2257.28 505.992 2257.28 505.172 Z" fill="#000000" fill-rule="evenodd" fill-opacity="1" /><path clip-path="url(#clip460)" d="M2296.17 429.26 Q2296.17 427.169 2297.44 426.308 Q2298.71 425.407 2300.06 425.407 Q2301.74 425.407 2302.81 426.431 Q2303.91 427.415 2303.91 429.26 Q2303.91 430.079 2303.83 430.53 L2301.04 455.862 L2299.12 455.862 L2296.25 430.53 Q2296.17 430.079 2296.17 429.26 Z" fill="#000000" fill-rule="evenodd" fill-opacity="1" /><path clip-path="url(#clip460)" d="M1301.16 553.33 Q1301.16 553.904 1300.79 555.257 L1292.76 587.31 Q1291 594.442 1285.26 599.443 Q1279.56 604.444 1273.08 604.444 Q1269.19 604.444 1266.69 602.353 Q1264.19 600.304 1264.19 597.148 Q1264.19 594.36 1265.67 593.008 Q1267.14 591.696 1268.9 591.696 Q1269.48 591.696 1270.09 591.86 Q1270.71 592.024 1271.36 592.721 Q1272.02 593.418 1272.02 594.606 Q1272.02 596.533 1270.34 598.049 Q1269.52 598.746 1268.74 598.91 Q1268 599.074 1266.73 599.074 Q1267.22 600.222 1268.13 601.001 Q1269.03 601.78 1270.05 602.066 Q1271.08 602.394 1271.73 602.476 Q1272.43 602.599 1273.08 602.599 Q1278.33 602.599 1282.35 597.312 Q1283.54 595.713 1284.4 594.115 Q1285.3 592.557 1285.96 590.63 Q1286.61 588.745 1286.9 587.72 Q1287.23 586.695 1287.8 584.359 Q1283.99 588.171 1279.32 588.171 Q1277.35 588.171 1275.59 587.638 Q1273.86 587.105 1272.35 585.999 Q1270.83 584.851 1269.93 582.842 Q1269.07 580.834 1269.07 578.17 Q1269.07 575.341 1270.17 571.488 Q1271.28 567.635 1273.95 560.544 Q1275.38 556.568 1275.38 554.642 Q1275.38 553.699 1275.18 553.125 Q1274.97 552.51 1274.56 552.305 Q1274.15 552.06 1273.9 552.019 Q1273.7 551.978 1273.29 551.978 Q1270.87 551.978 1268.62 554.437 Q1266.36 556.896 1264.8 562.389 Q1264.48 563.414 1264.27 563.659 Q1264.07 563.905 1263.45 563.905 Q1262.43 563.864 1262.43 563.045 Q1262.43 562.717 1262.8 561.446 Q1263.17 560.134 1264.03 558.208 Q1264.93 556.24 1266.16 554.478 Q1267.39 552.674 1269.31 551.404 Q1271.28 550.133 1273.54 550.133 Q1276.61 550.133 1278.5 552.141 Q1280.42 554.109 1280.42 557.019 Q1280.42 558.208 1280.09 559.274 Q1279.81 560.298 1278.74 563.045 Q1274.44 574.112 1274.44 579.522 Q1274.44 580.834 1274.64 581.941 Q1274.89 583.006 1275.42 584.072 Q1275.95 585.097 1277.02 585.712 Q1278.13 586.286 1279.64 586.286 Q1281.57 586.286 1283.37 585.384 Q1285.22 584.441 1286.37 583.17 Q1287.55 581.9 1288.25 580.834 Q1288.99 579.727 1289.15 579.153 L1292.92 564.069 L1294.6 557.347 Q1295.38 553.699 1295.75 552.797 Q1296.24 551.937 1297.1 551.486 Q1297.97 551.035 1298.7 551.035 Q1299.73 551.035 1300.42 551.65 Q1301.16 552.264 1301.16 553.33 Z" fill="#000000" fill-rule="evenodd" fill-opacity="1" /><path clip-path="url(#clip460)" d="M1326.44 574.481 Q1326.52 573.456 1328.12 573.456 L1379.56 573.456 Q1381.98 573.456 1382.02 574.399 Q1382.02 575.423 1379.72 575.382 L1328.69 575.382 Q1326.44 575.423 1326.44 574.481 M1326.44 558.085 Q1326.44 557.06 1328.2 557.101 L1379.48 557.101 Q1381.98 557.101 1382.02 558.085 Q1382.02 559.028 1379.89 559.028 L1328.12 559.028 Q1326.44 559.028 1326.44 558.085 Z" fill="#000000" fill-rule="evenodd" fill-opacity="1" /><path clip-path="url(#clip460)" d="M1414.4 566.242 Q1414.4 552.06 1419.68 540.623 Q1421.94 535.828 1425.09 531.811 Q1428.25 527.794 1430.34 526.031 Q1432.43 524.269 1433 524.269 Q1433.82 524.269 1433.87 525.089 Q1433.87 525.498 1432.76 526.523 Q1419.23 540.296 1419.27 566.242 Q1419.27 592.27 1432.43 605.51 Q1433.87 606.944 1433.87 607.395 Q1433.87 608.215 1433 608.215 Q1432.43 608.215 1430.42 606.534 Q1428.41 604.854 1425.3 601.001 Q1422.18 597.148 1419.93 592.434 Q1414.4 580.998 1414.4 566.242 Z" fill="#000000" fill-rule="evenodd" fill-opacity="1" /><path clip-path="url(#clip460)" d="M1444.95 539.312 L1444.95 536.689 Q1455.03 536.689 1460.24 531.319 Q1461.67 531.319 1461.92 531.647 Q1462.16 531.975 1462.16 533.491 L1462.16 580.588 Q1462.16 583.088 1463.39 583.867 Q1464.62 584.646 1469.99 584.646 L1472.66 584.646 L1472.66 587.228 Q1469.71 586.982 1459.05 586.982 Q1448.39 586.982 1445.48 587.228 L1445.48 584.646 L1448.15 584.646 Q1453.43 584.646 1454.7 583.908 Q1455.98 583.129 1455.98 580.588 L1455.98 537.098 Q1451.59 539.312 1444.95 539.312 Z" fill="#000000" fill-rule="evenodd" fill-opacity="1" /><path clip-path="url(#clip460)" d="M1479.29 585.876 Q1478.02 584.523 1478.02 582.76 Q1478.02 580.998 1479.29 579.727 Q1480.56 578.416 1482.49 578.416 Q1484.33 578.416 1485.56 579.645 Q1486.83 580.834 1486.83 582.801 Q1486.83 584.728 1485.48 585.999 Q1484.17 587.228 1482.49 587.228 Q1480.56 587.228 1479.29 585.876 Z" fill="#000000" fill-rule="evenodd" fill-opacity="1" /><path clip-path="url(#clip460)" d="M1501.12 560.38 Q1501.12 548.043 1504.23 541.32 Q1508.58 531.319 1518.83 531.319 Q1521 531.319 1523.25 531.934 Q1525.55 532.508 1528.42 534.762 Q1531.33 537.016 1533.09 540.705 Q1536.45 547.838 1536.45 560.38 Q1536.45 572.636 1533.34 579.317 Q1528.79 589.073 1518.74 589.073 Q1514.97 589.073 1511.12 587.146 Q1507.31 585.22 1504.89 580.588 Q1501.12 573.661 1501.12 560.38 M1508.09 559.356 Q1508.09 572.021 1508.99 577.063 Q1510.01 582.515 1512.8 584.892 Q1515.63 587.228 1518.74 587.228 Q1522.11 587.228 1524.89 584.728 Q1527.72 582.187 1528.58 576.735 Q1529.52 571.365 1529.48 559.356 Q1529.48 547.674 1528.66 543.001 Q1527.56 537.549 1524.61 535.377 Q1521.7 533.163 1518.74 533.163 Q1517.64 533.163 1516.45 533.491 Q1515.3 533.819 1513.62 534.762 Q1511.94 535.705 1510.63 538.041 Q1509.36 540.378 1508.74 543.903 Q1508.09 548.452 1508.09 559.356 Z" fill="#000000" fill-rule="evenodd" fill-opacity="1" /><path clip-path="url(#clip460)" d="M1543.88 585.876 Q1542.69 584.523 1542.69 582.76 Q1542.69 580.998 1543.84 579.686 Q1545.03 578.334 1547.16 578.334 Q1549.66 578.334 1551.09 580.752 Q1552.53 583.129 1552.53 587.146 Q1552.53 591.491 1550.76 595.508 Q1549 599.566 1547.28 601.493 Q1545.56 603.419 1544.86 603.419 Q1544.04 603.419 1544.04 602.517 Q1544.04 602.189 1544.62 601.575 Q1550.64 595.098 1550.68 587.146 Q1550.68 585.876 1550.52 585.876 L1550.31 586.04 Q1548.88 587.228 1547.16 587.228 Q1545.07 587.228 1543.88 585.876 Z" fill="#000000" fill-rule="evenodd" fill-opacity="1" /><path clip-path="url(#clip460)" d="M1579.02 560.38 Q1579.02 548.043 1582.13 541.32 Q1586.48 531.319 1596.72 531.319 Q1598.9 531.319 1601.15 531.934 Q1603.45 532.508 1606.31 534.762 Q1609.22 537.016 1610.99 540.705 Q1614.35 547.838 1614.35 560.38 Q1614.35 572.636 1611.23 579.317 Q1606.68 589.073 1596.64 589.073 Q1592.87 589.073 1589.02 587.146 Q1585.2 585.22 1582.79 580.588 Q1579.02 573.661 1579.02 560.38 M1585.98 559.356 Q1585.98 572.021 1586.89 577.063 Q1587.91 582.515 1590.7 584.892 Q1593.53 587.228 1596.64 587.228 Q1600 587.228 1602.79 584.728 Q1605.62 582.187 1606.48 576.735 Q1607.42 571.365 1607.38 559.356 Q1607.38 547.674 1606.56 543.001 Q1605.45 537.549 1602.5 535.377 Q1599.59 533.163 1596.64 533.163 Q1595.53 533.163 1594.35 533.491 Q1593.2 533.819 1591.52 534.762 Q1589.84 535.705 1588.53 538.041 Q1587.25 540.378 1586.64 543.903 Q1585.98 548.452 1585.98 559.356 Z" fill="#000000" fill-rule="evenodd" fill-opacity="1" /><path clip-path="url(#clip460)" d="M1621.86 585.876 Q1620.59 584.523 1620.59 582.76 Q1620.59 580.998 1621.86 579.727 Q1623.13 578.416 1625.05 578.416 Q1626.9 578.416 1628.13 579.645 Q1629.4 580.834 1629.4 582.801 Q1629.4 584.728 1628.05 585.999 Q1626.73 587.228 1625.05 587.228 Q1623.13 587.228 1621.86 585.876 Z" fill="#000000" fill-rule="evenodd" fill-opacity="1" /><path clip-path="url(#clip460)" d="M1643.69 573.702 Q1643.69 571.201 1645.04 570.259 Q1646.39 569.275 1647.82 569.275 Q1649.75 569.275 1650.86 570.505 Q1652.01 571.693 1652.01 573.374 Q1652.01 575.054 1650.86 576.284 Q1649.75 577.473 1647.82 577.473 Q1646.88 577.473 1646.39 577.309 Q1647.5 581.162 1650.86 583.949 Q1654.26 586.736 1658.73 586.736 Q1664.34 586.736 1667.7 581.285 Q1669.71 577.76 1669.71 569.767 Q1669.71 562.717 1668.2 559.192 Q1665.86 553.822 1661.06 553.822 Q1654.26 553.822 1650.24 559.684 Q1649.75 560.421 1649.18 560.462 Q1648.36 560.462 1648.15 560.011 Q1647.99 559.52 1647.99 558.249 L1647.99 533.409 Q1647.99 531.401 1648.81 531.401 Q1649.14 531.401 1649.83 531.647 Q1655.12 533.983 1660.98 534.024 Q1667.01 534.024 1672.42 531.565 Q1672.83 531.319 1673.07 531.319 Q1673.89 531.319 1673.94 532.262 Q1673.94 532.59 1673.24 533.573 Q1672.58 534.516 1671.15 535.787 Q1669.71 537.016 1667.87 538.205 Q1666.02 539.394 1663.32 540.214 Q1660.65 540.992 1657.7 540.992 Q1654.18 540.992 1650.57 539.886 L1650.57 556.24 Q1654.92 551.978 1661.23 551.978 Q1667.95 551.978 1672.58 557.388 Q1677.21 562.799 1677.21 570.341 Q1677.21 578.252 1671.72 583.662 Q1666.27 589.073 1658.89 589.073 Q1652.17 589.073 1647.91 584.277 Q1643.69 579.481 1643.69 573.702 Z" fill="#000000" fill-rule="evenodd" fill-opacity="1" /><path clip-path="url(#clip460)" d="M1686.94 607.395 Q1686.94 606.985 1688 605.96 Q1701.53 592.188 1701.53 566.242 Q1701.53 540.214 1688.53 527.056 Q1686.94 525.539 1686.94 525.089 Q1686.94 524.269 1687.76 524.269 Q1688.33 524.269 1690.34 525.949 Q1692.39 527.63 1695.46 531.483 Q1698.58 535.336 1700.87 540.05 Q1706.41 551.486 1706.41 566.242 Q1706.41 580.424 1701.12 591.86 Q1698.86 596.656 1695.71 600.673 Q1692.55 604.69 1690.46 606.452 Q1688.37 608.215 1687.76 608.215 Q1686.94 608.215 1686.94 607.395 Z" fill="#000000" fill-rule="evenodd" fill-opacity="1" /><path clip-path="url(#clip460)" d="M1725.82 531.483 Q1725.82 529.392 1727.09 528.532 Q1728.36 527.63 1729.72 527.63 Q1731.4 527.63 1732.46 528.655 Q1733.57 529.638 1733.57 531.483 Q1733.57 532.303 1733.49 532.754 L1730.7 558.085 L1728.77 558.085 L1725.9 532.754 Q1725.82 532.303 1725.82 531.483 Z" fill="#000000" fill-rule="evenodd" fill-opacity="1" /></svg>
