<?xml version="1.0" encoding="utf-8"?>
<svg xmlns="http://www.w3.org/2000/svg" xmlns:xlink="http://www.w3.org/1999/xlink" width="600" height="400" viewBox="0 0 2400 1600">
<defs>
  <clipPath id="clip130">
    <rect x="0" y="0" width="2400" height="1600"/>
  </clipPath>
</defs>
<path clip-path="url(#clip130)" d="
M0 1600 L2400 1600 L2400 0 L0 0  Z
  " fill="#ffffff" fill-rule="evenodd" fill-opacity="1"/>
<defs>
  <clipPath id="clip131">
    <rect x="480" y="0" width="1681" height="1600"/>
  </clipPath>
</defs>
<defs>
  <clipPath id="clip132">
    <rect x="273" y="183" width="1955" height="1303"/>
  </clipPath>
</defs>
<path clip-path="url(#clip130)" d="
M273.245 1486.45 L2226.99 1486.45 L2226.99 183.952 L273.245 183.952  Z
  " fill="#ffffff" fill-rule="evenodd" fill-opacity="1"/>
<polyline clip-path="url(#clip132)" style="stroke:#000000; stroke-linecap:round; stroke-linejoin:round; stroke-width:2; stroke-opacity:0.1; fill:none" points="
  273.245,1486.45 273.245,183.952 
  "/>
<polyline clip-path="url(#clip132)" style="stroke:#000000; stroke-linecap:round; stroke-linejoin:round; stroke-width:2; stroke-opacity:0.1; fill:none" points="
  598.869,1486.45 598.869,183.952 
  "/>
<polyline clip-path="url(#clip132)" style="stroke:#000000; stroke-linecap:round; stroke-linejoin:round; stroke-width:2; stroke-opacity:0.1; fill:none" points="
  924.493,1486.45 924.493,183.952 
  "/>
<polyline clip-path="url(#clip132)" style="stroke:#000000; stroke-linecap:round; stroke-linejoin:round; stroke-width:2; stroke-opacity:0.1; fill:none" points="
  1575.74,1486.45 1575.74,183.952 
  "/>
<polyline clip-path="url(#clip132)" style="stroke:#000000; stroke-linecap:round; stroke-linejoin:round; stroke-width:2; stroke-opacity:0.1; fill:none" points="
  1901.36,1486.45 1901.36,183.952 
  "/>
<polyline clip-path="url(#clip132)" style="stroke:#000000; stroke-linecap:round; stroke-linejoin:round; stroke-width:2; stroke-opacity:0.1; fill:none" points="
  2226.99,1486.45 2226.99,183.952 
  "/>
<polyline clip-path="url(#clip130)" style="stroke:#000000; stroke-linecap:round; stroke-linejoin:round; stroke-width:4; stroke-opacity:1; fill:none" points="
  273.245,835.2 2226.99,835.2 
  "/>
<polyline clip-path="url(#clip130)" style="stroke:#000000; stroke-linecap:round; stroke-linejoin:round; stroke-width:4; stroke-opacity:1; fill:none" points="
  273.245,854.098 273.245,816.302 
  "/>
<polyline clip-path="url(#clip130)" style="stroke:#000000; stroke-linecap:round; stroke-linejoin:round; stroke-width:4; stroke-opacity:1; fill:none" points="
  598.869,854.098 598.869,816.302 
  "/>
<polyline clip-path="url(#clip130)" style="stroke:#000000; stroke-linecap:round; stroke-linejoin:round; stroke-width:4; stroke-opacity:1; fill:none" points="
  924.493,854.098 924.493,816.302 
  "/>
<polyline clip-path="url(#clip130)" style="stroke:#000000; stroke-linecap:round; stroke-linejoin:round; stroke-width:4; stroke-opacity:1; fill:none" points="
  1575.74,854.098 1575.74,816.302 
  "/>
<polyline clip-path="url(#clip130)" style="stroke:#000000; stroke-linecap:round; stroke-linejoin:round; stroke-width:4; stroke-opacity:1; fill:none" points="
  1901.36,854.098 1901.36,816.302 
  "/>
<polyline clip-path="url(#clip130)" style="stroke:#000000; stroke-linecap:round; stroke-linejoin:round; stroke-width:4; stroke-opacity:1; fill:none" points="
  2226.99,854.098 2226.99,816.302 
  "/>
<path clip-path="url(#clip130)" d="M242.713 880.771 L272.389 880.771 L272.389 884.707 L242.713 884.707 L242.713 880.771 Z" fill="#000000" fill-rule="evenodd" fill-opacity="1" /><path clip-path="url(#clip130)" d="M296.648 878.966 Q300.004 879.683 301.879 881.952 Q303.777 884.22 303.777 887.554 Q303.777 892.669 300.259 895.47 Q296.74 898.271 290.259 898.271 Q288.083 898.271 285.768 897.831 Q283.477 897.415 281.023 896.558 L281.023 892.044 Q282.967 893.179 285.282 893.757 Q287.597 894.336 290.12 894.336 Q294.518 894.336 296.81 892.6 Q299.125 890.864 299.125 887.554 Q299.125 884.498 296.972 882.785 Q294.842 881.049 291.023 881.049 L286.995 881.049 L286.995 877.207 L291.208 877.207 Q294.657 877.207 296.486 875.841 Q298.314 874.452 298.314 871.859 Q298.314 869.197 296.416 867.785 Q294.541 866.35 291.023 866.35 Q289.101 866.35 286.902 866.767 Q284.703 867.183 282.064 868.063 L282.064 863.896 Q284.727 863.156 287.041 862.785 Q289.379 862.415 291.439 862.415 Q296.763 862.415 299.865 864.846 Q302.967 867.253 302.967 871.373 Q302.967 874.244 301.324 876.234 Q299.68 878.202 296.648 878.966 Z" fill="#000000" fill-rule="evenodd" fill-opacity="1" /><path clip-path="url(#clip130)" d="M568.811 880.771 L598.487 880.771 L598.487 884.707 L568.811 884.707 L568.811 880.771 Z" fill="#000000" fill-rule="evenodd" fill-opacity="1" /><path clip-path="url(#clip130)" d="M612.607 893.665 L628.927 893.665 L628.927 897.6 L606.982 897.6 L606.982 893.665 Q609.644 890.91 614.228 886.281 Q618.834 881.628 620.015 880.285 Q622.26 877.762 623.14 876.026 Q624.043 874.267 624.043 872.577 Q624.043 869.822 622.098 868.086 Q620.177 866.35 617.075 866.35 Q614.876 866.35 612.422 867.114 Q609.992 867.878 607.214 869.429 L607.214 864.707 Q610.038 863.572 612.492 862.994 Q614.945 862.415 616.982 862.415 Q622.353 862.415 625.547 865.1 Q628.742 867.785 628.742 872.276 Q628.742 874.406 627.931 876.327 Q627.144 878.225 625.038 880.818 Q624.459 881.489 621.357 884.707 Q618.256 887.901 612.607 893.665 Z" fill="#000000" fill-rule="evenodd" fill-opacity="1" /><path clip-path="url(#clip130)" d="M894.25 880.771 L923.926 880.771 L923.926 884.707 L894.25 884.707 L894.25 880.771 Z" fill="#000000" fill-rule="evenodd" fill-opacity="1" /><path clip-path="url(#clip130)" d="M934.829 893.665 L942.467 893.665 L942.467 867.299 L934.157 868.966 L934.157 864.707 L942.421 863.04 L947.097 863.04 L947.097 893.665 L954.736 893.665 L954.736 897.6 L934.829 897.6 L934.829 893.665 Z" fill="#000000" fill-rule="evenodd" fill-opacity="1" /><path clip-path="url(#clip130)" d="M1566.12 893.665 L1573.76 893.665 L1573.76 867.299 L1565.45 868.966 L1565.45 864.707 L1573.72 863.04 L1578.39 863.04 L1578.39 893.665 L1586.03 893.665 L1586.03 897.6 L1566.12 897.6 L1566.12 893.665 Z" fill="#000000" fill-rule="evenodd" fill-opacity="1" /><path clip-path="url(#clip130)" d="M1896.02 893.665 L1912.34 893.665 L1912.34 897.6 L1890.39 897.6 L1890.39 893.665 Q1893.05 890.91 1897.64 886.281 Q1902.24 881.628 1903.42 880.285 Q1905.67 877.762 1906.55 876.026 Q1907.45 874.267 1907.45 872.577 Q1907.45 869.822 1905.51 868.086 Q1903.59 866.35 1900.49 866.35 Q1898.29 866.35 1895.83 867.114 Q1893.4 867.878 1890.62 869.429 L1890.62 864.707 Q1893.45 863.572 1895.9 862.994 Q1898.36 862.415 1900.39 862.415 Q1905.76 862.415 1908.96 865.1 Q1912.15 867.785 1912.15 872.276 Q1912.15 874.406 1911.34 876.327 Q1910.55 878.225 1908.45 880.818 Q1907.87 881.489 1904.77 884.707 Q1901.67 887.901 1896.02 893.665 Z" fill="#000000" fill-rule="evenodd" fill-opacity="1" /><path clip-path="url(#clip130)" d="M2231.24 878.966 Q2234.59 879.683 2236.47 881.952 Q2238.37 884.22 2238.37 887.554 Q2238.37 892.669 2234.85 895.47 Q2231.33 898.271 2224.85 898.271 Q2222.67 898.271 2220.36 897.831 Q2218.07 897.415 2215.61 896.558 L2215.61 892.044 Q2217.56 893.179 2219.87 893.757 Q2222.19 894.336 2224.71 894.336 Q2229.11 894.336 2231.4 892.6 Q2233.71 890.864 2233.71 887.554 Q2233.71 884.498 2231.56 882.785 Q2229.43 881.049 2225.61 881.049 L2221.58 881.049 L2221.58 877.207 L2225.8 877.207 Q2229.25 877.207 2231.07 875.841 Q2232.9 874.452 2232.9 871.859 Q2232.9 869.197 2231 867.785 Q2229.13 866.35 2225.61 866.35 Q2223.69 866.35 2221.49 866.767 Q2219.29 867.183 2216.65 868.063 L2216.65 863.896 Q2219.32 863.156 2221.63 862.785 Q2223.97 862.415 2226.03 862.415 Q2231.35 862.415 2234.45 864.846 Q2237.56 867.253 2237.56 871.373 Q2237.56 874.244 2235.91 876.234 Q2234.27 878.202 2231.24 878.966 Z" fill="#000000" fill-rule="evenodd" fill-opacity="1" /><polyline clip-path="url(#clip132)" style="stroke:#000000; stroke-linecap:round; stroke-linejoin:round; stroke-width:2; stroke-opacity:0.1; fill:none" points="
  273.245,1486.45 2226.99,1486.45 
  "/>
<polyline clip-path="url(#clip132)" style="stroke:#000000; stroke-linecap:round; stroke-linejoin:round; stroke-width:2; stroke-opacity:0.1; fill:none" points="
  273.245,1160.82 2226.99,1160.82 
  "/>
<polyline clip-path="url(#clip132)" style="stroke:#000000; stroke-linecap:round; stroke-linejoin:round; stroke-width:2; stroke-opacity:0.1; fill:none" points="
  273.245,509.576 2226.99,509.576 
  "/>
<polyline clip-path="url(#clip132)" style="stroke:#000000; stroke-linecap:round; stroke-linejoin:round; stroke-width:2; stroke-opacity:0.1; fill:none" points="
  273.245,183.952 2226.99,183.952 
  "/>
<polyline clip-path="url(#clip130)" style="stroke:#000000; stroke-linecap:round; stroke-linejoin:round; stroke-width:4; stroke-opacity:1; fill:none" points="
  1250.12,1486.45 1250.12,183.952 
  "/>
<polyline clip-path="url(#clip130)" style="stroke:#000000; stroke-linecap:round; stroke-linejoin:round; stroke-width:4; stroke-opacity:1; fill:none" points="
  1233.37,1486.45 1266.86,1486.45 
  "/>
<polyline clip-path="url(#clip130)" style="stroke:#000000; stroke-linecap:round; stroke-linejoin:round; stroke-width:4; stroke-opacity:1; fill:none" points="
  1233.37,1160.82 1266.86,1160.82 
  "/>
<polyline clip-path="url(#clip130)" style="stroke:#000000; stroke-linecap:round; stroke-linejoin:round; stroke-width:4; stroke-opacity:1; fill:none" points="
  1233.37,509.576 1266.86,509.576 
  "/>
<polyline clip-path="url(#clip130)" style="stroke:#000000; stroke-linecap:round; stroke-linejoin:round; stroke-width:4; stroke-opacity:1; fill:none" points="
  1233.37,183.952 1266.86,183.952 
  "/>
<path clip-path="url(#clip130)" d="M1154 1486.9 L1183.68 1486.9 L1183.68 1490.83 L1154 1490.83 L1154 1486.9 Z" fill="#000000" fill-rule="evenodd" fill-opacity="1" /><path clip-path="url(#clip130)" d="M1197.8 1499.79 L1214.12 1499.79 L1214.12 1503.73 L1192.17 1503.73 L1192.17 1499.79 Q1194.83 1497.04 1199.42 1492.41 Q1204.02 1487.76 1205.2 1486.41 Q1207.45 1483.89 1208.33 1482.15 Q1209.23 1480.39 1209.23 1478.7 Q1209.23 1475.95 1207.29 1474.21 Q1205.37 1472.48 1202.27 1472.48 Q1200.07 1472.48 1197.61 1473.24 Q1195.18 1474.01 1192.4 1475.56 L1192.4 1470.83 Q1195.23 1469.7 1197.68 1469.12 Q1200.14 1468.54 1202.17 1468.54 Q1207.54 1468.54 1210.74 1471.23 Q1213.93 1473.91 1213.93 1478.4 Q1213.93 1480.53 1213.12 1482.45 Q1212.33 1484.35 1210.23 1486.95 Q1209.65 1487.62 1206.55 1490.83 Q1203.45 1494.03 1197.8 1499.79 Z" fill="#000000" fill-rule="evenodd" fill-opacity="1" /><path clip-path="url(#clip130)" d="M1153.63 1161.28 L1183.31 1161.28 L1183.31 1165.21 L1153.63 1165.21 L1153.63 1161.28 Z" fill="#000000" fill-rule="evenodd" fill-opacity="1" /><path clip-path="url(#clip130)" d="M1194.21 1174.17 L1201.85 1174.17 L1201.85 1147.8 L1193.54 1149.47 L1193.54 1145.21 L1201.8 1143.54 L1206.48 1143.54 L1206.48 1174.17 L1214.12 1174.17 L1214.12 1178.1 L1194.21 1178.1 L1194.21 1174.17 Z" fill="#000000" fill-rule="evenodd" fill-opacity="1" /><path clip-path="url(#clip130)" d="M1194.21 522.921 L1201.85 522.921 L1201.85 496.555 L1193.54 498.222 L1193.54 493.963 L1201.8 492.296 L1206.48 492.296 L1206.48 522.921 L1214.12 522.921 L1214.12 526.856 L1194.21 526.856 L1194.21 522.921 Z" fill="#000000" fill-rule="evenodd" fill-opacity="1" /><path clip-path="url(#clip130)" d="M1197.8 197.297 L1214.12 197.297 L1214.12 201.232 L1192.17 201.232 L1192.17 197.297 Q1194.83 194.542 1199.42 189.913 Q1204.02 185.26 1205.2 183.917 Q1207.45 181.394 1208.33 179.658 Q1209.23 177.899 1209.23 176.209 Q1209.23 173.454 1207.29 171.718 Q1205.37 169.982 1202.27 169.982 Q1200.07 169.982 1197.61 170.746 Q1195.18 171.51 1192.4 173.061 L1192.4 168.339 Q1195.23 167.205 1197.68 166.626 Q1200.14 166.047 1202.17 166.047 Q1207.54 166.047 1210.74 168.732 Q1213.93 171.417 1213.93 175.908 Q1213.93 178.038 1213.12 179.959 Q1212.33 181.857 1210.23 184.45 Q1209.65 185.121 1206.55 188.339 Q1203.45 191.533 1197.8 197.297 Z" fill="#000000" fill-rule="evenodd" fill-opacity="1" /><path clip-path="url(#clip130)" d="M529.674 49.8407 Q529.674 52.1361 528.239 53.4477 Q526.805 54.7184 525.165 54.7184 Q523.608 54.7184 522.788 53.8167 Q521.968 52.9149 521.968 51.7672 Q521.968 50.2096 523.116 48.857 Q524.263 47.5043 525.985 47.2174 Q524.304 46.1517 521.804 46.1517 Q520.165 46.1517 518.73 47.0124 Q517.336 47.8732 516.476 48.9799 Q515.656 50.0866 514.918 51.6852 Q514.221 53.2428 513.934 54.1856 Q513.688 55.0873 513.483 56.0711 L510.614 67.5481 Q509.22 72.9996 509.22 74.9261 Q509.22 77.3035 510.368 78.9021 Q511.516 80.4597 513.811 80.4597 Q514.713 80.4597 515.738 80.2137 Q516.762 79.9268 518.074 79.189 Q519.427 78.4102 520.615 77.2625 Q521.845 76.0738 523.034 74.0654 Q524.222 72.0569 525.001 69.4746 Q525.247 68.5728 526.067 68.5728 Q527.092 68.5728 527.092 69.3926 Q527.092 70.0894 526.518 71.565 Q525.985 72.9996 524.796 74.8851 Q523.649 76.7297 522.132 78.4102 Q520.615 80.0498 518.361 81.1975 Q516.107 82.3452 513.647 82.3452 Q510.122 82.3452 507.786 80.4597 Q505.449 78.5742 504.589 75.9509 Q504.384 76.3198 504.097 76.8116 Q503.81 77.3035 502.949 78.4102 Q502.129 79.4759 501.187 80.2957 Q500.244 81.0745 498.768 81.6894 Q497.334 82.3452 495.776 82.3452 Q493.808 82.3452 492.046 81.7713 Q490.324 81.1975 489.095 79.8858 Q487.865 78.5742 487.865 76.7706 Q487.865 74.7622 489.218 73.3685 Q490.611 71.9339 492.497 71.9339 Q493.685 71.9339 494.628 72.6307 Q495.612 73.3275 495.612 74.8442 Q495.612 76.5247 494.464 77.7954 Q493.317 79.066 491.677 79.394 Q493.358 80.4597 495.858 80.4597 Q498.563 80.4597 500.695 78.0823 Q502.826 75.7049 503.851 71.729 Q506.392 62.1785 507.376 57.9156 Q508.36 53.6117 508.36 51.7672 Q508.36 50.0456 507.909 48.857 Q507.458 47.6683 506.679 47.1354 Q505.941 46.5616 505.244 46.3566 Q504.589 46.1517 503.851 46.1517 Q502.621 46.1517 501.228 46.6435 Q499.875 47.1354 498.235 48.2831 Q496.637 49.3898 495.12 51.6852 Q493.604 53.9806 492.579 57.1368 Q492.374 58.0795 491.472 58.0795 Q490.488 58.0385 490.488 57.2188 Q490.488 56.5219 491.021 55.0873 Q491.595 53.6117 492.743 51.7672 Q493.931 49.9227 495.448 48.2831 Q497.006 46.6025 499.26 45.4548 Q501.555 44.3071 504.015 44.3071 Q505.121 44.3071 506.187 44.5531 Q507.294 44.758 508.606 45.3729 Q509.958 45.9877 511.147 47.3403 Q512.336 48.693 513.073 50.6605 Q513.565 49.7177 514.221 48.816 Q514.918 47.9142 515.984 46.8075 Q517.09 45.6598 518.607 45.004 Q520.165 44.3071 521.886 44.3071 Q523.567 44.3071 525.206 44.758 Q526.846 45.1679 528.239 46.5206 Q529.674 47.8322 529.674 49.8407 Z" fill="#000000" fill-rule="evenodd" fill-opacity="1" /><path clip-path="url(#clip130)" d="M590.212 58.5958 Q581.178 58.5958 577.694 60.6618 Q574.211 62.7278 574.211 67.7104 Q574.211 71.6803 576.803 74.0298 Q579.436 76.3388 583.933 76.3388 Q590.131 76.3388 593.857 71.9638 Q597.625 67.5483 597.625 60.2567 L597.625 58.5958 L590.212 58.5958 M605.078 55.5172 L605.078 81.4024 L597.625 81.4024 L597.625 74.5159 Q595.073 78.6478 591.265 80.6328 Q587.457 82.5772 581.948 82.5772 Q574.98 82.5772 570.848 78.6883 Q566.757 74.759 566.757 68.1965 Q566.757 60.5403 571.861 56.6514 Q577.006 52.7625 587.173 52.7625 L597.625 52.7625 L597.625 52.0334 Q597.625 46.8887 594.222 44.0936 Q590.86 41.258 584.743 41.258 Q580.854 41.258 577.168 42.1897 Q573.481 43.1214 570.079 44.9848 L570.079 38.0983 Q574.17 36.5184 578.018 35.7487 Q581.867 34.9386 585.513 34.9386 Q595.356 34.9386 600.217 40.0427 Q605.078 45.1468 605.078 55.5172 Z" fill="#000000" fill-rule="evenodd" fill-opacity="1" /><path clip-path="url(#clip130)" d="M658.145 54.0183 L658.145 81.4024 L650.692 81.4024 L650.692 54.2614 Q650.692 47.8204 648.18 44.6202 Q645.669 41.42 640.645 41.42 Q634.61 41.42 631.126 45.2684 Q627.642 49.1167 627.642 55.7602 L627.642 81.4024 L620.148 81.4024 L620.148 36.0323 L627.642 36.0323 L627.642 43.0809 Q630.316 38.9895 633.921 36.964 Q637.567 34.9386 642.306 34.9386 Q650.125 34.9386 654.135 39.7997 Q658.145 44.6202 658.145 54.0183 Z" fill="#000000" fill-rule="evenodd" fill-opacity="1" /><path clip-path="url(#clip130)" d="M702.867 42.9188 L702.867 18.3704 L710.321 18.3704 L710.321 81.4024 L702.867 81.4024 L702.867 74.5969 Q700.518 78.6478 696.912 80.6328 Q693.348 82.5772 688.325 82.5772 Q680.101 82.5772 674.916 76.0147 Q669.771 69.4523 669.771 58.7579 Q669.771 48.0635 674.916 41.501 Q680.101 34.9386 688.325 34.9386 Q693.348 34.9386 696.912 36.9235 Q700.518 38.8679 702.867 42.9188 M677.468 58.7579 Q677.468 66.9812 680.83 71.6803 Q684.233 76.3388 690.147 76.3388 Q696.062 76.3388 699.465 71.6803 Q702.867 66.9812 702.867 58.7579 Q702.867 50.5345 699.465 45.876 Q696.062 41.177 690.147 41.177 Q684.233 41.177 680.83 45.876 Q677.468 50.5345 677.468 58.7579 Z" fill="#000000" fill-rule="evenodd" fill-opacity="1" /><path clip-path="url(#clip130)" d="M782.962 39.4496 Q782.962 40.0235 782.593 41.3761 L774.559 73.4297 Q772.797 80.5619 767.058 85.5626 Q761.361 90.5632 754.884 90.5632 Q750.99 90.5632 748.49 88.4728 Q745.99 86.4233 745.99 83.2672 Q745.99 80.4799 747.465 79.1272 Q748.941 77.8156 750.703 77.8156 Q751.277 77.8156 751.892 77.9795 Q752.507 78.1435 753.163 78.8403 Q753.819 79.5371 753.819 80.7258 Q753.819 82.6523 752.138 84.1689 Q751.318 84.8657 750.539 85.0297 Q749.802 85.1937 748.531 85.1937 Q749.023 86.3414 749.925 87.1201 Q750.826 87.8989 751.851 88.1859 Q752.876 88.5138 753.532 88.5958 Q754.228 88.7187 754.884 88.7187 Q760.131 88.7187 764.148 83.4311 Q765.337 81.8325 766.197 80.2339 Q767.099 78.6764 767.755 76.7499 Q768.411 74.8644 768.698 73.8396 Q769.026 72.8149 769.599 70.4785 Q765.787 74.2905 761.115 74.2905 Q759.147 74.2905 757.385 73.7576 Q755.663 73.2248 754.146 72.1181 Q752.63 70.9704 751.728 68.9619 Q750.867 66.9534 750.867 64.2891 Q750.867 61.4609 751.974 57.6079 Q753.081 53.7549 755.745 46.6637 Q757.18 42.6878 757.18 40.7613 Q757.18 39.8185 756.975 39.2447 Q756.77 38.6298 756.36 38.4249 Q755.95 38.1789 755.704 38.138 Q755.499 38.097 755.089 38.097 Q752.671 38.097 750.416 40.5563 Q748.162 43.0157 746.604 48.5082 Q746.277 49.533 746.072 49.7789 Q745.867 50.0249 745.252 50.0249 Q744.227 49.9839 744.227 49.1641 Q744.227 48.8362 744.596 47.5655 Q744.965 46.2538 745.826 44.3273 Q746.727 42.3599 747.957 40.5973 Q749.187 38.7938 751.113 37.5231 Q753.081 36.2525 755.335 36.2525 Q758.409 36.2525 760.295 38.2609 Q762.221 40.2284 762.221 43.1387 Q762.221 44.3273 761.893 45.3931 Q761.606 46.4178 760.541 49.1641 Q756.237 60.2312 756.237 65.6418 Q756.237 66.9534 756.442 68.0601 Q756.688 69.1259 757.221 70.1916 Q757.754 71.2163 758.819 71.8311 Q759.926 72.405 761.443 72.405 Q763.369 72.405 765.173 71.5032 Q767.017 70.5605 768.165 69.2898 Q769.353 68.0191 770.05 66.9534 Q770.788 65.8467 770.952 65.2729 L774.723 50.1888 L776.404 43.4666 Q777.182 39.8185 777.551 38.9168 Q778.043 38.056 778.904 37.6051 Q779.765 37.1542 780.503 37.1542 Q781.527 37.1542 782.224 37.7691 Q782.962 38.3839 782.962 39.4496 Z" fill="#000000" fill-rule="evenodd" fill-opacity="1" /><path clip-path="url(#clip130)" d="M839.754 58.5958 Q830.72 58.5958 827.236 60.6618 Q823.752 62.7278 823.752 67.7104 Q823.752 71.6803 826.345 74.0298 Q828.978 76.3388 833.475 76.3388 Q839.673 76.3388 843.399 71.9638 Q847.167 67.5483 847.167 60.2567 L847.167 58.5958 L839.754 58.5958 M854.62 55.5172 L854.62 81.4024 L847.167 81.4024 L847.167 74.5159 Q844.615 78.6478 840.807 80.6328 Q836.999 82.5772 831.49 82.5772 Q824.522 82.5772 820.39 78.6883 Q816.299 74.759 816.299 68.1965 Q816.299 60.5403 821.403 56.6514 Q826.548 52.7625 836.715 52.7625 L847.167 52.7625 L847.167 52.0334 Q847.167 46.8887 843.764 44.0936 Q840.402 41.258 834.285 41.258 Q830.396 41.258 826.71 42.1897 Q823.023 43.1214 819.621 44.9848 L819.621 38.0983 Q823.712 36.5184 827.56 35.7487 Q831.409 34.9386 835.055 34.9386 Q844.898 34.9386 849.759 40.0427 Q854.62 45.1468 854.62 55.5172 Z" fill="#000000" fill-rule="evenodd" fill-opacity="1" /><path clip-path="url(#clip130)" d="M896.264 42.9999 Q895.008 42.2707 893.509 41.9466 Q892.051 41.582 890.268 41.582 Q883.949 41.582 880.546 45.714 Q877.184 49.8054 877.184 57.5021 L877.184 81.4024 L869.69 81.4024 L869.69 36.0323 L877.184 36.0323 L877.184 43.0809 Q879.533 38.949 883.301 36.964 Q887.068 34.9386 892.456 34.9386 Q893.225 34.9386 894.157 35.0601 Q895.089 35.1411 896.223 35.3437 L896.264 42.9999 Z" fill="#000000" fill-rule="evenodd" fill-opacity="1" /><path clip-path="url(#clip130)" d="M941.067 56.854 L941.067 60.4998 L906.796 60.4998 Q907.282 68.1965 911.414 72.2474 Q915.586 76.2578 923 76.2578 Q927.294 76.2578 931.304 75.2046 Q935.355 74.1513 939.325 72.0448 L939.325 79.0934 Q935.314 80.7948 931.101 81.686 Q926.889 82.5772 922.554 82.5772 Q911.698 82.5772 905.338 76.2578 Q899.018 69.9384 899.018 59.163 Q899.018 48.023 905.014 41.501 Q911.049 34.9386 921.258 34.9386 Q930.413 34.9386 935.719 40.8529 Q941.067 46.7267 941.067 56.854 M933.613 54.6665 Q933.532 48.5496 930.17 44.9038 Q926.848 41.258 921.339 41.258 Q915.1 41.258 911.333 44.7823 Q907.606 48.3066 907.039 54.707 L933.613 54.6665 Z" fill="#000000" fill-rule="evenodd" fill-opacity="1" /><path clip-path="url(#clip130)" d="M1000.29 58.5958 Q991.257 58.5958 987.774 60.6618 Q984.29 62.7278 984.29 67.7104 Q984.29 71.6803 986.882 74.0298 Q989.515 76.3388 994.012 76.3388 Q1000.21 76.3388 1003.94 71.9638 Q1007.7 67.5483 1007.7 60.2567 L1007.7 58.5958 L1000.29 58.5958 M1015.16 55.5172 L1015.16 81.4024 L1007.7 81.4024 L1007.7 74.5159 Q1005.15 78.6478 1001.34 80.6328 Q997.536 82.5772 992.027 82.5772 Q985.059 82.5772 980.928 78.6883 Q976.836 74.759 976.836 68.1965 Q976.836 60.5403 981.94 56.6514 Q987.085 52.7625 997.253 52.7625 L1007.7 52.7625 L1007.7 52.0334 Q1007.7 46.8887 1004.3 44.0936 Q1000.94 41.258 994.822 41.258 Q990.933 41.258 987.247 42.1897 Q983.561 43.1214 980.158 44.9848 L980.158 38.0983 Q984.249 36.5184 988.098 35.7487 Q991.946 34.9386 995.592 34.9386 Q1005.44 34.9386 1010.3 40.0427 Q1015.16 45.1468 1015.16 55.5172 Z" fill="#000000" fill-rule="evenodd" fill-opacity="1" /><path clip-path="url(#clip130)" d="M1068.22 54.0183 L1068.22 81.4024 L1060.77 81.4024 L1060.77 54.2614 Q1060.77 47.8204 1058.26 44.6202 Q1055.75 41.42 1050.72 41.42 Q1044.69 41.42 1041.21 45.2684 Q1037.72 49.1167 1037.72 55.7602 L1037.72 81.4024 L1030.23 81.4024 L1030.23 36.0323 L1037.72 36.0323 L1037.72 43.0809 Q1040.39 38.9895 1044 36.964 Q1047.65 34.9386 1052.39 34.9386 Q1060.2 34.9386 1064.21 39.7997 Q1068.22 44.6202 1068.22 54.0183 Z" fill="#000000" fill-rule="evenodd" fill-opacity="1" /><path clip-path="url(#clip130)" d="M1090.46 23.1504 L1090.46 36.0323 L1105.82 36.0323 L1105.82 41.8251 L1090.46 41.8251 L1090.46 66.4546 Q1090.46 72.0043 1091.96 73.5842 Q1093.5 75.164 1098.16 75.164 L1105.82 75.164 L1105.82 81.4024 L1098.16 81.4024 Q1089.53 81.4024 1086.25 78.2022 Q1082.97 74.9615 1082.97 66.4546 L1082.97 41.8251 L1077.5 41.8251 L1077.5 36.0323 L1082.97 36.0323 L1082.97 23.1504 L1090.46 23.1504 Z" fill="#000000" fill-rule="evenodd" fill-opacity="1" /><path clip-path="url(#clip130)" d="M1115.62 36.0323 L1123.07 36.0323 L1123.07 81.4024 L1115.62 81.4024 L1115.62 36.0323 M1115.62 18.3704 L1123.07 18.3704 L1123.07 27.809 L1115.62 27.809 L1115.62 18.3704 Z" fill="#000000" fill-rule="evenodd" fill-opacity="1" /><path clip-path="url(#clip130)" d="M1134.9 55.3551 L1156.74 55.3551 L1156.74 61.9986 L1134.9 61.9986 L1134.9 55.3551 Z" fill="#000000" fill-rule="evenodd" fill-opacity="1" /><path clip-path="url(#clip130)" d="M1189.23 58.5958 Q1180.19 58.5958 1176.71 60.6618 Q1173.22 62.7278 1173.22 67.7104 Q1173.22 71.6803 1175.82 74.0298 Q1178.45 76.3388 1182.95 76.3388 Q1189.14 76.3388 1192.87 71.9638 Q1196.64 67.5483 1196.64 60.2567 L1196.64 58.5958 L1189.23 58.5958 M1204.09 55.5172 L1204.09 81.4024 L1196.64 81.4024 L1196.64 74.5159 Q1194.09 78.6478 1190.28 80.6328 Q1186.47 82.5772 1180.96 82.5772 Q1173.99 82.5772 1169.86 78.6883 Q1165.77 74.759 1165.77 68.1965 Q1165.77 60.5403 1170.87 56.6514 Q1176.02 52.7625 1186.19 52.7625 L1196.64 52.7625 L1196.64 52.0334 Q1196.64 46.8887 1193.24 44.0936 Q1189.87 41.258 1183.76 41.258 Q1179.87 41.258 1176.18 42.1897 Q1172.49 43.1214 1169.09 44.9848 L1169.09 38.0983 Q1173.18 36.5184 1177.03 35.7487 Q1180.88 34.9386 1184.53 34.9386 Q1194.37 34.9386 1199.23 40.0427 Q1204.09 45.1468 1204.09 55.5172 Z" fill="#000000" fill-rule="evenodd" fill-opacity="1" /><path clip-path="url(#clip130)" d="M1219.44 18.3704 L1226.9 18.3704 L1226.9 81.4024 L1219.44 81.4024 L1219.44 18.3704 Z" fill="#000000" fill-rule="evenodd" fill-opacity="1" /><path clip-path="url(#clip130)" d="M1242.49 36.0323 L1249.95 36.0323 L1249.95 81.4024 L1242.49 81.4024 L1242.49 36.0323 M1242.49 18.3704 L1249.95 18.3704 L1249.95 27.809 L1242.49 27.809 L1242.49 18.3704 Z" fill="#000000" fill-rule="evenodd" fill-opacity="1" /><path clip-path="url(#clip130)" d="M1295.4 58.1908 Q1295.4 50.0889 1292.04 45.633 Q1288.72 41.177 1282.68 41.177 Q1276.68 41.177 1273.32 45.633 Q1270 50.0889 1270 58.1908 Q1270 66.2521 1273.32 70.7081 Q1276.68 75.164 1282.68 75.164 Q1288.72 75.164 1292.04 70.7081 Q1295.4 66.2521 1295.4 58.1908 M1302.85 75.7717 Q1302.85 87.3573 1297.71 92.988 Q1292.56 98.6593 1281.95 98.6593 Q1278.02 98.6593 1274.54 98.0517 Q1271.05 97.4845 1267.77 96.2693 L1267.77 89.0181 Q1271.05 90.8005 1274.25 91.6512 Q1277.45 92.5019 1280.78 92.5019 Q1288.11 92.5019 1291.75 88.6536 Q1295.4 84.8457 1295.4 77.1085 L1295.4 73.4222 Q1293.09 77.4326 1289.48 79.4175 Q1285.88 81.4024 1280.86 81.4024 Q1272.51 81.4024 1267.41 75.0425 Q1262.3 68.6826 1262.3 58.1908 Q1262.3 47.6584 1267.41 41.2985 Q1272.51 34.9386 1280.86 34.9386 Q1285.88 34.9386 1289.48 36.9235 Q1293.09 38.9085 1295.4 42.9188 L1295.4 36.0323 L1302.85 36.0323 L1302.85 75.7717 Z" fill="#000000" fill-rule="evenodd" fill-opacity="1" /><path clip-path="url(#clip130)" d="M1355.92 54.0183 L1355.92 81.4024 L1348.47 81.4024 L1348.47 54.2614 Q1348.47 47.8204 1345.95 44.6202 Q1343.44 41.42 1338.42 41.42 Q1332.38 41.42 1328.9 45.2684 Q1325.42 49.1167 1325.42 55.7602 L1325.42 81.4024 L1317.92 81.4024 L1317.92 36.0323 L1325.42 36.0323 L1325.42 43.0809 Q1328.09 38.9895 1331.7 36.964 Q1335.34 34.9386 1340.08 34.9386 Q1347.9 34.9386 1351.91 39.7997 Q1355.92 44.6202 1355.92 54.0183 Z" fill="#000000" fill-rule="evenodd" fill-opacity="1" /><path clip-path="url(#clip130)" d="M1409.59 56.854 L1409.59 60.4998 L1375.32 60.4998 Q1375.81 68.1965 1379.94 72.2474 Q1384.11 76.2578 1391.53 76.2578 Q1395.82 76.2578 1399.83 75.2046 Q1403.88 74.1513 1407.85 72.0448 L1407.85 79.0934 Q1403.84 80.7948 1399.63 81.686 Q1395.42 82.5772 1391.08 82.5772 Q1380.23 82.5772 1373.87 76.2578 Q1367.55 69.9384 1367.55 59.163 Q1367.55 48.023 1373.54 41.501 Q1379.58 34.9386 1389.79 34.9386 Q1398.94 34.9386 1404.25 40.8529 Q1409.59 46.7267 1409.59 56.854 M1402.14 54.6665 Q1402.06 48.5496 1398.7 44.9038 Q1395.38 41.258 1389.87 41.258 Q1383.63 41.258 1379.86 44.7823 Q1376.13 48.3066 1375.57 54.707 L1402.14 54.6665 Z" fill="#000000" fill-rule="evenodd" fill-opacity="1" /><path clip-path="url(#clip130)" d="M1451.68 42.9188 L1451.68 18.3704 L1459.14 18.3704 L1459.14 81.4024 L1451.68 81.4024 L1451.68 74.5969 Q1449.33 78.6478 1445.73 80.6328 Q1442.16 82.5772 1437.14 82.5772 Q1428.92 82.5772 1423.73 76.0147 Q1418.59 69.4523 1418.59 58.7579 Q1418.59 48.0635 1423.73 41.501 Q1428.92 34.9386 1437.14 34.9386 Q1442.16 34.9386 1445.73 36.9235 Q1449.33 38.8679 1451.68 42.9188 M1426.28 58.7579 Q1426.28 66.9812 1429.65 71.6803 Q1433.05 76.3388 1438.96 76.3388 Q1444.88 76.3388 1448.28 71.6803 Q1451.68 66.9812 1451.68 58.7579 Q1451.68 50.5345 1448.28 45.876 Q1444.88 41.177 1438.96 41.177 Q1433.05 41.177 1429.65 45.876 Q1426.28 50.5345 1426.28 58.7579 Z" fill="#000000" fill-rule="evenodd" fill-opacity="1" /><path clip-path="url(#clip130)" d="M1518.44 41.258 Q1512.45 41.258 1508.96 45.957 Q1505.48 50.6156 1505.48 58.7579 Q1505.48 66.9002 1508.92 71.5992 Q1512.41 76.2578 1518.44 76.2578 Q1524.4 76.2578 1527.88 71.5587 Q1531.36 66.8597 1531.36 58.7579 Q1531.36 50.6966 1527.88 45.9975 Q1524.4 41.258 1518.44 41.258 M1518.44 34.9386 Q1528.16 34.9386 1533.71 41.258 Q1539.26 47.5774 1539.26 58.7579 Q1539.26 69.8979 1533.71 76.2578 Q1528.16 82.5772 1518.44 82.5772 Q1508.68 82.5772 1503.13 76.2578 Q1497.62 69.8979 1497.62 58.7579 Q1497.62 47.5774 1503.13 41.258 Q1508.68 34.9386 1518.44 34.9386 Z" fill="#000000" fill-rule="evenodd" fill-opacity="1" /><path clip-path="url(#clip130)" d="M1577.91 42.9999 Q1576.65 42.2707 1575.15 41.9466 Q1573.7 41.582 1571.91 41.582 Q1565.59 41.582 1562.19 45.714 Q1558.83 49.8054 1558.83 57.5021 L1558.83 81.4024 L1551.34 81.4024 L1551.34 36.0323 L1558.83 36.0323 L1558.83 43.0809 Q1561.18 38.949 1564.95 36.964 Q1568.71 34.9386 1574.1 34.9386 Q1574.87 34.9386 1575.8 35.0601 Q1576.73 35.1411 1577.87 35.3437 L1577.91 42.9999 Z" fill="#000000" fill-rule="evenodd" fill-opacity="1" /><path clip-path="url(#clip130)" d="M1629.68 41.258 Q1623.68 41.258 1620.2 45.957 Q1616.72 50.6156 1616.72 58.7579 Q1616.72 66.9002 1620.16 71.5992 Q1623.64 76.2578 1629.68 76.2578 Q1635.63 76.2578 1639.12 71.5587 Q1642.6 66.8597 1642.6 58.7579 Q1642.6 50.6966 1639.12 45.9975 Q1635.63 41.258 1629.68 41.258 M1629.68 34.9386 Q1639.4 34.9386 1644.95 41.258 Q1650.5 47.5774 1650.5 58.7579 Q1650.5 69.8979 1644.95 76.2578 Q1639.4 82.5772 1629.68 82.5772 Q1619.92 82.5772 1614.37 76.2578 Q1608.86 69.8979 1608.86 58.7579 Q1608.86 47.5774 1614.37 41.258 Q1619.92 34.9386 1629.68 34.9386 Z" fill="#000000" fill-rule="evenodd" fill-opacity="1" /><path clip-path="url(#clip130)" d="M1670.07 74.5969 L1670.07 98.6593 L1662.57 98.6593 L1662.57 36.0323 L1670.07 36.0323 L1670.07 42.9188 Q1672.42 38.8679 1675.98 36.9235 Q1679.59 34.9386 1684.57 34.9386 Q1692.83 34.9386 1697.98 41.501 Q1703.16 48.0635 1703.16 58.7579 Q1703.16 69.4523 1697.98 76.0147 Q1692.83 82.5772 1684.57 82.5772 Q1679.59 82.5772 1675.98 80.6328 Q1672.42 78.6478 1670.07 74.5969 M1695.43 58.7579 Q1695.43 50.5345 1692.02 45.876 Q1688.66 41.177 1682.75 41.177 Q1676.83 41.177 1673.43 45.876 Q1670.07 50.5345 1670.07 58.7579 Q1670.07 66.9812 1673.43 71.6803 Q1676.83 76.3388 1682.75 76.3388 Q1688.66 76.3388 1692.02 71.6803 Q1695.43 66.9812 1695.43 58.7579 Z" fill="#000000" fill-rule="evenodd" fill-opacity="1" /><path clip-path="url(#clip130)" d="M1722.73 74.5969 L1722.73 98.6593 L1715.23 98.6593 L1715.23 36.0323 L1722.73 36.0323 L1722.73 42.9188 Q1725.08 38.8679 1728.64 36.9235 Q1732.25 34.9386 1737.23 34.9386 Q1745.5 34.9386 1750.64 41.501 Q1755.83 48.0635 1755.83 58.7579 Q1755.83 69.4523 1750.64 76.0147 Q1745.5 82.5772 1737.23 82.5772 Q1732.25 82.5772 1728.64 80.6328 Q1725.08 78.6478 1722.73 74.5969 M1748.09 58.7579 Q1748.09 50.5345 1744.69 45.876 Q1741.32 41.177 1735.41 41.177 Q1729.49 41.177 1726.09 45.876 Q1722.73 50.5345 1722.73 58.7579 Q1722.73 66.9812 1726.09 71.6803 Q1729.49 76.3388 1735.41 76.3388 Q1741.32 76.3388 1744.69 71.6803 Q1748.09 66.9812 1748.09 58.7579 Z" fill="#000000" fill-rule="evenodd" fill-opacity="1" /><path clip-path="url(#clip130)" d="M1785.76 41.258 Q1779.77 41.258 1776.28 45.957 Q1772.8 50.6156 1772.8 58.7579 Q1772.8 66.9002 1776.24 71.5992 Q1779.73 76.2578 1785.76 76.2578 Q1791.72 76.2578 1795.2 71.5587 Q1798.68 66.8597 1798.68 58.7579 Q1798.68 50.6966 1795.2 45.9975 Q1791.72 41.258 1785.76 41.258 M1785.76 34.9386 Q1795.48 34.9386 1801.03 41.258 Q1806.58 47.5774 1806.58 58.7579 Q1806.58 69.8979 1801.03 76.2578 Q1795.48 82.5772 1785.76 82.5772 Q1776 82.5772 1770.45 76.2578 Q1764.94 69.8979 1764.94 58.7579 Q1764.94 47.5774 1770.45 41.258 Q1776 34.9386 1785.76 34.9386 Z" fill="#000000" fill-rule="evenodd" fill-opacity="1" /><path clip-path="url(#clip130)" d="M1847.86 37.3691 L1847.86 44.4177 Q1844.7 42.7973 1841.3 41.9871 Q1837.9 41.177 1834.25 41.177 Q1828.7 41.177 1825.91 42.8783 Q1823.15 44.5797 1823.15 47.9825 Q1823.15 50.5751 1825.14 52.0739 Q1827.12 53.5322 1833.12 54.869 L1835.67 55.4361 Q1843.61 57.1375 1846.93 60.2567 Q1850.29 63.3354 1850.29 68.8851 Q1850.29 75.2046 1845.27 78.8909 Q1840.29 82.5772 1831.54 82.5772 Q1827.89 82.5772 1823.92 81.848 Q1819.99 81.1594 1815.62 79.7416 L1815.62 72.0448 Q1819.75 74.1918 1823.76 75.2856 Q1827.77 76.3388 1831.7 76.3388 Q1836.96 76.3388 1839.8 74.5564 Q1842.64 72.7335 1842.64 69.4523 Q1842.64 66.4141 1840.57 64.7937 Q1838.54 63.1734 1831.62 61.6745 L1829.02 61.0669 Q1822.1 59.6086 1819.02 56.6109 Q1815.94 53.5727 1815.94 48.3066 Q1815.94 41.9061 1820.48 38.4223 Q1825.01 34.9386 1833.36 34.9386 Q1837.49 34.9386 1841.14 35.5462 Q1844.78 36.1538 1847.86 37.3691 Z" fill="#000000" fill-rule="evenodd" fill-opacity="1" /><path clip-path="url(#clip130)" d="M1900.97 56.854 L1900.97 60.4998 L1866.7 60.4998 Q1867.18 68.1965 1871.32 72.2474 Q1875.49 76.2578 1882.9 76.2578 Q1887.2 76.2578 1891.21 75.2046 Q1895.26 74.1513 1899.23 72.0448 L1899.23 79.0934 Q1895.22 80.7948 1891 81.686 Q1886.79 82.5772 1882.46 82.5772 Q1871.6 82.5772 1865.24 76.2578 Q1858.92 69.9384 1858.92 59.163 Q1858.92 48.023 1864.92 41.501 Q1870.95 34.9386 1881.16 34.9386 Q1890.32 34.9386 1895.62 40.8529 Q1900.97 46.7267 1900.97 56.854 M1893.52 54.6665 Q1893.43 48.5496 1890.07 44.9038 Q1886.75 41.258 1881.24 41.258 Q1875 41.258 1871.24 44.7823 Q1867.51 48.3066 1866.94 54.707 L1893.52 54.6665 Z" fill="#000000" fill-rule="evenodd" fill-opacity="1" /><path clip-path="url(#clip130)" d="M1943.06 42.9188 L1943.06 18.3704 L1950.51 18.3704 L1950.51 81.4024 L1943.06 81.4024 L1943.06 74.5969 Q1940.71 78.6478 1937.1 80.6328 Q1933.54 82.5772 1928.52 82.5772 Q1920.29 82.5772 1915.11 76.0147 Q1909.96 69.4523 1909.96 58.7579 Q1909.96 48.0635 1915.11 41.501 Q1920.29 34.9386 1928.52 34.9386 Q1933.54 34.9386 1937.1 36.9235 Q1940.71 38.8679 1943.06 42.9188 M1917.66 58.7579 Q1917.66 66.9812 1921.02 71.6803 Q1924.42 76.3388 1930.34 76.3388 Q1936.25 76.3388 1939.66 71.6803 Q1943.06 66.9812 1943.06 58.7579 Q1943.06 50.5345 1939.66 45.876 Q1936.25 41.177 1930.34 41.177 Q1924.42 41.177 1921.02 45.876 Q1917.66 50.5345 1917.66 58.7579 Z" fill="#000000" fill-rule="evenodd" fill-opacity="1" /><path clip-path="url(#clip130)" d="M1967.77 71.1131 L1976.32 71.1131 L1976.32 81.4024 L1967.77 81.4024 L1967.77 71.1131 M1967.77 38.5034 L1976.32 38.5034 L1976.32 48.7927 L1967.77 48.7927 L1967.77 38.5034 Z" fill="#000000" fill-rule="evenodd" fill-opacity="1" /><path clip-path="url(#clip130)" d="M868.649 143.451 Q868.649 145.747 867.214 147.058 Q865.78 148.329 864.14 148.329 Q862.582 148.329 861.763 147.427 Q860.943 146.526 860.943 145.378 Q860.943 143.82 862.09 142.468 Q863.238 141.115 864.96 140.828 Q863.279 139.762 860.779 139.762 Q859.139 139.762 857.705 140.623 Q856.311 141.484 855.45 142.591 Q854.63 143.697 853.893 145.296 Q853.196 146.853 852.909 147.796 Q852.663 148.698 852.458 149.682 L849.589 161.159 Q848.195 166.61 848.195 168.537 Q848.195 170.914 849.343 172.513 Q850.491 174.07 852.786 174.07 Q853.688 174.07 854.712 173.824 Q855.737 173.537 857.049 172.8 Q858.401 172.021 859.59 170.873 Q860.82 169.684 862.009 167.676 Q863.197 165.668 863.976 163.085 Q864.222 162.183 865.042 162.183 Q866.066 162.183 866.066 163.003 Q866.066 163.7 865.493 165.176 Q864.96 166.61 863.771 168.496 Q862.623 170.34 861.107 172.021 Q859.59 173.66 857.336 174.808 Q855.081 175.956 852.622 175.956 Q849.097 175.956 846.76 174.07 Q844.424 172.185 843.563 169.561 Q843.358 169.93 843.071 170.422 Q842.785 170.914 841.924 172.021 Q841.104 173.087 840.161 173.906 Q839.218 174.685 837.743 175.3 Q836.308 175.956 834.751 175.956 Q832.783 175.956 831.021 175.382 Q829.299 174.808 828.069 173.496 Q826.84 172.185 826.84 170.381 Q826.84 168.373 828.192 166.979 Q829.586 165.545 831.471 165.545 Q832.66 165.545 833.603 166.241 Q834.587 166.938 834.587 168.455 Q834.587 170.135 833.439 171.406 Q832.291 172.677 830.652 173.005 Q832.332 174.07 834.833 174.07 Q837.538 174.07 839.669 171.693 Q841.801 169.316 842.826 165.34 Q845.367 155.789 846.351 151.526 Q847.334 147.222 847.334 145.378 Q847.334 143.656 846.883 142.468 Q846.433 141.279 845.654 140.746 Q844.916 140.172 844.219 139.967 Q843.563 139.762 842.826 139.762 Q841.596 139.762 840.202 140.254 Q838.85 140.746 837.21 141.894 Q835.611 143 834.095 145.296 Q832.578 147.591 831.553 150.747 Q831.349 151.69 830.447 151.69 Q829.463 151.649 829.463 150.829 Q829.463 150.133 829.996 148.698 Q830.57 147.222 831.717 145.378 Q832.906 143.533 834.423 141.894 Q835.98 140.213 838.235 139.065 Q840.53 137.918 842.989 137.918 Q844.096 137.918 845.162 138.164 Q846.269 138.369 847.58 138.983 Q848.933 139.598 850.122 140.951 Q851.31 142.304 852.048 144.271 Q852.54 143.328 853.196 142.427 Q853.893 141.525 854.958 140.418 Q856.065 139.27 857.582 138.615 Q859.139 137.918 860.861 137.918 Q862.541 137.918 864.181 138.369 Q865.821 138.779 867.214 140.131 Q868.649 141.443 868.649 143.451 Z" fill="#000000" fill-rule="evenodd" fill-opacity="1" /><path clip-path="url(#clip130)" d="M881.032 119.268 Q881.032 117.177 882.303 116.316 Q883.573 115.415 884.926 115.415 Q886.607 115.415 887.672 116.439 Q888.779 117.423 888.779 119.268 Q888.779 120.087 888.697 120.538 L885.91 145.87 L883.983 145.87 L881.114 120.538 Q881.032 120.087 881.032 119.268 Z" fill="#000000" fill-rule="evenodd" fill-opacity="1" /><path clip-path="url(#clip130)" d="M942.866 141.115 Q942.866 141.689 942.497 143.041 L934.463 175.095 Q932.701 182.227 926.962 187.228 Q921.265 192.229 914.788 192.229 Q910.894 192.229 908.394 190.138 Q905.894 188.089 905.894 184.932 Q905.894 182.145 907.369 180.793 Q908.845 179.481 910.607 179.481 Q911.181 179.481 911.796 179.645 Q912.411 179.809 913.067 180.506 Q913.723 181.202 913.723 182.391 Q913.723 184.318 912.042 185.834 Q911.222 186.531 910.444 186.695 Q909.706 186.859 908.435 186.859 Q908.927 188.007 909.829 188.785 Q910.73 189.564 911.755 189.851 Q912.78 190.179 913.436 190.261 Q914.133 190.384 914.788 190.384 Q920.035 190.384 924.052 185.096 Q925.241 183.498 926.101 181.899 Q927.003 180.342 927.659 178.415 Q928.315 176.53 928.602 175.505 Q928.93 174.48 929.504 172.144 Q925.692 175.956 921.019 175.956 Q919.051 175.956 917.289 175.423 Q915.567 174.89 914.051 173.783 Q912.534 172.636 911.632 170.627 Q910.771 168.619 910.771 165.954 Q910.771 163.126 911.878 159.273 Q912.985 155.42 915.649 148.329 Q917.084 144.353 917.084 142.427 Q917.084 141.484 916.879 140.91 Q916.674 140.295 916.264 140.09 Q915.854 139.844 915.608 139.803 Q915.403 139.762 914.993 139.762 Q912.575 139.762 910.321 142.222 Q908.066 144.681 906.509 150.174 Q906.181 151.198 905.976 151.444 Q905.771 151.69 905.156 151.69 Q904.131 151.649 904.131 150.829 Q904.131 150.501 904.5 149.231 Q904.869 147.919 905.73 145.993 Q906.632 144.025 907.861 142.263 Q909.091 140.459 911.017 139.188 Q912.985 137.918 915.239 137.918 Q918.313 137.918 920.199 139.926 Q922.125 141.894 922.125 144.804 Q922.125 145.993 921.798 147.058 Q921.511 148.083 920.445 150.829 Q916.141 161.896 916.141 167.307 Q916.141 168.619 916.346 169.725 Q916.592 170.791 917.125 171.857 Q917.658 172.882 918.723 173.496 Q919.83 174.07 921.347 174.07 Q923.273 174.07 925.077 173.169 Q926.921 172.226 928.069 170.955 Q929.258 169.684 929.954 168.619 Q930.692 167.512 930.856 166.938 L934.627 151.854 L936.308 145.132 Q937.087 141.484 937.455 140.582 Q937.947 139.721 938.808 139.27 Q939.669 138.82 940.407 138.82 Q941.431 138.82 942.128 139.434 Q942.866 140.049 942.866 141.115 Z" fill="#000000" fill-rule="evenodd" fill-opacity="1" /><path clip-path="url(#clip130)" d="M968.139 162.265 Q968.221 161.241 969.82 161.241 L1021.26 161.241 Q1023.68 161.241 1023.72 162.183 Q1023.72 163.208 1021.43 163.167 L970.394 163.167 Q968.139 163.208 968.139 162.265 M968.139 145.87 Q968.139 144.845 969.902 144.886 L1021.18 144.886 Q1023.68 144.886 1023.72 145.87 Q1023.72 146.812 1021.59 146.812 L969.82 146.812 Q968.139 146.812 968.139 145.87 Z" fill="#000000" fill-rule="evenodd" fill-opacity="1" /><path clip-path="url(#clip130)" d="M1134.81 152.838 Q1135.3 153.33 1135.3 154.027 Q1135.3 154.723 1134.81 155.215 Q1134.32 155.707 1133.62 155.707 L1081.07 155.707 Q1080.37 155.707 1079.88 155.215 Q1079.39 154.723 1079.39 154.027 Q1079.39 153.33 1079.88 152.838 Q1080.37 152.346 1081.07 152.346 L1133.62 152.346 Q1134.32 152.346 1134.81 152.838 Z" fill="#000000" fill-rule="evenodd" fill-opacity="1" /><path clip-path="url(#clip130)" d="M1167.35 175.013 Q1167.35 173.496 1167.47 173.046 Q1167.64 172.595 1168.29 171.898 L1184.4 153.945 Q1193.21 144.025 1193.21 135.376 Q1193.21 129.761 1190.26 125.744 Q1187.35 121.727 1181.98 121.727 Q1178.29 121.727 1175.18 123.981 Q1172.06 126.236 1170.63 130.253 Q1170.87 130.171 1171.74 130.171 Q1173.83 130.171 1174.97 131.482 Q1176.16 132.794 1176.16 134.557 Q1176.16 136.811 1174.69 137.918 Q1173.25 138.983 1171.82 138.983 Q1171.24 138.983 1170.47 138.861 Q1169.73 138.738 1168.54 137.59 Q1167.35 136.401 1167.35 134.311 Q1167.35 128.449 1171.78 123.776 Q1176.24 119.104 1183.05 119.104 Q1190.75 119.104 1195.8 123.694 Q1200.88 128.244 1200.88 135.376 Q1200.88 137.877 1200.1 140.172 Q1199.36 142.427 1198.34 144.189 Q1197.35 145.952 1194.65 148.78 Q1191.94 151.608 1189.77 153.617 Q1187.6 155.625 1182.72 159.888 L1173.83 168.537 L1188.95 168.537 Q1196.33 168.537 1196.9 167.881 Q1197.72 166.692 1198.75 160.421 L1200.88 160.421 L1198.5 175.013 L1167.35 175.013 Z" fill="#000000" fill-rule="evenodd" fill-opacity="1" /><path clip-path="url(#clip130)" d="M1210.19 173.66 Q1208.92 172.308 1208.92 170.545 Q1208.92 168.783 1210.19 167.512 Q1211.46 166.2 1213.39 166.2 Q1215.23 166.2 1216.46 167.43 Q1217.73 168.619 1217.73 170.586 Q1217.73 172.513 1216.38 173.783 Q1215.07 175.013 1213.39 175.013 Q1211.46 175.013 1210.19 173.66 Z" fill="#000000" fill-rule="evenodd" fill-opacity="1" /><path clip-path="url(#clip130)" d="M1232.02 161.487 Q1232.02 158.986 1233.37 158.044 Q1234.72 157.06 1236.16 157.06 Q1238.09 157.06 1239.19 158.289 Q1240.34 159.478 1240.34 161.159 Q1240.34 162.839 1239.19 164.069 Q1238.09 165.258 1236.16 165.258 Q1235.22 165.258 1234.72 165.094 Q1235.83 168.947 1239.19 171.734 Q1242.59 174.521 1247.06 174.521 Q1252.68 174.521 1256.04 169.07 Q1258.05 165.545 1258.05 157.552 Q1258.05 150.501 1256.53 146.976 Q1254.19 141.607 1249.4 141.607 Q1242.59 141.607 1238.58 147.468 Q1238.09 148.206 1237.51 148.247 Q1236.69 148.247 1236.49 147.796 Q1236.32 147.304 1236.32 146.034 L1236.32 121.194 Q1236.32 119.186 1237.14 119.186 Q1237.47 119.186 1238.17 119.432 Q1243.46 121.768 1249.32 121.809 Q1255.34 121.809 1260.75 119.35 Q1261.16 119.104 1261.41 119.104 Q1262.23 119.104 1262.27 120.046 Q1262.27 120.374 1261.57 121.358 Q1260.92 122.301 1259.48 123.572 Q1258.05 124.801 1256.2 125.99 Q1254.36 127.179 1251.65 127.998 Q1248.99 128.777 1246.04 128.777 Q1242.51 128.777 1238.91 127.67 L1238.91 144.025 Q1243.25 139.762 1249.56 139.762 Q1256.28 139.762 1260.92 145.173 Q1265.55 150.583 1265.55 158.125 Q1265.55 166.036 1260.06 171.447 Q1254.6 176.858 1247.23 176.858 Q1240.5 176.858 1236.24 172.062 Q1232.02 167.266 1232.02 161.487 Z" fill="#000000" fill-rule="evenodd" fill-opacity="1" /><path clip-path="url(#clip130)" d="M1296.88 162.265 Q1296.96 161.241 1298.56 161.241 L1350 161.241 Q1352.42 161.241 1352.46 162.183 Q1352.46 163.208 1350.17 163.167 L1299.13 163.167 Q1296.88 163.208 1296.88 162.265 M1296.88 145.87 Q1296.88 144.845 1298.64 144.886 L1349.92 144.886 Q1352.42 144.886 1352.46 145.87 Q1352.46 146.812 1350.33 146.812 L1298.56 146.812 Q1296.88 146.812 1296.88 145.87 Z" fill="#000000" fill-rule="evenodd" fill-opacity="1" /><path clip-path="url(#clip130)" d="M1463.55 152.838 Q1464.04 153.33 1464.04 154.027 Q1464.04 154.723 1463.55 155.215 Q1463.06 155.707 1462.36 155.707 L1409.81 155.707 Q1409.11 155.707 1408.62 155.215 Q1408.13 154.723 1408.13 154.027 Q1408.13 153.33 1408.62 152.838 Q1409.11 152.346 1409.81 152.346 L1462.36 152.346 Q1463.06 152.346 1463.55 152.838 Z" fill="#000000" fill-rule="evenodd" fill-opacity="1" /><path clip-path="url(#clip130)" d="M1496.09 193.417 L1496.09 115.251 Q1496.09 112.136 1497.77 112.136 Q1499.45 112.136 1499.45 114.636 L1499.45 192.802 Q1499.45 195.918 1497.77 195.918 Q1496.09 195.918 1496.09 193.417 Z" fill="#000000" fill-rule="evenodd" fill-opacity="1" /><path clip-path="url(#clip130)" d="M1518.64 193.417 L1518.64 115.251 Q1518.64 112.136 1520.32 112.136 Q1522 112.136 1522 114.636 L1522 192.802 Q1522 195.918 1520.32 195.918 Q1518.64 195.918 1518.64 193.417 Z" fill="#000000" fill-rule="evenodd" fill-opacity="1" /><path clip-path="url(#clip130)" d="M1575.28 143.451 Q1575.28 145.747 1573.84 147.058 Q1572.41 148.329 1570.77 148.329 Q1569.21 148.329 1568.39 147.427 Q1567.57 146.526 1567.57 145.378 Q1567.57 143.82 1568.72 142.468 Q1569.87 141.115 1571.59 140.828 Q1569.91 139.762 1567.41 139.762 Q1565.77 139.762 1564.33 140.623 Q1562.94 141.484 1562.08 142.591 Q1561.26 143.697 1560.52 145.296 Q1559.82 146.853 1559.54 147.796 Q1559.29 148.698 1559.09 149.682 L1556.22 161.159 Q1554.82 166.61 1554.82 168.537 Q1554.82 170.914 1555.97 172.513 Q1557.12 174.07 1559.41 174.07 Q1560.32 174.07 1561.34 173.824 Q1562.37 173.537 1563.68 172.8 Q1565.03 172.021 1566.22 170.873 Q1567.45 169.684 1568.64 167.676 Q1569.83 165.668 1570.6 163.085 Q1570.85 162.183 1571.67 162.183 Q1572.69 162.183 1572.69 163.003 Q1572.69 163.7 1572.12 165.176 Q1571.59 166.61 1570.4 168.496 Q1569.25 170.34 1567.73 172.021 Q1566.22 173.66 1563.96 174.808 Q1561.71 175.956 1559.25 175.956 Q1555.73 175.956 1553.39 174.07 Q1551.05 172.185 1550.19 169.561 Q1549.99 169.93 1549.7 170.422 Q1549.41 170.914 1548.55 172.021 Q1547.73 173.087 1546.79 173.906 Q1545.85 174.685 1544.37 175.3 Q1542.94 175.956 1541.38 175.956 Q1539.41 175.956 1537.65 175.382 Q1535.93 174.808 1534.7 173.496 Q1533.47 172.185 1533.47 170.381 Q1533.47 168.373 1534.82 166.979 Q1536.21 165.545 1538.1 165.545 Q1539.29 165.545 1540.23 166.241 Q1541.21 166.938 1541.21 168.455 Q1541.21 170.135 1540.07 171.406 Q1538.92 172.677 1537.28 173.005 Q1538.96 174.07 1541.46 174.07 Q1544.17 174.07 1546.3 171.693 Q1548.43 169.316 1549.45 165.34 Q1552 155.789 1552.98 151.526 Q1553.96 147.222 1553.96 145.378 Q1553.96 143.656 1553.51 142.468 Q1553.06 141.279 1552.28 140.746 Q1551.54 140.172 1550.85 139.967 Q1550.19 139.762 1549.45 139.762 Q1548.22 139.762 1546.83 140.254 Q1545.48 140.746 1543.84 141.894 Q1542.24 143 1540.72 145.296 Q1539.21 147.591 1538.18 150.747 Q1537.98 151.69 1537.07 151.69 Q1536.09 151.649 1536.09 150.829 Q1536.09 150.133 1536.62 148.698 Q1537.2 147.222 1538.35 145.378 Q1539.53 143.533 1541.05 141.894 Q1542.61 140.213 1544.86 139.065 Q1547.16 137.918 1549.62 137.918 Q1550.72 137.918 1551.79 138.164 Q1552.9 138.369 1554.21 138.983 Q1555.56 139.598 1556.75 140.951 Q1557.94 142.304 1558.68 144.271 Q1559.17 143.328 1559.82 142.427 Q1560.52 141.525 1561.59 140.418 Q1562.69 139.27 1564.21 138.615 Q1565.77 137.918 1567.49 137.918 Q1569.17 137.918 1570.81 138.369 Q1572.45 138.779 1573.84 140.131 Q1575.28 141.443 1575.28 143.451 Z" fill="#000000" fill-rule="evenodd" fill-opacity="1" /><path clip-path="url(#clip130)" d="M1588.06 193.417 L1588.06 115.251 Q1588.06 112.136 1589.74 112.136 Q1591.42 112.136 1591.42 114.636 L1591.42 192.802 Q1591.42 195.918 1589.74 195.918 Q1588.06 195.918 1588.06 193.417 Z" fill="#000000" fill-rule="evenodd" fill-opacity="1" /><path clip-path="url(#clip130)" d="M1610.61 193.417 L1610.61 115.251 Q1610.61 112.136 1612.3 112.136 Q1613.98 112.136 1613.98 114.636 L1613.98 192.802 Q1613.98 195.918 1612.3 195.918 Q1610.61 195.918 1610.61 193.417 Z" fill="#000000" fill-rule="evenodd" fill-opacity="1" /><path clip-path="url(#clip130)" d="M1633.17 193.417 L1633.17 115.251 Q1633.17 112.136 1634.85 112.136 Q1636.53 112.136 1636.53 114.636 L1636.53 192.802 Q1636.53 195.918 1634.85 195.918 Q1633.17 195.918 1633.17 193.417 Z" fill="#000000" fill-rule="evenodd" fill-opacity="1" /><path clip-path="url(#clip130)" d="M1655.72 193.417 L1655.72 115.251 Q1655.72 112.136 1657.4 112.136 Q1659.08 112.136 1659.08 114.636 L1659.08 192.802 Q1659.08 195.918 1657.4 195.918 Q1655.72 195.918 1655.72 193.417 Z" fill="#000000" fill-rule="evenodd" fill-opacity="1" /><path clip-path="url(#clip130)" d="M1709.28 141.115 Q1709.28 141.689 1708.91 143.041 L1700.88 175.095 Q1699.11 182.227 1693.38 187.228 Q1687.68 192.229 1681.2 192.229 Q1677.31 192.229 1674.81 190.138 Q1672.31 188.089 1672.31 184.932 Q1672.31 182.145 1673.78 180.793 Q1675.26 179.481 1677.02 179.481 Q1677.59 179.481 1678.21 179.645 Q1678.82 179.809 1679.48 180.506 Q1680.14 181.202 1680.14 182.391 Q1680.14 184.318 1678.46 185.834 Q1677.64 186.531 1676.86 186.695 Q1676.12 186.859 1674.85 186.859 Q1675.34 188.007 1676.24 188.785 Q1677.14 189.564 1678.17 189.851 Q1679.19 190.179 1679.85 190.261 Q1680.55 190.384 1681.2 190.384 Q1686.45 190.384 1690.47 185.096 Q1691.65 183.498 1692.51 181.899 Q1693.42 180.342 1694.07 178.415 Q1694.73 176.53 1695.02 175.505 Q1695.34 174.48 1695.92 172.144 Q1692.1 175.956 1687.43 175.956 Q1685.46 175.956 1683.7 175.423 Q1681.98 174.89 1680.46 173.783 Q1678.95 172.636 1678.05 170.627 Q1677.18 168.619 1677.18 165.954 Q1677.18 163.126 1678.29 159.273 Q1679.4 155.42 1682.06 148.329 Q1683.5 144.353 1683.5 142.427 Q1683.5 141.484 1683.29 140.91 Q1683.09 140.295 1682.68 140.09 Q1682.27 139.844 1682.02 139.803 Q1681.82 139.762 1681.41 139.762 Q1678.99 139.762 1676.73 142.222 Q1674.48 144.681 1672.92 150.174 Q1672.59 151.198 1672.39 151.444 Q1672.18 151.69 1671.57 151.69 Q1670.54 151.649 1670.54 150.829 Q1670.54 150.501 1670.91 149.231 Q1671.28 147.919 1672.14 145.993 Q1673.04 144.025 1674.27 142.263 Q1675.5 140.459 1677.43 139.188 Q1679.4 137.918 1681.65 137.918 Q1684.73 137.918 1686.61 139.926 Q1688.54 141.894 1688.54 144.804 Q1688.54 145.993 1688.21 147.058 Q1687.92 148.083 1686.86 150.829 Q1682.55 161.896 1682.55 167.307 Q1682.55 168.619 1682.76 169.725 Q1683.01 170.791 1683.54 171.857 Q1684.07 172.882 1685.14 173.496 Q1686.24 174.07 1687.76 174.07 Q1689.69 174.07 1691.49 173.169 Q1693.33 172.226 1694.48 170.955 Q1695.67 169.684 1696.37 168.619 Q1697.11 167.512 1697.27 166.938 L1701.04 151.854 L1702.72 145.132 Q1703.5 141.484 1703.87 140.582 Q1704.36 139.721 1705.22 139.27 Q1706.08 138.82 1706.82 138.82 Q1707.84 138.82 1708.54 139.434 Q1709.28 140.049 1709.28 141.115 Z" fill="#000000" fill-rule="evenodd" fill-opacity="1" /><path clip-path="url(#clip130)" d="M1721.68 193.417 L1721.68 115.251 Q1721.68 112.136 1723.36 112.136 Q1725.04 112.136 1725.04 114.636 L1725.04 192.802 Q1725.04 195.918 1723.36 195.918 Q1721.68 195.918 1721.68 193.417 Z" fill="#000000" fill-rule="evenodd" fill-opacity="1" /><path clip-path="url(#clip130)" d="M1744.23 193.417 L1744.23 115.251 Q1744.23 112.136 1745.91 112.136 Q1747.59 112.136 1747.59 114.636 L1747.59 192.802 Q1747.59 195.918 1745.91 195.918 Q1744.23 195.918 1744.23 193.417 Z" fill="#000000" fill-rule="evenodd" fill-opacity="1" /><polyline clip-path="url(#clip132)" style="stroke:#0000ff; stroke-linecap:round; stroke-linejoin:round; stroke-width:4; stroke-opacity:1; fill:none" points="
  1250.12,835.2 1901.36,509.576 
  "/>
<polyline clip-path="url(#clip132)" style="stroke:#0000ff; stroke-linecap:round; stroke-linejoin:round; stroke-width:4; stroke-opacity:1; fill:none" points="
  1861.12,509.576 1901.36,509.576 1877.22,541.775 
  "/>
<polyline clip-path="url(#clip132)" style="stroke:#0000ff; stroke-linecap:round; stroke-linejoin:round; stroke-width:4; stroke-opacity:1; fill:none" points="
  1901.36,509.576 1250.12,835.2 
  "/>
<polyline clip-path="url(#clip132)" style="stroke:#0000ff; stroke-linecap:round; stroke-linejoin:round; stroke-width:4; stroke-opacity:1; fill:none" points="
  1250.12,835.2 924.493,998.012 
  "/>
<polyline clip-path="url(#clip132)" style="stroke:#0000ff; stroke-linecap:round; stroke-linejoin:round; stroke-width:4; stroke-opacity:1; fill:none" points="
  964.742,998.012 924.493,998.012 948.643,965.813 
  "/>
<polyline clip-path="url(#clip132)" style="stroke:#0000ff; stroke-linecap:round; stroke-linejoin:round; stroke-width:4; stroke-opacity:1; fill:none" points="
  924.493,998.012 1250.12,835.2 
  "/>
<path clip-path="url(#clip130)" d="M1955.33 498.803 Q1955.33 501.099 1953.9 502.41 Q1952.47 503.681 1950.83 503.681 Q1949.27 503.681 1948.45 502.779 Q1947.63 501.878 1947.63 500.73 Q1947.63 499.172 1948.78 497.82 Q1949.92 496.467 1951.65 496.18 Q1949.96 495.114 1947.46 495.114 Q1945.82 495.114 1944.39 495.975 Q1943 496.836 1942.14 497.943 Q1941.32 499.049 1940.58 500.648 Q1939.88 502.205 1939.59 503.148 Q1939.35 504.05 1939.14 505.034 L1936.27 516.511 Q1934.88 521.962 1934.88 523.889 Q1934.88 526.266 1936.03 527.865 Q1937.18 529.422 1939.47 529.422 Q1940.37 529.422 1941.4 529.176 Q1942.42 528.89 1943.73 528.152 Q1945.09 527.373 1946.28 526.225 Q1947.51 525.037 1948.69 523.028 Q1949.88 521.02 1950.66 518.437 Q1950.91 517.535 1951.73 517.535 Q1952.75 517.535 1952.75 518.355 Q1952.75 519.052 1952.18 520.528 Q1951.65 521.962 1950.46 523.848 Q1949.31 525.692 1947.79 527.373 Q1946.28 529.012 1944.02 530.16 Q1941.77 531.308 1939.31 531.308 Q1935.78 531.308 1933.45 529.422 Q1931.11 527.537 1930.25 524.914 Q1930.04 525.282 1929.76 525.774 Q1929.47 526.266 1928.61 527.373 Q1927.79 528.439 1926.85 529.258 Q1925.9 530.037 1924.43 530.652 Q1922.99 531.308 1921.44 531.308 Q1919.47 531.308 1917.71 530.734 Q1915.98 530.16 1914.75 528.849 Q1913.53 527.537 1913.53 525.733 Q1913.53 523.725 1914.88 522.331 Q1916.27 520.897 1918.16 520.897 Q1919.35 520.897 1920.29 521.593 Q1921.27 522.29 1921.27 523.807 Q1921.27 525.487 1920.12 526.758 Q1918.98 528.029 1917.34 528.357 Q1919.02 529.422 1921.52 529.422 Q1924.22 529.422 1926.35 527.045 Q1928.49 524.668 1929.51 520.692 Q1932.05 511.141 1933.04 506.878 Q1934.02 502.574 1934.02 500.73 Q1934.02 499.008 1933.57 497.82 Q1933.12 496.631 1932.34 496.098 Q1931.6 495.524 1930.9 495.319 Q1930.25 495.114 1929.51 495.114 Q1928.28 495.114 1926.89 495.606 Q1925.54 496.098 1923.9 497.246 Q1922.3 498.352 1920.78 500.648 Q1919.26 502.943 1918.24 506.099 Q1918.03 507.042 1917.13 507.042 Q1916.15 507.001 1916.15 506.181 Q1916.15 505.485 1916.68 504.05 Q1917.26 502.574 1918.4 500.73 Q1919.59 498.885 1921.11 497.246 Q1922.67 495.565 1924.92 494.418 Q1927.22 493.27 1929.68 493.27 Q1930.78 493.27 1931.85 493.516 Q1932.95 493.721 1934.27 494.336 Q1935.62 494.95 1936.81 496.303 Q1938 497.656 1938.73 499.623 Q1939.23 498.68 1939.88 497.779 Q1940.58 496.877 1941.64 495.77 Q1942.75 494.622 1944.27 493.967 Q1945.82 493.27 1947.55 493.27 Q1949.23 493.27 1950.87 493.721 Q1952.51 494.131 1953.9 495.483 Q1955.33 496.795 1955.33 498.803 Z" fill="#000000" fill-rule="evenodd" fill-opacity="1" /><path clip-path="url(#clip130)" d="M1984.35 517.617 Q1984.44 516.593 1986.03 516.593 L2037.48 516.593 Q2039.89 516.593 2039.94 517.535 Q2039.94 518.56 2037.64 518.519 L1986.61 518.519 Q1984.35 518.56 1984.35 517.617 M1984.35 501.222 Q1984.35 500.197 1986.12 500.238 L2037.39 500.238 Q2039.89 500.238 2039.94 501.222 Q2039.94 502.165 2037.8 502.165 L1986.03 502.165 Q1984.35 502.165 1984.35 501.222 Z" fill="#000000" fill-rule="evenodd" fill-opacity="1" /><path clip-path="url(#clip130)" d="M2072.31 509.379 Q2072.31 495.196 2077.6 483.76 Q2079.86 478.965 2083.01 474.948 Q2086.17 470.931 2088.26 469.168 Q2090.35 467.406 2090.92 467.406 Q2091.74 467.406 2091.78 468.225 Q2091.78 468.635 2090.68 469.66 Q2077.15 483.432 2077.19 509.379 Q2077.19 535.407 2090.35 548.646 Q2091.78 550.081 2091.78 550.532 Q2091.78 551.352 2090.92 551.352 Q2090.35 551.352 2088.34 549.671 Q2086.33 547.991 2083.22 544.138 Q2080.1 540.285 2077.85 535.571 Q2072.31 524.135 2072.31 509.379 Z" fill="#000000" fill-rule="evenodd" fill-opacity="1" /><path clip-path="url(#clip130)" d="M2099.84 530.365 Q2099.84 528.849 2099.97 528.398 Q2100.13 527.947 2100.79 527.25 L2116.89 509.297 Q2125.71 499.377 2125.71 490.728 Q2125.71 485.113 2122.76 481.096 Q2119.85 477.079 2114.48 477.079 Q2110.79 477.079 2107.67 479.333 Q2104.56 481.588 2103.12 485.605 Q2103.37 485.523 2104.23 485.523 Q2106.32 485.523 2107.47 486.835 Q2108.66 488.146 2108.66 489.909 Q2108.66 492.163 2107.18 493.27 Q2105.75 494.336 2104.31 494.336 Q2103.74 494.336 2102.96 494.213 Q2102.22 494.09 2101.03 492.942 Q2099.84 491.753 2099.84 489.663 Q2099.84 483.801 2104.27 479.129 Q2108.74 474.456 2115.54 474.456 Q2123.25 474.456 2128.29 479.047 Q2133.37 483.596 2133.37 490.728 Q2133.37 493.229 2132.59 495.524 Q2131.86 497.779 2130.83 499.541 Q2129.85 501.304 2127.14 504.132 Q2124.44 506.96 2122.26 508.969 Q2120.09 510.977 2115.21 515.24 L2106.32 523.889 L2121.44 523.889 Q2128.82 523.889 2129.4 523.233 Q2130.22 522.044 2131.24 515.773 L2133.37 515.773 L2130.99 530.365 L2099.84 530.365 Z" fill="#000000" fill-rule="evenodd" fill-opacity="1" /><path clip-path="url(#clip130)" d="M2142.6 529.012 Q2141.41 527.66 2141.41 525.897 Q2141.41 524.135 2142.56 522.823 Q2143.75 521.47 2145.88 521.47 Q2148.38 521.47 2149.82 523.889 Q2151.25 526.266 2151.25 530.283 Q2151.25 534.628 2149.49 538.645 Q2147.73 542.703 2146 544.629 Q2144.28 546.556 2143.59 546.556 Q2142.77 546.556 2142.77 545.654 Q2142.77 545.326 2143.34 544.711 Q2149.37 538.235 2149.41 530.283 Q2149.41 529.012 2149.24 529.012 L2149.04 529.176 Q2147.6 530.365 2145.88 530.365 Q2143.79 530.365 2142.6 529.012 Z" fill="#000000" fill-rule="evenodd" fill-opacity="1" /><path clip-path="url(#clip130)" d="M2177.74 482.449 L2177.74 479.825 Q2187.82 479.825 2193.03 474.456 Q2194.46 474.456 2194.71 474.784 Q2194.96 475.112 2194.96 476.628 L2194.96 523.725 Q2194.96 526.225 2196.19 527.004 Q2197.41 527.783 2202.78 527.783 L2205.45 527.783 L2205.45 530.365 Q2202.5 530.119 2191.84 530.119 Q2181.18 530.119 2178.27 530.365 L2178.27 527.783 L2180.94 527.783 Q2186.22 527.783 2187.5 527.045 Q2188.77 526.266 2188.77 523.725 L2188.77 480.235 Q2184.38 482.449 2177.74 482.449 Z" fill="#000000" fill-rule="evenodd" fill-opacity="1" /><path clip-path="url(#clip130)" d="M2217.97 550.532 Q2217.97 550.122 2219.03 549.097 Q2232.56 535.325 2232.56 509.379 Q2232.56 483.35 2219.56 470.193 Q2217.97 468.676 2217.97 468.225 Q2217.97 467.406 2218.79 467.406 Q2219.36 467.406 2221.37 469.086 Q2223.42 470.767 2226.49 474.62 Q2229.61 478.473 2231.9 483.186 Q2237.44 494.622 2237.44 509.379 Q2237.44 523.561 2232.15 534.997 Q2229.89 539.793 2226.74 543.81 Q2223.58 547.827 2221.49 549.589 Q2219.4 551.352 2218.79 551.352 Q2217.97 551.352 2217.97 550.532 Z" fill="#000000" fill-rule="evenodd" fill-opacity="1" /><path clip-path="url(#clip130)" d="M2256.85 474.62 Q2256.85 472.529 2258.12 471.668 Q2259.4 470.767 2260.75 470.767 Q2262.43 470.767 2263.49 471.791 Q2264.6 472.775 2264.6 474.62 Q2264.6 475.439 2264.52 475.89 L2261.73 501.222 L2259.81 501.222 L2256.94 475.89 Q2256.85 475.439 2256.85 474.62 Z" fill="#000000" fill-rule="evenodd" fill-opacity="1" /><path clip-path="url(#clip130)" d="M549.775 1050.03 Q549.775 1050.6 549.406 1051.95 L541.372 1084.01 Q539.609 1091.14 533.871 1096.14 Q528.173 1101.14 521.697 1101.14 Q517.803 1101.14 515.303 1099.05 Q512.802 1097 512.802 1093.85 Q512.802 1091.06 514.278 1089.71 Q515.754 1088.39 517.516 1088.39 Q518.09 1088.39 518.705 1088.56 Q519.32 1088.72 519.975 1089.42 Q520.631 1090.12 520.631 1091.3 Q520.631 1093.23 518.951 1094.75 Q518.131 1095.44 517.352 1095.61 Q516.614 1095.77 515.344 1095.77 Q515.836 1096.92 516.737 1097.7 Q517.639 1098.48 518.664 1098.76 Q519.689 1099.09 520.344 1099.17 Q521.041 1099.3 521.697 1099.3 Q526.944 1099.3 530.961 1094.01 Q532.149 1092.41 533.01 1090.81 Q533.912 1089.25 534.568 1087.33 Q535.223 1085.44 535.51 1084.42 Q535.838 1083.39 536.412 1081.06 Q532.6 1084.87 527.927 1084.87 Q525.96 1084.87 524.197 1084.34 Q522.476 1083.8 520.959 1082.7 Q519.443 1081.55 518.541 1079.54 Q517.68 1077.53 517.68 1074.87 Q517.68 1072.04 518.787 1068.19 Q519.893 1064.33 522.558 1057.24 Q523.992 1053.27 523.992 1051.34 Q523.992 1050.4 523.787 1049.82 Q523.582 1049.21 523.173 1049 Q522.763 1048.76 522.517 1048.72 Q522.312 1048.68 521.902 1048.68 Q519.484 1048.68 517.229 1051.13 Q514.975 1053.59 513.417 1059.09 Q513.089 1060.11 512.884 1060.36 Q512.679 1060.6 512.065 1060.6 Q511.04 1060.56 511.04 1059.74 Q511.04 1059.41 511.409 1058.14 Q511.778 1056.83 512.638 1054.91 Q513.54 1052.94 514.77 1051.18 Q515.999 1049.37 517.926 1048.1 Q519.893 1046.83 522.148 1046.83 Q525.222 1046.83 527.108 1048.84 Q529.034 1050.81 529.034 1053.72 Q529.034 1054.91 528.706 1055.97 Q528.419 1057 527.354 1059.74 Q523.05 1070.81 523.05 1076.22 Q523.05 1077.53 523.255 1078.64 Q523.501 1079.7 524.033 1080.77 Q524.566 1081.79 525.632 1082.41 Q526.739 1082.98 528.255 1082.98 Q530.182 1082.98 531.985 1082.08 Q533.83 1081.14 534.978 1079.87 Q536.166 1078.6 536.863 1077.53 Q537.601 1076.42 537.765 1075.85 L541.536 1060.77 L543.216 1054.04 Q543.995 1050.4 544.364 1049.49 Q544.856 1048.63 545.717 1048.18 Q546.577 1047.73 547.315 1047.73 Q548.34 1047.73 549.037 1048.35 Q549.775 1048.96 549.775 1050.03 Z" fill="#000000" fill-rule="evenodd" fill-opacity="1" /><path clip-path="url(#clip130)" d="M575.048 1071.18 Q575.13 1070.15 576.729 1070.15 L628.17 1070.15 Q630.589 1070.15 630.63 1071.1 Q630.63 1072.12 628.334 1072.08 L577.302 1072.08 Q575.048 1072.12 575.048 1071.18 M575.048 1054.78 Q575.048 1053.76 576.811 1053.8 L628.088 1053.8 Q630.589 1053.8 630.63 1054.78 Q630.63 1055.73 628.498 1055.73 L576.729 1055.73 Q575.048 1055.73 575.048 1054.78 Z" fill="#000000" fill-rule="evenodd" fill-opacity="1" /><path clip-path="url(#clip130)" d="M663.008 1062.94 Q663.008 1048.76 668.296 1037.32 Q670.55 1032.53 673.706 1028.51 Q676.862 1024.49 678.953 1022.73 Q681.043 1020.97 681.617 1020.97 Q682.437 1020.97 682.478 1021.79 Q682.478 1022.2 681.371 1023.22 Q667.845 1036.99 667.886 1062.94 Q667.886 1088.97 681.043 1102.21 Q682.478 1103.64 682.478 1104.09 Q682.478 1104.91 681.617 1104.91 Q681.043 1104.91 679.035 1103.23 Q677.026 1101.55 673.911 1097.7 Q670.796 1093.85 668.542 1089.13 Q663.008 1077.7 663.008 1062.94 Z" fill="#000000" fill-rule="evenodd" fill-opacity="1" /><path clip-path="url(#clip130)" d="M750.659 1061.75 Q751.151 1062.24 751.151 1062.94 Q751.151 1063.64 750.659 1064.13 Q750.167 1064.62 749.47 1064.62 L696.922 1064.62 Q696.225 1064.62 695.733 1064.13 Q695.241 1063.64 695.241 1062.94 Q695.241 1062.24 695.733 1061.75 Q696.225 1061.26 696.922 1061.26 L749.47 1061.26 Q750.167 1061.26 750.659 1061.75 Z" fill="#000000" fill-rule="evenodd" fill-opacity="1" /><path clip-path="url(#clip130)" d="M759.911 1036.01 L759.911 1033.39 Q769.994 1033.39 775.2 1028.02 Q776.634 1028.02 776.88 1028.34 Q777.126 1028.67 777.126 1030.19 L777.126 1077.29 Q777.126 1079.79 778.356 1080.56 Q779.586 1081.34 784.955 1081.34 L787.619 1081.34 L787.619 1083.93 Q784.668 1083.68 774.011 1083.68 Q763.354 1083.68 760.444 1083.93 L760.444 1081.34 L763.108 1081.34 Q768.395 1081.34 769.666 1080.61 Q770.937 1079.83 770.937 1077.29 L770.937 1033.8 Q766.551 1036.01 759.911 1036.01 Z" fill="#000000" fill-rule="evenodd" fill-opacity="1" /><path clip-path="url(#clip130)" d="M794.252 1082.57 Q792.981 1081.22 792.981 1079.46 Q792.981 1077.7 794.252 1076.42 Q795.522 1075.11 797.449 1075.11 Q799.293 1075.11 800.523 1076.34 Q801.794 1077.53 801.794 1079.5 Q801.794 1081.43 800.441 1082.7 Q799.129 1083.93 797.449 1083.93 Q795.522 1083.93 794.252 1082.57 Z" fill="#000000" fill-rule="evenodd" fill-opacity="1" /><path clip-path="url(#clip130)" d="M816.08 1057.08 Q816.08 1044.74 819.195 1038.02 Q823.54 1028.02 833.787 1028.02 Q835.96 1028.02 838.214 1028.63 Q840.51 1029.21 843.379 1031.46 Q846.289 1033.71 848.052 1037.4 Q851.413 1044.54 851.413 1057.08 Q851.413 1069.33 848.298 1076.01 Q843.748 1085.77 833.706 1085.77 Q829.934 1085.77 826.081 1083.84 Q822.269 1081.92 819.851 1077.29 Q816.08 1070.36 816.08 1057.08 M823.048 1056.05 Q823.048 1068.72 823.95 1073.76 Q824.975 1079.21 827.762 1081.59 Q830.59 1083.93 833.706 1083.93 Q837.067 1083.93 839.854 1081.43 Q842.682 1078.88 843.543 1073.43 Q844.486 1068.06 844.445 1056.05 Q844.445 1044.37 843.625 1039.7 Q842.518 1034.25 839.567 1032.07 Q836.657 1029.86 833.706 1029.86 Q832.599 1029.86 831.41 1030.19 Q830.262 1030.52 828.582 1031.46 Q826.901 1032.4 825.59 1034.74 Q824.319 1037.08 823.704 1040.6 Q823.048 1045.15 823.048 1056.05 Z" fill="#000000" fill-rule="evenodd" fill-opacity="1" /><path clip-path="url(#clip130)" d="M858.839 1082.57 Q857.65 1081.22 857.65 1079.46 Q857.65 1077.7 858.798 1076.38 Q859.987 1075.03 862.118 1075.03 Q864.619 1075.03 866.053 1077.45 Q867.488 1079.83 867.488 1083.84 Q867.488 1088.19 865.725 1092.21 Q863.963 1096.26 862.241 1098.19 Q860.52 1100.12 859.823 1100.12 Q859.003 1100.12 859.003 1099.21 Q859.003 1098.89 859.577 1098.27 Q865.602 1091.8 865.643 1083.84 Q865.643 1082.57 865.479 1082.57 L865.274 1082.74 Q863.84 1083.93 862.118 1083.93 Q860.028 1083.93 858.839 1082.57 Z" fill="#000000" fill-rule="evenodd" fill-opacity="1" /><path clip-path="url(#clip130)" d="M972.685 1061.75 Q973.177 1062.24 973.177 1062.94 Q973.177 1063.64 972.685 1064.13 Q972.193 1064.62 971.497 1064.62 L918.948 1064.62 Q918.251 1064.62 917.76 1064.13 Q917.268 1063.64 917.268 1062.94 Q917.268 1062.24 917.76 1061.75 Q918.251 1061.26 918.948 1061.26 L971.497 1061.26 Q972.193 1061.26 972.685 1061.75 Z" fill="#000000" fill-rule="evenodd" fill-opacity="1" /><path clip-path="url(#clip130)" d="M1005.23 1057.08 Q1005.23 1044.74 1008.34 1038.02 Q1012.69 1028.02 1022.94 1028.02 Q1025.11 1028.02 1027.36 1028.63 Q1029.66 1029.21 1032.53 1031.46 Q1035.44 1033.71 1037.2 1037.4 Q1040.56 1044.54 1040.56 1057.08 Q1040.56 1069.33 1037.45 1076.01 Q1032.9 1085.77 1022.85 1085.77 Q1019.08 1085.77 1015.23 1083.84 Q1011.42 1081.92 1009 1077.29 Q1005.23 1070.36 1005.23 1057.08 M1012.2 1056.05 Q1012.2 1068.72 1013.1 1073.76 Q1014.12 1079.21 1016.91 1081.59 Q1019.74 1083.93 1022.85 1083.93 Q1026.21 1083.93 1029 1081.43 Q1031.83 1078.88 1032.69 1073.43 Q1033.63 1068.06 1033.59 1056.05 Q1033.59 1044.37 1032.77 1039.7 Q1031.67 1034.25 1028.71 1032.07 Q1025.8 1029.86 1022.85 1029.86 Q1021.75 1029.86 1020.56 1030.19 Q1019.41 1030.52 1017.73 1031.46 Q1016.05 1032.4 1014.74 1034.74 Q1013.47 1037.08 1012.85 1040.6 Q1012.2 1045.15 1012.2 1056.05 Z" fill="#000000" fill-rule="evenodd" fill-opacity="1" /><path clip-path="url(#clip130)" d="M1048.07 1082.57 Q1046.8 1081.22 1046.8 1079.46 Q1046.8 1077.7 1048.07 1076.42 Q1049.34 1075.11 1051.27 1075.11 Q1053.11 1075.11 1054.34 1076.34 Q1055.61 1077.53 1055.61 1079.5 Q1055.61 1081.43 1054.26 1082.7 Q1052.95 1083.93 1051.27 1083.93 Q1049.34 1083.93 1048.07 1082.57 Z" fill="#000000" fill-rule="evenodd" fill-opacity="1" /><path clip-path="url(#clip130)" d="M1069.9 1070.4 Q1069.9 1067.9 1071.25 1066.96 Q1072.6 1065.97 1074.04 1065.97 Q1075.96 1065.97 1077.07 1067.2 Q1078.22 1068.39 1078.22 1070.07 Q1078.22 1071.75 1077.07 1072.98 Q1075.96 1074.17 1074.04 1074.17 Q1073.09 1074.17 1072.6 1074.01 Q1073.71 1077.86 1077.07 1080.65 Q1080.47 1083.43 1084.94 1083.43 Q1090.56 1083.43 1093.92 1077.98 Q1095.93 1074.46 1095.93 1066.46 Q1095.93 1059.41 1094.41 1055.89 Q1092.07 1050.52 1087.28 1050.52 Q1080.47 1050.52 1076.46 1056.38 Q1075.96 1057.12 1075.39 1057.16 Q1074.57 1057.16 1074.36 1056.71 Q1074.2 1056.22 1074.2 1054.95 L1074.2 1030.11 Q1074.2 1028.1 1075.02 1028.1 Q1075.35 1028.1 1076.05 1028.34 Q1081.33 1030.68 1087.19 1030.72 Q1093.22 1030.72 1098.63 1028.26 Q1099.04 1028.02 1099.29 1028.02 Q1100.11 1028.02 1100.15 1028.96 Q1100.15 1029.29 1099.45 1030.27 Q1098.79 1031.21 1097.36 1032.48 Q1095.93 1033.71 1094.08 1034.9 Q1092.24 1036.09 1089.53 1036.91 Q1086.87 1037.69 1083.92 1037.69 Q1080.39 1037.69 1076.78 1036.58 L1076.78 1052.94 Q1081.13 1048.68 1087.44 1048.68 Q1094.16 1048.68 1098.79 1054.09 Q1103.43 1059.5 1103.43 1067.04 Q1103.43 1074.95 1097.93 1080.36 Q1092.48 1085.77 1085.1 1085.77 Q1078.38 1085.77 1074.12 1080.97 Q1069.9 1076.18 1069.9 1070.4 Z" fill="#000000" fill-rule="evenodd" fill-opacity="1" /><path clip-path="url(#clip130)" d="M1113.15 1104.09 Q1113.15 1103.68 1114.21 1102.66 Q1127.74 1088.89 1127.74 1062.94 Q1127.74 1036.91 1114.75 1023.75 Q1113.15 1022.24 1113.15 1021.79 Q1113.15 1020.97 1113.97 1020.97 Q1114.54 1020.97 1116.55 1022.65 Q1118.6 1024.33 1121.67 1028.18 Q1124.79 1032.03 1127.08 1036.75 Q1132.62 1048.18 1132.62 1062.94 Q1132.62 1077.12 1127.33 1088.56 Q1125.08 1093.35 1121.92 1097.37 Q1118.76 1101.39 1116.67 1103.15 Q1114.58 1104.91 1113.97 1104.91 Q1113.15 1104.91 1113.15 1104.09 Z" fill="#000000" fill-rule="evenodd" fill-opacity="1" /><path clip-path="url(#clip130)" d="M1152.04 1028.18 Q1152.04 1026.09 1153.31 1025.23 Q1154.58 1024.33 1155.93 1024.33 Q1157.61 1024.33 1158.68 1025.35 Q1159.78 1026.34 1159.78 1028.18 Q1159.78 1029 1159.7 1029.45 L1156.91 1054.78 L1154.99 1054.78 L1152.12 1029.45 Q1152.04 1029 1152.04 1028.18 Z" fill="#000000" fill-rule="evenodd" fill-opacity="1" /></svg>
