<?xml version="1.0" encoding="utf-8"?>
<svg xmlns="http://www.w3.org/2000/svg" xmlns:xlink="http://www.w3.org/1999/xlink" width="600" height="400" viewBox="0 0 2400 1600">
<defs>
  <clipPath id="clip540">
    <rect x="0" y="0" width="2400" height="1600"/>
  </clipPath>
</defs>
<path clip-path="url(#clip540)" d="
M0 1600 L2400 1600 L2400 0 L0 0  Z
  " fill="#ffffff" fill-rule="evenodd" fill-opacity="1"/>
<defs>
  <clipPath id="clip541">
    <rect x="480" y="0" width="1681" height="1600"/>
  </clipPath>
</defs>
<path clip-path="url(#clip540)" d="
M170.714 1486.45 L2329.52 1486.45 L2329.52 47.2441 L170.714 47.2441  Z
  " fill="#ffffff" fill-rule="evenodd" fill-opacity="1"/>
<defs>
  <clipPath id="clip542">
    <rect x="170" y="47" width="2160" height="1440"/>
  </clipPath>
</defs>
<polyline clip-path="url(#clip542)" style="stroke:#000000; stroke-linecap:round; stroke-linejoin:round; stroke-width:2; stroke-opacity:0.1; fill:none" points="
  170.714,1486.45 170.714,47.2441 
  "/>
<polyline clip-path="url(#clip542)" style="stroke:#000000; stroke-linecap:round; stroke-linejoin:round; stroke-width:2; stroke-opacity:0.1; fill:none" points="
  530.515,1486.45 530.515,47.2441 
  "/>
<polyline clip-path="url(#clip542)" style="stroke:#000000; stroke-linecap:round; stroke-linejoin:round; stroke-width:2; stroke-opacity:0.1; fill:none" points="
  890.316,1486.45 890.316,47.2441 
  "/>
<polyline clip-path="url(#clip542)" style="stroke:#000000; stroke-linecap:round; stroke-linejoin:round; stroke-width:2; stroke-opacity:0.1; fill:none" points="
  1609.92,1486.45 1609.92,47.2441 
  "/>
<polyline clip-path="url(#clip542)" style="stroke:#000000; stroke-linecap:round; stroke-linejoin:round; stroke-width:2; stroke-opacity:0.1; fill:none" points="
  1969.72,1486.45 1969.72,47.2441 
  "/>
<polyline clip-path="url(#clip542)" style="stroke:#000000; stroke-linecap:round; stroke-linejoin:round; stroke-width:2; stroke-opacity:0.1; fill:none" points="
  2329.52,1486.45 2329.52,47.2441 
  "/>
<polyline clip-path="url(#clip540)" style="stroke:#000000; stroke-linecap:round; stroke-linejoin:round; stroke-width:4; stroke-opacity:1; fill:none" points="
  170.714,1126.65 2329.52,1126.65 
  "/>
<polyline clip-path="url(#clip540)" style="stroke:#000000; stroke-linecap:round; stroke-linejoin:round; stroke-width:4; stroke-opacity:1; fill:none" points="
  170.714,1145.54 170.714,1107.75 
  "/>
<polyline clip-path="url(#clip540)" style="stroke:#000000; stroke-linecap:round; stroke-linejoin:round; stroke-width:4; stroke-opacity:1; fill:none" points="
  530.515,1145.54 530.515,1107.75 
  "/>
<polyline clip-path="url(#clip540)" style="stroke:#000000; stroke-linecap:round; stroke-linejoin:round; stroke-width:4; stroke-opacity:1; fill:none" points="
  890.316,1145.54 890.316,1107.75 
  "/>
<polyline clip-path="url(#clip540)" style="stroke:#000000; stroke-linecap:round; stroke-linejoin:round; stroke-width:4; stroke-opacity:1; fill:none" points="
  1609.92,1145.54 1609.92,1107.75 
  "/>
<polyline clip-path="url(#clip540)" style="stroke:#000000; stroke-linecap:round; stroke-linejoin:round; stroke-width:4; stroke-opacity:1; fill:none" points="
  1969.72,1145.54 1969.72,1107.75 
  "/>
<polyline clip-path="url(#clip540)" style="stroke:#000000; stroke-linecap:round; stroke-linejoin:round; stroke-width:4; stroke-opacity:1; fill:none" points="
  2329.52,1145.54 2329.52,1107.75 
  "/>
<path clip-path="url(#clip540)" d="M140.182 1172.22 L169.858 1172.22 L169.858 1176.15 L140.182 1176.15 L140.182 1172.22 Z" fill="#000000" fill-rule="evenodd" fill-opacity="1" /><path clip-path="url(#clip540)" d="M194.117 1170.41 Q197.473 1171.13 199.348 1173.4 Q201.246 1175.67 201.246 1179 Q201.246 1184.12 197.728 1186.92 Q194.209 1189.72 187.728 1189.72 Q185.552 1189.72 183.237 1189.28 Q180.946 1188.86 178.492 1188.01 L178.492 1183.49 Q180.436 1184.63 182.751 1185.2 Q185.066 1185.78 187.589 1185.78 Q191.987 1185.78 194.279 1184.05 Q196.594 1182.31 196.594 1179 Q196.594 1175.95 194.441 1174.23 Q192.311 1172.5 188.492 1172.5 L184.464 1172.5 L184.464 1168.65 L188.677 1168.65 Q192.126 1168.65 193.955 1167.29 Q195.783 1165.9 195.783 1163.31 Q195.783 1160.64 193.885 1159.23 Q192.01 1157.8 188.492 1157.8 Q186.57 1157.8 184.371 1158.21 Q182.172 1158.63 179.533 1159.51 L179.533 1155.34 Q182.195 1154.6 184.51 1154.23 Q186.848 1153.86 188.908 1153.86 Q194.232 1153.86 197.334 1156.29 Q200.436 1158.7 200.436 1162.82 Q200.436 1165.69 198.793 1167.68 Q197.149 1169.65 194.117 1170.41 Z" fill="#000000" fill-rule="evenodd" fill-opacity="1" /><path clip-path="url(#clip540)" d="M500.457 1172.22 L530.133 1172.22 L530.133 1176.15 L500.457 1176.15 L500.457 1172.22 Z" fill="#000000" fill-rule="evenodd" fill-opacity="1" /><path clip-path="url(#clip540)" d="M544.253 1185.11 L560.573 1185.11 L560.573 1189.05 L538.628 1189.05 L538.628 1185.11 Q541.29 1182.36 545.874 1177.73 Q550.48 1173.07 551.661 1171.73 Q553.906 1169.21 554.786 1167.47 Q555.688 1165.71 555.688 1164.02 Q555.688 1161.27 553.744 1159.53 Q551.823 1157.8 548.721 1157.8 Q546.522 1157.8 544.068 1158.56 Q541.638 1159.32 538.86 1160.88 L538.86 1156.15 Q541.684 1155.02 544.138 1154.44 Q546.591 1153.86 548.628 1153.86 Q553.999 1153.86 557.193 1156.55 Q560.388 1159.23 560.388 1163.72 Q560.388 1165.85 559.577 1167.77 Q558.79 1169.67 556.684 1172.26 Q556.105 1172.94 553.003 1176.15 Q549.901 1179.35 544.253 1185.11 Z" fill="#000000" fill-rule="evenodd" fill-opacity="1" /><path clip-path="url(#clip540)" d="M860.073 1172.22 L889.749 1172.22 L889.749 1176.15 L860.073 1176.15 L860.073 1172.22 Z" fill="#000000" fill-rule="evenodd" fill-opacity="1" /><path clip-path="url(#clip540)" d="M900.652 1185.11 L908.29 1185.11 L908.29 1158.75 L899.98 1160.41 L899.98 1156.15 L908.244 1154.49 L912.92 1154.49 L912.92 1185.11 L920.559 1185.11 L920.559 1189.05 L900.652 1189.05 L900.652 1185.11 Z" fill="#000000" fill-rule="evenodd" fill-opacity="1" /><path clip-path="url(#clip540)" d="M1600.3 1185.11 L1607.94 1185.11 L1607.94 1158.75 L1599.63 1160.41 L1599.63 1156.15 L1607.89 1154.49 L1612.57 1154.49 L1612.57 1185.11 L1620.21 1185.11 L1620.21 1189.05 L1600.3 1189.05 L1600.3 1185.11 Z" fill="#000000" fill-rule="evenodd" fill-opacity="1" /><path clip-path="url(#clip540)" d="M1964.37 1185.11 L1980.69 1185.11 L1980.69 1189.05 L1958.75 1189.05 L1958.75 1185.11 Q1961.41 1182.36 1965.99 1177.73 Q1970.6 1173.07 1971.78 1171.73 Q1974.02 1169.21 1974.9 1167.47 Q1975.81 1165.71 1975.81 1164.02 Q1975.81 1161.27 1973.86 1159.53 Q1971.94 1157.8 1968.84 1157.8 Q1966.64 1157.8 1964.19 1158.56 Q1961.76 1159.32 1958.98 1160.88 L1958.98 1156.15 Q1961.8 1155.02 1964.26 1154.44 Q1966.71 1153.86 1968.75 1153.86 Q1974.12 1153.86 1977.31 1156.55 Q1980.51 1159.23 1980.51 1163.72 Q1980.51 1165.85 1979.7 1167.77 Q1978.91 1169.67 1976.8 1172.26 Q1976.22 1172.94 1973.12 1176.15 Q1970.02 1179.35 1964.37 1185.11 Z" fill="#000000" fill-rule="evenodd" fill-opacity="1" /><path clip-path="url(#clip540)" d="M2333.77 1170.41 Q2337.12 1171.13 2339 1173.4 Q2340.9 1175.67 2340.9 1179 Q2340.9 1184.12 2337.38 1186.92 Q2333.86 1189.72 2327.38 1189.72 Q2325.2 1189.72 2322.89 1189.28 Q2320.6 1188.86 2318.14 1188.01 L2318.14 1183.49 Q2320.09 1184.63 2322.4 1185.2 Q2324.72 1185.78 2327.24 1185.78 Q2331.64 1185.78 2333.93 1184.05 Q2336.24 1182.31 2336.24 1179 Q2336.24 1175.95 2334.09 1174.23 Q2331.96 1172.5 2328.14 1172.5 L2324.11 1172.5 L2324.11 1168.65 L2328.33 1168.65 Q2331.78 1168.65 2333.61 1167.29 Q2335.43 1165.9 2335.43 1163.31 Q2335.43 1160.64 2333.54 1159.23 Q2331.66 1157.8 2328.14 1157.8 Q2326.22 1157.8 2324.02 1158.21 Q2321.82 1158.63 2319.18 1159.51 L2319.18 1155.34 Q2321.85 1154.6 2324.16 1154.23 Q2326.5 1153.86 2328.56 1153.86 Q2333.88 1153.86 2336.98 1156.29 Q2340.09 1158.7 2340.09 1162.82 Q2340.09 1165.69 2338.44 1167.68 Q2336.8 1169.65 2333.77 1170.41 Z" fill="#000000" fill-rule="evenodd" fill-opacity="1" /><polyline clip-path="url(#clip542)" style="stroke:#000000; stroke-linecap:round; stroke-linejoin:round; stroke-width:2; stroke-opacity:0.1; fill:none" points="
  170.714,1486.45 2329.52,1486.45 
  "/>
<polyline clip-path="url(#clip542)" style="stroke:#000000; stroke-linecap:round; stroke-linejoin:round; stroke-width:2; stroke-opacity:0.1; fill:none" points="
  170.714,766.846 2329.52,766.846 
  "/>
<polyline clip-path="url(#clip542)" style="stroke:#000000; stroke-linecap:round; stroke-linejoin:round; stroke-width:2; stroke-opacity:0.1; fill:none" points="
  170.714,407.045 2329.52,407.045 
  "/>
<polyline clip-path="url(#clip542)" style="stroke:#000000; stroke-linecap:round; stroke-linejoin:round; stroke-width:2; stroke-opacity:0.1; fill:none" points="
  170.714,47.2441 2329.52,47.2441 
  "/>
<polyline clip-path="url(#clip540)" style="stroke:#000000; stroke-linecap:round; stroke-linejoin:round; stroke-width:4; stroke-opacity:1; fill:none" points="
  1250.12,1486.45 1250.12,47.2441 
  "/>
<polyline clip-path="url(#clip540)" style="stroke:#000000; stroke-linecap:round; stroke-linejoin:round; stroke-width:4; stroke-opacity:1; fill:none" points="
  1231.62,1486.45 1268.62,1486.45 
  "/>
<polyline clip-path="url(#clip540)" style="stroke:#000000; stroke-linecap:round; stroke-linejoin:round; stroke-width:4; stroke-opacity:1; fill:none" points="
  1231.62,766.846 1268.62,766.846 
  "/>
<polyline clip-path="url(#clip540)" style="stroke:#000000; stroke-linecap:round; stroke-linejoin:round; stroke-width:4; stroke-opacity:1; fill:none" points="
  1231.62,407.045 1268.62,407.045 
  "/>
<polyline clip-path="url(#clip540)" style="stroke:#000000; stroke-linecap:round; stroke-linejoin:round; stroke-width:4; stroke-opacity:1; fill:none" points="
  1231.62,47.2441 1268.62,47.2441 
  "/>
<path clip-path="url(#clip540)" d="M1153.63 1486.9 L1183.31 1486.9 L1183.31 1490.83 L1153.63 1490.83 L1153.63 1486.9 Z" fill="#000000" fill-rule="evenodd" fill-opacity="1" /><path clip-path="url(#clip540)" d="M1194.21 1499.79 L1201.85 1499.79 L1201.85 1473.43 L1193.54 1475.09 L1193.54 1470.83 L1201.8 1469.17 L1206.48 1469.17 L1206.48 1499.79 L1214.12 1499.79 L1214.12 1503.73 L1194.21 1503.73 L1194.21 1499.79 Z" fill="#000000" fill-rule="evenodd" fill-opacity="1" /><path clip-path="url(#clip540)" d="M1194.21 780.191 L1201.85 780.191 L1201.85 753.825 L1193.54 755.492 L1193.54 751.233 L1201.8 749.566 L1206.48 749.566 L1206.48 780.191 L1214.12 780.191 L1214.12 784.126 L1194.21 784.126 L1194.21 780.191 Z" fill="#000000" fill-rule="evenodd" fill-opacity="1" /><path clip-path="url(#clip540)" d="M1197.8 420.39 L1214.12 420.39 L1214.12 424.325 L1192.17 424.325 L1192.17 420.39 Q1194.83 417.635 1199.42 413.006 Q1204.02 408.353 1205.2 407.01 Q1207.45 404.487 1208.33 402.751 Q1209.23 400.992 1209.23 399.302 Q1209.23 396.547 1207.29 394.811 Q1205.37 393.075 1202.27 393.075 Q1200.07 393.075 1197.61 393.839 Q1195.18 394.603 1192.4 396.154 L1192.4 391.432 Q1195.23 390.297 1197.68 389.719 Q1200.14 389.14 1202.17 389.14 Q1207.54 389.14 1210.74 391.825 Q1213.93 394.51 1213.93 399.001 Q1213.93 401.131 1213.12 403.052 Q1212.33 404.95 1210.23 407.543 Q1209.65 408.214 1206.55 411.432 Q1203.45 414.626 1197.8 420.39 Z" fill="#000000" fill-rule="evenodd" fill-opacity="1" /><path clip-path="url(#clip540)" d="M1206.99 45.8899 Q1210.34 46.6075 1212.22 48.876 Q1214.12 51.1445 1214.12 54.4779 Q1214.12 59.5936 1210.6 62.3945 Q1207.08 65.1954 1200.6 65.1954 Q1198.42 65.1954 1196.11 64.7556 Q1193.82 64.3389 1191.36 63.4824 L1191.36 58.9686 Q1193.31 60.1028 1195.62 60.6815 Q1197.94 61.2602 1200.46 61.2602 Q1204.86 61.2602 1207.15 59.5241 Q1209.46 57.788 1209.46 54.4779 Q1209.46 51.4223 1207.31 49.7094 Q1205.18 47.9733 1201.36 47.9733 L1197.33 47.9733 L1197.33 44.1307 L1201.55 44.1307 Q1205 44.1307 1206.83 42.765 Q1208.65 41.3761 1208.65 38.7835 Q1208.65 36.1215 1206.76 34.7094 Q1204.88 33.2743 1201.36 33.2743 Q1199.44 33.2743 1197.24 33.6909 Q1195.04 34.1076 1192.4 34.9872 L1192.4 30.8206 Q1195.07 30.0798 1197.38 29.7095 Q1199.72 29.3391 1201.78 29.3391 Q1207.1 29.3391 1210.2 31.7696 Q1213.31 34.177 1213.31 38.2974 Q1213.31 41.1677 1211.66 43.1585 Q1210.02 45.1261 1206.99 45.8899 Z" fill="#000000" fill-rule="evenodd" fill-opacity="1" /><polyline clip-path="url(#clip542)" style="stroke:#0000ff; stroke-linecap:round; stroke-linejoin:round; stroke-width:4; stroke-opacity:1; fill:none" points="
  1250.12,1126.65 1969.72,766.846 
  "/>
<polyline clip-path="url(#clip542)" style="stroke:#0000ff; stroke-linecap:round; stroke-linejoin:round; stroke-width:4; stroke-opacity:1; fill:none" points="
  1929.47,766.846 1969.72,766.846 1945.57,799.045 
  "/>
<polyline clip-path="url(#clip542)" style="stroke:#0000ff; stroke-linecap:round; stroke-linejoin:round; stroke-width:4; stroke-opacity:1; fill:none" points="
  1969.72,766.846 1250.12,1126.65 
  "/>
<polyline clip-path="url(#clip542)" style="stroke:#0000ff; stroke-linecap:round; stroke-linejoin:round; stroke-width:4; stroke-opacity:1; fill:none" points="
  1250.12,1126.65 1430.02,766.846 
  "/>
<polyline clip-path="url(#clip542)" style="stroke:#0000ff; stroke-linecap:round; stroke-linejoin:round; stroke-width:4; stroke-opacity:1; fill:none" points="
  1397.82,790.996 1430.02,766.846 1430.02,807.095 
  "/>
<polyline clip-path="url(#clip542)" style="stroke:#0000ff; stroke-linecap:round; stroke-linejoin:round; stroke-width:4; stroke-opacity:1; fill:none" points="
  1430.02,766.846 1250.12,1126.65 
  "/>
<polyline clip-path="url(#clip542)" style="stroke:#0000ff; stroke-linecap:round; stroke-linejoin:round; stroke-width:4; stroke-opacity:0.5; fill:none" stroke-dasharray="16, 10" points="
  1969.72,766.846 2149.62,407.045 
  "/>
<polyline clip-path="url(#clip542)" style="stroke:#0000ff; stroke-linecap:round; stroke-linejoin:round; stroke-width:4; stroke-opacity:0.5; fill:none" points="
  2117.42,431.195 2149.62,407.045 2149.62,447.294 
  "/>
<polyline clip-path="url(#clip542)" style="stroke:#0000ff; stroke-linecap:round; stroke-linejoin:round; stroke-width:4; stroke-opacity:0.5; fill:none" stroke-dasharray="16, 10" points="
  2149.62,407.045 1969.72,766.846 
  "/>
<polyline clip-path="url(#clip542)" style="stroke:#0000ff; stroke-linecap:round; stroke-linejoin:round; stroke-width:4; stroke-opacity:0.5; fill:none" stroke-dasharray="16, 10" points="
  1250.12,1126.65 2149.62,407.045 
  "/>
<polyline clip-path="url(#clip542)" style="stroke:#0000ff; stroke-linecap:round; stroke-linejoin:round; stroke-width:4; stroke-opacity:0.5; fill:none" points="
  2110.26,415.478 2149.62,407.045 2132.75,443.59 
  "/>
<polyline clip-path="url(#clip542)" style="stroke:#0000ff; stroke-linecap:round; stroke-linejoin:round; stroke-width:4; stroke-opacity:0.5; fill:none" stroke-dasharray="16, 10" points="
  2149.62,407.045 1250.12,1126.65 
  "/>
<path clip-path="url(#clip540)" d="M2044.19 756.073 Q2044.19 758.369 2042.76 759.68 Q2041.33 760.951 2039.69 760.951 Q2038.13 760.951 2037.31 760.049 Q2036.49 759.147 2036.49 758 Q2036.49 756.442 2037.64 755.09 Q2038.78 753.737 2040.51 753.45 Q2038.82 752.384 2036.32 752.384 Q2034.69 752.384 2033.25 753.245 Q2031.86 754.106 2031 755.213 Q2030.18 756.319 2029.44 757.918 Q2028.74 759.475 2028.45 760.418 Q2028.21 761.32 2028 762.304 L2025.13 773.781 Q2023.74 779.232 2023.74 781.159 Q2023.74 783.536 2024.89 785.135 Q2026.04 786.692 2028.33 786.692 Q2029.23 786.692 2030.26 786.446 Q2031.28 786.159 2032.59 785.422 Q2033.95 784.643 2035.14 783.495 Q2036.37 782.306 2037.55 780.298 Q2038.74 778.289 2039.52 775.707 Q2039.77 774.805 2040.59 774.805 Q2041.61 774.805 2041.61 775.625 Q2041.61 776.322 2041.04 777.798 Q2040.51 779.232 2039.32 781.118 Q2038.17 782.962 2036.65 784.643 Q2035.14 786.282 2032.88 787.43 Q2030.63 788.578 2028.17 788.578 Q2024.64 788.578 2022.31 786.692 Q2019.97 784.807 2019.11 782.183 Q2018.9 782.552 2018.62 783.044 Q2018.33 783.536 2017.47 784.643 Q2016.65 785.709 2015.71 786.528 Q2014.76 787.307 2013.29 787.922 Q2011.85 788.578 2010.3 788.578 Q2008.33 788.578 2006.57 788.004 Q2004.84 787.43 2003.62 786.118 Q2002.39 784.807 2002.39 783.003 Q2002.39 780.995 2003.74 779.601 Q2005.13 778.167 2007.02 778.167 Q2008.21 778.167 2009.15 778.863 Q2010.13 779.56 2010.13 781.077 Q2010.13 782.757 2008.98 784.028 Q2007.84 785.299 2006.2 785.627 Q2007.88 786.692 2010.38 786.692 Q2013.08 786.692 2015.22 784.315 Q2017.35 781.938 2018.37 777.962 Q2020.91 768.411 2021.9 764.148 Q2022.88 759.844 2022.88 758 Q2022.88 756.278 2022.43 755.09 Q2021.98 753.901 2021.2 753.368 Q2020.46 752.794 2019.76 752.589 Q2019.11 752.384 2018.37 752.384 Q2017.14 752.384 2015.75 752.876 Q2014.4 753.368 2012.76 754.516 Q2011.16 755.622 2009.64 757.918 Q2008.12 760.213 2007.1 763.369 Q2006.89 764.312 2005.99 764.312 Q2005.01 764.271 2005.01 763.451 Q2005.01 762.755 2005.54 761.32 Q2006.12 759.844 2007.26 758 Q2008.45 756.155 2009.97 754.516 Q2011.53 752.835 2013.78 751.687 Q2016.08 750.54 2018.54 750.54 Q2019.64 750.54 2020.71 750.786 Q2021.81 750.991 2023.13 751.605 Q2024.48 752.22 2025.67 753.573 Q2026.86 754.926 2027.59 756.893 Q2028.09 755.95 2028.74 755.049 Q2029.44 754.147 2030.5 753.04 Q2031.61 751.892 2033.13 751.237 Q2034.69 750.54 2036.41 750.54 Q2038.09 750.54 2039.73 750.991 Q2041.37 751.401 2042.76 752.753 Q2044.19 754.065 2044.19 756.073 Z" fill="#000000" fill-rule="evenodd" fill-opacity="1" /><path clip-path="url(#clip540)" d="M2073.21 774.887 Q2073.3 773.863 2074.89 773.863 L2126.34 773.863 Q2128.75 773.863 2128.8 774.805 Q2128.8 775.83 2126.5 775.789 L2075.47 775.789 Q2073.21 775.83 2073.21 774.887 M2073.21 758.492 Q2073.21 757.467 2074.98 757.508 L2126.25 757.508 Q2128.75 757.508 2128.8 758.492 Q2128.8 759.434 2126.66 759.434 L2074.89 759.434 Q2073.21 759.434 2073.21 758.492 Z" fill="#000000" fill-rule="evenodd" fill-opacity="1" /><path clip-path="url(#clip540)" d="M2161.17 766.649 Q2161.17 752.466 2166.46 741.03 Q2168.72 736.234 2171.87 732.218 Q2175.03 728.201 2177.12 726.438 Q2179.21 724.676 2179.78 724.676 Q2180.6 724.676 2180.64 725.495 Q2180.64 725.905 2179.54 726.93 Q2166.01 740.702 2166.05 766.649 Q2166.05 792.677 2179.21 805.916 Q2180.64 807.351 2180.64 807.802 Q2180.64 808.622 2179.78 808.622 Q2179.21 808.622 2177.2 806.941 Q2175.19 805.26 2172.08 801.407 Q2168.96 797.554 2166.71 792.841 Q2161.17 781.405 2161.17 766.649 Z" fill="#000000" fill-rule="evenodd" fill-opacity="1" /><path clip-path="url(#clip540)" d="M2188.7 787.635 Q2188.7 786.118 2188.83 785.668 Q2188.99 785.217 2189.65 784.52 L2205.75 766.567 Q2214.57 756.647 2214.57 747.998 Q2214.57 742.383 2211.62 738.366 Q2208.71 734.349 2203.34 734.349 Q2199.65 734.349 2196.53 736.603 Q2193.42 738.858 2191.98 742.875 Q2192.23 742.793 2193.09 742.793 Q2195.18 742.793 2196.33 744.104 Q2197.52 745.416 2197.52 747.179 Q2197.52 749.433 2196.04 750.54 Q2194.61 751.605 2193.17 751.605 Q2192.6 751.605 2191.82 751.483 Q2191.08 751.36 2189.89 750.212 Q2188.7 749.023 2188.7 746.933 Q2188.7 741.071 2193.13 736.398 Q2197.6 731.726 2204.4 731.726 Q2212.11 731.726 2217.15 736.316 Q2222.23 740.866 2222.23 747.998 Q2222.23 750.499 2221.45 752.794 Q2220.72 755.049 2219.69 756.811 Q2218.71 758.574 2216 761.402 Q2213.3 764.23 2211.12 766.239 Q2208.95 768.247 2204.07 772.51 L2195.18 781.159 L2210.3 781.159 Q2217.68 781.159 2218.26 780.503 Q2219.08 779.314 2220.1 773.043 L2222.23 773.043 L2219.85 787.635 L2188.7 787.635 Z" fill="#000000" fill-rule="evenodd" fill-opacity="1" /><path clip-path="url(#clip540)" d="M2231.46 786.282 Q2230.27 784.93 2230.27 783.167 Q2230.27 781.405 2231.42 780.093 Q2232.61 778.74 2234.74 778.74 Q2237.24 778.74 2238.68 781.159 Q2240.11 783.536 2240.11 787.553 Q2240.11 791.898 2238.35 795.915 Q2236.59 799.973 2234.86 801.899 Q2233.14 803.826 2232.45 803.826 Q2231.63 803.826 2231.63 802.924 Q2231.63 802.596 2232.2 801.981 Q2238.23 795.505 2238.27 787.553 Q2238.27 786.282 2238.1 786.282 L2237.9 786.446 Q2236.46 787.635 2234.74 787.635 Q2232.65 787.635 2231.46 786.282 Z" fill="#000000" fill-rule="evenodd" fill-opacity="1" /><path clip-path="url(#clip540)" d="M2266.6 739.719 L2266.6 737.095 Q2276.68 737.095 2281.89 731.726 Q2283.32 731.726 2283.57 732.054 Q2283.82 732.381 2283.82 733.898 L2283.82 780.995 Q2283.82 783.495 2285.05 784.274 Q2286.28 785.053 2291.64 785.053 L2294.31 785.053 L2294.31 787.635 Q2291.36 787.389 2280.7 787.389 Q2270.04 787.389 2267.13 787.635 L2267.13 785.053 L2269.8 785.053 Q2275.08 785.053 2276.36 784.315 Q2277.63 783.536 2277.63 780.995 L2277.63 737.505 Q2273.24 739.719 2266.6 739.719 Z" fill="#000000" fill-rule="evenodd" fill-opacity="1" /><path clip-path="url(#clip540)" d="M2306.83 807.802 Q2306.83 807.392 2307.89 806.367 Q2321.42 792.595 2321.42 766.649 Q2321.42 740.62 2308.43 727.463 Q2306.83 725.946 2306.83 725.495 Q2306.83 724.676 2307.65 724.676 Q2308.22 724.676 2310.23 726.356 Q2312.28 728.037 2315.35 731.89 Q2318.47 735.743 2320.76 740.456 Q2326.3 751.892 2326.3 766.649 Q2326.3 780.831 2321.01 792.267 Q2318.75 797.063 2315.6 801.08 Q2312.44 805.096 2310.35 806.859 Q2308.26 808.622 2307.65 808.622 Q2306.83 808.622 2306.83 807.802 Z" fill="#000000" fill-rule="evenodd" fill-opacity="1" /><path clip-path="url(#clip540)" d="M2345.71 731.89 Q2345.71 729.799 2346.98 728.938 Q2348.26 728.037 2349.61 728.037 Q2351.29 728.037 2352.35 729.061 Q2353.46 730.045 2353.46 731.89 Q2353.46 732.709 2353.38 733.16 L2350.59 758.492 L2348.67 758.492 L2345.8 733.16 Q2345.71 732.709 2345.71 731.89 Z" fill="#000000" fill-rule="evenodd" fill-opacity="1" /><path clip-path="url(#clip540)" d="M1136.9 681.777 Q1136.9 682.351 1136.53 683.703 L1128.5 715.757 Q1126.73 722.889 1120.99 727.89 Q1115.3 732.89 1108.82 732.89 Q1104.93 732.89 1102.43 730.8 Q1099.93 728.75 1099.93 725.594 Q1099.93 722.807 1101.4 721.454 Q1102.88 720.143 1104.64 720.143 Q1105.21 720.143 1105.83 720.307 Q1106.44 720.471 1107.1 721.167 Q1107.76 721.864 1107.76 723.053 Q1107.76 724.979 1106.07 726.496 Q1105.26 727.193 1104.48 727.357 Q1103.74 727.521 1102.47 727.521 Q1102.96 728.668 1103.86 729.447 Q1104.76 730.226 1105.79 730.513 Q1106.81 730.841 1107.47 730.923 Q1108.17 731.046 1108.82 731.046 Q1114.07 731.046 1118.08 725.758 Q1119.27 724.16 1120.13 722.561 Q1121.04 721.003 1121.69 719.077 Q1122.35 717.191 1122.63 716.167 Q1122.96 715.142 1123.54 712.806 Q1119.72 716.618 1115.05 716.618 Q1113.08 716.618 1111.32 716.085 Q1109.6 715.552 1108.08 714.445 Q1106.57 713.297 1105.66 711.289 Q1104.8 709.281 1104.8 706.616 Q1104.8 703.788 1105.91 699.935 Q1107.02 696.082 1109.68 688.991 Q1111.12 685.015 1111.12 683.088 Q1111.12 682.146 1110.91 681.572 Q1110.71 680.957 1110.3 680.752 Q1109.89 680.506 1109.64 680.465 Q1109.44 680.424 1109.03 680.424 Q1106.61 680.424 1104.35 682.883 Q1102.1 685.343 1100.54 690.835 Q1100.21 691.86 1100.01 692.106 Q1099.8 692.352 1099.19 692.352 Q1098.16 692.311 1098.16 691.491 Q1098.16 691.163 1098.53 689.893 Q1098.9 688.581 1099.76 686.654 Q1100.66 684.687 1101.89 682.924 Q1103.12 681.121 1105.05 679.85 Q1107.02 678.58 1109.27 678.58 Q1112.35 678.58 1114.23 680.588 Q1116.16 682.556 1116.16 685.466 Q1116.16 686.654 1115.83 687.72 Q1115.54 688.745 1114.48 691.491 Q1110.17 702.558 1110.17 707.969 Q1110.17 709.281 1110.38 710.387 Q1110.62 711.453 1111.16 712.519 Q1111.69 713.543 1112.76 714.158 Q1113.86 714.732 1115.38 714.732 Q1117.31 714.732 1119.11 713.83 Q1120.95 712.888 1122.1 711.617 Q1123.29 710.346 1123.99 709.281 Q1124.72 708.174 1124.89 707.6 L1128.66 692.516 L1130.34 685.794 Q1131.12 682.146 1131.49 681.244 Q1131.98 680.383 1132.84 679.932 Q1133.7 679.481 1134.44 679.481 Q1135.46 679.481 1136.16 680.096 Q1136.9 680.711 1136.9 681.777 Z" fill="#000000" fill-rule="evenodd" fill-opacity="1" /><path clip-path="url(#clip540)" d="M1162.17 702.927 Q1162.25 701.902 1163.85 701.902 L1215.29 701.902 Q1217.71 701.902 1217.75 702.845 Q1217.75 703.87 1215.46 703.829 L1164.43 703.829 Q1162.17 703.87 1162.17 702.927 M1162.17 686.531 Q1162.17 685.507 1163.93 685.548 L1215.21 685.548 Q1217.71 685.548 1217.75 686.531 Q1217.75 687.474 1215.62 687.474 L1163.85 687.474 Q1162.17 687.474 1162.17 686.531 Z" fill="#000000" fill-rule="evenodd" fill-opacity="1" /><path clip-path="url(#clip540)" d="M1250.13 694.688 Q1250.13 680.506 1255.42 669.07 Q1257.67 664.274 1260.83 660.257 Q1263.99 656.24 1266.08 654.478 Q1268.17 652.715 1268.74 652.715 Q1269.56 652.715 1269.6 653.535 Q1269.6 653.945 1268.5 654.97 Q1254.97 668.742 1255.01 694.688 Q1255.01 720.717 1268.17 733.956 Q1269.6 735.391 1269.6 735.842 Q1269.6 736.661 1268.74 736.661 Q1268.17 736.661 1266.16 734.981 Q1264.15 733.3 1261.04 729.447 Q1257.92 725.594 1255.67 720.88 Q1250.13 709.444 1250.13 694.688 Z" fill="#000000" fill-rule="evenodd" fill-opacity="1" /><path clip-path="url(#clip540)" d="M1277.66 688.827 Q1277.66 676.489 1280.78 669.767 Q1285.12 659.765 1295.37 659.765 Q1297.54 659.765 1299.8 660.38 Q1302.09 660.954 1304.96 663.209 Q1307.87 665.463 1309.63 669.152 Q1312.99 676.284 1312.99 688.827 Q1312.99 701.083 1309.88 707.764 Q1305.33 717.519 1295.29 717.519 Q1291.52 717.519 1287.66 715.593 Q1283.85 713.666 1281.43 709.035 Q1277.66 702.107 1277.66 688.827 M1284.63 687.802 Q1284.63 700.468 1285.53 705.51 Q1286.56 710.961 1289.34 713.338 Q1292.17 715.675 1295.29 715.675 Q1298.65 715.675 1301.44 713.175 Q1304.26 710.633 1305.12 705.182 Q1306.07 699.812 1306.03 687.802 Q1306.03 676.12 1305.21 671.447 Q1304.1 665.996 1301.15 663.823 Q1298.24 661.61 1295.29 661.61 Q1294.18 661.61 1292.99 661.938 Q1291.84 662.266 1290.16 663.209 Q1288.48 664.151 1287.17 666.488 Q1285.9 668.824 1285.29 672.349 Q1284.63 676.899 1284.63 687.802 Z" fill="#000000" fill-rule="evenodd" fill-opacity="1" /><path clip-path="url(#clip540)" d="M1320.5 714.322 Q1319.23 712.97 1319.23 711.207 Q1319.23 709.444 1320.5 708.174 Q1321.77 706.862 1323.7 706.862 Q1325.54 706.862 1326.77 708.092 Q1328.04 709.281 1328.04 711.248 Q1328.04 713.175 1326.69 714.445 Q1325.38 715.675 1323.7 715.675 Q1321.77 715.675 1320.5 714.322 Z" fill="#000000" fill-rule="evenodd" fill-opacity="1" /><path clip-path="url(#clip540)" d="M1342.33 702.148 Q1342.33 699.648 1343.68 698.705 Q1345.04 697.722 1346.47 697.722 Q1348.4 697.722 1349.5 698.951 Q1350.65 700.14 1350.65 701.82 Q1350.65 703.501 1349.5 704.731 Q1348.4 705.919 1346.47 705.919 Q1345.53 705.919 1345.04 705.755 Q1346.14 709.608 1349.5 712.396 Q1352.91 715.183 1357.37 715.183 Q1362.99 715.183 1366.35 709.731 Q1368.36 706.206 1368.36 698.213 Q1368.36 691.163 1366.84 687.638 Q1364.51 682.269 1359.71 682.269 Q1352.91 682.269 1348.89 688.13 Q1348.4 688.868 1347.82 688.909 Q1347 688.909 1346.8 688.458 Q1346.63 687.966 1346.63 686.695 L1346.63 661.856 Q1346.63 659.847 1347.45 659.847 Q1347.78 659.847 1348.48 660.093 Q1353.77 662.43 1359.63 662.471 Q1365.65 662.471 1371.06 660.011 Q1371.47 659.765 1371.72 659.765 Q1372.54 659.765 1372.58 660.708 Q1372.58 661.036 1371.88 662.02 Q1371.23 662.963 1369.79 664.233 Q1368.36 665.463 1366.51 666.652 Q1364.67 667.84 1361.96 668.66 Q1359.3 669.439 1356.35 669.439 Q1352.82 669.439 1349.22 668.332 L1349.22 684.687 Q1353.56 680.424 1359.87 680.424 Q1366.6 680.424 1371.23 685.835 Q1375.86 691.245 1375.86 698.787 Q1375.86 706.698 1370.37 712.109 Q1364.92 717.519 1357.54 717.519 Q1350.82 717.519 1346.55 712.724 Q1342.33 707.928 1342.33 702.148 Z" fill="#000000" fill-rule="evenodd" fill-opacity="1" /><path clip-path="url(#clip540)" d="M1385.09 714.322 Q1383.9 712.97 1383.9 711.207 Q1383.9 709.444 1385.05 708.133 Q1386.24 706.78 1388.37 706.78 Q1390.87 706.78 1392.3 709.199 Q1393.74 711.576 1393.74 715.593 Q1393.74 719.938 1391.98 723.955 Q1390.21 728.013 1388.49 729.939 Q1386.77 731.866 1386.07 731.866 Q1385.25 731.866 1385.25 730.964 Q1385.25 730.636 1385.83 730.021 Q1391.85 723.545 1391.89 715.593 Q1391.89 714.322 1391.73 714.322 L1391.53 714.486 Q1390.09 715.675 1388.37 715.675 Q1386.28 715.675 1385.09 714.322 Z" fill="#000000" fill-rule="evenodd" fill-opacity="1" /><path clip-path="url(#clip540)" d="M1420.23 667.758 L1420.23 665.135 Q1430.31 665.135 1435.52 659.765 Q1436.95 659.765 1437.2 660.093 Q1437.44 660.421 1437.44 661.938 L1437.44 709.035 Q1437.44 711.535 1438.67 712.314 Q1439.9 713.093 1445.27 713.093 L1447.94 713.093 L1447.94 715.675 Q1444.99 715.429 1434.33 715.429 Q1423.67 715.429 1420.76 715.675 L1420.76 713.093 L1423.43 713.093 Q1428.71 713.093 1429.98 712.355 Q1431.25 711.576 1431.25 709.035 L1431.25 665.545 Q1426.87 667.758 1420.23 667.758 Z" fill="#000000" fill-rule="evenodd" fill-opacity="1" /><path clip-path="url(#clip540)" d="M1454.57 714.322 Q1453.3 712.97 1453.3 711.207 Q1453.3 709.444 1454.57 708.174 Q1455.84 706.862 1457.77 706.862 Q1459.61 706.862 1460.84 708.092 Q1462.11 709.281 1462.11 711.248 Q1462.11 713.175 1460.76 714.445 Q1459.45 715.675 1457.77 715.675 Q1455.84 715.675 1454.57 714.322 Z" fill="#000000" fill-rule="evenodd" fill-opacity="1" /><path clip-path="url(#clip540)" d="M1476.4 688.827 Q1476.4 676.489 1479.51 669.767 Q1483.86 659.765 1494.1 659.765 Q1496.28 659.765 1498.53 660.38 Q1500.83 660.954 1503.7 663.209 Q1506.61 665.463 1508.37 669.152 Q1511.73 676.284 1511.73 688.827 Q1511.73 701.083 1508.61 707.764 Q1504.07 717.519 1494.02 717.519 Q1490.25 717.519 1486.4 715.593 Q1482.59 713.666 1480.17 709.035 Q1476.4 702.107 1476.4 688.827 M1483.37 687.802 Q1483.37 700.468 1484.27 705.51 Q1485.29 710.961 1488.08 713.338 Q1490.91 715.675 1494.02 715.675 Q1497.38 715.675 1500.17 713.175 Q1503 710.633 1503.86 705.182 Q1504.8 699.812 1504.76 687.802 Q1504.76 676.12 1503.94 671.447 Q1502.84 665.996 1499.88 663.823 Q1496.97 661.61 1494.02 661.61 Q1492.92 661.61 1491.73 661.938 Q1490.58 662.266 1488.9 663.209 Q1487.22 664.151 1485.91 666.488 Q1484.64 668.824 1484.02 672.349 Q1483.37 676.899 1483.37 687.802 Z" fill="#000000" fill-rule="evenodd" fill-opacity="1" /><path clip-path="url(#clip540)" d="M1519.98 735.842 Q1519.98 735.432 1521.05 734.407 Q1534.58 720.635 1534.58 694.688 Q1534.58 668.66 1521.58 655.503 Q1519.98 653.986 1519.98 653.535 Q1519.98 652.715 1520.8 652.715 Q1521.38 652.715 1523.39 654.396 Q1525.44 656.076 1528.51 659.929 Q1531.62 663.782 1533.92 668.496 Q1539.45 679.932 1539.45 694.688 Q1539.45 708.871 1534.17 720.307 Q1531.91 725.102 1528.76 729.119 Q1525.6 733.136 1523.51 734.899 Q1521.42 736.661 1520.8 736.661 Q1519.98 736.661 1519.98 735.842 Z" fill="#000000" fill-rule="evenodd" fill-opacity="1" /><path clip-path="url(#clip540)" d="M1558.87 659.929 Q1558.87 657.839 1560.14 656.978 Q1561.41 656.076 1562.77 656.076 Q1564.45 656.076 1565.51 657.101 Q1566.62 658.085 1566.62 659.929 Q1566.62 660.749 1566.54 661.2 L1563.75 686.531 L1561.82 686.531 L1558.95 661.2 Q1558.87 660.749 1558.87 659.929 Z" fill="#000000" fill-rule="evenodd" fill-opacity="1" /><path clip-path="url(#clip540)" d="M1793.92 324.312 Q1793.92 326.608 1792.49 327.919 Q1791.05 329.19 1789.41 329.19 Q1787.85 329.19 1787.03 328.288 Q1786.21 327.386 1786.21 326.239 Q1786.21 324.681 1787.36 323.328 Q1788.51 321.976 1790.23 321.689 Q1788.55 320.623 1786.05 320.623 Q1784.41 320.623 1782.98 321.484 Q1781.58 322.345 1780.72 323.451 Q1779.9 324.558 1779.16 326.157 Q1778.47 327.714 1778.18 328.657 Q1777.93 329.559 1777.73 330.543 L1774.86 342.02 Q1773.47 347.471 1773.47 349.398 Q1773.47 351.775 1774.61 353.374 Q1775.76 354.931 1778.06 354.931 Q1778.96 354.931 1779.98 354.685 Q1781.01 354.398 1782.32 353.66 Q1783.67 352.882 1784.86 351.734 Q1786.09 350.545 1787.28 348.537 Q1788.47 346.528 1789.25 343.946 Q1789.49 343.044 1790.31 343.044 Q1791.34 343.044 1791.34 343.864 Q1791.34 344.561 1790.76 346.036 Q1790.23 347.471 1789.04 349.357 Q1787.9 351.201 1786.38 352.882 Q1784.86 354.521 1782.61 355.669 Q1780.35 356.817 1777.89 356.817 Q1774.37 356.817 1772.03 354.931 Q1769.7 353.046 1768.84 350.422 Q1768.63 350.791 1768.34 351.283 Q1768.06 351.775 1767.2 352.882 Q1766.38 353.947 1765.43 354.767 Q1764.49 355.546 1763.01 356.161 Q1761.58 356.817 1760.02 356.817 Q1758.06 356.817 1756.29 356.243 Q1754.57 355.669 1753.34 354.357 Q1752.11 353.046 1752.11 351.242 Q1752.11 349.234 1753.46 347.84 Q1754.86 346.405 1756.74 346.405 Q1757.93 346.405 1758.87 347.102 Q1759.86 347.799 1759.86 349.316 Q1759.86 350.996 1758.71 352.267 Q1757.56 353.538 1755.92 353.865 Q1757.6 354.931 1760.1 354.931 Q1762.81 354.931 1764.94 352.554 Q1767.07 350.176 1768.1 346.2 Q1770.64 336.65 1771.62 332.387 Q1772.61 328.083 1772.61 326.239 Q1772.61 324.517 1772.16 323.328 Q1771.7 322.14 1770.93 321.607 Q1770.19 321.033 1769.49 320.828 Q1768.84 320.623 1768.1 320.623 Q1766.87 320.623 1765.47 321.115 Q1764.12 321.607 1762.48 322.755 Q1760.88 323.861 1759.37 326.157 Q1757.85 328.452 1756.83 331.608 Q1756.62 332.551 1755.72 332.551 Q1754.73 332.51 1754.73 331.69 Q1754.73 330.993 1755.27 329.559 Q1755.84 328.083 1756.99 326.239 Q1758.18 324.394 1759.69 322.755 Q1761.25 321.074 1763.51 319.926 Q1765.8 318.779 1768.26 318.779 Q1769.37 318.779 1770.43 319.025 Q1771.54 319.229 1772.85 319.844 Q1774.2 320.459 1775.39 321.812 Q1776.58 323.164 1777.32 325.132 Q1777.81 324.189 1778.47 323.287 Q1779.16 322.386 1780.23 321.279 Q1781.34 320.131 1782.85 319.475 Q1784.41 318.779 1786.13 318.779 Q1787.81 318.779 1789.45 319.229 Q1791.09 319.639 1792.49 320.992 Q1793.92 322.304 1793.92 324.312 Z" fill="#000000" fill-rule="evenodd" fill-opacity="1" /><path clip-path="url(#clip540)" d="M1824.87 335.912 Q1822.94 335.912 1822.94 334.887 Q1822.94 333.863 1824.95 333.863 Q1825.19 333.863 1825.6 333.904 Q1826.06 333.945 1826.14 333.945 L1849.79 333.945 L1849.79 310.212 Q1849.79 310.13 1849.75 309.761 Q1849.71 309.351 1849.71 309.105 Q1849.71 307.097 1850.69 307.097 Q1851.71 307.097 1851.71 309.105 L1851.71 333.945 L1875.41 333.945 Q1875.49 333.945 1875.9 333.904 Q1876.31 333.863 1876.55 333.863 Q1878.48 333.863 1878.48 334.887 Q1878.52 335.912 1876.47 335.912 Q1876.23 335.912 1875.86 335.871 Q1875.49 335.83 1875.41 335.83 L1851.71 335.83 L1851.71 360.752 Q1851.71 362.678 1850.69 362.678 Q1849.71 362.678 1849.71 360.67 Q1849.71 360.424 1849.75 360.014 Q1849.79 359.645 1849.79 359.563 L1849.79 335.83 L1826.14 335.83 Q1826.06 335.83 1825.56 335.871 Q1825.11 335.912 1824.87 335.912 Z" fill="#000000" fill-rule="evenodd" fill-opacity="1" /><path clip-path="url(#clip540)" d="M1949.63 321.976 Q1949.63 322.55 1949.27 323.902 L1941.23 355.956 Q1939.47 363.088 1933.73 368.089 Q1928.03 373.089 1921.56 373.089 Q1917.66 373.089 1915.16 370.999 Q1912.66 368.949 1912.66 365.793 Q1912.66 363.006 1914.14 361.653 Q1915.61 360.342 1917.38 360.342 Q1917.95 360.342 1918.56 360.506 Q1919.18 360.67 1919.84 361.366 Q1920.49 362.063 1920.49 363.252 Q1920.49 365.178 1918.81 366.695 Q1917.99 367.392 1917.21 367.556 Q1916.47 367.72 1915.2 367.72 Q1915.7 368.868 1916.6 369.646 Q1917.5 370.425 1918.52 370.712 Q1919.55 371.04 1920.2 371.122 Q1920.9 371.245 1921.56 371.245 Q1926.8 371.245 1930.82 365.957 Q1932.01 364.359 1932.87 362.76 Q1933.77 361.203 1934.43 359.276 Q1935.08 357.391 1935.37 356.366 Q1935.7 355.341 1936.27 353.005 Q1932.46 356.817 1927.79 356.817 Q1925.82 356.817 1924.06 356.284 Q1922.34 355.751 1920.82 354.644 Q1919.3 353.497 1918.4 351.488 Q1917.54 349.48 1917.54 346.815 Q1917.54 343.987 1918.65 340.134 Q1919.75 336.281 1922.42 329.19 Q1923.85 325.214 1923.85 323.287 Q1923.85 322.345 1923.65 321.771 Q1923.44 321.156 1923.03 320.951 Q1922.62 320.705 1922.38 320.664 Q1922.17 320.623 1921.76 320.623 Q1919.34 320.623 1917.09 323.082 Q1914.83 325.542 1913.28 331.034 Q1912.95 332.059 1912.74 332.305 Q1912.54 332.551 1911.92 332.551 Q1910.9 332.51 1910.9 331.69 Q1910.9 331.362 1911.27 330.092 Q1911.64 328.78 1912.5 326.854 Q1913.4 324.886 1914.63 323.123 Q1915.86 321.32 1917.79 320.049 Q1919.75 318.779 1922.01 318.779 Q1925.08 318.779 1926.97 320.787 Q1928.89 322.755 1928.89 325.665 Q1928.89 326.854 1928.57 327.919 Q1928.28 328.944 1927.21 331.69 Q1922.91 342.757 1922.91 348.168 Q1922.91 349.48 1923.11 350.586 Q1923.36 351.652 1923.89 352.718 Q1924.43 353.742 1925.49 354.357 Q1926.6 354.931 1928.12 354.931 Q1930.04 354.931 1931.85 354.029 Q1933.69 353.087 1934.84 351.816 Q1936.03 350.545 1936.72 349.48 Q1937.46 348.373 1937.63 347.799 L1941.4 332.715 L1943.08 325.993 Q1943.86 322.345 1944.22 321.443 Q1944.72 320.582 1945.58 320.131 Q1946.44 319.68 1947.18 319.68 Q1948.2 319.68 1948.9 320.295 Q1949.63 320.91 1949.63 321.976 Z" fill="#000000" fill-rule="evenodd" fill-opacity="1" /><path clip-path="url(#clip540)" d="M1974.91 343.126 Q1974.99 342.102 1976.59 342.102 L2028.03 342.102 Q2030.45 342.102 2030.49 343.044 Q2030.49 344.069 2028.19 344.028 L1977.16 344.028 Q1974.91 344.069 1974.91 343.126 M1974.91 326.731 Q1974.91 325.706 1976.67 325.747 L2027.95 325.747 Q2030.45 325.747 2030.49 326.731 Q2030.49 327.673 2028.36 327.673 L1976.59 327.673 Q1974.91 327.673 1974.91 326.731 Z" fill="#000000" fill-rule="evenodd" fill-opacity="1" /><path clip-path="url(#clip540)" d="M2062.87 334.887 Q2062.87 320.705 2068.16 309.269 Q2070.41 304.473 2073.57 300.456 Q2076.72 296.439 2078.81 294.677 Q2080.9 292.914 2081.48 292.914 Q2082.3 292.914 2082.34 293.734 Q2082.34 294.144 2081.23 295.169 Q2067.7 308.941 2067.75 334.887 Q2067.75 360.916 2080.9 374.155 Q2082.34 375.59 2082.34 376.041 Q2082.34 376.86 2081.48 376.86 Q2080.9 376.86 2078.9 375.18 Q2076.89 373.499 2073.77 369.646 Q2070.66 365.793 2068.4 361.08 Q2062.87 349.644 2062.87 334.887 Z" fill="#000000" fill-rule="evenodd" fill-opacity="1" /><path clip-path="url(#clip540)" d="M2090.4 355.874 Q2090.4 354.357 2090.52 353.906 Q2090.68 353.456 2091.34 352.759 L2107.45 334.805 Q2116.26 324.886 2116.26 316.237 Q2116.26 310.622 2113.31 306.605 Q2110.4 302.588 2105.03 302.588 Q2101.34 302.588 2098.23 304.842 Q2095.11 307.097 2093.68 311.114 Q2093.92 311.032 2094.78 311.032 Q2096.87 311.032 2098.02 312.343 Q2099.21 313.655 2099.21 315.417 Q2099.21 317.672 2097.73 318.779 Q2096.3 319.844 2094.87 319.844 Q2094.29 319.844 2093.51 319.721 Q2092.77 319.598 2091.59 318.451 Q2090.4 317.262 2090.4 315.172 Q2090.4 309.31 2094.82 304.637 Q2099.29 299.965 2106.1 299.965 Q2113.8 299.965 2118.84 304.555 Q2123.93 309.105 2123.93 316.237 Q2123.93 318.738 2123.15 321.033 Q2122.41 323.287 2121.39 325.05 Q2120.4 326.813 2117.7 329.641 Q2114.99 332.469 2112.82 334.478 Q2110.65 336.486 2105.77 340.749 L2096.87 349.398 L2112 349.398 Q2119.38 349.398 2119.95 348.742 Q2120.77 347.553 2121.8 341.282 L2123.93 341.282 L2121.55 355.874 L2090.4 355.874 Z" fill="#000000" fill-rule="evenodd" fill-opacity="1" /><path clip-path="url(#clip540)" d="M2133.24 354.521 Q2131.97 353.169 2131.97 351.406 Q2131.97 349.644 2133.24 348.373 Q2134.51 347.061 2136.44 347.061 Q2138.28 347.061 2139.51 348.291 Q2140.78 349.48 2140.78 351.447 Q2140.78 353.374 2139.43 354.644 Q2138.12 355.874 2136.44 355.874 Q2134.51 355.874 2133.24 354.521 Z" fill="#000000" fill-rule="evenodd" fill-opacity="1" /><path clip-path="url(#clip540)" d="M2155.07 342.347 Q2155.07 339.847 2156.42 338.904 Q2157.77 337.921 2159.21 337.921 Q2161.13 337.921 2162.24 339.15 Q2163.39 340.339 2163.39 342.02 Q2163.39 343.7 2162.24 344.93 Q2161.13 346.118 2159.21 346.118 Q2158.26 346.118 2157.77 345.955 Q2158.88 349.807 2162.24 352.595 Q2165.64 355.382 2170.11 355.382 Q2175.73 355.382 2179.09 349.93 Q2181.1 346.405 2181.1 338.412 Q2181.1 331.362 2179.58 327.837 Q2177.24 322.468 2172.45 322.468 Q2165.64 322.468 2161.63 328.329 Q2161.13 329.067 2160.56 329.108 Q2159.74 329.108 2159.53 328.657 Q2159.37 328.165 2159.37 326.894 L2159.37 302.055 Q2159.37 300.047 2160.19 300.047 Q2160.52 300.047 2161.22 300.292 Q2166.5 302.629 2172.36 302.67 Q2178.39 302.67 2183.8 300.21 Q2184.21 299.965 2184.46 299.965 Q2185.28 299.965 2185.32 300.907 Q2185.32 301.235 2184.62 302.219 Q2183.96 303.162 2182.53 304.432 Q2181.1 305.662 2179.25 306.851 Q2177.41 308.039 2174.7 308.859 Q2172.04 309.638 2169.09 309.638 Q2165.56 309.638 2161.95 308.531 L2161.95 324.886 Q2166.3 320.623 2172.61 320.623 Q2179.33 320.623 2183.96 326.034 Q2188.6 331.444 2188.6 338.986 Q2188.6 346.897 2183.1 352.308 Q2177.65 357.718 2170.27 357.718 Q2163.55 357.718 2159.29 352.923 Q2155.07 348.127 2155.07 342.347 Z" fill="#000000" fill-rule="evenodd" fill-opacity="1" /><path clip-path="url(#clip540)" d="M2197.83 354.521 Q2196.64 353.169 2196.64 351.406 Q2196.64 349.644 2197.78 348.332 Q2198.97 346.979 2201.11 346.979 Q2203.61 346.979 2205.04 349.398 Q2206.47 351.775 2206.47 355.792 Q2206.47 360.137 2204.71 364.154 Q2202.95 368.212 2201.23 370.138 Q2199.51 372.065 2198.81 372.065 Q2197.99 372.065 2197.99 371.163 Q2197.99 370.835 2198.56 370.22 Q2204.59 363.744 2204.63 355.792 Q2204.63 354.521 2204.47 354.521 L2204.26 354.685 Q2202.83 355.874 2201.11 355.874 Q2199.01 355.874 2197.83 354.521 Z" fill="#000000" fill-rule="evenodd" fill-opacity="1" /><path clip-path="url(#clip540)" d="M2232.96 355.874 Q2232.96 354.357 2233.09 353.906 Q2233.25 353.456 2233.91 352.759 L2250.02 334.805 Q2258.83 324.886 2258.83 316.237 Q2258.83 310.622 2255.88 306.605 Q2252.97 302.588 2247.6 302.588 Q2243.91 302.588 2240.79 304.842 Q2237.68 307.097 2236.24 311.114 Q2236.49 311.032 2237.35 311.032 Q2239.44 311.032 2240.59 312.343 Q2241.78 313.655 2241.78 315.417 Q2241.78 317.672 2240.3 318.779 Q2238.87 319.844 2237.43 319.844 Q2236.86 319.844 2236.08 319.721 Q2235.34 319.598 2234.15 318.451 Q2232.96 317.262 2232.96 315.172 Q2232.96 309.31 2237.39 304.637 Q2241.86 299.965 2248.66 299.965 Q2256.37 299.965 2261.41 304.555 Q2266.49 309.105 2266.49 316.237 Q2266.49 318.738 2265.71 321.033 Q2264.98 323.287 2263.95 325.05 Q2262.97 326.813 2260.26 329.641 Q2257.56 332.469 2255.39 334.478 Q2253.21 336.486 2248.33 340.749 L2239.44 349.398 L2254.57 349.398 Q2261.94 349.398 2262.52 348.742 Q2263.34 347.553 2264.36 341.282 L2266.49 341.282 L2264.12 355.874 L2232.96 355.874 Z" fill="#000000" fill-rule="evenodd" fill-opacity="1" /><path clip-path="url(#clip540)" d="M2275.8 354.521 Q2274.53 353.169 2274.53 351.406 Q2274.53 349.644 2275.8 348.373 Q2277.08 347.061 2279 347.061 Q2280.85 347.061 2282.08 348.291 Q2283.35 349.48 2283.35 351.447 Q2283.35 353.374 2281.99 354.644 Q2280.68 355.874 2279 355.874 Q2277.08 355.874 2275.8 354.521 Z" fill="#000000" fill-rule="evenodd" fill-opacity="1" /><path clip-path="url(#clip540)" d="M2297.63 329.026 Q2297.63 316.688 2300.75 309.966 Q2305.09 299.965 2315.34 299.965 Q2317.51 299.965 2319.77 300.579 Q2322.06 301.153 2324.93 303.408 Q2327.84 305.662 2329.61 309.351 Q2332.97 316.483 2332.97 329.026 Q2332.97 341.282 2329.85 347.963 Q2325.3 357.718 2315.26 357.718 Q2311.49 357.718 2307.63 355.792 Q2303.82 353.865 2301.4 349.234 Q2297.63 342.306 2297.63 329.026 M2304.6 328.001 Q2304.6 340.667 2305.5 345.709 Q2306.53 351.16 2309.32 353.538 Q2312.14 355.874 2315.26 355.874 Q2318.62 355.874 2321.41 353.374 Q2324.24 350.832 2325.1 345.381 Q2326.04 340.011 2326 328.001 Q2326 316.319 2325.18 311.646 Q2324.07 306.195 2321.12 304.022 Q2318.21 301.809 2315.26 301.809 Q2314.15 301.809 2312.96 302.137 Q2311.82 302.465 2310.14 303.408 Q2308.45 304.35 2307.14 306.687 Q2305.87 309.023 2305.26 312.548 Q2304.6 317.098 2304.6 328.001 Z" fill="#000000" fill-rule="evenodd" fill-opacity="1" /><path clip-path="url(#clip540)" d="M2341.22 376.041 Q2341.22 375.631 2342.29 374.606 Q2355.81 360.834 2355.81 334.887 Q2355.81 308.859 2342.82 295.702 Q2341.22 294.185 2341.22 293.734 Q2341.22 292.914 2342.04 292.914 Q2342.61 292.914 2344.62 294.595 Q2346.67 296.276 2349.75 300.128 Q2352.86 303.981 2355.16 308.695 Q2360.69 320.131 2360.69 334.887 Q2360.69 349.07 2355.4 360.506 Q2353.15 365.301 2349.99 369.318 Q2346.84 373.335 2344.74 375.098 Q2342.65 376.86 2342.04 376.86 Q2341.22 376.86 2341.22 376.041 Z" fill="#000000" fill-rule="evenodd" fill-opacity="1" /><path clip-path="url(#clip540)" d="M2380.11 300.128 Q2380.11 298.038 2381.38 297.177 Q2382.65 296.276 2384 296.276 Q2385.68 296.276 2386.75 297.3 Q2387.85 298.284 2387.85 300.128 Q2387.85 300.948 2387.77 301.399 L2384.99 326.731 L2383.06 326.731 L2380.19 301.399 Q2380.11 300.948 2380.11 300.128 Z" fill="#000000" fill-rule="evenodd" fill-opacity="1" /></svg>
