<?xml version="1.0" encoding="utf-8"?>
<svg xmlns="http://www.w3.org/2000/svg" xmlns:xlink="http://www.w3.org/1999/xlink" width="600" height="400" viewBox="0 0 2400 1600">
<defs>
  <clipPath id="clip660">
    <rect x="0" y="0" width="2400" height="1600"/>
  </clipPath>
</defs>
<path clip-path="url(#clip660)" d="
M0 1600 L2400 1600 L2400 0 L0 0  Z
  " fill="#ffffff" fill-rule="evenodd" fill-opacity="1"/>
<defs>
  <clipPath id="clip661">
    <rect x="480" y="0" width="1681" height="1600"/>
  </clipPath>
</defs>
<defs>
  <clipPath id="clip662">
    <rect x="273" y="183" width="1955" height="1303"/>
  </clipPath>
</defs>
<path clip-path="url(#clip660)" d="
M273.245 1486.45 L2226.99 1486.45 L2226.99 183.952 L273.245 183.952  Z
  " fill="#ffffff" fill-rule="evenodd" fill-opacity="1"/>
<polyline clip-path="url(#clip662)" style="stroke:#000000; stroke-linecap:round; stroke-linejoin:round; stroke-width:2; stroke-opacity:0.1; fill:none" points="
  273.245,1486.45 273.245,183.952 
  "/>
<polyline clip-path="url(#clip662)" style="stroke:#000000; stroke-linecap:round; stroke-linejoin:round; stroke-width:2; stroke-opacity:0.1; fill:none" points="
  598.869,1486.45 598.869,183.952 
  "/>
<polyline clip-path="url(#clip662)" style="stroke:#000000; stroke-linecap:round; stroke-linejoin:round; stroke-width:2; stroke-opacity:0.1; fill:none" points="
  924.493,1486.45 924.493,183.952 
  "/>
<polyline clip-path="url(#clip662)" style="stroke:#000000; stroke-linecap:round; stroke-linejoin:round; stroke-width:2; stroke-opacity:0.1; fill:none" points="
  1575.74,1486.45 1575.74,183.952 
  "/>
<polyline clip-path="url(#clip662)" style="stroke:#000000; stroke-linecap:round; stroke-linejoin:round; stroke-width:2; stroke-opacity:0.1; fill:none" points="
  1901.36,1486.45 1901.36,183.952 
  "/>
<polyline clip-path="url(#clip662)" style="stroke:#000000; stroke-linecap:round; stroke-linejoin:round; stroke-width:2; stroke-opacity:0.1; fill:none" points="
  2226.99,1486.45 2226.99,183.952 
  "/>
<polyline clip-path="url(#clip660)" style="stroke:#000000; stroke-linecap:round; stroke-linejoin:round; stroke-width:4; stroke-opacity:1; fill:none" points="
  273.245,835.2 2226.99,835.2 
  "/>
<polyline clip-path="url(#clip660)" style="stroke:#000000; stroke-linecap:round; stroke-linejoin:round; stroke-width:4; stroke-opacity:1; fill:none" points="
  273.245,854.098 273.245,816.302 
  "/>
<polyline clip-path="url(#clip660)" style="stroke:#000000; stroke-linecap:round; stroke-linejoin:round; stroke-width:4; stroke-opacity:1; fill:none" points="
  598.869,854.098 598.869,816.302 
  "/>
<polyline clip-path="url(#clip660)" style="stroke:#000000; stroke-linecap:round; stroke-linejoin:round; stroke-width:4; stroke-opacity:1; fill:none" points="
  924.493,854.098 924.493,816.302 
  "/>
<polyline clip-path="url(#clip660)" style="stroke:#000000; stroke-linecap:round; stroke-linejoin:round; stroke-width:4; stroke-opacity:1; fill:none" points="
  1575.74,854.098 1575.74,816.302 
  "/>
<polyline clip-path="url(#clip660)" style="stroke:#000000; stroke-linecap:round; stroke-linejoin:round; stroke-width:4; stroke-opacity:1; fill:none" points="
  1901.36,854.098 1901.36,816.302 
  "/>
<polyline clip-path="url(#clip660)" style="stroke:#000000; stroke-linecap:round; stroke-linejoin:round; stroke-width:4; stroke-opacity:1; fill:none" points="
  2226.99,854.098 2226.99,816.302 
  "/>
<path clip-path="url(#clip660)" d="M242.713 880.771 L272.389 880.771 L272.389 884.707 L242.713 884.707 L242.713 880.771 Z" fill="#000000" fill-rule="evenodd" fill-opacity="1" /><path clip-path="url(#clip660)" d="M296.648 878.966 Q300.004 879.683 301.879 881.952 Q303.777 884.22 303.777 887.554 Q303.777 892.669 300.259 895.47 Q296.74 898.271 290.259 898.271 Q288.083 898.271 285.768 897.831 Q283.477 897.415 281.023 896.558 L281.023 892.044 Q282.967 893.179 285.282 893.757 Q287.597 894.336 290.12 894.336 Q294.518 894.336 296.81 892.6 Q299.125 890.864 299.125 887.554 Q299.125 884.498 296.972 882.785 Q294.842 881.049 291.023 881.049 L286.995 881.049 L286.995 877.207 L291.208 877.207 Q294.657 877.207 296.486 875.841 Q298.314 874.452 298.314 871.859 Q298.314 869.197 296.416 867.785 Q294.541 866.35 291.023 866.35 Q289.101 866.35 286.902 866.767 Q284.703 867.183 282.064 868.063 L282.064 863.896 Q284.727 863.156 287.041 862.785 Q289.379 862.415 291.439 862.415 Q296.763 862.415 299.865 864.846 Q302.967 867.253 302.967 871.373 Q302.967 874.244 301.324 876.234 Q299.68 878.202 296.648 878.966 Z" fill="#000000" fill-rule="evenodd" fill-opacity="1" /><path clip-path="url(#clip660)" d="M568.811 880.771 L598.487 880.771 L598.487 884.707 L568.811 884.707 L568.811 880.771 Z" fill="#000000" fill-rule="evenodd" fill-opacity="1" /><path clip-path="url(#clip660)" d="M612.607 893.665 L628.927 893.665 L628.927 897.6 L606.982 897.6 L606.982 893.665 Q609.644 890.91 614.228 886.281 Q618.834 881.628 620.015 880.285 Q622.26 877.762 623.14 876.026 Q624.043 874.267 624.043 872.577 Q624.043 869.822 622.098 868.086 Q620.177 866.35 617.075 866.35 Q614.876 866.35 612.422 867.114 Q609.992 867.878 607.214 869.429 L607.214 864.707 Q610.038 863.572 612.492 862.994 Q614.945 862.415 616.982 862.415 Q622.353 862.415 625.547 865.1 Q628.742 867.785 628.742 872.276 Q628.742 874.406 627.931 876.327 Q627.144 878.225 625.038 880.818 Q624.459 881.489 621.357 884.707 Q618.256 887.901 612.607 893.665 Z" fill="#000000" fill-rule="evenodd" fill-opacity="1" /><path clip-path="url(#clip660)" d="M894.25 880.771 L923.926 880.771 L923.926 884.707 L894.25 884.707 L894.25 880.771 Z" fill="#000000" fill-rule="evenodd" fill-opacity="1" /><path clip-path="url(#clip660)" d="M934.829 893.665 L942.467 893.665 L942.467 867.299 L934.157 868.966 L934.157 864.707 L942.421 863.04 L947.097 863.04 L947.097 893.665 L954.736 893.665 L954.736 897.6 L934.829 897.6 L934.829 893.665 Z" fill="#000000" fill-rule="evenodd" fill-opacity="1" /><path clip-path="url(#clip660)" d="M1566.12 893.665 L1573.76 893.665 L1573.76 867.299 L1565.45 868.966 L1565.45 864.707 L1573.72 863.04 L1578.39 863.04 L1578.39 893.665 L1586.03 893.665 L1586.03 897.6 L1566.12 897.6 L1566.12 893.665 Z" fill="#000000" fill-rule="evenodd" fill-opacity="1" /><path clip-path="url(#clip660)" d="M1896.02 893.665 L1912.34 893.665 L1912.34 897.6 L1890.39 897.6 L1890.39 893.665 Q1893.05 890.91 1897.64 886.281 Q1902.24 881.628 1903.42 880.285 Q1905.67 877.762 1906.55 876.026 Q1907.45 874.267 1907.45 872.577 Q1907.45 869.822 1905.51 868.086 Q1903.59 866.35 1900.49 866.35 Q1898.29 866.35 1895.83 867.114 Q1893.4 867.878 1890.62 869.429 L1890.62 864.707 Q1893.45 863.572 1895.9 862.994 Q1898.36 862.415 1900.39 862.415 Q1905.76 862.415 1908.96 865.1 Q1912.15 867.785 1912.15 872.276 Q1912.15 874.406 1911.34 876.327 Q1910.55 878.225 1908.45 880.818 Q1907.87 881.489 1904.77 884.707 Q1901.67 887.901 1896.02 893.665 Z" fill="#000000" fill-rule="evenodd" fill-opacity="1" /><path clip-path="url(#clip660)" d="M2231.24 878.966 Q2234.59 879.683 2236.47 881.952 Q2238.37 884.22 2238.37 887.554 Q2238.37 892.669 2234.85 895.47 Q2231.33 898.271 2224.85 898.271 Q2222.67 898.271 2220.36 897.831 Q2218.07 897.415 2215.61 896.558 L2215.61 892.044 Q2217.56 893.179 2219.87 893.757 Q2222.19 894.336 2224.71 894.336 Q2229.11 894.336 2231.4 892.6 Q2233.71 890.864 2233.71 887.554 Q2233.71 884.498 2231.56 882.785 Q2229.43 881.049 2225.61 881.049 L2221.58 881.049 L2221.58 877.207 L2225.8 877.207 Q2229.25 877.207 2231.07 875.841 Q2232.9 874.452 2232.9 871.859 Q2232.9 869.197 2231 867.785 Q2229.13 866.35 2225.61 866.35 Q2223.69 866.35 2221.49 866.767 Q2219.29 867.183 2216.65 868.063 L2216.65 863.896 Q2219.32 863.156 2221.63 862.785 Q2223.97 862.415 2226.03 862.415 Q2231.35 862.415 2234.45 864.846 Q2237.56 867.253 2237.56 871.373 Q2237.56 874.244 2235.91 876.234 Q2234.27 878.202 2231.24 878.966 Z" fill="#000000" fill-rule="evenodd" fill-opacity="1" /><polyline clip-path="url(#clip662)" style="stroke:#000000; stroke-linecap:round; stroke-linejoin:round; stroke-width:2; stroke-opacity:0.1; fill:none" points="
  273.245,1486.45 2226.99,1486.45 
  "/>
<polyline clip-path="url(#clip662)" style="stroke:#000000; stroke-linecap:round; stroke-linejoin:round; stroke-width:2; stroke-opacity:0.1; fill:none" points="
  273.245,1160.82 2226.99,1160.82 
  "/>
<polyline clip-path="url(#clip662)" style="stroke:#000000; stroke-linecap:round; stroke-linejoin:round; stroke-width:2; stroke-opacity:0.1; fill:none" points="
  273.245,509.576 2226.99,509.576 
  "/>
<polyline clip-path="url(#clip662)" style="stroke:#000000; stroke-linecap:round; stroke-linejoin:round; stroke-width:2; stroke-opacity:0.1; fill:none" points="
  273.245,183.952 2226.99,183.952 
  "/>
<polyline clip-path="url(#clip660)" style="stroke:#000000; stroke-linecap:round; stroke-linejoin:round; stroke-width:4; stroke-opacity:1; fill:none" points="
  1250.12,1486.45 1250.12,183.952 
  "/>
<polyline clip-path="url(#clip660)" style="stroke:#000000; stroke-linecap:round; stroke-linejoin:round; stroke-width:4; stroke-opacity:1; fill:none" points="
  1233.37,1486.45 1266.86,1486.45 
  "/>
<polyline clip-path="url(#clip660)" style="stroke:#000000; stroke-linecap:round; stroke-linejoin:round; stroke-width:4; stroke-opacity:1; fill:none" points="
  1233.37,1160.82 1266.86,1160.82 
  "/>
<polyline clip-path="url(#clip660)" style="stroke:#000000; stroke-linecap:round; stroke-linejoin:round; stroke-width:4; stroke-opacity:1; fill:none" points="
  1233.37,509.576 1266.86,509.576 
  "/>
<polyline clip-path="url(#clip660)" style="stroke:#000000; stroke-linecap:round; stroke-linejoin:round; stroke-width:4; stroke-opacity:1; fill:none" points="
  1233.37,183.952 1266.86,183.952 
  "/>
<path clip-path="url(#clip660)" d="M1154 1486.9 L1183.68 1486.9 L1183.68 1490.83 L1154 1490.83 L1154 1486.9 Z" fill="#000000" fill-rule="evenodd" fill-opacity="1" /><path clip-path="url(#clip660)" d="M1197.8 1499.79 L1214.12 1499.79 L1214.12 1503.73 L1192.17 1503.73 L1192.17 1499.79 Q1194.83 1497.04 1199.42 1492.41 Q1204.02 1487.76 1205.2 1486.41 Q1207.45 1483.89 1208.33 1482.15 Q1209.23 1480.39 1209.23 1478.7 Q1209.23 1475.95 1207.29 1474.21 Q1205.37 1472.48 1202.27 1472.48 Q1200.07 1472.48 1197.61 1473.24 Q1195.18 1474.01 1192.4 1475.56 L1192.4 1470.83 Q1195.23 1469.7 1197.68 1469.12 Q1200.14 1468.54 1202.17 1468.54 Q1207.54 1468.54 1210.74 1471.23 Q1213.93 1473.91 1213.93 1478.4 Q1213.93 1480.53 1213.12 1482.45 Q1212.33 1484.35 1210.23 1486.95 Q1209.65 1487.62 1206.55 1490.83 Q1203.45 1494.03 1197.8 1499.79 Z" fill="#000000" fill-rule="evenodd" fill-opacity="1" /><path clip-path="url(#clip660)" d="M1153.63 1161.28 L1183.31 1161.28 L1183.31 1165.21 L1153.63 1165.21 L1153.63 1161.28 Z" fill="#000000" fill-rule="evenodd" fill-opacity="1" /><path clip-path="url(#clip660)" d="M1194.21 1174.17 L1201.85 1174.17 L1201.85 1147.8 L1193.54 1149.47 L1193.54 1145.21 L1201.8 1143.54 L1206.48 1143.54 L1206.48 1174.17 L1214.12 1174.17 L1214.12 1178.1 L1194.21 1178.1 L1194.21 1174.17 Z" fill="#000000" fill-rule="evenodd" fill-opacity="1" /><path clip-path="url(#clip660)" d="M1194.21 522.921 L1201.85 522.921 L1201.85 496.555 L1193.54 498.222 L1193.54 493.963 L1201.8 492.296 L1206.48 492.296 L1206.48 522.921 L1214.12 522.921 L1214.12 526.856 L1194.21 526.856 L1194.21 522.921 Z" fill="#000000" fill-rule="evenodd" fill-opacity="1" /><path clip-path="url(#clip660)" d="M1197.8 197.297 L1214.12 197.297 L1214.12 201.232 L1192.17 201.232 L1192.17 197.297 Q1194.83 194.542 1199.42 189.913 Q1204.02 185.26 1205.2 183.917 Q1207.45 181.394 1208.33 179.658 Q1209.23 177.899 1209.23 176.209 Q1209.23 173.454 1207.29 171.718 Q1205.37 169.982 1202.27 169.982 Q1200.07 169.982 1197.61 170.746 Q1195.18 171.51 1192.4 173.061 L1192.4 168.339 Q1195.23 167.205 1197.68 166.626 Q1200.14 166.047 1202.17 166.047 Q1207.54 166.047 1210.74 168.732 Q1213.93 171.417 1213.93 175.908 Q1213.93 178.038 1213.12 179.959 Q1212.33 181.857 1210.23 184.45 Q1209.65 185.121 1206.55 188.339 Q1203.45 191.533 1197.8 197.297 Z" fill="#000000" fill-rule="evenodd" fill-opacity="1" /><path clip-path="url(#clip660)" d="M729.141 49.8407 Q729.141 52.1361 727.706 53.4477 Q726.272 54.7184 724.632 54.7184 Q723.075 54.7184 722.255 53.8167 Q721.435 52.9149 721.435 51.7672 Q721.435 50.2096 722.583 48.857 Q723.73 47.5043 725.452 47.2174 Q723.771 46.1517 721.271 46.1517 Q719.632 46.1517 718.197 47.0124 Q716.803 47.8732 715.942 48.9799 Q715.123 50.0866 714.385 51.6852 Q713.688 53.2428 713.401 54.1856 Q713.155 55.0873 712.95 56.0711 L710.081 67.5481 Q708.687 72.9996 708.687 74.9261 Q708.687 77.3035 709.835 78.9021 Q710.983 80.4597 713.278 80.4597 Q714.18 80.4597 715.205 80.2137 Q716.229 79.9268 717.541 79.189 Q718.894 78.4102 720.082 77.2625 Q721.312 76.0738 722.501 74.0654 Q723.689 72.0569 724.468 69.4746 Q724.714 68.5728 725.534 68.5728 Q726.559 68.5728 726.559 69.3926 Q726.559 70.0894 725.985 71.565 Q725.452 72.9996 724.263 74.8851 Q723.116 76.7297 721.599 78.4102 Q720.082 80.0498 717.828 81.1975 Q715.574 82.3452 713.114 82.3452 Q709.589 82.3452 707.253 80.4597 Q704.916 78.5742 704.056 75.9509 Q703.851 76.3198 703.564 76.8116 Q703.277 77.3035 702.416 78.4102 Q701.596 79.4759 700.653 80.2957 Q699.711 81.0745 698.235 81.6894 Q696.8 82.3452 695.243 82.3452 Q693.275 82.3452 691.513 81.7713 Q689.791 81.1975 688.562 79.8858 Q687.332 78.5742 687.332 76.7706 Q687.332 74.7622 688.685 73.3685 Q690.078 71.9339 691.964 71.9339 Q693.152 71.9339 694.095 72.6307 Q695.079 73.3275 695.079 74.8442 Q695.079 76.5247 693.931 77.7954 Q692.784 79.066 691.144 79.394 Q692.825 80.4597 695.325 80.4597 Q698.03 80.4597 700.162 78.0823 Q702.293 75.7049 703.318 71.729 Q705.859 62.1785 706.843 57.9156 Q707.827 53.6117 707.827 51.7672 Q707.827 50.0456 707.376 48.857 Q706.925 47.6683 706.146 47.1354 Q705.408 46.5616 704.711 46.3566 Q704.056 46.1517 703.318 46.1517 Q702.088 46.1517 700.694 46.6435 Q699.342 47.1354 697.702 48.2831 Q696.104 49.3898 694.587 51.6852 Q693.07 53.9806 692.046 57.1368 Q691.841 58.0795 690.939 58.0795 Q689.955 58.0385 689.955 57.2188 Q689.955 56.5219 690.488 55.0873 Q691.062 53.6117 692.21 51.7672 Q693.398 49.9227 694.915 48.2831 Q696.473 46.6025 698.727 45.4548 Q701.022 44.3071 703.482 44.3071 Q704.588 44.3071 705.654 44.5531 Q706.761 44.758 708.073 45.3729 Q709.425 45.9877 710.614 47.3403 Q711.803 48.693 712.54 50.6605 Q713.032 49.7177 713.688 48.816 Q714.385 47.9142 715.451 46.8075 Q716.557 45.6598 718.074 45.004 Q719.632 44.3071 721.353 44.3071 Q723.034 44.3071 724.673 44.758 Q726.313 45.1679 727.706 46.5206 Q729.141 47.8322 729.141 49.8407 Z" fill="#000000" fill-rule="evenodd" fill-opacity="1" /><path clip-path="url(#clip660)" d="M769.06 36.0323 L776.513 36.0323 L776.513 81.4024 L769.06 81.4024 L769.06 36.0323 M769.06 18.3704 L776.513 18.3704 L776.513 27.809 L769.06 27.809 L769.06 18.3704 Z" fill="#000000" fill-rule="evenodd" fill-opacity="1" /><path clip-path="url(#clip660)" d="M821.033 37.3691 L821.033 44.4177 Q817.873 42.7973 814.47 41.9871 Q811.067 41.177 807.422 41.177 Q801.872 41.177 799.077 42.8783 Q796.322 44.5797 796.322 47.9825 Q796.322 50.5751 798.307 52.0739 Q800.292 53.5322 806.287 54.869 L808.839 55.4361 Q816.779 57.1375 820.101 60.2567 Q823.463 63.3354 823.463 68.8851 Q823.463 75.2046 818.44 78.8909 Q813.457 82.5772 804.707 82.5772 Q801.062 82.5772 797.092 81.848 Q793.162 81.1594 788.787 79.7416 L788.787 72.0448 Q792.919 74.1918 796.93 75.2856 Q800.94 76.3388 804.87 76.3388 Q810.136 76.3388 812.971 74.5564 Q815.807 72.7335 815.807 69.4523 Q815.807 66.4141 813.741 64.7937 Q811.716 63.1734 804.788 61.6745 L802.196 61.0669 Q795.269 59.6086 792.19 56.6109 Q789.111 53.5727 789.111 48.3066 Q789.111 41.9061 793.649 38.4223 Q798.186 34.9386 806.53 34.9386 Q810.662 34.9386 814.308 35.5462 Q817.954 36.1538 821.033 37.3691 Z" fill="#000000" fill-rule="evenodd" fill-opacity="1" /><path clip-path="url(#clip660)" d="M879.285 41.258 Q873.289 41.258 869.806 45.957 Q866.322 50.6156 866.322 58.7579 Q866.322 66.9002 869.765 71.5992 Q873.249 76.2578 879.285 76.2578 Q885.239 76.2578 888.723 71.5587 Q892.207 66.8597 892.207 58.7579 Q892.207 50.6966 888.723 45.9975 Q885.239 41.258 879.285 41.258 M879.285 34.9386 Q889.007 34.9386 894.557 41.258 Q900.106 47.5774 900.106 58.7579 Q900.106 69.8979 894.557 76.2578 Q889.007 82.5772 879.285 82.5772 Q869.522 82.5772 863.972 76.2578 Q858.463 69.8979 858.463 58.7579 Q858.463 47.5774 863.972 41.258 Q869.522 34.9386 879.285 34.9386 Z" fill="#000000" fill-rule="evenodd" fill-opacity="1" /><path clip-path="url(#clip660)" d="M938.752 42.9999 Q937.496 42.2707 935.997 41.9466 Q934.539 41.582 932.757 41.582 Q926.437 41.582 923.034 45.714 Q919.672 49.8054 919.672 57.5021 L919.672 81.4024 L912.178 81.4024 L912.178 36.0323 L919.672 36.0323 L919.672 43.0809 Q922.022 38.949 925.789 36.964 Q929.556 34.9386 934.944 34.9386 Q935.714 34.9386 936.645 35.0601 Q937.577 35.1411 938.711 35.3437 L938.752 42.9999 Z" fill="#000000" fill-rule="evenodd" fill-opacity="1" /><path clip-path="url(#clip660)" d="M953.943 23.1504 L953.943 36.0323 L969.296 36.0323 L969.296 41.8251 L953.943 41.8251 L953.943 66.4546 Q953.943 72.0043 955.442 73.5842 Q956.981 75.164 961.64 75.164 L969.296 75.164 L969.296 81.4024 L961.64 81.4024 Q953.011 81.4024 949.73 78.2022 Q946.449 74.9615 946.449 66.4546 L946.449 41.8251 L940.98 41.8251 L940.98 36.0323 L946.449 36.0323 L946.449 23.1504 L953.943 23.1504 Z" fill="#000000" fill-rule="evenodd" fill-opacity="1" /><path clip-path="url(#clip660)" d="M1016.81 54.0183 L1016.81 81.4024 L1009.36 81.4024 L1009.36 54.2614 Q1009.36 47.8204 1006.85 44.6202 Q1004.34 41.42 999.313 41.42 Q993.277 41.42 989.793 45.2684 Q986.31 49.1167 986.31 55.7602 L986.31 81.4024 L978.815 81.4024 L978.815 18.3704 L986.31 18.3704 L986.31 43.0809 Q988.983 38.9895 992.588 36.964 Q996.234 34.9386 1000.97 34.9386 Q1008.79 34.9386 1012.8 39.7997 Q1016.81 44.6202 1016.81 54.0183 Z" fill="#000000" fill-rule="evenodd" fill-opacity="1" /><path clip-path="url(#clip660)" d="M1049.26 41.258 Q1043.27 41.258 1039.78 45.957 Q1036.3 50.6156 1036.3 58.7579 Q1036.3 66.9002 1039.74 71.5992 Q1043.22 76.2578 1049.26 76.2578 Q1055.22 76.2578 1058.7 71.5587 Q1062.18 66.8597 1062.18 58.7579 Q1062.18 50.6966 1058.7 45.9975 Q1055.22 41.258 1049.26 41.258 M1049.26 34.9386 Q1058.98 34.9386 1064.53 41.258 Q1070.08 47.5774 1070.08 58.7579 Q1070.08 69.8979 1064.53 76.2578 Q1058.98 82.5772 1049.26 82.5772 Q1039.5 82.5772 1033.95 76.2578 Q1028.44 69.8979 1028.44 58.7579 Q1028.44 47.5774 1033.95 41.258 Q1039.5 34.9386 1049.26 34.9386 Z" fill="#000000" fill-rule="evenodd" fill-opacity="1" /><path clip-path="url(#clip660)" d="M1112.29 58.1908 Q1112.29 50.0889 1108.93 45.633 Q1105.61 41.177 1099.57 41.177 Q1093.58 41.177 1090.22 45.633 Q1086.89 50.0889 1086.89 58.1908 Q1086.89 66.2521 1090.22 70.7081 Q1093.58 75.164 1099.57 75.164 Q1105.61 75.164 1108.93 70.7081 Q1112.29 66.2521 1112.29 58.1908 M1119.75 75.7717 Q1119.75 87.3573 1114.6 92.988 Q1109.46 98.6593 1098.84 98.6593 Q1094.91 98.6593 1091.43 98.0517 Q1087.95 97.4845 1084.67 96.2693 L1084.67 89.0181 Q1087.95 90.8005 1091.15 91.6512 Q1094.35 92.5019 1097.67 92.5019 Q1105 92.5019 1108.65 88.6536 Q1112.29 84.8457 1112.29 77.1085 L1112.29 73.4222 Q1109.98 77.4326 1106.38 79.4175 Q1102.77 81.4024 1097.75 81.4024 Q1089.41 81.4024 1084.3 75.0425 Q1079.2 68.6826 1079.2 58.1908 Q1079.2 47.6584 1084.3 41.2985 Q1089.41 34.9386 1097.75 34.9386 Q1102.77 34.9386 1106.38 36.9235 Q1109.98 38.9085 1112.29 42.9188 L1112.29 36.0323 L1119.75 36.0323 L1119.75 75.7717 Z" fill="#000000" fill-rule="evenodd" fill-opacity="1" /><path clip-path="url(#clip660)" d="M1152.68 41.258 Q1146.68 41.258 1143.2 45.957 Q1139.72 50.6156 1139.72 58.7579 Q1139.72 66.9002 1143.16 71.5992 Q1146.64 76.2578 1152.68 76.2578 Q1158.63 76.2578 1162.12 71.5587 Q1165.6 66.8597 1165.6 58.7579 Q1165.6 50.6966 1162.12 45.9975 Q1158.63 41.258 1152.68 41.258 M1152.68 34.9386 Q1162.4 34.9386 1167.95 41.258 Q1173.5 47.5774 1173.5 58.7579 Q1173.5 69.8979 1167.95 76.2578 Q1162.4 82.5772 1152.68 82.5772 Q1142.92 82.5772 1137.37 76.2578 Q1131.86 69.8979 1131.86 58.7579 Q1131.86 47.5774 1137.37 41.258 Q1142.92 34.9386 1152.68 34.9386 Z" fill="#000000" fill-rule="evenodd" fill-opacity="1" /><path clip-path="url(#clip660)" d="M1223.57 54.0183 L1223.57 81.4024 L1216.12 81.4024 L1216.12 54.2614 Q1216.12 47.8204 1213.61 44.6202 Q1211.09 41.42 1206.07 41.42 Q1200.04 41.42 1196.55 45.2684 Q1193.07 49.1167 1193.07 55.7602 L1193.07 81.4024 L1185.57 81.4024 L1185.57 36.0323 L1193.07 36.0323 L1193.07 43.0809 Q1195.74 38.9895 1199.35 36.964 Q1202.99 34.9386 1207.73 34.9386 Q1215.55 34.9386 1219.56 39.7997 Q1223.57 44.6202 1223.57 54.0183 Z" fill="#000000" fill-rule="evenodd" fill-opacity="1" /><path clip-path="url(#clip660)" d="M1259.06 58.5958 Q1250.02 58.5958 1246.54 60.6618 Q1243.06 62.7278 1243.06 67.7104 Q1243.06 71.6803 1245.65 74.0298 Q1248.28 76.3388 1252.78 76.3388 Q1258.98 76.3388 1262.7 71.9638 Q1266.47 67.5483 1266.47 60.2567 L1266.47 58.5958 L1259.06 58.5958 M1273.92 55.5172 L1273.92 81.4024 L1266.47 81.4024 L1266.47 74.5159 Q1263.92 78.6478 1260.11 80.6328 Q1256.3 82.5772 1250.79 82.5772 Q1243.83 82.5772 1239.69 78.6883 Q1235.6 74.759 1235.6 68.1965 Q1235.6 60.5403 1240.71 56.6514 Q1245.85 52.7625 1256.02 52.7625 L1266.47 52.7625 L1266.47 52.0334 Q1266.47 46.8887 1263.07 44.0936 Q1259.71 41.258 1253.59 41.258 Q1249.7 41.258 1246.01 42.1897 Q1242.33 43.1214 1238.92 44.9848 L1238.92 38.0983 Q1243.02 36.5184 1246.86 35.7487 Q1250.71 34.9386 1254.36 34.9386 Q1264.2 34.9386 1269.06 40.0427 Q1273.92 45.1468 1273.92 55.5172 Z" fill="#000000" fill-rule="evenodd" fill-opacity="1" /><path clip-path="url(#clip660)" d="M1289.28 18.3704 L1296.73 18.3704 L1296.73 81.4024 L1289.28 81.4024 L1289.28 18.3704 Z" fill="#000000" fill-rule="evenodd" fill-opacity="1" /><path clip-path="url(#clip660)" d="M1346.07 23.1504 L1346.07 36.0323 L1361.42 36.0323 L1361.42 41.8251 L1346.07 41.8251 L1346.07 66.4546 Q1346.07 72.0043 1347.57 73.5842 Q1349.11 75.164 1353.77 75.164 L1361.42 75.164 L1361.42 81.4024 L1353.77 81.4024 Q1345.14 81.4024 1341.86 78.2022 Q1338.58 74.9615 1338.58 66.4546 L1338.58 41.8251 L1333.11 41.8251 L1333.11 36.0323 L1338.58 36.0323 L1338.58 23.1504 L1346.07 23.1504 Z" fill="#000000" fill-rule="evenodd" fill-opacity="1" /><path clip-path="url(#clip660)" d="M1388.81 41.258 Q1382.81 41.258 1379.33 45.957 Q1375.84 50.6156 1375.84 58.7579 Q1375.84 66.9002 1379.29 71.5992 Q1382.77 76.2578 1388.81 76.2578 Q1394.76 76.2578 1398.25 71.5587 Q1401.73 66.8597 1401.73 58.7579 Q1401.73 50.6966 1398.25 45.9975 Q1394.76 41.258 1388.81 41.258 M1388.81 34.9386 Q1398.53 34.9386 1404.08 41.258 Q1409.63 47.5774 1409.63 58.7579 Q1409.63 69.8979 1404.08 76.2578 Q1398.53 82.5772 1388.81 82.5772 Q1379.04 82.5772 1373.49 76.2578 Q1367.99 69.8979 1367.99 58.7579 Q1367.99 47.5774 1373.49 41.258 Q1379.04 34.9386 1388.81 34.9386 Z" fill="#000000" fill-rule="evenodd" fill-opacity="1" /><path clip-path="url(#clip660)" d="M1479.27 39.4496 Q1479.27 40.0235 1478.9 41.3761 L1470.87 73.4297 Q1469.11 80.5619 1463.37 85.5626 Q1457.67 90.5632 1451.19 90.5632 Q1447.3 90.5632 1444.8 88.4728 Q1442.3 86.4233 1442.3 83.2672 Q1442.3 80.4799 1443.78 79.1272 Q1445.25 77.8156 1447.01 77.8156 Q1447.59 77.8156 1448.2 77.9795 Q1448.82 78.1435 1449.47 78.8403 Q1450.13 79.5371 1450.13 80.7258 Q1450.13 82.6523 1448.45 84.1689 Q1447.63 84.8657 1446.85 85.0297 Q1446.11 85.1937 1444.84 85.1937 Q1445.33 86.3414 1446.23 87.1201 Q1447.14 87.8989 1448.16 88.1859 Q1449.19 88.5138 1449.84 88.5958 Q1450.54 88.7187 1451.19 88.7187 Q1456.44 88.7187 1460.46 83.4311 Q1461.65 81.8325 1462.51 80.2339 Q1463.41 78.6764 1464.07 76.7499 Q1464.72 74.8644 1465.01 73.8396 Q1465.34 72.8149 1465.91 70.4785 Q1462.1 74.2905 1457.42 74.2905 Q1455.46 74.2905 1453.69 73.7576 Q1451.97 73.2248 1450.46 72.1181 Q1448.94 70.9704 1448.04 68.9619 Q1447.18 66.9534 1447.18 64.2891 Q1447.18 61.4609 1448.28 57.6079 Q1449.39 53.7549 1452.06 46.6637 Q1453.49 42.6878 1453.49 40.7613 Q1453.49 39.8185 1453.29 39.2447 Q1453.08 38.6298 1452.67 38.4249 Q1452.26 38.1789 1452.01 38.138 Q1451.81 38.097 1451.4 38.097 Q1448.98 38.097 1446.73 40.5563 Q1444.47 43.0157 1442.91 48.5082 Q1442.59 49.533 1442.38 49.7789 Q1442.18 50.0249 1441.56 50.0249 Q1440.54 49.9839 1440.54 49.1641 Q1440.54 48.8362 1440.91 47.5655 Q1441.28 46.2538 1442.14 44.3273 Q1443.04 42.3599 1444.27 40.5973 Q1445.5 38.7938 1447.42 37.5231 Q1449.39 36.2525 1451.65 36.2525 Q1454.72 36.2525 1456.61 38.2609 Q1458.53 40.2284 1458.53 43.1387 Q1458.53 44.3273 1458.2 45.3931 Q1457.92 46.4178 1456.85 49.1641 Q1452.55 60.2312 1452.55 65.6418 Q1452.55 66.9534 1452.75 68.0601 Q1453 69.1259 1453.53 70.1916 Q1454.06 71.2163 1455.13 71.8311 Q1456.24 72.405 1457.75 72.405 Q1459.68 72.405 1461.48 71.5032 Q1463.33 70.5605 1464.48 69.2898 Q1465.66 68.0191 1466.36 66.9534 Q1467.1 65.8467 1467.26 65.2729 L1471.03 50.1888 L1472.71 43.4666 Q1473.49 39.8185 1473.86 38.9168 Q1474.35 38.056 1475.21 37.6051 Q1476.08 37.1542 1476.81 37.1542 Q1477.84 37.1542 1478.53 37.7691 Q1479.27 38.3839 1479.27 39.4496 Z" fill="#000000" fill-rule="evenodd" fill-opacity="1" /><path clip-path="url(#clip660)" d="M1533.35 18.4514 Q1527.92 27.7685 1525.29 36.883 Q1522.66 45.9975 1522.66 55.3551 Q1522.66 64.7127 1525.29 73.9083 Q1527.96 83.0633 1533.35 92.3399 L1526.87 92.3399 Q1520.79 82.8203 1517.75 73.6247 Q1514.76 64.4291 1514.76 55.3551 Q1514.76 46.3216 1517.75 37.1666 Q1520.75 28.0115 1526.87 18.4514 L1533.35 18.4514 Z" fill="#000000" fill-rule="evenodd" fill-opacity="1" /><path clip-path="url(#clip660)" d="M1575.16 51.8563 Q1575.16 54.1517 1573.72 55.4634 Q1572.29 56.734 1570.65 56.734 Q1569.09 56.734 1568.27 55.8323 Q1567.45 54.9305 1567.45 53.7828 Q1567.45 52.2252 1568.6 50.8726 Q1569.75 49.5199 1571.47 49.233 Q1569.79 48.1673 1567.29 48.1673 Q1565.65 48.1673 1564.21 49.0281 Q1562.82 49.8888 1561.96 50.9955 Q1561.14 52.1023 1560.4 53.7008 Q1559.71 55.2584 1559.42 56.2012 Q1559.17 57.1029 1558.97 58.0867 L1556.1 69.5637 Q1554.71 75.0153 1554.71 76.9418 Q1554.71 79.3191 1555.85 80.9177 Q1557 82.4753 1559.3 82.4753 Q1560.2 82.4753 1561.22 82.2294 Q1562.25 81.9424 1563.56 81.2046 Q1564.91 80.4258 1566.1 79.2781 Q1567.33 78.0895 1568.52 76.081 Q1569.71 74.0725 1570.49 71.4902 Q1570.73 70.5884 1571.55 70.5884 Q1572.58 70.5884 1572.58 71.4082 Q1572.58 72.105 1572 73.5806 Q1571.47 75.0153 1570.28 76.9008 Q1569.13 78.7453 1567.62 80.4258 Q1566.1 82.0654 1563.85 83.2131 Q1561.59 84.3608 1559.13 84.3608 Q1555.61 84.3608 1553.27 82.4753 Q1550.93 80.5898 1550.07 77.9665 Q1549.87 78.3354 1549.58 78.8273 Q1549.29 79.3191 1548.43 80.4258 Q1547.61 81.4916 1546.67 82.3114 Q1545.73 83.0901 1544.25 83.705 Q1542.82 84.3608 1541.26 84.3608 Q1539.29 84.3608 1537.53 83.787 Q1535.81 83.2131 1534.58 81.9015 Q1533.35 80.5898 1533.35 78.7863 Q1533.35 76.7778 1534.7 75.3842 Q1536.1 73.9495 1537.98 73.9495 Q1539.17 73.9495 1540.11 74.6464 Q1541.1 75.3432 1541.1 76.8598 Q1541.1 78.5403 1539.95 79.811 Q1538.8 81.0817 1537.16 81.4096 Q1538.84 82.4753 1541.34 82.4753 Q1544.05 82.4753 1546.18 80.0979 Q1548.31 77.7206 1549.34 73.7446 Q1551.88 64.1941 1552.86 59.9312 Q1553.84 55.6273 1553.84 53.7828 Q1553.84 52.0613 1553.39 50.8726 Q1552.94 49.6839 1552.16 49.151 Q1551.43 48.5772 1550.73 48.3722 Q1550.07 48.1673 1549.34 48.1673 Q1548.11 48.1673 1546.71 48.6592 Q1545.36 49.151 1543.72 50.2987 Q1542.12 51.4054 1540.6 53.7008 Q1539.09 55.9962 1538.06 59.1524 Q1537.86 60.0952 1536.96 60.0952 Q1535.97 60.0542 1535.97 59.2344 Q1535.97 58.5376 1536.51 57.1029 Q1537.08 55.6273 1538.23 53.7828 Q1539.42 51.9383 1540.93 50.2987 Q1542.49 48.6182 1544.74 47.4705 Q1547.04 46.3228 1549.5 46.3228 Q1550.61 46.3228 1551.67 46.5687 Q1552.78 46.7736 1554.09 47.3885 Q1555.44 48.0033 1556.63 49.356 Q1557.82 50.7086 1558.56 52.6761 Q1559.05 51.7334 1559.71 50.8316 Q1560.4 49.9298 1561.47 48.8231 Q1562.58 47.6754 1564.09 47.0196 Q1565.65 46.3228 1567.37 46.3228 Q1569.05 46.3228 1570.69 46.7736 Q1572.33 47.1835 1573.72 48.5362 Q1575.16 49.8478 1575.16 51.8563 Z" fill="#000000" fill-rule="evenodd" fill-opacity="1" /><path clip-path="url(#clip660)" d="M1659.6 80.5488 Q1660.09 81.0407 1660.09 81.7375 Q1660.09 82.4343 1659.6 82.9262 Q1659.1 83.4181 1658.41 83.4181 L1605.86 83.4181 Q1605.16 83.4181 1604.67 82.9262 Q1604.18 82.4343 1604.18 81.7375 Q1604.18 81.0407 1604.67 80.5488 Q1605.16 80.0569 1605.86 80.0569 L1630.45 80.0569 L1630.45 27.6726 Q1630.45 26.9758 1630.94 26.484 Q1631.44 25.9921 1632.13 25.9921 Q1632.83 25.9921 1633.32 26.484 Q1633.81 26.9758 1633.81 27.6726 L1633.81 80.0569 L1658.41 80.0569 Q1659.1 80.0569 1659.6 80.5488 Z" fill="#000000" fill-rule="evenodd" fill-opacity="1" /><path clip-path="url(#clip660)" d="M1730.87 49.5199 Q1730.87 50.0938 1730.5 51.4464 L1722.47 83.5 Q1720.71 90.6322 1714.97 95.6329 Q1709.27 100.634 1702.8 100.634 Q1698.9 100.634 1696.4 98.5431 Q1693.9 96.4936 1693.9 93.3375 Q1693.9 90.5502 1695.38 89.1976 Q1696.85 87.8859 1698.61 87.8859 Q1699.19 87.8859 1699.8 88.0499 Q1700.42 88.2138 1701.07 88.9106 Q1701.73 89.6074 1701.73 90.7961 Q1701.73 92.7226 1700.05 94.2392 Q1699.23 94.936 1698.45 95.1 Q1697.71 95.264 1696.44 95.264 Q1696.93 96.4117 1697.84 97.1905 Q1698.74 97.9693 1699.76 98.2562 Q1700.79 98.5841 1701.44 98.6661 Q1702.14 98.789 1702.8 98.789 Q1708.04 98.789 1712.06 93.5014 Q1713.25 91.9028 1714.11 90.3043 Q1715.01 88.7467 1715.67 86.8202 Q1716.32 84.9347 1716.61 83.9099 Q1716.94 82.8852 1717.51 80.5488 Q1713.7 84.3608 1709.03 84.3608 Q1707.06 84.3608 1705.3 83.828 Q1703.57 83.2951 1702.06 82.1884 Q1700.54 81.0407 1699.64 79.0322 Q1698.78 77.0237 1698.78 74.3594 Q1698.78 71.5312 1699.89 67.6782 Q1700.99 63.8252 1703.66 56.734 Q1705.09 52.7581 1705.09 50.8316 Q1705.09 49.8888 1704.89 49.315 Q1704.68 48.7001 1704.27 48.4952 Q1703.86 48.2493 1703.62 48.2083 Q1703.41 48.1673 1703 48.1673 Q1700.58 48.1673 1698.33 50.6266 Q1696.07 53.086 1694.52 58.5786 Q1694.19 59.6033 1693.98 59.8492 Q1693.78 60.0952 1693.16 60.0952 Q1692.14 60.0542 1692.14 59.2344 Q1692.14 58.9065 1692.51 57.6358 Q1692.88 56.3241 1693.74 54.3977 Q1694.64 52.4302 1695.87 50.6676 Q1697.1 48.8641 1699.02 47.5934 Q1700.99 46.3228 1703.25 46.3228 Q1706.32 46.3228 1708.21 48.3312 Q1710.13 50.2987 1710.13 53.209 Q1710.13 54.3977 1709.8 55.4634 Q1709.52 56.4881 1708.45 59.2344 Q1704.15 70.3015 1704.15 75.7121 Q1704.15 77.0237 1704.35 78.1304 Q1704.6 79.1962 1705.13 80.2619 Q1705.66 81.2866 1706.73 81.9015 Q1707.84 82.4753 1709.35 82.4753 Q1711.28 82.4753 1713.08 81.5735 Q1714.93 80.6308 1716.08 79.3601 Q1717.26 78.0895 1717.96 77.0237 Q1718.7 75.917 1718.86 75.3432 L1722.63 60.2591 L1724.31 53.5369 Q1725.09 49.8888 1725.46 48.9871 Q1725.95 48.1263 1726.82 47.6754 Q1727.68 47.2245 1728.41 47.2245 Q1729.44 47.2245 1730.14 47.8394 Q1730.87 48.4542 1730.87 49.5199 Z" fill="#000000" fill-rule="evenodd" fill-opacity="1" /><path clip-path="url(#clip660)" d="M1732.86 18.4514 L1739.34 18.4514 Q1745.41 28.0115 1748.41 37.1666 Q1751.45 46.3216 1751.45 55.3551 Q1751.45 64.4291 1748.41 73.6247 Q1745.41 82.8203 1739.34 92.3399 L1732.86 92.3399 Q1738.24 83.0633 1740.88 73.9083 Q1743.55 64.7127 1743.55 55.3551 Q1743.55 45.9975 1740.88 36.883 Q1738.24 27.7685 1732.86 18.4514 Z" fill="#000000" fill-rule="evenodd" fill-opacity="1" /><path clip-path="url(#clip660)" d="M1768.3 71.1131 L1776.85 71.1131 L1776.85 81.4024 L1768.3 81.4024 L1768.3 71.1131 M1768.3 38.5034 L1776.85 38.5034 L1776.85 48.7927 L1768.3 48.7927 L1768.3 38.5034 Z" fill="#000000" fill-rule="evenodd" fill-opacity="1" /><path clip-path="url(#clip660)" d="M1176.92 143.654 Q1176.92 145.95 1175.48 147.261 Q1174.05 148.532 1172.41 148.532 Q1170.85 148.532 1170.03 147.63 Q1169.21 146.729 1169.21 145.581 Q1169.21 144.023 1170.36 142.671 Q1171.51 141.318 1173.23 141.031 Q1171.55 139.965 1169.05 139.965 Q1167.41 139.965 1165.97 140.826 Q1164.58 141.687 1163.72 142.794 Q1162.9 143.9 1162.16 145.499 Q1161.47 147.057 1161.18 147.999 Q1160.93 148.901 1160.73 149.885 L1157.86 161.362 Q1156.47 166.813 1156.47 168.74 Q1156.47 171.117 1157.61 172.716 Q1158.76 174.273 1161.06 174.273 Q1161.96 174.273 1162.98 174.027 Q1164.01 173.741 1165.32 173.003 Q1166.67 172.224 1167.86 171.076 Q1169.09 169.888 1170.28 167.879 Q1171.47 165.871 1172.25 163.288 Q1172.49 162.387 1173.31 162.387 Q1174.34 162.387 1174.34 163.206 Q1174.34 163.903 1173.76 165.379 Q1173.23 166.813 1172.04 168.699 Q1170.89 170.543 1169.38 172.224 Q1167.86 173.864 1165.61 175.011 Q1163.35 176.159 1160.89 176.159 Q1157.37 176.159 1155.03 174.273 Q1152.69 172.388 1151.83 169.765 Q1151.63 170.134 1151.34 170.625 Q1151.05 171.117 1150.19 172.224 Q1149.37 173.29 1148.43 174.109 Q1147.49 174.888 1146.01 175.503 Q1144.58 176.159 1143.02 176.159 Q1141.05 176.159 1139.29 175.585 Q1137.57 175.011 1136.34 173.7 Q1135.11 172.388 1135.11 170.584 Q1135.11 168.576 1136.46 167.182 Q1137.86 165.748 1139.74 165.748 Q1140.93 165.748 1141.87 166.444 Q1142.86 167.141 1142.86 168.658 Q1142.86 170.338 1141.71 171.609 Q1140.56 172.88 1138.92 173.208 Q1140.6 174.273 1143.1 174.273 Q1145.81 174.273 1147.94 171.896 Q1150.07 169.519 1151.1 165.543 Q1153.64 155.992 1154.62 151.729 Q1155.6 147.425 1155.6 145.581 Q1155.6 143.859 1155.15 142.671 Q1154.7 141.482 1153.92 140.949 Q1153.19 140.375 1152.49 140.17 Q1151.83 139.965 1151.1 139.965 Q1149.87 139.965 1148.47 140.457 Q1147.12 140.949 1145.48 142.097 Q1143.88 143.204 1142.37 145.499 Q1140.85 147.794 1139.82 150.951 Q1139.62 151.893 1138.72 151.893 Q1137.73 151.852 1137.73 151.033 Q1137.73 150.336 1138.27 148.901 Q1138.84 147.425 1139.99 145.581 Q1141.18 143.736 1142.69 142.097 Q1144.25 140.416 1146.5 139.269 Q1148.8 138.121 1151.26 138.121 Q1152.37 138.121 1153.43 138.367 Q1154.54 138.572 1155.85 139.187 Q1157.2 139.801 1158.39 141.154 Q1159.58 142.507 1160.32 144.474 Q1160.81 143.531 1161.47 142.63 Q1162.16 141.728 1163.23 140.621 Q1164.34 139.474 1165.85 138.818 Q1167.41 138.121 1169.13 138.121 Q1170.81 138.121 1172.45 138.572 Q1174.09 138.982 1175.48 140.334 Q1176.92 141.646 1176.92 143.654 Z" fill="#000000" fill-rule="evenodd" fill-opacity="1" /><path clip-path="url(#clip660)" d="M1189.3 119.471 Q1189.3 117.38 1190.57 116.52 Q1191.84 115.618 1193.2 115.618 Q1194.88 115.618 1195.94 116.643 Q1197.05 117.626 1197.05 119.471 Q1197.05 120.291 1196.97 120.741 L1194.18 146.073 L1192.25 146.073 L1189.38 120.741 Q1189.3 120.291 1189.3 119.471 Z" fill="#000000" fill-rule="evenodd" fill-opacity="1" /><path clip-path="url(#clip660)" d="M1251.14 141.318 Q1251.14 141.892 1250.77 143.245 L1242.73 175.298 Q1240.97 182.43 1235.23 187.431 Q1229.53 192.432 1223.06 192.432 Q1219.16 192.432 1216.66 190.341 Q1214.16 188.292 1214.16 185.136 Q1214.16 182.348 1215.64 180.996 Q1217.12 179.684 1218.88 179.684 Q1219.45 179.684 1220.07 179.848 Q1220.68 180.012 1221.34 180.709 Q1221.99 181.406 1221.99 182.594 Q1221.99 184.521 1220.31 186.037 Q1219.49 186.734 1218.71 186.898 Q1217.98 187.062 1216.71 187.062 Q1217.2 188.21 1218.1 188.989 Q1219 189.767 1220.03 190.054 Q1221.05 190.382 1221.71 190.464 Q1222.4 190.587 1223.06 190.587 Q1228.31 190.587 1232.32 185.3 Q1233.51 183.701 1234.37 182.102 Q1235.27 180.545 1235.93 178.618 Q1236.59 176.733 1236.87 175.708 Q1237.2 174.683 1237.77 172.347 Q1233.96 176.159 1229.29 176.159 Q1227.32 176.159 1225.56 175.626 Q1223.84 175.093 1222.32 173.987 Q1220.8 172.839 1219.9 170.83 Q1219.04 168.822 1219.04 166.158 Q1219.04 163.329 1220.15 159.476 Q1221.26 155.623 1223.92 148.532 Q1225.35 144.556 1225.35 142.63 Q1225.35 141.687 1225.15 141.113 Q1224.94 140.498 1224.53 140.293 Q1224.12 140.047 1223.88 140.006 Q1223.67 139.965 1223.26 139.965 Q1220.85 139.965 1218.59 142.425 Q1216.34 144.884 1214.78 150.377 Q1214.45 151.401 1214.25 151.647 Q1214.04 151.893 1213.43 151.893 Q1212.4 151.852 1212.4 151.033 Q1212.4 150.705 1212.77 149.434 Q1213.14 148.122 1214 146.196 Q1214.9 144.228 1216.13 142.466 Q1217.36 140.662 1219.29 139.392 Q1221.26 138.121 1223.51 138.121 Q1226.58 138.121 1228.47 140.129 Q1230.4 142.097 1230.4 145.007 Q1230.4 146.196 1230.07 147.261 Q1229.78 148.286 1228.72 151.033 Q1224.41 162.1 1224.41 167.51 Q1224.41 168.822 1224.62 169.929 Q1224.86 170.994 1225.4 172.06 Q1225.93 173.085 1226.99 173.7 Q1228.1 174.273 1229.62 174.273 Q1231.54 174.273 1233.35 173.372 Q1235.19 172.429 1236.34 171.158 Q1237.53 169.888 1238.22 168.822 Q1238.96 167.715 1239.13 167.141 L1242.9 152.057 L1244.58 145.335 Q1245.36 141.687 1245.73 140.785 Q1246.22 139.924 1247.08 139.474 Q1247.94 139.023 1248.68 139.023 Q1249.7 139.023 1250.4 139.637 Q1251.14 140.252 1251.14 141.318 Z" fill="#000000" fill-rule="evenodd" fill-opacity="1" /><path clip-path="url(#clip660)" d="M1276.41 162.469 Q1276.49 161.444 1278.09 161.444 L1329.53 161.444 Q1331.95 161.444 1331.99 162.387 Q1331.99 163.411 1329.7 163.37 L1278.66 163.37 Q1276.41 163.411 1276.41 162.469 M1276.41 146.073 Q1276.41 145.048 1278.17 145.089 L1329.45 145.089 Q1331.95 145.089 1331.99 146.073 Q1331.99 147.016 1329.86 147.016 L1278.09 147.016 Q1276.41 147.016 1276.41 146.073 Z" fill="#000000" fill-rule="evenodd" fill-opacity="1" /><path clip-path="url(#clip660)" d="M1364.37 148.368 Q1364.37 136.03 1367.48 129.308 Q1371.83 119.307 1382.08 119.307 Q1384.25 119.307 1386.5 119.922 Q1388.8 120.496 1391.67 122.75 Q1394.58 125.004 1396.34 128.693 Q1399.7 135.825 1399.7 148.368 Q1399.7 160.624 1396.59 167.305 Q1392.04 177.061 1382 177.061 Q1378.22 177.061 1374.37 175.134 Q1370.56 173.208 1368.14 168.576 Q1364.37 161.649 1364.37 148.368 M1371.34 147.343 Q1371.34 160.009 1372.24 165.051 Q1373.26 170.502 1376.05 172.88 Q1378.88 175.216 1382 175.216 Q1385.36 175.216 1388.14 172.716 Q1390.97 170.175 1391.83 164.723 Q1392.78 159.353 1392.73 147.343 Q1392.73 135.662 1391.91 130.989 Q1390.81 125.537 1387.86 123.365 Q1384.95 121.151 1382 121.151 Q1380.89 121.151 1379.7 121.479 Q1378.55 121.807 1376.87 122.75 Q1375.19 123.693 1373.88 126.029 Q1372.61 128.365 1371.99 131.891 Q1371.34 136.44 1371.34 147.343 Z" fill="#000000" fill-rule="evenodd" fill-opacity="1" /><path clip-path="url(#clip660)" d="M1407.21 173.864 Q1405.94 172.511 1405.94 170.748 Q1405.94 168.986 1407.21 167.715 Q1408.48 166.403 1410.41 166.403 Q1412.25 166.403 1413.48 167.633 Q1414.75 168.822 1414.75 170.789 Q1414.75 172.716 1413.4 173.987 Q1412.09 175.216 1410.41 175.216 Q1408.48 175.216 1407.21 173.864 Z" fill="#000000" fill-rule="evenodd" fill-opacity="1" /><path clip-path="url(#clip660)" d="M1429.04 148.368 Q1429.04 136.03 1432.15 129.308 Q1436.5 119.307 1446.75 119.307 Q1448.92 119.307 1451.17 119.922 Q1453.47 120.496 1456.34 122.75 Q1459.25 125.004 1461.01 128.693 Q1464.37 135.825 1464.37 148.368 Q1464.37 160.624 1461.26 167.305 Q1456.71 177.061 1446.66 177.061 Q1442.89 177.061 1439.04 175.134 Q1435.23 173.208 1432.81 168.576 Q1429.04 161.649 1429.04 148.368 M1436.01 147.343 Q1436.01 160.009 1436.91 165.051 Q1437.93 170.502 1440.72 172.88 Q1443.55 175.216 1446.66 175.216 Q1450.03 175.216 1452.81 172.716 Q1455.64 170.175 1456.5 164.723 Q1457.44 159.353 1457.4 147.343 Q1457.4 135.662 1456.58 130.989 Q1455.48 125.537 1452.53 123.365 Q1449.62 121.151 1446.66 121.151 Q1445.56 121.151 1444.37 121.479 Q1443.22 121.807 1441.54 122.75 Q1439.86 123.693 1438.55 126.029 Q1437.28 128.365 1436.66 131.891 Q1436.01 136.44 1436.01 147.343 Z" fill="#000000" fill-rule="evenodd" fill-opacity="1" /><polyline clip-path="url(#clip662)" style="stroke:#0000ff; stroke-linecap:round; stroke-linejoin:round; stroke-width:4; stroke-opacity:1; fill:none" points="
  1250.12,835.2 1901.36,509.576 
  "/>
<polyline clip-path="url(#clip662)" style="stroke:#0000ff; stroke-linecap:round; stroke-linejoin:round; stroke-width:4; stroke-opacity:1; fill:none" points="
  1861.12,509.576 1901.36,509.576 1877.22,541.775 
  "/>
<polyline clip-path="url(#clip662)" style="stroke:#0000ff; stroke-linecap:round; stroke-linejoin:round; stroke-width:4; stroke-opacity:1; fill:none" points="
  1901.36,509.576 1250.12,835.2 
  "/>
<polyline clip-path="url(#clip662)" style="stroke:#0000ff; stroke-linecap:round; stroke-linejoin:round; stroke-width:4; stroke-opacity:1; fill:none" points="
  1250.12,835.2 1087.3,509.576 
  "/>
<polyline clip-path="url(#clip662)" style="stroke:#0000ff; stroke-linecap:round; stroke-linejoin:round; stroke-width:4; stroke-opacity:1; fill:none" points="
  1087.3,549.825 1087.3,509.576 1119.5,533.726 
  "/>
<polyline clip-path="url(#clip662)" style="stroke:#0000ff; stroke-linecap:round; stroke-linejoin:round; stroke-width:4; stroke-opacity:1; fill:none" points="
  1087.3,509.576 1250.12,835.2 
  "/>
<path clip-path="url(#clip660)" d="M1955.33 498.803 Q1955.33 501.099 1953.9 502.41 Q1952.47 503.681 1950.83 503.681 Q1949.27 503.681 1948.45 502.779 Q1947.63 501.878 1947.63 500.73 Q1947.63 499.172 1948.78 497.82 Q1949.92 496.467 1951.65 496.18 Q1949.96 495.114 1947.46 495.114 Q1945.82 495.114 1944.39 495.975 Q1943 496.836 1942.14 497.943 Q1941.32 499.049 1940.58 500.648 Q1939.88 502.205 1939.59 503.148 Q1939.35 504.05 1939.14 505.034 L1936.27 516.511 Q1934.88 521.962 1934.88 523.889 Q1934.88 526.266 1936.03 527.865 Q1937.18 529.422 1939.47 529.422 Q1940.37 529.422 1941.4 529.176 Q1942.42 528.89 1943.73 528.152 Q1945.09 527.373 1946.28 526.225 Q1947.51 525.037 1948.69 523.028 Q1949.88 521.02 1950.66 518.437 Q1950.91 517.535 1951.73 517.535 Q1952.75 517.535 1952.75 518.355 Q1952.75 519.052 1952.18 520.528 Q1951.65 521.962 1950.46 523.848 Q1949.31 525.692 1947.79 527.373 Q1946.28 529.012 1944.02 530.16 Q1941.77 531.308 1939.31 531.308 Q1935.78 531.308 1933.45 529.422 Q1931.11 527.537 1930.25 524.914 Q1930.04 525.282 1929.76 525.774 Q1929.47 526.266 1928.61 527.373 Q1927.79 528.439 1926.85 529.258 Q1925.9 530.037 1924.43 530.652 Q1922.99 531.308 1921.44 531.308 Q1919.47 531.308 1917.71 530.734 Q1915.98 530.16 1914.75 528.849 Q1913.53 527.537 1913.53 525.733 Q1913.53 523.725 1914.88 522.331 Q1916.27 520.897 1918.16 520.897 Q1919.35 520.897 1920.29 521.593 Q1921.27 522.29 1921.27 523.807 Q1921.27 525.487 1920.12 526.758 Q1918.98 528.029 1917.34 528.357 Q1919.02 529.422 1921.52 529.422 Q1924.22 529.422 1926.35 527.045 Q1928.49 524.668 1929.51 520.692 Q1932.05 511.141 1933.04 506.878 Q1934.02 502.574 1934.02 500.73 Q1934.02 499.008 1933.57 497.82 Q1933.12 496.631 1932.34 496.098 Q1931.6 495.524 1930.9 495.319 Q1930.25 495.114 1929.51 495.114 Q1928.28 495.114 1926.89 495.606 Q1925.54 496.098 1923.9 497.246 Q1922.3 498.352 1920.78 500.648 Q1919.26 502.943 1918.24 506.099 Q1918.03 507.042 1917.13 507.042 Q1916.15 507.001 1916.15 506.181 Q1916.15 505.485 1916.68 504.05 Q1917.26 502.574 1918.4 500.73 Q1919.59 498.885 1921.11 497.246 Q1922.67 495.565 1924.92 494.418 Q1927.22 493.27 1929.68 493.27 Q1930.78 493.27 1931.85 493.516 Q1932.95 493.721 1934.27 494.336 Q1935.62 494.95 1936.81 496.303 Q1938 497.656 1938.73 499.623 Q1939.23 498.68 1939.88 497.779 Q1940.58 496.877 1941.64 495.77 Q1942.75 494.622 1944.27 493.967 Q1945.82 493.27 1947.55 493.27 Q1949.23 493.27 1950.87 493.721 Q1952.51 494.131 1953.9 495.483 Q1955.33 496.795 1955.33 498.803 Z" fill="#000000" fill-rule="evenodd" fill-opacity="1" /><path clip-path="url(#clip660)" d="M1984.35 517.617 Q1984.44 516.593 1986.03 516.593 L2037.48 516.593 Q2039.89 516.593 2039.94 517.535 Q2039.94 518.56 2037.64 518.519 L1986.61 518.519 Q1984.35 518.56 1984.35 517.617 M1984.35 501.222 Q1984.35 500.197 1986.12 500.238 L2037.39 500.238 Q2039.89 500.238 2039.94 501.222 Q2039.94 502.165 2037.8 502.165 L1986.03 502.165 Q1984.35 502.165 1984.35 501.222 Z" fill="#000000" fill-rule="evenodd" fill-opacity="1" /><path clip-path="url(#clip660)" d="M2072.31 509.379 Q2072.31 495.196 2077.6 483.76 Q2079.86 478.965 2083.01 474.948 Q2086.17 470.931 2088.26 469.168 Q2090.35 467.406 2090.92 467.406 Q2091.74 467.406 2091.78 468.225 Q2091.78 468.635 2090.68 469.66 Q2077.15 483.432 2077.19 509.379 Q2077.19 535.407 2090.35 548.646 Q2091.78 550.081 2091.78 550.532 Q2091.78 551.352 2090.92 551.352 Q2090.35 551.352 2088.34 549.671 Q2086.33 547.991 2083.22 544.138 Q2080.1 540.285 2077.85 535.571 Q2072.31 524.135 2072.31 509.379 Z" fill="#000000" fill-rule="evenodd" fill-opacity="1" /><path clip-path="url(#clip660)" d="M2099.84 530.365 Q2099.84 528.849 2099.97 528.398 Q2100.13 527.947 2100.79 527.25 L2116.89 509.297 Q2125.71 499.377 2125.71 490.728 Q2125.71 485.113 2122.76 481.096 Q2119.85 477.079 2114.48 477.079 Q2110.79 477.079 2107.67 479.333 Q2104.56 481.588 2103.12 485.605 Q2103.37 485.523 2104.23 485.523 Q2106.32 485.523 2107.47 486.835 Q2108.66 488.146 2108.66 489.909 Q2108.66 492.163 2107.18 493.27 Q2105.75 494.336 2104.31 494.336 Q2103.74 494.336 2102.96 494.213 Q2102.22 494.09 2101.03 492.942 Q2099.84 491.753 2099.84 489.663 Q2099.84 483.801 2104.27 479.129 Q2108.74 474.456 2115.54 474.456 Q2123.25 474.456 2128.29 479.047 Q2133.37 483.596 2133.37 490.728 Q2133.37 493.229 2132.59 495.524 Q2131.86 497.779 2130.83 499.541 Q2129.85 501.304 2127.14 504.132 Q2124.44 506.96 2122.26 508.969 Q2120.09 510.977 2115.21 515.24 L2106.32 523.889 L2121.44 523.889 Q2128.82 523.889 2129.4 523.233 Q2130.22 522.044 2131.24 515.773 L2133.37 515.773 L2130.99 530.365 L2099.84 530.365 Z" fill="#000000" fill-rule="evenodd" fill-opacity="1" /><path clip-path="url(#clip660)" d="M2142.6 529.012 Q2141.41 527.66 2141.41 525.897 Q2141.41 524.135 2142.56 522.823 Q2143.75 521.47 2145.88 521.47 Q2148.38 521.47 2149.82 523.889 Q2151.25 526.266 2151.25 530.283 Q2151.25 534.628 2149.49 538.645 Q2147.73 542.703 2146 544.629 Q2144.28 546.556 2143.59 546.556 Q2142.77 546.556 2142.77 545.654 Q2142.77 545.326 2143.34 544.711 Q2149.37 538.235 2149.41 530.283 Q2149.41 529.012 2149.24 529.012 L2149.04 529.176 Q2147.6 530.365 2145.88 530.365 Q2143.79 530.365 2142.6 529.012 Z" fill="#000000" fill-rule="evenodd" fill-opacity="1" /><path clip-path="url(#clip660)" d="M2177.74 482.449 L2177.74 479.825 Q2187.82 479.825 2193.03 474.456 Q2194.46 474.456 2194.71 474.784 Q2194.96 475.112 2194.96 476.628 L2194.96 523.725 Q2194.96 526.225 2196.19 527.004 Q2197.41 527.783 2202.78 527.783 L2205.45 527.783 L2205.45 530.365 Q2202.5 530.119 2191.84 530.119 Q2181.18 530.119 2178.27 530.365 L2178.27 527.783 L2180.94 527.783 Q2186.22 527.783 2187.5 527.045 Q2188.77 526.266 2188.77 523.725 L2188.77 480.235 Q2184.38 482.449 2177.74 482.449 Z" fill="#000000" fill-rule="evenodd" fill-opacity="1" /><path clip-path="url(#clip660)" d="M2217.97 550.532 Q2217.97 550.122 2219.03 549.097 Q2232.56 535.325 2232.56 509.379 Q2232.56 483.35 2219.56 470.193 Q2217.97 468.676 2217.97 468.225 Q2217.97 467.406 2218.79 467.406 Q2219.36 467.406 2221.37 469.086 Q2223.42 470.767 2226.49 474.62 Q2229.61 478.473 2231.9 483.186 Q2237.44 494.622 2237.44 509.379 Q2237.44 523.561 2232.15 534.997 Q2229.89 539.793 2226.74 543.81 Q2223.58 547.827 2221.49 549.589 Q2219.4 551.352 2218.79 551.352 Q2217.97 551.352 2217.97 550.532 Z" fill="#000000" fill-rule="evenodd" fill-opacity="1" /><path clip-path="url(#clip660)" d="M2256.85 474.62 Q2256.85 472.529 2258.12 471.668 Q2259.4 470.767 2260.75 470.767 Q2262.43 470.767 2263.49 471.791 Q2264.6 472.775 2264.6 474.62 Q2264.6 475.439 2264.52 475.89 L2261.73 501.222 L2259.81 501.222 L2256.94 475.89 Q2256.85 475.439 2256.85 474.62 Z" fill="#000000" fill-rule="evenodd" fill-opacity="1" /><path clip-path="url(#clip660)" d="M768.044 431.342 Q768.044 431.916 767.675 433.269 L759.641 465.322 Q757.878 472.454 752.14 477.455 Q746.442 482.456 739.966 482.456 Q736.072 482.456 733.572 480.365 Q731.072 478.316 731.072 475.16 Q731.072 472.372 732.547 471.02 Q734.023 469.708 735.785 469.708 Q736.359 469.708 736.974 469.872 Q737.589 470.036 738.245 470.733 Q738.9 471.43 738.9 472.618 Q738.9 474.545 737.22 476.062 Q736.4 476.758 735.621 476.922 Q734.884 477.086 733.613 477.086 Q734.105 478.234 735.006 479.013 Q735.908 479.792 736.933 480.078 Q737.958 480.406 738.614 480.488 Q739.31 480.611 739.966 480.611 Q745.213 480.611 749.23 475.324 Q750.418 473.725 751.279 472.127 Q752.181 470.569 752.837 468.642 Q753.493 466.757 753.78 465.732 Q754.107 464.707 754.681 462.371 Q750.869 466.183 746.197 466.183 Q744.229 466.183 742.467 465.65 Q740.745 465.117 739.228 464.011 Q737.712 462.863 736.81 460.854 Q735.949 458.846 735.949 456.182 Q735.949 453.353 737.056 449.5 Q738.163 445.647 740.827 438.556 Q742.262 434.58 742.262 432.654 Q742.262 431.711 742.057 431.137 Q741.852 430.522 741.442 430.317 Q741.032 430.072 740.786 430.031 Q740.581 429.99 740.171 429.99 Q737.753 429.99 735.498 432.449 Q733.244 434.908 731.686 440.401 Q731.358 441.426 731.153 441.672 Q730.949 441.917 730.334 441.917 Q729.309 441.876 729.309 441.057 Q729.309 440.729 729.678 439.458 Q730.047 438.146 730.908 436.22 Q731.809 434.252 733.039 432.49 Q734.269 430.686 736.195 429.416 Q738.163 428.145 740.417 428.145 Q743.491 428.145 745.377 430.154 Q747.303 432.121 747.303 435.031 Q747.303 436.22 746.975 437.286 Q746.688 438.31 745.623 441.057 Q741.319 452.124 741.319 457.534 Q741.319 458.846 741.524 459.953 Q741.77 461.018 742.303 462.084 Q742.835 463.109 743.901 463.724 Q745.008 464.298 746.524 464.298 Q748.451 464.298 750.254 463.396 Q752.099 462.453 753.247 461.182 Q754.435 459.912 755.132 458.846 Q755.87 457.739 756.034 457.165 L759.805 442.081 L761.486 435.359 Q762.264 431.711 762.633 430.809 Q763.125 429.949 763.986 429.498 Q764.847 429.047 765.584 429.047 Q766.609 429.047 767.306 429.662 Q768.044 430.276 768.044 431.342 Z" fill="#000000" fill-rule="evenodd" fill-opacity="1" /><path clip-path="url(#clip660)" d="M793.317 452.493 Q793.399 451.468 794.998 451.468 L846.439 451.468 Q848.858 451.468 848.899 452.411 Q848.899 453.435 846.603 453.394 L795.572 453.394 Q793.317 453.435 793.317 452.493 M793.317 436.097 Q793.317 435.072 795.08 435.113 L846.357 435.113 Q848.858 435.113 848.899 436.097 Q848.899 437.04 846.767 437.04 L794.998 437.04 Q793.317 437.04 793.317 436.097 Z" fill="#000000" fill-rule="evenodd" fill-opacity="1" /><path clip-path="url(#clip660)" d="M881.277 444.254 Q881.277 430.072 886.565 418.636 Q888.819 413.84 891.975 409.823 Q895.132 405.806 897.222 404.043 Q899.312 402.281 899.886 402.281 Q900.706 402.281 900.747 403.101 Q900.747 403.51 899.64 404.535 Q886.114 418.308 886.155 444.254 Q886.155 470.282 899.312 483.522 Q900.747 484.956 900.747 485.407 Q900.747 486.227 899.886 486.227 Q899.312 486.227 897.304 484.546 Q895.296 482.866 892.18 479.013 Q889.065 475.16 886.811 470.446 Q881.277 459.01 881.277 444.254 Z" fill="#000000" fill-rule="evenodd" fill-opacity="1" /><path clip-path="url(#clip660)" d="M968.928 443.065 Q969.42 443.557 969.42 444.254 Q969.42 444.951 968.928 445.443 Q968.436 445.934 967.739 445.934 L915.191 445.934 Q914.494 445.934 914.002 445.443 Q913.51 444.951 913.51 444.254 Q913.51 443.557 914.002 443.065 Q914.494 442.573 915.191 442.573 L967.739 442.573 Q968.436 442.573 968.928 443.065 Z" fill="#000000" fill-rule="evenodd" fill-opacity="1" /><path clip-path="url(#clip660)" d="M978.18 438.392 Q978.18 426.055 981.295 419.332 Q985.64 409.331 995.887 409.331 Q998.06 409.331 1000.31 409.946 Q1002.61 410.52 1005.48 412.774 Q1008.39 415.028 1010.15 418.718 Q1013.51 425.85 1013.51 438.392 Q1013.51 450.648 1010.4 457.329 Q1005.85 467.085 995.805 467.085 Q992.034 467.085 988.181 465.158 Q984.369 463.232 981.951 458.6 Q978.18 451.673 978.18 438.392 M985.148 437.368 Q985.148 450.033 986.05 455.075 Q987.075 460.527 989.862 462.904 Q992.69 465.24 995.805 465.24 Q999.166 465.24 1001.95 462.74 Q1004.78 460.199 1005.64 454.747 Q1006.59 449.377 1006.54 437.368 Q1006.54 425.686 1005.72 421.013 Q1004.62 415.561 1001.67 413.389 Q998.756 411.175 995.805 411.175 Q994.699 411.175 993.51 411.503 Q992.362 411.831 990.682 412.774 Q989.001 413.717 987.689 416.053 Q986.419 418.39 985.804 421.915 Q985.148 426.464 985.148 437.368 Z" fill="#000000" fill-rule="evenodd" fill-opacity="1" /><path clip-path="url(#clip660)" d="M1021.02 463.888 Q1019.75 462.535 1019.75 460.773 Q1019.75 459.01 1021.02 457.739 Q1022.29 456.428 1024.22 456.428 Q1026.06 456.428 1027.29 457.657 Q1028.56 458.846 1028.56 460.813 Q1028.56 462.74 1027.21 464.011 Q1025.9 465.24 1024.22 465.24 Q1022.29 465.24 1021.02 463.888 Z" fill="#000000" fill-rule="evenodd" fill-opacity="1" /><path clip-path="url(#clip660)" d="M1042.85 451.714 Q1042.85 449.214 1044.2 448.271 Q1045.55 447.287 1046.99 447.287 Q1048.92 447.287 1050.02 448.517 Q1051.17 449.705 1051.17 451.386 Q1051.17 453.067 1050.02 454.296 Q1048.92 455.485 1046.99 455.485 Q1046.05 455.485 1045.55 455.321 Q1046.66 459.174 1050.02 461.961 Q1053.42 464.748 1057.89 464.748 Q1063.51 464.748 1066.87 459.297 Q1068.88 455.772 1068.88 447.779 Q1068.88 440.729 1067.36 437.204 Q1065.02 431.834 1060.23 431.834 Q1053.42 431.834 1049.41 437.696 Q1048.92 438.433 1048.34 438.474 Q1047.52 438.474 1047.32 438.023 Q1047.15 437.532 1047.15 436.261 L1047.15 411.421 Q1047.15 409.413 1047.97 409.413 Q1048.3 409.413 1049 409.659 Q1054.29 411.995 1060.15 412.036 Q1066.17 412.036 1071.58 409.577 Q1071.99 409.331 1072.24 409.331 Q1073.06 409.331 1073.1 410.274 Q1073.1 410.602 1072.4 411.585 Q1071.75 412.528 1070.31 413.799 Q1068.88 415.028 1067.03 416.217 Q1065.19 417.406 1062.48 418.226 Q1059.82 419.004 1056.87 419.004 Q1053.34 419.004 1049.74 417.898 L1049.74 434.252 Q1054.08 429.99 1060.39 429.99 Q1067.11 429.99 1071.75 435.4 Q1076.38 440.811 1076.38 448.353 Q1076.38 456.264 1070.89 461.674 Q1065.43 467.085 1058.06 467.085 Q1051.33 467.085 1047.07 462.289 Q1042.85 457.493 1042.85 451.714 Z" fill="#000000" fill-rule="evenodd" fill-opacity="1" /><path clip-path="url(#clip660)" d="M1085.61 463.888 Q1084.42 462.535 1084.42 460.773 Q1084.42 459.01 1085.57 457.698 Q1086.76 456.346 1088.89 456.346 Q1091.39 456.346 1092.82 458.764 Q1094.26 461.141 1094.26 465.158 Q1094.26 469.503 1092.49 473.52 Q1090.73 477.578 1089.01 479.505 Q1087.29 481.431 1086.59 481.431 Q1085.77 481.431 1085.77 480.529 Q1085.77 480.201 1086.35 479.587 Q1092.37 473.11 1092.41 465.158 Q1092.41 463.888 1092.25 463.888 L1092.04 464.052 Q1090.61 465.24 1088.89 465.24 Q1086.8 465.24 1085.61 463.888 Z" fill="#000000" fill-rule="evenodd" fill-opacity="1" /><path clip-path="url(#clip660)" d="M1120.75 417.324 L1120.75 414.701 Q1130.83 414.701 1136.04 409.331 Q1137.47 409.331 1137.72 409.659 Q1137.96 409.987 1137.96 411.503 L1137.96 458.6 Q1137.96 461.1 1139.19 461.879 Q1140.42 462.658 1145.79 462.658 L1148.46 462.658 L1148.46 465.24 Q1145.5 464.994 1134.85 464.994 Q1124.19 464.994 1121.28 465.24 L1121.28 462.658 L1123.94 462.658 Q1129.23 462.658 1130.5 461.92 Q1131.77 461.141 1131.77 458.6 L1131.77 415.11 Q1127.39 417.324 1120.75 417.324 Z" fill="#000000" fill-rule="evenodd" fill-opacity="1" /><path clip-path="url(#clip660)" d="M1155.09 463.888 Q1153.82 462.535 1153.82 460.773 Q1153.82 459.01 1155.09 457.739 Q1156.36 456.428 1158.28 456.428 Q1160.13 456.428 1161.36 457.657 Q1162.63 458.846 1162.63 460.813 Q1162.63 462.74 1161.28 464.011 Q1159.97 465.24 1158.28 465.24 Q1156.36 465.24 1155.09 463.888 Z" fill="#000000" fill-rule="evenodd" fill-opacity="1" /><path clip-path="url(#clip660)" d="M1176.92 438.392 Q1176.92 426.055 1180.03 419.332 Q1184.38 409.331 1194.62 409.331 Q1196.8 409.331 1199.05 409.946 Q1201.35 410.52 1204.21 412.774 Q1207.12 415.028 1208.89 418.718 Q1212.25 425.85 1212.25 438.392 Q1212.25 450.648 1209.13 457.329 Q1204.58 467.085 1194.54 467.085 Q1190.77 467.085 1186.92 465.158 Q1183.11 463.232 1180.69 458.6 Q1176.92 451.673 1176.92 438.392 M1183.88 437.368 Q1183.88 450.033 1184.79 455.075 Q1185.81 460.527 1188.6 462.904 Q1191.43 465.24 1194.54 465.24 Q1197.9 465.24 1200.69 462.74 Q1203.52 460.199 1204.38 454.747 Q1205.32 449.377 1205.28 437.368 Q1205.28 425.686 1204.46 421.013 Q1203.35 415.561 1200.4 413.389 Q1197.49 411.175 1194.54 411.175 Q1193.43 411.175 1192.25 411.503 Q1191.1 411.831 1189.42 412.774 Q1187.74 413.717 1186.43 416.053 Q1185.15 418.39 1184.54 421.915 Q1183.88 426.464 1183.88 437.368 Z" fill="#000000" fill-rule="evenodd" fill-opacity="1" /><path clip-path="url(#clip660)" d="M1220.5 485.407 Q1220.5 484.997 1221.57 483.972 Q1235.09 470.2 1235.09 444.254 Q1235.09 418.226 1222.1 405.068 Q1220.5 403.551 1220.5 403.101 Q1220.5 402.281 1221.32 402.281 Q1221.9 402.281 1223.9 403.961 Q1225.95 405.642 1229.03 409.495 Q1232.14 413.348 1234.44 418.062 Q1239.97 429.498 1239.97 444.254 Q1239.97 458.436 1234.68 469.872 Q1232.43 474.668 1229.27 478.685 Q1226.12 482.702 1224.03 484.464 Q1221.94 486.227 1221.32 486.227 Q1220.5 486.227 1220.5 485.407 Z" fill="#000000" fill-rule="evenodd" fill-opacity="1" /><path clip-path="url(#clip660)" d="M1259.39 409.495 Q1259.39 407.404 1260.66 406.544 Q1261.93 405.642 1263.28 405.642 Q1264.96 405.642 1266.03 406.667 Q1267.14 407.65 1267.14 409.495 Q1267.14 410.315 1267.05 410.766 L1264.27 436.097 L1262.34 436.097 L1259.47 410.766 Q1259.39 410.315 1259.39 409.495 Z" fill="#000000" fill-rule="evenodd" fill-opacity="1" /></svg>
