<?xml version="1.0" encoding="utf-8"?>
<svg xmlns="http://www.w3.org/2000/svg" xmlns:xlink="http://www.w3.org/1999/xlink" width="600" height="400" viewBox="0 0 2400 1600">
<defs>
  <clipPath id="clip580">
    <rect x="0" y="0" width="2400" height="1600"/>
  </clipPath>
</defs>
<path clip-path="url(#clip580)" d="
M0 1600 L2400 1600 L2400 0 L0 0  Z
  " fill="#ffffff" fill-rule="evenodd" fill-opacity="1"/>
<defs>
  <clipPath id="clip581">
    <rect x="480" y="0" width="1681" height="1600"/>
  </clipPath>
</defs>
<defs>
  <clipPath id="clip582">
    <rect x="273" y="183" width="1955" height="1303"/>
  </clipPath>
</defs>
<path clip-path="url(#clip580)" d="
M273.245 1486.45 L2226.99 1486.45 L2226.99 183.952 L273.245 183.952  Z
  " fill="#ffffff" fill-rule="evenodd" fill-opacity="1"/>
<polyline clip-path="url(#clip582)" style="stroke:#000000; stroke-linecap:round; stroke-linejoin:round; stroke-width:2; stroke-opacity:0.1; fill:none" points="
  273.245,1486.45 273.245,183.952 
  "/>
<polyline clip-path="url(#clip582)" style="stroke:#000000; stroke-linecap:round; stroke-linejoin:round; stroke-width:2; stroke-opacity:0.1; fill:none" points="
  598.869,1486.45 598.869,183.952 
  "/>
<polyline clip-path="url(#clip582)" style="stroke:#000000; stroke-linecap:round; stroke-linejoin:round; stroke-width:2; stroke-opacity:0.1; fill:none" points="
  924.493,1486.45 924.493,183.952 
  "/>
<polyline clip-path="url(#clip582)" style="stroke:#000000; stroke-linecap:round; stroke-linejoin:round; stroke-width:2; stroke-opacity:0.1; fill:none" points="
  1575.74,1486.45 1575.74,183.952 
  "/>
<polyline clip-path="url(#clip582)" style="stroke:#000000; stroke-linecap:round; stroke-linejoin:round; stroke-width:2; stroke-opacity:0.1; fill:none" points="
  1901.36,1486.45 1901.36,183.952 
  "/>
<polyline clip-path="url(#clip582)" style="stroke:#000000; stroke-linecap:round; stroke-linejoin:round; stroke-width:2; stroke-opacity:0.1; fill:none" points="
  2226.99,1486.45 2226.99,183.952 
  "/>
<polyline clip-path="url(#clip580)" style="stroke:#000000; stroke-linecap:round; stroke-linejoin:round; stroke-width:4; stroke-opacity:1; fill:none" points="
  273.245,835.2 2226.99,835.2 
  "/>
<polyline clip-path="url(#clip580)" style="stroke:#000000; stroke-linecap:round; stroke-linejoin:round; stroke-width:4; stroke-opacity:1; fill:none" points="
  273.245,854.098 273.245,816.302 
  "/>
<polyline clip-path="url(#clip580)" style="stroke:#000000; stroke-linecap:round; stroke-linejoin:round; stroke-width:4; stroke-opacity:1; fill:none" points="
  598.869,854.098 598.869,816.302 
  "/>
<polyline clip-path="url(#clip580)" style="stroke:#000000; stroke-linecap:round; stroke-linejoin:round; stroke-width:4; stroke-opacity:1; fill:none" points="
  924.493,854.098 924.493,816.302 
  "/>
<polyline clip-path="url(#clip580)" style="stroke:#000000; stroke-linecap:round; stroke-linejoin:round; stroke-width:4; stroke-opacity:1; fill:none" points="
  1575.74,854.098 1575.74,816.302 
  "/>
<polyline clip-path="url(#clip580)" style="stroke:#000000; stroke-linecap:round; stroke-linejoin:round; stroke-width:4; stroke-opacity:1; fill:none" points="
  1901.36,854.098 1901.36,816.302 
  "/>
<polyline clip-path="url(#clip580)" style="stroke:#000000; stroke-linecap:round; stroke-linejoin:round; stroke-width:4; stroke-opacity:1; fill:none" points="
  2226.99,854.098 2226.99,816.302 
  "/>
<path clip-path="url(#clip580)" d="M242.713 880.771 L272.389 880.771 L272.389 884.707 L242.713 884.707 L242.713 880.771 Z" fill="#000000" fill-rule="evenodd" fill-opacity="1" /><path clip-path="url(#clip580)" d="M296.648 878.966 Q300.004 879.683 301.879 881.952 Q303.777 884.22 303.777 887.554 Q303.777 892.669 300.259 895.47 Q296.74 898.271 290.259 898.271 Q288.083 898.271 285.768 897.831 Q283.477 897.415 281.023 896.558 L281.023 892.044 Q282.967 893.179 285.282 893.757 Q287.597 894.336 290.12 894.336 Q294.518 894.336 296.81 892.6 Q299.125 890.864 299.125 887.554 Q299.125 884.498 296.972 882.785 Q294.842 881.049 291.023 881.049 L286.995 881.049 L286.995 877.207 L291.208 877.207 Q294.657 877.207 296.486 875.841 Q298.314 874.452 298.314 871.859 Q298.314 869.197 296.416 867.785 Q294.541 866.35 291.023 866.35 Q289.101 866.35 286.902 866.767 Q284.703 867.183 282.064 868.063 L282.064 863.896 Q284.727 863.156 287.041 862.785 Q289.379 862.415 291.439 862.415 Q296.763 862.415 299.865 864.846 Q302.967 867.253 302.967 871.373 Q302.967 874.244 301.324 876.234 Q299.68 878.202 296.648 878.966 Z" fill="#000000" fill-rule="evenodd" fill-opacity="1" /><path clip-path="url(#clip580)" d="M568.811 880.771 L598.487 880.771 L598.487 884.707 L568.811 884.707 L568.811 880.771 Z" fill="#000000" fill-rule="evenodd" fill-opacity="1" /><path clip-path="url(#clip580)" d="M612.607 893.665 L628.927 893.665 L628.927 897.6 L606.982 897.6 L606.982 893.665 Q609.644 890.91 614.228 886.281 Q618.834 881.628 620.015 880.285 Q622.26 877.762 623.14 876.026 Q624.043 874.267 624.043 872.577 Q624.043 869.822 622.098 868.086 Q620.177 866.35 617.075 866.35 Q614.876 866.35 612.422 867.114 Q609.992 867.878 607.214 869.429 L607.214 864.707 Q610.038 863.572 612.492 862.994 Q614.945 862.415 616.982 862.415 Q622.353 862.415 625.547 865.1 Q628.742 867.785 628.742 872.276 Q628.742 874.406 627.931 876.327 Q627.144 878.225 625.038 880.818 Q624.459 881.489 621.357 884.707 Q618.256 887.901 612.607 893.665 Z" fill="#000000" fill-rule="evenodd" fill-opacity="1" /><path clip-path="url(#clip580)" d="M894.25 880.771 L923.926 880.771 L923.926 884.707 L894.25 884.707 L894.25 880.771 Z" fill="#000000" fill-rule="evenodd" fill-opacity="1" /><path clip-path="url(#clip580)" d="M934.829 893.665 L942.467 893.665 L942.467 867.299 L934.157 868.966 L934.157 864.707 L942.421 863.04 L947.097 863.04 L947.097 893.665 L954.736 893.665 L954.736 897.6 L934.829 897.6 L934.829 893.665 Z" fill="#000000" fill-rule="evenodd" fill-opacity="1" /><path clip-path="url(#clip580)" d="M1566.12 893.665 L1573.76 893.665 L1573.76 867.299 L1565.45 868.966 L1565.45 864.707 L1573.72 863.04 L1578.39 863.04 L1578.39 893.665 L1586.03 893.665 L1586.03 897.6 L1566.12 897.6 L1566.12 893.665 Z" fill="#000000" fill-rule="evenodd" fill-opacity="1" /><path clip-path="url(#clip580)" d="M1896.02 893.665 L1912.34 893.665 L1912.34 897.6 L1890.39 897.6 L1890.39 893.665 Q1893.05 890.91 1897.64 886.281 Q1902.24 881.628 1903.42 880.285 Q1905.67 877.762 1906.55 876.026 Q1907.45 874.267 1907.45 872.577 Q1907.45 869.822 1905.51 868.086 Q1903.59 866.35 1900.49 866.35 Q1898.29 866.35 1895.83 867.114 Q1893.4 867.878 1890.62 869.429 L1890.62 864.707 Q1893.45 863.572 1895.9 862.994 Q1898.36 862.415 1900.39 862.415 Q1905.76 862.415 1908.96 865.1 Q1912.15 867.785 1912.15 872.276 Q1912.15 874.406 1911.34 876.327 Q1910.55 878.225 1908.45 880.818 Q1907.87 881.489 1904.77 884.707 Q1901.67 887.901 1896.02 893.665 Z" fill="#000000" fill-rule="evenodd" fill-opacity="1" /><path clip-path="url(#clip580)" d="M2231.24 878.966 Q2234.59 879.683 2236.47 881.952 Q2238.37 884.22 2238.37 887.554 Q2238.37 892.669 2234.85 895.47 Q2231.33 898.271 2224.85 898.271 Q2222.67 898.271 2220.36 897.831 Q2218.07 897.415 2215.61 896.558 L2215.61 892.044 Q2217.56 893.179 2219.87 893.757 Q2222.19 894.336 2224.71 894.336 Q2229.11 894.336 2231.4 892.6 Q2233.71 890.864 2233.71 887.554 Q2233.71 884.498 2231.56 882.785 Q2229.43 881.049 2225.61 881.049 L2221.58 881.049 L2221.58 877.207 L2225.8 877.207 Q2229.25 877.207 2231.07 875.841 Q2232.9 874.452 2232.9 871.859 Q2232.9 869.197 2231 867.785 Q2229.13 866.35 2225.61 866.35 Q2223.69 866.35 2221.49 866.767 Q2219.29 867.183 2216.65 868.063 L2216.65 863.896 Q2219.32 863.156 2221.63 862.785 Q2223.97 862.415 2226.03 862.415 Q2231.35 862.415 2234.45 864.846 Q2237.56 867.253 2237.56 871.373 Q2237.56 874.244 2235.91 876.234 Q2234.27 878.202 2231.24 878.966 Z" fill="#000000" fill-rule="evenodd" fill-opacity="1" /><polyline clip-path="url(#clip582)" style="stroke:#000000; stroke-linecap:round; stroke-linejoin:round; stroke-width:2; stroke-opacity:0.1; fill:none" points="
  273.245,1486.45 2226.99,1486.45 
  "/>
<polyline clip-path="url(#clip582)" style="stroke:#000000; stroke-linecap:round; stroke-linejoin:round; stroke-width:2; stroke-opacity:0.1; fill:none" points="
  273.245,1160.82 2226.99,1160.82 
  "/>
<polyline clip-path="url(#clip582)" style="stroke:#000000; stroke-linecap:round; stroke-linejoin:round; stroke-width:2; stroke-opacity:0.1; fill:none" points="
  273.245,509.576 2226.99,509.576 
  "/>
<polyline clip-path="url(#clip582)" style="stroke:#000000; stroke-linecap:round; stroke-linejoin:round; stroke-width:2; stroke-opacity:0.1; fill:none" points="
  273.245,183.952 2226.99,183.952 
  "/>
<polyline clip-path="url(#clip580)" style="stroke:#000000; stroke-linecap:round; stroke-linejoin:round; stroke-width:4; stroke-opacity:1; fill:none" points="
  1250.12,1486.45 1250.12,183.952 
  "/>
<polyline clip-path="url(#clip580)" style="stroke:#000000; stroke-linecap:round; stroke-linejoin:round; stroke-width:4; stroke-opacity:1; fill:none" points="
  1233.37,1486.45 1266.86,1486.45 
  "/>
<polyline clip-path="url(#clip580)" style="stroke:#000000; stroke-linecap:round; stroke-linejoin:round; stroke-width:4; stroke-opacity:1; fill:none" points="
  1233.37,1160.82 1266.86,1160.82 
  "/>
<polyline clip-path="url(#clip580)" style="stroke:#000000; stroke-linecap:round; stroke-linejoin:round; stroke-width:4; stroke-opacity:1; fill:none" points="
  1233.37,509.576 1266.86,509.576 
  "/>
<polyline clip-path="url(#clip580)" style="stroke:#000000; stroke-linecap:round; stroke-linejoin:round; stroke-width:4; stroke-opacity:1; fill:none" points="
  1233.37,183.952 1266.86,183.952 
  "/>
<path clip-path="url(#clip580)" d="M1154 1486.9 L1183.68 1486.9 L1183.68 1490.83 L1154 1490.83 L1154 1486.9 Z" fill="#000000" fill-rule="evenodd" fill-opacity="1" /><path clip-path="url(#clip580)" d="M1197.8 1499.79 L1214.12 1499.79 L1214.12 1503.73 L1192.17 1503.73 L1192.17 1499.79 Q1194.83 1497.04 1199.42 1492.41 Q1204.02 1487.76 1205.2 1486.41 Q1207.45 1483.89 1208.33 1482.15 Q1209.23 1480.39 1209.23 1478.7 Q1209.23 1475.95 1207.29 1474.21 Q1205.37 1472.48 1202.27 1472.48 Q1200.07 1472.48 1197.61 1473.24 Q1195.18 1474.01 1192.4 1475.56 L1192.4 1470.83 Q1195.23 1469.7 1197.68 1469.12 Q1200.14 1468.54 1202.17 1468.54 Q1207.54 1468.54 1210.74 1471.23 Q1213.93 1473.91 1213.93 1478.4 Q1213.93 1480.53 1213.12 1482.45 Q1212.33 1484.35 1210.23 1486.95 Q1209.65 1487.62 1206.55 1490.83 Q1203.45 1494.03 1197.8 1499.79 Z" fill="#000000" fill-rule="evenodd" fill-opacity="1" /><path clip-path="url(#clip580)" d="M1153.63 1161.28 L1183.31 1161.28 L1183.31 1165.21 L1153.63 1165.21 L1153.63 1161.28 Z" fill="#000000" fill-rule="evenodd" fill-opacity="1" /><path clip-path="url(#clip580)" d="M1194.21 1174.17 L1201.85 1174.17 L1201.85 1147.8 L1193.54 1149.47 L1193.54 1145.21 L1201.8 1143.54 L1206.48 1143.54 L1206.48 1174.17 L1214.12 1174.17 L1214.12 1178.1 L1194.21 1178.1 L1194.21 1174.17 Z" fill="#000000" fill-rule="evenodd" fill-opacity="1" /><path clip-path="url(#clip580)" d="M1194.21 522.921 L1201.85 522.921 L1201.85 496.555 L1193.54 498.222 L1193.54 493.963 L1201.8 492.296 L1206.48 492.296 L1206.48 522.921 L1214.12 522.921 L1214.12 526.856 L1194.21 526.856 L1194.21 522.921 Z" fill="#000000" fill-rule="evenodd" fill-opacity="1" /><path clip-path="url(#clip580)" d="M1197.8 197.297 L1214.12 197.297 L1214.12 201.232 L1192.17 201.232 L1192.17 197.297 Q1194.83 194.542 1199.42 189.913 Q1204.02 185.26 1205.2 183.917 Q1207.45 181.394 1208.33 179.658 Q1209.23 177.899 1209.23 176.209 Q1209.23 173.454 1207.29 171.718 Q1205.37 169.982 1202.27 169.982 Q1200.07 169.982 1197.61 170.746 Q1195.18 171.51 1192.4 173.061 L1192.4 168.339 Q1195.23 167.205 1197.68 166.626 Q1200.14 166.047 1202.17 166.047 Q1207.54 166.047 1210.74 168.732 Q1213.93 171.417 1213.93 175.908 Q1213.93 178.038 1213.12 179.959 Q1212.33 181.857 1210.23 184.45 Q1209.65 185.121 1206.55 188.339 Q1203.45 191.533 1197.8 197.297 Z" fill="#000000" fill-rule="evenodd" fill-opacity="1" /><path clip-path="url(#clip580)" d="M641.398 49.8407 Q641.398 52.1361 639.963 53.4477 Q638.529 54.7184 636.889 54.7184 Q635.332 54.7184 634.512 53.8167 Q633.692 52.9149 633.692 51.7672 Q633.692 50.2096 634.84 48.857 Q635.987 47.5043 637.709 47.2174 Q636.028 46.1517 633.528 46.1517 Q631.888 46.1517 630.454 47.0124 Q629.06 47.8732 628.199 48.9799 Q627.38 50.0866 626.642 51.6852 Q625.945 53.2428 625.658 54.1856 Q625.412 55.0873 625.207 56.0711 L622.338 67.5481 Q620.944 72.9996 620.944 74.9261 Q620.944 77.3035 622.092 78.9021 Q623.24 80.4597 625.535 80.4597 Q626.437 80.4597 627.462 80.2137 Q628.486 79.9268 629.798 79.189 Q631.151 78.4102 632.339 77.2625 Q633.569 76.0738 634.758 74.0654 Q635.946 72.0569 636.725 69.4746 Q636.971 68.5728 637.791 68.5728 Q638.816 68.5728 638.816 69.3926 Q638.816 70.0894 638.242 71.565 Q637.709 72.9996 636.52 74.8851 Q635.373 76.7297 633.856 78.4102 Q632.339 80.0498 630.085 81.1975 Q627.831 82.3452 625.371 82.3452 Q621.846 82.3452 619.51 80.4597 Q617.173 78.5742 616.313 75.9509 Q616.108 76.3198 615.821 76.8116 Q615.534 77.3035 614.673 78.4102 Q613.853 79.4759 612.91 80.2957 Q611.968 81.0745 610.492 81.6894 Q609.057 82.3452 607.5 82.3452 Q605.532 82.3452 603.77 81.7713 Q602.048 81.1975 600.819 79.8858 Q599.589 78.5742 599.589 76.7706 Q599.589 74.7622 600.942 73.3685 Q602.335 71.9339 604.221 71.9339 Q605.409 71.9339 606.352 72.6307 Q607.336 73.3275 607.336 74.8442 Q607.336 76.5247 606.188 77.7954 Q605.041 79.066 603.401 79.394 Q605.082 80.4597 607.582 80.4597 Q610.287 80.4597 612.419 78.0823 Q614.55 75.7049 615.575 71.729 Q618.116 62.1785 619.1 57.9156 Q620.084 53.6117 620.084 51.7672 Q620.084 50.0456 619.633 48.857 Q619.182 47.6683 618.403 47.1354 Q617.665 46.5616 616.968 46.3566 Q616.313 46.1517 615.575 46.1517 Q614.345 46.1517 612.951 46.6435 Q611.599 47.1354 609.959 48.2831 Q608.361 49.3898 606.844 51.6852 Q605.327 53.9806 604.303 57.1368 Q604.098 58.0795 603.196 58.0795 Q602.212 58.0385 602.212 57.2188 Q602.212 56.5219 602.745 55.0873 Q603.319 53.6117 604.467 51.7672 Q605.655 49.9227 607.172 48.2831 Q608.73 46.6025 610.984 45.4548 Q613.279 44.3071 615.739 44.3071 Q616.845 44.3071 617.911 44.5531 Q619.018 44.758 620.33 45.3729 Q621.682 45.9877 622.871 47.3403 Q624.06 48.693 624.797 50.6605 Q625.289 49.7177 625.945 48.816 Q626.642 47.9142 627.708 46.8075 Q628.814 45.6598 630.331 45.004 Q631.888 44.3071 633.61 44.3071 Q635.291 44.3071 636.93 44.758 Q638.57 45.1679 639.963 46.5206 Q641.398 47.8322 641.398 49.8407 Z" fill="#000000" fill-rule="evenodd" fill-opacity="1" /><path clip-path="url(#clip580)" d="M701.936 58.5958 Q692.902 58.5958 689.418 60.6618 Q685.935 62.7278 685.935 67.7104 Q685.935 71.6803 688.527 74.0298 Q691.16 76.3388 695.657 76.3388 Q701.855 76.3388 705.581 71.9638 Q709.349 67.5483 709.349 60.2567 L709.349 58.5958 L701.936 58.5958 M716.802 55.5172 L716.802 81.4024 L709.349 81.4024 L709.349 74.5159 Q706.797 78.6478 702.989 80.6328 Q699.181 82.5772 693.672 82.5772 Q686.704 82.5772 682.572 78.6883 Q678.481 74.759 678.481 68.1965 Q678.481 60.5403 683.585 56.6514 Q688.73 52.7625 698.897 52.7625 L709.349 52.7625 L709.349 52.0334 Q709.349 46.8887 705.946 44.0936 Q702.584 41.258 696.467 41.258 Q692.578 41.258 688.892 42.1897 Q685.205 43.1214 681.803 44.9848 L681.803 38.0983 Q685.894 36.5184 689.742 35.7487 Q693.591 34.9386 697.237 34.9386 Q707.08 34.9386 711.941 40.0427 Q716.802 45.1468 716.802 55.5172 Z" fill="#000000" fill-rule="evenodd" fill-opacity="1" /><path clip-path="url(#clip580)" d="M769.869 54.0183 L769.869 81.4024 L762.416 81.4024 L762.416 54.2614 Q762.416 47.8204 759.904 44.6202 Q757.392 41.42 752.369 41.42 Q746.334 41.42 742.85 45.2684 Q739.366 49.1167 739.366 55.7602 L739.366 81.4024 L731.872 81.4024 L731.872 36.0323 L739.366 36.0323 L739.366 43.0809 Q742.04 38.9895 745.645 36.964 Q749.291 34.9386 754.03 34.9386 Q761.848 34.9386 765.859 39.7997 Q769.869 44.6202 769.869 54.0183 Z" fill="#000000" fill-rule="evenodd" fill-opacity="1" /><path clip-path="url(#clip580)" d="M814.591 42.9188 L814.591 18.3704 L822.045 18.3704 L822.045 81.4024 L814.591 81.4024 L814.591 74.5969 Q812.242 78.6478 808.636 80.6328 Q805.072 82.5772 800.049 82.5772 Q791.825 82.5772 786.64 76.0147 Q781.495 69.4523 781.495 58.7579 Q781.495 48.0635 786.64 41.501 Q791.825 34.9386 800.049 34.9386 Q805.072 34.9386 808.636 36.9235 Q812.242 38.8679 814.591 42.9188 M789.192 58.7579 Q789.192 66.9812 792.554 71.6803 Q795.957 76.3388 801.871 76.3388 Q807.786 76.3388 811.188 71.6803 Q814.591 66.9812 814.591 58.7579 Q814.591 50.5345 811.188 45.876 Q807.786 41.177 801.871 41.177 Q795.957 41.177 792.554 45.876 Q789.192 50.5345 789.192 58.7579 Z" fill="#000000" fill-rule="evenodd" fill-opacity="1" /><path clip-path="url(#clip580)" d="M894.686 39.4496 Q894.686 40.0235 894.317 41.3761 L886.283 73.4297 Q884.521 80.5619 878.782 85.5626 Q873.084 90.5632 866.608 90.5632 Q862.714 90.5632 860.214 88.4728 Q857.714 86.4233 857.714 83.2672 Q857.714 80.4799 859.189 79.1272 Q860.665 77.8156 862.427 77.8156 Q863.001 77.8156 863.616 77.9795 Q864.231 78.1435 864.887 78.8403 Q865.542 79.5371 865.542 80.7258 Q865.542 82.6523 863.862 84.1689 Q863.042 84.8657 862.263 85.0297 Q861.526 85.1937 860.255 85.1937 Q860.747 86.3414 861.648 87.1201 Q862.55 87.8989 863.575 88.1859 Q864.6 88.5138 865.256 88.5958 Q865.952 88.7187 866.608 88.7187 Q871.855 88.7187 875.872 83.4311 Q877.06 81.8325 877.921 80.2339 Q878.823 78.6764 879.479 76.7499 Q880.135 74.8644 880.422 73.8396 Q880.749 72.8149 881.323 70.4785 Q877.511 74.2905 872.839 74.2905 Q870.871 74.2905 869.109 73.7576 Q867.387 73.2248 865.87 72.1181 Q864.354 70.9704 863.452 68.9619 Q862.591 66.9534 862.591 64.2891 Q862.591 61.4609 863.698 57.6079 Q864.805 53.7549 867.469 46.6637 Q868.904 42.6878 868.904 40.7613 Q868.904 39.8185 868.699 39.2447 Q868.494 38.6298 868.084 38.4249 Q867.674 38.1789 867.428 38.138 Q867.223 38.097 866.813 38.097 Q864.395 38.097 862.14 40.5563 Q859.886 43.0157 858.328 48.5082 Q858 49.533 857.795 49.7789 Q857.591 50.0249 856.976 50.0249 Q855.951 49.9839 855.951 49.1641 Q855.951 48.8362 856.32 47.5655 Q856.689 46.2538 857.55 44.3273 Q858.451 42.3599 859.681 40.5973 Q860.911 38.7938 862.837 37.5231 Q864.805 36.2525 867.059 36.2525 Q870.133 36.2525 872.019 38.2609 Q873.945 40.2284 873.945 43.1387 Q873.945 44.3273 873.617 45.3931 Q873.33 46.4178 872.265 49.1641 Q867.961 60.2312 867.961 65.6418 Q867.961 66.9534 868.166 68.0601 Q868.412 69.1259 868.945 70.1916 Q869.477 71.2163 870.543 71.8311 Q871.65 72.405 873.166 72.405 Q875.093 72.405 876.897 71.5032 Q878.741 70.5605 879.889 69.2898 Q881.077 68.0191 881.774 66.9534 Q882.512 65.8467 882.676 65.2729 L886.447 50.1888 L888.128 43.4666 Q888.906 39.8185 889.275 38.9168 Q889.767 38.056 890.628 37.6051 Q891.489 37.1542 892.226 37.1542 Q893.251 37.1542 893.948 37.7691 Q894.686 38.3839 894.686 39.4496 Z" fill="#000000" fill-rule="evenodd" fill-opacity="1" /><path clip-path="url(#clip580)" d="M966.182 44.7418 Q968.977 39.7186 972.866 37.3286 Q976.755 34.9386 982.021 34.9386 Q989.11 34.9386 992.959 39.9212 Q996.807 44.8633 996.807 54.0183 L996.807 81.4024 L989.313 81.4024 L989.313 54.2614 Q989.313 47.7394 987.004 44.5797 Q984.695 41.42 979.955 41.42 Q974.163 41.42 970.8 45.2684 Q967.438 49.1167 967.438 55.7602 L967.438 81.4024 L959.944 81.4024 L959.944 54.2614 Q959.944 47.6989 957.635 44.5797 Q955.326 41.42 950.505 41.42 Q944.794 41.42 941.431 45.3089 Q938.069 49.1572 938.069 55.7602 L938.069 81.4024 L930.575 81.4024 L930.575 36.0323 L938.069 36.0323 L938.069 43.0809 Q940.621 38.9085 944.186 36.9235 Q947.751 34.9386 952.652 34.9386 Q957.594 34.9386 961.038 37.4501 Q964.521 39.9617 966.182 44.7418 Z" fill="#000000" fill-rule="evenodd" fill-opacity="1" /><path clip-path="url(#clip580)" d="M1032.29 58.5958 Q1023.26 58.5958 1019.78 60.6618 Q1016.29 62.7278 1016.29 67.7104 Q1016.29 71.6803 1018.88 74.0298 Q1021.52 76.3388 1026.01 76.3388 Q1032.21 76.3388 1035.94 71.9638 Q1039.71 67.5483 1039.71 60.2567 L1039.71 58.5958 L1032.29 58.5958 M1047.16 55.5172 L1047.16 81.4024 L1039.71 81.4024 L1039.71 74.5159 Q1037.15 78.6478 1033.35 80.6328 Q1029.54 82.5772 1024.03 82.5772 Q1017.06 82.5772 1012.93 78.6883 Q1008.84 74.759 1008.84 68.1965 Q1008.84 60.5403 1013.94 56.6514 Q1019.09 52.7625 1029.25 52.7625 L1039.71 52.7625 L1039.71 52.0334 Q1039.71 46.8887 1036.3 44.0936 Q1032.94 41.258 1026.82 41.258 Q1022.94 41.258 1019.25 42.1897 Q1015.56 43.1214 1012.16 44.9848 L1012.16 38.0983 Q1016.25 36.5184 1020.1 35.7487 Q1023.95 34.9386 1027.59 34.9386 Q1037.44 34.9386 1042.3 40.0427 Q1047.16 45.1468 1047.16 55.5172 Z" fill="#000000" fill-rule="evenodd" fill-opacity="1" /><path clip-path="url(#clip580)" d="M1062.23 18.3704 L1069.72 18.3704 L1069.72 55.5982 L1091.96 36.0323 L1101.48 36.0323 L1077.42 57.259 L1102.5 81.4024 L1092.77 81.4024 L1069.72 59.244 L1069.72 81.4024 L1062.23 81.4024 L1062.23 18.3704 Z" fill="#000000" fill-rule="evenodd" fill-opacity="1" /><path clip-path="url(#clip580)" d="M1146.41 56.854 L1146.41 60.4998 L1112.14 60.4998 Q1112.62 68.1965 1116.75 72.2474 Q1120.93 76.2578 1128.34 76.2578 Q1132.63 76.2578 1136.64 75.2046 Q1140.7 74.1513 1144.67 72.0448 L1144.67 79.0934 Q1140.65 80.7948 1136.44 81.686 Q1132.23 82.5772 1127.89 82.5772 Q1117.04 82.5772 1110.68 76.2578 Q1104.36 69.9384 1104.36 59.163 Q1104.36 48.023 1110.35 41.501 Q1116.39 34.9386 1126.6 34.9386 Q1135.75 34.9386 1141.06 40.8529 Q1146.41 46.7267 1146.41 56.854 M1138.95 54.6665 Q1138.87 48.5496 1135.51 44.9038 Q1132.19 41.258 1126.68 41.258 Q1120.44 41.258 1116.67 44.7823 Q1112.95 48.3066 1112.38 54.707 L1138.95 54.6665 Z" fill="#000000" fill-rule="evenodd" fill-opacity="1" /><path clip-path="url(#clip580)" d="M1205.63 58.5958 Q1196.6 58.5958 1193.11 60.6618 Q1189.63 62.7278 1189.63 67.7104 Q1189.63 71.6803 1192.22 74.0298 Q1194.86 76.3388 1199.35 76.3388 Q1205.55 76.3388 1209.28 71.9638 Q1213.04 67.5483 1213.04 60.2567 L1213.04 58.5958 L1205.63 58.5958 M1220.5 55.5172 L1220.5 81.4024 L1213.04 81.4024 L1213.04 74.5159 Q1210.49 78.6478 1206.68 80.6328 Q1202.88 82.5772 1197.37 82.5772 Q1190.4 82.5772 1186.27 78.6883 Q1182.18 74.759 1182.18 68.1965 Q1182.18 60.5403 1187.28 56.6514 Q1192.43 52.7625 1202.59 52.7625 L1213.04 52.7625 L1213.04 52.0334 Q1213.04 46.8887 1209.64 44.0936 Q1206.28 41.258 1200.16 41.258 Q1196.27 41.258 1192.59 42.1897 Q1188.9 43.1214 1185.5 44.9848 L1185.5 38.0983 Q1189.59 36.5184 1193.44 35.7487 Q1197.29 34.9386 1200.93 34.9386 Q1210.78 34.9386 1215.64 40.0427 Q1220.5 45.1468 1220.5 55.5172 Z" fill="#000000" fill-rule="evenodd" fill-opacity="1" /><path clip-path="url(#clip580)" d="M1273.56 54.0183 L1273.56 81.4024 L1266.11 81.4024 L1266.11 54.2614 Q1266.11 47.8204 1263.6 44.6202 Q1261.09 41.42 1256.06 41.42 Q1250.03 41.42 1246.55 45.2684 Q1243.06 49.1167 1243.06 55.7602 L1243.06 81.4024 L1235.57 81.4024 L1235.57 36.0323 L1243.06 36.0323 L1243.06 43.0809 Q1245.74 38.9895 1249.34 36.964 Q1252.99 34.9386 1257.73 34.9386 Q1265.54 34.9386 1269.55 39.7997 Q1273.56 44.6202 1273.56 54.0183 Z" fill="#000000" fill-rule="evenodd" fill-opacity="1" /><path clip-path="url(#clip580)" d="M1332.38 41.258 Q1326.39 41.258 1322.9 45.957 Q1319.42 50.6156 1319.42 58.7579 Q1319.42 66.9002 1322.86 71.5992 Q1326.35 76.2578 1332.38 76.2578 Q1338.34 76.2578 1341.82 71.5587 Q1345.31 66.8597 1345.31 58.7579 Q1345.31 50.6966 1341.82 45.9975 Q1338.34 41.258 1332.38 41.258 M1332.38 34.9386 Q1342.11 34.9386 1347.66 41.258 Q1353.21 47.5774 1353.21 58.7579 Q1353.21 69.8979 1347.66 76.2578 Q1342.11 82.5772 1332.38 82.5772 Q1322.62 82.5772 1317.07 76.2578 Q1311.56 69.8979 1311.56 58.7579 Q1311.56 47.5774 1317.07 41.258 Q1322.62 34.9386 1332.38 34.9386 Z" fill="#000000" fill-rule="evenodd" fill-opacity="1" /><path clip-path="url(#clip580)" d="M1398.13 58.7579 Q1398.13 50.5345 1394.73 45.876 Q1391.37 41.177 1385.45 41.177 Q1379.54 41.177 1376.13 45.876 Q1372.77 50.5345 1372.77 58.7579 Q1372.77 66.9812 1376.13 71.6803 Q1379.54 76.3388 1385.45 76.3388 Q1391.37 76.3388 1394.73 71.6803 Q1398.13 66.9812 1398.13 58.7579 M1372.77 42.9188 Q1375.12 38.8679 1378.69 36.9235 Q1382.29 34.9386 1387.27 34.9386 Q1395.54 34.9386 1400.68 41.501 Q1405.87 48.0635 1405.87 58.7579 Q1405.87 69.4523 1400.68 76.0147 Q1395.54 82.5772 1387.27 82.5772 Q1382.29 82.5772 1378.69 80.6328 Q1375.12 78.6478 1372.77 74.5969 L1372.77 81.4024 L1365.28 81.4024 L1365.28 18.3704 L1372.77 18.3704 L1372.77 42.9188 Z" fill="#000000" fill-rule="evenodd" fill-opacity="1" /><path clip-path="url(#clip580)" d="M1425.6 23.1504 L1425.6 36.0323 L1440.95 36.0323 L1440.95 41.8251 L1425.6 41.8251 L1425.6 66.4546 Q1425.6 72.0043 1427.09 73.5842 Q1428.63 75.164 1433.29 75.164 L1440.95 75.164 L1440.95 81.4024 L1433.29 81.4024 Q1424.66 81.4024 1421.38 78.2022 Q1418.1 74.9615 1418.1 66.4546 L1418.1 41.8251 L1412.63 41.8251 L1412.63 36.0323 L1418.1 36.0323 L1418.1 23.1504 L1425.6 23.1504 Z" fill="#000000" fill-rule="evenodd" fill-opacity="1" /><path clip-path="url(#clip580)" d="M1449.98 63.4974 L1449.98 36.0323 L1457.44 36.0323 L1457.44 63.2139 Q1457.44 69.6548 1459.95 72.8955 Q1462.46 76.0958 1467.48 76.0958 Q1473.52 76.0958 1477 72.2474 Q1480.53 68.399 1480.53 61.7556 L1480.53 36.0323 L1487.98 36.0323 L1487.98 81.4024 L1480.53 81.4024 L1480.53 74.4349 Q1477.81 78.5668 1474.21 80.5923 Q1470.64 82.5772 1465.9 82.5772 Q1458.08 82.5772 1454.03 77.7161 Q1449.98 72.855 1449.98 63.4974 M1468.74 34.9386 L1468.74 34.9386 Z" fill="#000000" fill-rule="evenodd" fill-opacity="1" /><path clip-path="url(#clip580)" d="M1532.26 37.3691 L1532.26 44.4177 Q1529.1 42.7973 1525.69 41.9871 Q1522.29 41.177 1518.64 41.177 Q1513.09 41.177 1510.3 42.8783 Q1507.55 44.5797 1507.55 47.9825 Q1507.55 50.5751 1509.53 52.0739 Q1511.52 53.5322 1517.51 54.869 L1520.06 55.4361 Q1528 57.1375 1531.32 60.2567 Q1534.69 63.3354 1534.69 68.8851 Q1534.69 75.2046 1529.66 78.8909 Q1524.68 82.5772 1515.93 82.5772 Q1512.28 82.5772 1508.31 81.848 Q1504.39 81.1594 1500.01 79.7416 L1500.01 72.0448 Q1504.14 74.1918 1508.15 75.2856 Q1512.16 76.3388 1516.09 76.3388 Q1521.36 76.3388 1524.19 74.5564 Q1527.03 72.7335 1527.03 69.4523 Q1527.03 66.4141 1524.96 64.7937 Q1522.94 63.1734 1516.01 61.6745 L1513.42 61.0669 Q1506.49 59.6086 1503.41 56.6109 Q1500.33 53.5727 1500.33 48.3066 Q1500.33 41.9061 1504.87 38.4223 Q1509.41 34.9386 1517.75 34.9386 Q1521.89 34.9386 1525.53 35.5462 Q1529.18 36.1538 1532.26 37.3691 Z" fill="#000000" fill-rule="evenodd" fill-opacity="1" /><path clip-path="url(#clip580)" d="M1585.36 56.854 L1585.36 60.4998 L1551.09 60.4998 Q1551.58 68.1965 1555.71 72.2474 Q1559.88 76.2578 1567.3 76.2578 Q1571.59 76.2578 1575.6 75.2046 Q1579.65 74.1513 1583.62 72.0448 L1583.62 79.0934 Q1579.61 80.7948 1575.4 81.686 Q1571.18 82.5772 1566.85 82.5772 Q1555.99 82.5772 1549.63 76.2578 Q1543.31 69.9384 1543.31 59.163 Q1543.31 48.023 1549.31 41.501 Q1555.35 34.9386 1565.55 34.9386 Q1574.71 34.9386 1580.02 40.8529 Q1585.36 46.7267 1585.36 56.854 M1577.91 54.6665 Q1577.83 48.5496 1574.47 44.9038 Q1571.14 41.258 1565.64 41.258 Q1559.4 41.258 1555.63 44.7823 Q1551.9 48.3066 1551.34 54.707 L1577.91 54.6665 Z" fill="#000000" fill-rule="evenodd" fill-opacity="1" /><path clip-path="url(#clip580)" d="M1644.59 58.5958 Q1635.55 58.5958 1632.07 60.6618 Q1628.59 62.7278 1628.59 67.7104 Q1628.59 71.6803 1631.18 74.0298 Q1633.81 76.3388 1638.31 76.3388 Q1644.51 76.3388 1648.23 71.9638 Q1652 67.5483 1652 60.2567 L1652 58.5958 L1644.59 58.5958 M1659.45 55.5172 L1659.45 81.4024 L1652 81.4024 L1652 74.5159 Q1649.45 78.6478 1645.64 80.6328 Q1641.83 82.5772 1636.32 82.5772 Q1629.36 82.5772 1625.22 78.6883 Q1621.13 74.759 1621.13 68.1965 Q1621.13 60.5403 1626.24 56.6514 Q1631.38 52.7625 1641.55 52.7625 L1652 52.7625 L1652 52.0334 Q1652 46.8887 1648.6 44.0936 Q1645.24 41.258 1639.12 41.258 Q1635.23 41.258 1631.54 42.1897 Q1627.86 43.1214 1624.45 44.9848 L1624.45 38.0983 Q1628.55 36.5184 1632.39 35.7487 Q1636.24 34.9386 1639.89 34.9386 Q1649.73 34.9386 1654.59 40.0427 Q1659.45 45.1468 1659.45 55.5172 Z" fill="#000000" fill-rule="evenodd" fill-opacity="1" /><path clip-path="url(#clip580)" d="M1712.52 54.0183 L1712.52 81.4024 L1705.07 81.4024 L1705.07 54.2614 Q1705.07 47.8204 1702.56 44.6202 Q1700.04 41.42 1695.02 41.42 Q1688.99 41.42 1685.5 45.2684 Q1682.02 49.1167 1682.02 55.7602 L1682.02 81.4024 L1674.52 81.4024 L1674.52 36.0323 L1682.02 36.0323 L1682.02 43.0809 Q1684.69 38.9895 1688.3 36.964 Q1691.94 34.9386 1696.68 34.9386 Q1704.5 34.9386 1708.51 39.7997 Q1712.52 44.6202 1712.52 54.0183 Z" fill="#000000" fill-rule="evenodd" fill-opacity="1" /><path clip-path="url(#clip580)" d="M1757.24 58.1908 Q1757.24 50.0889 1753.88 45.633 Q1750.56 41.177 1744.52 41.177 Q1738.53 41.177 1735.17 45.633 Q1731.84 50.0889 1731.84 58.1908 Q1731.84 66.2521 1735.17 70.7081 Q1738.53 75.164 1744.52 75.164 Q1750.56 75.164 1753.88 70.7081 Q1757.24 66.2521 1757.24 58.1908 M1764.7 75.7717 Q1764.7 87.3573 1759.55 92.988 Q1754.41 98.6593 1743.79 98.6593 Q1739.86 98.6593 1736.38 98.0517 Q1732.9 97.4845 1729.62 96.2693 L1729.62 89.0181 Q1732.9 90.8005 1736.1 91.6512 Q1739.3 92.5019 1742.62 92.5019 Q1749.95 92.5019 1753.6 88.6536 Q1757.24 84.8457 1757.24 77.1085 L1757.24 73.4222 Q1754.93 77.4326 1751.33 79.4175 Q1747.72 81.4024 1742.7 81.4024 Q1734.36 81.4024 1729.25 75.0425 Q1724.15 68.6826 1724.15 58.1908 Q1724.15 47.6584 1729.25 41.2985 Q1734.36 34.9386 1742.7 34.9386 Q1747.72 34.9386 1751.33 36.9235 Q1754.93 38.9085 1757.24 42.9188 L1757.24 36.0323 L1764.7 36.0323 L1764.7 75.7717 Z" fill="#000000" fill-rule="evenodd" fill-opacity="1" /><path clip-path="url(#clip580)" d="M1780.05 18.3704 L1787.5 18.3704 L1787.5 81.4024 L1780.05 81.4024 L1780.05 18.3704 Z" fill="#000000" fill-rule="evenodd" fill-opacity="1" /><path clip-path="url(#clip580)" d="M1841.91 56.854 L1841.91 60.4998 L1807.64 60.4998 Q1808.12 68.1965 1812.25 72.2474 Q1816.43 76.2578 1823.84 76.2578 Q1828.13 76.2578 1832.14 75.2046 Q1836.19 74.1513 1840.16 72.0448 L1840.16 79.0934 Q1836.15 80.7948 1831.94 81.686 Q1827.73 82.5772 1823.39 82.5772 Q1812.54 82.5772 1806.18 76.2578 Q1799.86 69.9384 1799.86 59.163 Q1799.86 48.023 1805.85 41.501 Q1811.89 34.9386 1822.1 34.9386 Q1831.25 34.9386 1836.56 40.8529 Q1841.91 46.7267 1841.91 56.854 M1834.45 54.6665 Q1834.37 48.5496 1831.01 44.9038 Q1827.69 41.258 1822.18 41.258 Q1815.94 41.258 1812.17 44.7823 Q1808.45 48.3066 1807.88 54.707 L1834.45 54.6665 Z" fill="#000000" fill-rule="evenodd" fill-opacity="1" /><path clip-path="url(#clip580)" d="M1856.04 71.1131 L1864.59 71.1131 L1864.59 81.4024 L1856.04 81.4024 L1856.04 71.1131 M1856.04 38.5034 L1864.59 38.5034 L1864.59 48.7927 L1856.04 48.7927 L1856.04 38.5034 Z" fill="#000000" fill-rule="evenodd" fill-opacity="1" /><path clip-path="url(#clip580)" d="M692.308 152.838 Q692.799 153.33 692.799 154.027 Q692.799 154.723 692.308 155.215 Q691.816 155.707 691.119 155.707 L638.571 155.707 Q637.874 155.707 637.382 155.215 Q636.89 154.723 636.89 154.027 Q636.89 153.33 637.382 152.838 Q637.874 152.346 638.571 152.346 L691.119 152.346 Q691.816 152.346 692.308 152.838 Z" fill="#000000" fill-rule="evenodd" fill-opacity="1" /><path clip-path="url(#clip580)" d="M701.559 193.417 L701.559 115.251 Q701.559 112.136 703.24 112.136 Q704.921 112.136 704.921 114.636 L704.921 192.802 Q704.921 195.918 703.24 195.918 Q701.559 195.918 701.559 193.417 Z" fill="#000000" fill-rule="evenodd" fill-opacity="1" /><path clip-path="url(#clip580)" d="M724.112 193.417 L724.112 115.251 Q724.112 112.136 725.793 112.136 Q727.473 112.136 727.473 114.636 L727.473 192.802 Q727.473 195.918 725.793 195.918 Q724.112 195.918 724.112 193.417 Z" fill="#000000" fill-rule="evenodd" fill-opacity="1" /><path clip-path="url(#clip580)" d="M780.746 143.451 Q780.746 145.747 779.311 147.058 Q777.877 148.329 776.237 148.329 Q774.679 148.329 773.86 147.427 Q773.04 146.526 773.04 145.378 Q773.04 143.82 774.188 142.468 Q775.335 141.115 777.057 140.828 Q775.376 139.762 772.876 139.762 Q771.236 139.762 769.802 140.623 Q768.408 141.484 767.547 142.591 Q766.728 143.697 765.99 145.296 Q765.293 146.853 765.006 147.796 Q764.76 148.698 764.555 149.682 L761.686 161.159 Q760.292 166.61 760.292 168.537 Q760.292 170.914 761.44 172.513 Q762.588 174.07 764.883 174.07 Q765.785 174.07 766.81 173.824 Q767.834 173.537 769.146 172.8 Q770.499 172.021 771.687 170.873 Q772.917 169.684 774.106 167.676 Q775.294 165.668 776.073 163.085 Q776.319 162.183 777.139 162.183 Q778.164 162.183 778.164 163.003 Q778.164 163.7 777.59 165.176 Q777.057 166.61 775.868 168.496 Q774.72 170.34 773.204 172.021 Q771.687 173.66 769.433 174.808 Q767.178 175.956 764.719 175.956 Q761.194 175.956 758.858 174.07 Q756.521 172.185 755.66 169.561 Q755.455 169.93 755.169 170.422 Q754.882 170.914 754.021 172.021 Q753.201 173.087 752.258 173.906 Q751.316 174.685 749.84 175.3 Q748.405 175.956 746.848 175.956 Q744.88 175.956 743.118 175.382 Q741.396 174.808 740.166 173.496 Q738.937 172.185 738.937 170.381 Q738.937 168.373 740.289 166.979 Q741.683 165.545 743.569 165.545 Q744.757 165.545 745.7 166.241 Q746.684 166.938 746.684 168.455 Q746.684 170.135 745.536 171.406 Q744.388 172.677 742.749 173.005 Q744.429 174.07 746.93 174.07 Q749.635 174.07 751.766 171.693 Q753.898 169.316 754.923 165.34 Q757.464 155.789 758.448 151.526 Q759.431 147.222 759.431 145.378 Q759.431 143.656 758.981 142.468 Q758.53 141.279 757.751 140.746 Q757.013 140.172 756.316 139.967 Q755.66 139.762 754.923 139.762 Q753.693 139.762 752.299 140.254 Q750.947 140.746 749.307 141.894 Q747.709 143 746.192 145.296 Q744.675 147.591 743.651 150.747 Q743.446 151.69 742.544 151.69 Q741.56 151.649 741.56 150.829 Q741.56 150.133 742.093 148.698 Q742.667 147.222 743.815 145.378 Q745.003 143.533 746.52 141.894 Q748.077 140.213 750.332 139.065 Q752.627 137.918 755.087 137.918 Q756.193 137.918 757.259 138.164 Q758.366 138.369 759.677 138.983 Q761.03 139.598 762.219 140.951 Q763.407 142.304 764.145 144.271 Q764.637 143.328 765.293 142.427 Q765.99 141.525 767.055 140.418 Q768.162 139.27 769.679 138.615 Q771.236 137.918 772.958 137.918 Q774.638 137.918 776.278 138.369 Q777.918 138.779 779.311 140.131 Q780.746 141.443 780.746 143.451 Z" fill="#000000" fill-rule="evenodd" fill-opacity="1" /><path clip-path="url(#clip580)" d="M793.531 193.417 L793.531 115.251 Q793.531 112.136 795.211 112.136 Q796.892 112.136 796.892 114.636 L796.892 192.802 Q796.892 195.918 795.211 195.918 Q793.531 195.918 793.531 193.417 Z" fill="#000000" fill-rule="evenodd" fill-opacity="1" /><path clip-path="url(#clip580)" d="M816.083 193.417 L816.083 115.251 Q816.083 112.136 817.764 112.136 Q819.445 112.136 819.445 114.636 L819.445 192.802 Q819.445 195.918 817.764 195.918 Q816.083 195.918 816.083 193.417 Z" fill="#000000" fill-rule="evenodd" fill-opacity="1" /><path clip-path="url(#clip580)" d="M838.636 193.417 L838.636 115.251 Q838.636 112.136 840.317 112.136 Q841.997 112.136 841.997 114.636 L841.997 192.802 Q841.997 195.918 840.317 195.918 Q838.636 195.918 838.636 193.417 Z" fill="#000000" fill-rule="evenodd" fill-opacity="1" /><path clip-path="url(#clip580)" d="M861.189 193.417 L861.189 115.251 Q861.189 112.136 862.869 112.136 Q864.55 112.136 864.55 114.636 L864.55 192.802 Q864.55 195.918 862.869 195.918 Q861.189 195.918 861.189 193.417 Z" fill="#000000" fill-rule="evenodd" fill-opacity="1" /><path clip-path="url(#clip580)" d="M914.748 141.115 Q914.748 141.689 914.379 143.041 L906.346 175.095 Q904.583 182.227 898.844 187.228 Q893.147 192.229 886.671 192.229 Q882.777 192.229 880.276 190.138 Q877.776 188.089 877.776 184.932 Q877.776 182.145 879.252 180.793 Q880.727 179.481 882.49 179.481 Q883.064 179.481 883.678 179.645 Q884.293 179.809 884.949 180.506 Q885.605 181.202 885.605 182.391 Q885.605 184.318 883.924 185.834 Q883.105 186.531 882.326 186.695 Q881.588 186.859 880.317 186.859 Q880.809 188.007 881.711 188.785 Q882.613 189.564 883.637 189.851 Q884.662 190.179 885.318 190.261 Q886.015 190.384 886.671 190.384 Q891.917 190.384 895.934 185.096 Q897.123 183.498 897.984 181.899 Q898.885 180.342 899.541 178.415 Q900.197 176.53 900.484 175.505 Q900.812 174.48 901.386 172.144 Q897.574 175.956 892.901 175.956 Q890.934 175.956 889.171 175.423 Q887.449 174.89 885.933 173.783 Q884.416 172.636 883.514 170.627 Q882.654 168.619 882.654 165.954 Q882.654 163.126 883.76 159.273 Q884.867 155.42 887.531 148.329 Q888.966 144.353 888.966 142.427 Q888.966 141.484 888.761 140.91 Q888.556 140.295 888.146 140.09 Q887.736 139.844 887.49 139.803 Q887.285 139.762 886.876 139.762 Q884.457 139.762 882.203 142.222 Q879.948 144.681 878.391 150.174 Q878.063 151.198 877.858 151.444 Q877.653 151.69 877.038 151.69 Q876.013 151.649 876.013 150.829 Q876.013 150.501 876.382 149.231 Q876.751 147.919 877.612 145.993 Q878.514 144.025 879.743 142.263 Q880.973 140.459 882.9 139.188 Q884.867 137.918 887.122 137.918 Q890.196 137.918 892.081 139.926 Q894.008 141.894 894.008 144.804 Q894.008 145.993 893.68 147.058 Q893.393 148.083 892.327 150.829 Q888.023 161.896 888.023 167.307 Q888.023 168.619 888.228 169.725 Q888.474 170.791 889.007 171.857 Q889.54 172.882 890.606 173.496 Q891.712 174.07 893.229 174.07 Q895.155 174.07 896.959 173.169 Q898.803 172.226 899.951 170.955 Q901.14 169.684 901.837 168.619 Q902.574 167.512 902.738 166.938 L906.509 151.854 L908.19 145.132 Q908.969 141.484 909.338 140.582 Q909.83 139.721 910.69 139.27 Q911.551 138.82 912.289 138.82 Q913.314 138.82 914.011 139.434 Q914.748 140.049 914.748 141.115 Z" fill="#000000" fill-rule="evenodd" fill-opacity="1" /><path clip-path="url(#clip580)" d="M927.147 193.417 L927.147 115.251 Q927.147 112.136 928.828 112.136 Q930.508 112.136 930.508 114.636 L930.508 192.802 Q930.508 195.918 928.828 195.918 Q927.147 195.918 927.147 193.417 Z" fill="#000000" fill-rule="evenodd" fill-opacity="1" /><path clip-path="url(#clip580)" d="M949.7 193.417 L949.7 115.251 Q949.7 112.136 951.38 112.136 Q953.061 112.136 953.061 114.636 L953.061 192.802 Q953.061 195.918 951.38 195.918 Q949.7 195.918 949.7 193.417 Z" fill="#000000" fill-rule="evenodd" fill-opacity="1" /><path clip-path="url(#clip580)" d="M1007.64 162.265 Q1007.72 161.241 1009.32 161.241 L1060.76 161.241 Q1063.18 161.241 1063.22 162.183 Q1063.22 163.208 1060.93 163.167 L1009.89 163.167 Q1007.64 163.208 1007.64 162.265 M1007.64 145.87 Q1007.64 144.845 1009.4 144.886 L1060.68 144.886 Q1063.18 144.886 1063.22 145.87 Q1063.22 146.812 1061.09 146.812 L1009.32 146.812 Q1007.64 146.812 1007.64 145.87 Z" fill="#000000" fill-rule="evenodd" fill-opacity="1" /><path clip-path="url(#clip580)" d="M1174.31 152.838 Q1174.8 153.33 1174.8 154.027 Q1174.8 154.723 1174.31 155.215 Q1173.82 155.707 1173.12 155.707 L1120.57 155.707 Q1119.87 155.707 1119.38 155.215 Q1118.89 154.723 1118.89 154.027 Q1118.89 153.33 1119.38 152.838 Q1119.87 152.346 1120.57 152.346 L1173.12 152.346 Q1173.82 152.346 1174.31 152.838 Z" fill="#000000" fill-rule="evenodd" fill-opacity="1" /><path clip-path="url(#clip580)" d="M1206.85 175.013 Q1206.85 173.496 1206.97 173.046 Q1207.14 172.595 1207.79 171.898 L1223.9 153.945 Q1232.71 144.025 1232.71 135.376 Q1232.71 129.761 1229.76 125.744 Q1226.85 121.727 1221.48 121.727 Q1217.79 121.727 1214.68 123.981 Q1211.56 126.236 1210.13 130.253 Q1210.37 130.171 1211.24 130.171 Q1213.33 130.171 1214.47 131.482 Q1215.66 132.794 1215.66 134.557 Q1215.66 136.811 1214.19 137.918 Q1212.75 138.983 1211.32 138.983 Q1210.74 138.983 1209.96 138.861 Q1209.23 138.738 1208.04 137.59 Q1206.85 136.401 1206.85 134.311 Q1206.85 128.449 1211.28 123.776 Q1215.74 119.104 1222.55 119.104 Q1230.25 119.104 1235.3 123.694 Q1240.38 128.244 1240.38 135.376 Q1240.38 137.877 1239.6 140.172 Q1238.86 142.427 1237.84 144.189 Q1236.85 145.952 1234.15 148.78 Q1231.44 151.608 1229.27 153.617 Q1227.1 155.625 1222.22 159.888 L1213.33 168.537 L1228.45 168.537 Q1235.83 168.537 1236.4 167.881 Q1237.22 166.692 1238.25 160.421 L1240.38 160.421 L1238 175.013 L1206.85 175.013 Z" fill="#000000" fill-rule="evenodd" fill-opacity="1" /><path clip-path="url(#clip580)" d="M1249.69 173.66 Q1248.42 172.308 1248.42 170.545 Q1248.42 168.783 1249.69 167.512 Q1250.96 166.2 1252.89 166.2 Q1254.73 166.2 1255.96 167.43 Q1257.23 168.619 1257.23 170.586 Q1257.23 172.513 1255.88 173.783 Q1254.57 175.013 1252.89 175.013 Q1250.96 175.013 1249.69 173.66 Z" fill="#000000" fill-rule="evenodd" fill-opacity="1" /><path clip-path="url(#clip580)" d="M1271.52 161.487 Q1271.52 158.986 1272.87 158.044 Q1274.22 157.06 1275.66 157.06 Q1277.59 157.06 1278.69 158.289 Q1279.84 159.478 1279.84 161.159 Q1279.84 162.839 1278.69 164.069 Q1277.59 165.258 1275.66 165.258 Q1274.72 165.258 1274.22 165.094 Q1275.33 168.947 1278.69 171.734 Q1282.09 174.521 1286.56 174.521 Q1292.18 174.521 1295.54 169.07 Q1297.55 165.545 1297.55 157.552 Q1297.55 150.501 1296.03 146.976 Q1293.69 141.607 1288.9 141.607 Q1282.09 141.607 1278.08 147.468 Q1277.59 148.206 1277.01 148.247 Q1276.19 148.247 1275.99 147.796 Q1275.82 147.304 1275.82 146.034 L1275.82 121.194 Q1275.82 119.186 1276.64 119.186 Q1276.97 119.186 1277.67 119.432 Q1282.95 121.768 1288.82 121.809 Q1294.84 121.809 1300.25 119.35 Q1300.66 119.104 1300.91 119.104 Q1301.73 119.104 1301.77 120.046 Q1301.77 120.374 1301.07 121.358 Q1300.42 122.301 1298.98 123.572 Q1297.55 124.801 1295.7 125.99 Q1293.86 127.179 1291.15 127.998 Q1288.49 128.777 1285.54 128.777 Q1282.01 128.777 1278.41 127.67 L1278.41 144.025 Q1282.75 139.762 1289.06 139.762 Q1295.78 139.762 1300.42 145.173 Q1305.05 150.583 1305.05 158.125 Q1305.05 166.036 1299.56 171.447 Q1294.1 176.858 1286.73 176.858 Q1280 176.858 1275.74 172.062 Q1271.52 167.266 1271.52 161.487 Z" fill="#000000" fill-rule="evenodd" fill-opacity="1" /><path clip-path="url(#clip580)" d="M1336.38 154.027 Q1336.38 153.371 1337.73 152.674 L1384.3 131.441 Q1385.98 130.622 1386.43 130.622 Q1387.25 130.622 1387.25 131.441 Q1387.25 132.097 1385.32 133.04 L1344.37 151.854 Q1341.87 153.043 1339.49 154.027 Q1341.83 155.051 1344.37 156.199 L1385.32 175.013 Q1387.25 175.833 1387.25 176.612 Q1387.25 177.431 1386.43 177.431 Q1386.02 177.431 1384.3 176.612 L1337.73 155.379 Q1336.46 154.846 1336.38 154.027 Z" fill="#000000" fill-rule="evenodd" fill-opacity="1" /><path clip-path="url(#clip580)" d="M1479.76 152.838 Q1480.25 153.33 1480.25 154.027 Q1480.25 154.723 1479.76 155.215 Q1479.27 155.707 1478.57 155.707 L1426.02 155.707 Q1425.32 155.707 1424.83 155.215 Q1424.34 154.723 1424.34 154.027 Q1424.34 153.33 1424.83 152.838 Q1425.32 152.346 1426.02 152.346 L1478.57 152.346 Q1479.27 152.346 1479.76 152.838 Z" fill="#000000" fill-rule="evenodd" fill-opacity="1" /><path clip-path="url(#clip580)" d="M1489.01 127.097 L1489.01 124.473 Q1499.09 124.473 1504.3 119.104 Q1505.73 119.104 1505.98 119.432 Q1506.22 119.76 1506.22 121.276 L1506.22 168.373 Q1506.22 170.873 1507.45 171.652 Q1508.68 172.431 1514.05 172.431 L1516.72 172.431 L1516.72 175.013 Q1513.77 174.767 1503.11 174.767 Q1492.45 174.767 1489.54 175.013 L1489.54 172.431 L1492.21 172.431 Q1497.49 172.431 1498.76 171.693 Q1500.04 170.914 1500.04 168.373 L1500.04 124.883 Q1495.65 127.097 1489.01 127.097 Z" fill="#000000" fill-rule="evenodd" fill-opacity="1" /><path clip-path="url(#clip580)" d="M1523.35 173.66 Q1522.08 172.308 1522.08 170.545 Q1522.08 168.783 1523.35 167.512 Q1524.62 166.2 1526.55 166.2 Q1528.39 166.2 1529.62 167.43 Q1530.89 168.619 1530.89 170.586 Q1530.89 172.513 1529.54 173.783 Q1528.23 175.013 1526.55 175.013 Q1524.62 175.013 1523.35 173.66 Z" fill="#000000" fill-rule="evenodd" fill-opacity="1" /><path clip-path="url(#clip580)" d="M1545.18 162.347 Q1545.18 152.961 1557.27 146.894 Q1552.06 143.369 1551.12 142.345 Q1547.43 138.246 1547.43 133.122 Q1547.43 127.261 1551.86 123.203 Q1556.33 119.104 1562.64 119.104 Q1568.67 119.104 1573.22 122.588 Q1577.77 126.072 1577.77 131.605 Q1577.77 139.393 1567.6 144.64 Q1574.32 148.821 1575.92 150.583 Q1580.02 155.133 1580.02 160.913 Q1580.02 167.635 1574.85 172.267 Q1569.69 176.858 1562.56 176.858 Q1555.59 176.858 1550.38 172.8 Q1545.18 168.742 1545.18 162.347 M1549.36 162.347 Q1549.36 167.553 1553.25 171.037 Q1557.19 174.521 1562.64 174.521 Q1567.93 174.521 1571.86 171.488 Q1575.84 168.455 1575.84 163.946 Q1575.84 162.183 1575.22 160.667 Q1574.65 159.15 1573.46 157.962 Q1572.31 156.732 1571.58 156.199 Q1570.88 155.625 1569.53 154.682 L1559.2 148.165 Q1549.36 153.617 1549.36 162.347 M1551.12 129.843 Q1551.12 133.86 1555.34 136.647 L1565.76 143.369 Q1574.08 138.492 1574.08 131.605 Q1574.08 127.138 1570.67 124.186 Q1567.27 121.194 1562.56 121.194 Q1557.93 121.194 1554.52 123.653 Q1551.12 126.072 1551.12 129.843 Z" fill="#000000" fill-rule="evenodd" fill-opacity="1" /><path clip-path="url(#clip580)" d="M1610.04 162.265 Q1610.12 161.241 1611.72 161.241 L1663.16 161.241 Q1665.58 161.241 1665.62 162.183 Q1665.62 163.208 1663.33 163.167 L1612.29 163.167 Q1610.04 163.208 1610.04 162.265 M1610.04 145.87 Q1610.04 144.845 1611.8 144.886 L1663.08 144.886 Q1665.58 144.886 1665.62 145.87 Q1665.62 146.812 1663.49 146.812 L1611.72 146.812 Q1610.04 146.812 1610.04 145.87 Z" fill="#000000" fill-rule="evenodd" fill-opacity="1" /><path clip-path="url(#clip580)" d="M1739.81 143.451 Q1739.81 145.747 1738.37 147.058 Q1736.94 148.329 1735.3 148.329 Q1733.74 148.329 1732.92 147.427 Q1732.1 146.526 1732.1 145.378 Q1732.1 143.82 1733.25 142.468 Q1734.4 141.115 1736.12 140.828 Q1734.44 139.762 1731.94 139.762 Q1730.3 139.762 1728.86 140.623 Q1727.47 141.484 1726.61 142.591 Q1725.79 143.697 1725.05 145.296 Q1724.36 146.853 1724.07 147.796 Q1723.82 148.698 1723.62 149.682 L1720.75 161.159 Q1719.35 166.61 1719.35 168.537 Q1719.35 170.914 1720.5 172.513 Q1721.65 174.07 1723.95 174.07 Q1724.85 174.07 1725.87 173.824 Q1726.9 173.537 1728.21 172.8 Q1729.56 172.021 1730.75 170.873 Q1731.98 169.684 1733.17 167.676 Q1734.36 165.668 1735.14 163.085 Q1735.38 162.183 1736.2 162.183 Q1737.23 162.183 1737.23 163.003 Q1737.23 163.7 1736.65 165.176 Q1736.12 166.61 1734.93 168.496 Q1733.78 170.34 1732.27 172.021 Q1730.75 173.66 1728.5 174.808 Q1726.24 175.956 1723.78 175.956 Q1720.26 175.956 1717.92 174.07 Q1715.58 172.185 1714.72 169.561 Q1714.52 169.93 1714.23 170.422 Q1713.94 170.914 1713.08 172.021 Q1712.26 173.087 1711.32 173.906 Q1710.38 174.685 1708.9 175.3 Q1707.47 175.956 1705.91 175.956 Q1703.94 175.956 1702.18 175.382 Q1700.46 174.808 1699.23 173.496 Q1698 172.185 1698 170.381 Q1698 168.373 1699.35 166.979 Q1700.75 165.545 1702.63 165.545 Q1703.82 165.545 1704.76 166.241 Q1705.75 166.938 1705.75 168.455 Q1705.75 170.135 1704.6 171.406 Q1703.45 172.677 1701.81 173.005 Q1703.49 174.07 1705.99 174.07 Q1708.7 174.07 1710.83 171.693 Q1712.96 169.316 1713.99 165.34 Q1716.53 155.789 1717.51 151.526 Q1718.49 147.222 1718.49 145.378 Q1718.49 143.656 1718.04 142.468 Q1717.59 141.279 1716.81 140.746 Q1716.08 140.172 1715.38 139.967 Q1714.72 139.762 1713.99 139.762 Q1712.76 139.762 1711.36 140.254 Q1710.01 140.746 1708.37 141.894 Q1706.77 143 1705.25 145.296 Q1703.74 147.591 1702.71 150.747 Q1702.51 151.69 1701.61 151.69 Q1700.62 151.649 1700.62 150.829 Q1700.62 150.133 1701.16 148.698 Q1701.73 147.222 1702.88 145.378 Q1704.07 143.533 1705.58 141.894 Q1707.14 140.213 1709.39 139.065 Q1711.69 137.918 1714.15 137.918 Q1715.26 137.918 1716.32 138.164 Q1717.43 138.369 1718.74 138.983 Q1720.09 139.598 1721.28 140.951 Q1722.47 142.304 1723.21 144.271 Q1723.7 143.328 1724.36 142.427 Q1725.05 141.525 1726.12 140.418 Q1727.22 139.27 1728.74 138.615 Q1730.3 137.918 1732.02 137.918 Q1733.7 137.918 1735.34 138.369 Q1736.98 138.779 1738.37 140.131 Q1739.81 141.443 1739.81 143.451 Z" fill="#000000" fill-rule="evenodd" fill-opacity="1" /><path clip-path="url(#clip580)" d="M1752.19 119.268 Q1752.19 117.177 1753.46 116.316 Q1754.73 115.415 1756.09 115.415 Q1757.77 115.415 1758.83 116.439 Q1759.94 117.423 1759.94 119.268 Q1759.94 120.087 1759.86 120.538 L1757.07 145.87 L1755.14 145.87 L1752.27 120.538 Q1752.19 120.087 1752.19 119.268 Z" fill="#000000" fill-rule="evenodd" fill-opacity="1" /><path clip-path="url(#clip580)" d="M1814.03 141.115 Q1814.03 141.689 1813.66 143.041 L1805.62 175.095 Q1803.86 182.227 1798.12 187.228 Q1792.42 192.229 1785.95 192.229 Q1782.05 192.229 1779.55 190.138 Q1777.05 188.089 1777.05 184.932 Q1777.05 182.145 1778.53 180.793 Q1780 179.481 1781.77 179.481 Q1782.34 179.481 1782.96 179.645 Q1783.57 179.809 1784.23 180.506 Q1784.88 181.202 1784.88 182.391 Q1784.88 184.318 1783.2 185.834 Q1782.38 186.531 1781.6 186.695 Q1780.87 186.859 1779.59 186.859 Q1780.09 188.007 1780.99 188.785 Q1781.89 189.564 1782.91 189.851 Q1783.94 190.179 1784.6 190.261 Q1785.29 190.384 1785.95 190.384 Q1791.19 190.384 1795.21 185.096 Q1796.4 183.498 1797.26 181.899 Q1798.16 180.342 1798.82 178.415 Q1799.47 176.53 1799.76 175.505 Q1800.09 174.48 1800.66 172.144 Q1796.85 175.956 1792.18 175.956 Q1790.21 175.956 1788.45 175.423 Q1786.73 174.89 1785.21 173.783 Q1783.69 172.636 1782.79 170.627 Q1781.93 168.619 1781.93 165.954 Q1781.93 163.126 1783.04 159.273 Q1784.14 155.42 1786.81 148.329 Q1788.24 144.353 1788.24 142.427 Q1788.24 141.484 1788.04 140.91 Q1787.83 140.295 1787.42 140.09 Q1787.01 139.844 1786.77 139.803 Q1786.56 139.762 1786.15 139.762 Q1783.73 139.762 1781.48 142.222 Q1779.23 144.681 1777.67 150.174 Q1777.34 151.198 1777.14 151.444 Q1776.93 151.69 1776.32 151.69 Q1775.29 151.649 1775.29 150.829 Q1775.29 150.501 1775.66 149.231 Q1776.03 147.919 1776.89 145.993 Q1777.79 144.025 1779.02 142.263 Q1780.25 140.459 1782.18 139.188 Q1784.14 137.918 1786.4 137.918 Q1789.47 137.918 1791.36 139.926 Q1793.29 141.894 1793.29 144.804 Q1793.29 145.993 1792.96 147.058 Q1792.67 148.083 1791.6 150.829 Q1787.3 161.896 1787.3 167.307 Q1787.3 168.619 1787.51 169.725 Q1787.75 170.791 1788.28 171.857 Q1788.82 172.882 1789.88 173.496 Q1790.99 174.07 1792.51 174.07 Q1794.43 174.07 1796.24 173.169 Q1798.08 172.226 1799.23 170.955 Q1800.42 169.684 1801.11 168.619 Q1801.85 167.512 1802.02 166.938 L1805.79 151.854 L1807.47 145.132 Q1808.25 141.484 1808.62 140.582 Q1809.11 139.721 1809.97 139.27 Q1810.83 138.82 1811.57 138.82 Q1812.59 138.82 1813.29 139.434 Q1814.03 140.049 1814.03 141.115 Z" fill="#000000" fill-rule="evenodd" fill-opacity="1" /><path clip-path="url(#clip580)" d="M1839.3 154.027 Q1839.3 153.371 1840.65 152.674 L1887.22 131.441 Q1888.9 130.622 1889.35 130.622 Q1890.17 130.622 1890.17 131.441 Q1890.17 132.097 1888.24 133.04 L1847.29 151.854 Q1844.79 153.043 1842.41 154.027 Q1844.75 155.051 1847.29 156.199 L1888.24 175.013 Q1890.17 175.833 1890.17 176.612 Q1890.17 177.431 1889.35 177.431 Q1888.94 177.431 1887.22 176.612 L1840.65 155.379 Q1839.38 154.846 1839.3 154.027 Z" fill="#000000" fill-rule="evenodd" fill-opacity="1" /><path clip-path="url(#clip580)" d="M1927.26 148.165 Q1927.26 135.827 1930.37 129.105 Q1934.72 119.104 1944.97 119.104 Q1947.14 119.104 1949.39 119.719 Q1951.69 120.292 1954.56 122.547 Q1957.47 124.801 1959.23 128.49 Q1962.59 135.622 1962.59 148.165 Q1962.59 160.421 1959.48 167.102 Q1954.93 176.858 1944.88 176.858 Q1941.11 176.858 1937.26 174.931 Q1933.45 173.005 1931.03 168.373 Q1927.26 161.446 1927.26 148.165 M1934.23 147.14 Q1934.23 159.806 1935.13 164.848 Q1936.15 170.299 1938.94 172.677 Q1941.77 175.013 1944.88 175.013 Q1948.25 175.013 1951.03 172.513 Q1953.86 169.971 1954.72 164.52 Q1955.66 159.15 1955.62 147.14 Q1955.62 135.458 1954.8 130.786 Q1953.7 125.334 1950.75 123.162 Q1947.84 120.948 1944.88 120.948 Q1943.78 120.948 1942.59 121.276 Q1941.44 121.604 1939.76 122.547 Q1938.08 123.49 1936.77 125.826 Q1935.5 128.162 1934.88 131.687 Q1934.23 136.237 1934.23 147.14 Z" fill="#000000" fill-rule="evenodd" fill-opacity="1" /><polyline clip-path="url(#clip582)" style="stroke:#0000ff; stroke-linecap:round; stroke-linejoin:round; stroke-width:4; stroke-opacity:1; fill:none" points="
  1250.12,835.2 1901.36,509.576 
  "/>
<polyline clip-path="url(#clip582)" style="stroke:#0000ff; stroke-linecap:round; stroke-linejoin:round; stroke-width:4; stroke-opacity:1; fill:none" points="
  1861.12,509.576 1901.36,509.576 1877.22,541.775 
  "/>
<polyline clip-path="url(#clip582)" style="stroke:#0000ff; stroke-linecap:round; stroke-linejoin:round; stroke-width:4; stroke-opacity:1; fill:none" points="
  1901.36,509.576 1250.12,835.2 
  "/>
<polyline clip-path="url(#clip582)" style="stroke:#0000ff; stroke-linecap:round; stroke-linejoin:round; stroke-width:4; stroke-opacity:1; fill:none" points="
  1250.12,835.2 904.741,720.075 
  "/>
<polyline clip-path="url(#clip582)" style="stroke:#0000ff; stroke-linecap:round; stroke-linejoin:round; stroke-width:4; stroke-opacity:1; fill:none" points="
  933.201,748.535 904.741,720.075 944.585,714.382 
  "/>
<polyline clip-path="url(#clip582)" style="stroke:#0000ff; stroke-linecap:round; stroke-linejoin:round; stroke-width:4; stroke-opacity:1; fill:none" points="
  904.741,720.075 1250.12,835.2 
  "/>
<path clip-path="url(#clip580)" d="M1955.33 498.803 Q1955.33 501.099 1953.9 502.41 Q1952.47 503.681 1950.83 503.681 Q1949.27 503.681 1948.45 502.779 Q1947.63 501.878 1947.63 500.73 Q1947.63 499.172 1948.78 497.82 Q1949.92 496.467 1951.65 496.18 Q1949.96 495.114 1947.46 495.114 Q1945.82 495.114 1944.39 495.975 Q1943 496.836 1942.14 497.943 Q1941.32 499.049 1940.58 500.648 Q1939.88 502.205 1939.59 503.148 Q1939.35 504.05 1939.14 505.034 L1936.27 516.511 Q1934.88 521.962 1934.88 523.889 Q1934.88 526.266 1936.03 527.865 Q1937.18 529.422 1939.47 529.422 Q1940.37 529.422 1941.4 529.176 Q1942.42 528.89 1943.73 528.152 Q1945.09 527.373 1946.28 526.225 Q1947.51 525.037 1948.69 523.028 Q1949.88 521.02 1950.66 518.437 Q1950.91 517.535 1951.73 517.535 Q1952.75 517.535 1952.75 518.355 Q1952.75 519.052 1952.18 520.528 Q1951.65 521.962 1950.46 523.848 Q1949.31 525.692 1947.79 527.373 Q1946.28 529.012 1944.02 530.16 Q1941.77 531.308 1939.31 531.308 Q1935.78 531.308 1933.45 529.422 Q1931.11 527.537 1930.25 524.914 Q1930.04 525.282 1929.76 525.774 Q1929.47 526.266 1928.61 527.373 Q1927.79 528.439 1926.85 529.258 Q1925.9 530.037 1924.43 530.652 Q1922.99 531.308 1921.44 531.308 Q1919.47 531.308 1917.71 530.734 Q1915.98 530.16 1914.75 528.849 Q1913.53 527.537 1913.53 525.733 Q1913.53 523.725 1914.88 522.331 Q1916.27 520.897 1918.16 520.897 Q1919.35 520.897 1920.29 521.593 Q1921.27 522.29 1921.27 523.807 Q1921.27 525.487 1920.12 526.758 Q1918.98 528.029 1917.34 528.357 Q1919.02 529.422 1921.52 529.422 Q1924.22 529.422 1926.35 527.045 Q1928.49 524.668 1929.51 520.692 Q1932.05 511.141 1933.04 506.878 Q1934.02 502.574 1934.02 500.73 Q1934.02 499.008 1933.57 497.82 Q1933.12 496.631 1932.34 496.098 Q1931.6 495.524 1930.9 495.319 Q1930.25 495.114 1929.51 495.114 Q1928.28 495.114 1926.89 495.606 Q1925.54 496.098 1923.9 497.246 Q1922.3 498.352 1920.78 500.648 Q1919.26 502.943 1918.24 506.099 Q1918.03 507.042 1917.13 507.042 Q1916.15 507.001 1916.15 506.181 Q1916.15 505.485 1916.68 504.05 Q1917.26 502.574 1918.4 500.73 Q1919.59 498.885 1921.11 497.246 Q1922.67 495.565 1924.92 494.418 Q1927.22 493.27 1929.68 493.27 Q1930.78 493.27 1931.85 493.516 Q1932.95 493.721 1934.27 494.336 Q1935.62 494.95 1936.81 496.303 Q1938 497.656 1938.73 499.623 Q1939.23 498.68 1939.88 497.779 Q1940.58 496.877 1941.64 495.77 Q1942.75 494.622 1944.27 493.967 Q1945.82 493.27 1947.55 493.27 Q1949.23 493.27 1950.87 493.721 Q1952.51 494.131 1953.9 495.483 Q1955.33 496.795 1955.33 498.803 Z" fill="#000000" fill-rule="evenodd" fill-opacity="1" /><path clip-path="url(#clip580)" d="M1984.35 517.617 Q1984.44 516.593 1986.03 516.593 L2037.48 516.593 Q2039.89 516.593 2039.94 517.535 Q2039.94 518.56 2037.64 518.519 L1986.61 518.519 Q1984.35 518.56 1984.35 517.617 M1984.35 501.222 Q1984.35 500.197 1986.12 500.238 L2037.39 500.238 Q2039.89 500.238 2039.94 501.222 Q2039.94 502.165 2037.8 502.165 L1986.03 502.165 Q1984.35 502.165 1984.35 501.222 Z" fill="#000000" fill-rule="evenodd" fill-opacity="1" /><path clip-path="url(#clip580)" d="M2072.31 509.379 Q2072.31 495.196 2077.6 483.76 Q2079.86 478.965 2083.01 474.948 Q2086.17 470.931 2088.26 469.168 Q2090.35 467.406 2090.92 467.406 Q2091.74 467.406 2091.78 468.225 Q2091.78 468.635 2090.68 469.66 Q2077.15 483.432 2077.19 509.379 Q2077.19 535.407 2090.35 548.646 Q2091.78 550.081 2091.78 550.532 Q2091.78 551.352 2090.92 551.352 Q2090.35 551.352 2088.34 549.671 Q2086.33 547.991 2083.22 544.138 Q2080.1 540.285 2077.85 535.571 Q2072.31 524.135 2072.31 509.379 Z" fill="#000000" fill-rule="evenodd" fill-opacity="1" /><path clip-path="url(#clip580)" d="M2099.84 530.365 Q2099.84 528.849 2099.97 528.398 Q2100.13 527.947 2100.79 527.25 L2116.89 509.297 Q2125.71 499.377 2125.71 490.728 Q2125.71 485.113 2122.76 481.096 Q2119.85 477.079 2114.48 477.079 Q2110.79 477.079 2107.67 479.333 Q2104.56 481.588 2103.12 485.605 Q2103.37 485.523 2104.23 485.523 Q2106.32 485.523 2107.47 486.835 Q2108.66 488.146 2108.66 489.909 Q2108.66 492.163 2107.18 493.27 Q2105.75 494.336 2104.31 494.336 Q2103.74 494.336 2102.96 494.213 Q2102.22 494.09 2101.03 492.942 Q2099.84 491.753 2099.84 489.663 Q2099.84 483.801 2104.27 479.129 Q2108.74 474.456 2115.54 474.456 Q2123.25 474.456 2128.29 479.047 Q2133.37 483.596 2133.37 490.728 Q2133.37 493.229 2132.59 495.524 Q2131.86 497.779 2130.83 499.541 Q2129.85 501.304 2127.14 504.132 Q2124.44 506.96 2122.26 508.969 Q2120.09 510.977 2115.21 515.24 L2106.32 523.889 L2121.44 523.889 Q2128.82 523.889 2129.4 523.233 Q2130.22 522.044 2131.24 515.773 L2133.37 515.773 L2130.99 530.365 L2099.84 530.365 Z" fill="#000000" fill-rule="evenodd" fill-opacity="1" /><path clip-path="url(#clip580)" d="M2142.6 529.012 Q2141.41 527.66 2141.41 525.897 Q2141.41 524.135 2142.56 522.823 Q2143.75 521.47 2145.88 521.47 Q2148.38 521.47 2149.82 523.889 Q2151.25 526.266 2151.25 530.283 Q2151.25 534.628 2149.49 538.645 Q2147.73 542.703 2146 544.629 Q2144.28 546.556 2143.59 546.556 Q2142.77 546.556 2142.77 545.654 Q2142.77 545.326 2143.34 544.711 Q2149.37 538.235 2149.41 530.283 Q2149.41 529.012 2149.24 529.012 L2149.04 529.176 Q2147.6 530.365 2145.88 530.365 Q2143.79 530.365 2142.6 529.012 Z" fill="#000000" fill-rule="evenodd" fill-opacity="1" /><path clip-path="url(#clip580)" d="M2177.74 482.449 L2177.74 479.825 Q2187.82 479.825 2193.03 474.456 Q2194.46 474.456 2194.71 474.784 Q2194.96 475.112 2194.96 476.628 L2194.96 523.725 Q2194.96 526.225 2196.19 527.004 Q2197.41 527.783 2202.78 527.783 L2205.45 527.783 L2205.45 530.365 Q2202.5 530.119 2191.84 530.119 Q2181.18 530.119 2178.27 530.365 L2178.27 527.783 L2180.94 527.783 Q2186.22 527.783 2187.5 527.045 Q2188.77 526.266 2188.77 523.725 L2188.77 480.235 Q2184.38 482.449 2177.74 482.449 Z" fill="#000000" fill-rule="evenodd" fill-opacity="1" /><path clip-path="url(#clip580)" d="M2217.97 550.532 Q2217.97 550.122 2219.03 549.097 Q2232.56 535.325 2232.56 509.379 Q2232.56 483.35 2219.56 470.193 Q2217.97 468.676 2217.97 468.225 Q2217.97 467.406 2218.79 467.406 Q2219.36 467.406 2221.37 469.086 Q2223.42 470.767 2226.49 474.62 Q2229.61 478.473 2231.9 483.186 Q2237.44 494.622 2237.44 509.379 Q2237.44 523.561 2232.15 534.997 Q2229.89 539.793 2226.74 543.81 Q2223.58 547.827 2221.49 549.589 Q2219.4 551.352 2218.79 551.352 Q2217.97 551.352 2217.97 550.532 Z" fill="#000000" fill-rule="evenodd" fill-opacity="1" /><path clip-path="url(#clip580)" d="M2256.85 474.62 Q2256.85 472.529 2258.12 471.668 Q2259.4 470.767 2260.75 470.767 Q2262.43 470.767 2263.49 471.791 Q2264.6 472.775 2264.6 474.62 Q2264.6 475.439 2264.52 475.89 L2261.73 501.222 L2259.81 501.222 L2256.94 475.89 Q2256.85 475.439 2256.85 474.62 Z" fill="#000000" fill-rule="evenodd" fill-opacity="1" /><path clip-path="url(#clip580)" d="M588.889 641.841 Q588.889 642.415 588.521 643.767 L580.487 675.821 Q578.724 682.953 572.986 687.954 Q567.288 692.954 560.812 692.954 Q556.918 692.954 554.417 690.864 Q551.917 688.814 551.917 685.658 Q551.917 682.871 553.393 681.518 Q554.868 680.207 556.631 680.207 Q557.205 680.207 557.82 680.371 Q558.434 680.535 559.09 681.231 Q559.746 681.928 559.746 683.117 Q559.746 685.043 558.066 686.56 Q557.246 687.257 556.467 687.421 Q555.729 687.585 554.458 687.585 Q554.95 688.732 555.852 689.511 Q556.754 690.29 557.779 690.577 Q558.803 690.905 559.459 690.987 Q560.156 691.11 560.812 691.11 Q566.058 691.11 570.075 685.822 Q571.264 684.224 572.125 682.625 Q573.027 681.067 573.682 679.141 Q574.338 677.255 574.625 676.231 Q574.953 675.206 575.527 672.87 Q571.715 676.682 567.042 676.682 Q565.075 676.682 563.312 676.149 Q561.591 675.616 560.074 674.509 Q558.557 673.361 557.656 671.353 Q556.795 669.345 556.795 666.68 Q556.795 663.852 557.902 659.999 Q559.008 656.146 561.673 649.055 Q563.107 645.079 563.107 643.152 Q563.107 642.21 562.902 641.636 Q562.697 641.021 562.287 640.816 Q561.878 640.57 561.632 640.529 Q561.427 640.488 561.017 640.488 Q558.598 640.488 556.344 642.947 Q554.09 645.407 552.532 650.899 Q552.204 651.924 551.999 652.17 Q551.794 652.416 551.179 652.416 Q550.155 652.375 550.155 651.555 Q550.155 651.227 550.524 649.957 Q550.892 648.645 551.753 646.718 Q552.655 644.751 553.885 642.988 Q555.114 641.185 557.041 639.914 Q559.008 638.644 561.263 638.644 Q564.337 638.644 566.222 640.652 Q568.149 642.619 568.149 645.53 Q568.149 646.718 567.821 647.784 Q567.534 648.809 566.468 651.555 Q562.164 662.622 562.164 668.033 Q562.164 669.345 562.369 670.451 Q562.615 671.517 563.148 672.583 Q563.681 673.607 564.747 674.222 Q565.853 674.796 567.37 674.796 Q569.297 674.796 571.1 673.894 Q572.945 672.952 574.092 671.681 Q575.281 670.41 575.978 669.345 Q576.716 668.238 576.88 667.664 L580.651 652.58 L582.331 645.858 Q583.11 642.21 583.479 641.308 Q583.971 640.447 584.832 639.996 Q585.692 639.545 586.43 639.545 Q587.455 639.545 588.152 640.16 Q588.889 640.775 588.889 641.841 Z" fill="#000000" fill-rule="evenodd" fill-opacity="1" /><path clip-path="url(#clip580)" d="M614.163 662.991 Q614.245 661.966 615.843 661.966 L667.285 661.966 Q669.703 661.966 669.744 662.909 Q669.744 663.934 667.449 663.893 L616.417 663.893 Q614.163 663.934 614.163 662.991 M614.163 646.595 Q614.163 645.571 615.925 645.612 L667.203 645.612 Q669.703 645.612 669.744 646.595 Q669.744 647.538 667.613 647.538 L615.843 647.538 Q614.163 647.538 614.163 646.595 Z" fill="#000000" fill-rule="evenodd" fill-opacity="1" /><path clip-path="url(#clip580)" d="M702.123 654.752 Q702.123 640.57 707.41 629.134 Q709.665 624.338 712.821 620.321 Q715.977 616.304 718.068 614.542 Q720.158 612.779 720.732 612.779 Q721.552 612.779 721.593 613.599 Q721.593 614.009 720.486 615.034 Q706.96 628.806 707.001 654.752 Q707.001 680.781 720.158 694.02 Q721.593 695.455 721.593 695.906 Q721.593 696.725 720.732 696.725 Q720.158 696.725 718.15 695.045 Q716.141 693.364 713.026 689.511 Q709.911 685.658 707.656 680.944 Q702.123 669.508 702.123 654.752 Z" fill="#000000" fill-rule="evenodd" fill-opacity="1" /><path clip-path="url(#clip580)" d="M789.774 653.564 Q790.265 654.056 790.265 654.752 Q790.265 655.449 789.774 655.941 Q789.282 656.433 788.585 656.433 L736.037 656.433 Q735.34 656.433 734.848 655.941 Q734.356 655.449 734.356 654.752 Q734.356 654.056 734.848 653.564 Q735.34 653.072 736.037 653.072 L788.585 653.072 Q789.282 653.072 789.774 653.564 Z" fill="#000000" fill-rule="evenodd" fill-opacity="1" /><path clip-path="url(#clip580)" d="M799.026 627.822 L799.026 625.199 Q809.109 625.199 814.315 619.829 Q815.749 619.829 815.995 620.157 Q816.241 620.485 816.241 622.002 L816.241 669.099 Q816.241 671.599 817.471 672.378 Q818.7 673.157 824.07 673.157 L826.734 673.157 L826.734 675.739 Q823.783 675.493 813.126 675.493 Q802.469 675.493 799.558 675.739 L799.558 673.157 L802.223 673.157 Q807.51 673.157 808.781 672.419 Q810.052 671.64 810.052 669.099 L810.052 625.609 Q805.666 627.822 799.026 627.822 Z" fill="#000000" fill-rule="evenodd" fill-opacity="1" /><path clip-path="url(#clip580)" d="M833.366 674.386 Q832.096 673.034 832.096 671.271 Q832.096 669.508 833.366 668.238 Q834.637 666.926 836.564 666.926 Q838.408 666.926 839.638 668.156 Q840.909 669.345 840.909 671.312 Q840.909 673.238 839.556 674.509 Q838.244 675.739 836.564 675.739 Q834.637 675.739 833.366 674.386 Z" fill="#000000" fill-rule="evenodd" fill-opacity="1" /><path clip-path="url(#clip580)" d="M846.695 627.822 L846.695 625.199 Q856.778 625.199 861.984 619.829 Q863.419 619.829 863.664 620.157 Q863.91 620.485 863.91 622.002 L863.91 669.099 Q863.91 671.599 865.14 672.378 Q866.37 673.157 871.739 673.157 L874.404 673.157 L874.404 675.739 Q871.452 675.493 860.795 675.493 Q850.138 675.493 847.228 675.739 L847.228 673.157 L849.892 673.157 Q855.18 673.157 856.45 672.419 Q857.721 671.64 857.721 669.099 L857.721 625.609 Q853.335 627.822 846.695 627.822 Z" fill="#000000" fill-rule="evenodd" fill-opacity="1" /><path clip-path="url(#clip580)" d="M889.454 674.386 Q888.265 673.034 888.265 671.271 Q888.265 669.508 889.413 668.197 Q890.602 666.844 892.733 666.844 Q895.233 666.844 896.668 669.263 Q898.103 671.64 898.103 675.657 Q898.103 680.002 896.34 684.019 Q894.578 688.077 892.856 690.003 Q891.134 691.93 890.438 691.93 Q889.618 691.93 889.618 691.028 Q889.618 690.7 890.192 690.085 Q896.217 683.609 896.258 675.657 Q896.258 674.386 896.094 674.386 L895.889 674.55 Q894.455 675.739 892.733 675.739 Q890.643 675.739 889.454 674.386 Z" fill="#000000" fill-rule="evenodd" fill-opacity="1" /><path clip-path="url(#clip580)" d="M924.592 648.891 Q924.592 636.553 927.707 629.831 Q932.052 619.829 942.299 619.829 Q944.472 619.829 946.726 620.444 Q949.022 621.018 951.891 623.273 Q954.801 625.527 956.564 629.216 Q959.925 636.348 959.925 648.891 Q959.925 661.147 956.81 667.828 Q952.26 677.583 942.217 677.583 Q938.446 677.583 934.593 675.657 Q930.781 673.73 928.363 669.099 Q924.592 662.171 924.592 648.891 M931.56 647.866 Q931.56 660.532 932.462 665.573 Q933.487 671.025 936.274 673.402 Q939.102 675.739 942.217 675.739 Q945.579 675.739 948.366 673.238 Q951.194 670.697 952.055 665.246 Q952.998 659.876 952.957 647.866 Q952.957 636.184 952.137 631.511 Q951.03 626.06 948.079 623.887 Q945.169 621.674 942.217 621.674 Q941.111 621.674 939.922 622.002 Q938.774 622.33 937.094 623.273 Q935.413 624.215 934.102 626.552 Q932.831 628.888 932.216 632.413 Q931.56 636.963 931.56 647.866 Z" fill="#000000" fill-rule="evenodd" fill-opacity="1" /><path clip-path="url(#clip580)" d="M967.433 674.386 Q966.162 673.034 966.162 671.271 Q966.162 669.508 967.433 668.238 Q968.704 666.926 970.63 666.926 Q972.475 666.926 973.704 668.156 Q974.975 669.345 974.975 671.312 Q974.975 673.238 973.622 674.509 Q972.311 675.739 970.63 675.739 Q968.704 675.739 967.433 674.386 Z" fill="#000000" fill-rule="evenodd" fill-opacity="1" /><path clip-path="url(#clip580)" d="M989.261 661.884 L989.261 659.302 L1015.04 619.911 Q1015.7 618.887 1016.72 618.928 Q1017.67 618.928 1017.87 619.297 Q1018.08 619.665 1018.08 621.1 L1018.08 659.302 L1026.48 659.302 L1026.48 661.884 L1018.08 661.884 L1018.08 669.181 Q1018.08 671.599 1019.06 672.378 Q1020.09 673.157 1024.43 673.157 L1026.19 673.157 L1026.19 675.739 Q1022.75 675.493 1014.8 675.493 Q1006.89 675.493 1003.44 675.739 L1003.44 673.157 L1005.21 673.157 Q1009.55 673.157 1010.58 672.419 Q1011.6 671.64 1011.6 669.181 L1011.6 661.884 L989.261 661.884 M991.639 659.302 L1012.09 659.302 L1012.09 627.986 L991.639 659.302 Z" fill="#000000" fill-rule="evenodd" fill-opacity="1" /><path clip-path="url(#clip580)" d="M1034.53 695.906 Q1034.53 695.496 1035.59 694.471 Q1049.12 680.699 1049.12 654.752 Q1049.12 628.724 1036.13 615.567 Q1034.53 614.05 1034.53 613.599 Q1034.53 612.779 1035.35 612.779 Q1035.92 612.779 1037.93 614.46 Q1039.98 616.14 1043.05 619.993 Q1046.17 623.846 1048.46 628.56 Q1054 639.996 1054 654.752 Q1054 668.935 1048.71 680.371 Q1046.46 685.166 1043.3 689.183 Q1040.14 693.2 1038.05 694.963 Q1035.96 696.725 1035.35 696.725 Q1034.53 696.725 1034.53 695.906 Z" fill="#000000" fill-rule="evenodd" fill-opacity="1" /><path clip-path="url(#clip580)" d="M1073.42 619.993 Q1073.42 617.903 1074.69 617.042 Q1075.96 616.14 1077.31 616.14 Q1078.99 616.14 1080.06 617.165 Q1081.16 618.149 1081.16 619.993 Q1081.16 620.813 1081.08 621.264 L1078.29 646.595 L1076.37 646.595 L1073.5 621.264 Q1073.42 620.813 1073.42 619.993 Z" fill="#000000" fill-rule="evenodd" fill-opacity="1" /></svg>
