<?xml version="1.0" encoding="utf-8"?>
<svg xmlns="http://www.w3.org/2000/svg" xmlns:xlink="http://www.w3.org/1999/xlink" width="600" height="400" viewBox="0 0 2400 1600">
<defs>
  <clipPath id="clip810">
    <rect x="0" y="0" width="2400" height="1600"/>
  </clipPath>
</defs>
<path clip-path="url(#clip810)" d="
M0 1600 L2400 1600 L2400 0 L0 0  Z
  " fill="#ffffff" fill-rule="evenodd" fill-opacity="1"/>
<defs>
  <clipPath id="clip811">
    <rect x="480" y="0" width="1681" height="1600"/>
  </clipPath>
</defs>
<path clip-path="url(#clip810)" d="
M47.2441 752.756 L752.756 752.756 L752.756 47.2441 L47.2441 47.2441  Z
  " fill="#ffffff" fill-rule="evenodd" fill-opacity="1"/>
<defs>
  <clipPath id="clip812">
    <rect x="47" y="47" width="707" height="707"/>
  </clipPath>
</defs>
<polyline clip-path="url(#clip812)" style="stroke:#800080; stroke-linecap:round; stroke-linejoin:round; stroke-width:4; stroke-opacity:1; fill:none" points="
  400,400 488.189,47.2441 
  "/>
<polyline clip-path="url(#clip812)" style="stroke:#800080; stroke-linecap:round; stroke-linejoin:round; stroke-width:4; stroke-opacity:1; fill:none" points="
  461.995,77.8036 488.189,47.2441 496.92,86.5349 
  "/>
<polyline clip-path="url(#clip812)" style="stroke:#800080; stroke-linecap:round; stroke-linejoin:round; stroke-width:4; stroke-opacity:1; fill:none" points="
  488.189,47.2441 400,400 
  "/>
<polyline clip-path="url(#clip812)" style="stroke:#800080; stroke-linecap:round; stroke-linejoin:round; stroke-width:4; stroke-opacity:1; fill:none" points="
  400,400 664.567,311.811 
  "/>
<polyline clip-path="url(#clip812)" style="stroke:#800080; stroke-linecap:round; stroke-linejoin:round; stroke-width:4; stroke-opacity:1; fill:none" points="
  624.722,306.119 664.567,311.811 636.106,340.272 
  "/>
<polyline clip-path="url(#clip812)" style="stroke:#800080; stroke-linecap:round; stroke-linejoin:round; stroke-width:4; stroke-opacity:1; fill:none" points="
  664.567,311.811 400,400 
  "/>
<polyline clip-path="url(#clip812)" style="stroke:#808080; stroke-linecap:round; stroke-linejoin:round; stroke-width:4; stroke-opacity:1; fill:none" points="
  400,223.622 401.764,223.631 403.527,223.657 405.291,223.701 407.053,223.763 408.815,223.842 410.576,223.939 412.336,224.054 414.095,224.186 415.853,224.336 
  417.608,224.503 419.362,224.688 421.115,224.89 422.865,225.11 424.612,225.348 426.358,225.603 428.1,225.875 429.84,226.165 431.577,226.472 433.311,226.796 
  435.041,227.138 436.768,227.497 438.491,227.873 440.21,228.267 441.926,228.677 443.637,229.105 445.343,229.55 447.046,230.012 448.743,230.491 450.436,230.987 
  452.123,231.5 453.806,232.029 455.483,232.576 457.154,233.139 458.82,233.719 460.48,234.315 462.133,234.928 463.781,235.558 465.422,236.204 467.057,236.866 
  468.685,237.545 470.306,238.24 471.92,238.951 473.527,239.678 475.126,240.422 476.718,241.181 478.303,241.956 479.879,242.747 481.448,243.554 483.008,244.376 
  484.56,245.214 486.104,246.067 487.639,246.936 489.165,247.82 490.682,248.719 492.191,249.633 493.69,250.563 495.179,251.507 496.659,252.466 498.13,253.44 
  499.59,254.429 501.041,255.432 502.482,256.45 503.912,257.482 505.332,258.528 506.742,259.588 508.14,260.663 509.528,261.751 510.905,262.853 512.271,263.969 
  513.626,265.099 514.969,266.242 516.301,267.398 517.621,268.568 518.93,269.75 520.226,270.946 521.511,272.155 522.783,273.376 524.043,274.611 525.291,275.857 
  526.526,277.116 527.748,278.388 528.958,279.671 530.155,280.967 531.339,282.274 532.509,283.594 533.667,284.924 534.811,286.267 535.941,287.621 537.058,288.986 
  538.162,290.362 539.251,291.749 540.327,293.147 541.388,294.555 542.435,295.974 543.469,297.404 544.487,298.844 545.492,300.294 546.481,301.754 547.457,303.223 
  548.417,304.703 549.362,306.191 550.293,307.69 551.209,309.197 552.109,310.714 552.994,312.239 553.864,313.774 554.719,315.317 555.558,316.868 556.381,318.428 
  557.189,319.996 557.982,321.572 558.758,323.155 559.518,324.747 560.263,326.346 560.991,327.952 561.704,329.565 562.4,331.186 563.08,332.813 563.744,334.447 
  564.391,336.088 565.022,337.735 565.636,339.388 566.234,341.048 566.815,342.713 567.38,344.384 567.928,346.061 568.459,347.743 568.973,349.43 569.47,351.122 
  569.95,352.819 570.414,354.521 570.86,356.227 571.289,357.938 571.701,359.653 572.096,361.372 572.474,363.095 572.834,364.821 573.177,366.552 573.503,368.285 
  573.812,370.022 574.103,371.761 574.376,373.504 574.633,375.249 574.871,376.996 575.093,378.746 575.296,380.498 575.483,382.252 575.651,384.008 575.803,385.765 
  575.936,387.524 576.052,389.283 576.15,391.045 576.231,392.806 576.294,394.569 576.34,396.332 576.368,398.096 576.378,399.86 576.37,401.623 576.345,403.387 
  576.303,405.15 576.242,406.913 576.164,408.675 576.069,410.436 575.956,412.196 575.825,413.955 575.677,415.713 575.511,417.469 575.327,419.223 575.126,420.975 
  574.908,422.725 574.672,424.473 574.418,426.219 574.147,427.962 573.859,429.702 573.553,431.439 573.23,433.173 572.89,434.903 572.532,436.63 572.157,438.354 
  571.765,440.073 571.356,441.789 570.929,443.501 570.486,445.208 570.025,446.91 569.548,448.608 569.053,450.301 568.542,451.989 568.013,453.672 567.468,455.349 
  566.906,457.021 566.328,458.687 565.733,460.348 565.121,462.002 564.493,463.65 563.848,465.292 563.187,466.927 562.509,468.555 561.816,470.177 561.106,471.792 
  560.38,473.399 559.638,474.999 558.88,476.592 558.106,478.177 557.317,479.754 556.511,481.323 555.69,482.884 554.854,484.437 554.001,485.981 553.134,487.517 
  552.251,489.044 551.353,490.562 550.44,492.071 549.512,493.571 548.569,495.061 547.61,496.542 546.638,498.013 545.65,499.475 544.648,500.926 543.632,502.367 
  542.601,503.799 541.556,505.219 540.497,506.63 539.423,508.029 538.336,509.418 537.235,510.796 536.12,512.163 534.992,513.518 533.85,514.863 532.695,516.195 
  531.526,517.516 530.344,518.826 529.149,520.123 527.942,521.409 526.721,522.682 525.488,523.943 524.243,525.192 522.984,526.428 521.714,527.651 520.431,528.862 
  519.137,530.06 517.83,531.245 516.512,532.417 515.182,533.575 513.841,534.72 512.488,535.852 511.124,536.97 509.748,538.074 508.362,539.165 506.965,540.241 
  505.557,541.304 504.139,542.353 502.71,543.387 501.271,544.407 499.822,545.412 498.363,546.403 496.894,547.379 495.416,548.341 493.927,549.288 492.43,550.22 
  490.923,551.136 489.407,552.038 487.882,552.924 486.349,553.796 484.807,554.651 483.256,555.492 481.697,556.316 480.13,557.126 478.554,557.919 476.971,558.697 
  475.38,559.458 473.782,560.204 472.176,560.934 470.563,561.648 468.943,562.345 467.317,563.027 465.683,563.692 464.043,564.34 462.396,564.972 460.743,565.588 
  459.085,566.187 457.42,566.77 455.749,567.336 454.073,567.885 452.392,568.417 450.705,568.933 449.013,569.431 447.316,569.913 445.615,570.377 443.909,570.825 
  442.198,571.256 440.484,571.669 438.765,572.065 437.042,572.444 435.316,572.806 433.586,573.151 431.853,573.478 430.117,573.788 428.378,574.08 426.635,574.355 
  424.89,574.613 423.143,574.853 421.393,575.076 419.642,575.281 417.888,575.469 416.132,575.639 414.375,575.791 412.617,575.926 410.857,576.043 409.096,576.143 
  407.334,576.225 405.571,576.29 403.808,576.337 402.045,576.366 400.281,576.378 398.517,576.372 396.754,576.348 394.99,576.307 393.227,576.248 391.465,576.171 
  389.704,576.077 387.944,575.965 386.185,575.836 384.427,575.689 382.671,575.525 380.917,575.343 379.164,575.143 377.414,574.926 375.666,574.691 373.92,574.439 
  372.177,574.17 370.437,573.883 368.7,573.578 366.965,573.257 365.234,572.918 363.507,572.561 361.783,572.188 360.063,571.797 358.347,571.389 356.636,570.964 
  354.928,570.522 353.225,570.063 351.527,569.586 349.834,569.093 348.145,568.583 346.462,568.056 344.784,567.512 343.112,566.952 341.445,566.375 339.784,565.781 
  338.13,565.17 336.481,564.543 334.839,563.9 333.203,563.24 331.574,562.564 329.952,561.872 328.337,561.163 326.729,560.438 325.128,559.698 323.535,558.941 
  321.949,558.168 320.371,557.38 318.802,556.576 317.24,555.756 315.687,554.921 314.142,554.07 312.605,553.204 311.078,552.322 309.559,551.425 308.049,550.513 
  306.549,549.586 305.057,548.644 303.576,547.687 302.104,546.716 300.641,545.729 299.189,544.729 297.747,543.713 296.315,542.684 294.893,541.64 293.482,540.581 
  292.082,539.509 290.692,538.423 289.313,537.323 287.946,536.209 286.589,535.082 285.244,533.941 283.91,532.787 282.588,531.619 281.278,530.439 279.98,529.245 
  278.693,528.038 277.419,526.819 276.157,525.587 274.907,524.342 273.67,523.085 272.446,521.816 271.234,520.534 270.035,519.24 268.849,517.935 267.676,516.617 
  266.517,515.288 265.371,513.948 264.238,512.596 263.119,511.233 262.013,509.858 260.922,508.473 259.844,507.077 258.78,505.67 257.73,504.252 256.695,502.824 
  255.674,501.386 254.667,499.938 253.675,498.48 252.698,497.012 251.735,495.534 250.787,494.046 249.854,492.549 248.936,491.043 248.033,489.528 247.146,488.004 
  246.273,486.471 245.416,484.93 244.575,483.38 243.749,481.821 242.938,480.255 242.144,478.68 241.365,477.098 240.602,475.507 239.855,473.91 239.124,472.304 
  238.409,470.692 237.71,469.073 237.027,467.446 236.361,465.813 235.711,464.174 235.077,462.528 234.46,460.875 233.86,459.217 233.276,457.553 232.709,455.882 
  232.158,454.207 231.625,452.526 231.108,450.839 230.608,449.148 230.125,447.452 229.659,445.75 229.21,444.045 228.778,442.335 228.363,440.62 227.966,438.902 
  227.585,437.18 227.222,435.454 226.876,433.724 226.548,431.991 226.236,430.255 225.943,428.516 225.666,426.774 225.407,425.029 225.165,423.282 224.941,421.533 
  224.735,419.781 224.546,418.028 224.374,416.272 224.22,414.515 224.084,412.757 223.965,410.997 223.864,409.236 223.78,407.474 223.715,405.712 223.666,403.949 
  223.636,402.185 223.623,400.421 223.627,398.658 223.649,396.894 223.689,395.131 223.747,393.368 223.822,391.606 223.915,389.844 224.025,388.084 224.153,386.325 
  224.299,384.567 224.462,382.811 224.642,381.056 224.841,379.304 225.056,377.553 225.289,375.805 225.54,374.059 225.808,372.316 226.094,370.575 226.397,368.838 
  226.717,367.103 227.055,365.372 227.41,363.644 227.782,361.92 228.171,360.2 228.578,358.484 229.001,356.772 229.442,355.064 229.9,353.361 230.375,351.662 
  230.867,349.968 231.376,348.279 231.901,346.596 232.444,344.918 233.003,343.245 233.579,341.578 234.171,339.916 234.78,338.261 235.406,336.612 236.048,334.969 
  236.707,333.333 237.382,331.703 238.073,330.081 238.78,328.465 239.503,326.856 240.243,325.255 240.998,323.661 241.769,322.075 242.557,320.497 243.36,318.926 
  244.178,317.364 245.012,315.81 245.862,314.264 246.727,312.727 247.607,311.199 248.503,309.679 249.414,308.169 250.339,306.668 251.28,305.176 252.236,303.693 
  253.206,302.221 254.191,300.758 255.191,299.304 256.205,297.861 257.234,296.429 258.277,295.006 259.334,293.594 260.405,292.193 261.49,290.802 262.589,289.423 
  263.701,288.054 264.828,286.697 265.967,285.351 267.121,284.016 268.287,282.693 269.467,281.382 270.659,280.083 271.865,278.795 273.083,277.52 274.315,276.257 
  275.558,275.006 276.814,273.768 278.083,272.543 279.363,271.33 280.656,270.13 281.961,268.943 283.277,267.769 284.605,266.609 285.945,265.461 287.296,264.328 
  288.658,263.207 290.032,262.101 291.416,261.008 292.812,259.929 294.218,258.864 295.634,257.813 297.061,256.777 298.499,255.755 299.946,254.747 301.404,253.754 
  302.871,252.775 304.348,251.811 305.835,250.862 307.331,249.928 308.836,249.009 310.351,248.105 311.874,247.216 313.406,246.342 314.947,245.484 316.497,244.641 
  318.054,243.814 319.62,243.002 321.194,242.206 322.776,241.426 324.366,240.662 325.963,239.914 327.567,239.181 329.179,238.465 330.798,237.765 332.424,237.081 
  334.056,236.413 335.696,235.762 337.341,235.127 338.993,234.509 340.651,233.907 342.315,233.322 343.984,232.753 345.66,232.202 347.34,231.667 349.026,231.148 
  350.717,230.647 352.413,230.163 354.114,229.695 355.819,229.245 357.529,228.812 359.243,228.396 360.961,227.997 362.683,227.615 364.409,227.25 366.138,226.903 
  367.871,226.573 369.606,226.261 371.345,225.965 373.087,225.687 374.831,225.427 376.578,225.184 378.328,224.959 380.079,224.751 381.833,224.56 383.588,224.387 
  385.345,224.232 387.103,224.094 388.863,223.974 390.624,223.871 392.385,223.786 394.148,223.719 395.911,223.669 397.674,223.637 399.438,223.623 
  "/>
<path clip-path="url(#clip810)" d="M524.31 41.5039 Q523.204 46.7915 521.769 49.8247 Q519.474 54.4565 515.58 54.4565 Q512.628 54.4565 510.538 52.653 Q508.447 50.8495 507.956 48.1442 Q502.586 54.4565 497.011 54.4565 Q492.093 54.4565 488.978 50.7265 Q485.862 46.9555 485.862 41.0121 Q485.862 35.0276 488.814 29.2891 Q491.806 23.5506 496.52 19.9846 Q501.233 16.4185 506.07 16.4185 Q511.194 16.4185 513.817 21.7881 Q514.022 20.3125 514.965 19.2058 Q515.908 18.099 517.342 18.099 Q518.449 18.099 519.105 18.7139 Q519.761 19.2877 519.761 20.3535 Q519.761 20.8863 519.187 23.2227 L516.153 34.9456 L514.309 42.5287 Q513.612 45.3159 513.407 46.3407 Q513.243 47.3654 513.243 48.718 Q513.243 52.571 515.744 52.571 Q516.973 52.571 517.957 51.7922 Q518.941 51.0134 519.72 49.3739 Q520.498 47.7343 520.99 46.2177 Q521.482 44.6601 522.138 42.2007 Q522.343 41.217 522.507 40.9711 Q522.712 40.6841 523.286 40.6841 Q524.31 40.6841 524.31 41.5039 M512.792 25.6411 Q512.792 25.2722 512.505 24.2474 Q512.218 23.2227 511.563 21.7881 Q510.907 20.3535 509.472 19.3287 Q508.079 18.263 506.193 18.263 Q503.652 18.263 500.987 20.4354 Q498.364 22.6079 496.438 26.2969 Q494.962 29.2481 493.363 35.4375 Q491.806 41.6269 491.806 44.7011 Q491.806 46.5866 492.216 48.2672 Q492.667 49.9067 493.937 51.2594 Q495.208 52.571 497.175 52.571 Q501.971 52.571 506.685 46.6276 Q507.587 45.6029 507.792 45.193 Q508.038 44.7421 508.365 43.5124 L512.546 27.0757 Q512.792 25.846 512.792 25.6411 Z" fill="#000000" fill-rule="evenodd" fill-opacity="1" /><path clip-path="url(#clip810)" d="M532.901 44.1673 L532.901 42.3309 Q539.959 42.3309 543.603 38.5722 Q544.607 38.5722 544.779 38.8018 Q544.951 39.0313 544.951 40.0929 L544.951 73.0606 Q544.951 74.8108 545.812 75.356 Q546.673 75.9012 550.432 75.9012 L552.297 75.9012 L552.297 77.7088 Q550.231 77.5366 542.771 77.5366 Q535.311 77.5366 533.274 77.7088 L533.274 75.9012 L535.139 75.9012 Q538.84 75.9012 539.729 75.3847 Q540.619 74.8395 540.619 73.0606 L540.619 42.6179 Q537.549 44.1673 532.901 44.1673 Z" fill="#000000" fill-rule="evenodd" fill-opacity="1" /><path clip-path="url(#clip810)" d="M698.67 306.071 Q697.564 311.358 696.129 314.392 Q693.834 319.023 689.94 319.023 Q686.988 319.023 684.898 317.22 Q682.807 315.416 682.316 312.711 Q676.946 319.023 671.371 319.023 Q666.453 319.023 663.338 315.293 Q660.222 311.522 660.222 305.579 Q660.222 299.595 663.174 293.856 Q666.166 288.118 670.88 284.551 Q675.593 280.985 680.43 280.985 Q685.554 280.985 688.177 286.355 Q688.382 284.879 689.325 283.773 Q690.268 282.666 691.702 282.666 Q692.809 282.666 693.465 283.281 Q694.12 283.855 694.12 284.92 Q694.12 285.453 693.547 287.79 L690.513 299.513 L688.669 307.096 Q687.972 309.883 687.767 310.908 Q687.603 311.932 687.603 313.285 Q687.603 317.138 690.104 317.138 Q691.333 317.138 692.317 316.359 Q693.301 315.58 694.08 313.941 Q694.858 312.301 695.35 310.785 Q695.842 309.227 696.498 306.768 Q696.703 305.784 696.867 305.538 Q697.072 305.251 697.646 305.251 Q698.67 305.251 698.67 306.071 M687.152 290.208 Q687.152 289.839 686.865 288.814 Q686.578 287.79 685.923 286.355 Q685.267 284.92 683.832 283.896 Q682.439 282.83 680.553 282.83 Q678.012 282.83 675.347 285.002 Q672.724 287.175 670.798 290.864 Q669.322 293.815 667.723 300.004 Q666.166 306.194 666.166 309.268 Q666.166 311.154 666.576 312.834 Q667.027 314.474 668.297 315.826 Q669.568 317.138 671.535 317.138 Q676.331 317.138 681.045 311.195 Q681.947 310.17 682.152 309.76 Q682.398 309.309 682.725 308.079 L686.906 291.643 Q687.152 290.413 687.152 290.208 Z" fill="#000000" fill-rule="evenodd" fill-opacity="1" /><path clip-path="url(#clip810)" d="M707.26 342.276 Q707.26 341.214 707.347 340.898 Q707.461 340.583 707.92 340.095 L719.197 327.528 Q725.365 320.584 725.365 314.53 Q725.365 310.599 723.3 307.787 Q721.262 304.975 717.504 304.975 Q714.921 304.975 712.741 306.554 Q710.56 308.132 709.556 310.944 Q709.728 310.886 710.331 310.886 Q711.794 310.886 712.597 311.804 Q713.429 312.722 713.429 313.956 Q713.429 315.534 712.396 316.309 Q711.392 317.055 710.388 317.055 Q709.986 317.055 709.441 316.969 Q708.925 316.883 708.093 316.079 Q707.26 315.247 707.26 313.784 Q707.26 309.681 710.359 306.41 Q713.487 303.139 718.25 303.139 Q723.644 303.139 727.173 306.353 Q730.731 309.538 730.731 314.53 Q730.731 316.28 730.186 317.887 Q729.669 319.465 728.952 320.699 Q728.263 321.933 726.37 323.913 Q724.476 325.892 722.955 327.298 Q721.435 328.704 718.02 331.688 L711.794 337.742 L722.381 337.742 Q727.546 337.742 727.948 337.283 Q728.522 336.451 729.239 332.061 L730.731 332.061 L729.067 342.276 L707.26 342.276 Z" fill="#000000" fill-rule="evenodd" fill-opacity="1" /><path clip-path="url(#clip810)" d="
M847.244 752.756 L1552.76 752.756 L1552.76 47.2441 L847.244 47.2441  Z
  " fill="#ffffff" fill-rule="evenodd" fill-opacity="1"/>
<defs>
  <clipPath id="clip813">
    <rect x="847" y="47" width="707" height="707"/>
  </clipPath>
</defs>
<polyline clip-path="url(#clip813)" style="stroke:#ff0000; stroke-linecap:round; stroke-linejoin:round; stroke-width:4; stroke-opacity:1; fill:none" points="
  1200,400 1288.19,47.2441 
  "/>
<polyline clip-path="url(#clip813)" style="stroke:#ff0000; stroke-linecap:round; stroke-linejoin:round; stroke-width:4; stroke-opacity:1; fill:none" points="
  1262,77.8036 1288.19,47.2441 1296.92,86.5349 
  "/>
<polyline clip-path="url(#clip813)" style="stroke:#ff0000; stroke-linecap:round; stroke-linejoin:round; stroke-width:4; stroke-opacity:1; fill:none" points="
  1288.19,47.2441 1200,400 
  "/>
<polyline clip-path="url(#clip813)" style="stroke:#800080; stroke-linecap:round; stroke-linejoin:round; stroke-width:4; stroke-opacity:1; fill:none" points="
  1200,400 1464.57,311.811 
  "/>
<polyline clip-path="url(#clip813)" style="stroke:#800080; stroke-linecap:round; stroke-linejoin:round; stroke-width:4; stroke-opacity:1; fill:none" points="
  1424.72,306.119 1464.57,311.811 1436.11,340.272 
  "/>
<polyline clip-path="url(#clip813)" style="stroke:#800080; stroke-linecap:round; stroke-linejoin:round; stroke-width:4; stroke-opacity:1; fill:none" points="
  1464.57,311.811 1200,400 
  "/>
<polyline clip-path="url(#clip813)" style="stroke:#808080; stroke-linecap:round; stroke-linejoin:round; stroke-width:4; stroke-opacity:1; fill:none" points="
  1200,223.622 1201.76,223.631 1203.53,223.657 1205.29,223.701 1207.05,223.763 1208.82,223.842 1210.58,223.939 1212.34,224.054 1214.1,224.186 1215.85,224.336 
  1217.61,224.503 1219.36,224.688 1221.11,224.89 1222.86,225.11 1224.61,225.348 1226.36,225.603 1228.1,225.875 1229.84,226.165 1231.58,226.472 1233.31,226.796 
  1235.04,227.138 1236.77,227.497 1238.49,227.873 1240.21,228.267 1241.93,228.677 1243.64,229.105 1245.34,229.55 1247.05,230.012 1248.74,230.491 1250.44,230.987 
  1252.12,231.5 1253.81,232.029 1255.48,232.576 1257.15,233.139 1258.82,233.719 1260.48,234.315 1262.13,234.928 1263.78,235.558 1265.42,236.204 1267.06,236.866 
  1268.68,237.545 1270.31,238.24 1271.92,238.951 1273.53,239.678 1275.13,240.422 1276.72,241.181 1278.3,241.956 1279.88,242.747 1281.45,243.554 1283.01,244.376 
  1284.56,245.214 1286.1,246.067 1287.64,246.936 1289.16,247.82 1290.68,248.719 1292.19,249.633 1293.69,250.563 1295.18,251.507 1296.66,252.466 1298.13,253.44 
  1299.59,254.429 1301.04,255.432 1302.48,256.45 1303.91,257.482 1305.33,258.528 1306.74,259.588 1308.14,260.663 1309.53,261.751 1310.91,262.853 1312.27,263.969 
  1313.63,265.099 1314.97,266.242 1316.3,267.398 1317.62,268.568 1318.93,269.75 1320.23,270.946 1321.51,272.155 1322.78,273.376 1324.04,274.611 1325.29,275.857 
  1326.53,277.116 1327.75,278.388 1328.96,279.671 1330.15,280.967 1331.34,282.274 1332.51,283.594 1333.67,284.924 1334.81,286.267 1335.94,287.621 1337.06,288.986 
  1338.16,290.362 1339.25,291.749 1340.33,293.147 1341.39,294.555 1342.44,295.974 1343.47,297.404 1344.49,298.844 1345.49,300.294 1346.48,301.754 1347.46,303.223 
  1348.42,304.703 1349.36,306.191 1350.29,307.69 1351.21,309.197 1352.11,310.714 1352.99,312.239 1353.86,313.774 1354.72,315.317 1355.56,316.868 1356.38,318.428 
  1357.19,319.996 1357.98,321.572 1358.76,323.155 1359.52,324.747 1360.26,326.346 1360.99,327.952 1361.7,329.565 1362.4,331.186 1363.08,332.813 1363.74,334.447 
  1364.39,336.088 1365.02,337.735 1365.64,339.388 1366.23,341.048 1366.82,342.713 1367.38,344.384 1367.93,346.061 1368.46,347.743 1368.97,349.43 1369.47,351.122 
  1369.95,352.819 1370.41,354.521 1370.86,356.227 1371.29,357.938 1371.7,359.653 1372.1,361.372 1372.47,363.095 1372.83,364.821 1373.18,366.552 1373.5,368.285 
  1373.81,370.022 1374.1,371.761 1374.38,373.504 1374.63,375.249 1374.87,376.996 1375.09,378.746 1375.3,380.498 1375.48,382.252 1375.65,384.008 1375.8,385.765 
  1375.94,387.524 1376.05,389.283 1376.15,391.045 1376.23,392.806 1376.29,394.569 1376.34,396.332 1376.37,398.096 1376.38,399.86 1376.37,401.623 1376.35,403.387 
  1376.3,405.15 1376.24,406.913 1376.16,408.675 1376.07,410.436 1375.96,412.196 1375.83,413.955 1375.68,415.713 1375.51,417.469 1375.33,419.223 1375.13,420.975 
  1374.91,422.725 1374.67,424.473 1374.42,426.219 1374.15,427.962 1373.86,429.702 1373.55,431.439 1373.23,433.173 1372.89,434.903 1372.53,436.63 1372.16,438.354 
  1371.77,440.073 1371.36,441.789 1370.93,443.501 1370.49,445.208 1370.03,446.91 1369.55,448.608 1369.05,450.301 1368.54,451.989 1368.01,453.672 1367.47,455.349 
  1366.91,457.021 1366.33,458.687 1365.73,460.348 1365.12,462.002 1364.49,463.65 1363.85,465.292 1363.19,466.927 1362.51,468.555 1361.82,470.177 1361.11,471.792 
  1360.38,473.399 1359.64,474.999 1358.88,476.592 1358.11,478.177 1357.32,479.754 1356.51,481.323 1355.69,482.884 1354.85,484.437 1354,485.981 1353.13,487.517 
  1352.25,489.044 1351.35,490.562 1350.44,492.071 1349.51,493.571 1348.57,495.061 1347.61,496.542 1346.64,498.013 1345.65,499.475 1344.65,500.926 1343.63,502.367 
  1342.6,503.799 1341.56,505.219 1340.5,506.63 1339.42,508.029 1338.34,509.418 1337.23,510.796 1336.12,512.163 1334.99,513.518 1333.85,514.863 1332.69,516.195 
  1331.53,517.516 1330.34,518.826 1329.15,520.123 1327.94,521.409 1326.72,522.682 1325.49,523.943 1324.24,525.192 1322.98,526.428 1321.71,527.651 1320.43,528.862 
  1319.14,530.06 1317.83,531.245 1316.51,532.417 1315.18,533.575 1313.84,534.72 1312.49,535.852 1311.12,536.97 1309.75,538.074 1308.36,539.165 1306.97,540.241 
  1305.56,541.304 1304.14,542.353 1302.71,543.387 1301.27,544.407 1299.82,545.412 1298.36,546.403 1296.89,547.379 1295.42,548.341 1293.93,549.288 1292.43,550.22 
  1290.92,551.136 1289.41,552.038 1287.88,552.924 1286.35,553.796 1284.81,554.651 1283.26,555.492 1281.7,556.316 1280.13,557.126 1278.55,557.919 1276.97,558.697 
  1275.38,559.458 1273.78,560.204 1272.18,560.934 1270.56,561.648 1268.94,562.345 1267.32,563.027 1265.68,563.692 1264.04,564.34 1262.4,564.972 1260.74,565.588 
  1259.08,566.187 1257.42,566.77 1255.75,567.336 1254.07,567.885 1252.39,568.417 1250.7,568.933 1249.01,569.431 1247.32,569.913 1245.61,570.377 1243.91,570.825 
  1242.2,571.256 1240.48,571.669 1238.76,572.065 1237.04,572.444 1235.32,572.806 1233.59,573.151 1231.85,573.478 1230.12,573.788 1228.38,574.08 1226.64,574.355 
  1224.89,574.613 1223.14,574.853 1221.39,575.076 1219.64,575.281 1217.89,575.469 1216.13,575.639 1214.38,575.791 1212.62,575.926 1210.86,576.043 1209.1,576.143 
  1207.33,576.225 1205.57,576.29 1203.81,576.337 1202.04,576.366 1200.28,576.378 1198.52,576.372 1196.75,576.348 1194.99,576.307 1193.23,576.248 1191.47,576.171 
  1189.7,576.077 1187.94,575.965 1186.18,575.836 1184.43,575.689 1182.67,575.525 1180.92,575.343 1179.16,575.143 1177.41,574.926 1175.67,574.691 1173.92,574.439 
  1172.18,574.17 1170.44,573.883 1168.7,573.578 1166.97,573.257 1165.23,572.918 1163.51,572.561 1161.78,572.188 1160.06,571.797 1158.35,571.389 1156.64,570.964 
  1154.93,570.522 1153.23,570.063 1151.53,569.586 1149.83,569.093 1148.15,568.583 1146.46,568.056 1144.78,567.512 1143.11,566.952 1141.45,566.375 1139.78,565.781 
  1138.13,565.17 1136.48,564.543 1134.84,563.9 1133.2,563.24 1131.57,562.564 1129.95,561.872 1128.34,561.163 1126.73,560.438 1125.13,559.698 1123.53,558.941 
  1121.95,558.168 1120.37,557.38 1118.8,556.576 1117.24,555.756 1115.69,554.921 1114.14,554.07 1112.61,553.204 1111.08,552.322 1109.56,551.425 1108.05,550.513 
  1106.55,549.586 1105.06,548.644 1103.58,547.687 1102.1,546.716 1100.64,545.729 1099.19,544.729 1097.75,543.713 1096.31,542.684 1094.89,541.64 1093.48,540.581 
  1092.08,539.509 1090.69,538.423 1089.31,537.323 1087.95,536.209 1086.59,535.082 1085.24,533.941 1083.91,532.787 1082.59,531.619 1081.28,530.439 1079.98,529.245 
  1078.69,528.038 1077.42,526.819 1076.16,525.587 1074.91,524.342 1073.67,523.085 1072.45,521.816 1071.23,520.534 1070.03,519.24 1068.85,517.935 1067.68,516.617 
  1066.52,515.288 1065.37,513.948 1064.24,512.596 1063.12,511.233 1062.01,509.858 1060.92,508.473 1059.84,507.077 1058.78,505.67 1057.73,504.252 1056.7,502.824 
  1055.67,501.386 1054.67,499.938 1053.68,498.48 1052.7,497.012 1051.74,495.534 1050.79,494.046 1049.85,492.549 1048.94,491.043 1048.03,489.528 1047.15,488.004 
  1046.27,486.471 1045.42,484.93 1044.57,483.38 1043.75,481.821 1042.94,480.255 1042.14,478.68 1041.36,477.098 1040.6,475.507 1039.85,473.91 1039.12,472.304 
  1038.41,470.692 1037.71,469.073 1037.03,467.446 1036.36,465.813 1035.71,464.174 1035.08,462.528 1034.46,460.875 1033.86,459.217 1033.28,457.553 1032.71,455.882 
  1032.16,454.207 1031.62,452.526 1031.11,450.839 1030.61,449.148 1030.12,447.452 1029.66,445.75 1029.21,444.045 1028.78,442.335 1028.36,440.62 1027.97,438.902 
  1027.59,437.18 1027.22,435.454 1026.88,433.724 1026.55,431.991 1026.24,430.255 1025.94,428.516 1025.67,426.774 1025.41,425.029 1025.17,423.282 1024.94,421.533 
  1024.73,419.781 1024.55,418.028 1024.37,416.272 1024.22,414.515 1024.08,412.757 1023.97,410.997 1023.86,409.236 1023.78,407.474 1023.71,405.712 1023.67,403.949 
  1023.64,402.185 1023.62,400.421 1023.63,398.658 1023.65,396.894 1023.69,395.131 1023.75,393.368 1023.82,391.606 1023.91,389.844 1024.03,388.084 1024.15,386.325 
  1024.3,384.567 1024.46,382.811 1024.64,381.056 1024.84,379.304 1025.06,377.553 1025.29,375.805 1025.54,374.059 1025.81,372.316 1026.09,370.575 1026.4,368.838 
  1026.72,367.103 1027.05,365.372 1027.41,363.644 1027.78,361.92 1028.17,360.2 1028.58,358.484 1029,356.772 1029.44,355.064 1029.9,353.361 1030.38,351.662 
  1030.87,349.968 1031.38,348.279 1031.9,346.596 1032.44,344.918 1033,343.245 1033.58,341.578 1034.17,339.916 1034.78,338.261 1035.41,336.612 1036.05,334.969 
  1036.71,333.333 1037.38,331.703 1038.07,330.081 1038.78,328.465 1039.5,326.856 1040.24,325.255 1041,323.661 1041.77,322.075 1042.56,320.497 1043.36,318.926 
  1044.18,317.364 1045.01,315.81 1045.86,314.264 1046.73,312.727 1047.61,311.199 1048.5,309.679 1049.41,308.169 1050.34,306.668 1051.28,305.176 1052.24,303.693 
  1053.21,302.221 1054.19,300.758 1055.19,299.304 1056.21,297.861 1057.23,296.429 1058.28,295.006 1059.33,293.594 1060.4,292.193 1061.49,290.802 1062.59,289.423 
  1063.7,288.054 1064.83,286.697 1065.97,285.351 1067.12,284.016 1068.29,282.693 1069.47,281.382 1070.66,280.083 1071.86,278.795 1073.08,277.52 1074.31,276.257 
  1075.56,275.006 1076.81,273.768 1078.08,272.543 1079.36,271.33 1080.66,270.13 1081.96,268.943 1083.28,267.769 1084.61,266.609 1085.95,265.461 1087.3,264.328 
  1088.66,263.207 1090.03,262.101 1091.42,261.008 1092.81,259.929 1094.22,258.864 1095.63,257.813 1097.06,256.777 1098.5,255.755 1099.95,254.747 1101.4,253.754 
  1102.87,252.775 1104.35,251.811 1105.83,250.862 1107.33,249.928 1108.84,249.009 1110.35,248.105 1111.87,247.216 1113.41,246.342 1114.95,245.484 1116.5,244.641 
  1118.05,243.814 1119.62,243.002 1121.19,242.206 1122.78,241.426 1124.37,240.662 1125.96,239.914 1127.57,239.181 1129.18,238.465 1130.8,237.765 1132.42,237.081 
  1134.06,236.413 1135.7,235.762 1137.34,235.127 1138.99,234.509 1140.65,233.907 1142.31,233.322 1143.98,232.753 1145.66,232.202 1147.34,231.667 1149.03,231.148 
  1150.72,230.647 1152.41,230.163 1154.11,229.695 1155.82,229.245 1157.53,228.812 1159.24,228.396 1160.96,227.997 1162.68,227.615 1164.41,227.25 1166.14,226.903 
  1167.87,226.573 1169.61,226.261 1171.35,225.965 1173.09,225.687 1174.83,225.427 1176.58,225.184 1178.33,224.959 1180.08,224.751 1181.83,224.56 1183.59,224.387 
  1185.34,224.232 1187.1,224.094 1188.86,223.974 1190.62,223.871 1192.39,223.786 1194.15,223.719 1195.91,223.669 1197.67,223.637 1199.44,223.623 
  "/>
<path clip-path="url(#clip810)" d="M1322.05 -0.573069 Q1322.05 -0.515684 1321.99 -0.458299 Q1321.62 2.58311 1320.9 4.27596 Q1320.18 5.94013 1318.58 6.71482 Q1317.4 7.28867 1315.94 7.28867 Q1313.73 7.28867 1310.54 5.82536 Q1310.43 5.76797 1309.8 5.48105 Q1309.17 5.19412 1308.94 5.10805 Q1308.71 5.02197 1308.22 4.84981 Q1307.73 4.64897 1307.36 4.59158 Q1306.99 4.5342 1306.61 4.5342 Q1305.81 4.5342 1305.12 4.87851 Q1303.72 5.56713 1302.85 6.60005 Q1301.97 7.60429 1301.74 9.41192 Q1301.68 9.64146 1301.48 9.81361 Q1301.28 9.98577 1301.02 9.98577 Q1300.76 9.98577 1300.53 9.78492 Q1300.3 9.58407 1300.3 9.29715 Q1300.3 9.23976 1300.36 9.18238 Q1300.73 6.14098 1301.45 4.47681 Q1302.17 2.78395 1303.77 2.00926 Q1305.04 1.40671 1306.41 1.40671 Q1308.56 1.40671 1311.84 2.89872 Q1311.95 2.95611 1312.58 3.24303 Q1313.21 3.52996 1313.44 3.61604 Q1313.67 3.70211 1314.16 3.90296 Q1314.65 4.07512 1315.02 4.1325 Q1315.39 4.18989 1315.77 4.18989 Q1316.48 4.18989 1317.23 3.81688 Q1318.64 3.12826 1319.52 2.12403 Q1320.41 1.11979 1320.64 -0.687839 Q1320.7 -0.917379 1320.9 -1.08953 Q1321.1 -1.29038 1321.36 -1.29038 Q1321.62 -1.29038 1321.85 -1.06084 Q1322.05 -0.859994 1322.05 -0.573069 Z" fill="#000000" fill-rule="evenodd" fill-opacity="1" /><path clip-path="url(#clip810)" d="M1321.96 19.7979 L1310.36 66.4847 Q1310.03 67.9603 1310.03 68.3292 Q1310.03 68.8211 1310.15 69.026 Q1310.32 69.272 1311.22 69.4769 Q1312.16 69.6819 1314.05 69.6819 Q1314.74 69.6819 1314.99 69.6819 Q1315.23 69.6819 1315.6 69.7638 Q1315.97 69.8458 1316.09 70.0508 Q1316.22 70.2557 1316.22 70.5836 Q1316.22 72.2642 1314.74 72.2642 Q1313.35 72.2642 1310.44 72.1412 Q1307.53 72.0182 1306.09 72.0182 Q1304.7 72.0182 1301.87 72.1412 Q1299.04 72.2642 1297.69 72.2642 Q1297.2 72.2642 1296.91 72.0182 Q1296.62 71.8133 1296.62 71.5674 L1296.58 71.3624 Q1296.58 70.2147 1297.03 69.9278 Q1297.49 69.6819 1298.51 69.6819 Q1302.04 69.6409 1303.06 69.149 Q1304.09 68.6571 1304.58 66.8946 L1308.35 51.8925 Q1303.31 56.9342 1298.43 56.9342 Q1293.71 56.9342 1290.52 53.2452 Q1287.36 49.5151 1287.36 43.4897 Q1287.36 39.0219 1289.12 34.5131 Q1290.93 30.0042 1293.71 26.6021 Q1296.54 23.2 1300.23 21.0686 Q1303.92 18.8961 1307.57 18.8961 Q1309.91 18.8961 1312 20.2488 Q1314.13 21.6014 1315.4 24.7576 Q1316.46 22.9541 1318.43 20.9866 Q1320.4 18.9781 1321.1 18.9781 Q1321.51 18.9781 1321.71 19.265 Q1321.96 19.511 1321.96 19.7979 M1314.21 28.1187 Q1314.21 27.7088 1313.88 26.6841 Q1313.59 25.6594 1312.94 24.2657 Q1312.32 22.8311 1310.89 21.8064 Q1309.45 20.7407 1307.57 20.7407 Q1304.86 20.7407 1301.95 23.364 Q1299.08 25.9463 1297.2 30.4551 Q1296.01 33.4063 1294.66 38.8989 Q1293.3 44.3915 1293.3 47.1787 Q1293.3 47.8346 1293.35 48.5724 Q1293.43 49.3102 1293.76 50.5399 Q1294.08 51.7695 1294.58 52.7123 Q1295.11 53.655 1296.17 54.3519 Q1297.24 55.0487 1298.67 55.0487 Q1301.79 55.0487 1304.9 52.3844 Q1308.02 49.7201 1309.33 47.3427 Q1309.5 47.0968 1311.83 37.7922 Q1314.21 28.4876 1314.21 28.1187 Z" fill="#000000" fill-rule="evenodd" fill-opacity="1" /><path clip-path="url(#clip810)" d="M1335.4 61.8168 L1335.4 59.9805 Q1342.46 59.9805 1346.1 56.2218 Q1347.11 56.2218 1347.28 56.4513 Q1347.45 56.6808 1347.45 57.7425 L1347.45 90.7101 Q1347.45 92.4604 1348.31 93.0055 Q1349.17 93.5507 1352.93 93.5507 L1354.8 93.5507 L1354.8 95.3583 Q1352.73 95.1862 1345.27 95.1862 Q1337.81 95.1862 1335.77 95.3583 L1335.77 93.5507 L1337.64 93.5507 Q1341.34 93.5507 1342.23 93.0342 Q1343.12 92.4891 1343.12 90.7101 L1343.12 60.2674 Q1340.05 61.8168 1335.4 61.8168 Z" fill="#000000" fill-rule="evenodd" fill-opacity="1" /><path clip-path="url(#clip810)" d="M1498.67 306.071 Q1497.56 311.358 1496.13 314.392 Q1493.83 319.023 1489.94 319.023 Q1486.99 319.023 1484.9 317.22 Q1482.81 315.416 1482.32 312.711 Q1476.95 319.023 1471.37 319.023 Q1466.45 319.023 1463.34 315.293 Q1460.22 311.522 1460.22 305.579 Q1460.22 299.595 1463.17 293.856 Q1466.17 288.118 1470.88 284.551 Q1475.59 280.985 1480.43 280.985 Q1485.55 280.985 1488.18 286.355 Q1488.38 284.879 1489.32 283.773 Q1490.27 282.666 1491.7 282.666 Q1492.81 282.666 1493.46 283.281 Q1494.12 283.855 1494.12 284.92 Q1494.12 285.453 1493.55 287.79 L1490.51 299.513 L1488.67 307.096 Q1487.97 309.883 1487.77 310.908 Q1487.6 311.932 1487.6 313.285 Q1487.6 317.138 1490.1 317.138 Q1491.33 317.138 1492.32 316.359 Q1493.3 315.58 1494.08 313.941 Q1494.86 312.301 1495.35 310.785 Q1495.84 309.227 1496.5 306.768 Q1496.7 305.784 1496.87 305.538 Q1497.07 305.251 1497.65 305.251 Q1498.67 305.251 1498.67 306.071 M1487.15 290.208 Q1487.15 289.839 1486.87 288.814 Q1486.58 287.79 1485.92 286.355 Q1485.27 284.92 1483.83 283.896 Q1482.44 282.83 1480.55 282.83 Q1478.01 282.83 1475.35 285.002 Q1472.72 287.175 1470.8 290.864 Q1469.32 293.815 1467.72 300.004 Q1466.17 306.194 1466.17 309.268 Q1466.17 311.154 1466.58 312.834 Q1467.03 314.474 1468.3 315.826 Q1469.57 317.138 1471.54 317.138 Q1476.33 317.138 1481.04 311.195 Q1481.95 310.17 1482.15 309.76 Q1482.4 309.309 1482.73 308.079 L1486.91 291.643 Q1487.15 290.413 1487.15 290.208 Z" fill="#000000" fill-rule="evenodd" fill-opacity="1" /><path clip-path="url(#clip810)" d="M1507.26 342.276 Q1507.26 341.214 1507.35 340.898 Q1507.46 340.583 1507.92 340.095 L1519.2 327.528 Q1525.37 320.584 1525.37 314.53 Q1525.37 310.599 1523.3 307.787 Q1521.26 304.975 1517.5 304.975 Q1514.92 304.975 1512.74 306.554 Q1510.56 308.132 1509.56 310.944 Q1509.73 310.886 1510.33 310.886 Q1511.79 310.886 1512.6 311.804 Q1513.43 312.722 1513.43 313.956 Q1513.43 315.534 1512.4 316.309 Q1511.39 317.055 1510.39 317.055 Q1509.99 317.055 1509.44 316.969 Q1508.92 316.883 1508.09 316.079 Q1507.26 315.247 1507.26 313.784 Q1507.26 309.681 1510.36 306.41 Q1513.49 303.139 1518.25 303.139 Q1523.64 303.139 1527.17 306.353 Q1530.73 309.538 1530.73 314.53 Q1530.73 316.28 1530.19 317.887 Q1529.67 319.465 1528.95 320.699 Q1528.26 321.933 1526.37 323.913 Q1524.48 325.892 1522.96 327.298 Q1521.43 328.704 1518.02 331.688 L1511.79 337.742 L1522.38 337.742 Q1527.55 337.742 1527.95 337.283 Q1528.52 336.451 1529.24 332.061 L1530.73 332.061 L1529.07 342.276 L1507.26 342.276 Z" fill="#000000" fill-rule="evenodd" fill-opacity="1" /><path clip-path="url(#clip810)" d="
M1647.24 752.756 L2352.76 752.756 L2352.76 47.2441 L1647.24 47.2441  Z
  " fill="#ffffff" fill-rule="evenodd" fill-opacity="1"/>
<defs>
  <clipPath id="clip814">
    <rect x="1647" y="47" width="707" height="707"/>
  </clipPath>
</defs>
<polyline clip-path="url(#clip814)" style="stroke:#008000; stroke-linecap:round; stroke-linejoin:round; stroke-width:4; stroke-opacity:1; fill:none" points="
  2000,400 2042.78,228.888 
  "/>
<polyline clip-path="url(#clip814)" style="stroke:#008000; stroke-linecap:round; stroke-linejoin:round; stroke-width:4; stroke-opacity:1; fill:none" points="
  2016.58,259.448 2042.78,228.888 2051.51,268.179 
  "/>
<polyline clip-path="url(#clip814)" style="stroke:#008000; stroke-linecap:round; stroke-linejoin:round; stroke-width:4; stroke-opacity:1; fill:none" points="
  2042.78,228.888 2000,400 
  "/>
<polyline clip-path="url(#clip814)" style="stroke:#800080; stroke-linecap:round; stroke-linejoin:round; stroke-width:4; stroke-opacity:1; fill:none" points="
  2000,400 2264.57,311.811 
  "/>
<polyline clip-path="url(#clip814)" style="stroke:#800080; stroke-linecap:round; stroke-linejoin:round; stroke-width:4; stroke-opacity:1; fill:none" points="
  2224.72,306.119 2264.57,311.811 2236.11,340.272 
  "/>
<polyline clip-path="url(#clip814)" style="stroke:#800080; stroke-linecap:round; stroke-linejoin:round; stroke-width:4; stroke-opacity:1; fill:none" points="
  2264.57,311.811 2000,400 
  "/>
<polyline clip-path="url(#clip814)" style="stroke:#808080; stroke-linecap:round; stroke-linejoin:round; stroke-width:4; stroke-opacity:1; fill:none" points="
  2000,223.622 2001.76,223.631 2003.53,223.657 2005.29,223.701 2007.05,223.763 2008.82,223.842 2010.58,223.939 2012.34,224.054 2014.1,224.186 2015.85,224.336 
  2017.61,224.503 2019.36,224.688 2021.11,224.89 2022.86,225.11 2024.61,225.348 2026.36,225.603 2028.1,225.875 2029.84,226.165 2031.58,226.472 2033.31,226.796 
  2035.04,227.138 2036.77,227.497 2038.49,227.873 2040.21,228.267 2041.93,228.677 2043.64,229.105 2045.34,229.55 2047.05,230.012 2048.74,230.491 2050.44,230.987 
  2052.12,231.5 2053.81,232.029 2055.48,232.576 2057.15,233.139 2058.82,233.719 2060.48,234.315 2062.13,234.928 2063.78,235.558 2065.42,236.204 2067.06,236.866 
  2068.68,237.545 2070.31,238.24 2071.92,238.951 2073.53,239.678 2075.13,240.422 2076.72,241.181 2078.3,241.956 2079.88,242.747 2081.45,243.554 2083.01,244.376 
  2084.56,245.214 2086.1,246.067 2087.64,246.936 2089.16,247.82 2090.68,248.719 2092.19,249.633 2093.69,250.563 2095.18,251.507 2096.66,252.466 2098.13,253.44 
  2099.59,254.429 2101.04,255.432 2102.48,256.45 2103.91,257.482 2105.33,258.528 2106.74,259.588 2108.14,260.663 2109.53,261.751 2110.91,262.853 2112.27,263.969 
  2113.63,265.099 2114.97,266.242 2116.3,267.398 2117.62,268.568 2118.93,269.75 2120.23,270.946 2121.51,272.155 2122.78,273.376 2124.04,274.611 2125.29,275.857 
  2126.53,277.116 2127.75,278.388 2128.96,279.671 2130.15,280.967 2131.34,282.274 2132.51,283.594 2133.67,284.924 2134.81,286.267 2135.94,287.621 2137.06,288.986 
  2138.16,290.362 2139.25,291.749 2140.33,293.147 2141.39,294.555 2142.44,295.974 2143.47,297.404 2144.49,298.844 2145.49,300.294 2146.48,301.754 2147.46,303.223 
  2148.42,304.703 2149.36,306.191 2150.29,307.69 2151.21,309.197 2152.11,310.714 2152.99,312.239 2153.86,313.774 2154.72,315.317 2155.56,316.868 2156.38,318.428 
  2157.19,319.996 2157.98,321.572 2158.76,323.155 2159.52,324.747 2160.26,326.346 2160.99,327.952 2161.7,329.565 2162.4,331.186 2163.08,332.813 2163.74,334.447 
  2164.39,336.088 2165.02,337.735 2165.64,339.388 2166.23,341.048 2166.82,342.713 2167.38,344.384 2167.93,346.061 2168.46,347.743 2168.97,349.43 2169.47,351.122 
  2169.95,352.819 2170.41,354.521 2170.86,356.227 2171.29,357.938 2171.7,359.653 2172.1,361.372 2172.47,363.095 2172.83,364.821 2173.18,366.552 2173.5,368.285 
  2173.81,370.022 2174.1,371.761 2174.38,373.504 2174.63,375.249 2174.87,376.996 2175.09,378.746 2175.3,380.498 2175.48,382.252 2175.65,384.008 2175.8,385.765 
  2175.94,387.524 2176.05,389.283 2176.15,391.045 2176.23,392.806 2176.29,394.569 2176.34,396.332 2176.37,398.096 2176.38,399.86 2176.37,401.623 2176.35,403.387 
  2176.3,405.15 2176.24,406.913 2176.16,408.675 2176.07,410.436 2175.96,412.196 2175.83,413.955 2175.68,415.713 2175.51,417.469 2175.33,419.223 2175.13,420.975 
  2174.91,422.725 2174.67,424.473 2174.42,426.219 2174.15,427.962 2173.86,429.702 2173.55,431.439 2173.23,433.173 2172.89,434.903 2172.53,436.63 2172.16,438.354 
  2171.77,440.073 2171.36,441.789 2170.93,443.501 2170.49,445.208 2170.03,446.91 2169.55,448.608 2169.05,450.301 2168.54,451.989 2168.01,453.672 2167.47,455.349 
  2166.91,457.021 2166.33,458.687 2165.73,460.348 2165.12,462.002 2164.49,463.65 2163.85,465.292 2163.19,466.927 2162.51,468.555 2161.82,470.177 2161.11,471.792 
  2160.38,473.399 2159.64,474.999 2158.88,476.592 2158.11,478.177 2157.32,479.754 2156.51,481.323 2155.69,482.884 2154.85,484.437 2154,485.981 2153.13,487.517 
  2152.25,489.044 2151.35,490.562 2150.44,492.071 2149.51,493.571 2148.57,495.061 2147.61,496.542 2146.64,498.013 2145.65,499.475 2144.65,500.926 2143.63,502.367 
  2142.6,503.799 2141.56,505.219 2140.5,506.63 2139.42,508.029 2138.34,509.418 2137.23,510.796 2136.12,512.163 2134.99,513.518 2133.85,514.863 2132.69,516.195 
  2131.53,517.516 2130.34,518.826 2129.15,520.123 2127.94,521.409 2126.72,522.682 2125.49,523.943 2124.24,525.192 2122.98,526.428 2121.71,527.651 2120.43,528.862 
  2119.14,530.06 2117.83,531.245 2116.51,532.417 2115.18,533.575 2113.84,534.72 2112.49,535.852 2111.12,536.97 2109.75,538.074 2108.36,539.165 2106.97,540.241 
  2105.56,541.304 2104.14,542.353 2102.71,543.387 2101.27,544.407 2099.82,545.412 2098.36,546.403 2096.89,547.379 2095.42,548.341 2093.93,549.288 2092.43,550.22 
  2090.92,551.136 2089.41,552.038 2087.88,552.924 2086.35,553.796 2084.81,554.651 2083.26,555.492 2081.7,556.316 2080.13,557.126 2078.55,557.919 2076.97,558.697 
  2075.38,559.458 2073.78,560.204 2072.18,560.934 2070.56,561.648 2068.94,562.345 2067.32,563.027 2065.68,563.692 2064.04,564.34 2062.4,564.972 2060.74,565.588 
  2059.08,566.187 2057.42,566.77 2055.75,567.336 2054.07,567.885 2052.39,568.417 2050.7,568.933 2049.01,569.431 2047.32,569.913 2045.61,570.377 2043.91,570.825 
  2042.2,571.256 2040.48,571.669 2038.76,572.065 2037.04,572.444 2035.32,572.806 2033.59,573.151 2031.85,573.478 2030.12,573.788 2028.38,574.08 2026.64,574.355 
  2024.89,574.613 2023.14,574.853 2021.39,575.076 2019.64,575.281 2017.89,575.469 2016.13,575.639 2014.38,575.791 2012.62,575.926 2010.86,576.043 2009.1,576.143 
  2007.33,576.225 2005.57,576.29 2003.81,576.337 2002.04,576.366 2000.28,576.378 1998.52,576.372 1996.75,576.348 1994.99,576.307 1993.23,576.248 1991.47,576.171 
  1989.7,576.077 1987.94,575.965 1986.18,575.836 1984.43,575.689 1982.67,575.525 1980.92,575.343 1979.16,575.143 1977.41,574.926 1975.67,574.691 1973.92,574.439 
  1972.18,574.17 1970.44,573.883 1968.7,573.578 1966.97,573.257 1965.23,572.918 1963.51,572.561 1961.78,572.188 1960.06,571.797 1958.35,571.389 1956.64,570.964 
  1954.93,570.522 1953.23,570.063 1951.53,569.586 1949.83,569.093 1948.15,568.583 1946.46,568.056 1944.78,567.512 1943.11,566.952 1941.45,566.375 1939.78,565.781 
  1938.13,565.17 1936.48,564.543 1934.84,563.9 1933.2,563.24 1931.57,562.564 1929.95,561.872 1928.34,561.163 1926.73,560.438 1925.13,559.698 1923.53,558.941 
  1921.95,558.168 1920.37,557.38 1918.8,556.576 1917.24,555.756 1915.69,554.921 1914.14,554.07 1912.61,553.204 1911.08,552.322 1909.56,551.425 1908.05,550.513 
  1906.55,549.586 1905.06,548.644 1903.58,547.687 1902.1,546.716 1900.64,545.729 1899.19,544.729 1897.75,543.713 1896.31,542.684 1894.89,541.64 1893.48,540.581 
  1892.08,539.509 1890.69,538.423 1889.31,537.323 1887.95,536.209 1886.59,535.082 1885.24,533.941 1883.91,532.787 1882.59,531.619 1881.28,530.439 1879.98,529.245 
  1878.69,528.038 1877.42,526.819 1876.16,525.587 1874.91,524.342 1873.67,523.085 1872.45,521.816 1871.23,520.534 1870.03,519.24 1868.85,517.935 1867.68,516.617 
  1866.52,515.288 1865.37,513.948 1864.24,512.596 1863.12,511.233 1862.01,509.858 1860.92,508.473 1859.84,507.077 1858.78,505.67 1857.73,504.252 1856.7,502.824 
  1855.67,501.386 1854.67,499.938 1853.68,498.48 1852.7,497.012 1851.74,495.534 1850.79,494.046 1849.85,492.549 1848.94,491.043 1848.03,489.528 1847.15,488.004 
  1846.27,486.471 1845.42,484.93 1844.57,483.38 1843.75,481.821 1842.94,480.255 1842.14,478.68 1841.36,477.098 1840.6,475.507 1839.85,473.91 1839.12,472.304 
  1838.41,470.692 1837.71,469.073 1837.03,467.446 1836.36,465.813 1835.71,464.174 1835.08,462.528 1834.46,460.875 1833.86,459.217 1833.28,457.553 1832.71,455.882 
  1832.16,454.207 1831.62,452.526 1831.11,450.839 1830.61,449.148 1830.12,447.452 1829.66,445.75 1829.21,444.045 1828.78,442.335 1828.36,440.62 1827.97,438.902 
  1827.59,437.18 1827.22,435.454 1826.88,433.724 1826.55,431.991 1826.24,430.255 1825.94,428.516 1825.67,426.774 1825.41,425.029 1825.17,423.282 1824.94,421.533 
  1824.73,419.781 1824.55,418.028 1824.37,416.272 1824.22,414.515 1824.08,412.757 1823.97,410.997 1823.86,409.236 1823.78,407.474 1823.71,405.712 1823.67,403.949 
  1823.64,402.185 1823.62,400.421 1823.63,398.658 1823.65,396.894 1823.69,395.131 1823.75,393.368 1823.82,391.606 1823.91,389.844 1824.03,388.084 1824.15,386.325 
  1824.3,384.567 1824.46,382.811 1824.64,381.056 1824.84,379.304 1825.06,377.553 1825.29,375.805 1825.54,374.059 1825.81,372.316 1826.09,370.575 1826.4,368.838 
  1826.72,367.103 1827.05,365.372 1827.41,363.644 1827.78,361.92 1828.17,360.2 1828.58,358.484 1829,356.772 1829.44,355.064 1829.9,353.361 1830.38,351.662 
  1830.87,349.968 1831.38,348.279 1831.9,346.596 1832.44,344.918 1833,343.245 1833.58,341.578 1834.17,339.916 1834.78,338.261 1835.41,336.612 1836.05,334.969 
  1836.71,333.333 1837.38,331.703 1838.07,330.081 1838.78,328.465 1839.5,326.856 1840.24,325.255 1841,323.661 1841.77,322.075 1842.56,320.497 1843.36,318.926 
  1844.18,317.364 1845.01,315.81 1845.86,314.264 1846.73,312.727 1847.61,311.199 1848.5,309.679 1849.41,308.169 1850.34,306.668 1851.28,305.176 1852.24,303.693 
  1853.21,302.221 1854.19,300.758 1855.19,299.304 1856.21,297.861 1857.23,296.429 1858.28,295.006 1859.33,293.594 1860.4,292.193 1861.49,290.802 1862.59,289.423 
  1863.7,288.054 1864.83,286.697 1865.97,285.351 1867.12,284.016 1868.29,282.693 1869.47,281.382 1870.66,280.083 1871.86,278.795 1873.08,277.52 1874.31,276.257 
  1875.56,275.006 1876.81,273.768 1878.08,272.543 1879.36,271.33 1880.66,270.13 1881.96,268.943 1883.28,267.769 1884.61,266.609 1885.95,265.461 1887.3,264.328 
  1888.66,263.207 1890.03,262.101 1891.42,261.008 1892.81,259.929 1894.22,258.864 1895.63,257.813 1897.06,256.777 1898.5,255.755 1899.95,254.747 1901.4,253.754 
  1902.87,252.775 1904.35,251.811 1905.83,250.862 1907.33,249.928 1908.84,249.009 1910.35,248.105 1911.87,247.216 1913.41,246.342 1914.95,245.484 1916.5,244.641 
  1918.05,243.814 1919.62,243.002 1921.19,242.206 1922.78,241.426 1924.37,240.662 1925.96,239.914 1927.57,239.181 1929.18,238.465 1930.8,237.765 1932.42,237.081 
  1934.06,236.413 1935.7,235.762 1937.34,235.127 1938.99,234.509 1940.65,233.907 1942.31,233.322 1943.98,232.753 1945.66,232.202 1947.34,231.667 1949.03,231.148 
  1950.72,230.647 1952.41,230.163 1954.11,229.695 1955.82,229.245 1957.53,228.812 1959.24,228.396 1960.96,227.997 1962.68,227.615 1964.41,227.25 1966.14,226.903 
  1967.87,226.573 1969.61,226.261 1971.35,225.965 1973.09,225.687 1974.83,225.427 1976.58,225.184 1978.33,224.959 1980.08,224.751 1981.83,224.56 1983.59,224.387 
  1985.34,224.232 1987.1,224.094 1988.86,223.974 1990.62,223.871 1992.39,223.786 1994.15,223.719 1995.91,223.669 1997.67,223.637 1999.44,223.623 
  "/>
<path clip-path="url(#clip810)" d="M2076.96 191.378 L2065.36 238.065 Q2065.03 239.541 2065.03 239.91 Q2065.03 240.402 2065.16 240.607 Q2065.32 240.853 2066.22 241.057 Q2067.16 241.262 2069.05 241.262 Q2069.75 241.262 2069.99 241.262 Q2070.24 241.262 2070.61 241.344 Q2070.98 241.426 2071.1 241.631 Q2071.22 241.836 2071.22 242.164 Q2071.22 243.845 2069.75 243.845 Q2068.35 243.845 2065.44 243.722 Q2062.53 243.599 2061.1 243.599 Q2059.7 243.599 2056.88 243.722 Q2054.05 243.845 2052.69 243.845 Q2052.2 243.845 2051.92 243.599 Q2051.63 243.394 2051.63 243.148 L2051.59 242.943 Q2051.59 241.795 2052.04 241.508 Q2052.49 241.262 2053.51 241.262 Q2057.04 241.221 2058.06 240.73 Q2059.09 240.238 2059.58 238.475 L2063.35 223.473 Q2058.31 228.515 2053.43 228.515 Q2048.72 228.515 2045.52 224.826 Q2042.37 221.096 2042.37 215.07 Q2042.37 210.602 2044.13 206.094 Q2045.93 201.585 2048.72 198.183 Q2051.55 194.781 2055.24 192.649 Q2058.93 190.477 2062.57 190.477 Q2064.91 190.477 2067 191.829 Q2069.13 193.182 2070.4 196.338 Q2071.47 194.535 2073.44 192.567 Q2075.4 190.559 2076.1 190.559 Q2076.51 190.559 2076.71 190.846 Q2076.96 191.092 2076.96 191.378 M2069.21 199.699 Q2069.21 199.289 2068.89 198.265 Q2068.6 197.24 2067.94 195.846 Q2067.33 194.412 2065.89 193.387 Q2064.46 192.321 2062.57 192.321 Q2059.87 192.321 2056.96 194.945 Q2054.09 197.527 2052.2 202.036 Q2051.01 204.987 2049.66 210.479 Q2048.31 215.972 2048.31 218.759 Q2048.31 219.415 2048.35 220.153 Q2048.43 220.891 2048.76 222.12 Q2049.09 223.35 2049.58 224.293 Q2050.11 225.236 2051.18 225.932 Q2052.24 226.629 2053.68 226.629 Q2056.79 226.629 2059.91 223.965 Q2063.02 221.301 2064.34 218.923 Q2064.5 218.677 2066.84 209.373 Q2069.21 200.068 2069.21 199.699 Z" fill="#000000" fill-rule="evenodd" fill-opacity="1" /><path clip-path="url(#clip810)" d="M2085.58 233.397 L2085.58 231.561 Q2092.63 231.561 2096.28 227.802 Q2097.28 227.802 2097.45 228.032 Q2097.63 228.261 2097.63 229.323 L2097.63 262.291 Q2097.63 264.041 2098.49 264.586 Q2099.35 265.131 2103.11 265.131 L2104.97 265.131 L2104.97 266.939 Q2102.91 266.767 2095.45 266.767 Q2087.99 266.767 2085.95 266.939 L2085.95 265.131 L2087.81 265.131 Q2091.51 265.131 2092.4 264.615 Q2093.29 264.07 2093.29 262.291 L2093.29 231.848 Q2090.22 233.397 2085.58 233.397 Z" fill="#000000" fill-rule="evenodd" fill-opacity="1" /><path clip-path="url(#clip810)" d="M2298.67 306.071 Q2297.56 311.358 2296.13 314.392 Q2293.83 319.023 2289.94 319.023 Q2286.99 319.023 2284.9 317.22 Q2282.81 315.416 2282.32 312.711 Q2276.95 319.023 2271.37 319.023 Q2266.45 319.023 2263.34 315.293 Q2260.22 311.522 2260.22 305.579 Q2260.22 299.595 2263.17 293.856 Q2266.17 288.118 2270.88 284.551 Q2275.59 280.985 2280.43 280.985 Q2285.55 280.985 2288.18 286.355 Q2288.38 284.879 2289.32 283.773 Q2290.27 282.666 2291.7 282.666 Q2292.81 282.666 2293.46 283.281 Q2294.12 283.855 2294.12 284.92 Q2294.12 285.453 2293.55 287.79 L2290.51 299.513 L2288.67 307.096 Q2287.97 309.883 2287.77 310.908 Q2287.6 311.932 2287.6 313.285 Q2287.6 317.138 2290.1 317.138 Q2291.33 317.138 2292.32 316.359 Q2293.3 315.58 2294.08 313.941 Q2294.86 312.301 2295.35 310.785 Q2295.84 309.227 2296.5 306.768 Q2296.7 305.784 2296.87 305.538 Q2297.07 305.251 2297.65 305.251 Q2298.67 305.251 2298.67 306.071 M2287.15 290.208 Q2287.15 289.839 2286.87 288.814 Q2286.58 287.79 2285.92 286.355 Q2285.27 284.92 2283.83 283.896 Q2282.44 282.83 2280.55 282.83 Q2278.01 282.83 2275.35 285.002 Q2272.72 287.175 2270.8 290.864 Q2269.32 293.815 2267.72 300.004 Q2266.17 306.194 2266.17 309.268 Q2266.17 311.154 2266.58 312.834 Q2267.03 314.474 2268.3 315.826 Q2269.57 317.138 2271.54 317.138 Q2276.33 317.138 2281.04 311.195 Q2281.95 310.17 2282.15 309.76 Q2282.4 309.309 2282.73 308.079 L2286.91 291.643 Q2287.15 290.413 2287.15 290.208 Z" fill="#000000" fill-rule="evenodd" fill-opacity="1" /><path clip-path="url(#clip810)" d="M2307.26 342.276 Q2307.26 341.214 2307.35 340.898 Q2307.46 340.583 2307.92 340.095 L2319.2 327.528 Q2325.37 320.584 2325.37 314.53 Q2325.37 310.599 2323.3 307.787 Q2321.26 304.975 2317.5 304.975 Q2314.92 304.975 2312.74 306.554 Q2310.56 308.132 2309.56 310.944 Q2309.73 310.886 2310.33 310.886 Q2311.79 310.886 2312.6 311.804 Q2313.43 312.722 2313.43 313.956 Q2313.43 315.534 2312.4 316.309 Q2311.39 317.055 2310.39 317.055 Q2309.99 317.055 2309.44 316.969 Q2308.92 316.883 2308.09 316.079 Q2307.26 315.247 2307.26 313.784 Q2307.26 309.681 2310.36 306.41 Q2313.49 303.139 2318.25 303.139 Q2323.64 303.139 2327.17 306.353 Q2330.73 309.538 2330.73 314.53 Q2330.73 316.28 2330.19 317.887 Q2329.67 319.465 2328.95 320.699 Q2328.26 321.933 2326.37 323.913 Q2324.48 325.892 2322.96 327.298 Q2321.43 328.704 2318.02 331.688 L2311.79 337.742 L2322.38 337.742 Q2327.55 337.742 2327.95 337.283 Q2328.52 336.451 2329.24 332.061 L2330.73 332.061 L2329.07 342.276 L2307.26 342.276 Z" fill="#000000" fill-rule="evenodd" fill-opacity="1" /><path clip-path="url(#clip810)" d="
M47.2441 1552.76 L752.756 1552.76 L752.756 847.244 L47.2441 847.244  Z
  " fill="#ffffff" fill-rule="evenodd" fill-opacity="1"/>
<defs>
  <clipPath id="clip815">
    <rect x="47" y="847" width="707" height="707"/>
  </clipPath>
</defs>
<polyline clip-path="url(#clip815)" style="stroke:#008000; stroke-linecap:round; stroke-linejoin:round; stroke-width:4; stroke-opacity:1; fill:none" points="
  400,1200 457.037,971.851 
  "/>
<polyline clip-path="url(#clip815)" style="stroke:#008000; stroke-linecap:round; stroke-linejoin:round; stroke-width:4; stroke-opacity:1; fill:none" points="
  430.843,1002.41 457.037,971.851 465.769,1011.14 
  "/>
<polyline clip-path="url(#clip815)" style="stroke:#008000; stroke-linecap:round; stroke-linejoin:round; stroke-width:4; stroke-opacity:1; fill:none" points="
  457.037,971.851 400,1200 
  "/>
<polyline clip-path="url(#clip815)" style="stroke:#800080; stroke-linecap:round; stroke-linejoin:round; stroke-width:4; stroke-opacity:1; fill:none" points="
  400,1200 752.756,1082.41 
  "/>
<polyline clip-path="url(#clip815)" style="stroke:#800080; stroke-linecap:round; stroke-linejoin:round; stroke-width:4; stroke-opacity:1; fill:none" points="
  712.911,1076.72 752.756,1082.41 724.295,1110.88 
  "/>
<polyline clip-path="url(#clip815)" style="stroke:#800080; stroke-linecap:round; stroke-linejoin:round; stroke-width:4; stroke-opacity:1; fill:none" points="
  752.756,1082.41 400,1200 
  "/>
<polyline clip-path="url(#clip815)" style="stroke:#ff0000; stroke-linecap:round; stroke-linejoin:round; stroke-width:4; stroke-opacity:1; fill:none" points="
  400,1200 704.338,1276.08 
  "/>
<polyline clip-path="url(#clip815)" style="stroke:#ff0000; stroke-linecap:round; stroke-linejoin:round; stroke-width:4; stroke-opacity:1; fill:none" points="
  673.779,1249.89 704.338,1276.08 665.048,1284.82 
  "/>
<polyline clip-path="url(#clip815)" style="stroke:#ff0000; stroke-linecap:round; stroke-linejoin:round; stroke-width:4; stroke-opacity:1; fill:none" points="
  704.338,1276.08 400,1200 
  "/>
<polyline clip-path="url(#clip815)" style="stroke:#808080; stroke-linecap:round; stroke-linejoin:round; stroke-width:4; stroke-opacity:1; fill:none" points="
  400,964.829 402.352,964.841 404.703,964.876 407.054,964.935 409.404,965.018 411.754,965.123 414.102,965.253 416.449,965.405 418.794,965.582 421.137,965.781 
  423.478,966.004 425.817,966.251 428.153,966.521 430.486,966.814 432.816,967.13 435.143,967.47 437.467,967.833 439.787,968.219 442.102,968.629 444.414,969.061 
  446.721,969.517 449.024,969.996 451.321,970.498 453.614,971.022 455.901,971.57 458.182,972.14 460.458,972.733 462.727,973.349 464.991,973.988 467.248,974.649 
  469.498,975.333 471.741,976.039 473.977,976.768 476.205,977.519 478.426,978.292 480.639,979.087 482.845,979.905 485.041,980.744 487.23,981.605 489.409,982.489 
  491.58,983.394 493.741,984.32 495.893,985.268 498.036,986.238 500.168,987.229 502.291,988.241 504.404,989.275 506.506,990.329 508.597,991.405 510.677,992.501 
  512.747,993.618 514.805,994.756 516.852,995.914 518.887,997.093 520.91,998.292 522.921,999.511 524.919,1000.75 526.906,1002.01 528.879,1003.29 530.84,1004.59 
  532.787,1005.91 534.722,1007.24 536.642,1008.6 538.55,1009.98 540.443,1011.37 542.322,1012.78 544.187,1014.22 546.038,1015.67 547.874,1017.14 549.695,1018.63 
  551.501,1020.13 553.292,1021.66 555.068,1023.2 556.828,1024.76 558.573,1026.33 560.301,1027.93 562.014,1029.54 563.711,1031.17 565.391,1032.81 567.054,1034.48 
  568.701,1036.16 570.331,1037.85 571.944,1039.56 573.54,1041.29 575.118,1043.03 576.679,1044.79 578.222,1046.57 579.748,1048.36 581.255,1050.16 582.744,1051.98 
  584.215,1053.82 585.668,1055.67 587.102,1057.53 588.517,1059.41 589.914,1061.3 591.291,1063.21 592.65,1065.12 593.989,1067.06 595.309,1069 596.609,1070.96 
  597.889,1072.94 599.15,1074.92 600.391,1076.92 601.612,1078.93 602.812,1080.95 603.992,1082.99 605.152,1085.03 606.292,1087.09 607.411,1089.16 608.509,1091.24 
  609.586,1093.33 610.642,1095.43 611.677,1097.54 612.691,1099.66 613.684,1101.79 614.655,1103.94 615.605,1106.09 616.533,1108.25 617.44,1110.42 618.325,1112.6 
  619.188,1114.78 620.029,1116.98 620.849,1119.18 621.646,1121.4 622.421,1123.62 623.173,1125.85 623.904,1128.08 624.612,1130.32 625.297,1132.57 625.96,1134.83 
  626.601,1137.09 627.218,1139.36 627.813,1141.64 628.386,1143.92 628.935,1146.2 629.461,1148.5 629.965,1150.79 630.446,1153.1 630.903,1155.4 631.338,1157.71 
  631.749,1160.03 632.137,1162.35 632.502,1164.67 632.843,1167 633.162,1169.33 633.457,1171.66 633.729,1174 633.977,1176.34 634.202,1178.68 634.403,1181.02 
  634.581,1183.36 634.736,1185.71 634.867,1188.06 634.975,1190.41 635.059,1192.76 635.12,1195.11 635.157,1197.46 635.171,1199.81 635.161,1202.16 635.127,1204.52 
  635.07,1206.87 634.99,1209.22 634.886,1211.57 634.759,1213.91 634.608,1216.26 634.433,1218.61 634.236,1220.95 634.014,1223.29 633.77,1225.63 633.502,1227.97 
  633.21,1230.3 632.896,1232.63 632.558,1234.96 632.197,1237.28 631.812,1239.6 631.405,1241.92 630.974,1244.23 630.52,1246.54 630.043,1248.84 629.543,1251.14 
  629.02,1253.43 628.475,1255.72 627.906,1258 627.315,1260.28 626.7,1262.55 626.064,1264.81 625.404,1267.07 624.722,1269.32 624.018,1271.56 623.291,1273.8 
  622.542,1276.03 621.771,1278.25 620.977,1280.46 620.161,1282.67 619.324,1284.87 618.464,1287.06 617.583,1289.24 616.679,1291.41 615.754,1293.57 614.808,1295.72 
  613.84,1297.87 612.851,1300 611.84,1302.12 610.808,1304.24 609.755,1306.34 608.682,1308.43 607.587,1310.51 606.471,1312.58 605.335,1314.64 604.179,1316.69 
  603.001,1318.72 601.804,1320.75 600.587,1322.76 599.349,1324.76 598.091,1326.75 596.814,1328.72 595.517,1330.68 594.2,1332.63 592.864,1334.57 591.509,1336.49 
  590.135,1338.4 588.741,1340.29 587.329,1342.17 585.898,1344.04 584.448,1345.89 582.98,1347.73 581.494,1349.55 579.989,1351.36 578.466,1353.15 576.926,1354.93 
  575.368,1356.69 573.792,1358.43 572.199,1360.16 570.589,1361.88 568.962,1363.58 567.318,1365.26 565.657,1366.92 563.979,1368.57 562.285,1370.2 560.575,1371.82 
  558.849,1373.41 557.107,1374.99 555.349,1376.56 553.576,1378.1 551.787,1379.63 549.984,1381.14 548.165,1382.63 546.331,1384.1 544.483,1385.55 542.62,1386.99 
  540.743,1388.41 538.852,1389.8 536.947,1391.18 535.028,1392.54 533.096,1393.88 531.151,1395.2 529.192,1396.51 527.221,1397.79 525.237,1399.05 523.24,1400.29 
  521.231,1401.52 519.21,1402.72 517.176,1403.9 515.132,1405.06 513.075,1406.2 511.008,1407.32 508.929,1408.42 506.839,1409.5 504.739,1410.56 502.628,1411.6 
  500.507,1412.61 498.376,1413.61 496.235,1414.58 494.085,1415.53 491.925,1416.46 489.755,1417.37 487.577,1418.26 485.39,1419.12 483.195,1419.96 480.991,1420.78 
  478.779,1421.58 476.56,1422.36 474.332,1423.11 472.097,1423.85 469.855,1424.56 467.606,1425.24 465.351,1425.91 463.088,1426.55 460.82,1427.17 458.545,1427.77 
  456.264,1428.34 453.978,1428.89 451.687,1429.42 449.39,1429.93 447.088,1430.41 444.782,1430.87 442.471,1431.3 440.156,1431.72 437.837,1432.11 435.514,1432.47 
  433.187,1432.82 430.857,1433.14 428.525,1433.43 426.189,1433.71 423.851,1433.96 421.51,1434.18 419.167,1434.39 416.822,1434.57 414.476,1434.72 412.128,1434.86 
  409.779,1434.97 407.428,1435.05 405.078,1435.12 402.726,1435.15 400.375,1435.17 398.023,1435.16 395.671,1435.13 393.32,1435.08 390.97,1435 388.62,1434.9 
  386.272,1434.77 383.925,1434.62 381.58,1434.45 379.236,1434.25 376.895,1434.03 374.556,1433.79 372.219,1433.52 369.885,1433.23 367.554,1432.92 365.227,1432.59 
  362.903,1432.23 360.582,1431.84 358.266,1431.44 355.954,1431.01 353.646,1430.56 351.343,1430.08 349.044,1429.58 346.751,1429.06 344.463,1428.52 342.181,1427.95 
  339.904,1427.36 337.634,1426.75 335.369,1426.12 333.111,1425.46 330.86,1424.78 328.616,1424.07 326.379,1423.35 324.149,1422.6 321.927,1421.83 319.712,1421.04 
  317.506,1420.23 315.308,1419.39 313.118,1418.53 310.937,1417.65 308.765,1416.75 306.602,1415.83 304.449,1414.88 302.305,1413.92 300.171,1412.93 298.046,1411.92 
  295.932,1410.89 293.829,1409.84 291.735,1408.77 289.653,1407.67 287.582,1406.56 285.522,1405.43 283.474,1404.27 281.437,1403.1 279.412,1401.9 277.399,1400.68 
  275.398,1399.45 273.41,1398.19 271.434,1396.92 269.472,1395.62 267.522,1394.31 265.586,1392.97 263.663,1391.62 261.753,1390.24 259.858,1388.85 257.976,1387.44 
  256.109,1386.01 254.256,1384.56 252.418,1383.1 250.594,1381.61 248.786,1380.11 246.992,1378.59 245.214,1377.05 243.451,1375.49 241.704,1373.92 239.973,1372.33 
  238.258,1370.72 236.559,1369.09 234.876,1367.45 233.21,1365.79 231.56,1364.11 229.927,1362.42 228.312,1360.71 226.713,1358.99 225.132,1357.25 223.568,1355.49 
  222.022,1353.72 220.494,1351.93 218.984,1350.13 217.492,1348.31 216.018,1346.48 214.562,1344.63 213.125,1342.77 211.707,1340.89 210.307,1339 208.927,1337.1 
  207.565,1335.18 206.223,1333.25 204.9,1331.31 203.597,1329.35 202.313,1327.38 201.05,1325.4 199.806,1323.4 198.582,1321.39 197.378,1319.37 196.194,1317.34 
  195.031,1315.29 193.888,1313.24 192.766,1311.17 191.665,1309.09 190.584,1307.01 189.525,1304.91 188.486,1302.8 187.469,1300.68 186.473,1298.55 185.498,1296.41 
  184.545,1294.26 183.613,1292.1 182.703,1289.93 181.814,1287.75 180.948,1285.56 180.103,1283.37 179.28,1281.17 178.48,1278.96 177.701,1276.74 176.945,1274.51 
  176.211,1272.28 175.5,1270.03 174.811,1267.79 174.144,1265.53 173.5,1263.27 172.879,1261 172.28,1258.73 171.704,1256.45 171.151,1254.16 170.621,1251.87 
  170.114,1249.57 169.629,1247.27 169.168,1244.97 168.73,1242.66 168.315,1240.34 167.923,1238.02 167.555,1235.7 167.209,1233.37 166.887,1231.04 166.589,1228.71 
  166.313,1226.37 166.061,1224.04 165.832,1221.7 165.627,1219.35 165.445,1217.01 165.287,1214.66 165.152,1212.31 165.041,1209.97 164.953,1207.62 164.888,1205.26 
  164.847,1202.91 164.83,1200.56 164.836,1198.21 164.866,1195.86 164.919,1193.51 164.996,1191.16 165.096,1188.81 165.22,1186.46 165.367,1184.11 165.537,1181.77 
  165.731,1179.42 165.949,1177.08 166.19,1174.74 166.454,1172.41 166.742,1170.07 167.053,1167.74 167.387,1165.41 167.744,1163.09 168.125,1160.77 168.529,1158.45 
  168.956,1156.14 169.406,1153.83 169.879,1151.53 170.376,1149.23 170.895,1146.93 171.437,1144.65 172.002,1142.36 172.59,1140.09 173.2,1137.81 173.833,1135.55 
  174.489,1133.29 175.168,1131.04 175.868,1128.79 176.592,1126.56 177.337,1124.33 178.105,1122.1 178.895,1119.89 179.707,1117.68 180.541,1115.48 181.398,1113.29 
  182.276,1111.11 183.175,1108.94 184.097,1106.77 185.04,1104.62 186.004,1102.48 186.99,1100.34 187.998,1098.22 189.026,1096.1 190.076,1094 191.146,1091.9 
  192.237,1089.82 193.35,1087.75 194.482,1085.69 195.636,1083.64 196.81,1081.6 198.004,1079.57 199.218,1077.56 200.453,1075.56 201.707,1073.57 202.981,1071.59 
  204.275,1069.63 205.589,1067.68 206.922,1065.74 208.274,1063.82 209.645,1061.9 211.036,1060.01 212.445,1058.13 213.873,1056.26 215.32,1054.4 216.785,1052.56 
  218.269,1050.74 219.77,1048.93 221.29,1047.13 222.827,1045.35 224.383,1043.59 225.956,1041.84 227.546,1040.11 229.153,1038.39 230.778,1036.69 232.419,1035.01 
  234.078,1033.34 235.753,1031.69 237.444,1030.06 239.151,1028.44 240.875,1026.84 242.614,1025.26 244.37,1023.69 246.141,1022.14 247.927,1020.62 249.728,1019.1 
  251.545,1017.61 253.376,1016.13 255.222,1014.68 257.082,1013.24 258.957,1011.82 260.846,1010.42 262.749,1009.04 264.665,1007.67 266.595,1006.33 268.538,1005 
  270.495,1003.7 272.464,1002.41 274.447,1001.15 276.441,999.904 278.448,998.678 280.468,997.473 282.499,996.288 284.542,995.123 286.596,993.979 288.662,992.855 
  290.739,991.752 292.827,990.67 294.926,989.608 297.035,988.568 299.154,987.549 301.284,986.551 303.423,985.575 305.572,984.62 307.731,983.686 309.898,982.774 
  312.075,981.884 314.261,981.016 316.455,980.17 318.657,979.345 320.868,978.543 323.086,977.763 325.313,977.005 327.546,976.269 329.787,975.555 332.035,974.865 
  334.29,974.196 336.551,973.55 338.819,972.927 341.092,972.327 343.372,971.749 345.657,971.194 347.948,970.662 350.244,970.153 352.545,969.667 354.851,969.204 
  357.161,968.764 359.475,968.347 361.794,967.954 364.116,967.583 366.442,967.236 368.771,966.912 371.104,966.611 373.439,966.334 375.777,966.08 378.117,965.85 
  380.46,965.643 382.804,965.459 385.151,965.299 387.498,965.162 389.847,965.049 392.197,964.959 394.548,964.893 396.899,964.85 399.251,964.831 
  "/>
<polyline clip-path="url(#clip815)" style="stroke:#000000; stroke-linecap:round; stroke-linejoin:round; stroke-width:4; stroke-opacity:1; fill:none" points="
  752.756,1082.41 704.338,1276.08 
  "/>
<polyline clip-path="url(#clip815)" style="stroke:#000000; stroke-linecap:round; stroke-linejoin:round; stroke-width:4; stroke-opacity:1; fill:none" points="
  730.532,1245.53 704.338,1276.08 695.607,1236.79 
  "/>
<polyline clip-path="url(#clip815)" style="stroke:#000000; stroke-linecap:round; stroke-linejoin:round; stroke-width:4; stroke-opacity:1; fill:none" points="
  704.338,1276.08 752.756,1082.41 
  "/>
<path clip-path="url(#clip810)" d="M502.978 934.341 L491.378 981.028 Q491.05 982.504 491.05 982.873 Q491.05 983.364 491.173 983.569 Q491.337 983.815 492.239 984.02 Q493.182 984.225 495.067 984.225 Q495.764 984.225 496.01 984.225 Q496.256 984.225 496.625 984.307 Q496.994 984.389 497.117 984.594 Q497.24 984.799 497.24 985.127 Q497.24 986.807 495.764 986.807 Q494.37 986.807 491.46 986.685 Q488.55 986.562 487.115 986.562 Q485.722 986.562 482.893 986.685 Q480.065 986.807 478.713 986.807 Q478.221 986.807 477.934 986.562 Q477.647 986.357 477.647 986.111 L477.606 985.906 Q477.606 984.758 478.057 984.471 Q478.508 984.225 479.532 984.225 Q483.057 984.184 484.082 983.692 Q485.107 983.2 485.599 981.438 L489.37 966.436 Q484.328 971.478 479.45 971.478 Q474.737 971.478 471.539 967.788 Q468.383 964.058 468.383 958.033 Q468.383 953.565 470.146 949.056 Q471.949 944.548 474.737 941.145 Q477.565 937.743 481.254 935.612 Q484.943 933.439 488.591 933.439 Q490.927 933.439 493.018 934.792 Q495.149 936.145 496.42 939.301 Q497.486 937.497 499.453 935.53 Q501.421 933.521 502.117 933.521 Q502.527 933.521 502.732 933.808 Q502.978 934.054 502.978 934.341 M495.231 942.662 Q495.231 942.252 494.903 941.227 Q494.616 940.203 493.961 938.809 Q493.346 937.374 491.911 936.35 Q490.476 935.284 488.591 935.284 Q485.886 935.284 482.975 937.907 Q480.106 940.49 478.221 944.998 Q477.032 947.95 475.679 953.442 Q474.327 958.935 474.327 961.722 Q474.327 962.378 474.368 963.116 Q474.45 963.854 474.778 965.083 Q475.105 966.313 475.597 967.256 Q476.13 968.198 477.196 968.895 Q478.262 969.592 479.696 969.592 Q482.811 969.592 485.927 966.928 Q489.042 964.263 490.353 961.886 Q490.517 961.64 492.854 952.336 Q495.231 943.031 495.231 942.662 Z" fill="#000000" fill-rule="evenodd" fill-opacity="1" /><path clip-path="url(#clip810)" d="M511.593 976.36 L511.593 974.524 Q518.652 974.524 522.296 970.765 Q523.3 970.765 523.472 970.995 Q523.644 971.224 523.644 972.286 L523.644 1005.25 Q523.644 1007 524.505 1007.55 Q525.366 1008.09 529.124 1008.09 L530.989 1008.09 L530.989 1009.9 Q528.924 1009.73 521.463 1009.73 Q514.003 1009.73 511.966 1009.9 L511.966 1008.09 L513.831 1008.09 Q517.533 1008.09 518.422 1007.58 Q519.312 1007.03 519.312 1005.25 L519.312 974.811 Q516.241 976.36 511.593 976.36 Z" fill="#000000" fill-rule="evenodd" fill-opacity="1" /><path clip-path="url(#clip810)" d="M798.618 1076.67 Q797.511 1081.96 796.076 1085 Q793.781 1089.63 789.887 1089.63 Q786.936 1089.63 784.845 1087.82 Q782.755 1086.02 782.263 1083.31 Q776.893 1089.63 771.319 1089.63 Q766.4 1089.63 763.285 1085.9 Q760.17 1082.13 760.17 1076.18 Q760.17 1070.2 763.121 1064.46 Q766.113 1058.72 770.827 1055.16 Q775.541 1051.59 780.378 1051.59 Q785.501 1051.59 788.125 1056.96 Q788.33 1055.48 789.272 1054.38 Q790.215 1053.27 791.65 1053.27 Q792.756 1053.27 793.412 1053.88 Q794.068 1054.46 794.068 1055.52 Q794.068 1056.06 793.494 1058.39 L790.461 1070.12 L788.616 1077.7 Q787.92 1080.49 787.715 1081.51 Q787.551 1082.54 787.551 1083.89 Q787.551 1087.74 790.051 1087.74 Q791.281 1087.74 792.264 1086.96 Q793.248 1086.18 794.027 1084.54 Q794.806 1082.9 795.298 1081.39 Q795.79 1079.83 796.445 1077.37 Q796.65 1076.39 796.814 1076.14 Q797.019 1075.85 797.593 1075.85 Q798.618 1075.85 798.618 1076.67 M787.1 1060.81 Q787.1 1060.44 786.813 1059.42 Q786.526 1058.39 785.87 1056.96 Q785.214 1055.52 783.78 1054.5 Q782.386 1053.43 780.501 1053.43 Q777.959 1053.43 775.295 1055.61 Q772.672 1057.78 770.745 1061.47 Q769.269 1064.42 767.671 1070.61 Q766.113 1076.8 766.113 1079.87 Q766.113 1081.76 766.523 1083.44 Q766.974 1085.08 768.245 1086.43 Q769.515 1087.74 771.483 1087.74 Q776.279 1087.74 780.992 1081.8 Q781.894 1080.77 782.099 1080.36 Q782.345 1079.91 782.673 1078.68 L786.854 1062.25 Q787.1 1061.02 787.1 1060.81 Z" fill="#000000" fill-rule="evenodd" fill-opacity="1" /><path clip-path="url(#clip810)" d="M807.208 1112.88 Q807.208 1111.82 807.294 1111.5 Q807.409 1111.19 807.868 1110.7 L819.144 1098.13 Q825.313 1091.19 825.313 1085.13 Q825.313 1081.2 823.247 1078.39 Q821.21 1075.58 817.451 1075.58 Q814.869 1075.58 812.688 1077.16 Q810.508 1078.74 809.503 1081.55 Q809.676 1081.49 810.278 1081.49 Q811.741 1081.49 812.545 1082.41 Q813.377 1083.33 813.377 1084.56 Q813.377 1086.14 812.344 1086.91 Q811.34 1087.66 810.335 1087.66 Q809.934 1087.66 809.389 1087.57 Q808.872 1087.49 808.04 1086.68 Q807.208 1085.85 807.208 1084.39 Q807.208 1080.28 810.307 1077.01 Q813.434 1073.74 818.197 1073.74 Q823.591 1073.74 827.121 1076.96 Q830.678 1080.14 830.678 1085.13 Q830.678 1086.88 830.133 1088.49 Q829.617 1090.07 828.9 1091.3 Q828.211 1092.54 826.317 1094.52 Q824.423 1096.5 822.903 1097.9 Q821.382 1099.31 817.968 1102.29 L811.741 1108.35 L822.329 1108.35 Q827.494 1108.35 827.895 1107.89 Q828.469 1107.05 829.186 1102.66 L830.678 1102.66 L829.014 1112.88 L807.208 1112.88 Z" fill="#000000" fill-rule="evenodd" fill-opacity="1" /><path clip-path="url(#clip810)" d="M747.94 1275.3 Q747.94 1275.36 747.882 1275.42 Q747.509 1278.46 746.792 1280.15 Q746.075 1281.81 744.468 1282.59 Q743.292 1283.16 741.828 1283.16 Q739.619 1283.16 736.434 1281.7 Q736.319 1281.64 735.688 1281.36 Q735.057 1281.07 734.827 1280.98 Q734.598 1280.9 734.11 1280.72 Q733.622 1280.52 733.249 1280.47 Q732.876 1280.41 732.503 1280.41 Q731.7 1280.41 731.011 1280.75 Q729.605 1281.44 728.745 1282.47 Q727.855 1283.48 727.625 1285.29 Q727.568 1285.52 727.367 1285.69 Q727.166 1285.86 726.908 1285.86 Q726.65 1285.86 726.42 1285.66 Q726.191 1285.46 726.191 1285.17 Q726.191 1285.11 726.248 1285.06 Q726.621 1282.02 727.339 1280.35 Q728.056 1278.66 729.663 1277.88 Q730.925 1277.28 732.302 1277.28 Q734.454 1277.28 737.725 1278.77 Q737.84 1278.83 738.471 1279.12 Q739.102 1279.4 739.332 1279.49 Q739.562 1279.58 740.049 1279.78 Q740.537 1279.95 740.91 1280.01 Q741.283 1280.06 741.656 1280.06 Q742.373 1280.06 743.119 1279.69 Q744.525 1279 745.415 1278 Q746.304 1276.99 746.534 1275.19 Q746.591 1274.96 746.792 1274.79 Q746.993 1274.58 747.251 1274.58 Q747.509 1274.58 747.739 1274.81 Q747.94 1275.01 747.94 1275.3 Z" fill="#000000" fill-rule="evenodd" fill-opacity="1" /><path clip-path="url(#clip810)" d="M747.846 1295.67 L736.246 1342.36 Q735.918 1343.83 735.918 1344.2 Q735.918 1344.7 736.041 1344.9 Q736.205 1345.15 737.107 1345.35 Q738.05 1345.56 739.935 1345.56 Q740.632 1345.56 740.878 1345.56 Q741.124 1345.56 741.493 1345.64 Q741.862 1345.72 741.985 1345.93 Q742.108 1346.13 742.108 1346.46 Q742.108 1348.14 740.632 1348.14 Q739.239 1348.14 736.328 1348.02 Q733.418 1347.89 731.984 1347.89 Q730.59 1347.89 727.762 1348.02 Q724.933 1348.14 723.581 1348.14 Q723.089 1348.14 722.802 1347.89 Q722.515 1347.69 722.515 1347.44 L722.474 1347.24 Q722.474 1346.09 722.925 1345.8 Q723.376 1345.56 724.4 1345.56 Q727.926 1345.52 728.95 1345.02 Q729.975 1344.53 730.467 1342.77 L734.238 1327.77 Q729.196 1332.81 724.319 1332.81 Q719.605 1332.81 716.408 1329.12 Q713.251 1325.39 713.251 1319.36 Q713.251 1314.9 715.014 1310.39 Q716.817 1305.88 719.605 1302.48 Q722.433 1299.07 726.122 1296.94 Q729.811 1294.77 733.459 1294.77 Q735.796 1294.77 737.886 1296.12 Q740.017 1297.48 741.288 1300.63 Q742.354 1298.83 744.321 1296.86 Q746.289 1294.85 746.986 1294.85 Q747.395 1294.85 747.6 1295.14 Q747.846 1295.39 747.846 1295.67 M740.099 1303.99 Q740.099 1303.58 739.771 1302.56 Q739.485 1301.53 738.829 1300.14 Q738.214 1298.71 736.779 1297.68 Q735.345 1296.62 733.459 1296.62 Q730.754 1296.62 727.844 1299.24 Q724.974 1301.82 723.089 1306.33 Q721.9 1309.28 720.548 1314.77 Q719.195 1320.27 719.195 1323.05 Q719.195 1323.71 719.236 1324.45 Q719.318 1325.18 719.646 1326.41 Q719.974 1327.64 720.466 1328.59 Q720.998 1329.53 722.064 1330.23 Q723.13 1330.92 724.564 1330.92 Q727.68 1330.92 730.795 1328.26 Q733.91 1325.59 735.222 1323.22 Q735.386 1322.97 737.722 1313.67 Q740.099 1304.36 740.099 1303.99 Z" fill="#000000" fill-rule="evenodd" fill-opacity="1" /><path clip-path="url(#clip810)" d="M761.291 1371.23 Q761.291 1370.17 761.378 1369.86 Q761.492 1369.54 761.951 1369.05 L773.228 1356.49 Q779.396 1349.54 779.396 1343.49 Q779.396 1339.56 777.331 1336.74 Q775.293 1333.93 771.535 1333.93 Q768.952 1333.93 766.772 1335.51 Q764.591 1337.09 763.587 1339.9 Q763.759 1339.84 764.362 1339.84 Q765.825 1339.84 766.628 1340.76 Q767.46 1341.68 767.46 1342.91 Q767.46 1344.49 766.427 1345.27 Q765.423 1346.01 764.419 1346.01 Q764.017 1346.01 763.472 1345.93 Q762.956 1345.84 762.124 1345.04 Q761.291 1344.2 761.291 1342.74 Q761.291 1338.64 764.39 1335.37 Q767.518 1332.1 772.281 1332.1 Q777.675 1332.1 781.204 1335.31 Q784.762 1338.49 784.762 1343.49 Q784.762 1345.24 784.217 1346.84 Q783.7 1348.42 782.983 1349.66 Q782.294 1350.89 780.401 1352.87 Q778.507 1354.85 776.986 1356.26 Q775.466 1357.66 772.051 1360.65 L765.825 1366.7 L776.412 1366.7 Q781.577 1366.7 781.979 1366.24 Q782.553 1365.41 783.27 1361.02 L784.762 1361.02 L783.098 1371.23 L761.291 1371.23 Z" fill="#000000" fill-rule="evenodd" fill-opacity="1" /><path clip-path="url(#clip810)" d="M875.728 1168.57 Q876.22 1169.06 876.22 1169.76 Q876.22 1170.46 875.728 1170.95 Q875.236 1171.44 874.54 1171.44 L821.991 1171.44 Q821.295 1171.44 820.803 1170.95 Q820.311 1170.46 820.311 1169.76 Q820.311 1169.06 820.803 1168.57 Q821.295 1168.08 821.991 1168.08 L874.54 1168.08 Q875.236 1168.08 875.728 1168.57 Z" fill="#000000" fill-rule="evenodd" fill-opacity="1" /><path clip-path="url(#clip810)" d="M884.98 1169.76 Q884.98 1155.58 890.268 1144.14 Q892.522 1139.35 895.678 1135.33 Q898.835 1131.31 900.925 1129.55 Q903.015 1127.79 903.589 1127.79 Q904.409 1127.79 904.45 1128.61 Q904.45 1129.02 903.343 1130.04 Q889.817 1143.81 889.858 1169.76 Q889.858 1195.79 903.015 1209.03 Q904.45 1210.46 904.45 1210.91 Q904.45 1211.73 903.589 1211.73 Q903.015 1211.73 901.007 1210.05 Q898.999 1208.37 895.883 1204.52 Q892.768 1200.67 890.514 1195.95 Q884.98 1184.52 884.98 1169.76 Z" fill="#000000" fill-rule="evenodd" fill-opacity="1" /><path clip-path="url(#clip810)" d="M951.808 1154.55 L940.208 1201.24 Q939.88 1202.71 939.88 1203.08 Q939.88 1203.58 940.003 1203.78 Q940.167 1204.03 941.069 1204.23 Q942.012 1204.44 943.897 1204.44 Q944.594 1204.44 944.84 1204.44 Q945.086 1204.44 945.455 1204.52 Q945.824 1204.6 945.947 1204.81 Q946.07 1205.01 946.07 1205.34 Q946.07 1207.02 944.594 1207.02 Q943.201 1207.02 940.29 1206.9 Q937.38 1206.77 935.946 1206.77 Q934.552 1206.77 931.724 1206.9 Q928.895 1207.02 927.543 1207.02 Q927.051 1207.02 926.764 1206.77 Q926.477 1206.57 926.477 1206.32 L926.436 1206.12 Q926.436 1204.97 926.887 1204.68 Q927.338 1204.44 928.363 1204.44 Q931.888 1204.4 932.912 1203.9 Q933.937 1203.41 934.429 1201.65 L938.2 1186.65 Q933.158 1191.69 928.281 1191.69 Q923.567 1191.69 920.37 1188 Q917.213 1184.27 917.213 1178.24 Q917.213 1173.78 918.976 1169.27 Q920.779 1164.76 923.567 1161.36 Q926.395 1157.95 930.084 1155.82 Q933.773 1153.65 937.421 1153.65 Q939.758 1153.65 941.848 1155 Q943.979 1156.36 945.25 1159.51 Q946.316 1157.71 948.283 1155.74 Q950.251 1153.73 950.948 1153.73 Q951.357 1153.73 951.562 1154.02 Q951.808 1154.27 951.808 1154.55 M944.061 1162.87 Q944.061 1162.46 943.733 1161.44 Q943.447 1160.41 942.791 1159.02 Q942.176 1157.59 940.741 1156.56 Q939.307 1155.5 937.421 1155.5 Q934.716 1155.5 931.806 1158.12 Q928.936 1160.7 927.051 1165.21 Q925.862 1168.16 924.51 1173.65 Q923.157 1179.15 923.157 1181.93 Q923.157 1182.59 923.198 1183.33 Q923.28 1184.06 923.608 1185.29 Q923.936 1186.52 924.428 1187.47 Q924.96 1188.41 926.026 1189.11 Q927.092 1189.8 928.526 1189.8 Q931.642 1189.8 934.757 1187.14 Q937.872 1184.47 939.184 1182.1 Q939.348 1181.85 941.684 1172.55 Q944.061 1163.24 944.061 1162.87 Z" fill="#000000" fill-rule="evenodd" fill-opacity="1" /><path clip-path="url(#clip810)" d="M960.423 1196.57 L960.423 1194.73 Q967.482 1194.73 971.126 1190.98 Q972.13 1190.98 972.302 1191.21 Q972.474 1191.44 972.474 1192.5 L972.474 1225.46 Q972.474 1227.21 973.335 1227.76 Q974.196 1228.31 977.955 1228.31 L979.82 1228.31 L979.82 1230.11 Q977.754 1229.94 970.294 1229.94 Q962.834 1229.94 960.796 1230.11 L960.796 1228.31 L962.661 1228.31 Q966.363 1228.31 967.252 1227.79 Q968.142 1227.24 968.142 1225.46 L968.142 1195.02 Q965.072 1196.57 960.423 1196.57 Z" fill="#000000" fill-rule="evenodd" fill-opacity="1" /><path clip-path="url(#clip810)" d="M995.244 1135 Q995.244 1132.91 996.515 1132.05 Q997.785 1131.15 999.138 1131.15 Q1000.82 1131.15 1001.88 1132.17 Q1002.99 1133.16 1002.99 1135 Q1002.99 1135.82 1002.91 1136.27 L1000.12 1161.6 L998.195 1161.6 L995.326 1136.27 Q995.244 1135.82 995.244 1135 Z" fill="#000000" fill-rule="evenodd" fill-opacity="1" /><path clip-path="url(#clip810)" d="M1056.79 1178.74 Q1055.68 1184.02 1054.25 1187.06 Q1051.95 1191.69 1048.06 1191.69 Q1045.11 1191.69 1043.02 1189.89 Q1040.93 1188.08 1040.44 1185.38 Q1035.07 1191.69 1029.49 1191.69 Q1024.57 1191.69 1021.46 1187.96 Q1018.34 1184.19 1018.34 1178.24 Q1018.34 1172.26 1021.29 1166.52 Q1024.29 1160.78 1029 1157.22 Q1033.71 1153.65 1038.55 1153.65 Q1043.67 1153.65 1046.3 1159.02 Q1046.5 1157.54 1047.45 1156.44 Q1048.39 1155.33 1049.82 1155.33 Q1050.93 1155.33 1051.59 1155.95 Q1052.24 1156.52 1052.24 1157.59 Q1052.24 1158.12 1051.67 1160.45 L1048.63 1172.18 L1046.79 1179.76 Q1046.09 1182.55 1045.89 1183.57 Q1045.72 1184.6 1045.72 1185.95 Q1045.72 1189.8 1048.22 1189.8 Q1049.45 1189.8 1050.44 1189.02 Q1051.42 1188.25 1052.2 1186.61 Q1052.98 1184.97 1053.47 1183.45 Q1053.96 1181.89 1054.62 1179.43 Q1054.82 1178.45 1054.99 1178.2 Q1055.19 1177.92 1055.77 1177.92 Q1056.79 1177.92 1056.79 1178.74 M1045.27 1162.87 Q1045.27 1162.5 1044.99 1161.48 Q1044.7 1160.45 1044.04 1159.02 Q1043.39 1157.59 1041.95 1156.56 Q1040.56 1155.5 1038.67 1155.5 Q1036.13 1155.5 1033.47 1157.67 Q1030.84 1159.84 1028.92 1163.53 Q1027.44 1166.48 1025.84 1172.67 Q1024.29 1178.86 1024.29 1181.93 Q1024.29 1183.82 1024.7 1185.5 Q1025.15 1187.14 1026.42 1188.49 Q1027.69 1189.8 1029.66 1189.8 Q1034.45 1189.8 1039.17 1183.86 Q1040.07 1182.83 1040.27 1182.43 Q1040.52 1181.97 1040.85 1180.74 L1045.03 1164.31 Q1045.27 1163.08 1045.27 1162.87 Z" fill="#000000" fill-rule="evenodd" fill-opacity="1" /><path clip-path="url(#clip810)" d="M1065.38 1214.94 Q1065.38 1213.88 1065.47 1213.56 Q1065.58 1213.25 1066.04 1212.76 L1077.32 1200.19 Q1083.49 1193.25 1083.49 1187.2 Q1083.49 1183.26 1081.42 1180.45 Q1079.38 1177.64 1075.62 1177.64 Q1073.04 1177.64 1070.86 1179.22 Q1068.68 1180.8 1067.68 1183.61 Q1067.85 1183.55 1068.45 1183.55 Q1069.91 1183.55 1070.72 1184.47 Q1071.55 1185.39 1071.55 1186.62 Q1071.55 1188.2 1070.52 1188.97 Q1069.51 1189.72 1068.51 1189.72 Q1068.11 1189.72 1067.56 1189.63 Q1067.05 1189.55 1066.21 1188.74 Q1065.38 1187.91 1065.38 1186.45 Q1065.38 1182.35 1068.48 1179.08 Q1071.61 1175.8 1076.37 1175.8 Q1081.76 1175.8 1085.29 1179.02 Q1088.85 1182.2 1088.85 1187.2 Q1088.85 1188.95 1088.31 1190.55 Q1087.79 1192.13 1087.07 1193.36 Q1086.38 1194.6 1084.49 1196.58 Q1082.6 1198.56 1081.08 1199.96 Q1079.56 1201.37 1076.14 1204.35 L1069.91 1210.41 L1080.5 1210.41 Q1085.67 1210.41 1086.07 1209.95 Q1086.64 1209.12 1087.36 1204.73 L1088.85 1204.73 L1087.19 1214.94 L1065.38 1214.94 Z" fill="#000000" fill-rule="evenodd" fill-opacity="1" /><path clip-path="url(#clip810)" d="M1097.58 1210.91 Q1097.58 1210.5 1098.65 1209.48 Q1112.18 1195.71 1112.18 1169.76 Q1112.18 1143.73 1099.18 1130.57 Q1097.58 1129.06 1097.58 1128.61 Q1097.58 1127.79 1098.4 1127.79 Q1098.98 1127.79 1100.99 1129.47 Q1103.04 1131.15 1106.11 1135 Q1109.22 1138.85 1111.52 1143.57 Q1117.05 1155 1117.05 1169.76 Q1117.05 1183.94 1111.77 1195.38 Q1109.51 1200.17 1106.36 1204.19 Q1103.2 1208.21 1101.11 1209.97 Q1099.02 1211.73 1098.4 1211.73 Q1097.58 1211.73 1097.58 1210.91 Z" fill="#000000" fill-rule="evenodd" fill-opacity="1" /><path clip-path="url(#clip810)" d="M1164.41 1154.55 L1152.81 1201.24 Q1152.48 1202.71 1152.48 1203.08 Q1152.48 1203.58 1152.61 1203.78 Q1152.77 1204.03 1153.67 1204.23 Q1154.62 1204.44 1156.5 1204.44 Q1157.2 1204.44 1157.44 1204.44 Q1157.69 1204.44 1158.06 1204.52 Q1158.43 1204.6 1158.55 1204.81 Q1158.67 1205.01 1158.67 1205.34 Q1158.67 1207.02 1157.2 1207.02 Q1155.8 1207.02 1152.89 1206.9 Q1149.98 1206.77 1148.55 1206.77 Q1147.16 1206.77 1144.33 1206.9 Q1141.5 1207.02 1140.15 1207.02 Q1139.65 1207.02 1139.37 1206.77 Q1139.08 1206.57 1139.08 1206.32 L1139.04 1206.12 Q1139.04 1204.97 1139.49 1204.68 Q1139.94 1204.44 1140.97 1204.44 Q1144.49 1204.4 1145.52 1203.9 Q1146.54 1203.41 1147.03 1201.65 L1150.8 1186.65 Q1145.76 1191.69 1140.88 1191.69 Q1136.17 1191.69 1132.97 1188 Q1129.82 1184.27 1129.82 1178.24 Q1129.82 1173.78 1131.58 1169.27 Q1133.38 1164.76 1136.17 1161.36 Q1139 1157.95 1142.69 1155.82 Q1146.38 1153.65 1150.02 1153.65 Q1152.36 1153.65 1154.45 1155 Q1156.58 1156.36 1157.85 1159.51 Q1158.92 1157.71 1160.89 1155.74 Q1162.85 1153.73 1163.55 1153.73 Q1163.96 1153.73 1164.17 1154.02 Q1164.41 1154.27 1164.41 1154.55 M1156.66 1162.87 Q1156.66 1162.46 1156.34 1161.44 Q1156.05 1160.41 1155.39 1159.02 Q1154.78 1157.59 1153.34 1156.56 Q1151.91 1155.5 1150.02 1155.5 Q1147.32 1155.5 1144.41 1158.12 Q1141.54 1160.7 1139.65 1165.21 Q1138.47 1168.16 1137.11 1173.65 Q1135.76 1179.15 1135.76 1181.93 Q1135.76 1182.59 1135.8 1183.33 Q1135.88 1184.06 1136.21 1185.29 Q1136.54 1186.52 1137.03 1187.47 Q1137.56 1188.41 1138.63 1189.11 Q1139.7 1189.8 1141.13 1189.8 Q1144.24 1189.8 1147.36 1187.14 Q1150.48 1184.47 1151.79 1182.1 Q1151.95 1181.85 1154.29 1172.55 Q1156.66 1163.24 1156.66 1162.87 Z" fill="#000000" fill-rule="evenodd" fill-opacity="1" /><path clip-path="url(#clip810)" d="M1173.03 1196.57 L1173.03 1194.73 Q1180.09 1194.73 1183.73 1190.98 Q1184.73 1190.98 1184.91 1191.21 Q1185.08 1191.44 1185.08 1192.5 L1185.08 1225.46 Q1185.08 1227.21 1185.94 1227.76 Q1186.8 1228.31 1190.56 1228.31 L1192.42 1228.31 L1192.42 1230.11 Q1190.36 1229.94 1182.9 1229.94 Q1175.44 1229.94 1173.4 1230.11 L1173.4 1228.31 L1175.26 1228.31 Q1178.97 1228.31 1179.86 1227.79 Q1180.75 1227.24 1180.75 1225.46 L1180.75 1195.02 Q1177.67 1196.57 1173.03 1196.57 Z" fill="#000000" fill-rule="evenodd" fill-opacity="1" /><path clip-path="url(#clip810)" d="
M847.244 1552.76 L1552.76 1552.76 L1552.76 847.244 L847.244 847.244  Z
  " fill="#ffffff" fill-rule="evenodd" fill-opacity="1"/>
<defs>
  <clipPath id="clip816">
    <rect x="847" y="847" width="707" height="707"/>
  </clipPath>
</defs>
<polyline clip-path="url(#clip816)" style="stroke:#008000; stroke-linecap:round; stroke-linejoin:round; stroke-width:4; stroke-opacity:1; fill:none" points="
  1200,1200 1257.04,971.851 
  "/>
<polyline clip-path="url(#clip816)" style="stroke:#008000; stroke-linecap:round; stroke-linejoin:round; stroke-width:4; stroke-opacity:1; fill:none" points="
  1230.84,1002.41 1257.04,971.851 1265.77,1011.14 
  "/>
<polyline clip-path="url(#clip816)" style="stroke:#008000; stroke-linecap:round; stroke-linejoin:round; stroke-width:4; stroke-opacity:1; fill:none" points="
  1257.04,971.851 1200,1200 
  "/>
<polyline clip-path="url(#clip816)" style="stroke:#008000; stroke-linecap:round; stroke-linejoin:round; stroke-width:4; stroke-opacity:1; fill:none" points="
  1200,1200 1428.15,1257.04 
  "/>
<polyline clip-path="url(#clip816)" style="stroke:#008000; stroke-linecap:round; stroke-linejoin:round; stroke-width:4; stroke-opacity:1; fill:none" points="
  1397.59,1230.84 1428.15,1257.04 1388.86,1265.77 
  "/>
<polyline clip-path="url(#clip816)" style="stroke:#008000; stroke-linecap:round; stroke-linejoin:round; stroke-width:4; stroke-opacity:1; fill:none" points="
  1428.15,1257.04 1200,1200 
  "/>
<polyline clip-path="url(#clip816)" style="stroke:#808080; stroke-linecap:round; stroke-linejoin:round; stroke-width:4; stroke-opacity:1; fill:none" points="
  1200,964.829 1202.35,964.841 1204.7,964.876 1207.05,964.935 1209.4,965.018 1211.75,965.123 1214.1,965.253 1216.45,965.405 1218.79,965.582 1221.14,965.781 
  1223.48,966.004 1225.82,966.251 1228.15,966.521 1230.49,966.814 1232.82,967.13 1235.14,967.47 1237.47,967.833 1239.79,968.219 1242.1,968.629 1244.41,969.061 
  1246.72,969.517 1249.02,969.996 1251.32,970.498 1253.61,971.022 1255.9,971.57 1258.18,972.14 1260.46,972.733 1262.73,973.349 1264.99,973.988 1267.25,974.649 
  1269.5,975.333 1271.74,976.039 1273.98,976.768 1276.21,977.519 1278.43,978.292 1280.64,979.087 1282.84,979.905 1285.04,980.744 1287.23,981.605 1289.41,982.489 
  1291.58,983.394 1293.74,984.32 1295.89,985.268 1298.04,986.238 1300.17,987.229 1302.29,988.241 1304.4,989.275 1306.51,990.329 1308.6,991.405 1310.68,992.501 
  1312.75,993.618 1314.8,994.756 1316.85,995.914 1318.89,997.093 1320.91,998.292 1322.92,999.511 1324.92,1000.75 1326.91,1002.01 1328.88,1003.29 1330.84,1004.59 
  1332.79,1005.91 1334.72,1007.24 1336.64,1008.6 1338.55,1009.98 1340.44,1011.37 1342.32,1012.78 1344.19,1014.22 1346.04,1015.67 1347.87,1017.14 1349.69,1018.63 
  1351.5,1020.13 1353.29,1021.66 1355.07,1023.2 1356.83,1024.76 1358.57,1026.33 1360.3,1027.93 1362.01,1029.54 1363.71,1031.17 1365.39,1032.81 1367.05,1034.48 
  1368.7,1036.16 1370.33,1037.85 1371.94,1039.56 1373.54,1041.29 1375.12,1043.03 1376.68,1044.79 1378.22,1046.57 1379.75,1048.36 1381.26,1050.16 1382.74,1051.98 
  1384.22,1053.82 1385.67,1055.67 1387.1,1057.53 1388.52,1059.41 1389.91,1061.3 1391.29,1063.21 1392.65,1065.12 1393.99,1067.06 1395.31,1069 1396.61,1070.96 
  1397.89,1072.94 1399.15,1074.92 1400.39,1076.92 1401.61,1078.93 1402.81,1080.95 1403.99,1082.99 1405.15,1085.03 1406.29,1087.09 1407.41,1089.16 1408.51,1091.24 
  1409.59,1093.33 1410.64,1095.43 1411.68,1097.54 1412.69,1099.66 1413.68,1101.79 1414.66,1103.94 1415.61,1106.09 1416.53,1108.25 1417.44,1110.42 1418.33,1112.6 
  1419.19,1114.78 1420.03,1116.98 1420.85,1119.18 1421.65,1121.4 1422.42,1123.62 1423.17,1125.85 1423.9,1128.08 1424.61,1130.32 1425.3,1132.57 1425.96,1134.83 
  1426.6,1137.09 1427.22,1139.36 1427.81,1141.64 1428.39,1143.92 1428.93,1146.2 1429.46,1148.5 1429.97,1150.79 1430.45,1153.1 1430.9,1155.4 1431.34,1157.71 
  1431.75,1160.03 1432.14,1162.35 1432.5,1164.67 1432.84,1167 1433.16,1169.33 1433.46,1171.66 1433.73,1174 1433.98,1176.34 1434.2,1178.68 1434.4,1181.02 
  1434.58,1183.36 1434.74,1185.71 1434.87,1188.06 1434.97,1190.41 1435.06,1192.76 1435.12,1195.11 1435.16,1197.46 1435.17,1199.81 1435.16,1202.16 1435.13,1204.52 
  1435.07,1206.87 1434.99,1209.22 1434.89,1211.57 1434.76,1213.91 1434.61,1216.26 1434.43,1218.61 1434.24,1220.95 1434.01,1223.29 1433.77,1225.63 1433.5,1227.97 
  1433.21,1230.3 1432.9,1232.63 1432.56,1234.96 1432.2,1237.28 1431.81,1239.6 1431.4,1241.92 1430.97,1244.23 1430.52,1246.54 1430.04,1248.84 1429.54,1251.14 
  1429.02,1253.43 1428.47,1255.72 1427.91,1258 1427.31,1260.28 1426.7,1262.55 1426.06,1264.81 1425.4,1267.07 1424.72,1269.32 1424.02,1271.56 1423.29,1273.8 
  1422.54,1276.03 1421.77,1278.25 1420.98,1280.46 1420.16,1282.67 1419.32,1284.87 1418.46,1287.06 1417.58,1289.24 1416.68,1291.41 1415.75,1293.57 1414.81,1295.72 
  1413.84,1297.87 1412.85,1300 1411.84,1302.12 1410.81,1304.24 1409.76,1306.34 1408.68,1308.43 1407.59,1310.51 1406.47,1312.58 1405.34,1314.64 1404.18,1316.69 
  1403,1318.72 1401.8,1320.75 1400.59,1322.76 1399.35,1324.76 1398.09,1326.75 1396.81,1328.72 1395.52,1330.68 1394.2,1332.63 1392.86,1334.57 1391.51,1336.49 
  1390.13,1338.4 1388.74,1340.29 1387.33,1342.17 1385.9,1344.04 1384.45,1345.89 1382.98,1347.73 1381.49,1349.55 1379.99,1351.36 1378.47,1353.15 1376.93,1354.93 
  1375.37,1356.69 1373.79,1358.43 1372.2,1360.16 1370.59,1361.88 1368.96,1363.58 1367.32,1365.26 1365.66,1366.92 1363.98,1368.57 1362.29,1370.2 1360.58,1371.82 
  1358.85,1373.41 1357.11,1374.99 1355.35,1376.56 1353.58,1378.1 1351.79,1379.63 1349.98,1381.14 1348.16,1382.63 1346.33,1384.1 1344.48,1385.55 1342.62,1386.99 
  1340.74,1388.41 1338.85,1389.8 1336.95,1391.18 1335.03,1392.54 1333.1,1393.88 1331.15,1395.2 1329.19,1396.51 1327.22,1397.79 1325.24,1399.05 1323.24,1400.29 
  1321.23,1401.52 1319.21,1402.72 1317.18,1403.9 1315.13,1405.06 1313.08,1406.2 1311.01,1407.32 1308.93,1408.42 1306.84,1409.5 1304.74,1410.56 1302.63,1411.6 
  1300.51,1412.61 1298.38,1413.61 1296.24,1414.58 1294.08,1415.53 1291.92,1416.46 1289.76,1417.37 1287.58,1418.26 1285.39,1419.12 1283.19,1419.96 1280.99,1420.78 
  1278.78,1421.58 1276.56,1422.36 1274.33,1423.11 1272.1,1423.85 1269.86,1424.56 1267.61,1425.24 1265.35,1425.91 1263.09,1426.55 1260.82,1427.17 1258.54,1427.77 
  1256.26,1428.34 1253.98,1428.89 1251.69,1429.42 1249.39,1429.93 1247.09,1430.41 1244.78,1430.87 1242.47,1431.3 1240.16,1431.72 1237.84,1432.11 1235.51,1432.47 
  1233.19,1432.82 1230.86,1433.14 1228.52,1433.43 1226.19,1433.71 1223.85,1433.96 1221.51,1434.18 1219.17,1434.39 1216.82,1434.57 1214.48,1434.72 1212.13,1434.86 
  1209.78,1434.97 1207.43,1435.05 1205.08,1435.12 1202.73,1435.15 1200.37,1435.17 1198.02,1435.16 1195.67,1435.13 1193.32,1435.08 1190.97,1435 1188.62,1434.9 
  1186.27,1434.77 1183.93,1434.62 1181.58,1434.45 1179.24,1434.25 1176.89,1434.03 1174.56,1433.79 1172.22,1433.52 1169.89,1433.23 1167.55,1432.92 1165.23,1432.59 
  1162.9,1432.23 1160.58,1431.84 1158.27,1431.44 1155.95,1431.01 1153.65,1430.56 1151.34,1430.08 1149.04,1429.58 1146.75,1429.06 1144.46,1428.52 1142.18,1427.95 
  1139.9,1427.36 1137.63,1426.75 1135.37,1426.12 1133.11,1425.46 1130.86,1424.78 1128.62,1424.07 1126.38,1423.35 1124.15,1422.6 1121.93,1421.83 1119.71,1421.04 
  1117.51,1420.23 1115.31,1419.39 1113.12,1418.53 1110.94,1417.65 1108.77,1416.75 1106.6,1415.83 1104.45,1414.88 1102.3,1413.92 1100.17,1412.93 1098.05,1411.92 
  1095.93,1410.89 1093.83,1409.84 1091.74,1408.77 1089.65,1407.67 1087.58,1406.56 1085.52,1405.43 1083.47,1404.27 1081.44,1403.1 1079.41,1401.9 1077.4,1400.68 
  1075.4,1399.45 1073.41,1398.19 1071.43,1396.92 1069.47,1395.62 1067.52,1394.31 1065.59,1392.97 1063.66,1391.62 1061.75,1390.24 1059.86,1388.85 1057.98,1387.44 
  1056.11,1386.01 1054.26,1384.56 1052.42,1383.1 1050.59,1381.61 1048.79,1380.11 1046.99,1378.59 1045.21,1377.05 1043.45,1375.49 1041.7,1373.92 1039.97,1372.33 
  1038.26,1370.72 1036.56,1369.09 1034.88,1367.45 1033.21,1365.79 1031.56,1364.11 1029.93,1362.42 1028.31,1360.71 1026.71,1358.99 1025.13,1357.25 1023.57,1355.49 
  1022.02,1353.72 1020.49,1351.93 1018.98,1350.13 1017.49,1348.31 1016.02,1346.48 1014.56,1344.63 1013.13,1342.77 1011.71,1340.89 1010.31,1339 1008.93,1337.1 
  1007.57,1335.18 1006.22,1333.25 1004.9,1331.31 1003.6,1329.35 1002.31,1327.38 1001.05,1325.4 999.806,1323.4 998.582,1321.39 997.378,1319.37 996.194,1317.34 
  995.031,1315.29 993.888,1313.24 992.766,1311.17 991.665,1309.09 990.584,1307.01 989.525,1304.91 988.486,1302.8 987.469,1300.68 986.473,1298.55 985.498,1296.41 
  984.545,1294.26 983.613,1292.1 982.703,1289.93 981.814,1287.75 980.948,1285.56 980.103,1283.37 979.28,1281.17 978.48,1278.96 977.701,1276.74 976.945,1274.51 
  976.211,1272.28 975.5,1270.03 974.811,1267.79 974.144,1265.53 973.5,1263.27 972.879,1261 972.28,1258.73 971.704,1256.45 971.151,1254.16 970.621,1251.87 
  970.114,1249.57 969.629,1247.27 969.168,1244.97 968.73,1242.66 968.315,1240.34 967.923,1238.02 967.555,1235.7 967.209,1233.37 966.887,1231.04 966.589,1228.71 
  966.313,1226.37 966.061,1224.04 965.832,1221.7 965.627,1219.35 965.445,1217.01 965.287,1214.66 965.152,1212.31 965.041,1209.97 964.953,1207.62 964.888,1205.26 
  964.847,1202.91 964.83,1200.56 964.836,1198.21 964.866,1195.86 964.919,1193.51 964.996,1191.16 965.096,1188.81 965.22,1186.46 965.367,1184.11 965.537,1181.77 
  965.731,1179.42 965.949,1177.08 966.19,1174.74 966.454,1172.41 966.742,1170.07 967.053,1167.74 967.387,1165.41 967.744,1163.09 968.125,1160.77 968.529,1158.45 
  968.956,1156.14 969.406,1153.83 969.879,1151.53 970.376,1149.23 970.895,1146.93 971.437,1144.65 972.002,1142.36 972.59,1140.09 973.2,1137.81 973.833,1135.55 
  974.489,1133.29 975.168,1131.04 975.868,1128.79 976.592,1126.56 977.337,1124.33 978.105,1122.1 978.895,1119.89 979.707,1117.68 980.541,1115.48 981.398,1113.29 
  982.276,1111.11 983.175,1108.94 984.097,1106.77 985.04,1104.62 986.004,1102.48 986.99,1100.34 987.998,1098.22 989.026,1096.1 990.076,1094 991.146,1091.9 
  992.237,1089.82 993.35,1087.75 994.482,1085.69 995.636,1083.64 996.81,1081.6 998.004,1079.57 999.218,1077.56 1000.45,1075.56 1001.71,1073.57 1002.98,1071.59 
  1004.28,1069.63 1005.59,1067.68 1006.92,1065.74 1008.27,1063.82 1009.65,1061.9 1011.04,1060.01 1012.45,1058.13 1013.87,1056.26 1015.32,1054.4 1016.79,1052.56 
  1018.27,1050.74 1019.77,1048.93 1021.29,1047.13 1022.83,1045.35 1024.38,1043.59 1025.96,1041.84 1027.55,1040.11 1029.15,1038.39 1030.78,1036.69 1032.42,1035.01 
  1034.08,1033.34 1035.75,1031.69 1037.44,1030.06 1039.15,1028.44 1040.87,1026.84 1042.61,1025.26 1044.37,1023.69 1046.14,1022.14 1047.93,1020.62 1049.73,1019.1 
  1051.54,1017.61 1053.38,1016.13 1055.22,1014.68 1057.08,1013.24 1058.96,1011.82 1060.85,1010.42 1062.75,1009.04 1064.67,1007.67 1066.6,1006.33 1068.54,1005 
  1070.49,1003.7 1072.46,1002.41 1074.45,1001.15 1076.44,999.904 1078.45,998.678 1080.47,997.473 1082.5,996.288 1084.54,995.123 1086.6,993.979 1088.66,992.855 
  1090.74,991.752 1092.83,990.67 1094.93,989.608 1097.03,988.568 1099.15,987.549 1101.28,986.551 1103.42,985.575 1105.57,984.62 1107.73,983.686 1109.9,982.774 
  1112.08,981.884 1114.26,981.016 1116.45,980.17 1118.66,979.345 1120.87,978.543 1123.09,977.763 1125.31,977.005 1127.55,976.269 1129.79,975.555 1132.03,974.865 
  1134.29,974.196 1136.55,973.55 1138.82,972.927 1141.09,972.327 1143.37,971.749 1145.66,971.194 1147.95,970.662 1150.24,970.153 1152.54,969.667 1154.85,969.204 
  1157.16,968.764 1159.48,968.347 1161.79,967.954 1164.12,967.583 1166.44,967.236 1168.77,966.912 1171.1,966.611 1173.44,966.334 1175.78,966.08 1178.12,965.85 
  1180.46,965.643 1182.8,965.459 1185.15,965.299 1187.5,965.162 1189.85,965.049 1192.2,964.959 1194.55,964.893 1196.9,964.85 1199.25,964.831 
  "/>
<path clip-path="url(#clip810)" d="M1326.5 910.824 L1314.9 957.511 Q1314.57 958.987 1314.57 959.355 Q1314.57 959.847 1314.69 960.052 Q1314.85 960.298 1315.76 960.503 Q1316.7 960.708 1318.58 960.708 Q1319.28 960.708 1319.53 960.708 Q1319.77 960.708 1320.14 960.79 Q1320.51 960.872 1320.63 961.077 Q1320.76 961.282 1320.76 961.61 Q1320.76 963.29 1319.28 963.29 Q1317.89 963.29 1314.98 963.167 Q1312.07 963.044 1310.63 963.044 Q1309.24 963.044 1306.41 963.167 Q1303.58 963.29 1302.23 963.29 Q1301.74 963.29 1301.45 963.044 Q1301.16 962.84 1301.16 962.594 L1301.12 962.389 Q1301.12 961.241 1301.57 960.954 Q1302.02 960.708 1303.05 960.708 Q1306.57 960.667 1307.6 960.175 Q1308.62 959.683 1309.12 957.921 L1312.89 942.919 Q1307.85 947.96 1302.97 947.96 Q1298.25 947.96 1295.06 944.271 Q1291.9 940.541 1291.9 934.516 Q1291.9 930.048 1293.66 925.539 Q1295.47 921.03 1298.25 917.628 Q1301.08 914.226 1304.77 912.095 Q1308.46 909.922 1312.11 909.922 Q1314.44 909.922 1316.53 911.275 Q1318.67 912.628 1319.94 915.784 Q1321 913.98 1322.97 912.013 Q1324.94 910.004 1325.63 910.004 Q1326.04 910.004 1326.25 910.291 Q1326.5 910.537 1326.5 910.824 M1318.75 919.145 Q1318.75 918.735 1318.42 917.71 Q1318.13 916.686 1317.48 915.292 Q1316.86 913.857 1315.43 912.833 Q1313.99 911.767 1312.11 911.767 Q1309.4 911.767 1306.49 914.39 Q1303.62 916.973 1301.74 921.481 Q1300.55 924.433 1299.2 929.925 Q1297.84 935.418 1297.84 938.205 Q1297.84 938.861 1297.88 939.599 Q1297.97 940.336 1298.29 941.566 Q1298.62 942.796 1299.11 943.739 Q1299.65 944.681 1300.71 945.378 Q1301.78 946.075 1303.21 946.075 Q1306.33 946.075 1309.44 943.411 Q1312.56 940.746 1313.87 938.369 Q1314.03 938.123 1316.37 928.818 Q1318.75 919.514 1318.75 919.145 Z" fill="#000000" fill-rule="evenodd" fill-opacity="1" /><path clip-path="url(#clip810)" d="M1335.11 952.843 L1335.11 951.007 Q1342.17 951.007 1345.81 947.248 Q1346.82 947.248 1346.99 947.478 Q1347.16 947.707 1347.16 948.769 L1347.16 981.736 Q1347.16 983.487 1348.02 984.032 Q1348.88 984.577 1352.64 984.577 L1354.51 984.577 L1354.51 986.385 Q1352.44 986.212 1344.98 986.212 Q1337.52 986.212 1335.48 986.385 L1335.48 984.577 L1337.35 984.577 Q1341.05 984.577 1341.94 984.06 Q1342.83 983.515 1342.83 981.736 L1342.83 951.294 Q1339.76 952.843 1335.11 952.843 Z" fill="#000000" fill-rule="evenodd" fill-opacity="1" /><path clip-path="url(#clip810)" d="M1495.59 1219.53 L1483.99 1266.21 Q1483.66 1267.69 1483.66 1268.06 Q1483.66 1268.55 1483.78 1268.76 Q1483.95 1269 1484.85 1269.21 Q1485.79 1269.41 1487.68 1269.41 Q1488.37 1269.41 1488.62 1269.41 Q1488.87 1269.41 1489.24 1269.49 Q1489.6 1269.58 1489.73 1269.78 Q1489.85 1269.99 1489.85 1270.31 Q1489.85 1271.99 1488.37 1271.99 Q1486.98 1271.99 1484.07 1271.87 Q1481.16 1271.75 1479.73 1271.75 Q1478.33 1271.75 1475.5 1271.87 Q1472.68 1271.99 1471.32 1271.99 Q1470.83 1271.99 1470.54 1271.75 Q1470.26 1271.54 1470.26 1271.3 L1470.22 1271.09 Q1470.22 1269.94 1470.67 1269.66 Q1471.12 1269.41 1472.14 1269.41 Q1475.67 1269.37 1476.69 1268.88 Q1477.72 1268.39 1478.21 1266.62 L1481.98 1251.62 Q1476.94 1256.66 1472.06 1256.66 Q1467.35 1256.66 1464.15 1252.97 Q1460.99 1249.24 1460.99 1243.22 Q1460.99 1238.75 1462.76 1234.24 Q1464.56 1229.73 1467.35 1226.33 Q1470.18 1222.93 1473.86 1220.8 Q1477.55 1218.63 1481.2 1218.63 Q1483.54 1218.63 1485.63 1219.98 Q1487.76 1221.33 1489.03 1224.49 Q1490.1 1222.68 1492.06 1220.72 Q1494.03 1218.71 1494.73 1218.71 Q1495.14 1218.71 1495.34 1218.99 Q1495.59 1219.24 1495.59 1219.53 M1487.84 1227.85 Q1487.84 1227.44 1487.51 1226.41 Q1487.23 1225.39 1486.57 1224 Q1485.96 1222.56 1484.52 1221.54 Q1483.09 1220.47 1481.2 1220.47 Q1478.5 1220.47 1475.59 1223.09 Q1472.72 1225.68 1470.83 1230.18 Q1469.64 1233.14 1468.29 1238.63 Q1466.94 1244.12 1466.94 1246.91 Q1466.94 1247.56 1466.98 1248.3 Q1467.06 1249.04 1467.39 1250.27 Q1467.72 1251.5 1468.21 1252.44 Q1468.74 1253.38 1469.81 1254.08 Q1470.87 1254.78 1472.31 1254.78 Q1475.42 1254.78 1478.54 1252.11 Q1481.65 1249.45 1482.96 1247.07 Q1483.13 1246.83 1485.46 1237.52 Q1487.84 1228.22 1487.84 1227.85 Z" fill="#000000" fill-rule="evenodd" fill-opacity="1" /><path clip-path="url(#clip810)" d="M1504.2 1295.09 Q1504.2 1294.03 1504.29 1293.71 Q1504.4 1293.4 1504.86 1292.91 L1516.14 1280.34 Q1522.31 1273.4 1522.31 1267.34 Q1522.31 1263.41 1520.24 1260.6 Q1518.21 1257.79 1514.45 1257.79 Q1511.86 1257.79 1509.68 1259.37 Q1507.5 1260.94 1506.5 1263.76 Q1506.67 1263.7 1507.27 1263.7 Q1508.74 1263.7 1509.54 1264.62 Q1510.37 1265.53 1510.37 1266.77 Q1510.37 1268.35 1509.34 1269.12 Q1508.34 1269.87 1507.33 1269.87 Q1506.93 1269.87 1506.38 1269.78 Q1505.87 1269.7 1505.04 1268.89 Q1504.2 1268.06 1504.2 1266.6 Q1504.2 1262.49 1507.3 1259.22 Q1510.43 1255.95 1515.19 1255.95 Q1520.59 1255.95 1524.12 1259.16 Q1527.67 1262.35 1527.67 1267.34 Q1527.67 1269.09 1527.13 1270.7 Q1526.61 1272.28 1525.9 1273.51 Q1525.21 1274.74 1523.31 1276.72 Q1521.42 1278.7 1519.9 1280.11 Q1518.38 1281.52 1514.96 1284.5 L1508.74 1290.55 L1519.33 1290.55 Q1524.49 1290.55 1524.89 1290.1 Q1525.47 1289.26 1526.18 1284.87 L1527.67 1284.87 L1526.01 1295.09 L1504.2 1295.09 Z" fill="#000000" fill-rule="evenodd" fill-opacity="1" /></svg>
