<?xml version="1.0" encoding="UTF-8"?>
<svg xmlns="http://www.w3.org/2000/svg"
     xmlns:xlink="http://www.w3.org/1999/xlink"
     version="1.2"
     width="141.42mm" height="100mm" viewBox="0 0 141.42 100"
     stroke="none"
     fill="#000000"
     stroke-width="0.3"
     font-size="3.88"
>
<defs>
  <marker id="arrow" markerWidth="15" markerHeight="7" refX="5" refY="3.5" orient="auto" markerUnits="strokeWidth">
    <path d="M0,0 L15,3.5 L0,7 z" stroke="context-stroke" fill="context-stroke"/>
  </marker>
</defs>
<g stroke-width="1.5" fill="#000000" fill-opacity="0.000" stroke="#D3D3D3" id="img-883166ed-1">
  <g transform="translate(69.85,75.27)">
    <path fill="none" d="M-51.22,14.47 L51.22,-14.47 " class="primitive"/>
  </g>
  <g transform="translate(13.12,66.07)">
    <path fill="none" d="M-1.06,20.39 L1.06,-20.39 " class="primitive"/>
  </g>
  <g transform="translate(71.18,49.67)">
    <path fill="none" d="M49.55,8.03 L-49.55,-8.03 " class="primitive"/>
  </g>
  <g transform="translate(128.77,33.6)">
    <path fill="none" d="M-0.68,20.06 L0.68,-20.06 " class="primitive"/>
  </g>
  <g transform="translate(72.04,24.4)">
    <path fill="none" d="M50.74,-14.16 L-50.74,14.16 " class="primitive"/>
  </g>
</g>
<g stroke-width="1.5" stroke="#D3D3D3" id="img-883166ed-2">
  <g transform="translate(117.65,61.76)">
    <path fill="none" d="M-2.46,-0.84 L3.43,-0.97 -0.97,1.81 " class="primitive"/>
  </g>
  <g transform="translate(14.04,48.28)">
    <path fill="none" d="M-2.08,1.25 L0.14,-2.61 1.95,1.36 " class="primitive"/>
  </g>
  <g transform="translate(25.23,42.22)">
    <path fill="none" d="M1.35,1.68 L-3.6,-0.58 2.25,-1.1 " class="primitive"/>
  </g>
  <g transform="translate(129.37,16.15)">
    <path fill="none" d="M-2.06,1.27 L0.09,-2.61 1.97,1.34 " class="primitive"/>
  </g>
  <g transform="translate(24.73,37.6)">
    <path fill="none" d="M2.46,0.85 L-3.43,0.96 0.98,-1.8 " class="primitive"/>
  </g>
</g>
<g font-size="4" stroke="#000000" stroke-opacity="0.000" fill="#000000" id="img-883166ed-3">
  <g transform="translate(98.88,67.06)">
    <g class="primitive">
      <text text-anchor="middle" dy="0.35em">b1</text>
    </g>
  </g>
  <g transform="translate(13.78,53.27)">
    <g class="primitive">
      <text text-anchor="middle" dy="0.35em">b2</text>
    </g>
  </g>
  <g transform="translate(42.81,45.07)">
    <g class="primitive">
      <text text-anchor="middle" dy="0.35em">b3</text>
    </g>
  </g>
  <g transform="translate(129.21,20.97)">
    <g class="primitive">
      <text text-anchor="middle" dy="0.35em">b4</text>
    </g>
  </g>
  <g transform="translate(43.25,32.44)">
    <g class="primitive">
      <text text-anchor="middle" dy="0.35em">b5</text>
    </g>
  </g>
</g>
<g stroke-width="0" stroke="#000000" stroke-opacity="0.000" fill="#40E0D0" id="img-883166ed-4">
  <g transform="translate(11.79,91.67)">
    <circle cx="0" cy="0" r="7.07" class="primitive"/>
  </g>
  <g transform="translate(127.91,58.86)">
    <circle cx="0" cy="0" r="7.07" class="primitive"/>
  </g>
  <g transform="translate(14.45,40.47)">
    <circle cx="0" cy="0" r="7.07" class="primitive"/>
  </g>
  <g transform="translate(129.64,8.33)">
    <circle cx="0" cy="0" r="7.07" class="primitive"/>
  </g>
</g>
<g font-size="4" stroke="#000000" stroke-opacity="0.000" fill="#000000" id="img-883166ed-5">
  <g transform="translate(11.79,91.67)">
    <g class="primitive">
      <text text-anchor="middle" dy="0.35em">x1</text>
    </g>
  </g>
  <g transform="translate(127.91,58.86)">
    <g class="primitive">
      <text text-anchor="middle" dy="0.35em">x2</text>
    </g>
  </g>
  <g transform="translate(14.45,40.47)">
    <g class="primitive">
      <text text-anchor="middle" dy="0.35em">x3</text>
    </g>
  </g>
  <g transform="translate(129.64,8.33)">
    <g class="primitive">
      <text text-anchor="middle" dy="0.35em">x4</text>
    </g>
  </g>
</g>
</svg>
