<?xml version="1.0" encoding="utf-8"?>
<svg xmlns="http://www.w3.org/2000/svg" xmlns:xlink="http://www.w3.org/1999/xlink" width="600" height="400" viewBox="0 0 2400 1600">
<defs>
  <clipPath id="clip970">
    <rect x="0" y="0" width="2400" height="1600"/>
  </clipPath>
</defs>
<path clip-path="url(#clip970)" d="
M0 1600 L2400 1600 L2400 0 L0 0  Z
  " fill="#ffffff" fill-rule="evenodd" fill-opacity="1"/>
<defs>
  <clipPath id="clip971">
    <rect x="480" y="0" width="1681" height="1600"/>
  </clipPath>
</defs>
<defs>
  <clipPath id="clip972">
    <rect x="257" y="47" width="2096" height="1377"/>
  </clipPath>
</defs>
<path clip-path="url(#clip972)" d="
M1078.7 1006.4 L1078.7 514.734 L1185.46 268.904 L1370.38 410.834 L1370.38 902.495 L1263.62 1148.33 L1078.7 1006.4  Z
  " fill="#ffffff" fill-rule="evenodd" fill-opacity="1"/>
<polyline clip-path="url(#clip972)" style="stroke:#000000; stroke-linecap:round; stroke-linejoin:round; stroke-width:2; stroke-opacity:0.1; fill:none" points="
  895.103,1190.17 1292.3,846.19 1292.3,158.222 
  "/>
<polyline clip-path="url(#clip972)" style="stroke:#000000; stroke-linecap:round; stroke-linejoin:round; stroke-width:2; stroke-opacity:0.1; fill:none" points="
  1080.03,1243.56 1477.22,899.572 1477.22,211.604 
  "/>
<polyline clip-path="url(#clip972)" style="stroke:#000000; stroke-linecap:round; stroke-linejoin:round; stroke-width:2; stroke-opacity:0.1; fill:none" points="
  1264.95,1296.94 1662.15,952.955 1662.15,264.987 
  "/>
<polyline clip-path="url(#clip972)" style="stroke:#000000; stroke-linecap:round; stroke-linejoin:round; stroke-width:2; stroke-opacity:0.1; fill:none" points="
  1449.87,1350.32 1847.07,1006.34 1847.07,318.369 
  "/>
<polyline clip-path="url(#clip970)" style="stroke:#000000; stroke-linecap:round; stroke-linejoin:round; stroke-width:4; stroke-opacity:1; fill:none" points="
  762.478,1151.89 1450.45,1350.49 
  "/>
<polyline clip-path="url(#clip970)" style="stroke:#000000; stroke-linecap:round; stroke-linejoin:round; stroke-width:4; stroke-opacity:1; fill:none" points="
  895.103,1190.17 899.869,1186.05 
  "/>
<polyline clip-path="url(#clip970)" style="stroke:#000000; stroke-linecap:round; stroke-linejoin:round; stroke-width:4; stroke-opacity:1; fill:none" points="
  1080.03,1243.56 1084.79,1239.43 
  "/>
<polyline clip-path="url(#clip970)" style="stroke:#000000; stroke-linecap:round; stroke-linejoin:round; stroke-width:4; stroke-opacity:1; fill:none" points="
  1264.95,1296.94 1269.71,1292.81 
  "/>
<polyline clip-path="url(#clip970)" style="stroke:#000000; stroke-linecap:round; stroke-linejoin:round; stroke-width:4; stroke-opacity:1; fill:none" points="
  1449.87,1350.32 1454.64,1346.19 
  "/>
<path clip-path="url(#clip970)" d="M817.452 1213.47 L847.128 1213.47 L847.128 1217.41 L817.452 1217.41 L817.452 1213.47 Z" fill="#000000" fill-rule="evenodd" fill-opacity="1" /><path clip-path="url(#clip970)" d="M861.249 1226.37 L877.568 1226.37 L877.568 1230.3 L855.624 1230.3 L855.624 1226.37 Q858.286 1223.61 862.869 1218.98 Q867.475 1214.33 868.656 1212.99 Q870.901 1210.46 871.781 1208.73 Q872.684 1206.97 872.684 1205.28 Q872.684 1202.52 870.739 1200.79 Q868.818 1199.05 865.716 1199.05 Q863.517 1199.05 861.063 1199.81 Q858.633 1200.58 855.855 1202.13 L855.855 1197.41 Q858.679 1196.27 861.133 1195.69 Q863.586 1195.12 865.624 1195.12 Q870.994 1195.12 874.188 1197.8 Q877.383 1200.49 877.383 1204.98 Q877.383 1207.11 876.573 1209.03 Q875.786 1210.93 873.679 1213.52 Q873.1 1214.19 869.998 1217.41 Q866.897 1220.6 861.249 1226.37 Z" fill="#000000" fill-rule="evenodd" fill-opacity="1" /><path clip-path="url(#clip970)" d="M1050.55 1252.2 Q1046.93 1252.2 1045.11 1255.77 Q1043.3 1259.31 1043.3 1266.44 Q1043.3 1273.54 1045.11 1277.11 Q1046.93 1280.65 1050.55 1280.65 Q1054.18 1280.65 1055.99 1277.11 Q1057.81 1273.54 1057.81 1266.44 Q1057.81 1259.31 1055.99 1255.77 Q1054.18 1252.2 1050.55 1252.2 M1050.55 1248.5 Q1056.36 1248.5 1059.41 1253.1 Q1062.49 1257.69 1062.49 1266.44 Q1062.49 1275.16 1059.41 1279.77 Q1056.36 1284.35 1050.55 1284.35 Q1044.74 1284.35 1041.66 1279.77 Q1038.6 1275.16 1038.6 1266.44 Q1038.6 1257.69 1041.66 1253.1 Q1044.74 1248.5 1050.55 1248.5 Z" fill="#000000" fill-rule="evenodd" fill-opacity="1" /><path clip-path="url(#clip970)" d="M1231.09 1333.13 L1247.41 1333.13 L1247.41 1337.07 L1225.47 1337.07 L1225.47 1333.13 Q1228.13 1330.38 1232.71 1325.75 Q1237.32 1321.09 1238.5 1319.75 Q1240.75 1317.23 1241.63 1315.49 Q1242.53 1313.73 1242.53 1312.04 Q1242.53 1309.29 1240.58 1307.55 Q1238.66 1305.82 1235.56 1305.82 Q1233.36 1305.82 1230.91 1306.58 Q1228.48 1307.34 1225.7 1308.89 L1225.7 1304.17 Q1228.52 1303.04 1230.98 1302.46 Q1233.43 1301.88 1235.47 1301.88 Q1240.84 1301.88 1244.03 1304.57 Q1247.23 1307.25 1247.23 1311.74 Q1247.23 1313.87 1246.42 1315.79 Q1245.63 1317.69 1243.52 1320.28 Q1242.94 1320.95 1239.84 1324.17 Q1236.74 1327.37 1231.09 1333.13 Z" fill="#000000" fill-rule="evenodd" fill-opacity="1" /><path clip-path="url(#clip970)" d="M1422.75 1359.96 L1410.95 1378.41 L1422.75 1378.41 L1422.75 1359.96 M1421.52 1355.89 L1427.4 1355.89 L1427.4 1378.41 L1432.33 1378.41 L1432.33 1382.3 L1427.4 1382.3 L1427.4 1390.45 L1422.75 1390.45 L1422.75 1382.3 L1407.15 1382.3 L1407.15 1377.79 L1421.52 1355.89 Z" fill="#000000" fill-rule="evenodd" fill-opacity="1" /><path clip-path="url(#clip970)" d="M932.83 1389.1 L932.83 1406.95 L940.914 1406.95 Q945.402 1406.95 947.853 1404.63 Q950.304 1402.3 950.304 1398.01 Q950.304 1393.74 947.853 1391.42 Q945.402 1389.1 940.914 1389.1 L932.83 1389.1 M926.401 1383.81 L940.914 1383.81 Q948.903 1383.81 952.977 1387.44 Q957.083 1391.04 957.083 1398.01 Q957.083 1405.04 952.977 1408.64 Q948.903 1412.23 940.914 1412.23 L932.83 1412.23 L932.83 1431.33 L926.401 1431.33 L926.401 1383.81 Z" fill="#000000" fill-rule="evenodd" fill-opacity="1" /><path clip-path="url(#clip970)" d="M1001.29 1387.47 L1001.29 1394.25 Q998.047 1391.23 994.354 1389.73 Q990.694 1388.24 986.556 1388.24 Q978.408 1388.24 974.08 1393.23 Q969.751 1398.2 969.751 1407.62 Q969.751 1417.01 974.08 1422.01 Q978.408 1426.97 986.556 1426.97 Q990.694 1426.97 994.354 1425.48 Q998.047 1423.98 1001.29 1420.96 L1001.29 1427.67 Q997.919 1429.96 994.132 1431.11 Q990.376 1432.25 986.175 1432.25 Q975.385 1432.25 969.178 1425.67 Q962.972 1419.05 962.972 1407.62 Q962.972 1396.16 969.178 1389.57 Q975.385 1382.95 986.175 1382.95 Q990.44 1382.95 994.195 1384.1 Q997.983 1385.21 1001.29 1387.47 Z" fill="#000000" fill-rule="evenodd" fill-opacity="1" /><path clip-path="url(#clip970)" d="M1012.91 1425.92 L1023.41 1425.92 L1023.41 1389.67 L1011.99 1391.96 L1011.99 1386.1 L1023.35 1383.81 L1029.78 1383.81 L1029.78 1425.92 L1040.28 1425.92 L1040.28 1431.33 L1012.91 1431.33 L1012.91 1425.92 Z" fill="#000000" fill-rule="evenodd" fill-opacity="1" /><polyline clip-path="url(#clip972)" style="stroke:#000000; stroke-linecap:round; stroke-linejoin:round; stroke-width:2; stroke-opacity:0.1; fill:none" points="
  1514.79,1294.76 826.825,1096.16 826.825,408.194 
  "/>
<polyline clip-path="url(#clip972)" style="stroke:#000000; stroke-linecap:round; stroke-linejoin:round; stroke-width:2; stroke-opacity:0.1; fill:none" points="
  1585.76,1233.3 897.79,1034.7 897.79,346.737 
  "/>
<polyline clip-path="url(#clip972)" style="stroke:#000000; stroke-linecap:round; stroke-linejoin:round; stroke-width:2; stroke-opacity:0.1; fill:none" points="
  1656.72,1171.85 968.755,973.247 968.755,285.279 
  "/>
<polyline clip-path="url(#clip972)" style="stroke:#000000; stroke-linecap:round; stroke-linejoin:round; stroke-width:2; stroke-opacity:0.1; fill:none" points="
  1727.69,1110.39 1039.72,911.789 1039.72,223.821 
  "/>
<polyline clip-path="url(#clip972)" style="stroke:#000000; stroke-linecap:round; stroke-linejoin:round; stroke-width:2; stroke-opacity:0.1; fill:none" points="
  1798.65,1048.93 1110.69,850.332 1110.69,162.364 
  "/>
<polyline clip-path="url(#clip970)" style="stroke:#000000; stroke-linecap:round; stroke-linejoin:round; stroke-width:4; stroke-opacity:1; fill:none" points="
  1450.45,1350.49 1847.64,1006.5 
  "/>
<polyline clip-path="url(#clip970)" style="stroke:#000000; stroke-linecap:round; stroke-linejoin:round; stroke-width:4; stroke-opacity:1; fill:none" points="
  1514.79,1294.76 1506.54,1292.38 
  "/>
<polyline clip-path="url(#clip970)" style="stroke:#000000; stroke-linecap:round; stroke-linejoin:round; stroke-width:4; stroke-opacity:1; fill:none" points="
  1585.76,1233.3 1577.5,1230.92 
  "/>
<polyline clip-path="url(#clip970)" style="stroke:#000000; stroke-linecap:round; stroke-linejoin:round; stroke-width:4; stroke-opacity:1; fill:none" points="
  1656.72,1171.85 1648.47,1169.46 
  "/>
<polyline clip-path="url(#clip970)" style="stroke:#000000; stroke-linecap:round; stroke-linejoin:round; stroke-width:4; stroke-opacity:1; fill:none" points="
  1727.69,1110.39 1719.43,1108.01 
  "/>
<polyline clip-path="url(#clip970)" style="stroke:#000000; stroke-linecap:round; stroke-linejoin:round; stroke-width:4; stroke-opacity:1; fill:none" points="
  1798.65,1048.93 1790.4,1046.55 
  "/>
<path clip-path="url(#clip970)" d="M1541.21 1306.69 L1570.88 1306.69 L1570.88 1310.62 L1541.21 1310.62 L1541.21 1306.69 Z" fill="#000000" fill-rule="evenodd" fill-opacity="1" /><path clip-path="url(#clip970)" d="M1581.79 1319.58 L1589.43 1319.58 L1589.43 1293.21 L1581.12 1294.88 L1581.12 1290.62 L1589.38 1288.95 L1594.06 1288.95 L1594.06 1319.58 L1601.69 1319.58 L1601.69 1323.51 L1581.79 1323.51 L1581.79 1319.58 Z" fill="#000000" fill-rule="evenodd" fill-opacity="1" /><path clip-path="url(#clip970)" d="M1611.14 1317.63 L1616.02 1317.63 L1616.02 1323.51 L1611.14 1323.51 L1611.14 1317.63 Z" fill="#000000" fill-rule="evenodd" fill-opacity="1" /><path clip-path="url(#clip970)" d="M1636.21 1292.03 Q1632.6 1292.03 1630.77 1295.6 Q1628.96 1299.14 1628.96 1306.27 Q1628.96 1313.38 1630.77 1316.94 Q1632.6 1320.48 1636.21 1320.48 Q1639.84 1320.48 1641.65 1316.94 Q1643.48 1313.38 1643.48 1306.27 Q1643.48 1299.14 1641.65 1295.6 Q1639.84 1292.03 1636.21 1292.03 M1636.21 1288.33 Q1642.02 1288.33 1645.07 1292.94 Q1648.15 1297.52 1648.15 1306.27 Q1648.15 1315 1645.07 1319.6 Q1642.02 1324.19 1636.21 1324.19 Q1630.4 1324.19 1627.32 1319.6 Q1624.26 1315 1624.26 1306.27 Q1624.26 1297.52 1627.32 1292.94 Q1630.4 1288.33 1636.21 1288.33 Z" fill="#000000" fill-rule="evenodd" fill-opacity="1" /><path clip-path="url(#clip970)" d="M1612.17 1245.23 L1641.85 1245.23 L1641.85 1249.16 L1612.17 1249.16 L1612.17 1245.23 Z" fill="#000000" fill-rule="evenodd" fill-opacity="1" /><path clip-path="url(#clip970)" d="M1661.94 1230.58 Q1658.33 1230.58 1656.5 1234.14 Q1654.7 1237.68 1654.7 1244.81 Q1654.7 1251.92 1656.5 1255.48 Q1658.33 1259.02 1661.94 1259.02 Q1665.58 1259.02 1667.38 1255.48 Q1669.21 1251.92 1669.21 1244.81 Q1669.21 1237.68 1667.38 1234.14 Q1665.58 1230.58 1661.94 1230.58 M1661.94 1226.87 Q1667.75 1226.87 1670.81 1231.48 Q1673.89 1236.06 1673.89 1244.81 Q1673.89 1253.54 1670.81 1258.14 Q1667.75 1262.73 1661.94 1262.73 Q1656.13 1262.73 1653.05 1258.14 Q1650 1253.54 1650 1244.81 Q1650 1236.06 1653.05 1231.48 Q1656.13 1226.87 1661.94 1226.87 Z" fill="#000000" fill-rule="evenodd" fill-opacity="1" /><path clip-path="url(#clip970)" d="M1682.1 1256.18 L1686.99 1256.18 L1686.99 1262.06 L1682.1 1262.06 L1682.1 1256.18 Z" fill="#000000" fill-rule="evenodd" fill-opacity="1" /><path clip-path="url(#clip970)" d="M1697.22 1227.5 L1715.58 1227.5 L1715.58 1231.43 L1701.5 1231.43 L1701.5 1239.9 Q1702.52 1239.56 1703.54 1239.39 Q1704.56 1239.21 1705.58 1239.21 Q1711.36 1239.21 1714.74 1242.38 Q1718.12 1245.55 1718.12 1250.97 Q1718.12 1256.55 1714.65 1259.65 Q1711.18 1262.73 1704.86 1262.73 Q1702.68 1262.73 1700.41 1262.36 Q1698.17 1261.99 1695.76 1261.25 L1695.76 1256.55 Q1697.84 1257.68 1700.07 1258.24 Q1702.29 1258.79 1704.77 1258.79 Q1708.77 1258.79 1711.11 1256.69 Q1713.45 1254.58 1713.45 1250.97 Q1713.45 1247.36 1711.11 1245.25 Q1708.77 1243.14 1704.77 1243.14 Q1702.89 1243.14 1701.02 1243.56 Q1699.16 1243.98 1697.22 1244.86 L1697.22 1227.5 Z" fill="#000000" fill-rule="evenodd" fill-opacity="1" /><path clip-path="url(#clip970)" d="M1695.08 1169.12 Q1691.47 1169.12 1689.64 1172.68 Q1687.84 1176.22 1687.84 1183.35 Q1687.84 1190.46 1689.64 1194.02 Q1691.47 1197.57 1695.08 1197.57 Q1698.72 1197.57 1700.52 1194.02 Q1702.35 1190.46 1702.35 1183.35 Q1702.35 1176.22 1700.52 1172.68 Q1698.72 1169.12 1695.08 1169.12 M1695.08 1165.41 Q1700.89 1165.41 1703.95 1170.02 Q1707.03 1174.6 1707.03 1183.35 Q1707.03 1192.08 1703.95 1196.69 Q1700.89 1201.27 1695.08 1201.27 Q1689.27 1201.27 1686.19 1196.69 Q1683.14 1192.08 1683.14 1183.35 Q1683.14 1174.6 1686.19 1170.02 Q1689.27 1165.41 1695.08 1165.41 Z" fill="#000000" fill-rule="evenodd" fill-opacity="1" /><path clip-path="url(#clip970)" d="M1715.25 1194.72 L1720.13 1194.72 L1720.13 1200.6 L1715.25 1200.6 L1715.25 1194.72 Z" fill="#000000" fill-rule="evenodd" fill-opacity="1" /><path clip-path="url(#clip970)" d="M1740.31 1169.12 Q1736.7 1169.12 1734.88 1172.68 Q1733.07 1176.22 1733.07 1183.35 Q1733.07 1190.46 1734.88 1194.02 Q1736.7 1197.57 1740.31 1197.57 Q1743.95 1197.57 1745.75 1194.02 Q1747.58 1190.46 1747.58 1183.35 Q1747.58 1176.22 1745.75 1172.68 Q1743.95 1169.12 1740.31 1169.12 M1740.31 1165.41 Q1746.12 1165.41 1749.18 1170.02 Q1752.26 1174.6 1752.26 1183.35 Q1752.26 1192.08 1749.18 1196.69 Q1746.12 1201.27 1740.31 1201.27 Q1734.5 1201.27 1731.43 1196.69 Q1728.37 1192.08 1728.37 1183.35 Q1728.37 1174.6 1731.43 1170.02 Q1734.5 1165.41 1740.31 1165.41 Z" fill="#000000" fill-rule="evenodd" fill-opacity="1" /><path clip-path="url(#clip970)" d="M1766.05 1107.66 Q1762.44 1107.66 1760.61 1111.22 Q1758.8 1114.77 1758.8 1121.9 Q1758.8 1129 1760.61 1132.57 Q1762.44 1136.11 1766.05 1136.11 Q1769.68 1136.11 1771.49 1132.57 Q1773.32 1129 1773.32 1121.9 Q1773.32 1114.77 1771.49 1111.22 Q1769.68 1107.66 1766.05 1107.66 M1766.05 1103.96 Q1771.86 1103.96 1774.91 1108.56 Q1777.99 1113.15 1777.99 1121.9 Q1777.99 1130.62 1774.91 1135.23 Q1771.86 1139.81 1766.05 1139.81 Q1760.24 1139.81 1757.16 1135.23 Q1754.1 1130.62 1754.1 1121.9 Q1754.1 1113.15 1757.16 1108.56 Q1760.24 1103.96 1766.05 1103.96 Z" fill="#000000" fill-rule="evenodd" fill-opacity="1" /><path clip-path="url(#clip970)" d="M1786.21 1133.26 L1791.09 1133.26 L1791.09 1139.14 L1786.21 1139.14 L1786.21 1133.26 Z" fill="#000000" fill-rule="evenodd" fill-opacity="1" /><path clip-path="url(#clip970)" d="M1801.33 1104.58 L1819.68 1104.58 L1819.68 1108.52 L1805.61 1108.52 L1805.61 1116.99 Q1806.63 1116.64 1807.65 1116.48 Q1808.66 1116.29 1809.68 1116.29 Q1815.47 1116.29 1818.85 1119.47 Q1822.23 1122.64 1822.23 1128.05 Q1822.23 1133.63 1818.76 1136.73 Q1815.28 1139.81 1808.97 1139.81 Q1806.79 1139.81 1804.52 1139.44 Q1802.28 1139.07 1799.87 1138.33 L1799.87 1133.63 Q1801.95 1134.77 1804.17 1135.32 Q1806.4 1135.88 1808.87 1135.88 Q1812.88 1135.88 1815.22 1133.77 Q1817.55 1131.66 1817.55 1128.05 Q1817.55 1124.44 1815.22 1122.34 Q1812.88 1120.23 1808.87 1120.23 Q1807 1120.23 1805.12 1120.65 Q1803.27 1121.06 1801.33 1121.94 L1801.33 1104.58 Z" fill="#000000" fill-rule="evenodd" fill-opacity="1" /><path clip-path="url(#clip970)" d="M1825.74 1073.75 L1833.38 1073.75 L1833.38 1047.38 L1825.07 1049.05 L1825.07 1044.79 L1833.33 1043.12 L1838.01 1043.12 L1838.01 1073.75 L1845.65 1073.75 L1845.65 1077.68 L1825.74 1077.68 L1825.74 1073.75 Z" fill="#000000" fill-rule="evenodd" fill-opacity="1" /><path clip-path="url(#clip970)" d="M1855.09 1071.8 L1859.98 1071.8 L1859.98 1077.68 L1855.09 1077.68 L1855.09 1071.8 Z" fill="#000000" fill-rule="evenodd" fill-opacity="1" /><path clip-path="url(#clip970)" d="M1880.16 1046.2 Q1876.55 1046.2 1874.72 1049.77 Q1872.92 1053.31 1872.92 1060.44 Q1872.92 1067.54 1874.72 1071.11 Q1876.55 1074.65 1880.16 1074.65 Q1883.8 1074.65 1885.6 1071.11 Q1887.43 1067.54 1887.43 1060.44 Q1887.43 1053.31 1885.6 1049.77 Q1883.8 1046.2 1880.16 1046.2 M1880.16 1042.5 Q1885.97 1042.5 1889.03 1047.1 Q1892.11 1051.69 1892.11 1060.44 Q1892.11 1069.17 1889.03 1073.77 Q1885.97 1078.35 1880.16 1078.35 Q1874.35 1078.35 1871.27 1073.77 Q1868.22 1069.17 1868.22 1060.44 Q1868.22 1051.69 1871.27 1047.1 Q1874.35 1042.5 1880.16 1042.5 Z" fill="#000000" fill-rule="evenodd" fill-opacity="1" /><path clip-path="url(#clip970)" d="M1721.91 1316.4 L1721.91 1334.26 L1729.99 1334.26 Q1734.48 1334.26 1736.93 1331.94 Q1739.38 1329.61 1739.38 1325.32 Q1739.38 1321.05 1736.93 1318.73 Q1734.48 1316.4 1729.99 1316.4 L1721.91 1316.4 M1715.48 1311.12 L1729.99 1311.12 Q1737.98 1311.12 1742.06 1314.75 Q1746.16 1318.34 1746.16 1325.32 Q1746.16 1332.35 1742.06 1335.95 Q1737.98 1339.54 1729.99 1339.54 L1721.91 1339.54 L1721.91 1358.64 L1715.48 1358.64 L1715.48 1311.12 Z" fill="#000000" fill-rule="evenodd" fill-opacity="1" /><path clip-path="url(#clip970)" d="M1790.37 1314.78 L1790.37 1321.56 Q1787.12 1318.54 1783.43 1317.04 Q1779.77 1315.54 1775.63 1315.54 Q1767.49 1315.54 1763.16 1320.54 Q1758.83 1325.51 1758.83 1334.93 Q1758.83 1344.32 1763.16 1349.31 Q1767.49 1354.28 1775.63 1354.28 Q1779.77 1354.28 1783.43 1352.78 Q1787.12 1351.29 1790.37 1348.26 L1790.37 1354.98 Q1787 1357.27 1783.21 1358.42 Q1779.45 1359.56 1775.25 1359.56 Q1764.46 1359.56 1758.26 1352.97 Q1752.05 1346.35 1752.05 1334.93 Q1752.05 1323.47 1758.26 1316.88 Q1764.46 1310.26 1775.25 1310.26 Q1779.52 1310.26 1783.27 1311.41 Q1787.06 1312.52 1790.37 1314.78 Z" fill="#000000" fill-rule="evenodd" fill-opacity="1" /><path clip-path="url(#clip970)" d="M1806.41 1353.23 L1828.85 1353.23 L1828.85 1358.64 L1798.68 1358.64 L1798.68 1353.23 Q1802.34 1349.44 1808.64 1343.08 Q1814.97 1336.68 1816.6 1334.83 Q1819.68 1331.36 1820.89 1328.98 Q1822.14 1326.56 1822.14 1324.23 Q1822.14 1320.45 1819.46 1318.06 Q1816.82 1315.67 1812.56 1315.67 Q1809.53 1315.67 1806.16 1316.72 Q1802.82 1317.77 1799 1319.9 L1799 1313.41 Q1802.88 1311.85 1806.25 1311.06 Q1809.63 1310.26 1812.43 1310.26 Q1819.81 1310.26 1824.2 1313.95 Q1828.6 1317.64 1828.6 1323.82 Q1828.6 1326.75 1827.48 1329.39 Q1826.4 1332 1823.5 1335.56 Q1822.71 1336.49 1818.44 1340.91 Q1814.18 1345.3 1806.41 1353.23 Z" fill="#000000" fill-rule="evenodd" fill-opacity="1" /><polyline clip-path="url(#clip972)" style="stroke:#000000; stroke-linecap:round; stroke-linejoin:round; stroke-width:2; stroke-opacity:0.1; fill:none" points="
  762.478,1060.94 1159.68,716.955 1847.64,915.555 
  "/>
<polyline clip-path="url(#clip972)" style="stroke:#000000; stroke-linecap:round; stroke-linejoin:round; stroke-width:2; stroke-opacity:0.1; fill:none" points="
  762.478,927.056 1159.68,583.072 1847.64,781.671 
  "/>
<polyline clip-path="url(#clip972)" style="stroke:#000000; stroke-linecap:round; stroke-linejoin:round; stroke-width:2; stroke-opacity:0.1; fill:none" points="
  762.478,793.173 1159.68,449.189 1847.64,647.788 
  "/>
<polyline clip-path="url(#clip972)" style="stroke:#000000; stroke-linecap:round; stroke-linejoin:round; stroke-width:2; stroke-opacity:0.1; fill:none" points="
  762.478,659.29 1159.68,315.306 1847.64,513.905 
  "/>
<polyline clip-path="url(#clip972)" style="stroke:#000000; stroke-linecap:round; stroke-linejoin:round; stroke-width:2; stroke-opacity:0.1; fill:none" points="
  762.478,525.407 1159.68,181.423 1847.64,380.022 
  "/>
<polyline clip-path="url(#clip970)" style="stroke:#000000; stroke-linecap:round; stroke-linejoin:round; stroke-width:4; stroke-opacity:1; fill:none" points="
  762.478,1151.89 762.478,463.92 
  "/>
<polyline clip-path="url(#clip970)" style="stroke:#000000; stroke-linecap:round; stroke-linejoin:round; stroke-width:4; stroke-opacity:1; fill:none" points="
  762.478,1060.94 767.244,1056.81 
  "/>
<polyline clip-path="url(#clip970)" style="stroke:#000000; stroke-linecap:round; stroke-linejoin:round; stroke-width:4; stroke-opacity:1; fill:none" points="
  762.478,927.056 767.244,922.928 
  "/>
<polyline clip-path="url(#clip970)" style="stroke:#000000; stroke-linecap:round; stroke-linejoin:round; stroke-width:4; stroke-opacity:1; fill:none" points="
  762.478,793.173 767.244,789.045 
  "/>
<polyline clip-path="url(#clip970)" style="stroke:#000000; stroke-linecap:round; stroke-linejoin:round; stroke-width:4; stroke-opacity:1; fill:none" points="
  762.478,659.29 767.244,655.162 
  "/>
<polyline clip-path="url(#clip970)" style="stroke:#000000; stroke-linecap:round; stroke-linejoin:round; stroke-width:4; stroke-opacity:1; fill:none" points="
  762.478,525.407 767.244,521.279 
  "/>
<path clip-path="url(#clip970)" d="M626.572 1061.39 L656.248 1061.39 L656.248 1065.33 L626.572 1065.33 L626.572 1061.39 Z" fill="#000000" fill-rule="evenodd" fill-opacity="1" /><path clip-path="url(#clip970)" d="M676.34 1046.74 Q672.729 1046.74 670.9 1050.3 Q669.095 1053.84 669.095 1060.97 Q669.095 1068.08 670.9 1071.65 Q672.729 1075.19 676.34 1075.19 Q679.974 1075.19 681.78 1071.65 Q683.609 1068.08 683.609 1060.97 Q683.609 1053.84 681.78 1050.3 Q679.974 1046.74 676.34 1046.74 M676.34 1043.03 Q682.15 1043.03 685.206 1047.64 Q688.285 1052.22 688.285 1060.97 Q688.285 1069.7 685.206 1074.31 Q682.15 1078.89 676.34 1078.89 Q670.53 1078.89 667.451 1074.31 Q664.396 1069.7 664.396 1060.97 Q664.396 1052.22 667.451 1047.64 Q670.53 1043.03 676.34 1043.03 Z" fill="#000000" fill-rule="evenodd" fill-opacity="1" /><path clip-path="url(#clip970)" d="M696.502 1072.34 L701.386 1072.34 L701.386 1078.22 L696.502 1078.22 L696.502 1072.34 Z" fill="#000000" fill-rule="evenodd" fill-opacity="1" /><path clip-path="url(#clip970)" d="M722.15 1059.08 Q719.002 1059.08 717.15 1061.23 Q715.321 1063.38 715.321 1067.13 Q715.321 1070.86 717.15 1073.03 Q719.002 1075.19 722.15 1075.19 Q725.298 1075.19 727.127 1073.03 Q728.979 1070.86 728.979 1067.13 Q728.979 1063.38 727.127 1061.23 Q725.298 1059.08 722.15 1059.08 M731.432 1044.42 L731.432 1048.68 Q729.673 1047.85 727.868 1047.41 Q726.085 1046.97 724.326 1046.97 Q719.696 1046.97 717.243 1050.09 Q714.812 1053.22 714.465 1059.54 Q715.831 1057.52 717.891 1056.46 Q719.951 1055.37 722.428 1055.37 Q727.636 1055.37 730.645 1058.54 Q733.678 1061.69 733.678 1067.13 Q733.678 1072.46 730.53 1075.67 Q727.382 1078.89 722.15 1078.89 Q716.155 1078.89 712.983 1074.31 Q709.812 1069.7 709.812 1060.97 Q709.812 1052.78 713.701 1047.92 Q717.59 1043.03 724.141 1043.03 Q725.9 1043.03 727.682 1043.38 Q729.488 1043.73 731.432 1044.42 Z" fill="#000000" fill-rule="evenodd" fill-opacity="1" /><path clip-path="url(#clip970)" d="M627.382 927.508 L657.058 927.508 L657.058 931.443 L627.382 931.443 L627.382 927.508 Z" fill="#000000" fill-rule="evenodd" fill-opacity="1" /><path clip-path="url(#clip970)" d="M677.15 912.855 Q673.539 912.855 671.711 916.42 Q669.905 919.961 669.905 927.091 Q669.905 934.197 671.711 937.762 Q673.539 941.304 677.15 941.304 Q680.785 941.304 682.59 937.762 Q684.419 934.197 684.419 927.091 Q684.419 919.961 682.59 916.42 Q680.785 912.855 677.15 912.855 M677.15 909.151 Q682.961 909.151 686.016 913.758 Q689.095 918.341 689.095 927.091 Q689.095 935.818 686.016 940.424 Q682.961 945.007 677.15 945.007 Q671.34 945.007 668.262 940.424 Q665.206 935.818 665.206 927.091 Q665.206 918.341 668.262 913.758 Q671.34 909.151 677.15 909.151 Z" fill="#000000" fill-rule="evenodd" fill-opacity="1" /><path clip-path="url(#clip970)" d="M697.312 938.457 L702.197 938.457 L702.197 944.336 L697.312 944.336 L697.312 938.457 Z" fill="#000000" fill-rule="evenodd" fill-opacity="1" /><path clip-path="url(#clip970)" d="M726.548 925.702 Q729.905 926.42 731.78 928.688 Q733.678 930.957 733.678 934.29 Q733.678 939.406 730.159 942.207 Q726.641 945.007 720.159 945.007 Q717.983 945.007 715.669 944.568 Q713.377 944.151 710.923 943.295 L710.923 938.781 Q712.868 939.915 715.183 940.494 Q717.497 941.072 720.02 941.072 Q724.419 941.072 726.71 939.336 Q729.025 937.6 729.025 934.29 Q729.025 931.234 726.872 929.521 Q724.743 927.785 720.923 927.785 L716.896 927.785 L716.896 923.943 L721.108 923.943 Q724.558 923.943 726.386 922.577 Q728.215 921.188 728.215 918.596 Q728.215 915.934 726.317 914.522 Q724.442 913.086 720.923 913.086 Q719.002 913.086 716.803 913.503 Q714.604 913.92 711.965 914.799 L711.965 910.633 Q714.627 909.892 716.942 909.522 Q719.28 909.151 721.34 909.151 Q726.664 909.151 729.766 911.582 Q732.868 913.989 732.868 918.109 Q732.868 920.98 731.224 922.971 Q729.581 924.938 726.548 925.702 Z" fill="#000000" fill-rule="evenodd" fill-opacity="1" /><path clip-path="url(#clip970)" d="M676.502 778.972 Q672.891 778.972 671.062 782.537 Q669.257 786.078 669.257 793.208 Q669.257 800.314 671.062 803.879 Q672.891 807.421 676.502 807.421 Q680.136 807.421 681.942 803.879 Q683.771 800.314 683.771 793.208 Q683.771 786.078 681.942 782.537 Q680.136 778.972 676.502 778.972 M676.502 775.268 Q682.312 775.268 685.368 779.874 Q688.447 784.458 688.447 793.208 Q688.447 801.935 685.368 806.541 Q682.312 811.124 676.502 811.124 Q670.692 811.124 667.613 806.541 Q664.558 801.935 664.558 793.208 Q664.558 784.458 667.613 779.874 Q670.692 775.268 676.502 775.268 Z" fill="#000000" fill-rule="evenodd" fill-opacity="1" /><path clip-path="url(#clip970)" d="M696.664 804.573 L701.548 804.573 L701.548 810.453 L696.664 810.453 L696.664 804.573 Z" fill="#000000" fill-rule="evenodd" fill-opacity="1" /><path clip-path="url(#clip970)" d="M721.733 778.972 Q718.122 778.972 716.294 782.537 Q714.488 786.078 714.488 793.208 Q714.488 800.314 716.294 803.879 Q718.122 807.421 721.733 807.421 Q725.368 807.421 727.173 803.879 Q729.002 800.314 729.002 793.208 Q729.002 786.078 727.173 782.537 Q725.368 778.972 721.733 778.972 M721.733 775.268 Q727.544 775.268 730.599 779.874 Q733.678 784.458 733.678 793.208 Q733.678 801.935 730.599 806.541 Q727.544 811.124 721.733 811.124 Q715.923 811.124 712.845 806.541 Q709.789 801.935 709.789 793.208 Q709.789 784.458 712.845 779.874 Q715.923 775.268 721.733 775.268 Z" fill="#000000" fill-rule="evenodd" fill-opacity="1" /><path clip-path="url(#clip970)" d="M677.15 645.089 Q673.539 645.089 671.711 648.653 Q669.905 652.195 669.905 659.325 Q669.905 666.431 671.711 669.996 Q673.539 673.538 677.15 673.538 Q680.785 673.538 682.59 669.996 Q684.419 666.431 684.419 659.325 Q684.419 652.195 682.59 648.653 Q680.785 645.089 677.15 645.089 M677.15 641.385 Q682.961 641.385 686.016 645.991 Q689.095 650.575 689.095 659.325 Q689.095 668.051 686.016 672.658 Q682.961 677.241 677.15 677.241 Q671.34 677.241 668.262 672.658 Q665.206 668.051 665.206 659.325 Q665.206 650.575 668.262 645.991 Q671.34 641.385 677.15 641.385 Z" fill="#000000" fill-rule="evenodd" fill-opacity="1" /><path clip-path="url(#clip970)" d="M697.312 670.69 L702.197 670.69 L702.197 676.57 L697.312 676.57 L697.312 670.69 Z" fill="#000000" fill-rule="evenodd" fill-opacity="1" /><path clip-path="url(#clip970)" d="M726.548 657.936 Q729.905 658.653 731.78 660.922 Q733.678 663.19 733.678 666.524 Q733.678 671.639 730.159 674.44 Q726.641 677.241 720.159 677.241 Q717.983 677.241 715.669 676.801 Q713.377 676.385 710.923 675.528 L710.923 671.014 Q712.868 672.149 715.183 672.727 Q717.497 673.306 720.02 673.306 Q724.419 673.306 726.71 671.57 Q729.025 669.834 729.025 666.524 Q729.025 663.468 726.872 661.755 Q724.743 660.019 720.923 660.019 L716.896 660.019 L716.896 656.176 L721.108 656.176 Q724.558 656.176 726.386 654.811 Q728.215 653.422 728.215 650.829 Q728.215 648.167 726.317 646.755 Q724.442 645.32 720.923 645.32 Q719.002 645.32 716.803 645.737 Q714.604 646.153 711.965 647.033 L711.965 642.866 Q714.627 642.126 716.942 641.755 Q719.28 641.385 721.34 641.385 Q726.664 641.385 729.766 643.815 Q732.868 646.223 732.868 650.343 Q732.868 653.214 731.224 655.204 Q729.581 657.172 726.548 657.936 Z" fill="#000000" fill-rule="evenodd" fill-opacity="1" /><path clip-path="url(#clip970)" d="M676.34 511.205 Q672.729 511.205 670.9 514.77 Q669.095 518.312 669.095 525.441 Q669.095 532.548 670.9 536.113 Q672.729 539.654 676.34 539.654 Q679.974 539.654 681.78 536.113 Q683.609 532.548 683.609 525.441 Q683.609 518.312 681.78 514.77 Q679.974 511.205 676.34 511.205 M676.34 507.502 Q682.15 507.502 685.206 512.108 Q688.285 516.692 688.285 525.441 Q688.285 534.168 685.206 538.775 Q682.15 543.358 676.34 543.358 Q670.53 543.358 667.451 538.775 Q664.396 534.168 664.396 525.441 Q664.396 516.692 667.451 512.108 Q670.53 507.502 676.34 507.502 Z" fill="#000000" fill-rule="evenodd" fill-opacity="1" /><path clip-path="url(#clip970)" d="M696.502 536.807 L701.386 536.807 L701.386 542.687 L696.502 542.687 L696.502 536.807 Z" fill="#000000" fill-rule="evenodd" fill-opacity="1" /><path clip-path="url(#clip970)" d="M722.15 523.543 Q719.002 523.543 717.15 525.696 Q715.321 527.849 715.321 531.599 Q715.321 535.326 717.15 537.502 Q719.002 539.654 722.15 539.654 Q725.298 539.654 727.127 537.502 Q728.979 535.326 728.979 531.599 Q728.979 527.849 727.127 525.696 Q725.298 523.543 722.15 523.543 M731.432 508.891 L731.432 513.15 Q729.673 512.317 727.868 511.877 Q726.085 511.437 724.326 511.437 Q719.696 511.437 717.243 514.562 Q714.812 517.687 714.465 524.006 Q715.831 521.992 717.891 520.928 Q719.951 519.84 722.428 519.84 Q727.636 519.84 730.645 523.011 Q733.678 526.159 733.678 531.599 Q733.678 536.923 730.53 540.14 Q727.382 543.358 722.15 543.358 Q716.155 543.358 712.983 538.775 Q709.812 534.168 709.812 525.441 Q709.812 517.247 713.701 512.386 Q717.59 507.502 724.141 507.502 Q725.9 507.502 727.682 507.849 Q729.488 508.196 731.432 508.891 Z" fill="#000000" fill-rule="evenodd" fill-opacity="1" /><path clip-path="url(#clip970)" d="M526.879 858.814 L544.735 858.814 L544.735 850.73 Q544.735 846.242 542.412 843.791 Q540.088 841.34 535.791 841.34 Q531.526 841.34 529.203 843.791 Q526.879 846.242 526.879 850.73 L526.879 858.814 M521.596 865.243 L521.596 850.73 Q521.596 842.741 525.224 838.667 Q528.821 834.561 535.791 834.561 Q542.826 834.561 546.422 838.667 Q550.019 842.741 550.019 850.73 L550.019 858.814 L569.116 858.814 L569.116 865.243 L521.596 865.243 Z" fill="#000000" fill-rule="evenodd" fill-opacity="1" /><path clip-path="url(#clip970)" d="M525.256 790.351 L532.036 790.351 Q529.012 793.597 527.516 797.29 Q526.02 800.95 526.02 805.088 Q526.02 813.236 531.017 817.564 Q535.982 821.893 545.404 821.893 Q554.793 821.893 559.79 817.564 Q564.755 813.236 564.755 805.088 Q564.755 800.95 563.259 797.29 Q561.764 793.597 558.74 790.351 L565.456 790.351 Q567.747 793.725 568.893 797.512 Q570.039 801.268 570.039 805.469 Q570.039 816.259 563.45 822.466 Q556.83 828.672 545.404 828.672 Q533.945 828.672 527.357 822.466 Q520.737 816.259 520.737 805.469 Q520.737 801.204 521.882 797.449 Q522.996 793.661 525.256 790.351 Z" fill="#000000" fill-rule="evenodd" fill-opacity="1" /><path clip-path="url(#clip970)" d="M543.494 760.368 Q544.481 755.753 547.6 753.175 Q550.719 750.565 555.302 750.565 Q562.336 750.565 566.188 755.403 Q570.039 760.241 570.039 769.153 Q570.039 772.145 569.434 775.328 Q568.861 778.479 567.684 781.853 L561.477 781.853 Q563.037 779.179 563.832 775.996 Q564.628 772.813 564.628 769.344 Q564.628 763.297 562.241 760.146 Q559.854 756.963 555.302 756.963 Q551.101 756.963 548.746 759.923 Q546.359 762.851 546.359 768.103 L546.359 773.641 L541.075 773.641 L541.075 767.848 Q541.075 763.106 539.197 760.591 Q537.287 758.077 533.723 758.077 Q530.062 758.077 528.121 760.687 Q526.147 763.265 526.147 768.103 Q526.147 770.745 526.72 773.768 Q527.293 776.792 528.503 780.42 L522.774 780.42 Q521.755 776.76 521.246 773.577 Q520.737 770.363 520.737 767.53 Q520.737 760.209 524.079 755.944 Q527.389 751.679 533.054 751.679 Q537.001 751.679 539.738 753.939 Q542.444 756.199 543.494 760.368 Z" fill="#000000" fill-rule="evenodd" fill-opacity="1" /><circle clip-path="url(#clip972)" cx="992.793" cy="661.358" r="14.4" fill="#009af9" fill-rule="evenodd" fill-opacity="1" stroke="#000000" stroke-opacity="1" stroke-width="3.2"/>
<circle clip-path="url(#clip972)" cx="1060.47" cy="518.074" r="14.4" fill="#009af9" fill-rule="evenodd" fill-opacity="1" stroke="#000000" stroke-opacity="1" stroke-width="3.2"/>
<circle clip-path="url(#clip972)" cx="1039.76" cy="619.261" r="14.4" fill="#009af9" fill-rule="evenodd" fill-opacity="1" stroke="#000000" stroke-opacity="1" stroke-width="3.2"/>
<circle clip-path="url(#clip972)" cx="1077.64" cy="607.884" r="14.4" fill="#009af9" fill-rule="evenodd" fill-opacity="1" stroke="#000000" stroke-opacity="1" stroke-width="3.2"/>
<circle clip-path="url(#clip972)" cx="987.626" cy="713.73" r="14.4" fill="#009af9" fill-rule="evenodd" fill-opacity="1" stroke="#000000" stroke-opacity="1" stroke-width="3.2"/>
<circle clip-path="url(#clip972)" cx="970.194" cy="811.719" r="14.4" fill="#009af9" fill-rule="evenodd" fill-opacity="1" stroke="#000000" stroke-opacity="1" stroke-width="3.2"/>
<circle clip-path="url(#clip972)" cx="1038.21" cy="735.011" r="14.4" fill="#009af9" fill-rule="evenodd" fill-opacity="1" stroke="#000000" stroke-opacity="1" stroke-width="3.2"/>
<circle clip-path="url(#clip972)" cx="1020.3" cy="646.423" r="14.4" fill="#009af9" fill-rule="evenodd" fill-opacity="1" stroke="#000000" stroke-opacity="1" stroke-width="3.2"/>
<circle clip-path="url(#clip972)" cx="1101.5" cy="567.34" r="14.4" fill="#009af9" fill-rule="evenodd" fill-opacity="1" stroke="#000000" stroke-opacity="1" stroke-width="3.2"/>
<circle clip-path="url(#clip972)" cx="1055.32" cy="532.677" r="14.4" fill="#009af9" fill-rule="evenodd" fill-opacity="1" stroke="#000000" stroke-opacity="1" stroke-width="3.2"/>
<circle clip-path="url(#clip972)" cx="962.952" cy="684.962" r="14.4" fill="#009af9" fill-rule="evenodd" fill-opacity="1" stroke="#000000" stroke-opacity="1" stroke-width="3.2"/>
<circle clip-path="url(#clip972)" cx="1042.63" cy="683.86" r="14.4" fill="#009af9" fill-rule="evenodd" fill-opacity="1" stroke="#000000" stroke-opacity="1" stroke-width="3.2"/>
<circle clip-path="url(#clip972)" cx="1062.07" cy="510.626" r="14.4" fill="#009af9" fill-rule="evenodd" fill-opacity="1" stroke="#000000" stroke-opacity="1" stroke-width="3.2"/>
<circle clip-path="url(#clip972)" cx="1060.81" cy="584.651" r="14.4" fill="#009af9" fill-rule="evenodd" fill-opacity="1" stroke="#000000" stroke-opacity="1" stroke-width="3.2"/>
<circle clip-path="url(#clip972)" cx="874.463" cy="712.828" r="14.4" fill="#009af9" fill-rule="evenodd" fill-opacity="1" stroke="#000000" stroke-opacity="1" stroke-width="3.2"/>
<circle clip-path="url(#clip972)" cx="875.775" cy="930.947" r="14.4" fill="#009af9" fill-rule="evenodd" fill-opacity="1" stroke="#000000" stroke-opacity="1" stroke-width="3.2"/>
<circle clip-path="url(#clip972)" cx="928.668" cy="797.487" r="14.4" fill="#009af9" fill-rule="evenodd" fill-opacity="1" stroke="#000000" stroke-opacity="1" stroke-width="3.2"/>
<circle clip-path="url(#clip972)" cx="997.177" cy="685.746" r="14.4" fill="#009af9" fill-rule="evenodd" fill-opacity="1" stroke="#000000" stroke-opacity="1" stroke-width="3.2"/>
<circle clip-path="url(#clip972)" cx="959.022" cy="701.08" r="14.4" fill="#009af9" fill-rule="evenodd" fill-opacity="1" stroke="#000000" stroke-opacity="1" stroke-width="3.2"/>
<circle clip-path="url(#clip972)" cx="974.124" cy="795.602" r="14.4" fill="#009af9" fill-rule="evenodd" fill-opacity="1" stroke="#000000" stroke-opacity="1" stroke-width="3.2"/>
<circle clip-path="url(#clip972)" cx="1017.15" cy="585.78" r="14.4" fill="#009af9" fill-rule="evenodd" fill-opacity="1" stroke="#000000" stroke-opacity="1" stroke-width="3.2"/>
<circle clip-path="url(#clip972)" cx="989.653" cy="784.557" r="14.4" fill="#009af9" fill-rule="evenodd" fill-opacity="1" stroke="#000000" stroke-opacity="1" stroke-width="3.2"/>
<circle clip-path="url(#clip972)" cx="970.01" cy="767.258" r="14.4" fill="#009af9" fill-rule="evenodd" fill-opacity="1" stroke="#000000" stroke-opacity="1" stroke-width="3.2"/>
<circle clip-path="url(#clip972)" cx="1059.38" cy="674.33" r="14.4" fill="#009af9" fill-rule="evenodd" fill-opacity="1" stroke="#000000" stroke-opacity="1" stroke-width="3.2"/>
<circle clip-path="url(#clip972)" cx="1073.78" cy="694.533" r="14.4" fill="#009af9" fill-rule="evenodd" fill-opacity="1" stroke="#000000" stroke-opacity="1" stroke-width="3.2"/>
<circle clip-path="url(#clip972)" cx="1075.26" cy="508.25" r="14.4" fill="#009af9" fill-rule="evenodd" fill-opacity="1" stroke="#000000" stroke-opacity="1" stroke-width="3.2"/>
<circle clip-path="url(#clip972)" cx="1039.45" cy="698.756" r="14.4" fill="#009af9" fill-rule="evenodd" fill-opacity="1" stroke="#000000" stroke-opacity="1" stroke-width="3.2"/>
<circle clip-path="url(#clip972)" cx="997.197" cy="647.976" r="14.4" fill="#009af9" fill-rule="evenodd" fill-opacity="1" stroke="#000000" stroke-opacity="1" stroke-width="3.2"/>
<circle clip-path="url(#clip972)" cx="997.96" cy="608.986" r="14.4" fill="#009af9" fill-rule="evenodd" fill-opacity="1" stroke="#000000" stroke-opacity="1" stroke-width="3.2"/>
<circle clip-path="url(#clip972)" cx="1070.9" cy="629.934" r="14.4" fill="#009af9" fill-rule="evenodd" fill-opacity="1" stroke="#000000" stroke-opacity="1" stroke-width="3.2"/>
<circle clip-path="url(#clip972)" cx="1076.07" cy="577.562" r="14.4" fill="#009af9" fill-rule="evenodd" fill-opacity="1" stroke="#000000" stroke-opacity="1" stroke-width="3.2"/>
<circle clip-path="url(#clip972)" cx="1005.15" cy="627.44" r="14.4" fill="#009af9" fill-rule="evenodd" fill-opacity="1" stroke="#000000" stroke-opacity="1" stroke-width="3.2"/>
<circle clip-path="url(#clip972)" cx="925.945" cy="836.184" r="14.4" fill="#009af9" fill-rule="evenodd" fill-opacity="1" stroke="#000000" stroke-opacity="1" stroke-width="3.2"/>
<circle clip-path="url(#clip972)" cx="890.87" cy="841.628" r="14.4" fill="#009af9" fill-rule="evenodd" fill-opacity="1" stroke="#000000" stroke-opacity="1" stroke-width="3.2"/>
<circle clip-path="url(#clip972)" cx="1059.71" cy="557.065" r="14.4" fill="#009af9" fill-rule="evenodd" fill-opacity="1" stroke="#000000" stroke-opacity="1" stroke-width="3.2"/>
<circle clip-path="url(#clip972)" cx="1011.44" cy="564.884" r="14.4" fill="#009af9" fill-rule="evenodd" fill-opacity="1" stroke="#000000" stroke-opacity="1" stroke-width="3.2"/>
<circle clip-path="url(#clip972)" cx="958.501" cy="590.042" r="14.4" fill="#009af9" fill-rule="evenodd" fill-opacity="1" stroke="#000000" stroke-opacity="1" stroke-width="3.2"/>
<circle clip-path="url(#clip972)" cx="989.219" cy="706.282" r="14.4" fill="#009af9" fill-rule="evenodd" fill-opacity="1" stroke="#000000" stroke-opacity="1" stroke-width="3.2"/>
<circle clip-path="url(#clip972)" cx="1079.98" cy="599.215" r="14.4" fill="#009af9" fill-rule="evenodd" fill-opacity="1" stroke="#000000" stroke-opacity="1" stroke-width="3.2"/>
<circle clip-path="url(#clip972)" cx="1014.32" cy="629.483" r="14.4" fill="#009af9" fill-rule="evenodd" fill-opacity="1" stroke="#000000" stroke-opacity="1" stroke-width="3.2"/>
<circle clip-path="url(#clip972)" cx="992.773" cy="699.128" r="14.4" fill="#009af9" fill-rule="evenodd" fill-opacity="1" stroke="#000000" stroke-opacity="1" stroke-width="3.2"/>
<circle clip-path="url(#clip972)" cx="1156.4" cy="358.635" r="14.4" fill="#009af9" fill-rule="evenodd" fill-opacity="1" stroke="#000000" stroke-opacity="1" stroke-width="3.2"/>
<circle clip-path="url(#clip972)" cx="1057.69" cy="670.08" r="14.4" fill="#009af9" fill-rule="evenodd" fill-opacity="1" stroke="#000000" stroke-opacity="1" stroke-width="3.2"/>
<circle clip-path="url(#clip972)" cx="1037.07" cy="782.964" r="14.4" fill="#009af9" fill-rule="evenodd" fill-opacity="1" stroke="#000000" stroke-opacity="1" stroke-width="3.2"/>
<circle clip-path="url(#clip972)" cx="1020.03" cy="834.22" r="14.4" fill="#009af9" fill-rule="evenodd" fill-opacity="1" stroke="#000000" stroke-opacity="1" stroke-width="3.2"/>
<circle clip-path="url(#clip972)" cx="1070.83" cy="559.402" r="14.4" fill="#009af9" fill-rule="evenodd" fill-opacity="1" stroke="#000000" stroke-opacity="1" stroke-width="3.2"/>
<circle clip-path="url(#clip972)" cx="980.122" cy="774.772" r="14.4" fill="#009af9" fill-rule="evenodd" fill-opacity="1" stroke="#000000" stroke-opacity="1" stroke-width="3.2"/>
<circle clip-path="url(#clip972)" cx="1056.11" cy="639.758" r="14.4" fill="#009af9" fill-rule="evenodd" fill-opacity="1" stroke="#000000" stroke-opacity="1" stroke-width="3.2"/>
<circle clip-path="url(#clip972)" cx="968.93" cy="701.902" r="14.4" fill="#009af9" fill-rule="evenodd" fill-opacity="1" stroke="#000000" stroke-opacity="1" stroke-width="3.2"/>
<circle clip-path="url(#clip972)" cx="1021.06" cy="607.433" r="14.4" fill="#009af9" fill-rule="evenodd" fill-opacity="1" stroke="#000000" stroke-opacity="1" stroke-width="3.2"/>
<circle clip-path="url(#clip972)" cx="1307.85" cy="643.268" r="14.4" fill="#e26f46" fill-rule="evenodd" fill-opacity="1" stroke="#000000" stroke-opacity="1" stroke-width="3.2"/>
<circle clip-path="url(#clip972)" cx="1327.34" cy="762.178" r="14.4" fill="#e26f46" fill-rule="evenodd" fill-opacity="1" stroke="#000000" stroke-opacity="1" stroke-width="3.2"/>
<circle clip-path="url(#clip972)" cx="1350.12" cy="656.278" r="14.4" fill="#e26f46" fill-rule="evenodd" fill-opacity="1" stroke="#000000" stroke-opacity="1" stroke-width="3.2"/>
<circle clip-path="url(#clip972)" cx="1420.76" cy="529.176" r="14.4" fill="#e26f46" fill-rule="evenodd" fill-opacity="1" stroke="#000000" stroke-opacity="1" stroke-width="3.2"/>
<circle clip-path="url(#clip972)" cx="1376.32" cy="607.066" r="14.4" fill="#e26f46" fill-rule="evenodd" fill-opacity="1" stroke="#000000" stroke-opacity="1" stroke-width="3.2"/>
<circle clip-path="url(#clip972)" cx="1404.99" cy="690.249" r="14.4" fill="#e26f46" fill-rule="evenodd" fill-opacity="1" stroke="#000000" stroke-opacity="1" stroke-width="3.2"/>
<circle clip-path="url(#clip972)" cx="1347.32" cy="846.053" r="14.4" fill="#e26f46" fill-rule="evenodd" fill-opacity="1" stroke="#000000" stroke-opacity="1" stroke-width="3.2"/>
<circle clip-path="url(#clip972)" cx="1359.66" cy="568.179" r="14.4" fill="#e26f46" fill-rule="evenodd" fill-opacity="1" stroke="#000000" stroke-opacity="1" stroke-width="3.2"/>
<circle clip-path="url(#clip972)" cx="1350.43" cy="576.783" r="14.4" fill="#e26f46" fill-rule="evenodd" fill-opacity="1" stroke="#000000" stroke-opacity="1" stroke-width="3.2"/>
<circle clip-path="url(#clip972)" cx="1388.12" cy="742.555" r="14.4" fill="#e26f46" fill-rule="evenodd" fill-opacity="1" stroke="#000000" stroke-opacity="1" stroke-width="3.2"/>
<circle clip-path="url(#clip972)" cx="1419.03" cy="416.624" r="14.4" fill="#e26f46" fill-rule="evenodd" fill-opacity="1" stroke="#000000" stroke-opacity="1" stroke-width="3.2"/>
<circle clip-path="url(#clip972)" cx="1348.37" cy="765.337" r="14.4" fill="#e26f46" fill-rule="evenodd" fill-opacity="1" stroke="#000000" stroke-opacity="1" stroke-width="3.2"/>
<circle clip-path="url(#clip972)" cx="1388.87" cy="335.883" r="14.4" fill="#e26f46" fill-rule="evenodd" fill-opacity="1" stroke="#000000" stroke-opacity="1" stroke-width="3.2"/>
<circle clip-path="url(#clip972)" cx="1395.09" cy="689.427" r="14.4" fill="#e26f46" fill-rule="evenodd" fill-opacity="1" stroke="#000000" stroke-opacity="1" stroke-width="3.2"/>
<circle clip-path="url(#clip972)" cx="1306.39" cy="710.601" r="14.4" fill="#e26f46" fill-rule="evenodd" fill-opacity="1" stroke="#000000" stroke-opacity="1" stroke-width="3.2"/>
<circle clip-path="url(#clip972)" cx="1305.79" cy="647.981" r="14.4" fill="#e26f46" fill-rule="evenodd" fill-opacity="1" stroke="#000000" stroke-opacity="1" stroke-width="3.2"/>
<circle clip-path="url(#clip972)" cx="1397.45" cy="826.829" r="14.4" fill="#e26f46" fill-rule="evenodd" fill-opacity="1" stroke="#000000" stroke-opacity="1" stroke-width="3.2"/>
<circle clip-path="url(#clip972)" cx="1355.48" cy="550.482" r="14.4" fill="#e26f46" fill-rule="evenodd" fill-opacity="1" stroke="#000000" stroke-opacity="1" stroke-width="3.2"/>
<circle clip-path="url(#clip972)" cx="1450.74" cy="441.731" r="14.4" fill="#e26f46" fill-rule="evenodd" fill-opacity="1" stroke="#000000" stroke-opacity="1" stroke-width="3.2"/>
<circle clip-path="url(#clip972)" cx="1373.35" cy="530.769" r="14.4" fill="#e26f46" fill-rule="evenodd" fill-opacity="1" stroke="#000000" stroke-opacity="1" stroke-width="3.2"/>
<circle clip-path="url(#clip972)" cx="1401.52" cy="930.712" r="14.4" fill="#e26f46" fill-rule="evenodd" fill-opacity="1" stroke="#000000" stroke-opacity="1" stroke-width="3.2"/>
<circle clip-path="url(#clip972)" cx="1329.18" cy="604.702" r="14.4" fill="#e26f46" fill-rule="evenodd" fill-opacity="1" stroke="#000000" stroke-opacity="1" stroke-width="3.2"/>
<circle clip-path="url(#clip972)" cx="1452.86" cy="545.32" r="14.4" fill="#e26f46" fill-rule="evenodd" fill-opacity="1" stroke="#000000" stroke-opacity="1" stroke-width="3.2"/>
<circle clip-path="url(#clip972)" cx="1397.46" cy="605.219" r="14.4" fill="#e26f46" fill-rule="evenodd" fill-opacity="1" stroke="#000000" stroke-opacity="1" stroke-width="3.2"/>
<circle clip-path="url(#clip972)" cx="1331.24" cy="599.989" r="14.4" fill="#e26f46" fill-rule="evenodd" fill-opacity="1" stroke="#000000" stroke-opacity="1" stroke-width="3.2"/>
<circle clip-path="url(#clip972)" cx="1322.91" cy="629.488" r="14.4" fill="#e26f46" fill-rule="evenodd" fill-opacity="1" stroke="#000000" stroke-opacity="1" stroke-width="3.2"/>
<circle clip-path="url(#clip972)" cx="1374.77" cy="538.975" r="14.4" fill="#e26f46" fill-rule="evenodd" fill-opacity="1" stroke="#000000" stroke-opacity="1" stroke-width="3.2"/>
<circle clip-path="url(#clip972)" cx="1392.37" cy="707.058" r="14.4" fill="#e26f46" fill-rule="evenodd" fill-opacity="1" stroke="#000000" stroke-opacity="1" stroke-width="3.2"/>
<circle clip-path="url(#clip972)" cx="1384.68" cy="723.638" r="14.4" fill="#e26f46" fill-rule="evenodd" fill-opacity="1" stroke="#000000" stroke-opacity="1" stroke-width="3.2"/>
<circle clip-path="url(#clip972)" cx="1310.32" cy="510.643" r="14.4" fill="#e26f46" fill-rule="evenodd" fill-opacity="1" stroke="#000000" stroke-opacity="1" stroke-width="3.2"/>
<circle clip-path="url(#clip972)" cx="1380.09" cy="508.718" r="14.4" fill="#e26f46" fill-rule="evenodd" fill-opacity="1" stroke="#000000" stroke-opacity="1" stroke-width="3.2"/>
<circle clip-path="url(#clip972)" cx="1365.32" cy="480.772" r="14.4" fill="#e26f46" fill-rule="evenodd" fill-opacity="1" stroke="#000000" stroke-opacity="1" stroke-width="3.2"/>
<circle clip-path="url(#clip972)" cx="1343.49" cy="592.142" r="14.4" fill="#e26f46" fill-rule="evenodd" fill-opacity="1" stroke="#000000" stroke-opacity="1" stroke-width="3.2"/>
<circle clip-path="url(#clip972)" cx="1473.65" cy="698.508" r="14.4" fill="#e26f46" fill-rule="evenodd" fill-opacity="1" stroke="#000000" stroke-opacity="1" stroke-width="3.2"/>
<circle clip-path="url(#clip972)" cx="1409.41" cy="860.709" r="14.4" fill="#e26f46" fill-rule="evenodd" fill-opacity="1" stroke="#000000" stroke-opacity="1" stroke-width="3.2"/>
<circle clip-path="url(#clip972)" cx="1333.35" cy="925.189" r="14.4" fill="#e26f46" fill-rule="evenodd" fill-opacity="1" stroke="#000000" stroke-opacity="1" stroke-width="3.2"/>
<circle clip-path="url(#clip972)" cx="1341.32" cy="683.042" r="14.4" fill="#e26f46" fill-rule="evenodd" fill-opacity="1" stroke="#000000" stroke-opacity="1" stroke-width="3.2"/>
<circle clip-path="url(#clip972)" cx="1414.47" cy="407.891" r="14.4" fill="#e26f46" fill-rule="evenodd" fill-opacity="1" stroke="#000000" stroke-opacity="1" stroke-width="3.2"/>
<circle clip-path="url(#clip972)" cx="1347.16" cy="763.823" r="14.4" fill="#e26f46" fill-rule="evenodd" fill-opacity="1" stroke="#000000" stroke-opacity="1" stroke-width="3.2"/>
<circle clip-path="url(#clip972)" cx="1398.48" cy="600.042" r="14.4" fill="#e26f46" fill-rule="evenodd" fill-opacity="1" stroke="#000000" stroke-opacity="1" stroke-width="3.2"/>
<circle clip-path="url(#clip972)" cx="1424.47" cy="625.318" r="14.4" fill="#e26f46" fill-rule="evenodd" fill-opacity="1" stroke="#000000" stroke-opacity="1" stroke-width="3.2"/>
<circle clip-path="url(#clip972)" cx="1373.56" cy="721.301" r="14.4" fill="#e26f46" fill-rule="evenodd" fill-opacity="1" stroke="#000000" stroke-opacity="1" stroke-width="3.2"/>
<circle clip-path="url(#clip972)" cx="1365.01" cy="560.268" r="14.4" fill="#e26f46" fill-rule="evenodd" fill-opacity="1" stroke="#000000" stroke-opacity="1" stroke-width="3.2"/>
<circle clip-path="url(#clip972)" cx="1364.83" cy="515.807" r="14.4" fill="#e26f46" fill-rule="evenodd" fill-opacity="1" stroke="#000000" stroke-opacity="1" stroke-width="3.2"/>
<circle clip-path="url(#clip972)" cx="1390.97" cy="661.083" r="14.4" fill="#e26f46" fill-rule="evenodd" fill-opacity="1" stroke="#000000" stroke-opacity="1" stroke-width="3.2"/>
<circle clip-path="url(#clip972)" cx="1347.18" cy="726.053" r="14.4" fill="#e26f46" fill-rule="evenodd" fill-opacity="1" stroke="#000000" stroke-opacity="1" stroke-width="3.2"/>
<circle clip-path="url(#clip972)" cx="1362.7" cy="715.008" r="14.4" fill="#e26f46" fill-rule="evenodd" fill-opacity="1" stroke="#000000" stroke-opacity="1" stroke-width="3.2"/>
<circle clip-path="url(#clip972)" cx="1343.2" cy="633.868" r="14.4" fill="#e26f46" fill-rule="evenodd" fill-opacity="1" stroke="#000000" stroke-opacity="1" stroke-width="3.2"/>
<circle clip-path="url(#clip972)" cx="1309.8" cy="583.447" r="14.4" fill="#e26f46" fill-rule="evenodd" fill-opacity="1" stroke="#000000" stroke-opacity="1" stroke-width="3.2"/>
<circle clip-path="url(#clip972)" cx="1363.47" cy="676.018" r="14.4" fill="#e26f46" fill-rule="evenodd" fill-opacity="1" stroke="#000000" stroke-opacity="1" stroke-width="3.2"/>
<circle clip-path="url(#clip972)" cx="1521.74" cy="1111.79" r="14.4" fill="#3da44d" fill-rule="evenodd" fill-opacity="1" stroke="#000000" stroke-opacity="1" stroke-width="3.2"/>
<circle clip-path="url(#clip972)" cx="1498.75" cy="805.55" r="14.4" fill="#3da44d" fill-rule="evenodd" fill-opacity="1" stroke="#000000" stroke-opacity="1" stroke-width="3.2"/>
<circle clip-path="url(#clip972)" cx="1479.43" cy="768.871" r="14.4" fill="#3da44d" fill-rule="evenodd" fill-opacity="1" stroke="#000000" stroke-opacity="1" stroke-width="3.2"/>
<circle clip-path="url(#clip972)" cx="1494.1" cy="785.118" r="14.4" fill="#3da44d" fill-rule="evenodd" fill-opacity="1" stroke="#000000" stroke-opacity="1" stroke-width="3.2"/>
<circle clip-path="url(#clip972)" cx="1509.3" cy="891.338" r="14.4" fill="#3da44d" fill-rule="evenodd" fill-opacity="1" stroke="#000000" stroke-opacity="1" stroke-width="3.2"/>
<circle clip-path="url(#clip972)" cx="1522.22" cy="709.077" r="14.4" fill="#3da44d" fill-rule="evenodd" fill-opacity="1" stroke="#000000" stroke-opacity="1" stroke-width="3.2"/>
<circle clip-path="url(#clip972)" cx="1503.78" cy="817.019" r="14.4" fill="#3da44d" fill-rule="evenodd" fill-opacity="1" stroke="#000000" stroke-opacity="1" stroke-width="3.2"/>
<circle clip-path="url(#clip972)" cx="1507" cy="640.627" r="14.4" fill="#3da44d" fill-rule="evenodd" fill-opacity="1" stroke="#000000" stroke-opacity="1" stroke-width="3.2"/>
<circle clip-path="url(#clip972)" cx="1535.53" cy="582.745" r="14.4" fill="#3da44d" fill-rule="evenodd" fill-opacity="1" stroke="#000000" stroke-opacity="1" stroke-width="3.2"/>
<circle clip-path="url(#clip972)" cx="1444.89" cy="1069.19" r="14.4" fill="#3da44d" fill-rule="evenodd" fill-opacity="1" stroke="#000000" stroke-opacity="1" stroke-width="3.2"/>
<circle clip-path="url(#clip972)" cx="1405.57" cy="888.524" r="14.4" fill="#3da44d" fill-rule="evenodd" fill-opacity="1" stroke="#000000" stroke-opacity="1" stroke-width="3.2"/>
<circle clip-path="url(#clip972)" cx="1483.65" cy="711.028" r="14.4" fill="#3da44d" fill-rule="evenodd" fill-opacity="1" stroke="#000000" stroke-opacity="1" stroke-width="3.2"/>
<circle clip-path="url(#clip972)" cx="1455.84" cy="805.459" r="14.4" fill="#3da44d" fill-rule="evenodd" fill-opacity="1" stroke="#000000" stroke-opacity="1" stroke-width="3.2"/>
<circle clip-path="url(#clip972)" cx="1521.02" cy="772.454" r="14.4" fill="#3da44d" fill-rule="evenodd" fill-opacity="1" stroke="#000000" stroke-opacity="1" stroke-width="3.2"/>
<circle clip-path="url(#clip972)" cx="1509.53" cy="962.921" r="14.4" fill="#3da44d" fill-rule="evenodd" fill-opacity="1" stroke="#000000" stroke-opacity="1" stroke-width="3.2"/>
<circle clip-path="url(#clip972)" cx="1445.47" cy="985.742" r="14.4" fill="#3da44d" fill-rule="evenodd" fill-opacity="1" stroke="#000000" stroke-opacity="1" stroke-width="3.2"/>
<circle clip-path="url(#clip972)" cx="1460.62" cy="783.114" r="14.4" fill="#3da44d" fill-rule="evenodd" fill-opacity="1" stroke="#000000" stroke-opacity="1" stroke-width="3.2"/>
<circle clip-path="url(#clip972)" cx="1441.85" cy="1003.54" r="14.4" fill="#3da44d" fill-rule="evenodd" fill-opacity="1" stroke="#000000" stroke-opacity="1" stroke-width="3.2"/>
<circle clip-path="url(#clip972)" cx="1600.73" cy="609.856" r="14.4" fill="#3da44d" fill-rule="evenodd" fill-opacity="1" stroke="#000000" stroke-opacity="1" stroke-width="3.2"/>
<circle clip-path="url(#clip972)" cx="1514.61" cy="493.399" r="14.4" fill="#3da44d" fill-rule="evenodd" fill-opacity="1" stroke="#000000" stroke-opacity="1" stroke-width="3.2"/>
<circle clip-path="url(#clip972)" cx="1457.1" cy="915.275" r="14.4" fill="#3da44d" fill-rule="evenodd" fill-opacity="1" stroke="#000000" stroke-opacity="1" stroke-width="3.2"/>
<circle clip-path="url(#clip972)" cx="1483.19" cy="892.134" r="14.4" fill="#3da44d" fill-rule="evenodd" fill-opacity="1" stroke="#000000" stroke-opacity="1" stroke-width="3.2"/>
<circle clip-path="url(#clip972)" cx="1544.53" cy="600.443" r="14.4" fill="#3da44d" fill-rule="evenodd" fill-opacity="1" stroke="#000000" stroke-opacity="1" stroke-width="3.2"/>
<circle clip-path="url(#clip972)" cx="1443.72" cy="689.349" r="14.4" fill="#3da44d" fill-rule="evenodd" fill-opacity="1" stroke="#000000" stroke-opacity="1" stroke-width="3.2"/>
<circle clip-path="url(#clip972)" cx="1449.15" cy="935.812" r="14.4" fill="#3da44d" fill-rule="evenodd" fill-opacity="1" stroke="#000000" stroke-opacity="1" stroke-width="3.2"/>
<circle clip-path="url(#clip972)" cx="1448.4" cy="753.191" r="14.4" fill="#3da44d" fill-rule="evenodd" fill-opacity="1" stroke="#000000" stroke-opacity="1" stroke-width="3.2"/>
<circle clip-path="url(#clip972)" cx="1428.17" cy="738.163" r="14.4" fill="#3da44d" fill-rule="evenodd" fill-opacity="1" stroke="#000000" stroke-opacity="1" stroke-width="3.2"/>
<circle clip-path="url(#clip972)" cx="1422.24" cy="829.526" r="14.4" fill="#3da44d" fill-rule="evenodd" fill-opacity="1" stroke="#000000" stroke-opacity="1" stroke-width="3.2"/>
<circle clip-path="url(#clip972)" cx="1512.42" cy="805.91" r="14.4" fill="#3da44d" fill-rule="evenodd" fill-opacity="1" stroke="#000000" stroke-opacity="1" stroke-width="3.2"/>
<circle clip-path="url(#clip972)" cx="1441.15" cy="626.435" r="14.4" fill="#3da44d" fill-rule="evenodd" fill-opacity="1" stroke="#000000" stroke-opacity="1" stroke-width="3.2"/>
<circle clip-path="url(#clip972)" cx="1495.78" cy="605.527" r="14.4" fill="#3da44d" fill-rule="evenodd" fill-opacity="1" stroke="#000000" stroke-opacity="1" stroke-width="3.2"/>
<circle clip-path="url(#clip972)" cx="1389.98" cy="910.216" r="14.4" fill="#3da44d" fill-rule="evenodd" fill-opacity="1" stroke="#000000" stroke-opacity="1" stroke-width="3.2"/>
<circle clip-path="url(#clip972)" cx="1516.8" cy="830.297" r="14.4" fill="#3da44d" fill-rule="evenodd" fill-opacity="1" stroke="#000000" stroke-opacity="1" stroke-width="3.2"/>
<circle clip-path="url(#clip972)" cx="1440.19" cy="658.734" r="14.4" fill="#3da44d" fill-rule="evenodd" fill-opacity="1" stroke="#000000" stroke-opacity="1" stroke-width="3.2"/>
<circle clip-path="url(#clip972)" cx="1521.95" cy="615.149" r="14.4" fill="#3da44d" fill-rule="evenodd" fill-opacity="1" stroke="#000000" stroke-opacity="1" stroke-width="3.2"/>
<circle clip-path="url(#clip972)" cx="1473.1" cy="723.124" r="14.4" fill="#3da44d" fill-rule="evenodd" fill-opacity="1" stroke="#000000" stroke-opacity="1" stroke-width="3.2"/>
<circle clip-path="url(#clip972)" cx="1464.68" cy="1108.61" r="14.4" fill="#3da44d" fill-rule="evenodd" fill-opacity="1" stroke="#000000" stroke-opacity="1" stroke-width="3.2"/>
<circle clip-path="url(#clip972)" cx="1455.45" cy="835.486" r="14.4" fill="#3da44d" fill-rule="evenodd" fill-opacity="1" stroke="#000000" stroke-opacity="1" stroke-width="3.2"/>
<circle clip-path="url(#clip972)" cx="1417.84" cy="842.908" r="14.4" fill="#3da44d" fill-rule="evenodd" fill-opacity="1" stroke="#000000" stroke-opacity="1" stroke-width="3.2"/>
<circle clip-path="url(#clip972)" cx="1428.34" cy="820.394" r="14.4" fill="#3da44d" fill-rule="evenodd" fill-opacity="1" stroke="#000000" stroke-opacity="1" stroke-width="3.2"/>
<circle clip-path="url(#clip972)" cx="1474.21" cy="934.552" r="14.4" fill="#3da44d" fill-rule="evenodd" fill-opacity="1" stroke="#000000" stroke-opacity="1" stroke-width="3.2"/>
<circle clip-path="url(#clip972)" cx="1405.96" cy="858.496" r="14.4" fill="#3da44d" fill-rule="evenodd" fill-opacity="1" stroke="#000000" stroke-opacity="1" stroke-width="3.2"/>
<circle clip-path="url(#clip972)" cx="1498.75" cy="805.55" r="14.4" fill="#3da44d" fill-rule="evenodd" fill-opacity="1" stroke="#000000" stroke-opacity="1" stroke-width="3.2"/>
<circle clip-path="url(#clip972)" cx="1483.84" cy="939.33" r="14.4" fill="#3da44d" fill-rule="evenodd" fill-opacity="1" stroke="#000000" stroke-opacity="1" stroke-width="3.2"/>
<circle clip-path="url(#clip972)" cx="1466.68" cy="1033.36" r="14.4" fill="#3da44d" fill-rule="evenodd" fill-opacity="1" stroke="#000000" stroke-opacity="1" stroke-width="3.2"/>
<circle clip-path="url(#clip972)" cx="1439.44" cy="860.5" r="14.4" fill="#3da44d" fill-rule="evenodd" fill-opacity="1" stroke="#000000" stroke-opacity="1" stroke-width="3.2"/>
<circle clip-path="url(#clip972)" cx="1480.77" cy="646.429" r="14.4" fill="#3da44d" fill-rule="evenodd" fill-opacity="1" stroke="#000000" stroke-opacity="1" stroke-width="3.2"/>
<circle clip-path="url(#clip972)" cx="1438.24" cy="821.216" r="14.4" fill="#3da44d" fill-rule="evenodd" fill-opacity="1" stroke="#000000" stroke-opacity="1" stroke-width="3.2"/>
<circle clip-path="url(#clip972)" cx="1445.51" cy="1094.04" r="14.4" fill="#3da44d" fill-rule="evenodd" fill-opacity="1" stroke="#000000" stroke-opacity="1" stroke-width="3.2"/>
<circle clip-path="url(#clip972)" cx="1454.96" cy="870.521" r="14.4" fill="#3da44d" fill-rule="evenodd" fill-opacity="1" stroke="#000000" stroke-opacity="1" stroke-width="3.2"/>
<path clip-path="url(#clip970)" d="
M1997.08 300.469 L2282.91 300.469 L2282.91 93.1086 L1997.08 93.1086  Z
  " fill="#ffffff" fill-rule="evenodd" fill-opacity="1"/>
<polyline clip-path="url(#clip970)" style="stroke:#000000; stroke-linecap:round; stroke-linejoin:round; stroke-width:4; stroke-opacity:1; fill:none" points="
  1997.08,300.469 2282.91,300.469 2282.91,93.1086 1997.08,93.1086 1997.08,300.469 
  "/>
<circle clip-path="url(#clip970)" cx="2090.21" cy="144.949" r="23.04" fill="#009af9" fill-rule="evenodd" fill-opacity="1" stroke="#000000" stroke-opacity="1" stroke-width="5.12"/>
<path clip-path="url(#clip970)" d="M2197.18 164.636 Q2195.37 169.266 2193.66 170.678 Q2191.95 172.09 2189.08 172.09 L2185.67 172.09 L2185.67 168.525 L2188.17 168.525 Q2189.93 168.525 2190.91 167.692 Q2191.88 166.858 2193.06 163.756 L2193.82 161.812 L2183.34 136.303 L2187.85 136.303 L2195.95 156.581 L2204.05 136.303 L2208.57 136.303 L2197.18 164.636 Z" fill="#000000" fill-rule="evenodd" fill-opacity="1" /><path clip-path="url(#clip970)" d="M2215.86 158.293 L2223.5 158.293 L2223.5 131.928 L2215.19 133.595 L2215.19 129.335 L2223.45 127.669 L2228.13 127.669 L2228.13 158.293 L2235.77 158.293 L2235.77 162.229 L2215.86 162.229 L2215.86 158.293 Z" fill="#000000" fill-rule="evenodd" fill-opacity="1" /><circle clip-path="url(#clip970)" cx="2090.21" cy="196.789" r="23.04" fill="#e26f46" fill-rule="evenodd" fill-opacity="1" stroke="#000000" stroke-opacity="1" stroke-width="5.12"/>
<path clip-path="url(#clip970)" d="M2197.18 216.476 Q2195.37 221.106 2193.66 222.518 Q2191.95 223.93 2189.08 223.93 L2185.67 223.93 L2185.67 220.365 L2188.17 220.365 Q2189.93 220.365 2190.91 219.532 Q2191.88 218.698 2193.06 215.596 L2193.82 213.652 L2183.34 188.143 L2187.85 188.143 L2195.95 208.421 L2204.05 188.143 L2208.57 188.143 L2197.18 216.476 Z" fill="#000000" fill-rule="evenodd" fill-opacity="1" /><path clip-path="url(#clip970)" d="M2219.08 210.133 L2235.4 210.133 L2235.4 214.069 L2213.45 214.069 L2213.45 210.133 Q2216.11 207.379 2220.7 202.749 Q2225.3 198.096 2226.48 196.754 Q2228.73 194.231 2229.61 192.495 Q2230.51 190.735 2230.51 189.046 Q2230.51 186.291 2228.57 184.555 Q2226.65 182.819 2223.54 182.819 Q2221.35 182.819 2218.89 183.583 Q2216.46 184.347 2213.68 185.897 L2213.68 181.175 Q2216.51 180.041 2218.96 179.462 Q2221.41 178.884 2223.45 178.884 Q2228.82 178.884 2232.02 181.569 Q2235.21 184.254 2235.21 188.745 Q2235.21 190.874 2234.4 192.796 Q2233.61 194.694 2231.51 197.286 Q2230.93 197.958 2227.83 201.175 Q2224.73 204.37 2219.08 210.133 Z" fill="#000000" fill-rule="evenodd" fill-opacity="1" /><circle clip-path="url(#clip970)" cx="2090.21" cy="248.629" r="23.04" fill="#3da44d" fill-rule="evenodd" fill-opacity="1" stroke="#000000" stroke-opacity="1" stroke-width="5.12"/>
<path clip-path="url(#clip970)" d="M2197.18 268.316 Q2195.37 272.946 2193.66 274.358 Q2191.95 275.77 2189.08 275.77 L2185.67 275.77 L2185.67 272.205 L2188.17 272.205 Q2189.93 272.205 2190.91 271.372 Q2191.88 270.538 2193.06 267.436 L2193.82 265.492 L2183.34 239.983 L2187.85 239.983 L2195.95 260.261 L2204.05 239.983 L2208.57 239.983 L2197.18 268.316 Z" fill="#000000" fill-rule="evenodd" fill-opacity="1" /><path clip-path="url(#clip970)" d="M2229.22 247.274 Q2232.57 247.992 2234.45 250.261 Q2236.35 252.529 2236.35 255.862 Q2236.35 260.978 2232.83 263.779 Q2229.31 266.58 2222.83 266.58 Q2220.65 266.58 2218.34 266.14 Q2216.04 265.723 2213.59 264.867 L2213.59 260.353 Q2215.54 261.487 2217.85 262.066 Q2220.16 262.645 2222.69 262.645 Q2227.09 262.645 2229.38 260.909 Q2231.69 259.173 2231.69 255.862 Q2231.69 252.807 2229.54 251.094 Q2227.41 249.358 2223.59 249.358 L2219.56 249.358 L2219.56 245.515 L2223.78 245.515 Q2227.23 245.515 2229.05 244.149 Q2230.88 242.761 2230.88 240.168 Q2230.88 237.506 2228.98 236.094 Q2227.11 234.659 2223.59 234.659 Q2221.67 234.659 2219.47 235.075 Q2217.27 235.492 2214.63 236.372 L2214.63 232.205 Q2217.29 231.464 2219.61 231.094 Q2221.95 230.724 2224.01 230.724 Q2229.33 230.724 2232.43 233.154 Q2235.54 235.562 2235.54 239.682 Q2235.54 242.552 2233.89 244.543 Q2232.25 246.511 2229.22 247.274 Z" fill="#000000" fill-rule="evenodd" fill-opacity="1" /></svg>
