<?xml version="1.0" encoding="utf-8"?>
<svg xmlns="http://www.w3.org/2000/svg" xmlns:xlink="http://www.w3.org/1999/xlink" width="600" height="400" viewBox="0 0 2400 1600">
<defs>
  <clipPath id="clip930">
    <rect x="0" y="0" width="2400" height="1600"/>
  </clipPath>
</defs>
<path clip-path="url(#clip930)" d="
M0 1600 L2400 1600 L2400 0 L0 0  Z
  " fill="#ffffff" fill-rule="evenodd" fill-opacity="1"/>
<defs>
  <clipPath id="clip931">
    <rect x="480" y="0" width="1681" height="1600"/>
  </clipPath>
</defs>
<path clip-path="url(#clip930)" d="
M257.204 1423.18 L2352.76 1423.18 L2352.76 47.2441 L257.204 47.2441  Z
  " fill="#ffffff" fill-rule="evenodd" fill-opacity="1"/>
<defs>
  <clipPath id="clip932">
    <rect x="257" y="47" width="2097" height="1377"/>
  </clipPath>
</defs>
<polyline clip-path="url(#clip932)" style="stroke:#000000; stroke-linecap:round; stroke-linejoin:round; stroke-width:2; stroke-opacity:0.1; fill:none" points="
  661.18,1423.18 661.18,47.2441 
  "/>
<polyline clip-path="url(#clip932)" style="stroke:#000000; stroke-linecap:round; stroke-linejoin:round; stroke-width:2; stroke-opacity:0.1; fill:none" points="
  1224.45,1423.18 1224.45,47.2441 
  "/>
<polyline clip-path="url(#clip932)" style="stroke:#000000; stroke-linecap:round; stroke-linejoin:round; stroke-width:2; stroke-opacity:0.1; fill:none" points="
  1787.73,1423.18 1787.73,47.2441 
  "/>
<polyline clip-path="url(#clip932)" style="stroke:#000000; stroke-linecap:round; stroke-linejoin:round; stroke-width:2; stroke-opacity:0.1; fill:none" points="
  2351,1423.18 2351,47.2441 
  "/>
<polyline clip-path="url(#clip930)" style="stroke:#000000; stroke-linecap:round; stroke-linejoin:round; stroke-width:4; stroke-opacity:1; fill:none" points="
  257.204,1423.18 2352.76,1423.18 
  "/>
<polyline clip-path="url(#clip930)" style="stroke:#000000; stroke-linecap:round; stroke-linejoin:round; stroke-width:4; stroke-opacity:1; fill:none" points="
  661.18,1423.18 661.18,1404.28 
  "/>
<polyline clip-path="url(#clip930)" style="stroke:#000000; stroke-linecap:round; stroke-linejoin:round; stroke-width:4; stroke-opacity:1; fill:none" points="
  1224.45,1423.18 1224.45,1404.28 
  "/>
<polyline clip-path="url(#clip930)" style="stroke:#000000; stroke-linecap:round; stroke-linejoin:round; stroke-width:4; stroke-opacity:1; fill:none" points="
  1787.73,1423.18 1787.73,1404.28 
  "/>
<polyline clip-path="url(#clip930)" style="stroke:#000000; stroke-linecap:round; stroke-linejoin:round; stroke-width:4; stroke-opacity:1; fill:none" points="
  2351,1423.18 2351,1404.28 
  "/>
<path clip-path="url(#clip930)" d="M631.123 1468.75 L660.798 1468.75 L660.798 1472.69 L631.123 1472.69 L631.123 1468.75 Z" fill="#000000" fill-rule="evenodd" fill-opacity="1" /><path clip-path="url(#clip930)" d="M674.919 1481.64 L691.238 1481.64 L691.238 1485.58 L669.294 1485.58 L669.294 1481.64 Q671.956 1478.89 676.539 1474.26 Q681.146 1469.61 682.326 1468.27 Q684.571 1465.74 685.451 1464.01 Q686.354 1462.25 686.354 1460.56 Q686.354 1457.8 684.409 1456.07 Q682.488 1454.33 679.386 1454.33 Q677.187 1454.33 674.734 1455.09 Q672.303 1455.86 669.525 1457.41 L669.525 1452.69 Q672.349 1451.55 674.803 1450.97 Q677.257 1450.39 679.294 1450.39 Q684.664 1450.39 687.858 1453.08 Q691.053 1455.77 691.053 1460.26 Q691.053 1462.39 690.243 1464.31 Q689.456 1466.2 687.349 1468.8 Q686.771 1469.47 683.669 1472.69 Q680.567 1475.88 674.919 1481.64 Z" fill="#000000" fill-rule="evenodd" fill-opacity="1" /><path clip-path="url(#clip930)" d="M1224.45 1454.1 Q1220.84 1454.1 1219.01 1457.66 Q1217.21 1461.2 1217.21 1468.33 Q1217.21 1475.44 1219.01 1479.01 Q1220.84 1482.55 1224.45 1482.55 Q1228.09 1482.55 1229.89 1479.01 Q1231.72 1475.44 1231.72 1468.33 Q1231.72 1461.2 1229.89 1457.66 Q1228.09 1454.1 1224.45 1454.1 M1224.45 1450.39 Q1230.26 1450.39 1233.32 1455 Q1236.4 1459.58 1236.4 1468.33 Q1236.4 1477.06 1233.32 1481.67 Q1230.26 1486.25 1224.45 1486.25 Q1218.64 1486.25 1215.57 1481.67 Q1212.51 1477.06 1212.51 1468.33 Q1212.51 1459.58 1215.57 1455 Q1218.64 1450.39 1224.45 1450.39 Z" fill="#000000" fill-rule="evenodd" fill-opacity="1" /><path clip-path="url(#clip930)" d="M1782.38 1481.64 L1798.7 1481.64 L1798.7 1485.58 L1776.76 1485.58 L1776.76 1481.64 Q1779.42 1478.89 1784 1474.26 Q1788.61 1469.61 1789.79 1468.27 Q1792.03 1465.74 1792.91 1464.01 Q1793.82 1462.25 1793.82 1460.56 Q1793.82 1457.8 1791.87 1456.07 Q1789.95 1454.33 1786.85 1454.33 Q1784.65 1454.33 1782.2 1455.09 Q1779.76 1455.86 1776.99 1457.41 L1776.99 1452.69 Q1779.81 1451.55 1782.26 1450.97 Q1784.72 1450.39 1786.76 1450.39 Q1792.13 1450.39 1795.32 1453.08 Q1798.51 1455.77 1798.51 1460.26 Q1798.51 1462.39 1797.7 1464.31 Q1796.92 1466.2 1794.81 1468.8 Q1794.23 1469.47 1791.13 1472.69 Q1788.03 1475.88 1782.38 1481.64 Z" fill="#000000" fill-rule="evenodd" fill-opacity="1" /><path clip-path="url(#clip930)" d="M2354.01 1455.09 L2342.21 1473.54 L2354.01 1473.54 L2354.01 1455.09 M2352.78 1451.02 L2358.66 1451.02 L2358.66 1473.54 L2363.59 1473.54 L2363.59 1477.43 L2358.66 1477.43 L2358.66 1485.58 L2354.01 1485.58 L2354.01 1477.43 L2338.41 1477.43 L2338.41 1472.92 L2352.78 1451.02 Z" fill="#000000" fill-rule="evenodd" fill-opacity="1" /><path clip-path="url(#clip930)" d="M1254.47 1525.81 L1254.47 1543.66 L1262.55 1543.66 Q1267.04 1543.66 1269.49 1541.34 Q1271.94 1539.02 1271.94 1534.72 Q1271.94 1530.45 1269.49 1528.13 Q1267.04 1525.81 1262.55 1525.81 L1254.47 1525.81 M1248.04 1520.52 L1262.55 1520.52 Q1270.54 1520.52 1274.62 1524.15 Q1278.72 1527.75 1278.72 1534.72 Q1278.72 1541.75 1274.62 1545.35 Q1270.54 1548.95 1262.55 1548.95 L1254.47 1548.95 L1254.47 1568.04 L1248.04 1568.04 L1248.04 1520.52 Z" fill="#000000" fill-rule="evenodd" fill-opacity="1" /><path clip-path="url(#clip930)" d="M1322.93 1524.18 L1322.93 1530.96 Q1319.68 1527.94 1315.99 1526.44 Q1312.33 1524.95 1308.19 1524.95 Q1300.05 1524.95 1295.72 1529.95 Q1291.39 1534.91 1291.39 1544.33 Q1291.39 1553.72 1295.72 1558.72 Q1300.05 1563.68 1308.19 1563.68 Q1312.33 1563.68 1315.99 1562.19 Q1319.68 1560.69 1322.93 1557.67 L1322.93 1564.38 Q1319.56 1566.68 1315.77 1567.82 Q1312.01 1568.97 1307.81 1568.97 Q1297.02 1568.97 1290.82 1562.38 Q1284.61 1555.76 1284.61 1544.33 Q1284.61 1532.87 1290.82 1526.28 Q1297.02 1519.66 1307.81 1519.66 Q1312.08 1519.66 1315.83 1520.81 Q1319.62 1521.92 1322.93 1524.18 Z" fill="#000000" fill-rule="evenodd" fill-opacity="1" /><path clip-path="url(#clip930)" d="M1334.55 1562.63 L1345.05 1562.63 L1345.05 1526.38 L1333.63 1528.67 L1333.63 1522.82 L1344.99 1520.52 L1351.42 1520.52 L1351.42 1562.63 L1361.92 1562.63 L1361.92 1568.04 L1334.55 1568.04 L1334.55 1562.63 Z" fill="#000000" fill-rule="evenodd" fill-opacity="1" /><polyline clip-path="url(#clip932)" style="stroke:#000000; stroke-linecap:round; stroke-linejoin:round; stroke-width:2; stroke-opacity:0.1; fill:none" points="
  257.204,1200.28 2352.76,1200.28 
  "/>
<polyline clip-path="url(#clip932)" style="stroke:#000000; stroke-linecap:round; stroke-linejoin:round; stroke-width:2; stroke-opacity:0.1; fill:none" points="
  257.204,954.445 2352.76,954.445 
  "/>
<polyline clip-path="url(#clip932)" style="stroke:#000000; stroke-linecap:round; stroke-linejoin:round; stroke-width:2; stroke-opacity:0.1; fill:none" points="
  257.204,708.615 2352.76,708.615 
  "/>
<polyline clip-path="url(#clip932)" style="stroke:#000000; stroke-linecap:round; stroke-linejoin:round; stroke-width:2; stroke-opacity:0.1; fill:none" points="
  257.204,462.784 2352.76,462.784 
  "/>
<polyline clip-path="url(#clip932)" style="stroke:#000000; stroke-linecap:round; stroke-linejoin:round; stroke-width:2; stroke-opacity:0.1; fill:none" points="
  257.204,216.953 2352.76,216.953 
  "/>
<polyline clip-path="url(#clip930)" style="stroke:#000000; stroke-linecap:round; stroke-linejoin:round; stroke-width:4; stroke-opacity:1; fill:none" points="
  257.204,1423.18 257.204,47.2441 
  "/>
<polyline clip-path="url(#clip930)" style="stroke:#000000; stroke-linecap:round; stroke-linejoin:round; stroke-width:4; stroke-opacity:1; fill:none" points="
  257.204,1200.28 276.102,1200.28 
  "/>
<polyline clip-path="url(#clip930)" style="stroke:#000000; stroke-linecap:round; stroke-linejoin:round; stroke-width:4; stroke-opacity:1; fill:none" points="
  257.204,954.445 276.102,954.445 
  "/>
<polyline clip-path="url(#clip930)" style="stroke:#000000; stroke-linecap:round; stroke-linejoin:round; stroke-width:4; stroke-opacity:1; fill:none" points="
  257.204,708.615 276.102,708.615 
  "/>
<polyline clip-path="url(#clip930)" style="stroke:#000000; stroke-linecap:round; stroke-linejoin:round; stroke-width:4; stroke-opacity:1; fill:none" points="
  257.204,462.784 276.102,462.784 
  "/>
<polyline clip-path="url(#clip930)" style="stroke:#000000; stroke-linecap:round; stroke-linejoin:round; stroke-width:4; stroke-opacity:1; fill:none" points="
  257.204,216.953 276.102,216.953 
  "/>
<path clip-path="url(#clip930)" d="M114.26 1200.73 L143.936 1200.73 L143.936 1204.66 L114.26 1204.66 L114.26 1200.73 Z" fill="#000000" fill-rule="evenodd" fill-opacity="1" /><path clip-path="url(#clip930)" d="M154.839 1213.62 L162.477 1213.62 L162.477 1187.26 L154.167 1188.92 L154.167 1184.66 L162.431 1183 L167.107 1183 L167.107 1213.62 L174.746 1213.62 L174.746 1217.56 L154.839 1217.56 L154.839 1213.62 Z" fill="#000000" fill-rule="evenodd" fill-opacity="1" /><path clip-path="url(#clip930)" d="M184.19 1211.68 L189.075 1211.68 L189.075 1217.56 L184.19 1217.56 L184.19 1211.68 Z" fill="#000000" fill-rule="evenodd" fill-opacity="1" /><path clip-path="url(#clip930)" d="M209.26 1186.07 Q205.649 1186.07 203.82 1189.64 Q202.014 1193.18 202.014 1200.31 Q202.014 1207.42 203.82 1210.98 Q205.649 1214.52 209.26 1214.52 Q212.894 1214.52 214.699 1210.98 Q216.528 1207.42 216.528 1200.31 Q216.528 1193.18 214.699 1189.64 Q212.894 1186.07 209.26 1186.07 M209.26 1182.37 Q215.07 1182.37 218.125 1186.98 Q221.204 1191.56 221.204 1200.31 Q221.204 1209.04 218.125 1213.64 Q215.07 1218.23 209.26 1218.23 Q203.449 1218.23 200.371 1213.64 Q197.315 1209.04 197.315 1200.31 Q197.315 1191.56 200.371 1186.98 Q203.449 1182.37 209.26 1182.37 Z" fill="#000000" fill-rule="evenodd" fill-opacity="1" /><path clip-path="url(#clip930)" d="M115.256 954.897 L144.931 954.897 L144.931 958.832 L115.256 958.832 L115.256 954.897 Z" fill="#000000" fill-rule="evenodd" fill-opacity="1" /><path clip-path="url(#clip930)" d="M165.024 940.244 Q161.413 940.244 159.584 943.809 Q157.778 947.35 157.778 954.48 Q157.778 961.586 159.584 965.151 Q161.413 968.693 165.024 968.693 Q168.658 968.693 170.464 965.151 Q172.292 961.586 172.292 954.48 Q172.292 947.35 170.464 943.809 Q168.658 940.244 165.024 940.244 M165.024 936.54 Q170.834 936.54 173.889 941.147 Q176.968 945.73 176.968 954.48 Q176.968 963.207 173.889 967.813 Q170.834 972.396 165.024 972.396 Q159.214 972.396 156.135 967.813 Q153.079 963.207 153.079 954.48 Q153.079 945.73 156.135 941.147 Q159.214 936.54 165.024 936.54 Z" fill="#000000" fill-rule="evenodd" fill-opacity="1" /><path clip-path="url(#clip930)" d="M185.186 965.846 L190.07 965.846 L190.07 971.725 L185.186 971.725 L185.186 965.846 Z" fill="#000000" fill-rule="evenodd" fill-opacity="1" /><path clip-path="url(#clip930)" d="M200.301 937.165 L218.658 937.165 L218.658 941.1 L204.584 941.1 L204.584 949.573 Q205.602 949.225 206.621 949.063 Q207.639 948.878 208.658 948.878 Q214.445 948.878 217.824 952.049 Q221.204 955.221 221.204 960.637 Q221.204 966.216 217.732 969.318 Q214.26 972.396 207.94 972.396 Q205.764 972.396 203.496 972.026 Q201.25 971.656 198.843 970.915 L198.843 966.216 Q200.926 967.35 203.149 967.906 Q205.371 968.461 207.848 968.461 Q211.852 968.461 214.19 966.355 Q216.528 964.248 216.528 960.637 Q216.528 957.026 214.19 954.92 Q211.852 952.813 207.848 952.813 Q205.973 952.813 204.098 953.23 Q202.246 953.647 200.301 954.526 L200.301 937.165 Z" fill="#000000" fill-rule="evenodd" fill-opacity="1" /><path clip-path="url(#clip930)" d="M164.028 694.413 Q160.417 694.413 158.589 697.978 Q156.783 701.52 156.783 708.649 Q156.783 715.756 158.589 719.321 Q160.417 722.862 164.028 722.862 Q167.663 722.862 169.468 719.321 Q171.297 715.756 171.297 708.649 Q171.297 701.52 169.468 697.978 Q167.663 694.413 164.028 694.413 M164.028 690.71 Q169.839 690.71 172.894 695.316 Q175.973 699.899 175.973 708.649 Q175.973 717.376 172.894 721.983 Q169.839 726.566 164.028 726.566 Q158.218 726.566 155.14 721.983 Q152.084 717.376 152.084 708.649 Q152.084 699.899 155.14 695.316 Q158.218 690.71 164.028 690.71 Z" fill="#000000" fill-rule="evenodd" fill-opacity="1" /><path clip-path="url(#clip930)" d="M184.19 720.015 L189.075 720.015 L189.075 725.895 L184.19 725.895 L184.19 720.015 Z" fill="#000000" fill-rule="evenodd" fill-opacity="1" /><path clip-path="url(#clip930)" d="M209.26 694.413 Q205.649 694.413 203.82 697.978 Q202.014 701.52 202.014 708.649 Q202.014 715.756 203.82 719.321 Q205.649 722.862 209.26 722.862 Q212.894 722.862 214.699 719.321 Q216.528 715.756 216.528 708.649 Q216.528 701.52 214.699 697.978 Q212.894 694.413 209.26 694.413 M209.26 690.71 Q215.07 690.71 218.125 695.316 Q221.204 699.899 221.204 708.649 Q221.204 717.376 218.125 721.983 Q215.07 726.566 209.26 726.566 Q203.449 726.566 200.371 721.983 Q197.315 717.376 197.315 708.649 Q197.315 699.899 200.371 695.316 Q203.449 690.71 209.26 690.71 Z" fill="#000000" fill-rule="evenodd" fill-opacity="1" /><path clip-path="url(#clip930)" d="M165.024 448.583 Q161.413 448.583 159.584 452.147 Q157.778 455.689 157.778 462.819 Q157.778 469.925 159.584 473.49 Q161.413 477.032 165.024 477.032 Q168.658 477.032 170.464 473.49 Q172.292 469.925 172.292 462.819 Q172.292 455.689 170.464 452.147 Q168.658 448.583 165.024 448.583 M165.024 444.879 Q170.834 444.879 173.889 449.485 Q176.968 454.069 176.968 462.819 Q176.968 471.546 173.889 476.152 Q170.834 480.735 165.024 480.735 Q159.214 480.735 156.135 476.152 Q153.079 471.546 153.079 462.819 Q153.079 454.069 156.135 449.485 Q159.214 444.879 165.024 444.879 Z" fill="#000000" fill-rule="evenodd" fill-opacity="1" /><path clip-path="url(#clip930)" d="M185.186 474.184 L190.07 474.184 L190.07 480.064 L185.186 480.064 L185.186 474.184 Z" fill="#000000" fill-rule="evenodd" fill-opacity="1" /><path clip-path="url(#clip930)" d="M200.301 445.504 L218.658 445.504 L218.658 449.439 L204.584 449.439 L204.584 457.911 Q205.602 457.564 206.621 457.402 Q207.639 457.217 208.658 457.217 Q214.445 457.217 217.824 460.388 Q221.204 463.559 221.204 468.976 Q221.204 474.555 217.732 477.657 Q214.26 480.735 207.94 480.735 Q205.764 480.735 203.496 480.365 Q201.25 479.995 198.843 479.254 L198.843 474.555 Q200.926 475.689 203.149 476.245 Q205.371 476.8 207.848 476.8 Q211.852 476.8 214.19 474.694 Q216.528 472.587 216.528 468.976 Q216.528 465.365 214.19 463.259 Q211.852 461.152 207.848 461.152 Q205.973 461.152 204.098 461.569 Q202.246 461.985 200.301 462.865 L200.301 445.504 Z" fill="#000000" fill-rule="evenodd" fill-opacity="1" /><path clip-path="url(#clip930)" d="M154.839 230.298 L162.477 230.298 L162.477 203.933 L154.167 205.599 L154.167 201.34 L162.431 199.673 L167.107 199.673 L167.107 230.298 L174.746 230.298 L174.746 234.233 L154.839 234.233 L154.839 230.298 Z" fill="#000000" fill-rule="evenodd" fill-opacity="1" /><path clip-path="url(#clip930)" d="M184.19 228.354 L189.075 228.354 L189.075 234.233 L184.19 234.233 L184.19 228.354 Z" fill="#000000" fill-rule="evenodd" fill-opacity="1" /><path clip-path="url(#clip930)" d="M209.26 202.752 Q205.649 202.752 203.82 206.317 Q202.014 209.859 202.014 216.988 Q202.014 224.095 203.82 227.659 Q205.649 231.201 209.26 231.201 Q212.894 231.201 214.699 227.659 Q216.528 224.095 216.528 216.988 Q216.528 209.859 214.699 206.317 Q212.894 202.752 209.26 202.752 M209.26 199.048 Q215.07 199.048 218.125 203.655 Q221.204 208.238 221.204 216.988 Q221.204 225.715 218.125 230.321 Q215.07 234.905 209.26 234.905 Q203.449 234.905 200.371 230.321 Q197.315 225.715 197.315 216.988 Q197.315 208.238 200.371 203.655 Q203.449 199.048 209.26 199.048 Z" fill="#000000" fill-rule="evenodd" fill-opacity="1" /><path clip-path="url(#clip930)" d="M21.7677 785.469 L39.6235 785.469 L39.6235 777.385 Q39.6235 772.897 37.3 770.446 Q34.9765 767.995 30.6797 767.995 Q26.4147 767.995 24.0912 770.446 Q21.7677 772.897 21.7677 777.385 L21.7677 785.469 M16.4842 791.899 L16.4842 777.385 Q16.4842 769.396 20.1126 765.322 Q23.7092 761.216 30.6797 761.216 Q37.7138 761.216 41.3104 765.322 Q44.907 769.396 44.907 777.385 L44.907 785.469 L64.0042 785.469 L64.0042 791.899 L16.4842 791.899 Z" fill="#000000" fill-rule="evenodd" fill-opacity="1" /><path clip-path="url(#clip930)" d="M20.1444 717.006 L26.9239 717.006 Q23.9002 720.253 22.4043 723.945 Q20.9083 727.605 20.9083 731.743 Q20.9083 739.891 25.9054 744.219 Q30.8707 748.548 40.2919 748.548 Q49.6813 748.548 54.6784 744.219 Q59.6436 739.891 59.6436 731.743 Q59.6436 727.605 58.1477 723.945 Q56.6518 720.253 53.6281 717.006 L60.3439 717.006 Q62.6355 720.38 63.7814 724.167 Q64.9272 727.923 64.9272 732.125 Q64.9272 742.914 58.3387 749.121 Q51.7183 755.328 40.2919 755.328 Q28.8336 755.328 22.2451 749.121 Q15.6248 742.914 15.6248 732.125 Q15.6248 727.86 16.7706 724.104 Q17.8846 720.316 20.1444 717.006 Z" fill="#000000" fill-rule="evenodd" fill-opacity="1" /><path clip-path="url(#clip930)" d="M58.5933 700.964 L58.5933 678.525 L64.0042 678.525 L64.0042 708.699 L58.5933 708.699 Q54.8057 705.039 48.44 698.736 Q42.0425 692.403 40.1964 690.779 Q36.7271 687.692 34.34 686.482 Q31.921 685.241 29.5975 685.241 Q25.8099 685.241 23.4228 687.915 Q21.0356 690.557 21.0356 694.822 Q21.0356 697.845 22.086 701.219 Q23.1363 704.561 25.2688 708.381 L18.7758 708.381 Q17.2162 704.497 16.4205 701.124 Q15.6248 697.75 15.6248 694.949 Q15.6248 687.565 19.3169 683.172 Q23.009 678.78 29.1837 678.78 Q32.112 678.78 34.7537 679.894 Q37.3637 680.976 40.9285 683.873 Q41.8515 684.668 46.2757 688.933 Q50.668 693.198 58.5933 700.964 Z" fill="#000000" fill-rule="evenodd" fill-opacity="1" /><circle clip-path="url(#clip932)" cx="468.505" cy="865.65" r="14.4" fill="#009af9" fill-rule="evenodd" fill-opacity="1" stroke="#000000" stroke-opacity="1" stroke-width="3.2"/>
<circle clip-path="url(#clip932)" cx="460.052" cy="621.59" r="14.4" fill="#009af9" fill-rule="evenodd" fill-opacity="1" stroke="#000000" stroke-opacity="1" stroke-width="3.2"/>
<circle clip-path="url(#clip932)" cx="410.808" cy="637.349" r="14.4" fill="#009af9" fill-rule="evenodd" fill-opacity="1" stroke="#000000" stroke-opacity="1" stroke-width="3.2"/>
<circle clip-path="url(#clip932)" cx="451.264" cy="552.119" r="14.4" fill="#009af9" fill-rule="evenodd" fill-opacity="1" stroke="#000000" stroke-opacity="1" stroke-width="3.2"/>
<circle clip-path="url(#clip932)" cx="455.947" cy="869.267" r="14.4" fill="#009af9" fill-rule="evenodd" fill-opacity="1" stroke="#000000" stroke-opacity="1" stroke-width="3.2"/>
<circle clip-path="url(#clip932)" cx="582.08" cy="1073.1" r="14.4" fill="#009af9" fill-rule="evenodd" fill-opacity="1" stroke="#000000" stroke-opacity="1" stroke-width="3.2"/>
<circle clip-path="url(#clip932)" cx="430.087" cy="664.63" r="14.4" fill="#009af9" fill-rule="evenodd" fill-opacity="1" stroke="#000000" stroke-opacity="1" stroke-width="3.2"/>
<circle clip-path="url(#clip932)" cx="484.835" cy="788.945" r="14.4" fill="#009af9" fill-rule="evenodd" fill-opacity="1" stroke="#000000" stroke-opacity="1" stroke-width="3.2"/>
<circle clip-path="url(#clip932)" cx="411.542" cy="424.281" r="14.4" fill="#009af9" fill-rule="evenodd" fill-opacity="1" stroke="#000000" stroke-opacity="1" stroke-width="3.2"/>
<circle clip-path="url(#clip932)" cx="471.708" cy="652.676" r="14.4" fill="#009af9" fill-rule="evenodd" fill-opacity="1" stroke="#000000" stroke-opacity="1" stroke-width="3.2"/>
<circle clip-path="url(#clip932)" cx="518.405" cy="1025.77" r="14.4" fill="#009af9" fill-rule="evenodd" fill-opacity="1" stroke="#000000" stroke-opacity="1" stroke-width="3.2"/>
<circle clip-path="url(#clip932)" cx="488.606" cy="715.857" r="14.4" fill="#009af9" fill-rule="evenodd" fill-opacity="1" stroke="#000000" stroke-opacity="1" stroke-width="3.2"/>
<circle clip-path="url(#clip932)" cx="439.783" cy="593.019" r="14.4" fill="#009af9" fill-rule="evenodd" fill-opacity="1" stroke="#000000" stroke-opacity="1" stroke-width="3.2"/>
<circle clip-path="url(#clip932)" cx="316.512" cy="457.182" r="14.4" fill="#009af9" fill-rule="evenodd" fill-opacity="1" stroke="#000000" stroke-opacity="1" stroke-width="3.2"/>
<circle clip-path="url(#clip932)" cx="479.595" cy="1288.17" r="14.4" fill="#009af9" fill-rule="evenodd" fill-opacity="1" stroke="#000000" stroke-opacity="1" stroke-width="3.2"/>
<circle clip-path="url(#clip932)" cx="552.458" cy="1366.49" r="14.4" fill="#009af9" fill-rule="evenodd" fill-opacity="1" stroke="#000000" stroke-opacity="1" stroke-width="3.2"/>
<circle clip-path="url(#clip932)" cx="485.572" cy="1107.19" r="14.4" fill="#009af9" fill-rule="evenodd" fill-opacity="1" stroke="#000000" stroke-opacity="1" stroke-width="3.2"/>
<circle clip-path="url(#clip932)" cx="478.596" cy="861.939" r="14.4" fill="#009af9" fill-rule="evenodd" fill-opacity="1" stroke="#000000" stroke-opacity="1" stroke-width="3.2"/>
<circle clip-path="url(#clip932)" cx="604.904" cy="1137.76" r="14.4" fill="#009af9" fill-rule="evenodd" fill-opacity="1" stroke="#000000" stroke-opacity="1" stroke-width="3.2"/>
<circle clip-path="url(#clip932)" cx="495.582" cy="961.112" r="14.4" fill="#009af9" fill-rule="evenodd" fill-opacity="1" stroke="#000000" stroke-opacity="1" stroke-width="3.2"/>
<circle clip-path="url(#clip932)" cx="573.801" cy="901.024" r="14.4" fill="#009af9" fill-rule="evenodd" fill-opacity="1" stroke="#000000" stroke-opacity="1" stroke-width="3.2"/>
<circle clip-path="url(#clip932)" cx="508.053" cy="921.502" r="14.4" fill="#009af9" fill-rule="evenodd" fill-opacity="1" stroke="#000000" stroke-opacity="1" stroke-width="3.2"/>
<circle clip-path="url(#clip932)" cx="318.727" cy="774.236" r="14.4" fill="#009af9" fill-rule="evenodd" fill-opacity="1" stroke="#000000" stroke-opacity="1" stroke-width="3.2"/>
<circle clip-path="url(#clip932)" cx="575.92" cy="757.146" r="14.4" fill="#009af9" fill-rule="evenodd" fill-opacity="1" stroke="#000000" stroke-opacity="1" stroke-width="3.2"/>
<circle clip-path="url(#clip932)" cx="560.987" cy="690.285" r="14.4" fill="#009af9" fill-rule="evenodd" fill-opacity="1" stroke="#000000" stroke-opacity="1" stroke-width="3.2"/>
<circle clip-path="url(#clip932)" cx="518.484" cy="636.824" r="14.4" fill="#009af9" fill-rule="evenodd" fill-opacity="1" stroke="#000000" stroke-opacity="1" stroke-width="3.2"/>
<circle clip-path="url(#clip932)" cx="529.143" cy="772.998" r="14.4" fill="#009af9" fill-rule="evenodd" fill-opacity="1" stroke="#000000" stroke-opacity="1" stroke-width="3.2"/>
<circle clip-path="url(#clip932)" cx="502.81" cy="889.408" r="14.4" fill="#009af9" fill-rule="evenodd" fill-opacity="1" stroke="#000000" stroke-opacity="1" stroke-width="3.2"/>
<circle clip-path="url(#clip932)" cx="481.064" cy="862.033" r="14.4" fill="#009af9" fill-rule="evenodd" fill-opacity="1" stroke="#000000" stroke-opacity="1" stroke-width="3.2"/>
<circle clip-path="url(#clip932)" cx="483.189" cy="611.776" r="14.4" fill="#009af9" fill-rule="evenodd" fill-opacity="1" stroke="#000000" stroke-opacity="1" stroke-width="3.2"/>
<circle clip-path="url(#clip932)" cx="495.747" cy="608.159" r="14.4" fill="#009af9" fill-rule="evenodd" fill-opacity="1" stroke="#000000" stroke-opacity="1" stroke-width="3.2"/>
<circle clip-path="url(#clip932)" cx="545.728" cy="910.65" r="14.4" fill="#009af9" fill-rule="evenodd" fill-opacity="1" stroke="#000000" stroke-opacity="1" stroke-width="3.2"/>
<circle clip-path="url(#clip932)" cx="478.437" cy="1108.51" r="14.4" fill="#009af9" fill-rule="evenodd" fill-opacity="1" stroke="#000000" stroke-opacity="1" stroke-width="3.2"/>
<circle clip-path="url(#clip932)" cx="492.554" cy="1246.07" r="14.4" fill="#009af9" fill-rule="evenodd" fill-opacity="1" stroke="#000000" stroke-opacity="1" stroke-width="3.2"/>
<circle clip-path="url(#clip932)" cx="481.798" cy="648.965" r="14.4" fill="#009af9" fill-rule="evenodd" fill-opacity="1" stroke="#000000" stroke-opacity="1" stroke-width="3.2"/>
<circle clip-path="url(#clip932)" cx="417.215" cy="742.718" r="14.4" fill="#009af9" fill-rule="evenodd" fill-opacity="1" stroke="#000000" stroke-opacity="1" stroke-width="3.2"/>
<circle clip-path="url(#clip932)" cx="485.09" cy="1003.3" r="14.4" fill="#009af9" fill-rule="evenodd" fill-opacity="1" stroke="#000000" stroke-opacity="1" stroke-width="3.2"/>
<circle clip-path="url(#clip932)" cx="435.678" cy="840.696" r="14.4" fill="#009af9" fill-rule="evenodd" fill-opacity="1" stroke="#000000" stroke-opacity="1" stroke-width="3.2"/>
<circle clip-path="url(#clip932)" cx="385.035" cy="468.704" r="14.4" fill="#009af9" fill-rule="evenodd" fill-opacity="1" stroke="#000000" stroke-opacity="1" stroke-width="3.2"/>
<circle clip-path="url(#clip932)" cx="495.013" cy="821.227" r="14.4" fill="#009af9" fill-rule="evenodd" fill-opacity="1" stroke="#000000" stroke-opacity="1" stroke-width="3.2"/>
<circle clip-path="url(#clip932)" cx="444.291" cy="838.181" r="14.4" fill="#009af9" fill-rule="evenodd" fill-opacity="1" stroke="#000000" stroke-opacity="1" stroke-width="3.2"/>
<circle clip-path="url(#clip932)" cx="421.967" cy="245.981" r="14.4" fill="#009af9" fill-rule="evenodd" fill-opacity="1" stroke="#000000" stroke-opacity="1" stroke-width="3.2"/>
<circle clip-path="url(#clip932)" cx="380.274" cy="540.503" r="14.4" fill="#009af9" fill-rule="evenodd" fill-opacity="1" stroke="#000000" stroke-opacity="1" stroke-width="3.2"/>
<circle clip-path="url(#clip932)" cx="546.944" cy="801.475" r="14.4" fill="#009af9" fill-rule="evenodd" fill-opacity="1" stroke="#000000" stroke-opacity="1" stroke-width="3.2"/>
<circle clip-path="url(#clip932)" cx="602.18" cy="923.305" r="14.4" fill="#009af9" fill-rule="evenodd" fill-opacity="1" stroke="#000000" stroke-opacity="1" stroke-width="3.2"/>
<circle clip-path="url(#clip932)" cx="459.964" cy="585.597" r="14.4" fill="#009af9" fill-rule="evenodd" fill-opacity="1" stroke="#000000" stroke-opacity="1" stroke-width="3.2"/>
<circle clip-path="url(#clip932)" cx="509.618" cy="956.299" r="14.4" fill="#009af9" fill-rule="evenodd" fill-opacity="1" stroke="#000000" stroke-opacity="1" stroke-width="3.2"/>
<circle clip-path="url(#clip932)" cx="424.757" cy="596.543" r="14.4" fill="#009af9" fill-rule="evenodd" fill-opacity="1" stroke="#000000" stroke-opacity="1" stroke-width="3.2"/>
<circle clip-path="url(#clip932)" cx="508.227" cy="993.488" r="14.4" fill="#009af9" fill-rule="evenodd" fill-opacity="1" stroke="#000000" stroke-opacity="1" stroke-width="3.2"/>
<circle clip-path="url(#clip932)" cx="463.088" cy="761.57" r="14.4" fill="#009af9" fill-rule="evenodd" fill-opacity="1" stroke="#000000" stroke-opacity="1" stroke-width="3.2"/>
<circle clip-path="url(#clip932)" cx="1586.31" cy="1045.48" r="14.4" fill="#e26f46" fill-rule="evenodd" fill-opacity="1" stroke="#000000" stroke-opacity="1" stroke-width="3.2"/>
<circle clip-path="url(#clip932)" cx="1487.08" cy="865.127" r="14.4" fill="#e26f46" fill-rule="evenodd" fill-opacity="1" stroke="#000000" stroke-opacity="1" stroke-width="3.2"/>
<circle clip-path="url(#clip932)" cx="1636.86" cy="956.541" r="14.4" fill="#e26f46" fill-rule="evenodd" fill-opacity="1" stroke="#000000" stroke-opacity="1" stroke-width="3.2"/>
<circle clip-path="url(#clip932)" cx="1276.08" cy="301.539" r="14.4" fill="#e26f46" fill-rule="evenodd" fill-opacity="1" stroke="#000000" stroke-opacity="1" stroke-width="3.2"/>
<circle clip-path="url(#clip932)" cx="1530.9" cy="745.288" r="14.4" fill="#e26f46" fill-rule="evenodd" fill-opacity="1" stroke="#000000" stroke-opacity="1" stroke-width="3.2"/>
<circle clip-path="url(#clip932)" cx="1405.17" cy="502.979" r="14.4" fill="#e26f46" fill-rule="evenodd" fill-opacity="1" stroke="#000000" stroke-opacity="1" stroke-width="3.2"/>
<circle clip-path="url(#clip932)" cx="1532.86" cy="847.985" r="14.4" fill="#e26f46" fill-rule="evenodd" fill-opacity="1" stroke="#000000" stroke-opacity="1" stroke-width="3.2"/>
<circle clip-path="url(#clip932)" cx="1013.47" cy="214.549" r="14.4" fill="#e26f46" fill-rule="evenodd" fill-opacity="1" stroke="#000000" stroke-opacity="1" stroke-width="3.2"/>
<circle clip-path="url(#clip932)" cx="1518.52" cy="820.891" r="14.4" fill="#e26f46" fill-rule="evenodd" fill-opacity="1" stroke="#000000" stroke-opacity="1" stroke-width="3.2"/>
<circle clip-path="url(#clip932)" cx="1221.99" cy="353.103" r="14.4" fill="#e26f46" fill-rule="evenodd" fill-opacity="1" stroke="#000000" stroke-opacity="1" stroke-width="3.2"/>
<circle clip-path="url(#clip932)" cx="1081.43" cy="86.1857" r="14.4" fill="#e26f46" fill-rule="evenodd" fill-opacity="1" stroke="#000000" stroke-opacity="1" stroke-width="3.2"/>
<circle clip-path="url(#clip932)" cx="1368.57" cy="657.491" r="14.4" fill="#e26f46" fill-rule="evenodd" fill-opacity="1" stroke="#000000" stroke-opacity="1" stroke-width="3.2"/>
<circle clip-path="url(#clip932)" cx="1299.08" cy="438.183" r="14.4" fill="#e26f46" fill-rule="evenodd" fill-opacity="1" stroke="#000000" stroke-opacity="1" stroke-width="3.2"/>
<circle clip-path="url(#clip932)" cx="1501.85" cy="647.247" r="14.4" fill="#e26f46" fill-rule="evenodd" fill-opacity="1" stroke="#000000" stroke-opacity="1" stroke-width="3.2"/>
<circle clip-path="url(#clip932)" cx="1175.47" cy="583.313" r="14.4" fill="#e26f46" fill-rule="evenodd" fill-opacity="1" stroke="#000000" stroke-opacity="1" stroke-width="3.2"/>
<circle clip-path="url(#clip932)" cx="1485.77" cy="938.309" r="14.4" fill="#e26f46" fill-rule="evenodd" fill-opacity="1" stroke="#000000" stroke-opacity="1" stroke-width="3.2"/>
<circle clip-path="url(#clip932)" cx="1410.41" cy="535.073" r="14.4" fill="#e26f46" fill-rule="evenodd" fill-opacity="1" stroke="#000000" stroke-opacity="1" stroke-width="3.2"/>
<circle clip-path="url(#clip932)" cx="1290.95" cy="544.591" r="14.4" fill="#e26f46" fill-rule="evenodd" fill-opacity="1" stroke="#000000" stroke-opacity="1" stroke-width="3.2"/>
<circle clip-path="url(#clip932)" cx="1490.53" cy="441.571" r="14.4" fill="#e26f46" fill-rule="evenodd" fill-opacity="1" stroke="#000000" stroke-opacity="1" stroke-width="3.2"/>
<circle clip-path="url(#clip932)" cx="1237.19" cy="421.566" r="14.4" fill="#e26f46" fill-rule="evenodd" fill-opacity="1" stroke="#000000" stroke-opacity="1" stroke-width="3.2"/>
<circle clip-path="url(#clip932)" cx="1538.84" cy="667.012" r="14.4" fill="#e26f46" fill-rule="evenodd" fill-opacity="1" stroke="#000000" stroke-opacity="1" stroke-width="3.2"/>
<circle clip-path="url(#clip932)" cx="1325.25" cy="674.727" r="14.4" fill="#e26f46" fill-rule="evenodd" fill-opacity="1" stroke="#000000" stroke-opacity="1" stroke-width="3.2"/>
<circle clip-path="url(#clip932)" cx="1590.07" cy="547.454" r="14.4" fill="#e26f46" fill-rule="evenodd" fill-opacity="1" stroke="#000000" stroke-opacity="1" stroke-width="3.2"/>
<circle clip-path="url(#clip932)" cx="1484.05" cy="618.77" r="14.4" fill="#e26f46" fill-rule="evenodd" fill-opacity="1" stroke="#000000" stroke-opacity="1" stroke-width="3.2"/>
<circle clip-path="url(#clip932)" cx="1425.78" cy="781.9" r="14.4" fill="#e26f46" fill-rule="evenodd" fill-opacity="1" stroke="#000000" stroke-opacity="1" stroke-width="3.2"/>
<circle clip-path="url(#clip932)" cx="1477.98" cy="870.128" r="14.4" fill="#e26f46" fill-rule="evenodd" fill-opacity="1" stroke="#000000" stroke-opacity="1" stroke-width="3.2"/>
<circle clip-path="url(#clip932)" cx="1599.6" cy="828.797" r="14.4" fill="#e26f46" fill-rule="evenodd" fill-opacity="1" stroke="#000000" stroke-opacity="1" stroke-width="3.2"/>
<circle clip-path="url(#clip932)" cx="1663.19" cy="840.132" r="14.4" fill="#e26f46" fill-rule="evenodd" fill-opacity="1" stroke="#000000" stroke-opacity="1" stroke-width="3.2"/>
<circle clip-path="url(#clip932)" cx="1453.51" cy="628.302" r="14.4" fill="#e26f46" fill-rule="evenodd" fill-opacity="1" stroke="#000000" stroke-opacity="1" stroke-width="3.2"/>
<circle clip-path="url(#clip932)" cx="1138.39" cy="527.554" r="14.4" fill="#e26f46" fill-rule="evenodd" fill-opacity="1" stroke="#000000" stroke-opacity="1" stroke-width="3.2"/>
<circle clip-path="url(#clip932)" cx="1205.27" cy="361.909" r="14.4" fill="#e26f46" fill-rule="evenodd" fill-opacity="1" stroke="#000000" stroke-opacity="1" stroke-width="3.2"/>
<circle clip-path="url(#clip932)" cx="1171.05" cy="374.144" r="14.4" fill="#e26f46" fill-rule="evenodd" fill-opacity="1" stroke="#000000" stroke-opacity="1" stroke-width="3.2"/>
<circle clip-path="url(#clip932)" cx="1262.88" cy="554.217" r="14.4" fill="#e26f46" fill-rule="evenodd" fill-opacity="1" stroke="#000000" stroke-opacity="1" stroke-width="3.2"/>
<circle clip-path="url(#clip932)" cx="1613.12" cy="501.648" r="14.4" fill="#e26f46" fill-rule="evenodd" fill-opacity="1" stroke="#000000" stroke-opacity="1" stroke-width="3.2"/>
<circle clip-path="url(#clip932)" cx="1390.06" cy="470.509" r="14.4" fill="#e26f46" fill-rule="evenodd" fill-opacity="1" stroke="#000000" stroke-opacity="1" stroke-width="3.2"/>
<circle clip-path="url(#clip932)" cx="1451.7" cy="804.087" r="14.4" fill="#e26f46" fill-rule="evenodd" fill-opacity="1" stroke="#000000" stroke-opacity="1" stroke-width="3.2"/>
<circle clip-path="url(#clip932)" cx="1568.25" cy="909.025" r="14.4" fill="#e26f46" fill-rule="evenodd" fill-opacity="1" stroke="#000000" stroke-opacity="1" stroke-width="3.2"/>
<circle clip-path="url(#clip932)" cx="1454.01" cy="525.698" r="14.4" fill="#e26f46" fill-rule="evenodd" fill-opacity="1" stroke="#000000" stroke-opacity="1" stroke-width="3.2"/>
<circle clip-path="url(#clip932)" cx="1293.72" cy="576.592" r="14.4" fill="#e26f46" fill-rule="evenodd" fill-opacity="1" stroke="#000000" stroke-opacity="1" stroke-width="3.2"/>
<circle clip-path="url(#clip932)" cx="1271.32" cy="373.338" r="14.4" fill="#e26f46" fill-rule="evenodd" fill-opacity="1" stroke="#000000" stroke-opacity="1" stroke-width="3.2"/>
<circle clip-path="url(#clip932)" cx="1355.36" cy="378.852" r="14.4" fill="#e26f46" fill-rule="evenodd" fill-opacity="1" stroke="#000000" stroke-opacity="1" stroke-width="3.2"/>
<circle clip-path="url(#clip932)" cx="1475.34" cy="691.67" r="14.4" fill="#e26f46" fill-rule="evenodd" fill-opacity="1" stroke="#000000" stroke-opacity="1" stroke-width="3.2"/>
<circle clip-path="url(#clip932)" cx="1289.38" cy="509.794" r="14.4" fill="#e26f46" fill-rule="evenodd" fill-opacity="1" stroke="#000000" stroke-opacity="1" stroke-width="3.2"/>
<circle clip-path="url(#clip932)" cx="1026.03" cy="210.931" r="14.4" fill="#e26f46" fill-rule="evenodd" fill-opacity="1" stroke="#000000" stroke-opacity="1" stroke-width="3.2"/>
<circle clip-path="url(#clip932)" cx="1324.99" cy="460.37" r="14.4" fill="#e26f46" fill-rule="evenodd" fill-opacity="1" stroke="#000000" stroke-opacity="1" stroke-width="3.2"/>
<circle clip-path="url(#clip932)" cx="1317.94" cy="604.061" r="14.4" fill="#e26f46" fill-rule="evenodd" fill-opacity="1" stroke="#000000" stroke-opacity="1" stroke-width="3.2"/>
<circle clip-path="url(#clip932)" cx="1330.41" cy="564.45" r="14.4" fill="#e26f46" fill-rule="evenodd" fill-opacity="1" stroke="#000000" stroke-opacity="1" stroke-width="3.2"/>
<circle clip-path="url(#clip932)" cx="1405.43" cy="717.336" r="14.4" fill="#e26f46" fill-rule="evenodd" fill-opacity="1" stroke="#000000" stroke-opacity="1" stroke-width="3.2"/>
<circle clip-path="url(#clip932)" cx="969.159" cy="336.873" r="14.4" fill="#e26f46" fill-rule="evenodd" fill-opacity="1" stroke="#000000" stroke-opacity="1" stroke-width="3.2"/>
<circle clip-path="url(#clip932)" cx="1308.66" cy="537.075" r="14.4" fill="#e26f46" fill-rule="evenodd" fill-opacity="1" stroke="#000000" stroke-opacity="1" stroke-width="3.2"/>
<circle clip-path="url(#clip932)" cx="1937.33" cy="703.772" r="14.4" fill="#3da44d" fill-rule="evenodd" fill-opacity="1" stroke="#000000" stroke-opacity="1" stroke-width="3.2"/>
<circle clip-path="url(#clip932)" cx="1623.04" cy="425.951" r="14.4" fill="#3da44d" fill-rule="evenodd" fill-opacity="1" stroke="#000000" stroke-opacity="1" stroke-width="3.2"/>
<circle clip-path="url(#clip932)" cx="1961.41" cy="877.698" r="14.4" fill="#3da44d" fill-rule="evenodd" fill-opacity="1" stroke="#000000" stroke-opacity="1" stroke-width="3.2"/>
<circle clip-path="url(#clip932)" cx="1779.71" cy="620.249" r="14.4" fill="#3da44d" fill-rule="evenodd" fill-opacity="1" stroke="#000000" stroke-opacity="1" stroke-width="3.2"/>
<circle clip-path="url(#clip932)" cx="1886.3" cy="688.82" r="14.4" fill="#3da44d" fill-rule="evenodd" fill-opacity="1" stroke="#000000" stroke-opacity="1" stroke-width="3.2"/>
<circle clip-path="url(#clip932)" cx="2181.19" cy="979.44" r="14.4" fill="#3da44d" fill-rule="evenodd" fill-opacity="1" stroke="#000000" stroke-opacity="1" stroke-width="3.2"/>
<circle clip-path="url(#clip932)" cx="1371.25" cy="122.181" r="14.4" fill="#3da44d" fill-rule="evenodd" fill-opacity="1" stroke="#000000" stroke-opacity="1" stroke-width="3.2"/>
<circle clip-path="url(#clip932)" cx="2050.38" cy="883.4" r="14.4" fill="#3da44d" fill-rule="evenodd" fill-opacity="1" stroke="#000000" stroke-opacity="1" stroke-width="3.2"/>
<circle clip-path="url(#clip932)" cx="1878.2" cy="588.732" r="14.4" fill="#3da44d" fill-rule="evenodd" fill-opacity="1" stroke="#000000" stroke-opacity="1" stroke-width="3.2"/>
<circle clip-path="url(#clip932)" cx="2045.92" cy="1093.48" r="14.4" fill="#3da44d" fill-rule="evenodd" fill-opacity="1" stroke="#000000" stroke-opacity="1" stroke-width="3.2"/>
<circle clip-path="url(#clip932)" cx="1692.47" cy="827.709" r="14.4" fill="#3da44d" fill-rule="evenodd" fill-opacity="1" stroke="#000000" stroke-opacity="1" stroke-width="3.2"/>
<circle clip-path="url(#clip932)" cx="1732.36" cy="602.594" r="14.4" fill="#3da44d" fill-rule="evenodd" fill-opacity="1" stroke="#000000" stroke-opacity="1" stroke-width="3.2"/>
<circle clip-path="url(#clip932)" cx="1834.36" cy="814.949" r="14.4" fill="#3da44d" fill-rule="evenodd" fill-opacity="1" stroke="#000000" stroke-opacity="1" stroke-width="3.2"/>
<circle clip-path="url(#clip932)" cx="1603.58" cy="326.683" r="14.4" fill="#3da44d" fill-rule="evenodd" fill-opacity="1" stroke="#000000" stroke-opacity="1" stroke-width="3.2"/>
<circle clip-path="url(#clip932)" cx="1671.11" cy="443.294" r="14.4" fill="#3da44d" fill-rule="evenodd" fill-opacity="1" stroke="#000000" stroke-opacity="1" stroke-width="3.2"/>
<circle clip-path="url(#clip932)" cx="1760.82" cy="767.246" r="14.4" fill="#3da44d" fill-rule="evenodd" fill-opacity="1" stroke="#000000" stroke-opacity="1" stroke-width="3.2"/>
<circle clip-path="url(#clip932)" cx="1773.56" cy="729.236" r="14.4" fill="#3da44d" fill-rule="evenodd" fill-opacity="1" stroke="#000000" stroke-opacity="1" stroke-width="3.2"/>
<circle clip-path="url(#clip932)" cx="2206.54" cy="1286.68" r="14.4" fill="#3da44d" fill-rule="evenodd" fill-opacity="1" stroke="#000000" stroke-opacity="1" stroke-width="3.2"/>
<circle clip-path="url(#clip932)" cx="2293.45" cy="835.13" r="14.4" fill="#3da44d" fill-rule="evenodd" fill-opacity="1" stroke="#000000" stroke-opacity="1" stroke-width="3.2"/>
<circle clip-path="url(#clip932)" cx="1590.81" cy="334.387" r="14.4" fill="#3da44d" fill-rule="evenodd" fill-opacity="1" stroke="#000000" stroke-opacity="1" stroke-width="3.2"/>
<circle clip-path="url(#clip932)" cx="1908.22" cy="894.559" r="14.4" fill="#3da44d" fill-rule="evenodd" fill-opacity="1" stroke="#000000" stroke-opacity="1" stroke-width="3.2"/>
<circle clip-path="url(#clip932)" cx="1562.14" cy="410.623" r="14.4" fill="#3da44d" fill-rule="evenodd" fill-opacity="1" stroke="#000000" stroke-opacity="1" stroke-width="3.2"/>
<circle clip-path="url(#clip932)" cx="2210.16" cy="935.11" r="14.4" fill="#3da44d" fill-rule="evenodd" fill-opacity="1" stroke="#000000" stroke-opacity="1" stroke-width="3.2"/>
<circle clip-path="url(#clip932)" cx="1615.58" cy="608.119" r="14.4" fill="#3da44d" fill-rule="evenodd" fill-opacity="1" stroke="#000000" stroke-opacity="1" stroke-width="3.2"/>
<circle clip-path="url(#clip932)" cx="1865.3" cy="873.316" r="14.4" fill="#3da44d" fill-rule="evenodd" fill-opacity="1" stroke="#000000" stroke-opacity="1" stroke-width="3.2"/>
<circle clip-path="url(#clip932)" cx="1960.68" cy="984.388" r="14.4" fill="#3da44d" fill-rule="evenodd" fill-opacity="1" stroke="#000000" stroke-opacity="1" stroke-width="3.2"/>
<circle clip-path="url(#clip932)" cx="1578.9" cy="620.261" r="14.4" fill="#3da44d" fill-rule="evenodd" fill-opacity="1" stroke="#000000" stroke-opacity="1" stroke-width="3.2"/>
<circle clip-path="url(#clip932)" cx="1588.08" cy="651.253" r="14.4" fill="#3da44d" fill-rule="evenodd" fill-opacity="1" stroke="#000000" stroke-opacity="1" stroke-width="3.2"/>
<circle clip-path="url(#clip932)" cx="1822.54" cy="605.499" r="14.4" fill="#3da44d" fill-rule="evenodd" fill-opacity="1" stroke="#000000" stroke-opacity="1" stroke-width="3.2"/>
<circle clip-path="url(#clip932)" cx="1897" cy="937.06" r="14.4" fill="#3da44d" fill-rule="evenodd" fill-opacity="1" stroke="#000000" stroke-opacity="1" stroke-width="3.2"/>
<circle clip-path="url(#clip932)" cx="2024.77" cy="893.12" r="14.4" fill="#3da44d" fill-rule="evenodd" fill-opacity="1" stroke="#000000" stroke-opacity="1" stroke-width="3.2"/>
<circle clip-path="url(#clip932)" cx="2134.33" cy="1384.24" r="14.4" fill="#3da44d" fill-rule="evenodd" fill-opacity="1" stroke="#000000" stroke-opacity="1" stroke-width="3.2"/>
<circle clip-path="url(#clip932)" cx="1832.63" cy="601.788" r="14.4" fill="#3da44d" fill-rule="evenodd" fill-opacity="1" stroke="#000000" stroke-opacity="1" stroke-width="3.2"/>
<circle clip-path="url(#clip932)" cx="1631.18" cy="638.104" r="14.4" fill="#3da44d" fill-rule="evenodd" fill-opacity="1" stroke="#000000" stroke-opacity="1" stroke-width="3.2"/>
<circle clip-path="url(#clip932)" cx="1726.13" cy="462.832" r="14.4" fill="#3da44d" fill-rule="evenodd" fill-opacity="1" stroke="#000000" stroke-opacity="1" stroke-width="3.2"/>
<circle clip-path="url(#clip932)" cx="2090.91" cy="1046.92" r="14.4" fill="#3da44d" fill-rule="evenodd" fill-opacity="1" stroke="#000000" stroke-opacity="1" stroke-width="3.2"/>
<circle clip-path="url(#clip932)" cx="1828.35" cy="777.479" r="14.4" fill="#3da44d" fill-rule="evenodd" fill-opacity="1" stroke="#000000" stroke-opacity="1" stroke-width="3.2"/>
<circle clip-path="url(#clip932)" cx="1761" cy="732.854" r="14.4" fill="#3da44d" fill-rule="evenodd" fill-opacity="1" stroke="#000000" stroke-opacity="1" stroke-width="3.2"/>
<circle clip-path="url(#clip932)" cx="1553.78" cy="627.495" r="14.4" fill="#3da44d" fill-rule="evenodd" fill-opacity="1" stroke="#000000" stroke-opacity="1" stroke-width="3.2"/>
<circle clip-path="url(#clip932)" cx="1818.04" cy="891.654" r="14.4" fill="#3da44d" fill-rule="evenodd" fill-opacity="1" stroke="#000000" stroke-opacity="1" stroke-width="3.2"/>
<circle clip-path="url(#clip932)" cx="1876.21" cy="798.909" r="14.4" fill="#3da44d" fill-rule="evenodd" fill-opacity="1" stroke="#000000" stroke-opacity="1" stroke-width="3.2"/>
<circle clip-path="url(#clip932)" cx="1765.84" cy="909.804" r="14.4" fill="#3da44d" fill-rule="evenodd" fill-opacity="1" stroke="#000000" stroke-opacity="1" stroke-width="3.2"/>
<circle clip-path="url(#clip932)" cx="1623.04" cy="425.951" r="14.4" fill="#3da44d" fill-rule="evenodd" fill-opacity="1" stroke="#000000" stroke-opacity="1" stroke-width="3.2"/>
<circle clip-path="url(#clip932)" cx="1946.29" cy="845.229" r="14.4" fill="#3da44d" fill-rule="evenodd" fill-opacity="1" stroke="#000000" stroke-opacity="1" stroke-width="3.2"/>
<circle clip-path="url(#clip932)" cx="1905.66" cy="858.472" r="14.4" fill="#3da44d" fill-rule="evenodd" fill-opacity="1" stroke="#000000" stroke-opacity="1" stroke-width="3.2"/>
<circle clip-path="url(#clip932)" cx="1771.99" cy="800.817" r="14.4" fill="#3da44d" fill-rule="evenodd" fill-opacity="1" stroke="#000000" stroke-opacity="1" stroke-width="3.2"/>
<circle clip-path="url(#clip932)" cx="1654.56" cy="524.086" r="14.4" fill="#3da44d" fill-rule="evenodd" fill-opacity="1" stroke="#000000" stroke-opacity="1" stroke-width="3.2"/>
<circle clip-path="url(#clip932)" cx="1721.36" cy="747.386" r="14.4" fill="#3da44d" fill-rule="evenodd" fill-opacity="1" stroke="#000000" stroke-opacity="1" stroke-width="3.2"/>
<circle clip-path="url(#clip932)" cx="1759.83" cy="765.956" r="14.4" fill="#3da44d" fill-rule="evenodd" fill-opacity="1" stroke="#000000" stroke-opacity="1" stroke-width="3.2"/>
<circle clip-path="url(#clip932)" cx="1615.98" cy="569.641" r="14.4" fill="#3da44d" fill-rule="evenodd" fill-opacity="1" stroke="#000000" stroke-opacity="1" stroke-width="3.2"/>
<path clip-path="url(#clip930)" d="
M1997.06 300.469 L2282.9 300.469 L2282.9 93.1086 L1997.06 93.1086  Z
  " fill="#ffffff" fill-rule="evenodd" fill-opacity="1"/>
<polyline clip-path="url(#clip930)" style="stroke:#000000; stroke-linecap:round; stroke-linejoin:round; stroke-width:4; stroke-opacity:1; fill:none" points="
  1997.06,300.469 2282.9,300.469 2282.9,93.1086 1997.06,93.1086 1997.06,300.469 
  "/>
<circle clip-path="url(#clip930)" cx="2090.19" cy="144.949" r="23.04" fill="#009af9" fill-rule="evenodd" fill-opacity="1" stroke="#000000" stroke-opacity="1" stroke-width="5.12"/>
<path clip-path="url(#clip930)" d="M2197.17 164.636 Q2195.36 169.266 2193.65 170.678 Q2191.94 172.09 2189.07 172.09 L2185.67 172.09 L2185.67 168.525 L2188.17 168.525 Q2189.92 168.525 2190.9 167.692 Q2191.87 166.858 2193.05 163.756 L2193.81 161.812 L2183.33 136.303 L2187.84 136.303 L2195.94 156.581 L2204.04 136.303 L2208.56 136.303 L2197.17 164.636 Z" fill="#000000" fill-rule="evenodd" fill-opacity="1" /><path clip-path="url(#clip930)" d="M2215.85 158.293 L2223.49 158.293 L2223.49 131.928 L2215.18 133.595 L2215.18 129.335 L2223.44 127.669 L2228.12 127.669 L2228.12 158.293 L2235.76 158.293 L2235.76 162.229 L2215.85 162.229 L2215.85 158.293 Z" fill="#000000" fill-rule="evenodd" fill-opacity="1" /><circle clip-path="url(#clip930)" cx="2090.19" cy="196.789" r="23.04" fill="#e26f46" fill-rule="evenodd" fill-opacity="1" stroke="#000000" stroke-opacity="1" stroke-width="5.12"/>
<path clip-path="url(#clip930)" d="M2197.17 216.476 Q2195.36 221.106 2193.65 222.518 Q2191.94 223.93 2189.07 223.93 L2185.67 223.93 L2185.67 220.365 L2188.17 220.365 Q2189.92 220.365 2190.9 219.532 Q2191.87 218.698 2193.05 215.596 L2193.81 213.652 L2183.33 188.143 L2187.84 188.143 L2195.94 208.421 L2204.04 188.143 L2208.56 188.143 L2197.17 216.476 Z" fill="#000000" fill-rule="evenodd" fill-opacity="1" /><path clip-path="url(#clip930)" d="M2219.07 210.133 L2235.39 210.133 L2235.39 214.069 L2213.44 214.069 L2213.44 210.133 Q2216.1 207.379 2220.69 202.749 Q2225.29 198.096 2226.48 196.754 Q2228.72 194.231 2229.6 192.495 Q2230.5 190.735 2230.5 189.046 Q2230.5 186.291 2228.56 184.555 Q2226.64 182.819 2223.54 182.819 Q2221.34 182.819 2218.88 183.583 Q2216.45 184.347 2213.67 185.897 L2213.67 181.175 Q2216.5 180.041 2218.95 179.462 Q2221.41 178.884 2223.44 178.884 Q2228.81 178.884 2232.01 181.569 Q2235.2 184.254 2235.2 188.745 Q2235.2 190.874 2234.39 192.796 Q2233.6 194.694 2231.5 197.286 Q2230.92 197.958 2227.82 201.175 Q2224.72 204.37 2219.07 210.133 Z" fill="#000000" fill-rule="evenodd" fill-opacity="1" /><circle clip-path="url(#clip930)" cx="2090.19" cy="248.629" r="23.04" fill="#3da44d" fill-rule="evenodd" fill-opacity="1" stroke="#000000" stroke-opacity="1" stroke-width="5.12"/>
<path clip-path="url(#clip930)" d="M2197.17 268.316 Q2195.36 272.946 2193.65 274.358 Q2191.94 275.77 2189.07 275.77 L2185.67 275.77 L2185.67 272.205 L2188.17 272.205 Q2189.92 272.205 2190.9 271.372 Q2191.87 270.538 2193.05 267.436 L2193.81 265.492 L2183.33 239.983 L2187.84 239.983 L2195.94 260.261 L2204.04 239.983 L2208.56 239.983 L2197.17 268.316 Z" fill="#000000" fill-rule="evenodd" fill-opacity="1" /><path clip-path="url(#clip930)" d="M2229.21 247.274 Q2232.56 247.992 2234.44 250.261 Q2236.34 252.529 2236.34 255.862 Q2236.34 260.978 2232.82 263.779 Q2229.3 266.58 2222.82 266.58 Q2220.64 266.58 2218.33 266.14 Q2216.04 265.723 2213.58 264.867 L2213.58 260.353 Q2215.53 261.487 2217.84 262.066 Q2220.16 262.645 2222.68 262.645 Q2227.08 262.645 2229.37 260.909 Q2231.68 259.173 2231.68 255.862 Q2231.68 252.807 2229.53 251.094 Q2227.4 249.358 2223.58 249.358 L2219.55 249.358 L2219.55 245.515 L2223.77 245.515 Q2227.22 245.515 2229.04 244.149 Q2230.87 242.761 2230.87 240.168 Q2230.87 237.506 2228.98 236.094 Q2227.1 234.659 2223.58 234.659 Q2221.66 234.659 2219.46 235.075 Q2217.26 235.492 2214.62 236.372 L2214.62 232.205 Q2217.29 231.464 2219.6 231.094 Q2221.94 230.724 2224 230.724 Q2229.32 230.724 2232.42 233.154 Q2235.53 235.562 2235.53 239.682 Q2235.53 242.552 2233.88 244.543 Q2232.24 246.511 2229.21 247.274 Z" fill="#000000" fill-rule="evenodd" fill-opacity="1" /></svg>
