<?xml version="1.0" encoding="utf-8"?>
<svg xmlns="http://www.w3.org/2000/svg" xmlns:xlink="http://www.w3.org/1999/xlink" width="600" height="400" viewBox="0 0 2400 1600">
<defs>
  <clipPath id="clip540">
    <rect x="0" y="0" width="2400" height="1600"/>
  </clipPath>
</defs>
<path clip-path="url(#clip540)" d="
M0 1600 L2400 1600 L2400 0 L0 0  Z
  " fill="#ffffff" fill-rule="evenodd" fill-opacity="1"/>
<defs>
  <clipPath id="clip541">
    <rect x="480" y="0" width="1681" height="1600"/>
  </clipPath>
</defs>
<path clip-path="url(#clip540)" d="
M112.177 1486.45 L2352.76 1486.45 L2352.76 47.2441 L112.177 47.2441  Z
  " fill="#ffffff" fill-rule="evenodd" fill-opacity="1"/>
<defs>
  <clipPath id="clip542">
    <rect x="112" y="47" width="2242" height="1440"/>
  </clipPath>
</defs>
<polyline clip-path="url(#clip542)" style="stroke:#000000; stroke-linecap:round; stroke-linejoin:round; stroke-width:2; stroke-opacity:0.1; fill:none" points="
  175.59,1486.45 175.59,47.2441 
  "/>
<polyline clip-path="url(#clip542)" style="stroke:#000000; stroke-linecap:round; stroke-linejoin:round; stroke-width:2; stroke-opacity:0.1; fill:none" points="
  704.028,1486.45 704.028,47.2441 
  "/>
<polyline clip-path="url(#clip542)" style="stroke:#000000; stroke-linecap:round; stroke-linejoin:round; stroke-width:2; stroke-opacity:0.1; fill:none" points="
  1232.47,1486.45 1232.47,47.2441 
  "/>
<polyline clip-path="url(#clip542)" style="stroke:#000000; stroke-linecap:round; stroke-linejoin:round; stroke-width:2; stroke-opacity:0.1; fill:none" points="
  1760.9,1486.45 1760.9,47.2441 
  "/>
<polyline clip-path="url(#clip542)" style="stroke:#000000; stroke-linecap:round; stroke-linejoin:round; stroke-width:2; stroke-opacity:0.1; fill:none" points="
  2289.34,1486.45 2289.34,47.2441 
  "/>
<polyline clip-path="url(#clip540)" style="stroke:#000000; stroke-linecap:round; stroke-linejoin:round; stroke-width:4; stroke-opacity:1; fill:none" points="
  112.177,1486.45 2352.76,1486.45 
  "/>
<polyline clip-path="url(#clip540)" style="stroke:#000000; stroke-linecap:round; stroke-linejoin:round; stroke-width:4; stroke-opacity:1; fill:none" points="
  175.59,1486.45 175.59,1467.55 
  "/>
<polyline clip-path="url(#clip540)" style="stroke:#000000; stroke-linecap:round; stroke-linejoin:round; stroke-width:4; stroke-opacity:1; fill:none" points="
  704.028,1486.45 704.028,1467.55 
  "/>
<polyline clip-path="url(#clip540)" style="stroke:#000000; stroke-linecap:round; stroke-linejoin:round; stroke-width:4; stroke-opacity:1; fill:none" points="
  1232.47,1486.45 1232.47,1467.55 
  "/>
<polyline clip-path="url(#clip540)" style="stroke:#000000; stroke-linecap:round; stroke-linejoin:round; stroke-width:4; stroke-opacity:1; fill:none" points="
  1760.9,1486.45 1760.9,1467.55 
  "/>
<polyline clip-path="url(#clip540)" style="stroke:#000000; stroke-linecap:round; stroke-linejoin:round; stroke-width:4; stroke-opacity:1; fill:none" points="
  2289.34,1486.45 2289.34,1467.55 
  "/>
<path clip-path="url(#clip540)" d="M122.118 1532.02 L151.794 1532.02 L151.794 1535.95 L122.118 1535.95 L122.118 1532.02 Z" fill="#000000" fill-rule="evenodd" fill-opacity="1" /><path clip-path="url(#clip540)" d="M162.696 1544.91 L170.335 1544.91 L170.335 1518.55 L162.025 1520.21 L162.025 1515.95 L170.289 1514.29 L174.965 1514.29 L174.965 1544.91 L182.604 1544.91 L182.604 1548.85 L162.696 1548.85 L162.696 1544.91 Z" fill="#000000" fill-rule="evenodd" fill-opacity="1" /><path clip-path="url(#clip540)" d="M192.048 1542.97 L196.932 1542.97 L196.932 1548.85 L192.048 1548.85 L192.048 1542.97 Z" fill="#000000" fill-rule="evenodd" fill-opacity="1" /><path clip-path="url(#clip540)" d="M217.117 1517.37 Q213.506 1517.37 211.678 1520.93 Q209.872 1524.47 209.872 1531.6 Q209.872 1538.71 211.678 1542.27 Q213.506 1545.82 217.117 1545.82 Q220.752 1545.82 222.557 1542.27 Q224.386 1538.71 224.386 1531.6 Q224.386 1524.47 222.557 1520.93 Q220.752 1517.37 217.117 1517.37 M217.117 1513.66 Q222.927 1513.66 225.983 1518.27 Q229.062 1522.85 229.062 1531.6 Q229.062 1540.33 225.983 1544.94 Q222.927 1549.52 217.117 1549.52 Q211.307 1549.52 208.228 1544.94 Q205.173 1540.33 205.173 1531.6 Q205.173 1522.85 208.228 1518.27 Q211.307 1513.66 217.117 1513.66 Z" fill="#000000" fill-rule="evenodd" fill-opacity="1" /><path clip-path="url(#clip540)" d="M651.054 1532.02 L680.73 1532.02 L680.73 1535.95 L651.054 1535.95 L651.054 1532.02 Z" fill="#000000" fill-rule="evenodd" fill-opacity="1" /><path clip-path="url(#clip540)" d="M700.822 1517.37 Q697.211 1517.37 695.382 1520.93 Q693.577 1524.47 693.577 1531.6 Q693.577 1538.71 695.382 1542.27 Q697.211 1545.82 700.822 1545.82 Q704.456 1545.82 706.262 1542.27 Q708.091 1538.71 708.091 1531.6 Q708.091 1524.47 706.262 1520.93 Q704.456 1517.37 700.822 1517.37 M700.822 1513.66 Q706.632 1513.66 709.688 1518.27 Q712.767 1522.85 712.767 1531.6 Q712.767 1540.33 709.688 1544.94 Q706.632 1549.52 700.822 1549.52 Q695.012 1549.52 691.933 1544.94 Q688.878 1540.33 688.878 1531.6 Q688.878 1522.85 691.933 1518.27 Q695.012 1513.66 700.822 1513.66 Z" fill="#000000" fill-rule="evenodd" fill-opacity="1" /><path clip-path="url(#clip540)" d="M720.984 1542.97 L725.868 1542.97 L725.868 1548.85 L720.984 1548.85 L720.984 1542.97 Z" fill="#000000" fill-rule="evenodd" fill-opacity="1" /><path clip-path="url(#clip540)" d="M736.1 1514.29 L754.456 1514.29 L754.456 1518.22 L740.382 1518.22 L740.382 1526.7 Q741.401 1526.35 742.419 1526.19 Q743.438 1526 744.456 1526 Q750.243 1526 753.623 1529.17 Q757.002 1532.34 757.002 1537.76 Q757.002 1543.34 753.53 1546.44 Q750.058 1549.52 743.739 1549.52 Q741.563 1549.52 739.294 1549.15 Q737.049 1548.78 734.641 1548.04 L734.641 1543.34 Q736.725 1544.47 738.947 1545.03 Q741.169 1545.58 743.646 1545.58 Q747.651 1545.58 749.989 1543.48 Q752.327 1541.37 752.327 1537.76 Q752.327 1534.15 749.989 1532.04 Q747.651 1529.94 743.646 1529.94 Q741.771 1529.94 739.896 1530.35 Q738.044 1530.77 736.1 1531.65 L736.1 1514.29 Z" fill="#000000" fill-rule="evenodd" fill-opacity="1" /><path clip-path="url(#clip540)" d="M1209.85 1517.37 Q1206.24 1517.37 1204.41 1520.93 Q1202.61 1524.47 1202.61 1531.6 Q1202.61 1538.71 1204.41 1542.27 Q1206.24 1545.82 1209.85 1545.82 Q1213.49 1545.82 1215.29 1542.27 Q1217.12 1538.71 1217.12 1531.6 Q1217.12 1524.47 1215.29 1520.93 Q1213.49 1517.37 1209.85 1517.37 M1209.85 1513.66 Q1215.66 1513.66 1218.72 1518.27 Q1221.8 1522.85 1221.8 1531.6 Q1221.8 1540.33 1218.72 1544.94 Q1215.66 1549.52 1209.85 1549.52 Q1204.04 1549.52 1200.96 1544.94 Q1197.91 1540.33 1197.91 1531.6 Q1197.91 1522.85 1200.96 1518.27 Q1204.04 1513.66 1209.85 1513.66 Z" fill="#000000" fill-rule="evenodd" fill-opacity="1" /><path clip-path="url(#clip540)" d="M1230.01 1542.97 L1234.9 1542.97 L1234.9 1548.85 L1230.01 1548.85 L1230.01 1542.97 Z" fill="#000000" fill-rule="evenodd" fill-opacity="1" /><path clip-path="url(#clip540)" d="M1255.08 1517.37 Q1251.47 1517.37 1249.64 1520.93 Q1247.84 1524.47 1247.84 1531.6 Q1247.84 1538.71 1249.64 1542.27 Q1251.47 1545.82 1255.08 1545.82 Q1258.72 1545.82 1260.52 1542.27 Q1262.35 1538.71 1262.35 1531.6 Q1262.35 1524.47 1260.52 1520.93 Q1258.72 1517.37 1255.08 1517.37 M1255.08 1513.66 Q1260.89 1513.66 1263.95 1518.27 Q1267.03 1522.85 1267.03 1531.6 Q1267.03 1540.33 1263.95 1544.94 Q1260.89 1549.52 1255.08 1549.52 Q1249.27 1549.52 1246.19 1544.94 Q1243.14 1540.33 1243.14 1531.6 Q1243.14 1522.85 1246.19 1518.27 Q1249.27 1513.66 1255.08 1513.66 Z" fill="#000000" fill-rule="evenodd" fill-opacity="1" /><path clip-path="url(#clip540)" d="M1738.79 1517.37 Q1735.18 1517.37 1733.35 1520.93 Q1731.54 1524.47 1731.54 1531.6 Q1731.54 1538.71 1733.35 1542.27 Q1735.18 1545.82 1738.79 1545.82 Q1742.42 1545.82 1744.23 1542.27 Q1746.06 1538.71 1746.06 1531.6 Q1746.06 1524.47 1744.23 1520.93 Q1742.42 1517.37 1738.79 1517.37 M1738.79 1513.66 Q1744.6 1513.66 1747.65 1518.27 Q1750.73 1522.85 1750.73 1531.6 Q1750.73 1540.33 1747.65 1544.94 Q1744.6 1549.52 1738.79 1549.52 Q1732.98 1549.52 1729.9 1544.94 Q1726.84 1540.33 1726.84 1531.6 Q1726.84 1522.85 1729.9 1518.27 Q1732.98 1513.66 1738.79 1513.66 Z" fill="#000000" fill-rule="evenodd" fill-opacity="1" /><path clip-path="url(#clip540)" d="M1758.95 1542.97 L1763.83 1542.97 L1763.83 1548.85 L1758.95 1548.85 L1758.95 1542.97 Z" fill="#000000" fill-rule="evenodd" fill-opacity="1" /><path clip-path="url(#clip540)" d="M1774.06 1514.29 L1792.42 1514.29 L1792.42 1518.22 L1778.35 1518.22 L1778.35 1526.7 Q1779.37 1526.35 1780.38 1526.19 Q1781.4 1526 1782.42 1526 Q1788.21 1526 1791.59 1529.17 Q1794.97 1532.34 1794.97 1537.76 Q1794.97 1543.34 1791.5 1546.44 Q1788.02 1549.52 1781.7 1549.52 Q1779.53 1549.52 1777.26 1549.15 Q1775.01 1548.78 1772.61 1548.04 L1772.61 1543.34 Q1774.69 1544.47 1776.91 1545.03 Q1779.13 1545.58 1781.61 1545.58 Q1785.62 1545.58 1787.95 1543.48 Q1790.29 1541.37 1790.29 1537.76 Q1790.29 1534.15 1787.95 1532.04 Q1785.62 1529.94 1781.61 1529.94 Q1779.74 1529.94 1777.86 1530.35 Q1776.01 1530.77 1774.06 1531.65 L1774.06 1514.29 Z" fill="#000000" fill-rule="evenodd" fill-opacity="1" /><path clip-path="url(#clip540)" d="M2256.5 1544.91 L2264.14 1544.91 L2264.14 1518.55 L2255.82 1520.21 L2255.82 1515.95 L2264.09 1514.29 L2268.76 1514.29 L2268.76 1544.91 L2276.4 1544.91 L2276.4 1548.85 L2256.5 1548.85 L2256.5 1544.91 Z" fill="#000000" fill-rule="evenodd" fill-opacity="1" /><path clip-path="url(#clip540)" d="M2285.85 1542.97 L2290.73 1542.97 L2290.73 1548.85 L2285.85 1548.85 L2285.85 1542.97 Z" fill="#000000" fill-rule="evenodd" fill-opacity="1" /><path clip-path="url(#clip540)" d="M2310.92 1517.37 Q2307.31 1517.37 2305.48 1520.93 Q2303.67 1524.47 2303.67 1531.6 Q2303.67 1538.71 2305.48 1542.27 Q2307.31 1545.82 2310.92 1545.82 Q2314.55 1545.82 2316.36 1542.27 Q2318.19 1538.71 2318.19 1531.6 Q2318.19 1524.47 2316.36 1520.93 Q2314.55 1517.37 2310.92 1517.37 M2310.92 1513.66 Q2316.73 1513.66 2319.78 1518.27 Q2322.86 1522.85 2322.86 1531.6 Q2322.86 1540.33 2319.78 1544.94 Q2316.73 1549.52 2310.92 1549.52 Q2305.11 1549.52 2302.03 1544.94 Q2298.97 1540.33 2298.97 1531.6 Q2298.97 1522.85 2302.03 1518.27 Q2305.11 1513.66 2310.92 1513.66 Z" fill="#000000" fill-rule="evenodd" fill-opacity="1" /><polyline clip-path="url(#clip542)" style="stroke:#000000; stroke-linecap:round; stroke-linejoin:round; stroke-width:2; stroke-opacity:0.1; fill:none" points="
  112.177,1408.66 2352.76,1408.66 
  "/>
<polyline clip-path="url(#clip542)" style="stroke:#000000; stroke-linecap:round; stroke-linejoin:round; stroke-width:2; stroke-opacity:0.1; fill:none" points="
  112.177,1163.6 2352.76,1163.6 
  "/>
<polyline clip-path="url(#clip542)" style="stroke:#000000; stroke-linecap:round; stroke-linejoin:round; stroke-width:2; stroke-opacity:0.1; fill:none" points="
  112.177,918.527 2352.76,918.527 
  "/>
<polyline clip-path="url(#clip542)" style="stroke:#000000; stroke-linecap:round; stroke-linejoin:round; stroke-width:2; stroke-opacity:0.1; fill:none" points="
  112.177,673.459 2352.76,673.459 
  "/>
<polyline clip-path="url(#clip542)" style="stroke:#000000; stroke-linecap:round; stroke-linejoin:round; stroke-width:2; stroke-opacity:0.1; fill:none" points="
  112.177,428.39 2352.76,428.39 
  "/>
<polyline clip-path="url(#clip542)" style="stroke:#000000; stroke-linecap:round; stroke-linejoin:round; stroke-width:2; stroke-opacity:0.1; fill:none" points="
  112.177,183.322 2352.76,183.322 
  "/>
<polyline clip-path="url(#clip540)" style="stroke:#000000; stroke-linecap:round; stroke-linejoin:round; stroke-width:4; stroke-opacity:1; fill:none" points="
  112.177,1486.45 112.177,47.2441 
  "/>
<polyline clip-path="url(#clip540)" style="stroke:#000000; stroke-linecap:round; stroke-linejoin:round; stroke-width:4; stroke-opacity:1; fill:none" points="
  112.177,1408.66 131.075,1408.66 
  "/>
<polyline clip-path="url(#clip540)" style="stroke:#000000; stroke-linecap:round; stroke-linejoin:round; stroke-width:4; stroke-opacity:1; fill:none" points="
  112.177,1163.6 131.075,1163.6 
  "/>
<polyline clip-path="url(#clip540)" style="stroke:#000000; stroke-linecap:round; stroke-linejoin:round; stroke-width:4; stroke-opacity:1; fill:none" points="
  112.177,918.527 131.075,918.527 
  "/>
<polyline clip-path="url(#clip540)" style="stroke:#000000; stroke-linecap:round; stroke-linejoin:round; stroke-width:4; stroke-opacity:1; fill:none" points="
  112.177,673.459 131.075,673.459 
  "/>
<polyline clip-path="url(#clip540)" style="stroke:#000000; stroke-linecap:round; stroke-linejoin:round; stroke-width:4; stroke-opacity:1; fill:none" points="
  112.177,428.39 131.075,428.39 
  "/>
<polyline clip-path="url(#clip540)" style="stroke:#000000; stroke-linecap:round; stroke-linejoin:round; stroke-width:4; stroke-opacity:1; fill:none" points="
  112.177,183.322 131.075,183.322 
  "/>
<path clip-path="url(#clip540)" d="M56.2699 1422.01 L63.9087 1422.01 L63.9087 1395.64 L55.5986 1397.31 L55.5986 1393.05 L63.8624 1391.38 L68.5383 1391.38 L68.5383 1422.01 L76.1772 1422.01 L76.1772 1425.94 L56.2699 1425.94 L56.2699 1422.01 Z" fill="#000000" fill-rule="evenodd" fill-opacity="1" /><path clip-path="url(#clip540)" d="M59.8578 1176.94 L76.1772 1176.94 L76.1772 1180.88 L54.2328 1180.88 L54.2328 1176.94 Q56.8949 1174.19 61.4782 1169.56 Q66.0846 1164.9 67.2652 1163.56 Q69.5105 1161.04 70.3902 1159.3 Q71.2929 1157.54 71.2929 1155.85 Q71.2929 1153.1 69.3485 1151.36 Q67.4272 1149.63 64.3254 1149.63 Q62.1263 1149.63 59.6726 1150.39 Q57.2421 1151.15 54.4643 1152.7 L54.4643 1147.98 Q57.2884 1146.85 59.7421 1146.27 Q62.1958 1145.69 64.2328 1145.69 Q69.6031 1145.69 72.7976 1148.38 Q75.992 1151.06 75.992 1155.55 Q75.992 1157.68 75.1818 1159.6 Q74.3948 1161.5 72.2883 1164.09 Q71.7096 1164.76 68.6078 1167.98 Q65.5059 1171.18 59.8578 1176.94 Z" fill="#000000" fill-rule="evenodd" fill-opacity="1" /><path clip-path="url(#clip540)" d="M69.0476 917.173 Q72.404 917.891 74.279 920.159 Q76.1772 922.428 76.1772 925.761 Q76.1772 930.877 72.6587 933.678 Q69.1402 936.478 62.6587 936.478 Q60.4828 936.478 58.168 936.039 Q55.8764 935.622 53.4227 934.766 L53.4227 930.252 Q55.3671 931.386 57.6819 931.965 Q59.9967 932.543 62.5198 932.543 Q66.918 932.543 69.2096 930.807 Q71.5244 929.071 71.5244 925.761 Q71.5244 922.705 69.3717 920.992 Q67.242 919.256 63.4226 919.256 L59.3949 919.256 L59.3949 915.414 L63.6078 915.414 Q67.0569 915.414 68.8855 914.048 Q70.7142 912.659 70.7142 910.067 Q70.7142 907.405 68.8161 905.993 Q66.9411 904.557 63.4226 904.557 Q61.5013 904.557 59.3023 904.974 Q57.1032 905.391 54.4643 906.27 L54.4643 902.104 Q57.1264 901.363 59.4412 900.993 Q61.7791 900.622 63.8393 900.622 Q69.1633 900.622 72.2652 903.053 Q75.367 905.46 75.367 909.58 Q75.367 912.451 73.7235 914.442 Q72.08 916.409 69.0476 917.173 Z" fill="#000000" fill-rule="evenodd" fill-opacity="1" /><path clip-path="url(#clip540)" d="M66.5939 660.253 L54.7884 678.702 L66.5939 678.702 L66.5939 660.253 M65.367 656.179 L71.2466 656.179 L71.2466 678.702 L76.1772 678.702 L76.1772 682.591 L71.2466 682.591 L71.2466 690.739 L66.5939 690.739 L66.5939 682.591 L50.9921 682.591 L50.9921 678.077 L65.367 656.179 Z" fill="#000000" fill-rule="evenodd" fill-opacity="1" /><path clip-path="url(#clip540)" d="M55.2745 411.11 L73.6309 411.11 L73.6309 415.045 L59.5569 415.045 L59.5569 423.518 Q60.5754 423.17 61.5939 423.008 Q62.6124 422.823 63.6309 422.823 Q69.418 422.823 72.7976 425.994 Q76.1772 429.166 76.1772 434.582 Q76.1772 440.161 72.705 443.263 Q69.2328 446.341 62.9134 446.341 Q60.7374 446.341 58.4689 445.971 Q56.2236 445.601 53.8162 444.86 L53.8162 440.161 Q55.8995 441.295 58.1217 441.851 Q60.3439 442.406 62.8208 442.406 Q66.8254 442.406 69.1633 440.3 Q71.5013 438.193 71.5013 434.582 Q71.5013 430.971 69.1633 428.865 Q66.8254 426.758 62.8208 426.758 Q60.9458 426.758 59.0708 427.175 Q57.2189 427.592 55.2745 428.471 L55.2745 411.11 Z" fill="#000000" fill-rule="evenodd" fill-opacity="1" /><path clip-path="url(#clip540)" d="M64.6495 181.458 Q61.5013 181.458 59.6495 183.611 Q57.8208 185.764 57.8208 189.514 Q57.8208 193.241 59.6495 195.417 Q61.5013 197.569 64.6495 197.569 Q67.7976 197.569 69.6263 195.417 Q71.4781 193.241 71.4781 189.514 Q71.4781 185.764 69.6263 183.611 Q67.7976 181.458 64.6495 181.458 M73.9318 166.806 L73.9318 171.065 Q72.1726 170.231 70.367 169.792 Q68.5846 169.352 66.8254 169.352 Q62.1958 169.352 59.7421 172.477 Q57.3115 175.602 56.9643 181.921 Q58.33 179.907 60.3902 178.843 Q62.4504 177.755 64.9272 177.755 Q70.1355 177.755 73.1448 180.926 Q76.1772 184.074 76.1772 189.514 Q76.1772 194.838 73.029 198.055 Q69.8809 201.273 64.6495 201.273 Q58.6541 201.273 55.4828 196.69 Q52.3116 192.083 52.3116 183.356 Q52.3116 175.162 56.2004 170.301 Q60.0893 165.417 66.6402 165.417 Q68.3994 165.417 70.1818 165.764 Q71.9874 166.111 73.9318 166.806 Z" fill="#000000" fill-rule="evenodd" fill-opacity="1" /><polyline clip-path="url(#clip542)" style="stroke:#009af9; stroke-linecap:round; stroke-linejoin:round; stroke-width:4; stroke-opacity:1; fill:none" points="
  175.59,1375.5 281.277,1392.66 386.965,1408.2 492.653,1421.75 598.34,1432.88 704.028,1441.04 809.716,1445.59 915.404,1445.72 1021.09,1440.44 1126.78,1428.58 
  1232.47,1408.66 1338.15,1378.91 1443.84,1337.15 1549.53,1280.71 1655.22,1206.35 1760.9,1110.1 1866.59,987.118 1972.28,831.479 2077.97,635.955 2183.66,391.716 
  2289.34,87.9763 
  "/>
<polyline clip-path="url(#clip542)" style="stroke:#e26f46; stroke-linecap:round; stroke-linejoin:round; stroke-width:4; stroke-opacity:1; fill:none" points="
  175.59,1163.6 281.277,1232.21 386.965,1291.03 492.653,1340.05 598.34,1379.26 704.028,1408.66 809.716,1428.27 915.404,1438.07 1021.09,1438.07 1126.78,1428.27 
  1232.47,1408.66 1338.15,1379.26 1443.84,1340.05 1549.53,1291.03 1655.22,1232.21 1760.9,1163.6 1866.59,1085.17 1972.28,996.949 2077.97,898.922 2183.66,791.092 
  2289.34,673.459 
  "/>
<path clip-path="url(#clip540)" d="
M186.863 250.738 L1217.36 250.738 L1217.36 95.2176 L186.863 95.2176  Z
  " fill="#ffffff" fill-rule="evenodd" fill-opacity="1"/>
<polyline clip-path="url(#clip540)" style="stroke:#000000; stroke-linecap:round; stroke-linejoin:round; stroke-width:4; stroke-opacity:1; fill:none" points="
  186.863,250.738 1217.36,250.738 1217.36,95.2176 186.863,95.2176 186.863,250.738 
  "/>
<polyline clip-path="url(#clip540)" style="stroke:#009af9; stroke-linecap:round; stroke-linejoin:round; stroke-width:4; stroke-opacity:1; fill:none" points="
  211.758,147.058 361.13,147.058 
  "/>
<path clip-path="url(#clip540)" d="M402.53 128.319 L402.53 131.861 L398.456 131.861 Q396.165 131.861 395.262 132.787 Q394.382 133.713 394.382 136.12 L394.382 138.412 L401.396 138.412 L401.396 141.722 L394.382 141.722 L394.382 164.338 L390.1 164.338 L390.1 141.722 L386.026 141.722 L386.026 138.412 L390.1 138.412 L390.1 136.606 Q390.1 132.278 392.114 130.31 Q394.127 128.319 398.502 128.319 L402.53 128.319 Z" fill="#000000" fill-rule="evenodd" fill-opacity="1" /><path clip-path="url(#clip540)" d="M416.326 128.366 Q413.225 133.69 411.72 138.898 Q410.215 144.106 410.215 149.453 Q410.215 154.801 411.72 160.055 Q413.248 165.287 416.326 170.588 L412.623 170.588 Q409.151 165.148 407.414 159.893 Q405.702 154.639 405.702 149.453 Q405.702 144.291 407.414 139.06 Q409.127 133.828 412.623 128.366 L416.326 128.366 Z" fill="#000000" fill-rule="evenodd" fill-opacity="1" /><path clip-path="url(#clip540)" d="M446.141 138.412 L436.766 151.027 L446.627 164.338 L441.604 164.338 L434.058 154.152 L426.512 164.338 L421.488 164.338 L431.558 150.773 L422.345 138.412 L427.368 138.412 L434.243 147.648 L441.118 138.412 L446.141 138.412 Z" fill="#000000" fill-rule="evenodd" fill-opacity="1" /><path clip-path="url(#clip540)" d="M451.974 128.366 L455.678 128.366 Q459.15 133.828 460.863 139.06 Q462.599 144.291 462.599 149.453 Q462.599 154.639 460.863 159.893 Q459.15 165.148 455.678 170.588 L451.974 170.588 Q455.053 165.287 456.558 160.055 Q458.085 154.801 458.085 149.453 Q458.085 144.106 456.558 138.898 Q455.053 133.69 451.974 128.366 Z" fill="#000000" fill-rule="evenodd" fill-opacity="1" /><polyline clip-path="url(#clip540)" style="stroke:#e26f46; stroke-linecap:round; stroke-linejoin:round; stroke-width:4; stroke-opacity:1; fill:none" points="
  211.758,198.898 361.13,198.898 
  "/>
<path clip-path="url(#clip540)" d="M402.53 180.159 L402.53 183.701 L398.456 183.701 Q396.165 183.701 395.262 184.627 Q394.382 185.553 394.382 187.96 L394.382 190.252 L401.396 190.252 L401.396 193.562 L394.382 193.562 L394.382 216.178 L390.1 216.178 L390.1 193.562 L386.026 193.562 L386.026 190.252 L390.1 190.252 L390.1 188.446 Q390.1 184.118 392.114 182.15 Q394.127 180.159 398.502 180.159 L402.53 180.159 Z" fill="#000000" fill-rule="evenodd" fill-opacity="1" /><path clip-path="url(#clip540)" d="M416.326 180.206 Q413.225 185.53 411.72 190.738 Q410.215 195.946 410.215 201.293 Q410.215 206.641 411.72 211.895 Q413.248 217.127 416.326 222.428 L412.623 222.428 Q409.151 216.988 407.414 211.733 Q405.702 206.479 405.702 201.293 Q405.702 196.131 407.414 190.9 Q409.127 185.668 412.623 180.206 L416.326 180.206 Z" fill="#000000" fill-rule="evenodd" fill-opacity="1" /><path clip-path="url(#clip540)" d="M435.192 184.696 Q431.581 184.696 429.752 188.261 Q427.947 191.803 427.947 198.932 Q427.947 206.039 429.752 209.604 Q431.581 213.145 435.192 213.145 Q438.826 213.145 440.632 209.604 Q442.461 206.039 442.461 198.932 Q442.461 191.803 440.632 188.261 Q438.826 184.696 435.192 184.696 M435.192 180.993 Q441.002 180.993 444.058 185.599 Q447.136 190.182 447.136 198.932 Q447.136 207.659 444.058 212.266 Q441.002 216.849 435.192 216.849 Q429.382 216.849 426.303 212.266 Q423.248 207.659 423.248 198.932 Q423.248 190.182 426.303 185.599 Q429.382 180.993 435.192 180.993 Z" fill="#000000" fill-rule="evenodd" fill-opacity="1" /><path clip-path="url(#clip540)" d="M454.081 180.206 L457.785 180.206 Q461.257 185.668 462.97 190.9 Q464.706 196.131 464.706 201.293 Q464.706 206.479 462.97 211.733 Q461.257 216.988 457.785 222.428 L454.081 222.428 Q457.16 217.127 458.664 211.895 Q460.192 206.641 460.192 201.293 Q460.192 195.946 458.664 190.738 Q457.16 185.53 454.081 180.206 Z" fill="#000000" fill-rule="evenodd" fill-opacity="1" /><path clip-path="url(#clip540)" d="M490.585 186.455 L490.585 199.349 L503.479 199.349 L503.479 203.284 L490.585 203.284 L490.585 216.178 L486.696 216.178 L486.696 203.284 L473.803 203.284 L473.803 199.349 L486.696 199.349 L486.696 186.455 L490.585 186.455 Z" fill="#000000" fill-rule="evenodd" fill-opacity="1" /><path clip-path="url(#clip540)" d="M526.094 180.159 L526.094 183.701 L522.02 183.701 Q519.729 183.701 518.826 184.627 Q517.946 185.553 517.946 187.96 L517.946 190.252 L524.96 190.252 L524.96 193.562 L517.946 193.562 L517.946 216.178 L513.664 216.178 L513.664 193.562 L509.59 193.562 L509.59 190.252 L513.664 190.252 L513.664 188.446 Q513.664 184.118 515.678 182.15 Q517.692 180.159 522.067 180.159 L526.094 180.159 Z" fill="#000000" fill-rule="evenodd" fill-opacity="1" /><path clip-path="url(#clip540)" d="M533.687 181.618 L533.687 194.465 L529.752 194.465 L529.752 181.618 L533.687 181.618 Z" fill="#000000" fill-rule="evenodd" fill-opacity="1" /><path clip-path="url(#clip540)" d="M552.923 180.206 Q549.821 185.53 548.316 190.738 Q546.812 195.946 546.812 201.293 Q546.812 206.641 548.316 211.895 Q549.844 217.127 552.923 222.428 L549.219 222.428 Q545.747 216.988 544.011 211.733 Q542.298 206.479 542.298 201.293 Q542.298 196.131 544.011 190.9 Q545.724 185.668 549.219 180.206 L552.923 180.206 Z" fill="#000000" fill-rule="evenodd" fill-opacity="1" /><path clip-path="url(#clip540)" d="M571.789 184.696 Q568.177 184.696 566.349 188.261 Q564.543 191.803 564.543 198.932 Q564.543 206.039 566.349 209.604 Q568.177 213.145 571.789 213.145 Q575.423 213.145 577.228 209.604 Q579.057 206.039 579.057 198.932 Q579.057 191.803 577.228 188.261 Q575.423 184.696 571.789 184.696 M571.789 180.993 Q577.599 180.993 580.654 185.599 Q583.733 190.182 583.733 198.932 Q583.733 207.659 580.654 212.266 Q577.599 216.849 571.789 216.849 Q565.978 216.849 562.9 212.266 Q559.844 207.659 559.844 198.932 Q559.844 190.182 562.9 185.599 Q565.978 180.993 571.789 180.993 Z" fill="#000000" fill-rule="evenodd" fill-opacity="1" /><path clip-path="url(#clip540)" d="M590.677 180.206 L594.381 180.206 Q597.853 185.668 599.566 190.9 Q601.302 196.131 601.302 201.293 Q601.302 206.479 599.566 211.733 Q597.853 216.988 594.381 222.428 L590.677 222.428 Q593.756 217.127 595.261 211.895 Q596.788 206.641 596.788 201.293 Q596.788 195.946 595.261 190.738 Q593.756 185.53 590.677 180.206 Z" fill="#000000" fill-rule="evenodd" fill-opacity="1" /><path clip-path="url(#clip540)" d="M627.668 187.312 L619.358 191.803 L627.668 196.317 L626.325 198.585 L618.548 193.886 L618.548 202.613 L615.909 202.613 L615.909 193.886 L608.131 198.585 L606.788 196.317 L615.099 191.803 L606.788 187.312 L608.131 185.02 L615.909 189.719 L615.909 180.993 L618.548 180.993 L618.548 189.719 L626.325 185.02 L627.668 187.312 Z" fill="#000000" fill-rule="evenodd" fill-opacity="1" /><path clip-path="url(#clip540)" d="M643.779 180.206 Q640.677 185.53 639.172 190.738 Q637.668 195.946 637.668 201.293 Q637.668 206.641 639.172 211.895 Q640.7 217.127 643.779 222.428 L640.075 222.428 Q636.603 216.988 634.867 211.733 Q633.154 206.479 633.154 201.293 Q633.154 196.131 634.867 190.9 Q636.58 185.668 640.075 180.206 L643.779 180.206 Z" fill="#000000" fill-rule="evenodd" fill-opacity="1" /><path clip-path="url(#clip540)" d="M673.594 190.252 L664.219 202.867 L674.08 216.178 L669.057 216.178 L661.51 205.992 L653.964 216.178 L648.941 216.178 L659.01 202.613 L649.797 190.252 L654.821 190.252 L661.696 199.488 L668.57 190.252 L673.594 190.252 Z" fill="#000000" fill-rule="evenodd" fill-opacity="1" /><path clip-path="url(#clip540)" d="M677.945 201.293 L690.422 201.293 L690.422 205.09 L677.945 205.09 L677.945 201.293 Z" fill="#000000" fill-rule="evenodd" fill-opacity="1" /><path clip-path="url(#clip540)" d="M707.806 184.696 Q704.195 184.696 702.367 188.261 Q700.561 191.803 700.561 198.932 Q700.561 206.039 702.367 209.604 Q704.195 213.145 707.806 213.145 Q711.441 213.145 713.246 209.604 Q715.075 206.039 715.075 198.932 Q715.075 191.803 713.246 188.261 Q711.441 184.696 707.806 184.696 M707.806 180.993 Q713.617 180.993 716.672 185.599 Q719.751 190.182 719.751 198.932 Q719.751 207.659 716.672 212.266 Q713.617 216.849 707.806 216.849 Q701.996 216.849 698.918 212.266 Q695.862 207.659 695.862 198.932 Q695.862 190.182 698.918 185.599 Q701.996 180.993 707.806 180.993 Z" fill="#000000" fill-rule="evenodd" fill-opacity="1" /><path clip-path="url(#clip540)" d="M726.695 180.206 L730.399 180.206 Q733.871 185.668 735.584 190.9 Q737.32 196.131 737.32 201.293 Q737.32 206.479 735.584 211.733 Q733.871 216.988 730.399 222.428 L726.695 222.428 Q729.774 217.127 731.278 211.895 Q732.806 206.641 732.806 201.293 Q732.806 195.946 731.278 190.738 Q729.774 185.53 726.695 180.206 Z" fill="#000000" fill-rule="evenodd" fill-opacity="1" /><path clip-path="url(#clip540)" d="M763.2 186.455 L763.2 199.349 L776.093 199.349 L776.093 203.284 L763.2 203.284 L763.2 216.178 L759.311 216.178 L759.311 203.284 L746.417 203.284 L746.417 199.349 L759.311 199.349 L759.311 186.455 L763.2 186.455 Z" fill="#000000" fill-rule="evenodd" fill-opacity="1" /><path clip-path="url(#clip540)" d="M796.186 184.696 Q792.574 184.696 790.746 188.261 Q788.94 191.803 788.94 198.932 Q788.94 206.039 790.746 209.604 Q792.574 213.145 796.186 213.145 Q799.82 213.145 801.625 209.604 Q803.454 206.039 803.454 198.932 Q803.454 191.803 801.625 188.261 Q799.82 184.696 796.186 184.696 M796.186 180.993 Q801.996 180.993 805.051 185.599 Q808.13 190.182 808.13 198.932 Q808.13 207.659 805.051 212.266 Q801.996 216.849 796.186 216.849 Q790.375 216.849 787.297 212.266 Q784.241 207.659 784.241 198.932 Q784.241 190.182 787.297 185.599 Q790.375 180.993 796.186 180.993 Z" fill="#000000" fill-rule="evenodd" fill-opacity="1" /><path clip-path="url(#clip540)" d="M816.347 210.298 L821.232 210.298 L821.232 216.178 L816.347 216.178 L816.347 210.298 Z" fill="#000000" fill-rule="evenodd" fill-opacity="1" /><path clip-path="url(#clip540)" d="M831.463 181.618 L849.819 181.618 L849.819 185.553 L835.746 185.553 L835.746 194.025 Q836.764 193.678 837.783 193.516 Q838.801 193.33 839.82 193.33 Q845.607 193.33 848.986 196.502 Q852.366 199.673 852.366 205.09 Q852.366 210.668 848.894 213.77 Q845.421 216.849 839.102 216.849 Q836.926 216.849 834.658 216.478 Q832.412 216.108 830.005 215.367 L830.005 210.668 Q832.088 211.803 834.31 212.358 Q836.533 212.914 839.009 212.914 Q843.014 212.914 845.352 210.807 Q847.69 208.701 847.69 205.09 Q847.69 201.479 845.352 199.372 Q843.014 197.266 839.009 197.266 Q837.134 197.266 835.259 197.682 Q833.408 198.099 831.463 198.979 L831.463 181.618 Z" fill="#000000" fill-rule="evenodd" fill-opacity="1" /><path clip-path="url(#clip540)" d="M874.102 180.159 L874.102 183.701 L870.028 183.701 Q867.736 183.701 866.833 184.627 Q865.954 185.553 865.954 187.96 L865.954 190.252 L872.968 190.252 L872.968 193.562 L865.954 193.562 L865.954 216.178 L861.671 216.178 L861.671 193.562 L857.597 193.562 L857.597 190.252 L861.671 190.252 L861.671 188.446 Q861.671 184.118 863.685 182.15 Q865.699 180.159 870.074 180.159 L874.102 180.159 Z" fill="#000000" fill-rule="evenodd" fill-opacity="1" /><path clip-path="url(#clip540)" d="M881.694 181.618 L881.694 194.465 L877.759 194.465 L877.759 181.618 L881.694 181.618 Z" fill="#000000" fill-rule="evenodd" fill-opacity="1" /><path clip-path="url(#clip540)" d="M894.727 181.618 L894.727 194.465 L890.792 194.465 L890.792 181.618 L894.727 181.618 Z" fill="#000000" fill-rule="evenodd" fill-opacity="1" /><path clip-path="url(#clip540)" d="M913.963 180.206 Q910.861 185.53 909.356 190.738 Q907.852 195.946 907.852 201.293 Q907.852 206.641 909.356 211.895 Q910.884 217.127 913.963 222.428 L910.259 222.428 Q906.787 216.988 905.051 211.733 Q903.338 206.479 903.338 201.293 Q903.338 196.131 905.051 190.9 Q906.764 185.668 910.259 180.206 L913.963 180.206 Z" fill="#000000" fill-rule="evenodd" fill-opacity="1" /><path clip-path="url(#clip540)" d="M932.828 184.696 Q929.217 184.696 927.389 188.261 Q925.583 191.803 925.583 198.932 Q925.583 206.039 927.389 209.604 Q929.217 213.145 932.828 213.145 Q936.463 213.145 938.268 209.604 Q940.097 206.039 940.097 198.932 Q940.097 191.803 938.268 188.261 Q936.463 184.696 932.828 184.696 M932.828 180.993 Q938.638 180.993 941.694 185.599 Q944.773 190.182 944.773 198.932 Q944.773 207.659 941.694 212.266 Q938.638 216.849 932.828 216.849 Q927.018 216.849 923.939 212.266 Q920.884 207.659 920.884 198.932 Q920.884 190.182 923.939 185.599 Q927.018 180.993 932.828 180.993 Z" fill="#000000" fill-rule="evenodd" fill-opacity="1" /><path clip-path="url(#clip540)" d="M951.717 180.206 L955.421 180.206 Q958.893 185.668 960.606 190.9 Q962.342 196.131 962.342 201.293 Q962.342 206.479 960.606 211.733 Q958.893 216.988 955.421 222.428 L951.717 222.428 Q954.796 217.127 956.3 211.895 Q957.828 206.641 957.828 201.293 Q957.828 195.946 956.3 190.738 Q954.796 185.53 951.717 180.206 Z" fill="#000000" fill-rule="evenodd" fill-opacity="1" /><path clip-path="url(#clip540)" d="M988.708 187.312 L980.398 191.803 L988.708 196.317 L987.365 198.585 L979.587 193.886 L979.587 202.613 L976.948 202.613 L976.948 193.886 L969.171 198.585 L967.828 196.317 L976.138 191.803 L967.828 187.312 L969.171 185.02 L976.948 189.719 L976.948 180.993 L979.587 180.993 L979.587 189.719 L987.365 185.02 L988.708 187.312 Z" fill="#000000" fill-rule="evenodd" fill-opacity="1" /><path clip-path="url(#clip540)" d="M1004.82 180.206 Q1001.72 185.53 1000.21 190.738 Q998.708 195.946 998.708 201.293 Q998.708 206.641 1000.21 211.895 Q1001.74 217.127 1004.82 222.428 L1001.11 222.428 Q997.643 216.988 995.907 211.733 Q994.194 206.479 994.194 201.293 Q994.194 196.131 995.907 190.9 Q997.62 185.668 1001.11 180.206 L1004.82 180.206 Z" fill="#000000" fill-rule="evenodd" fill-opacity="1" /><path clip-path="url(#clip540)" d="M1034.63 190.252 L1025.26 202.867 L1035.12 216.178 L1030.1 216.178 L1022.55 205.992 L1015 216.178 L1009.98 216.178 L1020.05 202.613 L1010.84 190.252 L1015.86 190.252 L1022.74 199.488 L1029.61 190.252 L1034.63 190.252 Z" fill="#000000" fill-rule="evenodd" fill-opacity="1" /><path clip-path="url(#clip540)" d="M1038.99 201.293 L1051.46 201.293 L1051.46 205.09 L1038.99 205.09 L1038.99 201.293 Z" fill="#000000" fill-rule="evenodd" fill-opacity="1" /><path clip-path="url(#clip540)" d="M1068.85 184.696 Q1065.24 184.696 1063.41 188.261 Q1061.6 191.803 1061.6 198.932 Q1061.6 206.039 1063.41 209.604 Q1065.24 213.145 1068.85 213.145 Q1072.48 213.145 1074.29 209.604 Q1076.11 206.039 1076.11 198.932 Q1076.11 191.803 1074.29 188.261 Q1072.48 184.696 1068.85 184.696 M1068.85 180.993 Q1074.66 180.993 1077.71 185.599 Q1080.79 190.182 1080.79 198.932 Q1080.79 207.659 1077.71 212.266 Q1074.66 216.849 1068.85 216.849 Q1063.04 216.849 1059.96 212.266 Q1056.9 207.659 1056.9 198.932 Q1056.9 190.182 1059.96 185.599 Q1063.04 180.993 1068.85 180.993 Z" fill="#000000" fill-rule="evenodd" fill-opacity="1" /><path clip-path="url(#clip540)" d="M1087.73 180.206 L1091.44 180.206 Q1094.91 185.668 1096.62 190.9 Q1098.36 196.131 1098.36 201.293 Q1098.36 206.479 1096.62 211.733 Q1094.91 216.988 1091.44 222.428 L1087.73 222.428 Q1090.81 217.127 1092.32 211.895 Q1093.85 206.641 1093.85 201.293 Q1093.85 195.946 1092.32 190.738 Q1090.81 185.53 1087.73 180.206 Z" fill="#000000" fill-rule="evenodd" fill-opacity="1" /><path clip-path="url(#clip540)" d="M1124.56 181.618 L1137.13 194.511 L1132.48 194.511 L1122.29 185.368 L1112.11 194.511 L1107.46 194.511 L1120.03 181.618 L1124.56 181.618 Z" fill="#000000" fill-rule="evenodd" fill-opacity="1" /><path clip-path="url(#clip540)" d="M1151.25 212.242 L1167.57 212.242 L1167.57 216.178 L1145.63 216.178 L1145.63 212.242 Q1148.29 209.488 1152.87 204.858 Q1157.48 200.205 1158.66 198.863 Q1160.91 196.34 1161.79 194.604 Q1162.69 192.844 1162.69 191.155 Q1162.69 188.4 1160.74 186.664 Q1158.82 184.928 1155.72 184.928 Q1153.52 184.928 1151.07 185.692 Q1148.64 186.455 1145.86 188.006 L1145.86 183.284 Q1148.68 182.15 1151.14 181.571 Q1153.59 180.993 1155.63 180.993 Q1161 180.993 1164.19 183.678 Q1167.39 186.363 1167.39 190.854 Q1167.39 192.983 1166.58 194.905 Q1165.79 196.803 1163.68 199.395 Q1163.1 200.067 1160 203.284 Q1156.9 206.479 1151.25 212.242 Z" fill="#000000" fill-rule="evenodd" fill-opacity="1" /></svg>
