<?xml version="1.0" encoding="utf-8"?>
<svg xmlns="http://www.w3.org/2000/svg" xmlns:xlink="http://www.w3.org/1999/xlink" width="600" height="400" viewBox="0 0 2400 1600">
<defs>
  <clipPath id="clip870">
    <rect x="0" y="0" width="2400" height="1600"/>
  </clipPath>
</defs>
<path clip-path="url(#clip870)" d="
M0 1600 L2400 1600 L2400 0 L0 0  Z
  " fill="#ffffff" fill-rule="evenodd" fill-opacity="1"/>
<defs>
  <clipPath id="clip871">
    <rect x="480" y="0" width="1681" height="1600"/>
  </clipPath>
</defs>
<defs>
  <clipPath id="clip872">
    <rect x="193" y="123" width="2160" height="1364"/>
  </clipPath>
</defs>
<path clip-path="url(#clip872)" d="
M193.936 1405.93 L193.936 365.017 L984.119 123.472 L2352.76 203.987 L2352.76 1244.9 L1562.57 1486.45 L193.936 1405.93  Z
  " fill="#ffffff" fill-rule="evenodd" fill-opacity="1"/>
<polyline clip-path="url(#clip872)" style="stroke:#000000; stroke-linecap:butt; stroke-linejoin:round; stroke-width:2; stroke-opacity:0.1; fill:none" points="
  232.671,1408.21 1022.85,1166.67 
  "/>
<polyline clip-path="url(#clip872)" style="stroke:#000000; stroke-linecap:butt; stroke-linejoin:round; stroke-width:2; stroke-opacity:0.1; fill:none" points="
  1022.85,1166.67 1022.85,125.751 
  "/>
<polyline clip-path="url(#clip872)" style="stroke:#000000; stroke-linecap:butt; stroke-linejoin:round; stroke-width:2; stroke-opacity:0.1; fill:none" points="
  447.865,1420.87 1238.05,1179.33 
  "/>
<polyline clip-path="url(#clip872)" style="stroke:#000000; stroke-linecap:butt; stroke-linejoin:round; stroke-width:2; stroke-opacity:0.1; fill:none" points="
  1238.05,1179.33 1238.05,138.41 
  "/>
<polyline clip-path="url(#clip872)" style="stroke:#000000; stroke-linecap:butt; stroke-linejoin:round; stroke-width:2; stroke-opacity:0.1; fill:none" points="
  663.06,1433.53 1453.24,1191.99 
  "/>
<polyline clip-path="url(#clip872)" style="stroke:#000000; stroke-linecap:butt; stroke-linejoin:round; stroke-width:2; stroke-opacity:0.1; fill:none" points="
  1453.24,1191.99 1453.24,151.07 
  "/>
<polyline clip-path="url(#clip872)" style="stroke:#000000; stroke-linecap:butt; stroke-linejoin:round; stroke-width:2; stroke-opacity:0.1; fill:none" points="
  878.254,1446.19 1668.44,1204.65 
  "/>
<polyline clip-path="url(#clip872)" style="stroke:#000000; stroke-linecap:butt; stroke-linejoin:round; stroke-width:2; stroke-opacity:0.1; fill:none" points="
  1668.44,1204.65 1668.44,163.73 
  "/>
<polyline clip-path="url(#clip872)" style="stroke:#000000; stroke-linecap:butt; stroke-linejoin:round; stroke-width:2; stroke-opacity:0.1; fill:none" points="
  1093.45,1458.85 1883.63,1217.3 
  "/>
<polyline clip-path="url(#clip872)" style="stroke:#000000; stroke-linecap:butt; stroke-linejoin:round; stroke-width:2; stroke-opacity:0.1; fill:none" points="
  1883.63,1217.3 1883.63,176.389 
  "/>
<polyline clip-path="url(#clip872)" style="stroke:#000000; stroke-linecap:butt; stroke-linejoin:round; stroke-width:2; stroke-opacity:0.1; fill:none" points="
  1308.64,1471.51 2098.83,1229.96 
  "/>
<polyline clip-path="url(#clip872)" style="stroke:#000000; stroke-linecap:butt; stroke-linejoin:round; stroke-width:2; stroke-opacity:0.1; fill:none" points="
  2098.83,1229.96 2098.83,189.049 
  "/>
<polyline clip-path="url(#clip872)" style="stroke:#000000; stroke-linecap:butt; stroke-linejoin:round; stroke-width:2; stroke-opacity:0.1; fill:none" points="
  1523.84,1484.17 2314.02,1242.62 
  "/>
<polyline clip-path="url(#clip872)" style="stroke:#000000; stroke-linecap:butt; stroke-linejoin:round; stroke-width:2; stroke-opacity:0.1; fill:none" points="
  2314.02,1242.62 2314.02,201.708 
  "/>
<polyline clip-path="url(#clip870)" style="stroke:#000000; stroke-linecap:butt; stroke-linejoin:round; stroke-width:4; stroke-opacity:1; fill:none" points="
  193.936,1405.93 1562.57,1486.45 
  "/>
<polyline clip-path="url(#clip870)" style="stroke:#000000; stroke-linecap:butt; stroke-linejoin:round; stroke-width:4; stroke-opacity:1; fill:none" points="
  232.671,1408.21 242.153,1405.31 
  "/>
<polyline clip-path="url(#clip870)" style="stroke:#000000; stroke-linecap:butt; stroke-linejoin:round; stroke-width:4; stroke-opacity:1; fill:none" points="
  447.865,1420.87 457.348,1417.97 
  "/>
<polyline clip-path="url(#clip870)" style="stroke:#000000; stroke-linecap:butt; stroke-linejoin:round; stroke-width:4; stroke-opacity:1; fill:none" points="
  663.06,1433.53 672.542,1430.63 
  "/>
<polyline clip-path="url(#clip870)" style="stroke:#000000; stroke-linecap:butt; stroke-linejoin:round; stroke-width:4; stroke-opacity:1; fill:none" points="
  878.254,1446.19 887.737,1443.29 
  "/>
<polyline clip-path="url(#clip870)" style="stroke:#000000; stroke-linecap:butt; stroke-linejoin:round; stroke-width:4; stroke-opacity:1; fill:none" points="
  1093.45,1458.85 1102.93,1455.95 
  "/>
<polyline clip-path="url(#clip870)" style="stroke:#000000; stroke-linecap:butt; stroke-linejoin:round; stroke-width:4; stroke-opacity:1; fill:none" points="
  1308.64,1471.51 1318.13,1468.61 
  "/>
<polyline clip-path="url(#clip870)" style="stroke:#000000; stroke-linecap:butt; stroke-linejoin:round; stroke-width:4; stroke-opacity:1; fill:none" points="
  1523.84,1484.17 1533.32,1481.27 
  "/>
<path clip-path="url(#clip870)" d="M169.915 1437.41 L199.591 1437.41 L199.591 1441.35 L169.915 1441.35 L169.915 1437.41 Z" fill="#000000" fill-rule="evenodd" fill-opacity="1" /><path clip-path="url(#clip870)" d="M223.85 1435.61 Q227.207 1436.33 229.082 1438.59 Q230.98 1440.86 230.98 1444.2 Q230.98 1449.31 227.461 1452.11 Q223.943 1454.91 217.461 1454.91 Q215.285 1454.91 212.971 1454.47 Q210.679 1454.06 208.225 1453.2 L208.225 1448.69 Q210.17 1449.82 212.484 1450.4 Q214.799 1450.98 217.322 1450.98 Q221.72 1450.98 224.012 1449.24 Q226.327 1447.51 226.327 1444.2 Q226.327 1441.14 224.174 1439.43 Q222.045 1437.69 218.225 1437.69 L214.197 1437.69 L214.197 1433.85 L218.41 1433.85 Q221.859 1433.85 223.688 1432.48 Q225.517 1431.09 225.517 1428.5 Q225.517 1425.84 223.619 1424.43 Q221.744 1422.99 218.225 1422.99 Q216.304 1422.99 214.105 1423.41 Q211.906 1423.83 209.267 1424.7 L209.267 1420.54 Q211.929 1419.8 214.244 1419.43 Q216.582 1419.06 218.642 1419.06 Q223.966 1419.06 227.068 1421.49 Q230.169 1423.89 230.169 1428.02 Q230.169 1430.89 228.526 1432.88 Q226.882 1434.84 223.85 1435.61 Z" fill="#000000" fill-rule="evenodd" fill-opacity="1" /><path clip-path="url(#clip870)" d="M386.059 1450.07 L415.735 1450.07 L415.735 1454.01 L386.059 1454.01 L386.059 1450.07 Z" fill="#000000" fill-rule="evenodd" fill-opacity="1" /><path clip-path="url(#clip870)" d="M429.855 1462.97 L446.174 1462.97 L446.174 1466.9 L424.23 1466.9 L424.23 1462.97 Q426.892 1460.21 431.475 1455.58 Q436.082 1450.93 437.262 1449.59 Q439.508 1447.06 440.387 1445.33 Q441.29 1443.57 441.29 1441.88 Q441.29 1439.12 439.345 1437.39 Q437.424 1435.65 434.322 1435.65 Q432.123 1435.65 429.67 1436.42 Q427.239 1437.18 424.461 1438.73 L424.461 1434.01 Q427.285 1432.87 429.739 1432.3 Q432.193 1431.72 434.23 1431.72 Q439.6 1431.72 442.795 1434.4 Q445.989 1437.09 445.989 1441.58 Q445.989 1443.71 445.179 1445.63 Q444.392 1447.53 442.285 1450.12 Q441.707 1450.79 438.605 1454.01 Q435.503 1457.2 429.855 1462.97 Z" fill="#000000" fill-rule="evenodd" fill-opacity="1" /><path clip-path="url(#clip870)" d="M600.883 1462.73 L630.559 1462.73 L630.559 1466.67 L600.883 1466.67 L600.883 1462.73 Z" fill="#000000" fill-rule="evenodd" fill-opacity="1" /><path clip-path="url(#clip870)" d="M641.461 1475.63 L649.1 1475.63 L649.1 1449.26 L640.79 1450.93 L640.79 1446.67 L649.054 1445 L653.73 1445 L653.73 1475.63 L661.369 1475.63 L661.369 1479.56 L641.461 1479.56 L641.461 1475.63 Z" fill="#000000" fill-rule="evenodd" fill-opacity="1" /><path clip-path="url(#clip870)" d="M864.619 1460.74 Q861.008 1460.74 859.179 1464.3 Q857.373 1467.85 857.373 1474.98 Q857.373 1482.08 859.179 1485.65 Q861.008 1489.19 864.619 1489.19 Q868.253 1489.19 870.059 1485.65 Q871.887 1482.08 871.887 1474.98 Q871.887 1467.85 870.059 1464.3 Q868.253 1460.74 864.619 1460.74 M864.619 1457.04 Q870.429 1457.04 873.484 1461.64 Q876.563 1466.23 876.563 1474.98 Q876.563 1483.7 873.484 1488.31 Q870.429 1492.89 864.619 1492.89 Q858.809 1492.89 855.73 1488.31 Q852.674 1483.7 852.674 1474.98 Q852.674 1466.23 855.73 1461.64 Q858.809 1457.04 864.619 1457.04 Z" fill="#000000" fill-rule="evenodd" fill-opacity="1" /><path clip-path="url(#clip870)" d="M1071.85 1500.95 L1079.49 1500.95 L1079.49 1474.58 L1071.18 1476.25 L1071.18 1471.99 L1079.44 1470.32 L1084.12 1470.32 L1084.12 1500.95 L1091.76 1500.95 L1091.76 1504.88 L1071.85 1504.88 L1071.85 1500.95 Z" fill="#000000" fill-rule="evenodd" fill-opacity="1" /><path clip-path="url(#clip870)" d="M1290.63 1513.6 L1306.95 1513.6 L1306.95 1517.54 L1285.01 1517.54 L1285.01 1513.6 Q1287.67 1510.85 1292.25 1506.22 Q1296.86 1501.57 1298.04 1500.23 Q1300.29 1497.7 1301.17 1495.97 Q1302.07 1494.21 1302.07 1492.52 Q1302.07 1489.76 1300.12 1488.03 Q1298.2 1486.29 1295.1 1486.29 Q1292.9 1486.29 1290.45 1487.05 Q1288.02 1487.82 1285.24 1489.37 L1285.24 1484.65 Q1288.06 1483.51 1290.52 1482.93 Q1292.97 1482.35 1295.01 1482.35 Q1300.38 1482.35 1303.57 1485.04 Q1306.77 1487.73 1306.77 1492.22 Q1306.77 1494.35 1305.96 1496.27 Q1305.17 1498.16 1303.06 1500.76 Q1302.48 1501.43 1299.38 1504.65 Q1296.28 1507.84 1290.63 1513.6 Z" fill="#000000" fill-rule="evenodd" fill-opacity="1" /><path clip-path="url(#clip870)" d="M1515.02 1511.57 Q1518.37 1512.28 1520.25 1514.55 Q1522.15 1516.82 1522.15 1520.15 Q1522.15 1525.27 1518.63 1528.07 Q1515.11 1530.87 1508.63 1530.87 Q1506.45 1530.87 1504.14 1530.43 Q1501.85 1530.01 1499.39 1529.16 L1499.39 1524.64 Q1501.34 1525.78 1503.65 1526.36 Q1505.97 1526.94 1508.49 1526.94 Q1512.89 1526.94 1515.18 1525.2 Q1517.49 1523.46 1517.49 1520.15 Q1517.49 1517.1 1515.34 1515.38 Q1513.21 1513.65 1509.39 1513.65 L1505.36 1513.65 L1505.36 1509.81 L1509.58 1509.81 Q1513.03 1509.81 1514.85 1508.44 Q1516.68 1507.05 1516.68 1504.46 Q1516.68 1501.8 1514.79 1500.38 Q1512.91 1498.95 1509.39 1498.95 Q1507.47 1498.95 1505.27 1499.37 Q1503.07 1499.78 1500.43 1500.66 L1500.43 1496.5 Q1503.1 1495.76 1505.41 1495.38 Q1507.75 1495.01 1509.81 1495.01 Q1515.13 1495.01 1518.23 1497.44 Q1521.34 1499.85 1521.34 1503.97 Q1521.34 1506.84 1519.69 1508.83 Q1518.05 1510.8 1515.02 1511.57 Z" fill="#000000" fill-rule="evenodd" fill-opacity="1" /><polyline clip-path="url(#clip872)" style="stroke:#000000; stroke-linecap:butt; stroke-linejoin:round; stroke-width:2; stroke-opacity:0.1; fill:none" points="
  1647.06,1460.62 278.421,1380.11 
  "/>
<polyline clip-path="url(#clip872)" style="stroke:#000000; stroke-linecap:butt; stroke-linejoin:round; stroke-width:2; stroke-opacity:0.1; fill:none" points="
  278.421,1380.11 278.421,339.192 
  "/>
<polyline clip-path="url(#clip872)" style="stroke:#000000; stroke-linecap:butt; stroke-linejoin:round; stroke-width:2; stroke-opacity:0.1; fill:none" points="
  1802.36,1413.15 433.724,1332.63 
  "/>
<polyline clip-path="url(#clip872)" style="stroke:#000000; stroke-linecap:butt; stroke-linejoin:round; stroke-width:2; stroke-opacity:0.1; fill:none" points="
  433.724,1332.63 433.724,291.718 
  "/>
<polyline clip-path="url(#clip872)" style="stroke:#000000; stroke-linecap:butt; stroke-linejoin:round; stroke-width:2; stroke-opacity:0.1; fill:none" points="
  1957.66,1365.68 589.027,1285.16 
  "/>
<polyline clip-path="url(#clip872)" style="stroke:#000000; stroke-linecap:butt; stroke-linejoin:round; stroke-width:2; stroke-opacity:0.1; fill:none" points="
  589.027,1285.16 589.027,244.245 
  "/>
<polyline clip-path="url(#clip872)" style="stroke:#000000; stroke-linecap:butt; stroke-linejoin:round; stroke-width:2; stroke-opacity:0.1; fill:none" points="
  2112.97,1318.2 744.331,1237.69 
  "/>
<polyline clip-path="url(#clip872)" style="stroke:#000000; stroke-linecap:butt; stroke-linejoin:round; stroke-width:2; stroke-opacity:0.1; fill:none" points="
  744.331,1237.69 744.331,196.771 
  "/>
<polyline clip-path="url(#clip872)" style="stroke:#000000; stroke-linecap:butt; stroke-linejoin:round; stroke-width:2; stroke-opacity:0.1; fill:none" points="
  2268.27,1270.73 899.634,1190.21 
  "/>
<polyline clip-path="url(#clip872)" style="stroke:#000000; stroke-linecap:butt; stroke-linejoin:round; stroke-width:2; stroke-opacity:0.1; fill:none" points="
  899.634,1190.21 899.634,149.298 
  "/>
<polyline clip-path="url(#clip870)" style="stroke:#000000; stroke-linecap:butt; stroke-linejoin:round; stroke-width:4; stroke-opacity:1; fill:none" points="
  1562.57,1486.45 2352.76,1244.9 
  "/>
<polyline clip-path="url(#clip870)" style="stroke:#000000; stroke-linecap:butt; stroke-linejoin:round; stroke-width:4; stroke-opacity:1; fill:none" points="
  1647.06,1460.62 1630.63,1459.66 
  "/>
<polyline clip-path="url(#clip870)" style="stroke:#000000; stroke-linecap:butt; stroke-linejoin:round; stroke-width:4; stroke-opacity:1; fill:none" points="
  1802.36,1413.15 1785.94,1412.18 
  "/>
<polyline clip-path="url(#clip870)" style="stroke:#000000; stroke-linecap:butt; stroke-linejoin:round; stroke-width:4; stroke-opacity:1; fill:none" points="
  1957.66,1365.68 1941.24,1364.71 
  "/>
<polyline clip-path="url(#clip870)" style="stroke:#000000; stroke-linecap:butt; stroke-linejoin:round; stroke-width:4; stroke-opacity:1; fill:none" points="
  2112.97,1318.2 2096.54,1317.24 
  "/>
<polyline clip-path="url(#clip870)" style="stroke:#000000; stroke-linecap:butt; stroke-linejoin:round; stroke-width:4; stroke-opacity:1; fill:none" points="
  2268.27,1270.73 2251.85,1269.76 
  "/>
<path clip-path="url(#clip870)" d="M1655.48 1488.62 L1685.15 1488.62 L1685.15 1492.55 L1655.48 1492.55 L1655.48 1488.62 Z" fill="#000000" fill-rule="evenodd" fill-opacity="1" /><path clip-path="url(#clip870)" d="M1695.29 1470.88 L1713.65 1470.88 L1713.65 1474.82 L1699.57 1474.82 L1699.57 1483.29 Q1700.59 1482.94 1701.61 1482.78 Q1702.63 1482.6 1703.65 1482.6 Q1709.44 1482.6 1712.81 1485.77 Q1716.19 1488.94 1716.19 1494.36 Q1716.19 1499.93 1712.72 1503.04 Q1709.25 1506.12 1702.93 1506.12 Q1700.75 1506.12 1698.49 1505.75 Q1696.24 1505.37 1693.83 1504.63 L1693.83 1499.93 Q1695.92 1501.07 1698.14 1501.62 Q1700.36 1502.18 1702.84 1502.18 Q1706.84 1502.18 1709.18 1500.07 Q1711.52 1497.97 1711.52 1494.36 Q1711.52 1490.75 1709.18 1488.64 Q1706.84 1486.53 1702.84 1486.53 Q1700.96 1486.53 1699.09 1486.95 Q1697.24 1487.37 1695.29 1488.25 L1695.29 1470.88 Z" fill="#000000" fill-rule="evenodd" fill-opacity="1" /><path clip-path="url(#clip870)" d="M1725.41 1499.56 L1730.29 1499.56 L1730.29 1505.44 L1725.41 1505.44 L1725.41 1499.56 Z" fill="#000000" fill-rule="evenodd" fill-opacity="1" /><path clip-path="url(#clip870)" d="M1750.48 1473.96 Q1746.87 1473.96 1745.04 1477.53 Q1743.23 1481.07 1743.23 1488.2 Q1743.23 1495.31 1745.04 1498.87 Q1746.87 1502.41 1750.48 1502.41 Q1754.11 1502.41 1755.92 1498.87 Q1757.75 1495.31 1757.75 1488.2 Q1757.75 1481.07 1755.92 1477.53 Q1754.11 1473.96 1750.48 1473.96 M1750.48 1470.26 Q1756.29 1470.26 1759.34 1474.87 Q1762.42 1479.45 1762.42 1488.2 Q1762.42 1496.93 1759.34 1501.53 Q1756.29 1506.12 1750.48 1506.12 Q1744.67 1506.12 1741.59 1501.53 Q1738.53 1496.93 1738.53 1488.2 Q1738.53 1479.45 1741.59 1474.87 Q1744.67 1470.26 1750.48 1470.26 Z" fill="#000000" fill-rule="evenodd" fill-opacity="1" /><path clip-path="url(#clip870)" d="M1810.78 1441.14 L1840.46 1441.14 L1840.46 1445.08 L1810.78 1445.08 L1810.78 1441.14 Z" fill="#000000" fill-rule="evenodd" fill-opacity="1" /><path clip-path="url(#clip870)" d="M1854.58 1454.04 L1870.9 1454.04 L1870.9 1457.97 L1848.95 1457.97 L1848.95 1454.04 Q1851.61 1451.28 1856.2 1446.65 Q1860.8 1442 1861.98 1440.66 Q1864.23 1438.13 1865.11 1436.4 Q1866.01 1434.64 1866.01 1432.95 Q1866.01 1430.19 1864.07 1428.46 Q1862.15 1426.72 1859.04 1426.72 Q1856.84 1426.72 1854.39 1427.48 Q1851.96 1428.25 1849.18 1429.8 L1849.18 1425.08 Q1852.01 1423.94 1854.46 1423.36 Q1856.91 1422.79 1858.95 1422.79 Q1864.32 1422.79 1867.52 1425.47 Q1870.71 1428.16 1870.71 1432.65 Q1870.71 1434.78 1869.9 1436.7 Q1869.11 1438.6 1867.01 1441.19 Q1866.43 1441.86 1863.33 1445.08 Q1860.22 1448.27 1854.58 1454.04 Z" fill="#000000" fill-rule="evenodd" fill-opacity="1" /><path clip-path="url(#clip870)" d="M1880.71 1452.09 L1885.59 1452.09 L1885.59 1457.97 L1880.71 1457.97 L1880.71 1452.09 Z" fill="#000000" fill-rule="evenodd" fill-opacity="1" /><path clip-path="url(#clip870)" d="M1895.83 1423.41 L1914.18 1423.41 L1914.18 1427.35 L1900.11 1427.35 L1900.11 1435.82 Q1901.13 1435.47 1902.15 1435.31 Q1903.16 1435.12 1904.18 1435.12 Q1909.97 1435.12 1913.35 1438.29 Q1916.73 1441.47 1916.73 1446.88 Q1916.73 1452.46 1913.26 1455.56 Q1909.78 1458.64 1903.46 1458.64 Q1901.29 1458.64 1899.02 1458.27 Q1896.78 1457.9 1894.37 1457.16 L1894.37 1452.46 Q1896.45 1453.6 1898.67 1454.15 Q1900.9 1454.71 1903.37 1454.71 Q1907.38 1454.71 1909.71 1452.6 Q1912.05 1450.49 1912.05 1446.88 Q1912.05 1443.27 1909.71 1441.17 Q1907.38 1439.06 1903.37 1439.06 Q1901.5 1439.06 1899.62 1439.48 Q1897.77 1439.89 1895.83 1440.77 L1895.83 1423.41 Z" fill="#000000" fill-rule="evenodd" fill-opacity="1" /><path clip-path="url(#clip870)" d="M1978.03 1379.02 Q1974.42 1379.02 1972.59 1382.58 Q1970.78 1386.12 1970.78 1393.25 Q1970.78 1400.36 1972.59 1403.92 Q1974.42 1407.46 1978.03 1407.46 Q1981.66 1407.46 1983.47 1403.92 Q1985.3 1400.36 1985.3 1393.25 Q1985.3 1386.12 1983.47 1382.58 Q1981.66 1379.02 1978.03 1379.02 M1978.03 1375.31 Q1983.84 1375.31 1986.89 1379.92 Q1989.97 1384.5 1989.97 1393.25 Q1989.97 1401.98 1986.89 1406.59 Q1983.84 1411.17 1978.03 1411.17 Q1972.22 1411.17 1969.14 1406.59 Q1966.08 1401.98 1966.08 1393.25 Q1966.08 1384.5 1969.14 1379.92 Q1972.22 1375.31 1978.03 1375.31 Z" fill="#000000" fill-rule="evenodd" fill-opacity="1" /><path clip-path="url(#clip870)" d="M1998.19 1404.62 L2003.07 1404.62 L2003.07 1410.5 L1998.19 1410.5 L1998.19 1404.62 Z" fill="#000000" fill-rule="evenodd" fill-opacity="1" /><path clip-path="url(#clip870)" d="M2023.26 1379.02 Q2019.65 1379.02 2017.82 1382.58 Q2016.01 1386.12 2016.01 1393.25 Q2016.01 1400.36 2017.82 1403.92 Q2019.65 1407.46 2023.26 1407.46 Q2026.89 1407.46 2028.7 1403.92 Q2030.53 1400.36 2030.53 1393.25 Q2030.53 1386.12 2028.7 1382.58 Q2026.89 1379.02 2023.26 1379.02 M2023.26 1375.31 Q2029.07 1375.31 2032.12 1379.92 Q2035.2 1384.5 2035.2 1393.25 Q2035.2 1401.98 2032.12 1406.59 Q2029.07 1411.17 2023.26 1411.17 Q2017.45 1411.17 2014.37 1406.59 Q2011.31 1401.98 2011.31 1393.25 Q2011.31 1384.5 2014.37 1379.92 Q2017.45 1375.31 2023.26 1375.31 Z" fill="#000000" fill-rule="evenodd" fill-opacity="1" /><path clip-path="url(#clip870)" d="M2127.01 1359.09 L2143.33 1359.09 L2143.33 1363.02 L2121.39 1363.02 L2121.39 1359.09 Q2124.05 1356.33 2128.63 1351.7 Q2133.24 1347.05 2134.42 1345.71 Q2136.66 1343.19 2137.54 1341.45 Q2138.45 1339.69 2138.45 1338 Q2138.45 1335.25 2136.5 1333.51 Q2134.58 1331.77 2131.48 1331.77 Q2129.28 1331.77 2126.83 1332.54 Q2124.4 1333.3 2121.62 1334.85 L2121.62 1330.13 Q2124.44 1329 2126.9 1328.42 Q2129.35 1327.84 2131.39 1327.84 Q2136.76 1327.84 2139.95 1330.52 Q2143.15 1333.21 2143.15 1337.7 Q2143.15 1339.83 2142.34 1341.75 Q2141.55 1343.65 2139.44 1346.24 Q2138.86 1346.91 2135.76 1350.13 Q2132.66 1353.32 2127.01 1359.09 Z" fill="#000000" fill-rule="evenodd" fill-opacity="1" /><path clip-path="url(#clip870)" d="M2153.15 1357.14 L2158.03 1357.14 L2158.03 1363.02 L2153.15 1363.02 L2153.15 1357.14 Z" fill="#000000" fill-rule="evenodd" fill-opacity="1" /><path clip-path="url(#clip870)" d="M2168.26 1328.46 L2186.62 1328.46 L2186.62 1332.4 L2172.54 1332.4 L2172.54 1340.87 Q2173.56 1340.52 2174.58 1340.36 Q2175.6 1340.18 2176.62 1340.18 Q2182.4 1340.18 2185.78 1343.35 Q2189.16 1346.52 2189.16 1351.94 Q2189.16 1357.51 2185.69 1360.62 Q2182.22 1363.69 2175.9 1363.69 Q2173.72 1363.69 2171.46 1363.32 Q2169.21 1362.95 2166.8 1362.21 L2166.8 1357.51 Q2168.89 1358.65 2171.11 1359.2 Q2173.33 1359.76 2175.81 1359.76 Q2179.81 1359.76 2182.15 1357.65 Q2184.49 1355.55 2184.49 1351.94 Q2184.49 1348.32 2182.15 1346.22 Q2179.81 1344.11 2175.81 1344.11 Q2173.93 1344.11 2172.06 1344.53 Q2170.21 1344.95 2168.26 1345.82 L2168.26 1328.46 Z" fill="#000000" fill-rule="evenodd" fill-opacity="1" /><path clip-path="url(#clip870)" d="M2278.15 1280.99 L2296.5 1280.99 L2296.5 1284.93 L2282.43 1284.93 L2282.43 1293.4 Q2283.45 1293.05 2284.47 1292.89 Q2285.49 1292.7 2286.5 1292.7 Q2292.29 1292.7 2295.67 1295.87 Q2299.05 1299.05 2299.05 1304.46 Q2299.05 1310.04 2295.58 1313.14 Q2292.11 1316.22 2285.79 1316.22 Q2283.61 1316.22 2281.34 1315.85 Q2279.1 1315.48 2276.69 1314.74 L2276.69 1310.04 Q2278.77 1311.18 2281 1311.73 Q2283.22 1312.29 2285.69 1312.29 Q2289.7 1312.29 2292.04 1310.18 Q2294.38 1308.07 2294.38 1304.46 Q2294.38 1300.85 2292.04 1298.74 Q2289.7 1296.64 2285.69 1296.64 Q2283.82 1296.64 2281.94 1297.05 Q2280.09 1297.47 2278.15 1298.35 L2278.15 1280.99 Z" fill="#000000" fill-rule="evenodd" fill-opacity="1" /><path clip-path="url(#clip870)" d="M2308.26 1309.67 L2313.15 1309.67 L2313.15 1315.55 L2308.26 1315.55 L2308.26 1309.67 Z" fill="#000000" fill-rule="evenodd" fill-opacity="1" /><path clip-path="url(#clip870)" d="M2333.33 1284.07 Q2329.72 1284.07 2327.89 1287.63 Q2326.09 1291.18 2326.09 1298.3 Q2326.09 1305.41 2327.89 1308.98 Q2329.72 1312.52 2333.33 1312.52 Q2336.97 1312.52 2338.77 1308.98 Q2340.6 1305.41 2340.6 1298.3 Q2340.6 1291.18 2338.77 1287.63 Q2336.97 1284.07 2333.33 1284.07 M2333.33 1280.37 Q2339.14 1280.37 2342.2 1284.97 Q2345.28 1289.55 2345.28 1298.3 Q2345.28 1307.03 2342.2 1311.64 Q2339.14 1316.22 2333.33 1316.22 Q2327.52 1316.22 2324.44 1311.64 Q2321.39 1307.03 2321.39 1298.3 Q2321.39 1289.55 2324.44 1284.97 Q2327.52 1280.37 2333.33 1280.37 Z" fill="#000000" fill-rule="evenodd" fill-opacity="1" /><polyline clip-path="url(#clip872)" style="stroke:#000000; stroke-linecap:butt; stroke-linejoin:round; stroke-width:2; stroke-opacity:0.1; fill:none" points="
  193.936,1294.64 984.119,1053.09 
  "/>
<polyline clip-path="url(#clip872)" style="stroke:#000000; stroke-linecap:butt; stroke-linejoin:round; stroke-width:2; stroke-opacity:0.1; fill:none" points="
  984.119,1053.09 2352.76,1133.61 
  "/>
<polyline clip-path="url(#clip872)" style="stroke:#000000; stroke-linecap:butt; stroke-linejoin:round; stroke-width:2; stroke-opacity:0.1; fill:none" points="
  193.936,1090.06 984.119,848.512 
  "/>
<polyline clip-path="url(#clip872)" style="stroke:#000000; stroke-linecap:butt; stroke-linejoin:round; stroke-width:2; stroke-opacity:0.1; fill:none" points="
  984.119,848.512 2352.76,929.027 
  "/>
<polyline clip-path="url(#clip872)" style="stroke:#000000; stroke-linecap:butt; stroke-linejoin:round; stroke-width:2; stroke-opacity:0.1; fill:none" points="
  193.936,885.475 984.119,643.93 
  "/>
<polyline clip-path="url(#clip872)" style="stroke:#000000; stroke-linecap:butt; stroke-linejoin:round; stroke-width:2; stroke-opacity:0.1; fill:none" points="
  984.119,643.93 2352.76,724.445 
  "/>
<polyline clip-path="url(#clip872)" style="stroke:#000000; stroke-linecap:butt; stroke-linejoin:round; stroke-width:2; stroke-opacity:0.1; fill:none" points="
  193.936,680.893 984.119,439.347 
  "/>
<polyline clip-path="url(#clip872)" style="stroke:#000000; stroke-linecap:butt; stroke-linejoin:round; stroke-width:2; stroke-opacity:0.1; fill:none" points="
  984.119,439.347 2352.76,519.862 
  "/>
<polyline clip-path="url(#clip872)" style="stroke:#000000; stroke-linecap:butt; stroke-linejoin:round; stroke-width:2; stroke-opacity:0.1; fill:none" points="
  193.936,476.31 984.119,234.765 
  "/>
<polyline clip-path="url(#clip872)" style="stroke:#000000; stroke-linecap:butt; stroke-linejoin:round; stroke-width:2; stroke-opacity:0.1; fill:none" points="
  984.119,234.765 2352.76,315.28 
  "/>
<polyline clip-path="url(#clip870)" style="stroke:#000000; stroke-linecap:butt; stroke-linejoin:round; stroke-width:4; stroke-opacity:1; fill:none" points="
  193.936,1405.93 193.936,365.017 
  "/>
<polyline clip-path="url(#clip870)" style="stroke:#000000; stroke-linecap:butt; stroke-linejoin:round; stroke-width:4; stroke-opacity:1; fill:none" points="
  193.936,1294.64 203.418,1291.74 
  "/>
<polyline clip-path="url(#clip870)" style="stroke:#000000; stroke-linecap:butt; stroke-linejoin:round; stroke-width:4; stroke-opacity:1; fill:none" points="
  193.936,1090.06 203.418,1087.16 
  "/>
<polyline clip-path="url(#clip870)" style="stroke:#000000; stroke-linecap:butt; stroke-linejoin:round; stroke-width:4; stroke-opacity:1; fill:none" points="
  193.936,885.475 203.418,882.577 
  "/>
<polyline clip-path="url(#clip870)" style="stroke:#000000; stroke-linecap:butt; stroke-linejoin:round; stroke-width:4; stroke-opacity:1; fill:none" points="
  193.936,680.893 203.418,677.994 
  "/>
<polyline clip-path="url(#clip870)" style="stroke:#000000; stroke-linecap:butt; stroke-linejoin:round; stroke-width:4; stroke-opacity:1; fill:none" points="
  193.936,476.31 203.418,473.412 
  "/>
<path clip-path="url(#clip870)" d="M58.1921 1295.09 L87.8679 1295.09 L87.8679 1299.03 L58.1921 1299.03 L58.1921 1295.09 Z" fill="#000000" fill-rule="evenodd" fill-opacity="1" /><path clip-path="url(#clip870)" d="M98.0067 1277.36 L116.363 1277.36 L116.363 1281.3 L102.289 1281.3 L102.289 1289.77 Q103.308 1289.42 104.326 1289.26 Q105.345 1289.07 106.363 1289.07 Q112.15 1289.07 115.53 1292.24 Q118.909 1295.42 118.909 1300.83 Q118.909 1306.41 115.437 1309.51 Q111.965 1312.59 105.646 1312.59 Q103.47 1312.59 101.201 1312.22 Q98.9558 1311.85 96.5484 1311.11 L96.5484 1306.41 Q98.6317 1307.54 100.854 1308.1 Q103.076 1308.66 105.553 1308.66 Q109.558 1308.66 111.896 1306.55 Q114.233 1304.44 114.233 1300.83 Q114.233 1297.22 111.896 1295.11 Q109.558 1293.01 105.553 1293.01 Q103.678 1293.01 101.803 1293.42 Q99.9512 1293.84 98.0067 1294.72 L98.0067 1277.36 Z" fill="#000000" fill-rule="evenodd" fill-opacity="1" /><path clip-path="url(#clip870)" d="M128.122 1306.04 L133.007 1306.04 L133.007 1311.92 L128.122 1311.92 L128.122 1306.04 Z" fill="#000000" fill-rule="evenodd" fill-opacity="1" /><path clip-path="url(#clip870)" d="M153.192 1280.44 Q149.581 1280.44 147.752 1284 Q145.946 1287.55 145.946 1294.67 Q145.946 1301.78 147.752 1305.35 Q149.581 1308.89 153.192 1308.89 Q156.826 1308.89 158.631 1305.35 Q160.46 1301.78 160.46 1294.67 Q160.46 1287.55 158.631 1284 Q156.826 1280.44 153.192 1280.44 M153.192 1276.73 Q159.002 1276.73 162.057 1281.34 Q165.136 1285.92 165.136 1294.67 Q165.136 1303.4 162.057 1308.01 Q159.002 1312.59 153.192 1312.59 Q147.381 1312.59 144.303 1308.01 Q141.247 1303.4 141.247 1294.67 Q141.247 1285.92 144.303 1281.34 Q147.381 1276.73 153.192 1276.73 Z" fill="#000000" fill-rule="evenodd" fill-opacity="1" /><path clip-path="url(#clip870)" d="M59.1875 1090.51 L88.8633 1090.51 L88.8633 1094.44 L59.1875 1094.44 L59.1875 1090.51 Z" fill="#000000" fill-rule="evenodd" fill-opacity="1" /><path clip-path="url(#clip870)" d="M102.984 1103.4 L119.303 1103.4 L119.303 1107.34 L97.3586 1107.34 L97.3586 1103.4 Q100.021 1100.65 104.604 1096.02 Q109.21 1091.37 110.391 1090.02 Q112.636 1087.5 113.516 1085.76 Q114.419 1084 114.419 1082.31 Q114.419 1079.56 112.474 1077.82 Q110.553 1076.09 107.451 1076.09 Q105.252 1076.09 102.798 1076.85 Q100.368 1077.62 97.5901 1079.17 L97.5901 1074.44 Q100.414 1073.31 102.868 1072.73 Q105.322 1072.15 107.359 1072.15 Q112.729 1072.15 115.923 1074.84 Q119.118 1077.52 119.118 1082.01 Q119.118 1084.14 118.308 1086.06 Q117.521 1087.96 115.414 1090.56 Q114.835 1091.23 111.734 1094.44 Q108.632 1097.64 102.984 1103.4 Z" fill="#000000" fill-rule="evenodd" fill-opacity="1" /><path clip-path="url(#clip870)" d="M129.118 1101.46 L134.002 1101.46 L134.002 1107.34 L129.118 1107.34 L129.118 1101.46 Z" fill="#000000" fill-rule="evenodd" fill-opacity="1" /><path clip-path="url(#clip870)" d="M144.233 1072.78 L162.59 1072.78 L162.59 1076.71 L148.516 1076.71 L148.516 1085.18 Q149.534 1084.84 150.553 1084.68 Q151.571 1084.49 152.59 1084.49 Q158.377 1084.49 161.756 1087.66 Q165.136 1090.83 165.136 1096.25 Q165.136 1101.83 161.664 1104.93 Q158.192 1108.01 151.872 1108.01 Q149.696 1108.01 147.428 1107.64 Q145.182 1107.27 142.775 1106.53 L142.775 1101.83 Q144.858 1102.96 147.081 1103.52 Q149.303 1104.07 151.78 1104.07 Q155.784 1104.07 158.122 1101.97 Q160.46 1099.86 160.46 1096.25 Q160.46 1092.64 158.122 1090.53 Q155.784 1088.43 151.78 1088.43 Q149.905 1088.43 148.03 1088.84 Q146.178 1089.26 144.233 1090.14 L144.233 1072.78 Z" fill="#000000" fill-rule="evenodd" fill-opacity="1" /><path clip-path="url(#clip870)" d="M107.96 871.274 Q104.349 871.274 102.521 874.839 Q100.715 878.38 100.715 885.51 Q100.715 892.616 102.521 896.181 Q104.349 899.723 107.96 899.723 Q111.595 899.723 113.4 896.181 Q115.229 892.616 115.229 885.51 Q115.229 878.38 113.4 874.839 Q111.595 871.274 107.96 871.274 M107.96 867.57 Q113.771 867.57 116.826 872.177 Q119.905 876.76 119.905 885.51 Q119.905 894.237 116.826 898.843 Q113.771 903.426 107.96 903.426 Q102.15 903.426 99.0715 898.843 Q96.016 894.237 96.016 885.51 Q96.016 876.76 99.0715 872.177 Q102.15 867.57 107.96 867.57 Z" fill="#000000" fill-rule="evenodd" fill-opacity="1" /><path clip-path="url(#clip870)" d="M128.122 896.875 L133.007 896.875 L133.007 902.755 L128.122 902.755 L128.122 896.875 Z" fill="#000000" fill-rule="evenodd" fill-opacity="1" /><path clip-path="url(#clip870)" d="M153.192 871.274 Q149.581 871.274 147.752 874.839 Q145.946 878.38 145.946 885.51 Q145.946 892.616 147.752 896.181 Q149.581 899.723 153.192 899.723 Q156.826 899.723 158.631 896.181 Q160.46 892.616 160.46 885.51 Q160.46 878.38 158.631 874.839 Q156.826 871.274 153.192 871.274 M153.192 867.57 Q159.002 867.57 162.057 872.177 Q165.136 876.76 165.136 885.51 Q165.136 894.237 162.057 898.843 Q159.002 903.426 153.192 903.426 Q147.381 903.426 144.303 898.843 Q141.247 894.237 141.247 885.51 Q141.247 876.76 144.303 872.177 Q147.381 867.57 153.192 867.57 Z" fill="#000000" fill-rule="evenodd" fill-opacity="1" /><path clip-path="url(#clip870)" d="M102.984 694.237 L119.303 694.237 L119.303 698.173 L97.3586 698.173 L97.3586 694.237 Q100.021 691.483 104.604 686.853 Q109.21 682.201 110.391 680.858 Q112.636 678.335 113.516 676.599 Q114.419 674.839 114.419 673.15 Q114.419 670.395 112.474 668.659 Q110.553 666.923 107.451 666.923 Q105.252 666.923 102.798 667.687 Q100.368 668.451 97.5901 670.002 L97.5901 665.279 Q100.414 664.145 102.868 663.566 Q105.322 662.988 107.359 662.988 Q112.729 662.988 115.923 665.673 Q119.118 668.358 119.118 672.849 Q119.118 674.978 118.308 676.9 Q117.521 678.798 115.414 681.39 Q114.835 682.062 111.734 685.279 Q108.632 688.474 102.984 694.237 Z" fill="#000000" fill-rule="evenodd" fill-opacity="1" /><path clip-path="url(#clip870)" d="M129.118 692.293 L134.002 692.293 L134.002 698.173 L129.118 698.173 L129.118 692.293 Z" fill="#000000" fill-rule="evenodd" fill-opacity="1" /><path clip-path="url(#clip870)" d="M144.233 663.613 L162.59 663.613 L162.59 667.548 L148.516 667.548 L148.516 676.02 Q149.534 675.673 150.553 675.511 Q151.571 675.326 152.59 675.326 Q158.377 675.326 161.756 678.497 Q165.136 681.668 165.136 687.085 Q165.136 692.663 161.664 695.765 Q158.192 698.844 151.872 698.844 Q149.696 698.844 147.428 698.474 Q145.182 698.103 142.775 697.362 L142.775 692.663 Q144.858 693.798 147.081 694.353 Q149.303 694.909 151.78 694.909 Q155.784 694.909 158.122 692.802 Q160.46 690.696 160.46 687.085 Q160.46 683.474 158.122 681.367 Q155.784 679.261 151.78 679.261 Q149.905 679.261 148.03 679.677 Q146.178 680.094 144.233 680.974 L144.233 663.613 Z" fill="#000000" fill-rule="evenodd" fill-opacity="1" /><path clip-path="url(#clip870)" d="M98.0067 459.03 L116.363 459.03 L116.363 462.965 L102.289 462.965 L102.289 471.438 Q103.308 471.09 104.326 470.928 Q105.345 470.743 106.363 470.743 Q112.15 470.743 115.53 473.914 Q118.909 477.086 118.909 482.502 Q118.909 488.081 115.437 491.183 Q111.965 494.262 105.646 494.262 Q103.47 494.262 101.201 493.891 Q98.9558 493.521 96.5484 492.78 L96.5484 488.081 Q98.6317 489.215 100.854 489.771 Q103.076 490.326 105.553 490.326 Q109.558 490.326 111.896 488.22 Q114.233 486.113 114.233 482.502 Q114.233 478.891 111.896 476.785 Q109.558 474.678 105.553 474.678 Q103.678 474.678 101.803 475.095 Q99.9512 475.512 98.0067 476.391 L98.0067 459.03 Z" fill="#000000" fill-rule="evenodd" fill-opacity="1" /><path clip-path="url(#clip870)" d="M128.122 487.711 L133.007 487.711 L133.007 493.59 L128.122 493.59 L128.122 487.711 Z" fill="#000000" fill-rule="evenodd" fill-opacity="1" /><path clip-path="url(#clip870)" d="M153.192 462.109 Q149.581 462.109 147.752 465.674 Q145.946 469.215 145.946 476.345 Q145.946 483.451 147.752 487.016 Q149.581 490.558 153.192 490.558 Q156.826 490.558 158.631 487.016 Q160.46 483.451 160.46 476.345 Q160.46 469.215 158.631 465.674 Q156.826 462.109 153.192 462.109 M153.192 458.405 Q159.002 458.405 162.057 463.012 Q165.136 467.595 165.136 476.345 Q165.136 485.072 162.057 489.678 Q159.002 494.262 153.192 494.262 Q147.381 494.262 144.303 489.678 Q141.247 485.072 141.247 476.345 Q141.247 467.595 144.303 463.012 Q147.381 458.405 153.192 458.405 Z" fill="#000000" fill-rule="evenodd" fill-opacity="1" /><path clip-path="url(#clip870)" d="M681.246 20.1573 L670.146 50.2555 L692.386 50.2555 L681.246 20.1573 M676.628 12.096 L685.904 12.096 L708.954 72.576 L700.447 72.576 L694.938 57.061 L667.675 57.061 L662.166 72.576 L653.537 72.576 L676.628 12.096 Z" fill="#000000" fill-rule="evenodd" fill-opacity="1" /><path clip-path="url(#clip870)" d="M743.832 9.54393 L751.286 9.54393 L751.286 72.576 L743.832 72.576 L743.832 9.54393 Z" fill="#000000" fill-rule="evenodd" fill-opacity="1" /><path clip-path="url(#clip870)" d="M766.882 27.2059 L774.335 27.2059 L774.335 72.576 L766.882 72.576 L766.882 27.2059 M766.882 9.54393 L774.335 9.54393 L774.335 18.9825 L766.882 18.9825 L766.882 9.54393 Z" fill="#000000" fill-rule="evenodd" fill-opacity="1" /><path clip-path="url(#clip870)" d="M827.645 45.1919 L827.645 72.576 L820.192 72.576 L820.192 45.4349 Q820.192 38.994 817.68 35.7938 Q815.168 32.5936 810.145 32.5936 Q804.109 32.5936 800.626 36.4419 Q797.142 40.2903 797.142 46.9338 L797.142 72.576 L789.648 72.576 L789.648 27.2059 L797.142 27.2059 L797.142 34.2544 Q799.816 30.163 803.421 28.1376 Q807.067 26.1121 811.806 26.1121 Q819.624 26.1121 823.635 30.9732 Q827.645 35.7938 827.645 45.1919 Z" fill="#000000" fill-rule="evenodd" fill-opacity="1" /><path clip-path="url(#clip870)" d="M881.32 48.0275 L881.32 51.6733 L847.049 51.6733 Q847.535 59.3701 851.667 63.421 Q855.84 67.4314 863.253 67.4314 Q867.547 67.4314 871.557 66.3781 Q875.608 65.3249 879.578 63.2184 L879.578 70.267 Q875.567 71.9684 871.354 72.8596 Q867.142 73.7508 862.807 73.7508 Q851.951 73.7508 845.591 67.4314 Q839.271 61.1119 839.271 50.3365 Q839.271 39.1965 845.267 32.6746 Q851.302 26.1121 861.511 26.1121 Q870.666 26.1121 875.973 32.0264 Q881.32 37.9003 881.32 48.0275 M873.866 45.84 Q873.785 39.7232 870.423 36.0774 Q867.101 32.4315 861.592 32.4315 Q855.353 32.4315 851.586 35.9558 Q847.859 39.4801 847.292 45.8805 L873.866 45.84 Z" fill="#000000" fill-rule="evenodd" fill-opacity="1" /><path clip-path="url(#clip870)" d="M927.135 65.7705 L927.135 89.8329 L919.641 89.8329 L919.641 27.2059 L927.135 27.2059 L927.135 34.0924 Q929.485 30.0415 933.05 28.0971 Q936.655 26.1121 941.638 26.1121 Q949.902 26.1121 955.046 32.6746 Q960.231 39.2371 960.231 49.9314 Q960.231 60.6258 955.046 67.1883 Q949.902 73.7508 941.638 73.7508 Q936.655 73.7508 933.05 71.8063 Q929.485 69.8214 927.135 65.7705 M952.494 49.9314 Q952.494 41.7081 949.091 37.0496 Q945.729 32.3505 939.815 32.3505 Q933.9 32.3505 930.498 37.0496 Q927.135 41.7081 927.135 49.9314 Q927.135 58.1548 930.498 62.8538 Q933.9 67.5124 939.815 67.5124 Q945.729 67.5124 949.091 62.8538 Q952.494 58.1548 952.494 49.9314 Z" fill="#000000" fill-rule="evenodd" fill-opacity="1" /><path clip-path="url(#clip870)" d="M993.206 49.7694 Q984.172 49.7694 980.688 51.8354 Q977.205 53.9013 977.205 58.8839 Q977.205 62.8538 979.797 65.2034 Q982.43 67.5124 986.927 67.5124 Q993.125 67.5124 996.851 63.1374 Q1000.62 58.7219 1000.62 51.4303 L1000.62 49.7694 L993.206 49.7694 M1008.07 46.6907 L1008.07 72.576 L1000.62 72.576 L1000.62 65.6895 Q998.067 69.8214 994.259 71.8063 Q990.451 73.7508 984.942 73.7508 Q977.974 73.7508 973.842 69.8619 Q969.751 65.9325 969.751 59.3701 Q969.751 51.7138 974.855 47.825 Q980 43.9361 990.167 43.9361 L1000.62 43.9361 L1000.62 43.2069 Q1000.62 38.0623 997.216 35.2672 Q993.854 32.4315 987.737 32.4315 Q983.848 32.4315 980.162 33.3632 Q976.475 34.295 973.073 36.1584 L973.073 29.2718 Q977.164 27.692 981.012 26.9223 Q984.861 26.1121 988.507 26.1121 Q998.35 26.1121 1003.21 31.2163 Q1008.07 36.3204 1008.07 46.6907 Z" fill="#000000" fill-rule="evenodd" fill-opacity="1" /><path clip-path="url(#clip870)" d="M1052.35 28.5427 L1052.35 35.5912 Q1049.19 33.9709 1045.79 33.1607 Q1042.38 32.3505 1038.74 32.3505 Q1033.19 32.3505 1030.39 34.0519 Q1027.64 35.7533 1027.64 39.156 Q1027.64 41.7486 1029.62 43.2475 Q1031.61 44.7058 1037.6 46.0426 L1040.16 46.6097 Q1048.1 48.3111 1051.42 51.4303 Q1054.78 54.509 1054.78 60.0587 Q1054.78 66.3781 1049.76 70.0644 Q1044.77 73.7508 1036.02 73.7508 Q1032.38 73.7508 1028.41 73.0216 Q1024.48 72.3329 1020.1 70.9151 L1020.1 63.2184 Q1024.24 65.3654 1028.25 66.4591 Q1032.26 67.5124 1036.19 67.5124 Q1041.45 67.5124 1044.29 65.73 Q1047.12 63.9071 1047.12 60.6258 Q1047.12 57.5877 1045.06 55.9673 Q1043.03 54.3469 1036.1 52.8481 L1033.51 52.2405 Q1026.59 50.7821 1023.51 47.7845 Q1020.43 44.7463 1020.43 39.4801 Q1020.43 33.0797 1024.96 29.5959 Q1029.5 26.1121 1037.85 26.1121 Q1041.98 26.1121 1045.62 26.7198 Q1049.27 27.3274 1052.35 28.5427 Z" fill="#000000" fill-rule="evenodd" fill-opacity="1" /><path clip-path="url(#clip870)" d="M1095.57 28.5427 L1095.57 35.5912 Q1092.41 33.9709 1089.01 33.1607 Q1085.61 32.3505 1081.96 32.3505 Q1076.41 32.3505 1073.62 34.0519 Q1070.86 35.7533 1070.86 39.156 Q1070.86 41.7486 1072.85 43.2475 Q1074.83 44.7058 1080.83 46.0426 L1083.38 46.6097 Q1091.32 48.3111 1094.64 51.4303 Q1098 54.509 1098 60.0587 Q1098 66.3781 1092.98 70.0644 Q1088 73.7508 1079.25 73.7508 Q1075.6 73.7508 1071.63 73.0216 Q1067.7 72.3329 1063.33 70.9151 L1063.33 63.2184 Q1067.46 65.3654 1071.47 66.4591 Q1075.48 67.5124 1079.41 67.5124 Q1084.68 67.5124 1087.51 65.73 Q1090.35 63.9071 1090.35 60.6258 Q1090.35 57.5877 1088.28 55.9673 Q1086.25 54.3469 1079.33 52.8481 L1076.74 52.2405 Q1069.81 50.7821 1066.73 47.7845 Q1063.65 44.7463 1063.65 39.4801 Q1063.65 33.0797 1068.19 29.5959 Q1072.72 26.1121 1081.07 26.1121 Q1085.2 26.1121 1088.85 26.7198 Q1092.49 27.3274 1095.57 28.5427 Z" fill="#000000" fill-rule="evenodd" fill-opacity="1" /><path clip-path="url(#clip870)" d="M1109.87 27.2059 L1117.33 27.2059 L1117.33 72.576 L1109.87 72.576 L1109.87 27.2059 M1109.87 9.54393 L1117.33 9.54393 L1117.33 18.9825 L1109.87 18.9825 L1109.87 9.54393 Z" fill="#000000" fill-rule="evenodd" fill-opacity="1" /><path clip-path="url(#clip870)" d="M1170.64 45.1919 L1170.64 72.576 L1163.18 72.576 L1163.18 45.4349 Q1163.18 38.994 1160.67 35.7938 Q1158.16 32.5936 1153.14 32.5936 Q1147.1 32.5936 1143.62 36.4419 Q1140.13 40.2903 1140.13 46.9338 L1140.13 72.576 L1132.64 72.576 L1132.64 27.2059 L1140.13 27.2059 L1140.13 34.2544 Q1142.81 30.163 1146.41 28.1376 Q1150.06 26.1121 1154.8 26.1121 Q1162.61 26.1121 1166.62 30.9732 Q1170.64 35.7938 1170.64 45.1919 Z" fill="#000000" fill-rule="evenodd" fill-opacity="1" /><path clip-path="url(#clip870)" d="M1215.36 49.3643 Q1215.36 41.2625 1212 36.8065 Q1208.67 32.3505 1202.64 32.3505 Q1196.64 32.3505 1193.28 36.8065 Q1189.96 41.2625 1189.96 49.3643 Q1189.96 57.4256 1193.28 61.8816 Q1196.64 66.3376 1202.64 66.3376 Q1208.67 66.3376 1212 61.8816 Q1215.36 57.4256 1215.36 49.3643 M1222.81 66.9452 Q1222.81 78.5308 1217.67 84.1616 Q1212.52 89.8329 1201.91 89.8329 Q1197.98 89.8329 1194.5 89.2252 Q1191.01 88.6581 1187.73 87.4428 L1187.73 80.1917 Q1191.01 81.9741 1194.21 82.8248 Q1197.41 83.6755 1200.73 83.6755 Q1208.07 83.6755 1211.71 79.8271 Q1215.36 76.0193 1215.36 68.282 L1215.36 64.5957 Q1213.05 68.6061 1209.44 70.5911 Q1205.84 72.576 1200.81 72.576 Q1192.47 72.576 1187.37 66.2161 Q1182.26 59.8562 1182.26 49.3643 Q1182.26 38.832 1187.37 32.472 Q1192.47 26.1121 1200.81 26.1121 Q1205.84 26.1121 1209.44 28.0971 Q1213.05 30.082 1215.36 34.0924 L1215.36 27.2059 L1222.81 27.2059 L1222.81 66.9452 Z" fill="#000000" fill-rule="evenodd" fill-opacity="1" /><path clip-path="url(#clip870)" d="M1283.09 17.4837 Q1276.77 17.4837 1273.57 23.7221 Q1270.41 29.92 1270.41 42.3968 Q1270.41 54.833 1273.57 61.0714 Q1276.77 67.2693 1283.09 67.2693 Q1289.45 67.2693 1292.61 61.0714 Q1295.81 54.833 1295.81 42.3968 Q1295.81 29.92 1292.61 23.7221 Q1289.45 17.4837 1283.09 17.4837 M1283.09 11.0023 Q1293.26 11.0023 1298.6 19.0636 Q1303.99 27.0843 1303.99 42.3968 Q1303.99 57.6687 1298.6 65.73 Q1293.26 73.7508 1283.09 73.7508 Q1272.92 73.7508 1267.53 65.73 Q1262.19 57.6687 1262.19 42.3968 Q1262.19 27.0843 1267.53 19.0636 Q1272.92 11.0023 1283.09 11.0023 Z" fill="#000000" fill-rule="evenodd" fill-opacity="1" /><path clip-path="url(#clip870)" d="M1343.69 27.2059 L1351.14 27.2059 L1351.14 72.576 L1343.69 72.576 L1343.69 27.2059 M1343.69 9.54393 L1351.14 9.54393 L1351.14 18.9825 L1343.69 18.9825 L1343.69 9.54393 Z" fill="#000000" fill-rule="evenodd" fill-opacity="1" /><path clip-path="url(#clip870)" d="M1395.66 28.5427 L1395.66 35.5912 Q1392.5 33.9709 1389.1 33.1607 Q1385.7 32.3505 1382.05 32.3505 Q1376.5 32.3505 1373.71 34.0519 Q1370.95 35.7533 1370.95 39.156 Q1370.95 41.7486 1372.94 43.2475 Q1374.92 44.7058 1380.92 46.0426 L1383.47 46.6097 Q1391.41 48.3111 1394.73 51.4303 Q1398.09 54.509 1398.09 60.0587 Q1398.09 66.3781 1393.07 70.0644 Q1388.09 73.7508 1379.34 73.7508 Q1375.69 73.7508 1371.72 73.0216 Q1367.79 72.3329 1363.42 70.9151 L1363.42 63.2184 Q1367.55 65.3654 1371.56 66.4591 Q1375.57 67.5124 1379.5 67.5124 Q1384.77 67.5124 1387.6 65.73 Q1390.44 63.9071 1390.44 60.6258 Q1390.44 57.5877 1388.37 55.9673 Q1386.35 54.3469 1379.42 52.8481 L1376.83 52.2405 Q1369.9 50.7821 1366.82 47.7845 Q1363.74 44.7463 1363.74 39.4801 Q1363.74 33.0797 1368.28 29.5959 Q1372.82 26.1121 1381.16 26.1121 Q1385.29 26.1121 1388.94 26.7198 Q1392.58 27.3274 1395.66 28.5427 Z" fill="#000000" fill-rule="evenodd" fill-opacity="1" /><path clip-path="url(#clip870)" d="M1456.95 49.7694 Q1447.92 49.7694 1444.44 51.8354 Q1440.95 53.9013 1440.95 58.8839 Q1440.95 62.8538 1443.54 65.2034 Q1446.18 67.5124 1450.67 67.5124 Q1456.87 67.5124 1460.6 63.1374 Q1464.37 58.7219 1464.37 51.4303 L1464.37 49.7694 L1456.95 49.7694 M1471.82 46.6907 L1471.82 72.576 L1464.37 72.576 L1464.37 65.6895 Q1461.81 69.8214 1458.01 71.8063 Q1454.2 73.7508 1448.69 73.7508 Q1441.72 73.7508 1437.59 69.8619 Q1433.5 65.9325 1433.5 59.3701 Q1433.5 51.7138 1438.6 47.825 Q1443.75 43.9361 1453.92 43.9361 L1464.37 43.9361 L1464.37 43.2069 Q1464.37 38.0623 1460.96 35.2672 Q1457.6 32.4315 1451.48 32.4315 Q1447.6 32.4315 1443.91 33.3632 Q1440.22 34.295 1436.82 36.1584 L1436.82 29.2718 Q1440.91 27.692 1444.76 26.9223 Q1448.61 26.1121 1452.25 26.1121 Q1462.1 26.1121 1466.96 31.2163 Q1471.82 36.3204 1471.82 46.6907 Z" fill="#000000" fill-rule="evenodd" fill-opacity="1" /><path clip-path="url(#clip870)" d="M1542.47 28.5427 L1542.47 35.5912 Q1539.31 33.9709 1535.91 33.1607 Q1532.5 32.3505 1528.86 32.3505 Q1523.31 32.3505 1520.51 34.0519 Q1517.76 35.7533 1517.76 39.156 Q1517.76 41.7486 1519.74 43.2475 Q1521.73 44.7058 1527.72 46.0426 L1530.27 46.6097 Q1538.21 48.3111 1541.54 51.4303 Q1544.9 54.509 1544.9 60.0587 Q1544.9 66.3781 1539.88 70.0644 Q1534.89 73.7508 1526.14 73.7508 Q1522.5 73.7508 1518.53 73.0216 Q1514.6 72.3329 1510.22 70.9151 L1510.22 63.2184 Q1514.35 65.3654 1518.36 66.4591 Q1522.38 67.5124 1526.3 67.5124 Q1531.57 67.5124 1534.41 65.73 Q1537.24 63.9071 1537.24 60.6258 Q1537.24 57.5877 1535.18 55.9673 Q1533.15 54.3469 1526.22 52.8481 L1523.63 52.2405 Q1516.7 50.7821 1513.63 47.7845 Q1510.55 44.7463 1510.55 39.4801 Q1510.55 33.0797 1515.08 29.5959 Q1519.62 26.1121 1527.97 26.1121 Q1532.1 26.1121 1535.74 26.7198 Q1539.39 27.3274 1542.47 28.5427 Z" fill="#000000" fill-rule="evenodd" fill-opacity="1" /><path clip-path="url(#clip870)" d="M1556 54.671 L1556 27.2059 L1563.45 27.2059 L1563.45 54.3874 Q1563.45 60.8284 1565.96 64.0691 Q1568.47 67.2693 1573.5 67.2693 Q1579.53 67.2693 1583.02 63.421 Q1586.54 59.5726 1586.54 52.9291 L1586.54 27.2059 L1594 27.2059 L1594 72.576 L1586.54 72.576 L1586.54 65.6084 Q1583.83 69.7404 1580.22 71.7658 Q1576.66 73.7508 1571.92 73.7508 Q1564.1 73.7508 1560.05 68.8897 Q1556 64.0286 1556 54.671 M1574.75 26.1121 L1574.75 26.1121 Z" fill="#000000" fill-rule="evenodd" fill-opacity="1" /><path clip-path="url(#clip870)" d="M1641.92 49.9314 Q1641.92 41.7081 1638.51 37.0496 Q1635.15 32.3505 1629.24 32.3505 Q1623.32 32.3505 1619.92 37.0496 Q1616.56 41.7081 1616.56 49.9314 Q1616.56 58.1548 1619.92 62.8538 Q1623.32 67.5124 1629.24 67.5124 Q1635.15 67.5124 1638.51 62.8538 Q1641.92 58.1548 1641.92 49.9314 M1616.56 34.0924 Q1618.91 30.0415 1622.47 28.0971 Q1626.08 26.1121 1631.06 26.1121 Q1639.32 26.1121 1644.47 32.6746 Q1649.65 39.2371 1649.65 49.9314 Q1649.65 60.6258 1644.47 67.1883 Q1639.32 73.7508 1631.06 73.7508 Q1626.08 73.7508 1622.47 71.8063 Q1618.91 69.8214 1616.56 65.7705 L1616.56 72.576 L1609.06 72.576 L1609.06 9.54393 L1616.56 9.54393 L1616.56 34.0924 Z" fill="#000000" fill-rule="evenodd" fill-opacity="1" /><path clip-path="url(#clip870)" d="M1690.93 28.5427 L1690.93 35.5912 Q1687.77 33.9709 1684.37 33.1607 Q1680.97 32.3505 1677.32 32.3505 Q1671.77 32.3505 1668.98 34.0519 Q1666.22 35.7533 1666.22 39.156 Q1666.22 41.7486 1668.21 43.2475 Q1670.19 44.7058 1676.19 46.0426 L1678.74 46.6097 Q1686.68 48.3111 1690 51.4303 Q1693.36 54.509 1693.36 60.0587 Q1693.36 66.3781 1688.34 70.0644 Q1683.36 73.7508 1674.61 73.7508 Q1670.96 73.7508 1666.99 73.0216 Q1663.06 72.3329 1658.69 70.9151 L1658.69 63.2184 Q1662.82 65.3654 1666.83 66.4591 Q1670.84 67.5124 1674.77 67.5124 Q1680.04 67.5124 1682.87 65.73 Q1685.71 63.9071 1685.71 60.6258 Q1685.71 57.5877 1683.64 55.9673 Q1681.62 54.3469 1674.69 52.8481 L1672.1 52.2405 Q1665.17 50.7821 1662.09 47.7845 Q1659.01 44.7463 1659.01 39.4801 Q1659.01 33.0797 1663.55 29.5959 Q1668.09 26.1121 1676.43 26.1121 Q1680.56 26.1121 1684.21 26.7198 Q1687.85 27.3274 1690.93 28.5427 Z" fill="#000000" fill-rule="evenodd" fill-opacity="1" /><path clip-path="url(#clip870)" d="M1712.44 65.7705 L1712.44 89.8329 L1704.95 89.8329 L1704.95 27.2059 L1712.44 27.2059 L1712.44 34.0924 Q1714.79 30.0415 1718.36 28.0971 Q1721.96 26.1121 1726.95 26.1121 Q1735.21 26.1121 1740.35 32.6746 Q1745.54 39.2371 1745.54 49.9314 Q1745.54 60.6258 1740.35 67.1883 Q1735.21 73.7508 1726.95 73.7508 Q1721.96 73.7508 1718.36 71.8063 Q1714.79 69.8214 1712.44 65.7705 M1737.8 49.9314 Q1737.8 41.7081 1734.4 37.0496 Q1731.04 32.3505 1725.12 32.3505 Q1719.21 32.3505 1715.81 37.0496 Q1712.44 41.7081 1712.44 49.9314 Q1712.44 58.1548 1715.81 62.8538 Q1719.21 67.5124 1725.12 67.5124 Q1731.04 67.5124 1734.4 62.8538 Q1737.8 58.1548 1737.8 49.9314 Z" fill="#000000" fill-rule="evenodd" fill-opacity="1" /><path clip-path="url(#clip870)" d="M1778.51 49.7694 Q1769.48 49.7694 1766 51.8354 Q1762.51 53.9013 1762.51 58.8839 Q1762.51 62.8538 1765.11 65.2034 Q1767.74 67.5124 1772.24 67.5124 Q1778.43 67.5124 1782.16 63.1374 Q1785.93 58.7219 1785.93 51.4303 L1785.93 49.7694 L1778.51 49.7694 M1793.38 46.6907 L1793.38 72.576 L1785.93 72.576 L1785.93 65.6895 Q1783.38 69.8214 1779.57 71.8063 Q1775.76 73.7508 1770.25 73.7508 Q1763.28 73.7508 1759.15 69.8619 Q1755.06 65.9325 1755.06 59.3701 Q1755.06 51.7138 1760.16 47.825 Q1765.31 43.9361 1775.48 43.9361 L1785.93 43.9361 L1785.93 43.2069 Q1785.93 38.0623 1782.52 35.2672 Q1779.16 32.4315 1773.05 32.4315 Q1769.16 32.4315 1765.47 33.3632 Q1761.78 34.295 1758.38 36.1584 L1758.38 29.2718 Q1762.47 27.692 1766.32 26.9223 Q1770.17 26.1121 1773.81 26.1121 Q1783.66 26.1121 1788.52 31.2163 Q1793.38 36.3204 1793.38 46.6907 Z" fill="#000000" fill-rule="evenodd" fill-opacity="1" /><path clip-path="url(#clip870)" d="M1841.38 28.9478 L1841.38 35.9153 Q1838.22 34.1734 1835.02 33.3227 Q1831.86 32.4315 1828.62 32.4315 Q1821.37 32.4315 1817.36 37.0496 Q1813.35 41.6271 1813.35 49.9314 Q1813.35 58.2358 1817.36 62.8538 Q1821.37 67.4314 1828.62 67.4314 Q1831.86 67.4314 1835.02 66.5807 Q1838.22 65.6895 1841.38 63.9476 L1841.38 70.8341 Q1838.26 72.2924 1834.9 73.0216 Q1831.58 73.7508 1827.81 73.7508 Q1817.56 73.7508 1811.53 67.3098 Q1805.49 60.8689 1805.49 49.9314 Q1805.49 38.832 1811.57 32.472 Q1817.69 26.1121 1828.3 26.1121 Q1831.74 26.1121 1835.02 26.8413 Q1838.31 27.5299 1841.38 28.9478 Z" fill="#000000" fill-rule="evenodd" fill-opacity="1" /><path clip-path="url(#clip870)" d="M1893.15 48.0275 L1893.15 51.6733 L1858.88 51.6733 Q1859.37 59.3701 1863.5 63.421 Q1867.67 67.4314 1875.09 67.4314 Q1879.38 67.4314 1883.39 66.3781 Q1887.44 65.3249 1891.41 63.2184 L1891.41 70.267 Q1887.4 71.9684 1883.19 72.8596 Q1878.98 73.7508 1874.64 73.7508 Q1863.79 73.7508 1857.43 67.4314 Q1851.11 61.1119 1851.11 50.3365 Q1851.11 39.1965 1857.1 32.6746 Q1863.14 26.1121 1873.35 26.1121 Q1882.5 26.1121 1887.81 32.0264 Q1893.15 37.9003 1893.15 48.0275 M1885.7 45.84 Q1885.62 39.7232 1882.26 36.0774 Q1878.94 32.4315 1873.43 32.4315 Q1867.19 32.4315 1863.42 35.9558 Q1859.69 39.4801 1859.13 45.8805 L1885.7 45.84 Z" fill="#000000" fill-rule="evenodd" fill-opacity="1" /><polyline clip-path="url(#clip872)" style="stroke:#009af9; stroke-linecap:butt; stroke-linejoin:round; stroke-width:8; stroke-opacity:1; fill:none" points="
  1000.49,162.047 1009.59,183.477 1018.68,204.908 1027.78,226.338 1036.87,247.769 1045.97,269.199 1055.06,290.63 1064.16,312.06 1073.25,333.49 1082.35,354.921 
  1091.44,376.351 1100.54,397.782 1109.63,419.212 1118.73,440.643 1127.82,462.073 1136.92,483.503 1146.01,504.934 1155.11,526.364 1164.2,547.795 1173.3,569.225 
  1182.39,590.656 1191.49,612.086 1200.58,633.517 1209.68,654.947 1218.77,676.377 1227.87,697.808 1236.97,719.238 1246.06,740.669 1255.16,762.099 1264.25,783.53 
  1273.35,804.96 1282.44,826.39 1291.54,847.821 1300.63,869.251 1309.73,890.682 1318.82,912.112 1327.92,933.543 1337.01,954.973 1346.11,976.403 1355.2,997.834 
  1364.3,1019.26 1373.39,1040.69 1382.49,1062.13 1391.58,1083.56 1400.68,1104.99 1409.77,1126.42 1418.87,1147.85 1427.96,1169.28 1437.06,1190.71 1446.15,1212.14 
  1455.25,1233.57 1464.34,1255 1473.44,1276.43 1482.54,1297.86 1491.63,1319.29 1500.73,1340.72 1509.82,1362.15 1518.92,1383.58 1528.01,1405.01 1537.11,1426.44 
  1546.2,1447.87 
  "/>
<polyline clip-path="url(#clip872)" style="stroke:#e26f46; stroke-linecap:butt; stroke-linejoin:round; stroke-width:20; stroke-opacity:1; fill:none" points="
  1273.35,804.96 1364.3,1019.26 
  "/>
<circle clip-path="url(#clip872)" cx="1273.35" cy="804.96" r="18" fill="#e26f46" fill-rule="evenodd" fill-opacity="1" stroke="#000000" stroke-opacity="1" stroke-width="3.2"/>
<circle clip-path="url(#clip872)" cx="1364.3" cy="1019.26" r="18" fill="#e26f46" fill-rule="evenodd" fill-opacity="1" stroke="#000000" stroke-opacity="1" stroke-width="3.2"/>
</svg>
