<?xml version="1.0" encoding="utf-8"?>
<svg xmlns="http://www.w3.org/2000/svg" xmlns:xlink="http://www.w3.org/1999/xlink" width="600" height="400" viewBox="0 0 2400 1600">
<defs>
  <clipPath id="clip950">
    <rect x="0" y="0" width="2400" height="1600"/>
  </clipPath>
</defs>
<path clip-path="url(#clip950)" d="
M0 1600 L2400 1600 L2400 0 L0 0  Z
  " fill="#ffffff" fill-rule="evenodd" fill-opacity="1"/>
<defs>
  <clipPath id="clip951">
    <rect x="480" y="0" width="1681" height="1600"/>
  </clipPath>
</defs>
<defs>
  <clipPath id="clip952">
    <rect x="149" y="123" width="2205" height="1364"/>
  </clipPath>
</defs>
<path clip-path="url(#clip952)" d="
M149.191 1405.93 L149.191 365.017 L955.752 123.472 L2352.76 203.987 L2352.76 1244.9 L1546.2 1486.45 L149.191 1405.93  Z
  " fill="#ffffff" fill-rule="evenodd" fill-opacity="1"/>
<polyline clip-path="url(#clip952)" style="stroke:#000000; stroke-linecap:butt; stroke-linejoin:round; stroke-width:2; stroke-opacity:0.1; fill:none" points="
  149.191,1405.93 955.752,1164.39 
  "/>
<polyline clip-path="url(#clip952)" style="stroke:#000000; stroke-linecap:butt; stroke-linejoin:round; stroke-width:2; stroke-opacity:0.1; fill:none" points="
  955.752,1164.39 955.752,123.472 
  "/>
<polyline clip-path="url(#clip952)" style="stroke:#000000; stroke-linecap:butt; stroke-linejoin:round; stroke-width:2; stroke-opacity:0.1; fill:none" points="
  382.025,1419.35 1188.59,1177.81 
  "/>
<polyline clip-path="url(#clip952)" style="stroke:#000000; stroke-linecap:butt; stroke-linejoin:round; stroke-width:2; stroke-opacity:0.1; fill:none" points="
  1188.59,1177.81 1188.59,136.891 
  "/>
<polyline clip-path="url(#clip952)" style="stroke:#000000; stroke-linecap:butt; stroke-linejoin:round; stroke-width:2; stroke-opacity:0.1; fill:none" points="
  614.859,1432.77 1421.42,1191.23 
  "/>
<polyline clip-path="url(#clip952)" style="stroke:#000000; stroke-linecap:butt; stroke-linejoin:round; stroke-width:2; stroke-opacity:0.1; fill:none" points="
  1421.42,1191.23 1421.42,150.31 
  "/>
<polyline clip-path="url(#clip952)" style="stroke:#000000; stroke-linecap:butt; stroke-linejoin:round; stroke-width:2; stroke-opacity:0.1; fill:none" points="
  847.693,1446.19 1654.25,1204.65 
  "/>
<polyline clip-path="url(#clip952)" style="stroke:#000000; stroke-linecap:butt; stroke-linejoin:round; stroke-width:2; stroke-opacity:0.1; fill:none" points="
  1654.25,1204.65 1654.25,163.73 
  "/>
<polyline clip-path="url(#clip952)" style="stroke:#000000; stroke-linecap:butt; stroke-linejoin:round; stroke-width:2; stroke-opacity:0.1; fill:none" points="
  1080.53,1459.61 1887.09,1218.06 
  "/>
<polyline clip-path="url(#clip952)" style="stroke:#000000; stroke-linecap:butt; stroke-linejoin:round; stroke-width:2; stroke-opacity:0.1; fill:none" points="
  1887.09,1218.06 1887.09,177.149 
  "/>
<polyline clip-path="url(#clip952)" style="stroke:#000000; stroke-linecap:butt; stroke-linejoin:round; stroke-width:2; stroke-opacity:0.1; fill:none" points="
  1313.36,1473.03 2119.92,1231.48 
  "/>
<polyline clip-path="url(#clip952)" style="stroke:#000000; stroke-linecap:butt; stroke-linejoin:round; stroke-width:2; stroke-opacity:0.1; fill:none" points="
  2119.92,1231.48 2119.92,190.568 
  "/>
<polyline clip-path="url(#clip952)" style="stroke:#000000; stroke-linecap:butt; stroke-linejoin:round; stroke-width:2; stroke-opacity:0.1; fill:none" points="
  1546.2,1486.45 2352.76,1244.9 
  "/>
<polyline clip-path="url(#clip952)" style="stroke:#000000; stroke-linecap:butt; stroke-linejoin:round; stroke-width:2; stroke-opacity:0.1; fill:none" points="
  2352.76,1244.9 2352.76,203.987 
  "/>
<polyline clip-path="url(#clip950)" style="stroke:#000000; stroke-linecap:butt; stroke-linejoin:round; stroke-width:4; stroke-opacity:1; fill:none" points="
  149.191,1405.93 1546.2,1486.45 
  "/>
<polyline clip-path="url(#clip950)" style="stroke:#000000; stroke-linecap:butt; stroke-linejoin:round; stroke-width:4; stroke-opacity:1; fill:none" points="
  149.191,1405.93 158.87,1403.03 
  "/>
<polyline clip-path="url(#clip950)" style="stroke:#000000; stroke-linecap:butt; stroke-linejoin:round; stroke-width:4; stroke-opacity:1; fill:none" points="
  382.025,1419.35 391.704,1416.45 
  "/>
<polyline clip-path="url(#clip950)" style="stroke:#000000; stroke-linecap:butt; stroke-linejoin:round; stroke-width:4; stroke-opacity:1; fill:none" points="
  614.859,1432.77 624.538,1429.87 
  "/>
<polyline clip-path="url(#clip950)" style="stroke:#000000; stroke-linecap:butt; stroke-linejoin:round; stroke-width:4; stroke-opacity:1; fill:none" points="
  847.693,1446.19 857.372,1443.29 
  "/>
<polyline clip-path="url(#clip950)" style="stroke:#000000; stroke-linecap:butt; stroke-linejoin:round; stroke-width:4; stroke-opacity:1; fill:none" points="
  1080.53,1459.61 1090.21,1456.71 
  "/>
<polyline clip-path="url(#clip950)" style="stroke:#000000; stroke-linecap:butt; stroke-linejoin:round; stroke-width:4; stroke-opacity:1; fill:none" points="
  1313.36,1473.03 1323.04,1470.13 
  "/>
<polyline clip-path="url(#clip950)" style="stroke:#000000; stroke-linecap:butt; stroke-linejoin:round; stroke-width:4; stroke-opacity:1; fill:none" points="
  1546.2,1486.45 1555.87,1483.55 
  "/>
<path clip-path="url(#clip950)" d="M86.4693 1435.14 L116.145 1435.14 L116.145 1439.07 L86.4693 1439.07 L86.4693 1435.14 Z" fill="#000000" fill-rule="evenodd" fill-opacity="1" /><path clip-path="url(#clip950)" d="M140.404 1433.33 Q143.761 1434.05 145.636 1436.32 Q147.534 1438.59 147.534 1441.92 Q147.534 1447.03 144.015 1449.84 Q140.497 1452.64 134.015 1452.64 Q131.839 1452.64 129.525 1452.2 Q127.233 1451.78 124.779 1450.92 L124.779 1446.41 Q126.724 1447.54 129.038 1448.12 Q131.353 1448.7 133.876 1448.7 Q138.275 1448.7 140.566 1446.97 Q142.881 1445.23 142.881 1441.92 Q142.881 1438.86 140.728 1437.15 Q138.599 1435.41 134.779 1435.41 L130.751 1435.41 L130.751 1431.57 L134.964 1431.57 Q138.413 1431.57 140.242 1430.21 Q142.071 1428.82 142.071 1426.22 Q142.071 1423.56 140.173 1422.15 Q138.298 1420.72 134.779 1420.72 Q132.858 1420.72 130.659 1421.13 Q128.46 1421.55 125.821 1422.43 L125.821 1418.26 Q128.483 1417.52 130.798 1417.15 Q133.136 1416.78 135.196 1416.78 Q140.52 1416.78 143.622 1419.21 Q146.724 1421.62 146.724 1425.74 Q146.724 1428.61 145.08 1430.6 Q143.437 1432.57 140.404 1433.33 Z" fill="#000000" fill-rule="evenodd" fill-opacity="1" /><path clip-path="url(#clip950)" d="M320.252 1448.56 L349.928 1448.56 L349.928 1452.49 L320.252 1452.49 L320.252 1448.56 Z" fill="#000000" fill-rule="evenodd" fill-opacity="1" /><path clip-path="url(#clip950)" d="M364.048 1461.45 L380.368 1461.45 L380.368 1465.38 L358.423 1465.38 L358.423 1461.45 Q361.085 1458.69 365.669 1454.06 Q370.275 1449.41 371.456 1448.07 Q373.701 1445.55 374.581 1443.81 Q375.484 1442.05 375.484 1440.36 Q375.484 1437.61 373.539 1435.87 Q371.618 1434.13 368.516 1434.13 Q366.317 1434.13 363.863 1434.9 Q361.433 1435.66 358.655 1437.21 L358.655 1432.49 Q361.479 1431.36 363.933 1430.78 Q366.386 1430.2 368.423 1430.2 Q373.794 1430.2 376.988 1432.88 Q380.183 1435.57 380.183 1440.06 Q380.183 1442.19 379.372 1444.11 Q378.585 1446.01 376.479 1448.6 Q375.9 1449.27 372.798 1452.49 Q369.697 1455.69 364.048 1461.45 Z" fill="#000000" fill-rule="evenodd" fill-opacity="1" /><path clip-path="url(#clip950)" d="M552.716 1461.97 L582.392 1461.97 L582.392 1465.91 L552.716 1465.91 L552.716 1461.97 Z" fill="#000000" fill-rule="evenodd" fill-opacity="1" /><path clip-path="url(#clip950)" d="M593.295 1474.87 L600.933 1474.87 L600.933 1448.5 L592.623 1450.17 L592.623 1445.91 L600.887 1444.24 L605.563 1444.24 L605.563 1474.87 L613.202 1474.87 L613.202 1478.8 L593.295 1478.8 L593.295 1474.87 Z" fill="#000000" fill-rule="evenodd" fill-opacity="1" /><path clip-path="url(#clip950)" d="M834.092 1460.74 Q830.48 1460.74 828.652 1464.31 Q826.846 1467.85 826.846 1474.98 Q826.846 1482.08 828.652 1485.65 Q830.48 1489.19 834.092 1489.19 Q837.726 1489.19 839.531 1485.65 Q841.36 1482.08 841.36 1474.98 Q841.36 1467.85 839.531 1464.31 Q837.726 1460.74 834.092 1460.74 M834.092 1457.04 Q839.902 1457.04 842.957 1461.64 Q846.036 1466.23 846.036 1474.98 Q846.036 1483.7 842.957 1488.31 Q839.902 1492.89 834.092 1492.89 Q828.281 1492.89 825.203 1488.31 Q822.147 1483.7 822.147 1474.98 Q822.147 1466.23 825.203 1461.64 Q828.281 1457.04 834.092 1457.04 Z" fill="#000000" fill-rule="evenodd" fill-opacity="1" /><path clip-path="url(#clip950)" d="M1058.96 1501.71 L1066.6 1501.71 L1066.6 1475.34 L1058.29 1477.01 L1058.29 1472.75 L1066.56 1471.08 L1071.23 1471.08 L1071.23 1501.71 L1078.87 1501.71 L1078.87 1505.64 L1058.96 1505.64 L1058.96 1501.71 Z" fill="#000000" fill-rule="evenodd" fill-opacity="1" /><path clip-path="url(#clip950)" d="M1295.38 1515.13 L1311.7 1515.13 L1311.7 1519.06 L1289.76 1519.06 L1289.76 1515.13 Q1292.42 1512.37 1297 1507.74 Q1301.61 1503.09 1302.79 1501.75 Q1305.04 1499.22 1305.92 1497.49 Q1306.82 1495.73 1306.82 1494.04 Q1306.82 1491.28 1304.88 1489.55 Q1302.95 1487.81 1299.85 1487.81 Q1297.65 1487.81 1295.2 1488.58 Q1292.77 1489.34 1289.99 1490.89 L1289.99 1486.17 Q1292.82 1485.03 1295.27 1484.45 Q1297.72 1483.88 1299.76 1483.88 Q1305.13 1483.88 1308.32 1486.56 Q1311.52 1489.25 1311.52 1493.74 Q1311.52 1495.87 1310.71 1497.79 Q1309.92 1499.69 1307.82 1502.28 Q1307.24 1502.95 1304.13 1506.17 Q1301.03 1509.36 1295.38 1515.13 Z" fill="#000000" fill-rule="evenodd" fill-opacity="1" /><path clip-path="url(#clip950)" d="M1537.41 1513.85 Q1540.76 1514.56 1542.64 1516.83 Q1544.54 1519.1 1544.54 1522.43 Q1544.54 1527.55 1541.02 1530.35 Q1537.5 1533.15 1531.02 1533.15 Q1528.84 1533.15 1526.53 1532.71 Q1524.24 1532.29 1521.78 1531.44 L1521.78 1526.92 Q1523.73 1528.06 1526.04 1528.64 Q1528.36 1529.22 1530.88 1529.22 Q1535.28 1529.22 1537.57 1527.48 Q1539.89 1525.74 1539.89 1522.43 Q1539.89 1519.38 1537.73 1517.67 Q1535.6 1515.93 1531.78 1515.93 L1527.76 1515.93 L1527.76 1512.09 L1531.97 1512.09 Q1535.42 1512.09 1537.25 1510.72 Q1539.08 1509.33 1539.08 1506.74 Q1539.08 1504.08 1537.18 1502.67 Q1535.3 1501.23 1531.78 1501.23 Q1529.86 1501.23 1527.66 1501.65 Q1525.46 1502.06 1522.83 1502.94 L1522.83 1498.78 Q1525.49 1498.04 1527.8 1497.67 Q1530.14 1497.3 1532.2 1497.3 Q1537.52 1497.3 1540.63 1499.73 Q1543.73 1502.13 1543.73 1506.25 Q1543.73 1509.12 1542.08 1511.11 Q1540.44 1513.08 1537.41 1513.85 Z" fill="#000000" fill-rule="evenodd" fill-opacity="1" /><polyline clip-path="url(#clip952)" style="stroke:#000000; stroke-linecap:butt; stroke-linejoin:round; stroke-width:2; stroke-opacity:0.1; fill:none" points="
  1546.2,1486.45 149.191,1405.93 
  "/>
<polyline clip-path="url(#clip952)" style="stroke:#000000; stroke-linecap:butt; stroke-linejoin:round; stroke-width:2; stroke-opacity:0.1; fill:none" points="
  149.191,1405.93 149.191,365.017 
  "/>
<polyline clip-path="url(#clip952)" style="stroke:#000000; stroke-linecap:butt; stroke-linejoin:round; stroke-width:2; stroke-opacity:0.1; fill:none" points="
  1680.62,1446.19 283.618,1365.68 
  "/>
<polyline clip-path="url(#clip952)" style="stroke:#000000; stroke-linecap:butt; stroke-linejoin:round; stroke-width:2; stroke-opacity:0.1; fill:none" points="
  283.618,1365.68 283.618,324.76 
  "/>
<polyline clip-path="url(#clip952)" style="stroke:#000000; stroke-linecap:butt; stroke-linejoin:round; stroke-width:2; stroke-opacity:0.1; fill:none" points="
  1815.05,1405.93 418.044,1325.42 
  "/>
<polyline clip-path="url(#clip952)" style="stroke:#000000; stroke-linecap:butt; stroke-linejoin:round; stroke-width:2; stroke-opacity:0.1; fill:none" points="
  418.044,1325.42 418.044,284.502 
  "/>
<polyline clip-path="url(#clip952)" style="stroke:#000000; stroke-linecap:butt; stroke-linejoin:round; stroke-width:2; stroke-opacity:0.1; fill:none" points="
  1949.48,1365.68 552.471,1285.16 
  "/>
<polyline clip-path="url(#clip952)" style="stroke:#000000; stroke-linecap:butt; stroke-linejoin:round; stroke-width:2; stroke-opacity:0.1; fill:none" points="
  552.471,1285.16 552.471,244.245 
  "/>
<polyline clip-path="url(#clip952)" style="stroke:#000000; stroke-linecap:butt; stroke-linejoin:round; stroke-width:2; stroke-opacity:0.1; fill:none" points="
  2083.9,1325.42 686.898,1244.9 
  "/>
<polyline clip-path="url(#clip952)" style="stroke:#000000; stroke-linecap:butt; stroke-linejoin:round; stroke-width:2; stroke-opacity:0.1; fill:none" points="
  686.898,1244.9 686.898,203.987 
  "/>
<polyline clip-path="url(#clip952)" style="stroke:#000000; stroke-linecap:butt; stroke-linejoin:round; stroke-width:2; stroke-opacity:0.1; fill:none" points="
  2218.33,1285.16 821.325,1204.65 
  "/>
<polyline clip-path="url(#clip952)" style="stroke:#000000; stroke-linecap:butt; stroke-linejoin:round; stroke-width:2; stroke-opacity:0.1; fill:none" points="
  821.325,1204.65 821.325,163.73 
  "/>
<polyline clip-path="url(#clip952)" style="stroke:#000000; stroke-linecap:butt; stroke-linejoin:round; stroke-width:2; stroke-opacity:0.1; fill:none" points="
  2352.76,1244.9 955.752,1164.39 
  "/>
<polyline clip-path="url(#clip952)" style="stroke:#000000; stroke-linecap:butt; stroke-linejoin:round; stroke-width:2; stroke-opacity:0.1; fill:none" points="
  955.752,1164.39 955.752,123.472 
  "/>
<polyline clip-path="url(#clip950)" style="stroke:#000000; stroke-linecap:butt; stroke-linejoin:round; stroke-width:4; stroke-opacity:1; fill:none" points="
  1546.2,1486.45 2352.76,1244.9 
  "/>
<polyline clip-path="url(#clip950)" style="stroke:#000000; stroke-linecap:butt; stroke-linejoin:round; stroke-width:4; stroke-opacity:1; fill:none" points="
  1546.2,1486.45 1529.43,1485.48 
  "/>
<polyline clip-path="url(#clip950)" style="stroke:#000000; stroke-linecap:butt; stroke-linejoin:round; stroke-width:4; stroke-opacity:1; fill:none" points="
  1680.62,1446.19 1663.86,1445.22 
  "/>
<polyline clip-path="url(#clip950)" style="stroke:#000000; stroke-linecap:butt; stroke-linejoin:round; stroke-width:4; stroke-opacity:1; fill:none" points="
  1815.05,1405.93 1798.28,1404.97 
  "/>
<polyline clip-path="url(#clip950)" style="stroke:#000000; stroke-linecap:butt; stroke-linejoin:round; stroke-width:4; stroke-opacity:1; fill:none" points="
  1949.48,1365.68 1932.71,1364.71 
  "/>
<polyline clip-path="url(#clip950)" style="stroke:#000000; stroke-linecap:butt; stroke-linejoin:round; stroke-width:4; stroke-opacity:1; fill:none" points="
  2083.9,1325.42 2067.14,1324.45 
  "/>
<polyline clip-path="url(#clip950)" style="stroke:#000000; stroke-linecap:butt; stroke-linejoin:round; stroke-width:4; stroke-opacity:1; fill:none" points="
  2218.33,1285.16 2201.57,1284.19 
  "/>
<polyline clip-path="url(#clip950)" style="stroke:#000000; stroke-linecap:butt; stroke-linejoin:round; stroke-width:4; stroke-opacity:1; fill:none" points="
  2352.76,1244.9 2335.99,1243.94 
  "/>
<path clip-path="url(#clip950)" d="M1554.46 1514.49 L1584.13 1514.49 L1584.13 1518.42 L1554.46 1518.42 L1554.46 1514.49 Z" fill="#000000" fill-rule="evenodd" fill-opacity="1" /><path clip-path="url(#clip950)" d="M1608.39 1512.68 Q1611.75 1513.4 1613.62 1515.67 Q1615.52 1517.94 1615.52 1521.27 Q1615.52 1526.39 1612 1529.19 Q1608.48 1531.99 1602 1531.99 Q1599.83 1531.99 1597.51 1531.55 Q1595.22 1531.13 1592.77 1530.28 L1592.77 1525.76 Q1594.71 1526.9 1597.03 1527.47 Q1599.34 1528.05 1601.86 1528.05 Q1606.26 1528.05 1608.55 1526.32 Q1610.87 1524.58 1610.87 1521.27 Q1610.87 1518.22 1608.72 1516.5 Q1606.59 1514.77 1602.77 1514.77 L1598.74 1514.77 L1598.74 1510.92 L1602.95 1510.92 Q1606.4 1510.92 1608.23 1509.56 Q1610.06 1508.17 1610.06 1505.58 Q1610.06 1502.91 1608.16 1501.5 Q1606.29 1500.07 1602.77 1500.07 Q1600.85 1500.07 1598.65 1500.48 Q1596.45 1500.9 1593.81 1501.78 L1593.81 1497.61 Q1596.47 1496.87 1598.79 1496.5 Q1601.12 1496.13 1603.18 1496.13 Q1608.51 1496.13 1611.61 1498.56 Q1614.71 1500.97 1614.71 1505.09 Q1614.71 1507.96 1613.07 1509.95 Q1611.42 1511.92 1608.39 1512.68 Z" fill="#000000" fill-rule="evenodd" fill-opacity="1" /><path clip-path="url(#clip950)" d="M1688.88 1474.23 L1718.56 1474.23 L1718.56 1478.17 L1688.88 1478.17 L1688.88 1474.23 Z" fill="#000000" fill-rule="evenodd" fill-opacity="1" /><path clip-path="url(#clip950)" d="M1732.68 1487.12 L1749 1487.12 L1749 1491.06 L1727.06 1491.06 L1727.06 1487.12 Q1729.72 1484.37 1734.3 1479.74 Q1738.91 1475.09 1740.09 1473.74 Q1742.33 1471.22 1743.21 1469.49 Q1744.12 1467.73 1744.12 1466.04 Q1744.12 1463.28 1742.17 1461.55 Q1740.25 1459.81 1737.15 1459.81 Q1734.95 1459.81 1732.5 1460.57 Q1730.06 1461.34 1727.29 1462.89 L1727.29 1458.17 Q1730.11 1457.03 1732.56 1456.45 Q1735.02 1455.87 1737.06 1455.87 Q1742.43 1455.87 1745.62 1458.56 Q1748.81 1461.25 1748.81 1465.74 Q1748.81 1467.87 1748 1469.79 Q1747.22 1471.68 1745.11 1474.28 Q1744.53 1474.95 1741.43 1478.17 Q1738.33 1481.36 1732.68 1487.12 Z" fill="#000000" fill-rule="evenodd" fill-opacity="1" /><path clip-path="url(#clip950)" d="M1823.31 1433.97 L1852.99 1433.97 L1852.99 1437.91 L1823.31 1437.91 L1823.31 1433.97 Z" fill="#000000" fill-rule="evenodd" fill-opacity="1" /><path clip-path="url(#clip950)" d="M1863.89 1446.87 L1871.53 1446.87 L1871.53 1420.5 L1863.22 1422.17 L1863.22 1417.91 L1871.48 1416.24 L1876.16 1416.24 L1876.16 1446.87 L1883.8 1446.87 L1883.8 1450.8 L1863.89 1450.8 L1863.89 1446.87 Z" fill="#000000" fill-rule="evenodd" fill-opacity="1" /><path clip-path="url(#clip950)" d="M1969.68 1379.06 Q1966.07 1379.06 1964.24 1382.63 Q1962.44 1386.17 1962.44 1393.3 Q1962.44 1400.41 1964.24 1403.97 Q1966.07 1407.51 1969.68 1407.51 Q1973.32 1407.51 1975.12 1403.97 Q1976.95 1400.41 1976.95 1393.3 Q1976.95 1386.17 1975.12 1382.63 Q1973.32 1379.06 1969.68 1379.06 M1969.68 1375.36 Q1975.49 1375.36 1978.55 1379.97 Q1981.63 1384.55 1981.63 1393.3 Q1981.63 1402.03 1978.55 1406.63 Q1975.49 1411.22 1969.68 1411.22 Q1963.87 1411.22 1960.79 1406.63 Q1957.74 1402.03 1957.74 1393.3 Q1957.74 1384.55 1960.79 1379.97 Q1963.87 1375.36 1969.68 1375.36 Z" fill="#000000" fill-rule="evenodd" fill-opacity="1" /><path clip-path="url(#clip950)" d="M2092.84 1366.35 L2100.47 1366.35 L2100.47 1339.99 L2092.16 1341.65 L2092.16 1337.39 L2100.43 1335.73 L2105.1 1335.73 L2105.1 1366.35 L2112.74 1366.35 L2112.74 1370.29 L2092.84 1370.29 L2092.84 1366.35 Z" fill="#000000" fill-rule="evenodd" fill-opacity="1" /><path clip-path="url(#clip950)" d="M2232.22 1326.09 L2248.54 1326.09 L2248.54 1330.03 L2226.59 1330.03 L2226.59 1326.09 Q2229.25 1323.34 2233.84 1318.71 Q2238.44 1314.06 2239.62 1312.71 Q2241.87 1310.19 2242.75 1308.46 Q2243.65 1306.7 2243.65 1305.01 Q2243.65 1302.25 2241.71 1300.52 Q2239.79 1298.78 2236.68 1298.78 Q2234.48 1298.78 2232.03 1299.54 Q2229.6 1300.31 2226.82 1301.86 L2226.82 1297.14 Q2229.65 1296 2232.1 1295.42 Q2234.55 1294.84 2236.59 1294.84 Q2241.96 1294.84 2245.16 1297.53 Q2248.35 1300.21 2248.35 1304.71 Q2248.35 1306.84 2247.54 1308.76 Q2246.75 1310.65 2244.65 1313.25 Q2244.07 1313.92 2240.97 1317.14 Q2237.86 1320.33 2232.22 1326.09 Z" fill="#000000" fill-rule="evenodd" fill-opacity="1" /><path clip-path="url(#clip950)" d="M2376.64 1271.14 Q2380 1271.86 2381.87 1274.12 Q2383.77 1276.39 2383.77 1279.73 Q2383.77 1284.84 2380.25 1287.64 Q2376.74 1290.44 2370.25 1290.44 Q2368.08 1290.44 2365.76 1290 Q2363.47 1289.59 2361.02 1288.73 L2361.02 1284.22 Q2362.96 1285.35 2365.28 1285.93 Q2367.59 1286.51 2370.12 1286.51 Q2374.51 1286.51 2376.81 1284.77 Q2379.12 1283.04 2379.12 1279.73 Q2379.12 1276.67 2376.97 1274.96 Q2374.84 1273.22 2371.02 1273.22 L2366.99 1273.22 L2366.99 1269.38 L2371.2 1269.38 Q2374.65 1269.38 2376.48 1268.01 Q2378.31 1266.62 2378.31 1264.03 Q2378.31 1261.37 2376.41 1259.96 Q2374.54 1258.52 2371.02 1258.52 Q2369.1 1258.52 2366.9 1258.94 Q2364.7 1259.36 2362.06 1260.24 L2362.06 1256.07 Q2364.72 1255.33 2367.04 1254.96 Q2369.37 1254.59 2371.43 1254.59 Q2376.76 1254.59 2379.86 1257.02 Q2382.96 1259.42 2382.96 1263.55 Q2382.96 1266.42 2381.32 1268.41 Q2379.68 1270.37 2376.64 1271.14 Z" fill="#000000" fill-rule="evenodd" fill-opacity="1" /><polyline clip-path="url(#clip952)" style="stroke:#000000; stroke-linecap:butt; stroke-linejoin:round; stroke-width:2; stroke-opacity:0.1; fill:none" points="
  149.191,1405.93 955.752,1164.39 
  "/>
<polyline clip-path="url(#clip952)" style="stroke:#000000; stroke-linecap:butt; stroke-linejoin:round; stroke-width:2; stroke-opacity:0.1; fill:none" points="
  955.752,1164.39 2352.76,1244.9 
  "/>
<polyline clip-path="url(#clip952)" style="stroke:#000000; stroke-linecap:butt; stroke-linejoin:round; stroke-width:2; stroke-opacity:0.1; fill:none" points="
  149.191,1232.45 955.752,990.902 
  "/>
<polyline clip-path="url(#clip952)" style="stroke:#000000; stroke-linecap:butt; stroke-linejoin:round; stroke-width:2; stroke-opacity:0.1; fill:none" points="
  955.752,990.902 2352.76,1071.42 
  "/>
<polyline clip-path="url(#clip952)" style="stroke:#000000; stroke-linecap:butt; stroke-linejoin:round; stroke-width:2; stroke-opacity:0.1; fill:none" points="
  149.191,1058.96 955.752,817.416 
  "/>
<polyline clip-path="url(#clip952)" style="stroke:#000000; stroke-linecap:butt; stroke-linejoin:round; stroke-width:2; stroke-opacity:0.1; fill:none" points="
  955.752,817.416 2352.76,897.931 
  "/>
<polyline clip-path="url(#clip952)" style="stroke:#000000; stroke-linecap:butt; stroke-linejoin:round; stroke-width:2; stroke-opacity:0.1; fill:none" points="
  149.191,885.475 955.752,643.93 
  "/>
<polyline clip-path="url(#clip952)" style="stroke:#000000; stroke-linecap:butt; stroke-linejoin:round; stroke-width:2; stroke-opacity:0.1; fill:none" points="
  955.752,643.93 2352.76,724.445 
  "/>
<polyline clip-path="url(#clip952)" style="stroke:#000000; stroke-linecap:butt; stroke-linejoin:round; stroke-width:2; stroke-opacity:0.1; fill:none" points="
  149.191,711.989 955.752,470.444 
  "/>
<polyline clip-path="url(#clip952)" style="stroke:#000000; stroke-linecap:butt; stroke-linejoin:round; stroke-width:2; stroke-opacity:0.1; fill:none" points="
  955.752,470.444 2352.76,550.959 
  "/>
<polyline clip-path="url(#clip952)" style="stroke:#000000; stroke-linecap:butt; stroke-linejoin:round; stroke-width:2; stroke-opacity:0.1; fill:none" points="
  149.191,538.503 955.752,296.958 
  "/>
<polyline clip-path="url(#clip952)" style="stroke:#000000; stroke-linecap:butt; stroke-linejoin:round; stroke-width:2; stroke-opacity:0.1; fill:none" points="
  955.752,296.958 2352.76,377.473 
  "/>
<polyline clip-path="url(#clip952)" style="stroke:#000000; stroke-linecap:butt; stroke-linejoin:round; stroke-width:2; stroke-opacity:0.1; fill:none" points="
  149.191,365.017 955.752,123.472 
  "/>
<polyline clip-path="url(#clip952)" style="stroke:#000000; stroke-linecap:butt; stroke-linejoin:round; stroke-width:2; stroke-opacity:0.1; fill:none" points="
  955.752,123.472 2352.76,203.987 
  "/>
<polyline clip-path="url(#clip950)" style="stroke:#000000; stroke-linecap:butt; stroke-linejoin:round; stroke-width:4; stroke-opacity:1; fill:none" points="
  149.191,1405.93 149.191,365.017 
  "/>
<polyline clip-path="url(#clip950)" style="stroke:#000000; stroke-linecap:butt; stroke-linejoin:round; stroke-width:4; stroke-opacity:1; fill:none" points="
  149.191,1405.93 158.87,1403.03 
  "/>
<polyline clip-path="url(#clip950)" style="stroke:#000000; stroke-linecap:butt; stroke-linejoin:round; stroke-width:4; stroke-opacity:1; fill:none" points="
  149.191,1232.45 158.87,1229.55 
  "/>
<polyline clip-path="url(#clip950)" style="stroke:#000000; stroke-linecap:butt; stroke-linejoin:round; stroke-width:4; stroke-opacity:1; fill:none" points="
  149.191,1058.96 158.87,1056.06 
  "/>
<polyline clip-path="url(#clip950)" style="stroke:#000000; stroke-linecap:butt; stroke-linejoin:round; stroke-width:4; stroke-opacity:1; fill:none" points="
  149.191,885.475 158.87,882.577 
  "/>
<polyline clip-path="url(#clip950)" style="stroke:#000000; stroke-linecap:butt; stroke-linejoin:round; stroke-width:4; stroke-opacity:1; fill:none" points="
  149.191,711.989 158.87,709.091 
  "/>
<polyline clip-path="url(#clip950)" style="stroke:#000000; stroke-linecap:butt; stroke-linejoin:round; stroke-width:4; stroke-opacity:1; fill:none" points="
  149.191,538.503 158.87,535.605 
  "/>
<polyline clip-path="url(#clip950)" style="stroke:#000000; stroke-linecap:butt; stroke-linejoin:round; stroke-width:4; stroke-opacity:1; fill:none" points="
  149.191,365.017 158.87,362.119 
  "/>
<path clip-path="url(#clip950)" d="M58.5162 1406.38 L88.192 1406.38 L88.192 1410.32 L58.5162 1410.32 L58.5162 1406.38 Z" fill="#000000" fill-rule="evenodd" fill-opacity="1" /><path clip-path="url(#clip950)" d="M108.863 1404.07 Q105.715 1404.07 103.863 1406.22 Q102.034 1408.37 102.034 1412.12 Q102.034 1415.85 103.863 1418.03 Q105.715 1420.18 108.863 1420.18 Q112.011 1420.18 113.84 1418.03 Q115.692 1415.85 115.692 1412.12 Q115.692 1408.37 113.84 1406.22 Q112.011 1404.07 108.863 1404.07 M118.146 1389.42 L118.146 1393.68 Q116.386 1392.84 114.581 1392.4 Q112.798 1391.96 111.039 1391.96 Q106.409 1391.96 103.956 1395.09 Q101.525 1398.21 101.178 1404.53 Q102.544 1402.52 104.604 1401.45 Q106.664 1400.37 109.141 1400.37 Q114.349 1400.37 117.358 1403.54 Q120.391 1406.69 120.391 1412.12 Q120.391 1417.45 117.243 1420.67 Q114.095 1423.88 108.863 1423.88 Q102.868 1423.88 99.6965 1419.3 Q96.5253 1414.69 96.5253 1405.97 Q96.5253 1397.77 100.414 1392.91 Q104.303 1388.03 110.854 1388.03 Q112.613 1388.03 114.396 1388.38 Q116.201 1388.72 118.146 1389.42 Z" fill="#000000" fill-rule="evenodd" fill-opacity="1" /><path clip-path="url(#clip950)" d="M58.1921 1232.9 L87.8679 1232.9 L87.8679 1236.83 L58.1921 1236.83 L58.1921 1232.9 Z" fill="#000000" fill-rule="evenodd" fill-opacity="1" /><path clip-path="url(#clip950)" d="M110.808 1219.24 L99.0021 1237.69 L110.808 1237.69 L110.808 1219.24 M109.581 1215.17 L115.46 1215.17 L115.46 1237.69 L120.391 1237.69 L120.391 1241.58 L115.46 1241.58 L115.46 1249.73 L110.808 1249.73 L110.808 1241.58 L95.2058 1241.58 L95.2058 1237.06 L109.581 1215.17 Z" fill="#000000" fill-rule="evenodd" fill-opacity="1" /><path clip-path="url(#clip950)" d="M60.2754 1059.41 L89.9512 1059.41 L89.9512 1063.35 L60.2754 1063.35 L60.2754 1059.41 Z" fill="#000000" fill-rule="evenodd" fill-opacity="1" /><path clip-path="url(#clip950)" d="M104.072 1072.31 L120.391 1072.31 L120.391 1076.24 L98.4465 1076.24 L98.4465 1072.31 Q101.109 1069.55 105.692 1064.92 Q110.298 1060.27 111.479 1058.93 Q113.724 1056.4 114.604 1054.67 Q115.507 1052.91 115.507 1051.22 Q115.507 1048.46 113.562 1046.73 Q111.641 1044.99 108.539 1044.99 Q106.34 1044.99 103.886 1045.76 Q101.456 1046.52 98.678 1048.07 L98.678 1043.35 Q101.502 1042.21 103.956 1041.63 Q106.409 1041.06 108.446 1041.06 Q113.817 1041.06 117.011 1043.74 Q120.206 1046.43 120.206 1050.92 Q120.206 1053.05 119.396 1054.97 Q118.608 1056.87 116.502 1059.46 Q115.923 1060.13 112.821 1063.35 Q109.72 1066.54 104.072 1072.31 Z" fill="#000000" fill-rule="evenodd" fill-opacity="1" /><path clip-path="url(#clip950)" d="M108.446 871.274 Q104.835 871.274 103.007 874.839 Q101.201 878.38 101.201 885.51 Q101.201 892.616 103.007 896.181 Q104.835 899.723 108.446 899.723 Q112.081 899.723 113.886 896.181 Q115.715 892.616 115.715 885.51 Q115.715 878.38 113.886 874.839 Q112.081 871.274 108.446 871.274 M108.446 867.57 Q114.257 867.57 117.312 872.177 Q120.391 876.76 120.391 885.51 Q120.391 894.237 117.312 898.843 Q114.257 903.426 108.446 903.426 Q102.636 903.426 99.5576 898.843 Q96.5021 894.237 96.5021 885.51 Q96.5021 876.76 99.5576 872.177 Q102.636 867.57 108.446 867.57 Z" fill="#000000" fill-rule="evenodd" fill-opacity="1" /><path clip-path="url(#clip950)" d="M104.072 725.334 L120.391 725.334 L120.391 729.269 L98.4465 729.269 L98.4465 725.334 Q101.109 722.579 105.692 717.95 Q110.298 713.297 111.479 711.954 Q113.724 709.431 114.604 707.695 Q115.507 705.936 115.507 704.246 Q115.507 701.492 113.562 699.755 Q111.641 698.019 108.539 698.019 Q106.34 698.019 103.886 698.783 Q101.456 699.547 98.678 701.098 L98.678 696.376 Q101.502 695.242 103.956 694.663 Q106.409 694.084 108.446 694.084 Q113.817 694.084 117.011 696.769 Q120.206 699.455 120.206 703.945 Q120.206 706.075 119.396 707.996 Q118.608 709.894 116.502 712.487 Q115.923 713.158 112.821 716.376 Q109.72 719.57 104.072 725.334 Z" fill="#000000" fill-rule="evenodd" fill-opacity="1" /><path clip-path="url(#clip950)" d="M110.808 525.297 L99.0021 543.746 L110.808 543.746 L110.808 525.297 M109.581 521.223 L115.46 521.223 L115.46 543.746 L120.391 543.746 L120.391 547.635 L115.46 547.635 L115.46 555.783 L110.808 555.783 L110.808 547.635 L95.2058 547.635 L95.2058 543.121 L109.581 521.223 Z" fill="#000000" fill-rule="evenodd" fill-opacity="1" /><path clip-path="url(#clip950)" d="M108.863 363.154 Q105.715 363.154 103.863 365.307 Q102.034 367.46 102.034 371.209 Q102.034 374.936 103.863 377.112 Q105.715 379.265 108.863 379.265 Q112.011 379.265 113.84 377.112 Q115.692 374.936 115.692 371.209 Q115.692 367.46 113.84 365.307 Q112.011 363.154 108.863 363.154 M118.146 348.501 L118.146 352.761 Q116.386 351.927 114.581 351.487 Q112.798 351.048 111.039 351.048 Q106.409 351.048 103.956 354.173 Q101.525 357.298 101.178 363.617 Q102.544 361.603 104.604 360.538 Q106.664 359.45 109.141 359.45 Q114.349 359.45 117.358 362.622 Q120.391 365.77 120.391 371.209 Q120.391 376.534 117.243 379.751 Q114.095 382.969 108.863 382.969 Q102.868 382.969 99.6965 378.385 Q96.5253 373.779 96.5253 365.052 Q96.5253 356.858 100.414 351.997 Q104.303 347.112 110.854 347.112 Q112.613 347.112 114.396 347.46 Q116.201 347.807 118.146 348.501 Z" fill="#000000" fill-rule="evenodd" fill-opacity="1" /><path clip-path="url(#clip950)" d="M343.814 12.096 L351.997 12.096 L351.997 72.576 L343.814 72.576 L343.814 12.096 Z" fill="#000000" fill-rule="evenodd" fill-opacity="1" /><path clip-path="url(#clip950)" d="M405.671 45.1919 L405.671 72.576 L398.218 72.576 L398.218 45.4349 Q398.218 38.994 395.706 35.7938 Q393.194 32.5936 388.171 32.5936 Q382.135 32.5936 378.652 36.4419 Q375.168 40.2903 375.168 46.9338 L375.168 72.576 L367.674 72.576 L367.674 27.2059 L375.168 27.2059 L375.168 34.2544 Q377.841 30.163 381.447 28.1376 Q385.093 26.1121 389.832 26.1121 Q397.65 26.1121 401.661 30.9732 Q405.671 35.7938 405.671 45.1919 Z" fill="#000000" fill-rule="evenodd" fill-opacity="1" /><path clip-path="url(#clip950)" d="M427.911 14.324 L427.911 27.2059 L443.264 27.2059 L443.264 32.9987 L427.911 32.9987 L427.911 57.6282 Q427.911 63.1779 429.41 64.7578 Q430.949 66.3376 435.607 66.3376 L443.264 66.3376 L443.264 72.576 L435.607 72.576 Q426.979 72.576 423.698 69.3758 Q420.416 66.1351 420.416 57.6282 L420.416 32.9987 L414.948 32.9987 L414.948 27.2059 L420.416 27.2059 L420.416 14.324 L427.911 14.324 Z" fill="#000000" fill-rule="evenodd" fill-opacity="1" /><path clip-path="url(#clip950)" d="M491.874 48.0275 L491.874 51.6733 L457.604 51.6733 Q458.09 59.3701 462.222 63.421 Q466.394 67.4314 473.807 67.4314 Q478.101 67.4314 482.112 66.3781 Q486.163 65.3249 490.133 63.2184 L490.133 70.267 Q486.122 71.9684 481.909 72.8596 Q477.696 73.7508 473.362 73.7508 Q462.505 73.7508 456.145 67.4314 Q449.826 61.1119 449.826 50.3365 Q449.826 39.1965 455.821 32.6746 Q461.857 26.1121 472.066 26.1121 Q481.221 26.1121 486.527 32.0264 Q491.874 37.9003 491.874 48.0275 M484.421 45.84 Q484.34 39.7232 480.978 36.0774 Q477.656 32.4315 472.147 32.4315 Q465.908 32.4315 462.141 35.9558 Q458.414 39.4801 457.847 45.8805 L484.421 45.84 Z" fill="#000000" fill-rule="evenodd" fill-opacity="1" /><path clip-path="url(#clip950)" d="M530.399 34.1734 Q529.143 33.4443 527.644 33.1202 Q526.186 32.7556 524.403 32.7556 Q518.084 32.7556 514.681 36.8875 Q511.319 40.9789 511.319 48.6757 L511.319 72.576 L503.825 72.576 L503.825 27.2059 L511.319 27.2059 L511.319 34.2544 Q513.668 30.1225 517.436 28.1376 Q521.203 26.1121 526.591 26.1121 Q527.36 26.1121 528.292 26.2337 Q529.224 26.3147 530.358 26.5172 L530.399 34.1734 Z" fill="#000000" fill-rule="evenodd" fill-opacity="1" /><path clip-path="url(#clip950)" d="M567.14 28.5427 L567.14 35.5912 Q563.981 33.9709 560.578 33.1607 Q557.175 32.3505 553.529 32.3505 Q547.979 32.3505 545.184 34.0519 Q542.43 35.7533 542.43 39.156 Q542.43 41.7486 544.415 43.2475 Q546.4 44.7058 552.395 46.0426 L554.947 46.6097 Q562.887 48.3111 566.209 51.4303 Q569.571 54.509 569.571 60.0587 Q569.571 66.3781 564.548 70.0644 Q559.565 73.7508 550.815 73.7508 Q547.169 73.7508 543.199 73.0216 Q539.27 72.3329 534.895 70.9151 L534.895 63.2184 Q539.027 65.3654 543.037 66.4591 Q547.048 67.5124 550.977 67.5124 Q556.243 67.5124 559.079 65.73 Q561.915 63.9071 561.915 60.6258 Q561.915 57.5877 559.849 55.9673 Q557.823 54.3469 550.896 52.8481 L548.304 52.2405 Q541.376 50.7821 538.298 47.7845 Q535.219 44.7463 535.219 39.4801 Q535.219 33.0797 539.756 29.5959 Q544.293 26.1121 552.638 26.1121 Q556.77 26.1121 560.416 26.7198 Q564.062 27.3274 567.14 28.5427 Z" fill="#000000" fill-rule="evenodd" fill-opacity="1" /><path clip-path="url(#clip950)" d="M620.248 48.0275 L620.248 51.6733 L585.977 51.6733 Q586.463 59.3701 590.595 63.421 Q594.767 67.4314 602.181 67.4314 Q606.475 67.4314 610.485 66.3781 Q614.536 65.3249 618.506 63.2184 L618.506 70.267 Q614.495 71.9684 610.282 72.8596 Q606.069 73.7508 601.735 73.7508 Q590.879 73.7508 584.519 67.4314 Q578.199 61.1119 578.199 50.3365 Q578.199 39.1965 584.195 32.6746 Q590.23 26.1121 600.439 26.1121 Q609.594 26.1121 614.9 32.0264 Q620.248 37.9003 620.248 48.0275 M612.794 45.84 Q612.713 39.7232 609.351 36.0774 Q606.029 32.4315 600.52 32.4315 Q594.281 32.4315 590.514 35.9558 Q586.787 39.4801 586.22 45.8805 L612.794 45.84 Z" fill="#000000" fill-rule="evenodd" fill-opacity="1" /><path clip-path="url(#clip950)" d="M665.132 28.9478 L665.132 35.9153 Q661.972 34.1734 658.772 33.3227 Q655.612 32.4315 652.371 32.4315 Q645.12 32.4315 641.11 37.0496 Q637.099 41.6271 637.099 49.9314 Q637.099 58.2358 641.11 62.8538 Q645.12 67.4314 652.371 67.4314 Q655.612 67.4314 658.772 66.5807 Q661.972 65.6895 665.132 63.9476 L665.132 70.8341 Q662.012 72.2924 658.65 73.0216 Q655.328 73.7508 651.561 73.7508 Q641.312 73.7508 635.276 67.3098 Q629.241 60.8689 629.241 49.9314 Q629.241 38.832 635.317 32.472 Q641.434 26.1121 652.047 26.1121 Q655.49 26.1121 658.772 26.8413 Q662.053 27.5299 665.132 28.9478 Z" fill="#000000" fill-rule="evenodd" fill-opacity="1" /><path clip-path="url(#clip950)" d="M685.467 14.324 L685.467 27.2059 L700.82 27.2059 L700.82 32.9987 L685.467 32.9987 L685.467 57.6282 Q685.467 63.1779 686.966 64.7578 Q688.505 66.3376 693.164 66.3376 L700.82 66.3376 L700.82 72.576 L693.164 72.576 Q684.535 72.576 681.254 69.3758 Q677.973 66.1351 677.973 57.6282 L677.973 32.9987 L672.504 32.9987 L672.504 27.2059 L677.973 27.2059 L677.973 14.324 L685.467 14.324 Z" fill="#000000" fill-rule="evenodd" fill-opacity="1" /><path clip-path="url(#clip950)" d="M710.623 27.2059 L718.077 27.2059 L718.077 72.576 L710.623 72.576 L710.623 27.2059 M710.623 9.54393 L718.077 9.54393 L718.077 18.9825 L710.623 18.9825 L710.623 9.54393 Z" fill="#000000" fill-rule="evenodd" fill-opacity="1" /><path clip-path="url(#clip950)" d="M751.254 32.4315 Q745.259 32.4315 741.775 37.1306 Q738.291 41.7891 738.291 49.9314 Q738.291 58.0738 741.734 62.7728 Q745.218 67.4314 751.254 67.4314 Q757.209 67.4314 760.692 62.7323 Q764.176 58.0333 764.176 49.9314 Q764.176 41.8701 760.692 37.1711 Q757.209 32.4315 751.254 32.4315 M751.254 26.1121 Q760.976 26.1121 766.526 32.4315 Q772.075 38.7509 772.075 49.9314 Q772.075 61.0714 766.526 67.4314 Q760.976 73.7508 751.254 73.7508 Q741.491 73.7508 735.941 67.4314 Q730.432 61.0714 730.432 49.9314 Q730.432 38.7509 735.941 32.4315 Q741.491 26.1121 751.254 26.1121 Z" fill="#000000" fill-rule="evenodd" fill-opacity="1" /><path clip-path="url(#clip950)" d="M822.145 45.1919 L822.145 72.576 L814.691 72.576 L814.691 45.4349 Q814.691 38.994 812.179 35.7938 Q809.668 32.5936 804.645 32.5936 Q798.609 32.5936 795.125 36.4419 Q791.641 40.2903 791.641 46.9338 L791.641 72.576 L784.147 72.576 L784.147 27.2059 L791.641 27.2059 L791.641 34.2544 Q794.315 30.163 797.92 28.1376 Q801.566 26.1121 806.306 26.1121 Q814.124 26.1121 818.134 30.9732 Q822.145 35.7938 822.145 45.1919 Z" fill="#000000" fill-rule="evenodd" fill-opacity="1" /><path clip-path="url(#clip950)" d="M880.964 32.4315 Q874.968 32.4315 871.485 37.1306 Q868.001 41.7891 868.001 49.9314 Q868.001 58.0738 871.444 62.7728 Q874.928 67.4314 880.964 67.4314 Q886.919 67.4314 890.402 62.7323 Q893.886 58.0333 893.886 49.9314 Q893.886 41.8701 890.402 37.1711 Q886.919 32.4315 880.964 32.4315 M880.964 26.1121 Q890.686 26.1121 896.236 32.4315 Q901.785 38.7509 901.785 49.9314 Q901.785 61.0714 896.236 67.4314 Q890.686 73.7508 880.964 73.7508 Q871.201 73.7508 865.651 67.4314 Q860.142 61.0714 860.142 49.9314 Q860.142 38.7509 865.651 32.4315 Q871.201 26.1121 880.964 26.1121 Z" fill="#000000" fill-rule="evenodd" fill-opacity="1" /><path clip-path="url(#clip950)" d="M937.109 9.54393 L937.109 15.7418 L929.98 15.7418 Q925.969 15.7418 924.389 17.3622 Q922.85 18.9825 922.85 23.1955 L922.85 27.2059 L935.124 27.2059 L935.124 32.9987 L922.85 32.9987 L922.85 72.576 L915.356 72.576 L915.356 32.9987 L908.226 32.9987 L908.226 27.2059 L915.356 27.2059 L915.356 24.0462 Q915.356 16.471 918.88 13.0277 Q922.405 9.54393 930.061 9.54393 L937.109 9.54393 Z" fill="#000000" fill-rule="evenodd" fill-opacity="1" /><path clip-path="url(#clip950)" d="M977.092 14.324 L977.092 27.2059 L992.445 27.2059 L992.445 32.9987 L977.092 32.9987 L977.092 57.6282 Q977.092 63.1779 978.591 64.7578 Q980.13 66.3376 984.788 66.3376 L992.445 66.3376 L992.445 72.576 L984.788 72.576 Q976.16 72.576 972.879 69.3758 Q969.598 66.1351 969.598 57.6282 L969.598 32.9987 L964.129 32.9987 L964.129 27.2059 L969.598 27.2059 L969.598 14.324 L977.092 14.324 Z" fill="#000000" fill-rule="evenodd" fill-opacity="1" /><path clip-path="url(#clip950)" d="M997.913 27.2059 L1005.37 27.2059 L1014.68 62.6108 L1023.96 27.2059 L1032.75 27.2059 L1042.07 62.6108 L1051.34 27.2059 L1058.8 27.2059 L1046.93 72.576 L1038.14 72.576 L1028.38 35.3887 L1018.57 72.576 L1009.78 72.576 L997.913 27.2059 Z" fill="#000000" fill-rule="evenodd" fill-opacity="1" /><path clip-path="url(#clip950)" d="M1087.68 32.4315 Q1081.69 32.4315 1078.2 37.1306 Q1074.72 41.7891 1074.72 49.9314 Q1074.72 58.0738 1078.16 62.7728 Q1081.65 67.4314 1087.68 67.4314 Q1093.64 67.4314 1097.12 62.7323 Q1100.6 58.0333 1100.6 49.9314 Q1100.6 41.8701 1097.12 37.1711 Q1093.64 32.4315 1087.68 32.4315 M1087.68 26.1121 Q1097.4 26.1121 1102.95 32.4315 Q1108.5 38.7509 1108.5 49.9314 Q1108.5 61.0714 1102.95 67.4314 Q1097.4 73.7508 1087.68 73.7508 Q1077.92 73.7508 1072.37 67.4314 Q1066.86 61.0714 1066.86 49.9314 Q1066.86 38.7509 1072.37 32.4315 Q1077.92 26.1121 1087.68 26.1121 Z" fill="#000000" fill-rule="evenodd" fill-opacity="1" /><path clip-path="url(#clip950)" d="M1176.15 28.5427 L1176.15 35.5912 Q1172.99 33.9709 1169.59 33.1607 Q1166.19 32.3505 1162.54 32.3505 Q1156.99 32.3505 1154.2 34.0519 Q1151.44 35.7533 1151.44 39.156 Q1151.44 41.7486 1153.43 43.2475 Q1155.41 44.7058 1161.41 46.0426 L1163.96 46.6097 Q1171.9 48.3111 1175.22 51.4303 Q1178.58 54.509 1178.58 60.0587 Q1178.58 66.3781 1173.56 70.0644 Q1168.58 73.7508 1159.83 73.7508 Q1156.18 73.7508 1152.21 73.0216 Q1148.28 72.3329 1143.91 70.9151 L1143.91 63.2184 Q1148.04 65.3654 1152.05 66.4591 Q1156.06 67.5124 1159.99 67.5124 Q1165.26 67.5124 1168.09 65.73 Q1170.93 63.9071 1170.93 60.6258 Q1170.93 57.5877 1168.86 55.9673 Q1166.84 54.3469 1159.91 52.8481 L1157.32 52.2405 Q1150.39 50.7821 1147.31 47.7845 Q1144.23 44.7463 1144.23 39.4801 Q1144.23 33.0797 1148.77 29.5959 Q1153.31 26.1121 1161.65 26.1121 Q1165.78 26.1121 1169.43 26.7198 Q1173.07 27.3274 1176.15 28.5427 Z" fill="#000000" fill-rule="evenodd" fill-opacity="1" /><path clip-path="url(#clip950)" d="M1189.68 54.671 L1189.68 27.2059 L1197.14 27.2059 L1197.14 54.3874 Q1197.14 60.8284 1199.65 64.0691 Q1202.16 67.2693 1207.18 67.2693 Q1213.22 67.2693 1216.7 63.421 Q1220.23 59.5726 1220.23 52.9291 L1220.23 27.2059 L1227.68 27.2059 L1227.68 72.576 L1220.23 72.576 L1220.23 65.6084 Q1217.51 69.7404 1213.91 71.7658 Q1210.34 73.7508 1205.6 73.7508 Q1197.79 73.7508 1193.73 68.8897 Q1189.68 64.0286 1189.68 54.671 M1208.44 26.1121 L1208.44 26.1121 Z" fill="#000000" fill-rule="evenodd" fill-opacity="1" /><path clip-path="url(#clip950)" d="M1275.6 49.9314 Q1275.6 41.7081 1272.2 37.0496 Q1268.84 32.3505 1262.92 32.3505 Q1257.01 32.3505 1253.61 37.0496 Q1250.24 41.7081 1250.24 49.9314 Q1250.24 58.1548 1253.61 62.8538 Q1257.01 67.5124 1262.92 67.5124 Q1268.84 67.5124 1272.2 62.8538 Q1275.6 58.1548 1275.6 49.9314 M1250.24 34.0924 Q1252.59 30.0415 1256.16 28.0971 Q1259.76 26.1121 1264.75 26.1121 Q1273.01 26.1121 1278.15 32.6746 Q1283.34 39.2371 1283.34 49.9314 Q1283.34 60.6258 1278.15 67.1883 Q1273.01 73.7508 1264.75 73.7508 Q1259.76 73.7508 1256.16 71.8063 Q1252.59 69.8214 1250.24 65.7705 L1250.24 72.576 L1242.75 72.576 L1242.75 9.54393 L1250.24 9.54393 L1250.24 34.0924 Z" fill="#000000" fill-rule="evenodd" fill-opacity="1" /><path clip-path="url(#clip950)" d="M1324.62 28.5427 L1324.62 35.5912 Q1321.46 33.9709 1318.06 33.1607 Q1314.65 32.3505 1311.01 32.3505 Q1305.46 32.3505 1302.66 34.0519 Q1299.91 35.7533 1299.91 39.156 Q1299.91 41.7486 1301.89 43.2475 Q1303.88 44.7058 1309.87 46.0426 L1312.43 46.6097 Q1320.37 48.3111 1323.69 51.4303 Q1327.05 54.509 1327.05 60.0587 Q1327.05 66.3781 1322.03 70.0644 Q1317.04 73.7508 1308.29 73.7508 Q1304.65 73.7508 1300.68 73.0216 Q1296.75 72.3329 1292.37 70.9151 L1292.37 63.2184 Q1296.51 65.3654 1300.52 66.4591 Q1304.53 67.5124 1308.46 67.5124 Q1313.72 67.5124 1316.56 65.73 Q1319.39 63.9071 1319.39 60.6258 Q1319.39 57.5877 1317.33 55.9673 Q1315.3 54.3469 1308.37 52.8481 L1305.78 52.2405 Q1298.86 50.7821 1295.78 47.7845 Q1292.7 44.7463 1292.7 39.4801 Q1292.7 33.0797 1297.23 29.5959 Q1301.77 26.1121 1310.12 26.1121 Q1314.25 26.1121 1317.89 26.7198 Q1321.54 27.3274 1324.62 28.5427 Z" fill="#000000" fill-rule="evenodd" fill-opacity="1" /><path clip-path="url(#clip950)" d="M1346.13 65.7705 L1346.13 89.8329 L1338.63 89.8329 L1338.63 27.2059 L1346.13 27.2059 L1346.13 34.0924 Q1348.48 30.0415 1352.04 28.0971 Q1355.65 26.1121 1360.63 26.1121 Q1368.9 26.1121 1374.04 32.6746 Q1379.23 39.2371 1379.23 49.9314 Q1379.23 60.6258 1374.04 67.1883 Q1368.9 73.7508 1360.63 73.7508 Q1355.65 73.7508 1352.04 71.8063 Q1348.48 69.8214 1346.13 65.7705 M1371.49 49.9314 Q1371.49 41.7081 1368.09 37.0496 Q1364.72 32.3505 1358.81 32.3505 Q1352.89 32.3505 1349.49 37.0496 Q1346.13 41.7081 1346.13 49.9314 Q1346.13 58.1548 1349.49 62.8538 Q1352.89 67.5124 1358.81 67.5124 Q1364.72 67.5124 1368.09 62.8538 Q1371.49 58.1548 1371.49 49.9314 Z" fill="#000000" fill-rule="evenodd" fill-opacity="1" /><path clip-path="url(#clip950)" d="M1412.2 49.7694 Q1403.17 49.7694 1399.68 51.8354 Q1396.2 53.9013 1396.2 58.8839 Q1396.2 62.8538 1398.79 65.2034 Q1401.42 67.5124 1405.92 67.5124 Q1412.12 67.5124 1415.85 63.1374 Q1419.61 58.7219 1419.61 51.4303 L1419.61 49.7694 L1412.2 49.7694 M1427.07 46.6907 L1427.07 72.576 L1419.61 72.576 L1419.61 65.6895 Q1417.06 69.8214 1413.25 71.8063 Q1409.44 73.7508 1403.94 73.7508 Q1396.97 73.7508 1392.84 69.8619 Q1388.74 65.9325 1388.74 59.3701 Q1388.74 51.7138 1393.85 47.825 Q1398.99 43.9361 1409.16 43.9361 L1419.61 43.9361 L1419.61 43.2069 Q1419.61 38.0623 1416.21 35.2672 Q1412.85 32.4315 1406.73 32.4315 Q1402.84 32.4315 1399.16 33.3632 Q1395.47 34.295 1392.07 36.1584 L1392.07 29.2718 Q1396.16 27.692 1400.01 26.9223 Q1403.85 26.1121 1407.5 26.1121 Q1417.34 26.1121 1422.21 31.2163 Q1427.07 36.3204 1427.07 46.6907 Z" fill="#000000" fill-rule="evenodd" fill-opacity="1" /><path clip-path="url(#clip950)" d="M1475.07 28.9478 L1475.07 35.9153 Q1471.91 34.1734 1468.71 33.3227 Q1465.55 32.4315 1462.31 32.4315 Q1455.06 32.4315 1451.05 37.0496 Q1447.04 41.6271 1447.04 49.9314 Q1447.04 58.2358 1451.05 62.8538 Q1455.06 67.4314 1462.31 67.4314 Q1465.55 67.4314 1468.71 66.5807 Q1471.91 65.6895 1475.07 63.9476 L1475.07 70.8341 Q1471.95 72.2924 1468.59 73.0216 Q1465.27 73.7508 1461.5 73.7508 Q1451.25 73.7508 1445.21 67.3098 Q1439.18 60.8689 1439.18 49.9314 Q1439.18 38.832 1445.25 32.472 Q1451.37 26.1121 1461.98 26.1121 Q1465.43 26.1121 1468.71 26.8413 Q1471.99 27.5299 1475.07 28.9478 Z" fill="#000000" fill-rule="evenodd" fill-opacity="1" /><path clip-path="url(#clip950)" d="M1526.84 48.0275 L1526.84 51.6733 L1492.57 51.6733 Q1493.06 59.3701 1497.19 63.421 Q1501.36 67.4314 1508.77 67.4314 Q1513.07 67.4314 1517.08 66.3781 Q1521.13 65.3249 1525.1 63.2184 L1525.1 70.267 Q1521.09 71.9684 1516.87 72.8596 Q1512.66 73.7508 1508.33 73.7508 Q1497.47 73.7508 1491.11 67.4314 Q1484.79 61.1119 1484.79 50.3365 Q1484.79 39.1965 1490.79 32.6746 Q1496.82 26.1121 1507.03 26.1121 Q1516.19 26.1121 1521.49 32.0264 Q1526.84 37.9003 1526.84 48.0275 M1519.39 45.84 Q1519.31 39.7232 1515.94 36.0774 Q1512.62 32.4315 1507.11 32.4315 Q1500.87 32.4315 1497.11 35.9558 Q1493.38 39.4801 1492.81 45.8805 L1519.39 45.84 Z" fill="#000000" fill-rule="evenodd" fill-opacity="1" /><path clip-path="url(#clip950)" d="M1568 28.5427 L1568 35.5912 Q1564.84 33.9709 1561.43 33.1607 Q1558.03 32.3505 1554.39 32.3505 Q1548.84 32.3505 1546.04 34.0519 Q1543.29 35.7533 1543.29 39.156 Q1543.29 41.7486 1545.27 43.2475 Q1547.26 44.7058 1553.25 46.0426 L1555.8 46.6097 Q1563.74 48.3111 1567.07 51.4303 Q1570.43 54.509 1570.43 60.0587 Q1570.43 66.3781 1565.4 70.0644 Q1560.42 73.7508 1551.67 73.7508 Q1548.03 73.7508 1544.06 73.0216 Q1540.13 72.3329 1535.75 70.9151 L1535.75 63.2184 Q1539.88 65.3654 1543.89 66.4591 Q1547.9 67.5124 1551.83 67.5124 Q1557.1 67.5124 1559.94 65.73 Q1562.77 63.9071 1562.77 60.6258 Q1562.77 57.5877 1560.71 55.9673 Q1558.68 54.3469 1551.75 52.8481 L1549.16 52.2405 Q1542.23 50.7821 1539.15 47.7845 Q1536.08 44.7463 1536.08 39.4801 Q1536.08 33.0797 1540.61 29.5959 Q1545.15 26.1121 1553.49 26.1121 Q1557.63 26.1121 1561.27 26.7198 Q1564.92 27.3274 1568 28.5427 Z" fill="#000000" fill-rule="evenodd" fill-opacity="1" /><path clip-path="url(#clip950)" d="M1608.67 27.2059 L1616.12 27.2059 L1616.12 72.576 L1608.67 72.576 L1608.67 27.2059 M1608.67 9.54393 L1616.12 9.54393 L1616.12 18.9825 L1608.67 18.9825 L1608.67 9.54393 Z" fill="#000000" fill-rule="evenodd" fill-opacity="1" /><path clip-path="url(#clip950)" d="M1660.64 28.5427 L1660.64 35.5912 Q1657.48 33.9709 1654.08 33.1607 Q1650.68 32.3505 1647.03 32.3505 Q1641.48 32.3505 1638.69 34.0519 Q1635.93 35.7533 1635.93 39.156 Q1635.93 41.7486 1637.92 43.2475 Q1639.9 44.7058 1645.9 46.0426 L1648.45 46.6097 Q1656.39 48.3111 1659.71 51.4303 Q1663.07 54.509 1663.07 60.0587 Q1663.07 66.3781 1658.05 70.0644 Q1653.07 73.7508 1644.32 73.7508 Q1640.67 73.7508 1636.7 73.0216 Q1632.77 72.3329 1628.4 70.9151 L1628.4 63.2184 Q1632.53 65.3654 1636.54 66.4591 Q1640.55 67.5124 1644.48 67.5124 Q1649.74 67.5124 1652.58 65.73 Q1655.42 63.9071 1655.42 60.6258 Q1655.42 57.5877 1653.35 55.9673 Q1651.32 54.3469 1644.4 52.8481 L1641.8 52.2405 Q1634.88 50.7821 1631.8 47.7845 Q1628.72 44.7463 1628.72 39.4801 Q1628.72 33.0797 1633.26 29.5959 Q1637.79 26.1121 1646.14 26.1121 Q1650.27 26.1121 1653.92 26.7198 Q1657.56 27.3274 1660.64 28.5427 Z" fill="#000000" fill-rule="evenodd" fill-opacity="1" /><path clip-path="url(#clip950)" d="M1721.93 49.7694 Q1712.9 49.7694 1709.41 51.8354 Q1705.93 53.9013 1705.93 58.8839 Q1705.93 62.8538 1708.52 65.2034 Q1711.16 67.5124 1715.65 67.5124 Q1721.85 67.5124 1725.58 63.1374 Q1729.34 58.7219 1729.34 51.4303 L1729.34 49.7694 L1721.93 49.7694 M1736.8 46.6907 L1736.8 72.576 L1729.34 72.576 L1729.34 65.6895 Q1726.79 69.8214 1722.98 71.8063 Q1719.18 73.7508 1713.67 73.7508 Q1706.7 73.7508 1702.57 69.8619 Q1698.48 65.9325 1698.48 59.3701 Q1698.48 51.7138 1703.58 47.825 Q1708.73 43.9361 1718.89 43.9361 L1729.34 43.9361 L1729.34 43.2069 Q1729.34 38.0623 1725.94 35.2672 Q1722.58 32.4315 1716.46 32.4315 Q1712.57 32.4315 1708.89 33.3632 Q1705.2 34.295 1701.8 36.1584 L1701.8 29.2718 Q1705.89 27.692 1709.74 26.9223 Q1713.59 26.1121 1717.23 26.1121 Q1727.08 26.1121 1731.94 31.2163 Q1736.8 36.3204 1736.8 46.6907 Z" fill="#000000" fill-rule="evenodd" fill-opacity="1" /><path clip-path="url(#clip950)" d="M1807.45 28.5427 L1807.45 35.5912 Q1804.29 33.9709 1800.88 33.1607 Q1797.48 32.3505 1793.84 32.3505 Q1788.29 32.3505 1785.49 34.0519 Q1782.74 35.7533 1782.74 39.156 Q1782.74 41.7486 1784.72 43.2475 Q1786.71 44.7058 1792.7 46.0426 L1795.25 46.6097 Q1803.19 48.3111 1806.51 51.4303 Q1809.88 54.509 1809.88 60.0587 Q1809.88 66.3781 1804.85 70.0644 Q1799.87 73.7508 1791.12 73.7508 Q1787.48 73.7508 1783.51 73.0216 Q1779.58 72.3329 1775.2 70.9151 L1775.2 63.2184 Q1779.33 65.3654 1783.34 66.4591 Q1787.35 67.5124 1791.28 67.5124 Q1796.55 67.5124 1799.38 65.73 Q1802.22 63.9071 1802.22 60.6258 Q1802.22 57.5877 1800.15 55.9673 Q1798.13 54.3469 1791.2 52.8481 L1788.61 52.2405 Q1781.68 50.7821 1778.6 47.7845 Q1775.52 44.7463 1775.52 39.4801 Q1775.52 33.0797 1780.06 29.5959 Q1784.6 26.1121 1792.94 26.1121 Q1797.08 26.1121 1800.72 26.7198 Q1804.37 27.3274 1807.45 28.5427 Z" fill="#000000" fill-rule="evenodd" fill-opacity="1" /><path clip-path="url(#clip950)" d="M1820.98 54.671 L1820.98 27.2059 L1828.43 27.2059 L1828.43 54.3874 Q1828.43 60.8284 1830.94 64.0691 Q1833.45 67.2693 1838.48 67.2693 Q1844.51 67.2693 1848 63.421 Q1851.52 59.5726 1851.52 52.9291 L1851.52 27.2059 L1858.97 27.2059 L1858.97 72.576 L1851.52 72.576 L1851.52 65.6084 Q1848.81 69.7404 1845.2 71.7658 Q1841.64 73.7508 1836.9 73.7508 Q1829.08 73.7508 1825.03 68.8897 Q1820.98 64.0286 1820.98 54.671 M1839.73 26.1121 L1839.73 26.1121 Z" fill="#000000" fill-rule="evenodd" fill-opacity="1" /><path clip-path="url(#clip950)" d="M1906.9 49.9314 Q1906.9 41.7081 1903.49 37.0496 Q1900.13 32.3505 1894.22 32.3505 Q1888.3 32.3505 1884.9 37.0496 Q1881.54 41.7081 1881.54 49.9314 Q1881.54 58.1548 1884.9 62.8538 Q1888.3 67.5124 1894.22 67.5124 Q1900.13 67.5124 1903.49 62.8538 Q1906.9 58.1548 1906.9 49.9314 M1881.54 34.0924 Q1883.89 30.0415 1887.45 28.0971 Q1891.06 26.1121 1896.04 26.1121 Q1904.3 26.1121 1909.45 32.6746 Q1914.63 39.2371 1914.63 49.9314 Q1914.63 60.6258 1909.45 67.1883 Q1904.3 73.7508 1896.04 73.7508 Q1891.06 73.7508 1887.45 71.8063 Q1883.89 69.8214 1881.54 65.7705 L1881.54 72.576 L1874.04 72.576 L1874.04 9.54393 L1881.54 9.54393 L1881.54 34.0924 Z" fill="#000000" fill-rule="evenodd" fill-opacity="1" /><path clip-path="url(#clip950)" d="M1955.91 28.5427 L1955.91 35.5912 Q1952.75 33.9709 1949.35 33.1607 Q1945.95 32.3505 1942.3 32.3505 Q1936.75 32.3505 1933.96 34.0519 Q1931.2 35.7533 1931.2 39.156 Q1931.2 41.7486 1933.19 43.2475 Q1935.17 44.7058 1941.17 46.0426 L1943.72 46.6097 Q1951.66 48.3111 1954.98 51.4303 Q1958.34 54.509 1958.34 60.0587 Q1958.34 66.3781 1953.32 70.0644 Q1948.34 73.7508 1939.59 73.7508 Q1935.94 73.7508 1931.97 73.0216 Q1928.04 72.3329 1923.67 70.9151 L1923.67 63.2184 Q1927.8 65.3654 1931.81 66.4591 Q1935.82 67.5124 1939.75 67.5124 Q1945.01 67.5124 1947.85 65.73 Q1950.69 63.9071 1950.69 60.6258 Q1950.69 57.5877 1948.62 55.9673 Q1946.59 54.3469 1939.67 52.8481 L1937.08 52.2405 Q1930.15 50.7821 1927.07 47.7845 Q1923.99 44.7463 1923.99 39.4801 Q1923.99 33.0797 1928.53 29.5959 Q1933.06 26.1121 1941.41 26.1121 Q1945.54 26.1121 1949.19 26.7198 Q1952.83 27.3274 1955.91 28.5427 Z" fill="#000000" fill-rule="evenodd" fill-opacity="1" /><path clip-path="url(#clip950)" d="M1977.42 65.7705 L1977.42 89.8329 L1969.93 89.8329 L1969.93 27.2059 L1977.42 27.2059 L1977.42 34.0924 Q1979.77 30.0415 1983.34 28.0971 Q1986.94 26.1121 1991.92 26.1121 Q2000.19 26.1121 2005.33 32.6746 Q2010.52 39.2371 2010.52 49.9314 Q2010.52 60.6258 2005.33 67.1883 Q2000.19 73.7508 1991.92 73.7508 Q1986.94 73.7508 1983.34 71.8063 Q1979.77 69.8214 1977.42 65.7705 M2002.78 49.9314 Q2002.78 41.7081 1999.38 37.0496 Q1996.02 32.3505 1990.1 32.3505 Q1984.19 32.3505 1980.78 37.0496 Q1977.42 41.7081 1977.42 49.9314 Q1977.42 58.1548 1980.78 62.8538 Q1984.19 67.5124 1990.1 67.5124 Q1996.02 67.5124 1999.38 62.8538 Q2002.78 58.1548 2002.78 49.9314 Z" fill="#000000" fill-rule="evenodd" fill-opacity="1" /><path clip-path="url(#clip950)" d="M2043.49 49.7694 Q2034.46 49.7694 2030.97 51.8354 Q2027.49 53.9013 2027.49 58.8839 Q2027.49 62.8538 2030.08 65.2034 Q2032.72 67.5124 2037.21 67.5124 Q2043.41 67.5124 2047.14 63.1374 Q2050.91 58.7219 2050.91 51.4303 L2050.91 49.7694 L2043.49 49.7694 M2058.36 46.6907 L2058.36 72.576 L2050.91 72.576 L2050.91 65.6895 Q2048.35 69.8214 2044.55 71.8063 Q2040.74 73.7508 2035.23 73.7508 Q2028.26 73.7508 2024.13 69.8619 Q2020.04 65.9325 2020.04 59.3701 Q2020.04 51.7138 2025.14 47.825 Q2030.29 43.9361 2040.45 43.9361 L2050.91 43.9361 L2050.91 43.2069 Q2050.91 38.0623 2047.5 35.2672 Q2044.14 32.4315 2038.02 32.4315 Q2034.13 32.4315 2030.45 33.3632 Q2026.76 34.295 2023.36 36.1584 L2023.36 29.2718 Q2027.45 27.692 2031.3 26.9223 Q2035.15 26.1121 2038.79 26.1121 Q2048.64 26.1121 2053.5 31.2163 Q2058.36 36.3204 2058.36 46.6907 Z" fill="#000000" fill-rule="evenodd" fill-opacity="1" /><path clip-path="url(#clip950)" d="M2106.36 28.9478 L2106.36 35.9153 Q2103.2 34.1734 2100 33.3227 Q2096.84 32.4315 2093.6 32.4315 Q2086.35 32.4315 2082.34 37.0496 Q2078.33 41.6271 2078.33 49.9314 Q2078.33 58.2358 2082.34 62.8538 Q2086.35 67.4314 2093.6 67.4314 Q2096.84 67.4314 2100 66.5807 Q2103.2 65.6895 2106.36 63.9476 L2106.36 70.8341 Q2103.24 72.2924 2099.88 73.0216 Q2096.56 73.7508 2092.79 73.7508 Q2082.54 73.7508 2076.51 67.3098 Q2070.47 60.8689 2070.47 49.9314 Q2070.47 38.832 2076.55 32.472 Q2082.66 26.1121 2093.28 26.1121 Q2096.72 26.1121 2100 26.8413 Q2103.28 27.5299 2106.36 28.9478 Z" fill="#000000" fill-rule="evenodd" fill-opacity="1" /><path clip-path="url(#clip950)" d="M2158.13 48.0275 L2158.13 51.6733 L2123.86 51.6733 Q2124.35 59.3701 2128.48 63.421 Q2132.65 67.4314 2140.07 67.4314 Q2144.36 67.4314 2148.37 66.3781 Q2152.42 65.3249 2156.39 63.2184 L2156.39 70.267 Q2152.38 71.9684 2148.17 72.8596 Q2143.95 73.7508 2139.62 73.7508 Q2128.76 73.7508 2122.4 67.4314 Q2116.08 61.1119 2116.08 50.3365 Q2116.08 39.1965 2122.08 32.6746 Q2128.12 26.1121 2138.32 26.1121 Q2147.48 26.1121 2152.79 32.0264 Q2158.13 37.9003 2158.13 48.0275 M2150.68 45.84 Q2150.6 39.7232 2147.24 36.0774 Q2143.91 32.4315 2138.4 32.4315 Q2132.17 32.4315 2128.4 35.9558 Q2124.67 39.4801 2124.11 45.8805 L2150.68 45.84 Z" fill="#000000" fill-rule="evenodd" fill-opacity="1" /><path clip-path="url(#clip952)" d="
M955.752 1164.39 L821.325 1117.9 L1054.16 1044.58 L1188.59 1091.06  Z
  " fill="#ffffff" fill-rule="evenodd" fill-opacity="1"/>
<polyline clip-path="url(#clip952)" style="stroke:#000000; stroke-linecap:butt; stroke-linejoin:round; stroke-width:4; stroke-opacity:1; fill:none" points="
  955.752,1164.39 821.325,1117.9 1054.16,1044.58 1188.59,1091.06 955.752,1164.39 
  "/>
<path clip-path="url(#clip952)" d="
M1188.59 1091.06 L1054.16 1044.58 L1286.99 971.255 L1421.42 1017.74  Z
  " fill="#ffffff" fill-rule="evenodd" fill-opacity="1"/>
<polyline clip-path="url(#clip952)" style="stroke:#000000; stroke-linecap:butt; stroke-linejoin:round; stroke-width:4; stroke-opacity:1; fill:none" points="
  1188.59,1091.06 1054.16,1044.58 1286.99,971.255 1421.42,1017.74 1188.59,1091.06 
  "/>
<path clip-path="url(#clip952)" d="
M1421.42 1017.74 L1286.99 971.255 L1519.83 897.931 L1654.25 944.416  Z
  " fill="#ffffff" fill-rule="evenodd" fill-opacity="1"/>
<polyline clip-path="url(#clip952)" style="stroke:#000000; stroke-linecap:butt; stroke-linejoin:round; stroke-width:4; stroke-opacity:1; fill:none" points="
  1421.42,1017.74 1286.99,971.255 1519.83,897.931 1654.25,944.416 1421.42,1017.74 
  "/>
<path clip-path="url(#clip952)" d="
M1654.25 944.416 L1519.83 897.931 L1752.66 824.607 L1887.09 871.092  Z
  " fill="#ffffff" fill-rule="evenodd" fill-opacity="1"/>
<polyline clip-path="url(#clip952)" style="stroke:#000000; stroke-linecap:butt; stroke-linejoin:round; stroke-width:4; stroke-opacity:1; fill:none" points="
  1654.25,944.416 1519.83,897.931 1752.66,824.607 1887.09,871.092 1654.25,944.416 
  "/>
<path clip-path="url(#clip952)" d="
M1887.09 871.092 L1752.66 824.607 L1985.5 751.283 L2119.92 797.769  Z
  " fill="#ffffff" fill-rule="evenodd" fill-opacity="1"/>
<polyline clip-path="url(#clip952)" style="stroke:#000000; stroke-linecap:butt; stroke-linejoin:round; stroke-width:4; stroke-opacity:1; fill:none" points="
  1887.09,871.092 1752.66,824.607 1985.5,751.283 2119.92,797.769 1887.09,871.092 
  "/>
<path clip-path="url(#clip952)" d="
M2119.92 797.769 L1985.5 751.283 L2218.33 677.96 L2352.76 724.445  Z
  " fill="#ffffff" fill-rule="evenodd" fill-opacity="1"/>
<polyline clip-path="url(#clip952)" style="stroke:#000000; stroke-linecap:butt; stroke-linejoin:round; stroke-width:4; stroke-opacity:1; fill:none" points="
  2119.92,797.769 1985.5,751.283 2218.33,677.96 2352.76,724.445 2119.92,797.769 
  "/>
<path clip-path="url(#clip952)" d="
M821.325 1117.9 L686.898 1071.42 L919.732 998.093 L1054.16 1044.58  Z
  " fill="#ffffff" fill-rule="evenodd" fill-opacity="1"/>
<polyline clip-path="url(#clip952)" style="stroke:#000000; stroke-linecap:butt; stroke-linejoin:round; stroke-width:4; stroke-opacity:1; fill:none" points="
  821.325,1117.9 686.898,1071.42 919.732,998.093 1054.16,1044.58 821.325,1117.9 
  "/>
<path clip-path="url(#clip952)" d="
M1054.16 1044.58 L919.732 998.093 L1152.57 924.769 L1286.99 971.255  Z
  " fill="#ffffff" fill-rule="evenodd" fill-opacity="1"/>
<polyline clip-path="url(#clip952)" style="stroke:#000000; stroke-linecap:butt; stroke-linejoin:round; stroke-width:4; stroke-opacity:1; fill:none" points="
  1054.16,1044.58 919.732,998.093 1152.57,924.769 1286.99,971.255 1054.16,1044.58 
  "/>
<path clip-path="url(#clip952)" d="
M1286.99 971.255 L1152.57 924.769 L1385.4 851.445 L1519.83 897.931  Z
  " fill="#ffffff" fill-rule="evenodd" fill-opacity="1"/>
<polyline clip-path="url(#clip952)" style="stroke:#000000; stroke-linecap:butt; stroke-linejoin:round; stroke-width:4; stroke-opacity:1; fill:none" points="
  1286.99,971.255 1152.57,924.769 1385.4,851.445 1519.83,897.931 1286.99,971.255 
  "/>
<path clip-path="url(#clip952)" d="
M1519.83 897.931 L1385.4 851.445 L1618.23 778.122 L1752.66 824.607  Z
  " fill="#ffffff" fill-rule="evenodd" fill-opacity="1"/>
<polyline clip-path="url(#clip952)" style="stroke:#000000; stroke-linecap:butt; stroke-linejoin:round; stroke-width:4; stroke-opacity:1; fill:none" points="
  1519.83,897.931 1385.4,851.445 1618.23,778.122 1752.66,824.607 1519.83,897.931 
  "/>
<path clip-path="url(#clip952)" d="
M1752.66 824.607 L1618.23 778.122 L1851.07 704.798 L1985.5 751.283  Z
  " fill="#ffffff" fill-rule="evenodd" fill-opacity="1"/>
<polyline clip-path="url(#clip952)" style="stroke:#000000; stroke-linecap:butt; stroke-linejoin:round; stroke-width:4; stroke-opacity:1; fill:none" points="
  1752.66,824.607 1618.23,778.122 1851.07,704.798 1985.5,751.283 1752.66,824.607 
  "/>
<path clip-path="url(#clip952)" d="
M1985.5 751.283 L1851.07 704.798 L2083.9 631.474 L2218.33 677.96  Z
  " fill="#ffffff" fill-rule="evenodd" fill-opacity="1"/>
<polyline clip-path="url(#clip952)" style="stroke:#000000; stroke-linecap:butt; stroke-linejoin:round; stroke-width:4; stroke-opacity:1; fill:none" points="
  1985.5,751.283 1851.07,704.798 2083.9,631.474 2218.33,677.96 1985.5,751.283 
  "/>
<path clip-path="url(#clip952)" d="
M686.898 1071.42 L552.471 1024.93 L785.305 951.608 L919.732 998.093  Z
  " fill="#ffffff" fill-rule="evenodd" fill-opacity="1"/>
<polyline clip-path="url(#clip952)" style="stroke:#000000; stroke-linecap:butt; stroke-linejoin:round; stroke-width:4; stroke-opacity:1; fill:none" points="
  686.898,1071.42 552.471,1024.93 785.305,951.608 919.732,998.093 686.898,1071.42 
  "/>
<path clip-path="url(#clip952)" d="
M919.732 998.093 L785.305 951.608 L1018.14 878.284 L1152.57 924.769  Z
  " fill="#ffffff" fill-rule="evenodd" fill-opacity="1"/>
<polyline clip-path="url(#clip952)" style="stroke:#000000; stroke-linecap:butt; stroke-linejoin:round; stroke-width:4; stroke-opacity:1; fill:none" points="
  919.732,998.093 785.305,951.608 1018.14,878.284 1152.57,924.769 919.732,998.093 
  "/>
<path clip-path="url(#clip952)" d="
M1152.57 924.769 L1018.14 878.284 L1250.97 804.96 L1385.4 851.445  Z
  " fill="#ffffff" fill-rule="evenodd" fill-opacity="1"/>
<polyline clip-path="url(#clip952)" style="stroke:#000000; stroke-linecap:butt; stroke-linejoin:round; stroke-width:4; stroke-opacity:1; fill:none" points="
  1152.57,924.769 1018.14,878.284 1250.97,804.96 1385.4,851.445 1152.57,924.769 
  "/>
<path clip-path="url(#clip952)" d="
M1385.4 851.445 L1250.97 804.96 L1483.81 731.636 L1618.23 778.122  Z
  " fill="#ffffff" fill-rule="evenodd" fill-opacity="1"/>
<polyline clip-path="url(#clip952)" style="stroke:#000000; stroke-linecap:butt; stroke-linejoin:round; stroke-width:4; stroke-opacity:1; fill:none" points="
  1385.4,851.445 1250.97,804.96 1483.81,731.636 1618.23,778.122 1385.4,851.445 
  "/>
<path clip-path="url(#clip952)" d="
M1618.23 778.122 L1483.81 731.636 L1716.64 658.312 L1851.07 704.798  Z
  " fill="#ffffff" fill-rule="evenodd" fill-opacity="1"/>
<polyline clip-path="url(#clip952)" style="stroke:#000000; stroke-linecap:butt; stroke-linejoin:round; stroke-width:4; stroke-opacity:1; fill:none" points="
  1618.23,778.122 1483.81,731.636 1716.64,658.312 1851.07,704.798 1618.23,778.122 
  "/>
<path clip-path="url(#clip952)" d="
M1851.07 704.798 L1716.64 658.312 L1949.48 584.989 L2083.9 631.474  Z
  " fill="#ffffff" fill-rule="evenodd" fill-opacity="1"/>
<polyline clip-path="url(#clip952)" style="stroke:#000000; stroke-linecap:butt; stroke-linejoin:round; stroke-width:4; stroke-opacity:1; fill:none" points="
  1851.07,704.798 1716.64,658.312 1949.48,584.989 2083.9,631.474 1851.07,704.798 
  "/>
<path clip-path="url(#clip952)" d="
M552.471 1024.93 L418.044 978.446 L650.879 905.122 L785.305 951.608  Z
  " fill="#ffffff" fill-rule="evenodd" fill-opacity="1"/>
<polyline clip-path="url(#clip952)" style="stroke:#000000; stroke-linecap:butt; stroke-linejoin:round; stroke-width:4; stroke-opacity:1; fill:none" points="
  552.471,1024.93 418.044,978.446 650.879,905.122 785.305,951.608 552.471,1024.93 
  "/>
<path clip-path="url(#clip952)" d="
M785.305 951.608 L650.879 905.122 L883.713 831.798 L1018.14 878.284  Z
  " fill="#ffffff" fill-rule="evenodd" fill-opacity="1"/>
<polyline clip-path="url(#clip952)" style="stroke:#000000; stroke-linecap:butt; stroke-linejoin:round; stroke-width:4; stroke-opacity:1; fill:none" points="
  785.305,951.608 650.879,905.122 883.713,831.798 1018.14,878.284 785.305,951.608 
  "/>
<path clip-path="url(#clip952)" d="
M1018.14 878.284 L883.713 831.798 L1116.55 758.475 L1250.97 804.96  Z
  " fill="#ffffff" fill-rule="evenodd" fill-opacity="1"/>
<polyline clip-path="url(#clip952)" style="stroke:#000000; stroke-linecap:butt; stroke-linejoin:round; stroke-width:4; stroke-opacity:1; fill:none" points="
  1018.14,878.284 883.713,831.798 1116.55,758.475 1250.97,804.96 1018.14,878.284 
  "/>
<path clip-path="url(#clip952)" d="
M1250.97 804.96 L1116.55 758.475 L1349.38 685.151 L1483.81 731.636  Z
  " fill="#ffffff" fill-rule="evenodd" fill-opacity="1"/>
<polyline clip-path="url(#clip952)" style="stroke:#000000; stroke-linecap:butt; stroke-linejoin:round; stroke-width:4; stroke-opacity:1; fill:none" points="
  1250.97,804.96 1116.55,758.475 1349.38,685.151 1483.81,731.636 1250.97,804.96 
  "/>
<path clip-path="url(#clip952)" d="
M1483.81 731.636 L1349.38 685.151 L1582.21 611.827 L1716.64 658.312  Z
  " fill="#ffffff" fill-rule="evenodd" fill-opacity="1"/>
<polyline clip-path="url(#clip952)" style="stroke:#000000; stroke-linecap:butt; stroke-linejoin:round; stroke-width:4; stroke-opacity:1; fill:none" points="
  1483.81,731.636 1349.38,685.151 1582.21,611.827 1716.64,658.312 1483.81,731.636 
  "/>
<path clip-path="url(#clip952)" d="
M1716.64 658.312 L1582.21 611.827 L1815.05 538.503 L1949.48 584.989  Z
  " fill="#ffffff" fill-rule="evenodd" fill-opacity="1"/>
<polyline clip-path="url(#clip952)" style="stroke:#000000; stroke-linecap:butt; stroke-linejoin:round; stroke-width:4; stroke-opacity:1; fill:none" points="
  1716.64,658.312 1582.21,611.827 1815.05,538.503 1949.48,584.989 1716.64,658.312 
  "/>
<path clip-path="url(#clip952)" d="
M418.044 978.446 L283.618 931.96 L516.452 858.637 L650.879 905.122  Z
  " fill="#ffffff" fill-rule="evenodd" fill-opacity="1"/>
<polyline clip-path="url(#clip952)" style="stroke:#000000; stroke-linecap:butt; stroke-linejoin:round; stroke-width:4; stroke-opacity:1; fill:none" points="
  418.044,978.446 283.618,931.96 516.452,858.637 650.879,905.122 418.044,978.446 
  "/>
<path clip-path="url(#clip952)" d="
M650.879 905.122 L516.452 858.637 L749.286 785.313 L883.713 831.798  Z
  " fill="#ffffff" fill-rule="evenodd" fill-opacity="1"/>
<polyline clip-path="url(#clip952)" style="stroke:#000000; stroke-linecap:butt; stroke-linejoin:round; stroke-width:4; stroke-opacity:1; fill:none" points="
  650.879,905.122 516.452,858.637 749.286,785.313 883.713,831.798 650.879,905.122 
  "/>
<path clip-path="url(#clip952)" d="
M883.713 831.798 L749.286 785.313 L982.12 711.989 L1116.55 758.475  Z
  " fill="#ffffff" fill-rule="evenodd" fill-opacity="1"/>
<polyline clip-path="url(#clip952)" style="stroke:#000000; stroke-linecap:butt; stroke-linejoin:round; stroke-width:4; stroke-opacity:1; fill:none" points="
  883.713,831.798 749.286,785.313 982.12,711.989 1116.55,758.475 883.713,831.798 
  "/>
<path clip-path="url(#clip952)" d="
M1116.55 758.475 L982.12 711.989 L1214.95 638.665 L1349.38 685.151  Z
  " fill="#ffffff" fill-rule="evenodd" fill-opacity="1"/>
<polyline clip-path="url(#clip952)" style="stroke:#000000; stroke-linecap:butt; stroke-linejoin:round; stroke-width:4; stroke-opacity:1; fill:none" points="
  1116.55,758.475 982.12,711.989 1214.95,638.665 1349.38,685.151 1116.55,758.475 
  "/>
<path clip-path="url(#clip952)" d="
M1349.38 685.151 L1214.95 638.665 L1447.79 565.342 L1582.21 611.827  Z
  " fill="#ffffff" fill-rule="evenodd" fill-opacity="1"/>
<polyline clip-path="url(#clip952)" style="stroke:#000000; stroke-linecap:butt; stroke-linejoin:round; stroke-width:4; stroke-opacity:1; fill:none" points="
  1349.38,685.151 1214.95,638.665 1447.79,565.342 1582.21,611.827 1349.38,685.151 
  "/>
<path clip-path="url(#clip952)" d="
M1582.21 611.827 L1447.79 565.342 L1680.62 492.018 L1815.05 538.503  Z
  " fill="#ffffff" fill-rule="evenodd" fill-opacity="1"/>
<polyline clip-path="url(#clip952)" style="stroke:#000000; stroke-linecap:butt; stroke-linejoin:round; stroke-width:4; stroke-opacity:1; fill:none" points="
  1582.21,611.827 1447.79,565.342 1680.62,492.018 1815.05,538.503 1582.21,611.827 
  "/>
<path clip-path="url(#clip952)" d="
M283.618 931.96 L149.191 885.475 L382.025 812.151 L516.452 858.637  Z
  " fill="#ffffff" fill-rule="evenodd" fill-opacity="1"/>
<polyline clip-path="url(#clip952)" style="stroke:#000000; stroke-linecap:butt; stroke-linejoin:round; stroke-width:4; stroke-opacity:1; fill:none" points="
  283.618,931.96 149.191,885.475 382.025,812.151 516.452,858.637 283.618,931.96 
  "/>
<path clip-path="url(#clip952)" d="
M516.452 858.637 L382.025 812.151 L614.859 738.828 L749.286 785.313  Z
  " fill="#ffffff" fill-rule="evenodd" fill-opacity="1"/>
<polyline clip-path="url(#clip952)" style="stroke:#000000; stroke-linecap:butt; stroke-linejoin:round; stroke-width:4; stroke-opacity:1; fill:none" points="
  516.452,858.637 382.025,812.151 614.859,738.828 749.286,785.313 516.452,858.637 
  "/>
<path clip-path="url(#clip952)" d="
M749.286 785.313 L614.859 738.828 L847.693 665.504 L982.12 711.989  Z
  " fill="#ffffff" fill-rule="evenodd" fill-opacity="1"/>
<polyline clip-path="url(#clip952)" style="stroke:#000000; stroke-linecap:butt; stroke-linejoin:round; stroke-width:4; stroke-opacity:1; fill:none" points="
  749.286,785.313 614.859,738.828 847.693,665.504 982.12,711.989 749.286,785.313 
  "/>
<path clip-path="url(#clip952)" d="
M982.12 711.989 L847.693 665.504 L1080.53 592.18 L1214.95 638.665  Z
  " fill="#ffffff" fill-rule="evenodd" fill-opacity="1"/>
<polyline clip-path="url(#clip952)" style="stroke:#000000; stroke-linecap:butt; stroke-linejoin:round; stroke-width:4; stroke-opacity:1; fill:none" points="
  982.12,711.989 847.693,665.504 1080.53,592.18 1214.95,638.665 982.12,711.989 
  "/>
<path clip-path="url(#clip952)" d="
M1214.95 638.665 L1080.53 592.18 L1313.36 518.856 L1447.79 565.342  Z
  " fill="#ffffff" fill-rule="evenodd" fill-opacity="1"/>
<polyline clip-path="url(#clip952)" style="stroke:#000000; stroke-linecap:butt; stroke-linejoin:round; stroke-width:4; stroke-opacity:1; fill:none" points="
  1214.95,638.665 1080.53,592.18 1313.36,518.856 1447.79,565.342 1214.95,638.665 
  "/>
<path clip-path="url(#clip952)" d="
M1447.79 565.342 L1313.36 518.856 L1546.2 445.532 L1680.62 492.018  Z
  " fill="#ffffff" fill-rule="evenodd" fill-opacity="1"/>
<polyline clip-path="url(#clip952)" style="stroke:#000000; stroke-linecap:butt; stroke-linejoin:round; stroke-width:4; stroke-opacity:1; fill:none" points="
  1447.79,565.342 1313.36,518.856 1546.2,445.532 1680.62,492.018 1447.79,565.342 
  "/>
<path clip-path="url(#clip952)" d="
M955.752 1034.27 L821.325 987.788 L1054.16 957.835 L1188.59 1004.32  Z
  " fill="#ffffff" fill-rule="evenodd" fill-opacity="1"/>
<polyline clip-path="url(#clip952)" style="stroke:#000000; stroke-linecap:butt; stroke-linejoin:round; stroke-width:4; stroke-opacity:1; fill:none" points="
  955.752,1034.27 821.325,987.788 1054.16,957.835 1188.59,1004.32 955.752,1034.27 
  "/>
<path clip-path="url(#clip952)" d="
M1188.59 1004.32 L1054.16 957.835 L1286.99 927.883 L1421.42 974.369  Z
  " fill="#ffffff" fill-rule="evenodd" fill-opacity="1"/>
<polyline clip-path="url(#clip952)" style="stroke:#000000; stroke-linecap:butt; stroke-linejoin:round; stroke-width:4; stroke-opacity:1; fill:none" points="
  1188.59,1004.32 1054.16,957.835 1286.99,927.883 1421.42,974.369 1188.59,1004.32 
  "/>
<path clip-path="url(#clip952)" d="
M1421.42 974.369 L1286.99 927.883 L1519.83 897.931 L1654.25 944.416  Z
  " fill="#ffffff" fill-rule="evenodd" fill-opacity="1"/>
<polyline clip-path="url(#clip952)" style="stroke:#000000; stroke-linecap:butt; stroke-linejoin:round; stroke-width:4; stroke-opacity:1; fill:none" points="
  1421.42,974.369 1286.99,927.883 1519.83,897.931 1654.25,944.416 1421.42,974.369 
  "/>
<path clip-path="url(#clip952)" d="
M1654.25 944.416 L1519.83 897.931 L1752.66 867.979 L1887.09 914.464  Z
  " fill="#ffffff" fill-rule="evenodd" fill-opacity="1"/>
<polyline clip-path="url(#clip952)" style="stroke:#000000; stroke-linecap:butt; stroke-linejoin:round; stroke-width:4; stroke-opacity:1; fill:none" points="
  1654.25,944.416 1519.83,897.931 1752.66,867.979 1887.09,914.464 1654.25,944.416 
  "/>
<path clip-path="url(#clip952)" d="
M1887.09 914.464 L1752.66 867.979 L1985.5 838.026 L2119.92 884.512  Z
  " fill="#ffffff" fill-rule="evenodd" fill-opacity="1"/>
<polyline clip-path="url(#clip952)" style="stroke:#000000; stroke-linecap:butt; stroke-linejoin:round; stroke-width:4; stroke-opacity:1; fill:none" points="
  1887.09,914.464 1752.66,867.979 1985.5,838.026 2119.92,884.512 1887.09,914.464 
  "/>
<path clip-path="url(#clip952)" d="
M2119.92 884.512 L1985.5 838.026 L2218.33 808.074 L2352.76 854.559  Z
  " fill="#ffffff" fill-rule="evenodd" fill-opacity="1"/>
<polyline clip-path="url(#clip952)" style="stroke:#000000; stroke-linecap:butt; stroke-linejoin:round; stroke-width:4; stroke-opacity:1; fill:none" points="
  2119.92,884.512 1985.5,838.026 2218.33,808.074 2352.76,854.559 2119.92,884.512 
  "/>
<path clip-path="url(#clip952)" d="
M821.325 987.788 L686.898 941.302 L919.732 911.35 L1054.16 957.835  Z
  " fill="#ffffff" fill-rule="evenodd" fill-opacity="1"/>
<polyline clip-path="url(#clip952)" style="stroke:#000000; stroke-linecap:butt; stroke-linejoin:round; stroke-width:4; stroke-opacity:1; fill:none" points="
  821.325,987.788 686.898,941.302 919.732,911.35 1054.16,957.835 821.325,987.788 
  "/>
<path clip-path="url(#clip952)" d="
M1054.16 957.835 L919.732 911.35 L1152.57 881.398 L1286.99 927.883  Z
  " fill="#ffffff" fill-rule="evenodd" fill-opacity="1"/>
<polyline clip-path="url(#clip952)" style="stroke:#000000; stroke-linecap:butt; stroke-linejoin:round; stroke-width:4; stroke-opacity:1; fill:none" points="
  1054.16,957.835 919.732,911.35 1152.57,881.398 1286.99,927.883 1054.16,957.835 
  "/>
<path clip-path="url(#clip952)" d="
M1286.99 927.883 L1152.57 881.398 L1385.4 851.445 L1519.83 897.931  Z
  " fill="#ffffff" fill-rule="evenodd" fill-opacity="1"/>
<polyline clip-path="url(#clip952)" style="stroke:#000000; stroke-linecap:butt; stroke-linejoin:round; stroke-width:4; stroke-opacity:1; fill:none" points="
  1286.99,927.883 1152.57,881.398 1385.4,851.445 1519.83,897.931 1286.99,927.883 
  "/>
<path clip-path="url(#clip952)" d="
M1519.83 897.931 L1385.4 851.445 L1618.23 821.493 L1752.66 867.979  Z
  " fill="#ffffff" fill-rule="evenodd" fill-opacity="1"/>
<polyline clip-path="url(#clip952)" style="stroke:#000000; stroke-linecap:butt; stroke-linejoin:round; stroke-width:4; stroke-opacity:1; fill:none" points="
  1519.83,897.931 1385.4,851.445 1618.23,821.493 1752.66,867.979 1519.83,897.931 
  "/>
<path clip-path="url(#clip952)" d="
M1752.66 867.979 L1618.23 821.493 L1851.07 791.541 L1985.5 838.026  Z
  " fill="#ffffff" fill-rule="evenodd" fill-opacity="1"/>
<polyline clip-path="url(#clip952)" style="stroke:#000000; stroke-linecap:butt; stroke-linejoin:round; stroke-width:4; stroke-opacity:1; fill:none" points="
  1752.66,867.979 1618.23,821.493 1851.07,791.541 1985.5,838.026 1752.66,867.979 
  "/>
<path clip-path="url(#clip952)" d="
M1985.5 838.026 L1851.07 791.541 L2083.9 761.589 L2218.33 808.074  Z
  " fill="#ffffff" fill-rule="evenodd" fill-opacity="1"/>
<polyline clip-path="url(#clip952)" style="stroke:#000000; stroke-linecap:butt; stroke-linejoin:round; stroke-width:4; stroke-opacity:1; fill:none" points="
  1985.5,838.026 1851.07,791.541 2083.9,761.589 2218.33,808.074 1985.5,838.026 
  "/>
<path clip-path="url(#clip952)" d="
M686.898 941.302 L552.471 894.817 L785.305 864.865 L919.732 911.35  Z
  " fill="#ffffff" fill-rule="evenodd" fill-opacity="1"/>
<polyline clip-path="url(#clip952)" style="stroke:#000000; stroke-linecap:butt; stroke-linejoin:round; stroke-width:4; stroke-opacity:1; fill:none" points="
  686.898,941.302 552.471,894.817 785.305,864.865 919.732,911.35 686.898,941.302 
  "/>
<path clip-path="url(#clip952)" d="
M919.732 911.35 L785.305 864.865 L1018.14 834.912 L1152.57 881.398  Z
  " fill="#ffffff" fill-rule="evenodd" fill-opacity="1"/>
<polyline clip-path="url(#clip952)" style="stroke:#000000; stroke-linecap:butt; stroke-linejoin:round; stroke-width:4; stroke-opacity:1; fill:none" points="
  919.732,911.35 785.305,864.865 1018.14,834.912 1152.57,881.398 919.732,911.35 
  "/>
<path clip-path="url(#clip952)" d="
M1152.57 881.398 L1018.14 834.912 L1250.97 804.96 L1385.4 851.445  Z
  " fill="#ffffff" fill-rule="evenodd" fill-opacity="1"/>
<polyline clip-path="url(#clip952)" style="stroke:#000000; stroke-linecap:butt; stroke-linejoin:round; stroke-width:4; stroke-opacity:1; fill:none" points="
  1152.57,881.398 1018.14,834.912 1250.97,804.96 1385.4,851.445 1152.57,881.398 
  "/>
<path clip-path="url(#clip952)" d="
M1385.4 851.445 L1250.97 804.96 L1483.81 775.008 L1618.23 821.493  Z
  " fill="#ffffff" fill-rule="evenodd" fill-opacity="1"/>
<polyline clip-path="url(#clip952)" style="stroke:#000000; stroke-linecap:butt; stroke-linejoin:round; stroke-width:4; stroke-opacity:1; fill:none" points="
  1385.4,851.445 1250.97,804.96 1483.81,775.008 1618.23,821.493 1385.4,851.445 
  "/>
<path clip-path="url(#clip952)" d="
M1618.23 821.493 L1483.81 775.008 L1716.64 745.055 L1851.07 791.541  Z
  " fill="#ffffff" fill-rule="evenodd" fill-opacity="1"/>
<polyline clip-path="url(#clip952)" style="stroke:#000000; stroke-linecap:butt; stroke-linejoin:round; stroke-width:4; stroke-opacity:1; fill:none" points="
  1618.23,821.493 1483.81,775.008 1716.64,745.055 1851.07,791.541 1618.23,821.493 
  "/>
<path clip-path="url(#clip952)" d="
M1851.07 791.541 L1716.64 745.055 L1949.48 715.103 L2083.9 761.589  Z
  " fill="#ffffff" fill-rule="evenodd" fill-opacity="1"/>
<polyline clip-path="url(#clip952)" style="stroke:#000000; stroke-linecap:butt; stroke-linejoin:round; stroke-width:4; stroke-opacity:1; fill:none" points="
  1851.07,791.541 1716.64,745.055 1949.48,715.103 2083.9,761.589 1851.07,791.541 
  "/>
<path clip-path="url(#clip952)" d="
M552.471 894.817 L418.044 848.331 L650.879 818.379 L785.305 864.865  Z
  " fill="#ffffff" fill-rule="evenodd" fill-opacity="1"/>
<polyline clip-path="url(#clip952)" style="stroke:#000000; stroke-linecap:butt; stroke-linejoin:round; stroke-width:4; stroke-opacity:1; fill:none" points="
  552.471,894.817 418.044,848.331 650.879,818.379 785.305,864.865 552.471,894.817 
  "/>
<path clip-path="url(#clip952)" d="
M785.305 864.865 L650.879 818.379 L883.713 788.427 L1018.14 834.912  Z
  " fill="#ffffff" fill-rule="evenodd" fill-opacity="1"/>
<polyline clip-path="url(#clip952)" style="stroke:#000000; stroke-linecap:butt; stroke-linejoin:round; stroke-width:4; stroke-opacity:1; fill:none" points="
  785.305,864.865 650.879,818.379 883.713,788.427 1018.14,834.912 785.305,864.865 
  "/>
<path clip-path="url(#clip952)" d="
M1018.14 834.912 L883.713 788.427 L1116.55 758.475 L1250.97 804.96  Z
  " fill="#ffffff" fill-rule="evenodd" fill-opacity="1"/>
<polyline clip-path="url(#clip952)" style="stroke:#000000; stroke-linecap:butt; stroke-linejoin:round; stroke-width:4; stroke-opacity:1; fill:none" points="
  1018.14,834.912 883.713,788.427 1116.55,758.475 1250.97,804.96 1018.14,834.912 
  "/>
<path clip-path="url(#clip952)" d="
M1250.97 804.96 L1116.55 758.475 L1349.38 728.522 L1483.81 775.008  Z
  " fill="#ffffff" fill-rule="evenodd" fill-opacity="1"/>
<polyline clip-path="url(#clip952)" style="stroke:#000000; stroke-linecap:butt; stroke-linejoin:round; stroke-width:4; stroke-opacity:1; fill:none" points="
  1250.97,804.96 1116.55,758.475 1349.38,728.522 1483.81,775.008 1250.97,804.96 
  "/>
<path clip-path="url(#clip952)" d="
M1483.81 775.008 L1349.38 728.522 L1582.21 698.57 L1716.64 745.055  Z
  " fill="#ffffff" fill-rule="evenodd" fill-opacity="1"/>
<polyline clip-path="url(#clip952)" style="stroke:#000000; stroke-linecap:butt; stroke-linejoin:round; stroke-width:4; stroke-opacity:1; fill:none" points="
  1483.81,775.008 1349.38,728.522 1582.21,698.57 1716.64,745.055 1483.81,775.008 
  "/>
<path clip-path="url(#clip952)" d="
M1716.64 745.055 L1582.21 698.57 L1815.05 668.618 L1949.48 715.103  Z
  " fill="#ffffff" fill-rule="evenodd" fill-opacity="1"/>
<polyline clip-path="url(#clip952)" style="stroke:#000000; stroke-linecap:butt; stroke-linejoin:round; stroke-width:4; stroke-opacity:1; fill:none" points="
  1716.64,745.055 1582.21,698.57 1815.05,668.618 1949.48,715.103 1716.64,745.055 
  "/>
<path clip-path="url(#clip952)" d="
M418.044 848.331 L283.618 801.846 L516.452 771.894 L650.879 818.379  Z
  " fill="#ffffff" fill-rule="evenodd" fill-opacity="1"/>
<polyline clip-path="url(#clip952)" style="stroke:#000000; stroke-linecap:butt; stroke-linejoin:round; stroke-width:4; stroke-opacity:1; fill:none" points="
  418.044,848.331 283.618,801.846 516.452,771.894 650.879,818.379 418.044,848.331 
  "/>
<path clip-path="url(#clip952)" d="
M650.879 818.379 L516.452 771.894 L749.286 741.941 L883.713 788.427  Z
  " fill="#ffffff" fill-rule="evenodd" fill-opacity="1"/>
<polyline clip-path="url(#clip952)" style="stroke:#000000; stroke-linecap:butt; stroke-linejoin:round; stroke-width:4; stroke-opacity:1; fill:none" points="
  650.879,818.379 516.452,771.894 749.286,741.941 883.713,788.427 650.879,818.379 
  "/>
<path clip-path="url(#clip952)" d="
M883.713 788.427 L749.286 741.941 L982.12 711.989 L1116.55 758.475  Z
  " fill="#ffffff" fill-rule="evenodd" fill-opacity="1"/>
<polyline clip-path="url(#clip952)" style="stroke:#000000; stroke-linecap:butt; stroke-linejoin:round; stroke-width:4; stroke-opacity:1; fill:none" points="
  883.713,788.427 749.286,741.941 982.12,711.989 1116.55,758.475 883.713,788.427 
  "/>
<path clip-path="url(#clip952)" d="
M1116.55 758.475 L982.12 711.989 L1214.95 682.037 L1349.38 728.522  Z
  " fill="#ffffff" fill-rule="evenodd" fill-opacity="1"/>
<polyline clip-path="url(#clip952)" style="stroke:#000000; stroke-linecap:butt; stroke-linejoin:round; stroke-width:4; stroke-opacity:1; fill:none" points="
  1116.55,758.475 982.12,711.989 1214.95,682.037 1349.38,728.522 1116.55,758.475 
  "/>
<path clip-path="url(#clip952)" d="
M1349.38 728.522 L1214.95 682.037 L1447.79 652.085 L1582.21 698.57  Z
  " fill="#ffffff" fill-rule="evenodd" fill-opacity="1"/>
<polyline clip-path="url(#clip952)" style="stroke:#000000; stroke-linecap:butt; stroke-linejoin:round; stroke-width:4; stroke-opacity:1; fill:none" points="
  1349.38,728.522 1214.95,682.037 1447.79,652.085 1582.21,698.57 1349.38,728.522 
  "/>
<path clip-path="url(#clip952)" d="
M1582.21 698.57 L1447.79 652.085 L1680.62 622.132 L1815.05 668.618  Z
  " fill="#ffffff" fill-rule="evenodd" fill-opacity="1"/>
<polyline clip-path="url(#clip952)" style="stroke:#000000; stroke-linecap:butt; stroke-linejoin:round; stroke-width:4; stroke-opacity:1; fill:none" points="
  1582.21,698.57 1447.79,652.085 1680.62,622.132 1815.05,668.618 1582.21,698.57 
  "/>
<path clip-path="url(#clip952)" d="
M283.618 801.846 L149.191 755.361 L382.025 725.408 L516.452 771.894  Z
  " fill="#ffffff" fill-rule="evenodd" fill-opacity="1"/>
<polyline clip-path="url(#clip952)" style="stroke:#000000; stroke-linecap:butt; stroke-linejoin:round; stroke-width:4; stroke-opacity:1; fill:none" points="
  283.618,801.846 149.191,755.361 382.025,725.408 516.452,771.894 283.618,801.846 
  "/>
<path clip-path="url(#clip952)" d="
M516.452 771.894 L382.025 725.408 L614.859 695.456 L749.286 741.941  Z
  " fill="#ffffff" fill-rule="evenodd" fill-opacity="1"/>
<polyline clip-path="url(#clip952)" style="stroke:#000000; stroke-linecap:butt; stroke-linejoin:round; stroke-width:4; stroke-opacity:1; fill:none" points="
  516.452,771.894 382.025,725.408 614.859,695.456 749.286,741.941 516.452,771.894 
  "/>
<path clip-path="url(#clip952)" d="
M749.286 741.941 L614.859 695.456 L847.693 665.504 L982.12 711.989  Z
  " fill="#ffffff" fill-rule="evenodd" fill-opacity="1"/>
<polyline clip-path="url(#clip952)" style="stroke:#000000; stroke-linecap:butt; stroke-linejoin:round; stroke-width:4; stroke-opacity:1; fill:none" points="
  749.286,741.941 614.859,695.456 847.693,665.504 982.12,711.989 749.286,741.941 
  "/>
<path clip-path="url(#clip952)" d="
M982.12 711.989 L847.693 665.504 L1080.53 635.551 L1214.95 682.037  Z
  " fill="#ffffff" fill-rule="evenodd" fill-opacity="1"/>
<polyline clip-path="url(#clip952)" style="stroke:#000000; stroke-linecap:butt; stroke-linejoin:round; stroke-width:4; stroke-opacity:1; fill:none" points="
  982.12,711.989 847.693,665.504 1080.53,635.551 1214.95,682.037 982.12,711.989 
  "/>
<path clip-path="url(#clip952)" d="
M1214.95 682.037 L1080.53 635.551 L1313.36 605.599 L1447.79 652.085  Z
  " fill="#ffffff" fill-rule="evenodd" fill-opacity="1"/>
<polyline clip-path="url(#clip952)" style="stroke:#000000; stroke-linecap:butt; stroke-linejoin:round; stroke-width:4; stroke-opacity:1; fill:none" points="
  1214.95,682.037 1080.53,635.551 1313.36,605.599 1447.79,652.085 1214.95,682.037 
  "/>
<path clip-path="url(#clip952)" d="
M1447.79 652.085 L1313.36 605.599 L1546.2 575.647 L1680.62 622.132  Z
  " fill="#ffffff" fill-rule="evenodd" fill-opacity="1"/>
<polyline clip-path="url(#clip952)" style="stroke:#000000; stroke-linecap:butt; stroke-linejoin:round; stroke-width:4; stroke-opacity:1; fill:none" points="
  1447.79,652.085 1313.36,605.599 1546.2,575.647 1680.62,622.132 1447.79,652.085 
  "/>
</svg>
