<?xml version="1.0" encoding="utf-8"?>
<svg xmlns="http://www.w3.org/2000/svg" xmlns:xlink="http://www.w3.org/1999/xlink" width="600" height="400" viewBox="0 0 2400 1600">
<defs>
  <clipPath id="clip060">
    <rect x="0" y="0" width="2400" height="1600"/>
  </clipPath>
</defs>
<path clip-path="url(#clip060)" d="
M0 1600 L2400 1600 L2400 0 L0 0  Z
  " fill="#ffffff" fill-rule="evenodd" fill-opacity="1"/>
<defs>
  <clipPath id="clip061">
    <rect x="480" y="0" width="1681" height="1600"/>
  </clipPath>
</defs>
<defs>
  <clipPath id="clip062">
    <rect x="193" y="123" width="2160" height="1364"/>
  </clipPath>
</defs>
<path clip-path="url(#clip062)" d="
M1104.33 869.858 L1104.33 762.706 L1228.06 709.13 L1442.36 740.062 L1442.36 847.214 L1318.63 900.79 L1104.33 869.858  Z
  " fill="#ffffff" fill-rule="evenodd" fill-opacity="1"/>
<polyline clip-path="url(#clip062)" style="stroke:#000000; stroke-linecap:round; stroke-linejoin:round; stroke-width:2; stroke-opacity:0.1; fill:none" points="
  755.161,1223.28 1148.62,882.535 
  "/>
<polyline clip-path="url(#clip062)" style="stroke:#000000; stroke-linecap:round; stroke-linejoin:round; stroke-width:2; stroke-opacity:0.1; fill:none" points="
  1148.62,882.535 1148.62,201.048 
  "/>
<polyline clip-path="url(#clip062)" style="stroke:#000000; stroke-linecap:round; stroke-linejoin:round; stroke-width:2; stroke-opacity:0.1; fill:none" points="
  862.313,1254.21 1255.77,913.468 
  "/>
<polyline clip-path="url(#clip062)" style="stroke:#000000; stroke-linecap:round; stroke-linejoin:round; stroke-width:2; stroke-opacity:0.1; fill:none" points="
  1255.77,913.468 1255.77,231.98 
  "/>
<polyline clip-path="url(#clip062)" style="stroke:#000000; stroke-linecap:round; stroke-linejoin:round; stroke-width:2; stroke-opacity:0.1; fill:none" points="
  969.465,1285.14 1362.92,944.4 
  "/>
<polyline clip-path="url(#clip062)" style="stroke:#000000; stroke-linecap:round; stroke-linejoin:round; stroke-width:2; stroke-opacity:0.1; fill:none" points="
  1362.92,944.4 1362.92,262.912 
  "/>
<polyline clip-path="url(#clip062)" style="stroke:#000000; stroke-linecap:round; stroke-linejoin:round; stroke-width:2; stroke-opacity:0.1; fill:none" points="
  1076.62,1316.08 1470.07,975.332 
  "/>
<polyline clip-path="url(#clip062)" style="stroke:#000000; stroke-linecap:round; stroke-linejoin:round; stroke-width:2; stroke-opacity:0.1; fill:none" points="
  1470.07,975.332 1470.07,293.844 
  "/>
<polyline clip-path="url(#clip062)" style="stroke:#000000; stroke-linecap:round; stroke-linejoin:round; stroke-width:2; stroke-opacity:0.1; fill:none" points="
  1183.77,1347.01 1577.23,1006.26 
  "/>
<polyline clip-path="url(#clip062)" style="stroke:#000000; stroke-linecap:round; stroke-linejoin:round; stroke-width:2; stroke-opacity:0.1; fill:none" points="
  1577.23,1006.26 1577.23,324.776 
  "/>
<polyline clip-path="url(#clip062)" style="stroke:#000000; stroke-linecap:round; stroke-linejoin:round; stroke-width:2; stroke-opacity:0.1; fill:none" points="
  1290.92,1377.94 1684.38,1037.2 
  "/>
<polyline clip-path="url(#clip062)" style="stroke:#000000; stroke-linecap:round; stroke-linejoin:round; stroke-width:2; stroke-opacity:0.1; fill:none" points="
  1684.38,1037.2 1684.38,355.708 
  "/>
<polyline clip-path="url(#clip062)" style="stroke:#000000; stroke-linecap:round; stroke-linejoin:round; stroke-width:2; stroke-opacity:0.1; fill:none" points="
  1398.07,1408.87 1791.53,1068.13 
  "/>
<polyline clip-path="url(#clip062)" style="stroke:#000000; stroke-linecap:round; stroke-linejoin:round; stroke-width:2; stroke-opacity:0.1; fill:none" points="
  1791.53,1068.13 1791.53,386.641 
  "/>
<polyline clip-path="url(#clip060)" style="stroke:#000000; stroke-linecap:round; stroke-linejoin:round; stroke-width:4; stroke-opacity:1; fill:none" points="
  735.873,1217.71 1417.36,1414.44 
  "/>
<polyline clip-path="url(#clip060)" style="stroke:#000000; stroke-linecap:round; stroke-linejoin:round; stroke-width:4; stroke-opacity:1; fill:none" points="
  755.161,1223.28 759.882,1219.19 
  "/>
<polyline clip-path="url(#clip060)" style="stroke:#000000; stroke-linecap:round; stroke-linejoin:round; stroke-width:4; stroke-opacity:1; fill:none" points="
  862.313,1254.21 867.034,1250.12 
  "/>
<polyline clip-path="url(#clip060)" style="stroke:#000000; stroke-linecap:round; stroke-linejoin:round; stroke-width:4; stroke-opacity:1; fill:none" points="
  969.465,1285.14 974.187,1281.05 
  "/>
<polyline clip-path="url(#clip060)" style="stroke:#000000; stroke-linecap:round; stroke-linejoin:round; stroke-width:4; stroke-opacity:1; fill:none" points="
  1076.62,1316.08 1081.34,1311.99 
  "/>
<polyline clip-path="url(#clip060)" style="stroke:#000000; stroke-linecap:round; stroke-linejoin:round; stroke-width:4; stroke-opacity:1; fill:none" points="
  1183.77,1347.01 1188.49,1342.92 
  "/>
<polyline clip-path="url(#clip060)" style="stroke:#000000; stroke-linecap:round; stroke-linejoin:round; stroke-width:4; stroke-opacity:1; fill:none" points="
  1290.92,1377.94 1295.64,1373.85 
  "/>
<polyline clip-path="url(#clip060)" style="stroke:#000000; stroke-linecap:round; stroke-linejoin:round; stroke-width:4; stroke-opacity:1; fill:none" points="
  1398.07,1408.87 1402.8,1404.78 
  "/>
<path clip-path="url(#clip060)" d="M689.982 1252.24 L719.658 1252.24 L719.658 1256.17 L689.982 1256.17 L689.982 1252.24 Z" fill="#000000" fill-rule="evenodd" fill-opacity="1" /><path clip-path="url(#clip060)" d="M743.917 1250.43 Q747.273 1251.15 749.148 1253.42 Q751.047 1255.68 751.047 1259.02 Q751.047 1264.13 747.528 1266.93 Q744.01 1269.74 737.528 1269.74 Q735.352 1269.74 733.037 1269.3 Q730.746 1268.88 728.292 1268.02 L728.292 1263.51 Q730.236 1264.64 732.551 1265.22 Q734.866 1265.8 737.389 1265.8 Q741.787 1265.8 744.079 1264.06 Q746.394 1262.33 746.394 1259.02 Q746.394 1255.96 744.241 1254.25 Q742.111 1252.51 738.292 1252.51 L734.264 1252.51 L734.264 1248.67 L738.477 1248.67 Q741.926 1248.67 743.755 1247.3 Q745.584 1245.92 745.584 1243.32 Q745.584 1240.66 743.685 1239.25 Q741.81 1237.81 738.292 1237.81 Q736.371 1237.81 734.172 1238.23 Q731.973 1238.65 729.334 1239.53 L729.334 1235.36 Q731.996 1234.62 734.31 1234.25 Q736.648 1233.88 738.709 1233.88 Q744.033 1233.88 747.135 1236.31 Q750.236 1238.72 750.236 1242.84 Q750.236 1245.71 748.593 1247.7 Q746.949 1249.67 743.917 1250.43 Z" fill="#000000" fill-rule="evenodd" fill-opacity="1" /><path clip-path="url(#clip060)" d="M798.083 1283.17 L827.759 1283.17 L827.759 1287.1 L798.083 1287.1 L798.083 1283.17 Z" fill="#000000" fill-rule="evenodd" fill-opacity="1" /><path clip-path="url(#clip060)" d="M841.879 1296.06 L858.199 1296.06 L858.199 1300 L836.254 1300 L836.254 1296.06 Q838.916 1293.31 843.5 1288.68 Q848.106 1284.02 849.287 1282.68 Q851.532 1280.16 852.412 1278.42 Q853.314 1276.66 853.314 1274.97 Q853.314 1272.22 851.37 1270.48 Q849.449 1268.75 846.347 1268.75 Q844.148 1268.75 841.694 1269.51 Q839.264 1270.27 836.486 1271.83 L836.486 1267.1 Q839.31 1265.97 841.764 1265.39 Q844.217 1264.81 846.254 1264.81 Q851.625 1264.81 854.819 1267.5 Q858.014 1270.18 858.014 1274.67 Q858.014 1276.8 857.203 1278.72 Q856.416 1280.62 854.31 1283.21 Q853.731 1283.89 850.629 1287.1 Q847.527 1290.3 841.879 1296.06 Z" fill="#000000" fill-rule="evenodd" fill-opacity="1" /><path clip-path="url(#clip060)" d="M904.865 1314.1 L934.541 1314.1 L934.541 1318.03 L904.865 1318.03 L904.865 1314.1 Z" fill="#000000" fill-rule="evenodd" fill-opacity="1" /><path clip-path="url(#clip060)" d="M945.444 1326.99 L953.082 1326.99 L953.082 1300.63 L944.772 1302.29 L944.772 1298.04 L953.036 1296.37 L957.712 1296.37 L957.712 1326.99 L965.351 1326.99 L965.351 1330.93 L945.444 1330.93 L945.444 1326.99 Z" fill="#000000" fill-rule="evenodd" fill-opacity="1" /><path clip-path="url(#clip060)" d="M1060.56 1330.38 Q1056.95 1330.38 1055.12 1333.94 Q1053.31 1337.49 1053.31 1344.62 Q1053.31 1351.72 1055.12 1355.29 Q1056.95 1358.83 1060.56 1358.83 Q1064.19 1358.83 1066 1355.29 Q1067.83 1351.72 1067.83 1344.62 Q1067.83 1337.49 1066 1333.94 Q1064.19 1330.38 1060.56 1330.38 M1060.56 1326.68 Q1066.37 1326.68 1069.42 1331.28 Q1072.5 1335.87 1072.5 1344.62 Q1072.5 1353.34 1069.42 1357.95 Q1066.37 1362.53 1060.56 1362.53 Q1054.75 1362.53 1051.67 1357.95 Q1048.61 1353.34 1048.61 1344.62 Q1048.61 1335.87 1051.67 1331.28 Q1054.75 1326.68 1060.56 1326.68 Z" fill="#000000" fill-rule="evenodd" fill-opacity="1" /><path clip-path="url(#clip060)" d="M1159.75 1388.86 L1167.39 1388.86 L1167.39 1362.49 L1159.08 1364.16 L1159.08 1359.9 L1167.34 1358.23 L1172.02 1358.23 L1172.02 1388.86 L1179.66 1388.86 L1179.66 1392.79 L1159.75 1392.79 L1159.75 1388.86 Z" fill="#000000" fill-rule="evenodd" fill-opacity="1" /><path clip-path="url(#clip060)" d="M1270.49 1419.79 L1286.81 1419.79 L1286.81 1423.72 L1264.86 1423.72 L1264.86 1419.79 Q1267.53 1417.04 1272.11 1412.41 Q1276.71 1407.75 1277.9 1406.41 Q1280.14 1403.89 1281.02 1402.15 Q1281.92 1400.39 1281.92 1398.7 Q1281.92 1395.95 1279.98 1394.21 Q1278.06 1392.48 1274.96 1392.48 Q1272.76 1392.48 1270.3 1393.24 Q1267.87 1394 1265.09 1395.55 L1265.09 1390.83 Q1267.92 1389.7 1270.37 1389.12 Q1272.83 1388.54 1274.86 1388.54 Q1280.23 1388.54 1283.43 1391.23 Q1286.62 1393.91 1286.62 1398.4 Q1286.62 1400.53 1285.81 1402.45 Q1285.03 1404.35 1282.92 1406.94 Q1282.34 1407.61 1279.24 1410.83 Q1276.14 1414.03 1270.49 1419.79 Z" fill="#000000" fill-rule="evenodd" fill-opacity="1" /><path clip-path="url(#clip060)" d="M1386.83 1436.02 Q1390.19 1436.74 1392.06 1439.01 Q1393.96 1441.28 1393.96 1444.61 Q1393.96 1449.73 1390.44 1452.53 Q1386.92 1455.33 1380.44 1455.33 Q1378.27 1455.33 1375.95 1454.89 Q1373.66 1454.47 1371.21 1453.62 L1371.21 1449.1 Q1373.15 1450.24 1375.46 1450.81 Q1377.78 1451.39 1380.3 1451.39 Q1384.7 1451.39 1386.99 1449.66 Q1389.31 1447.92 1389.31 1444.61 Q1389.31 1441.56 1387.15 1439.84 Q1385.02 1438.11 1381.21 1438.11 L1377.18 1438.11 L1377.18 1434.26 L1381.39 1434.26 Q1384.84 1434.26 1386.67 1432.9 Q1388.5 1431.51 1388.5 1428.92 Q1388.5 1426.25 1386.6 1424.84 Q1384.72 1423.41 1381.21 1423.41 Q1379.28 1423.41 1377.08 1423.82 Q1374.89 1424.24 1372.25 1425.12 L1372.25 1420.95 Q1374.91 1420.21 1377.22 1419.84 Q1379.56 1419.47 1381.62 1419.47 Q1386.95 1419.47 1390.05 1421.9 Q1393.15 1424.31 1393.15 1428.43 Q1393.15 1431.3 1391.51 1433.29 Q1389.86 1435.26 1386.83 1436.02 Z" fill="#000000" fill-rule="evenodd" fill-opacity="1" /><polyline clip-path="url(#clip062)" style="stroke:#000000; stroke-linecap:round; stroke-linejoin:round; stroke-width:2; stroke-opacity:0.1; fill:none" points="
  1459.43,1378.01 777.941,1181.28 
  "/>
<polyline clip-path="url(#clip062)" style="stroke:#000000; stroke-linecap:round; stroke-linejoin:round; stroke-width:2; stroke-opacity:0.1; fill:none" points="
  777.941,1181.28 777.941,499.792 
  "/>
<polyline clip-path="url(#clip062)" style="stroke:#000000; stroke-linecap:round; stroke-linejoin:round; stroke-width:2; stroke-opacity:0.1; fill:none" points="
  1536.76,1311.04 855.272,1114.31 
  "/>
<polyline clip-path="url(#clip062)" style="stroke:#000000; stroke-linecap:round; stroke-linejoin:round; stroke-width:2; stroke-opacity:0.1; fill:none" points="
  855.272,1114.31 855.272,432.822 
  "/>
<polyline clip-path="url(#clip062)" style="stroke:#000000; stroke-linecap:round; stroke-linejoin:round; stroke-width:2; stroke-opacity:0.1; fill:none" points="
  1614.09,1244.07 932.602,1047.34 
  "/>
<polyline clip-path="url(#clip062)" style="stroke:#000000; stroke-linecap:round; stroke-linejoin:round; stroke-width:2; stroke-opacity:0.1; fill:none" points="
  932.602,1047.34 932.602,365.852 
  "/>
<polyline clip-path="url(#clip062)" style="stroke:#000000; stroke-linecap:round; stroke-linejoin:round; stroke-width:2; stroke-opacity:0.1; fill:none" points="
  1691.42,1177.1 1009.93,980.37 
  "/>
<polyline clip-path="url(#clip062)" style="stroke:#000000; stroke-linecap:round; stroke-linejoin:round; stroke-width:2; stroke-opacity:0.1; fill:none" points="
  1009.93,980.37 1009.93,298.882 
  "/>
<polyline clip-path="url(#clip062)" style="stroke:#000000; stroke-linecap:round; stroke-linejoin:round; stroke-width:2; stroke-opacity:0.1; fill:none" points="
  1768.75,1110.13 1087.26,913.399 
  "/>
<polyline clip-path="url(#clip062)" style="stroke:#000000; stroke-linecap:round; stroke-linejoin:round; stroke-width:2; stroke-opacity:0.1; fill:none" points="
  1087.26,913.399 1087.26,231.912 
  "/>
<polyline clip-path="url(#clip060)" style="stroke:#000000; stroke-linecap:round; stroke-linejoin:round; stroke-width:4; stroke-opacity:1; fill:none" points="
  1417.36,1414.44 1810.82,1073.7 
  "/>
<polyline clip-path="url(#clip060)" style="stroke:#000000; stroke-linecap:round; stroke-linejoin:round; stroke-width:4; stroke-opacity:1; fill:none" points="
  1459.43,1378.01 1451.25,1375.65 
  "/>
<polyline clip-path="url(#clip060)" style="stroke:#000000; stroke-linecap:round; stroke-linejoin:round; stroke-width:4; stroke-opacity:1; fill:none" points="
  1536.76,1311.04 1528.58,1308.68 
  "/>
<polyline clip-path="url(#clip060)" style="stroke:#000000; stroke-linecap:round; stroke-linejoin:round; stroke-width:4; stroke-opacity:1; fill:none" points="
  1614.09,1244.07 1605.91,1241.71 
  "/>
<polyline clip-path="url(#clip060)" style="stroke:#000000; stroke-linecap:round; stroke-linejoin:round; stroke-width:4; stroke-opacity:1; fill:none" points="
  1691.42,1177.1 1683.24,1174.74 
  "/>
<polyline clip-path="url(#clip060)" style="stroke:#000000; stroke-linecap:round; stroke-linejoin:round; stroke-width:4; stroke-opacity:1; fill:none" points="
  1768.75,1110.13 1760.57,1107.77 
  "/>
<path clip-path="url(#clip060)" d="M1470.87 1404.89 L1500.55 1404.89 L1500.55 1408.82 L1470.87 1408.82 L1470.87 1404.89 Z" fill="#000000" fill-rule="evenodd" fill-opacity="1" /><path clip-path="url(#clip060)" d="M1510.69 1387.16 L1529.04 1387.16 L1529.04 1391.09 L1514.97 1391.09 L1514.97 1399.56 Q1515.99 1399.22 1517.01 1399.06 Q1518.03 1398.87 1519.04 1398.87 Q1524.83 1398.87 1528.21 1402.04 Q1531.59 1405.21 1531.59 1410.63 Q1531.59 1416.21 1528.12 1419.31 Q1524.65 1422.39 1518.33 1422.39 Q1516.15 1422.39 1513.88 1422.02 Q1511.64 1421.65 1509.23 1420.91 L1509.23 1416.21 Q1511.31 1417.34 1513.53 1417.9 Q1515.76 1418.45 1518.23 1418.45 Q1522.24 1418.45 1524.58 1416.35 Q1526.91 1414.24 1526.91 1410.63 Q1526.91 1407.02 1524.58 1404.91 Q1522.24 1402.81 1518.23 1402.81 Q1516.36 1402.81 1514.48 1403.22 Q1512.63 1403.64 1510.69 1404.52 L1510.69 1387.16 Z" fill="#000000" fill-rule="evenodd" fill-opacity="1" /><path clip-path="url(#clip060)" d="M1540.8 1415.84 L1545.69 1415.84 L1545.69 1421.72 L1540.8 1421.72 L1540.8 1415.84 Z" fill="#000000" fill-rule="evenodd" fill-opacity="1" /><path clip-path="url(#clip060)" d="M1565.87 1390.24 Q1562.26 1390.24 1560.43 1393.8 Q1558.63 1397.34 1558.63 1404.47 Q1558.63 1411.58 1560.43 1415.14 Q1562.26 1418.68 1565.87 1418.68 Q1569.51 1418.68 1571.31 1415.14 Q1573.14 1411.58 1573.14 1404.47 Q1573.14 1397.34 1571.31 1393.8 Q1569.51 1390.24 1565.87 1390.24 M1565.87 1386.53 Q1571.68 1386.53 1574.74 1391.14 Q1577.82 1395.72 1577.82 1404.47 Q1577.82 1413.2 1574.74 1417.81 Q1571.68 1422.39 1565.87 1422.39 Q1560.06 1422.39 1556.98 1417.81 Q1553.93 1413.2 1553.93 1404.47 Q1553.93 1395.72 1556.98 1391.14 Q1560.06 1386.53 1565.87 1386.53 Z" fill="#000000" fill-rule="evenodd" fill-opacity="1" /><path clip-path="url(#clip060)" d="M1548.2 1337.92 L1577.88 1337.92 L1577.88 1341.85 L1548.2 1341.85 L1548.2 1337.92 Z" fill="#000000" fill-rule="evenodd" fill-opacity="1" /><path clip-path="url(#clip060)" d="M1592 1350.81 L1608.32 1350.81 L1608.32 1354.75 L1586.37 1354.75 L1586.37 1350.81 Q1589.04 1348.06 1593.62 1343.43 Q1598.23 1338.77 1599.41 1337.43 Q1601.65 1334.91 1602.53 1333.17 Q1603.43 1331.41 1603.43 1329.72 Q1603.43 1326.97 1601.49 1325.23 Q1599.57 1323.5 1596.47 1323.5 Q1594.27 1323.5 1591.81 1324.26 Q1589.38 1325.02 1586.61 1326.58 L1586.61 1321.85 Q1589.43 1320.72 1591.88 1320.14 Q1594.34 1319.56 1596.37 1319.56 Q1601.74 1319.56 1604.94 1322.25 Q1608.13 1324.93 1608.13 1329.42 Q1608.13 1331.55 1607.32 1333.47 Q1606.54 1335.37 1604.43 1337.96 Q1603.85 1338.64 1600.75 1341.85 Q1597.65 1345.05 1592 1350.81 Z" fill="#000000" fill-rule="evenodd" fill-opacity="1" /><path clip-path="url(#clip060)" d="M1618.13 1348.87 L1623.02 1348.87 L1623.02 1354.75 L1618.13 1354.75 L1618.13 1348.87 Z" fill="#000000" fill-rule="evenodd" fill-opacity="1" /><path clip-path="url(#clip060)" d="M1633.25 1320.19 L1651.61 1320.19 L1651.61 1324.12 L1637.53 1324.12 L1637.53 1332.59 Q1638.55 1332.25 1639.57 1332.09 Q1640.59 1331.9 1641.61 1331.9 Q1647.39 1331.9 1650.77 1335.07 Q1654.15 1338.24 1654.15 1343.66 Q1654.15 1349.24 1650.68 1352.34 Q1647.21 1355.42 1640.89 1355.42 Q1638.71 1355.42 1636.44 1355.05 Q1634.2 1354.68 1631.79 1353.94 L1631.79 1349.24 Q1633.87 1350.37 1636.1 1350.93 Q1638.32 1351.48 1640.8 1351.48 Q1644.8 1351.48 1647.14 1349.38 Q1649.48 1347.27 1649.48 1343.66 Q1649.48 1340.05 1647.14 1337.94 Q1644.8 1335.84 1640.8 1335.84 Q1638.92 1335.84 1637.05 1336.25 Q1635.19 1336.67 1633.25 1337.55 L1633.25 1320.19 Z" fill="#000000" fill-rule="evenodd" fill-opacity="1" /><path clip-path="url(#clip060)" d="M1637.48 1256.3 Q1633.87 1256.3 1632.04 1259.86 Q1630.23 1263.4 1630.23 1270.53 Q1630.23 1277.64 1632.04 1281.2 Q1633.87 1284.74 1637.48 1284.74 Q1641.11 1284.74 1642.92 1281.2 Q1644.75 1277.64 1644.75 1270.53 Q1644.75 1263.4 1642.92 1259.86 Q1641.11 1256.3 1637.48 1256.3 M1637.48 1252.59 Q1643.29 1252.59 1646.34 1257.2 Q1649.42 1261.78 1649.42 1270.53 Q1649.42 1279.26 1646.34 1283.86 Q1643.29 1288.45 1637.48 1288.45 Q1631.67 1288.45 1628.59 1283.86 Q1625.53 1279.26 1625.53 1270.53 Q1625.53 1261.78 1628.59 1257.2 Q1631.67 1252.59 1637.48 1252.59 Z" fill="#000000" fill-rule="evenodd" fill-opacity="1" /><path clip-path="url(#clip060)" d="M1657.64 1281.9 L1662.52 1281.9 L1662.52 1287.78 L1657.64 1287.78 L1657.64 1281.9 Z" fill="#000000" fill-rule="evenodd" fill-opacity="1" /><path clip-path="url(#clip060)" d="M1682.71 1256.3 Q1679.1 1256.3 1677.27 1259.86 Q1675.46 1263.4 1675.46 1270.53 Q1675.46 1277.64 1677.27 1281.2 Q1679.1 1284.74 1682.71 1284.74 Q1686.34 1284.74 1688.15 1281.2 Q1689.98 1277.64 1689.98 1270.53 Q1689.98 1263.4 1688.15 1259.86 Q1686.34 1256.3 1682.71 1256.3 M1682.71 1252.59 Q1688.52 1252.59 1691.58 1257.2 Q1694.65 1261.78 1694.65 1270.53 Q1694.65 1279.26 1691.58 1283.86 Q1688.52 1288.45 1682.71 1288.45 Q1676.9 1288.45 1673.82 1283.86 Q1670.77 1279.26 1670.77 1270.53 Q1670.77 1261.78 1673.82 1257.2 Q1676.9 1252.59 1682.71 1252.59 Z" fill="#000000" fill-rule="evenodd" fill-opacity="1" /><path clip-path="url(#clip060)" d="M1708.49 1216.87 L1724.81 1216.87 L1724.81 1220.81 L1702.86 1220.81 L1702.86 1216.87 Q1705.53 1214.12 1710.11 1209.49 Q1714.72 1204.83 1715.9 1203.49 Q1718.14 1200.97 1719.02 1199.23 Q1719.92 1197.47 1719.92 1195.78 Q1719.92 1193.03 1717.98 1191.29 Q1716.06 1189.56 1712.96 1189.56 Q1710.76 1189.56 1708.3 1190.32 Q1705.87 1191.08 1703.1 1192.64 L1703.1 1187.91 Q1705.92 1186.78 1708.37 1186.2 Q1710.83 1185.62 1712.86 1185.62 Q1718.23 1185.62 1721.43 1188.31 Q1724.62 1190.99 1724.62 1195.48 Q1724.62 1197.61 1723.81 1199.53 Q1723.03 1201.43 1720.92 1204.02 Q1720.34 1204.7 1717.24 1207.91 Q1714.14 1211.11 1708.49 1216.87 Z" fill="#000000" fill-rule="evenodd" fill-opacity="1" /><path clip-path="url(#clip060)" d="M1734.62 1214.93 L1739.51 1214.93 L1739.51 1220.81 L1734.62 1220.81 L1734.62 1214.93 Z" fill="#000000" fill-rule="evenodd" fill-opacity="1" /><path clip-path="url(#clip060)" d="M1749.74 1186.25 L1768.1 1186.25 L1768.1 1190.18 L1754.02 1190.18 L1754.02 1198.65 Q1755.04 1198.31 1756.06 1198.14 Q1757.08 1197.96 1758.1 1197.96 Q1763.88 1197.96 1767.26 1201.13 Q1770.64 1204.3 1770.64 1209.72 Q1770.64 1215.3 1767.17 1218.4 Q1763.7 1221.48 1757.38 1221.48 Q1755.2 1221.48 1752.93 1221.11 Q1750.69 1220.74 1748.28 1220 L1748.28 1215.3 Q1750.36 1216.43 1752.59 1216.99 Q1754.81 1217.54 1757.29 1217.54 Q1761.29 1217.54 1763.63 1215.44 Q1765.97 1213.33 1765.97 1209.72 Q1765.97 1206.11 1763.63 1204 Q1761.29 1201.89 1757.29 1201.89 Q1755.41 1201.89 1753.54 1202.31 Q1751.68 1202.73 1749.74 1203.61 L1749.74 1186.25 Z" fill="#000000" fill-rule="evenodd" fill-opacity="1" /><path clip-path="url(#clip060)" d="M1781.65 1119.28 L1800.01 1119.28 L1800.01 1123.21 L1785.94 1123.21 L1785.94 1131.68 Q1786.95 1131.34 1787.97 1131.17 Q1788.99 1130.99 1790.01 1130.99 Q1795.8 1130.99 1799.18 1134.16 Q1802.56 1137.33 1802.56 1142.75 Q1802.56 1148.33 1799.08 1151.43 Q1795.61 1154.51 1789.29 1154.51 Q1787.12 1154.51 1784.85 1154.14 Q1782.6 1153.77 1780.19 1153.03 L1780.19 1148.33 Q1782.28 1149.46 1784.5 1150.02 Q1786.72 1150.57 1789.2 1150.57 Q1793.2 1150.57 1795.54 1148.47 Q1797.88 1146.36 1797.88 1142.75 Q1797.88 1139.14 1795.54 1137.03 Q1793.2 1134.92 1789.2 1134.92 Q1787.32 1134.92 1785.45 1135.34 Q1783.6 1135.76 1781.65 1136.64 L1781.65 1119.28 Z" fill="#000000" fill-rule="evenodd" fill-opacity="1" /><path clip-path="url(#clip060)" d="M1811.77 1147.96 L1816.65 1147.96 L1816.65 1153.84 L1811.77 1153.84 L1811.77 1147.96 Z" fill="#000000" fill-rule="evenodd" fill-opacity="1" /><path clip-path="url(#clip060)" d="M1836.84 1122.36 Q1833.23 1122.36 1831.4 1125.92 Q1829.59 1129.46 1829.59 1136.59 Q1829.59 1143.7 1831.4 1147.26 Q1833.23 1150.8 1836.84 1150.8 Q1840.47 1150.8 1842.28 1147.26 Q1844.11 1143.7 1844.11 1136.59 Q1844.11 1129.46 1842.28 1125.92 Q1840.47 1122.36 1836.84 1122.36 M1836.84 1118.65 Q1842.65 1118.65 1845.7 1123.26 Q1848.78 1127.84 1848.78 1136.59 Q1848.78 1145.32 1845.7 1149.92 Q1842.65 1154.51 1836.84 1154.51 Q1831.03 1154.51 1827.95 1149.92 Q1824.89 1145.32 1824.89 1136.59 Q1824.89 1127.84 1827.95 1123.26 Q1831.03 1118.65 1836.84 1118.65 Z" fill="#000000" fill-rule="evenodd" fill-opacity="1" /><polyline clip-path="url(#clip062)" style="stroke:#000000; stroke-linecap:round; stroke-linejoin:round; stroke-width:2; stroke-opacity:0.1; fill:none" points="
  735.873,1144.85 1129.33,804.104 
  "/>
<polyline clip-path="url(#clip062)" style="stroke:#000000; stroke-linecap:round; stroke-linejoin:round; stroke-width:2; stroke-opacity:0.1; fill:none" points="
  1129.33,804.104 1810.82,1000.83 
  "/>
<polyline clip-path="url(#clip062)" style="stroke:#000000; stroke-linecap:round; stroke-linejoin:round; stroke-width:2; stroke-opacity:0.1; fill:none" points="
  735.873,1010.91 1129.33,670.164 
  "/>
<polyline clip-path="url(#clip062)" style="stroke:#000000; stroke-linecap:round; stroke-linejoin:round; stroke-width:2; stroke-opacity:0.1; fill:none" points="
  1129.33,670.164 1810.82,866.893 
  "/>
<polyline clip-path="url(#clip062)" style="stroke:#000000; stroke-linecap:round; stroke-linejoin:round; stroke-width:2; stroke-opacity:0.1; fill:none" points="
  735.873,876.968 1129.33,536.224 
  "/>
<polyline clip-path="url(#clip062)" style="stroke:#000000; stroke-linecap:round; stroke-linejoin:round; stroke-width:2; stroke-opacity:0.1; fill:none" points="
  1129.33,536.224 1810.82,732.952 
  "/>
<polyline clip-path="url(#clip062)" style="stroke:#000000; stroke-linecap:round; stroke-linejoin:round; stroke-width:2; stroke-opacity:0.1; fill:none" points="
  735.873,743.027 1129.33,402.284 
  "/>
<polyline clip-path="url(#clip062)" style="stroke:#000000; stroke-linecap:round; stroke-linejoin:round; stroke-width:2; stroke-opacity:0.1; fill:none" points="
  1129.33,402.284 1810.82,599.012 
  "/>
<polyline clip-path="url(#clip062)" style="stroke:#000000; stroke-linecap:round; stroke-linejoin:round; stroke-width:2; stroke-opacity:0.1; fill:none" points="
  735.873,609.087 1129.33,268.343 
  "/>
<polyline clip-path="url(#clip062)" style="stroke:#000000; stroke-linecap:round; stroke-linejoin:round; stroke-width:2; stroke-opacity:0.1; fill:none" points="
  1129.33,268.343 1810.82,465.072 
  "/>
<polyline clip-path="url(#clip060)" style="stroke:#000000; stroke-linecap:round; stroke-linejoin:round; stroke-width:4; stroke-opacity:1; fill:none" points="
  735.873,1217.71 735.873,536.224 
  "/>
<polyline clip-path="url(#clip060)" style="stroke:#000000; stroke-linecap:round; stroke-linejoin:round; stroke-width:4; stroke-opacity:1; fill:none" points="
  735.873,1144.85 740.595,1140.76 
  "/>
<polyline clip-path="url(#clip060)" style="stroke:#000000; stroke-linecap:round; stroke-linejoin:round; stroke-width:4; stroke-opacity:1; fill:none" points="
  735.873,1010.91 740.595,1006.82 
  "/>
<polyline clip-path="url(#clip060)" style="stroke:#000000; stroke-linecap:round; stroke-linejoin:round; stroke-width:4; stroke-opacity:1; fill:none" points="
  735.873,876.968 740.595,872.879 
  "/>
<polyline clip-path="url(#clip060)" style="stroke:#000000; stroke-linecap:round; stroke-linejoin:round; stroke-width:4; stroke-opacity:1; fill:none" points="
  735.873,743.027 740.595,738.939 
  "/>
<polyline clip-path="url(#clip060)" style="stroke:#000000; stroke-linecap:round; stroke-linejoin:round; stroke-width:4; stroke-opacity:1; fill:none" points="
  735.873,609.087 740.595,604.998 
  "/>
<path clip-path="url(#clip060)" d="M600.13 1145.3 L629.805 1145.3 L629.805 1149.23 L600.13 1149.23 L600.13 1145.3 Z" fill="#000000" fill-rule="evenodd" fill-opacity="1" /><path clip-path="url(#clip060)" d="M639.944 1127.57 L658.301 1127.57 L658.301 1131.5 L644.227 1131.5 L644.227 1139.98 Q645.245 1139.63 646.264 1139.47 Q647.282 1139.28 648.301 1139.28 Q654.088 1139.28 657.467 1142.45 Q660.847 1145.62 660.847 1151.04 Q660.847 1156.62 657.375 1159.72 Q653.902 1162.8 647.583 1162.8 Q645.407 1162.8 643.139 1162.43 Q640.893 1162.06 638.486 1161.32 L638.486 1156.62 Q640.569 1157.75 642.791 1158.31 Q645.014 1158.86 647.49 1158.86 Q651.495 1158.86 653.833 1156.76 Q656.171 1154.65 656.171 1151.04 Q656.171 1147.43 653.833 1145.32 Q651.495 1143.22 647.49 1143.22 Q645.615 1143.22 643.74 1143.63 Q641.889 1144.05 639.944 1144.93 L639.944 1127.57 Z" fill="#000000" fill-rule="evenodd" fill-opacity="1" /><path clip-path="url(#clip060)" d="M670.06 1156.25 L674.944 1156.25 L674.944 1162.13 L670.06 1162.13 L670.06 1156.25 Z" fill="#000000" fill-rule="evenodd" fill-opacity="1" /><path clip-path="url(#clip060)" d="M695.129 1130.65 Q691.518 1130.65 689.689 1134.21 Q687.884 1137.75 687.884 1144.88 Q687.884 1151.99 689.689 1155.55 Q691.518 1159.1 695.129 1159.1 Q698.763 1159.1 700.569 1155.55 Q702.398 1151.99 702.398 1144.88 Q702.398 1137.75 700.569 1134.21 Q698.763 1130.65 695.129 1130.65 M695.129 1126.94 Q700.939 1126.94 703.995 1131.55 Q707.073 1136.13 707.073 1144.88 Q707.073 1153.61 703.995 1158.22 Q700.939 1162.8 695.129 1162.8 Q689.319 1162.8 686.24 1158.22 Q683.185 1153.61 683.185 1144.88 Q683.185 1136.13 686.24 1131.55 Q689.319 1126.94 695.129 1126.94 Z" fill="#000000" fill-rule="evenodd" fill-opacity="1" /><path clip-path="url(#clip060)" d="M601.125 1011.36 L630.801 1011.36 L630.801 1015.29 L601.125 1015.29 L601.125 1011.36 Z" fill="#000000" fill-rule="evenodd" fill-opacity="1" /><path clip-path="url(#clip060)" d="M644.921 1024.25 L661.24 1024.25 L661.24 1028.19 L639.296 1028.19 L639.296 1024.25 Q641.958 1021.5 646.541 1016.87 Q651.148 1012.22 652.328 1010.87 Q654.574 1008.35 655.453 1006.61 Q656.356 1004.85 656.356 1003.16 Q656.356 1000.41 654.412 998.674 Q652.49 996.938 649.389 996.938 Q647.189 996.938 644.736 997.702 Q642.305 998.466 639.527 1000.02 L639.527 995.295 Q642.352 994.16 644.805 993.582 Q647.259 993.003 649.296 993.003 Q654.666 993.003 657.861 995.688 Q661.055 998.373 661.055 1002.86 Q661.055 1004.99 660.245 1006.91 Q659.458 1008.81 657.351 1011.41 Q656.773 1012.08 653.671 1015.29 Q650.569 1018.49 644.921 1024.25 Z" fill="#000000" fill-rule="evenodd" fill-opacity="1" /><path clip-path="url(#clip060)" d="M671.055 1022.31 L675.939 1022.31 L675.939 1028.19 L671.055 1028.19 L671.055 1022.31 Z" fill="#000000" fill-rule="evenodd" fill-opacity="1" /><path clip-path="url(#clip060)" d="M686.171 993.628 L704.527 993.628 L704.527 997.563 L690.453 997.563 L690.453 1006.04 Q691.472 1005.69 692.49 1005.53 Q693.509 1005.34 694.527 1005.34 Q700.314 1005.34 703.694 1008.51 Q707.073 1011.68 707.073 1017.1 Q707.073 1022.68 703.601 1025.78 Q700.129 1028.86 693.81 1028.86 Q691.634 1028.86 689.365 1028.49 Q687.12 1028.12 684.712 1027.38 L684.712 1022.68 Q686.796 1023.81 689.018 1024.37 Q691.24 1024.92 693.717 1024.92 Q697.722 1024.92 700.06 1022.82 Q702.398 1020.71 702.398 1017.1 Q702.398 1013.49 700.06 1011.38 Q697.722 1009.28 693.717 1009.28 Q691.842 1009.28 689.967 1009.69 Q688.115 1010.11 686.171 1010.99 L686.171 993.628 Z" fill="#000000" fill-rule="evenodd" fill-opacity="1" /><path clip-path="url(#clip060)" d="M649.898 862.766 Q646.287 862.766 644.458 866.331 Q642.652 869.873 642.652 877.002 Q642.652 884.109 644.458 887.674 Q646.287 891.215 649.898 891.215 Q653.532 891.215 655.338 887.674 Q657.166 884.109 657.166 877.002 Q657.166 869.873 655.338 866.331 Q653.532 862.766 649.898 862.766 M649.898 859.063 Q655.708 859.063 658.763 863.669 Q661.842 868.252 661.842 877.002 Q661.842 885.729 658.763 890.336 Q655.708 894.919 649.898 894.919 Q644.088 894.919 641.009 890.336 Q637.953 885.729 637.953 877.002 Q637.953 868.252 641.009 863.669 Q644.088 859.063 649.898 859.063 Z" fill="#000000" fill-rule="evenodd" fill-opacity="1" /><path clip-path="url(#clip060)" d="M670.06 888.368 L674.944 888.368 L674.944 894.248 L670.06 894.248 L670.06 888.368 Z" fill="#000000" fill-rule="evenodd" fill-opacity="1" /><path clip-path="url(#clip060)" d="M695.129 862.766 Q691.518 862.766 689.689 866.331 Q687.884 869.873 687.884 877.002 Q687.884 884.109 689.689 887.674 Q691.518 891.215 695.129 891.215 Q698.763 891.215 700.569 887.674 Q702.398 884.109 702.398 877.002 Q702.398 869.873 700.569 866.331 Q698.763 862.766 695.129 862.766 M695.129 859.063 Q700.939 859.063 703.995 863.669 Q707.073 868.252 707.073 877.002 Q707.073 885.729 703.995 890.336 Q700.939 894.919 695.129 894.919 Q689.319 894.919 686.24 890.336 Q683.185 885.729 683.185 877.002 Q683.185 868.252 686.24 863.669 Q689.319 859.063 695.129 859.063 Z" fill="#000000" fill-rule="evenodd" fill-opacity="1" /><path clip-path="url(#clip060)" d="M644.921 756.372 L661.24 756.372 L661.24 760.307 L639.296 760.307 L639.296 756.372 Q641.958 753.618 646.541 748.988 Q651.148 744.335 652.328 742.993 Q654.574 740.47 655.453 738.733 Q656.356 736.974 656.356 735.284 Q656.356 732.53 654.412 730.794 Q652.49 729.058 649.389 729.058 Q647.189 729.058 644.736 729.821 Q642.305 730.585 639.527 732.136 L639.527 727.414 Q642.352 726.28 644.805 725.701 Q647.259 725.122 649.296 725.122 Q654.666 725.122 657.861 727.808 Q661.055 730.493 661.055 734.984 Q661.055 737.113 660.245 739.034 Q659.458 740.933 657.351 743.525 Q656.773 744.196 653.671 747.414 Q650.569 750.608 644.921 756.372 Z" fill="#000000" fill-rule="evenodd" fill-opacity="1" /><path clip-path="url(#clip060)" d="M671.055 754.428 L675.939 754.428 L675.939 760.307 L671.055 760.307 L671.055 754.428 Z" fill="#000000" fill-rule="evenodd" fill-opacity="1" /><path clip-path="url(#clip060)" d="M686.171 725.747 L704.527 725.747 L704.527 729.683 L690.453 729.683 L690.453 738.155 Q691.472 737.808 692.49 737.646 Q693.509 737.46 694.527 737.46 Q700.314 737.46 703.694 740.632 Q707.073 743.803 707.073 749.22 Q707.073 754.798 703.601 757.9 Q700.129 760.979 693.81 760.979 Q691.634 760.979 689.365 760.608 Q687.12 760.238 684.712 759.497 L684.712 754.798 Q686.796 755.932 689.018 756.488 Q691.24 757.044 693.717 757.044 Q697.722 757.044 700.06 754.937 Q702.398 752.831 702.398 749.22 Q702.398 745.608 700.06 743.502 Q697.722 741.396 693.717 741.396 Q691.842 741.396 689.967 741.812 Q688.115 742.229 686.171 743.108 L686.171 725.747 Z" fill="#000000" fill-rule="evenodd" fill-opacity="1" /><path clip-path="url(#clip060)" d="M639.944 591.807 L658.301 591.807 L658.301 595.742 L644.227 595.742 L644.227 604.215 Q645.245 603.867 646.264 603.705 Q647.282 603.52 648.301 603.52 Q654.088 603.52 657.467 606.691 Q660.847 609.863 660.847 615.279 Q660.847 620.858 657.375 623.96 Q653.902 627.039 647.583 627.039 Q645.407 627.039 643.139 626.668 Q640.893 626.298 638.486 625.557 L638.486 620.858 Q640.569 621.992 642.791 622.548 Q645.014 623.103 647.49 623.103 Q651.495 623.103 653.833 620.997 Q656.171 618.89 656.171 615.279 Q656.171 611.668 653.833 609.562 Q651.495 607.455 647.49 607.455 Q645.615 607.455 643.74 607.872 Q641.889 608.289 639.944 609.168 L639.944 591.807 Z" fill="#000000" fill-rule="evenodd" fill-opacity="1" /><path clip-path="url(#clip060)" d="M670.06 620.488 L674.944 620.488 L674.944 626.367 L670.06 626.367 L670.06 620.488 Z" fill="#000000" fill-rule="evenodd" fill-opacity="1" /><path clip-path="url(#clip060)" d="M695.129 594.886 Q691.518 594.886 689.689 598.451 Q687.884 601.992 687.884 609.122 Q687.884 616.228 689.689 619.793 Q691.518 623.335 695.129 623.335 Q698.763 623.335 700.569 619.793 Q702.398 616.228 702.398 609.122 Q702.398 601.992 700.569 598.451 Q698.763 594.886 695.129 594.886 M695.129 591.182 Q700.939 591.182 703.995 595.789 Q707.073 600.372 707.073 609.122 Q707.073 617.849 703.995 622.455 Q700.939 627.039 695.129 627.039 Q689.319 627.039 686.24 622.455 Q683.185 617.849 683.185 609.122 Q683.185 600.372 686.24 595.789 Q689.319 591.182 695.129 591.182 Z" fill="#000000" fill-rule="evenodd" fill-opacity="1" /><path clip-path="url(#clip060)" d="M681.246 20.1573 L670.146 50.2555 L692.386 50.2555 L681.246 20.1573 M676.628 12.096 L685.904 12.096 L708.954 72.576 L700.447 72.576 L694.938 57.061 L667.675 57.061 L662.166 72.576 L653.537 72.576 L676.628 12.096 Z" fill="#000000" fill-rule="evenodd" fill-opacity="1" /><path clip-path="url(#clip060)" d="M743.832 9.54393 L751.286 9.54393 L751.286 72.576 L743.832 72.576 L743.832 9.54393 Z" fill="#000000" fill-rule="evenodd" fill-opacity="1" /><path clip-path="url(#clip060)" d="M766.882 27.2059 L774.335 27.2059 L774.335 72.576 L766.882 72.576 L766.882 27.2059 M766.882 9.54393 L774.335 9.54393 L774.335 18.9825 L766.882 18.9825 L766.882 9.54393 Z" fill="#000000" fill-rule="evenodd" fill-opacity="1" /><path clip-path="url(#clip060)" d="M827.645 45.1919 L827.645 72.576 L820.192 72.576 L820.192 45.4349 Q820.192 38.994 817.68 35.7938 Q815.168 32.5936 810.145 32.5936 Q804.109 32.5936 800.626 36.4419 Q797.142 40.2903 797.142 46.9338 L797.142 72.576 L789.648 72.576 L789.648 27.2059 L797.142 27.2059 L797.142 34.2544 Q799.816 30.163 803.421 28.1376 Q807.067 26.1121 811.806 26.1121 Q819.624 26.1121 823.635 30.9732 Q827.645 35.7938 827.645 45.1919 Z" fill="#000000" fill-rule="evenodd" fill-opacity="1" /><path clip-path="url(#clip060)" d="M881.32 48.0275 L881.32 51.6733 L847.049 51.6733 Q847.535 59.3701 851.667 63.421 Q855.84 67.4314 863.253 67.4314 Q867.547 67.4314 871.557 66.3781 Q875.608 65.3249 879.578 63.2184 L879.578 70.267 Q875.567 71.9684 871.354 72.8596 Q867.142 73.7508 862.807 73.7508 Q851.951 73.7508 845.591 67.4314 Q839.271 61.1119 839.271 50.3365 Q839.271 39.1965 845.267 32.6746 Q851.302 26.1121 861.511 26.1121 Q870.666 26.1121 875.973 32.0264 Q881.32 37.9003 881.32 48.0275 M873.866 45.84 Q873.785 39.7232 870.423 36.0774 Q867.101 32.4315 861.592 32.4315 Q855.353 32.4315 851.586 35.9558 Q847.859 39.4801 847.292 45.8805 L873.866 45.84 Z" fill="#000000" fill-rule="evenodd" fill-opacity="1" /><path clip-path="url(#clip060)" d="M927.135 65.7705 L927.135 89.8329 L919.641 89.8329 L919.641 27.2059 L927.135 27.2059 L927.135 34.0924 Q929.485 30.0415 933.05 28.0971 Q936.655 26.1121 941.638 26.1121 Q949.902 26.1121 955.046 32.6746 Q960.231 39.2371 960.231 49.9314 Q960.231 60.6258 955.046 67.1883 Q949.902 73.7508 941.638 73.7508 Q936.655 73.7508 933.05 71.8063 Q929.485 69.8214 927.135 65.7705 M952.494 49.9314 Q952.494 41.7081 949.091 37.0496 Q945.729 32.3505 939.815 32.3505 Q933.9 32.3505 930.498 37.0496 Q927.135 41.7081 927.135 49.9314 Q927.135 58.1548 930.498 62.8538 Q933.9 67.5124 939.815 67.5124 Q945.729 67.5124 949.091 62.8538 Q952.494 58.1548 952.494 49.9314 Z" fill="#000000" fill-rule="evenodd" fill-opacity="1" /><path clip-path="url(#clip060)" d="M993.206 49.7694 Q984.172 49.7694 980.688 51.8354 Q977.205 53.9013 977.205 58.8839 Q977.205 62.8538 979.797 65.2034 Q982.43 67.5124 986.927 67.5124 Q993.125 67.5124 996.851 63.1374 Q1000.62 58.7219 1000.62 51.4303 L1000.62 49.7694 L993.206 49.7694 M1008.07 46.6907 L1008.07 72.576 L1000.62 72.576 L1000.62 65.6895 Q998.067 69.8214 994.259 71.8063 Q990.451 73.7508 984.942 73.7508 Q977.974 73.7508 973.842 69.8619 Q969.751 65.9325 969.751 59.3701 Q969.751 51.7138 974.855 47.825 Q980 43.9361 990.167 43.9361 L1000.62 43.9361 L1000.62 43.2069 Q1000.62 38.0623 997.216 35.2672 Q993.854 32.4315 987.737 32.4315 Q983.848 32.4315 980.162 33.3632 Q976.475 34.295 973.073 36.1584 L973.073 29.2718 Q977.164 27.692 981.012 26.9223 Q984.861 26.1121 988.507 26.1121 Q998.35 26.1121 1003.21 31.2163 Q1008.07 36.3204 1008.07 46.6907 Z" fill="#000000" fill-rule="evenodd" fill-opacity="1" /><path clip-path="url(#clip060)" d="M1052.35 28.5427 L1052.35 35.5912 Q1049.19 33.9709 1045.79 33.1607 Q1042.38 32.3505 1038.74 32.3505 Q1033.19 32.3505 1030.39 34.0519 Q1027.64 35.7533 1027.64 39.156 Q1027.64 41.7486 1029.62 43.2475 Q1031.61 44.7058 1037.6 46.0426 L1040.16 46.6097 Q1048.1 48.3111 1051.42 51.4303 Q1054.78 54.509 1054.78 60.0587 Q1054.78 66.3781 1049.76 70.0644 Q1044.77 73.7508 1036.02 73.7508 Q1032.38 73.7508 1028.41 73.0216 Q1024.48 72.3329 1020.1 70.9151 L1020.1 63.2184 Q1024.24 65.3654 1028.25 66.4591 Q1032.26 67.5124 1036.19 67.5124 Q1041.45 67.5124 1044.29 65.73 Q1047.12 63.9071 1047.12 60.6258 Q1047.12 57.5877 1045.06 55.9673 Q1043.03 54.3469 1036.1 52.8481 L1033.51 52.2405 Q1026.59 50.7821 1023.51 47.7845 Q1020.43 44.7463 1020.43 39.4801 Q1020.43 33.0797 1024.96 29.5959 Q1029.5 26.1121 1037.85 26.1121 Q1041.98 26.1121 1045.62 26.7198 Q1049.27 27.3274 1052.35 28.5427 Z" fill="#000000" fill-rule="evenodd" fill-opacity="1" /><path clip-path="url(#clip060)" d="M1095.57 28.5427 L1095.57 35.5912 Q1092.41 33.9709 1089.01 33.1607 Q1085.61 32.3505 1081.96 32.3505 Q1076.41 32.3505 1073.62 34.0519 Q1070.86 35.7533 1070.86 39.156 Q1070.86 41.7486 1072.85 43.2475 Q1074.83 44.7058 1080.83 46.0426 L1083.38 46.6097 Q1091.32 48.3111 1094.64 51.4303 Q1098 54.509 1098 60.0587 Q1098 66.3781 1092.98 70.0644 Q1088 73.7508 1079.25 73.7508 Q1075.6 73.7508 1071.63 73.0216 Q1067.7 72.3329 1063.33 70.9151 L1063.33 63.2184 Q1067.46 65.3654 1071.47 66.4591 Q1075.48 67.5124 1079.41 67.5124 Q1084.68 67.5124 1087.51 65.73 Q1090.35 63.9071 1090.35 60.6258 Q1090.35 57.5877 1088.28 55.9673 Q1086.25 54.3469 1079.33 52.8481 L1076.74 52.2405 Q1069.81 50.7821 1066.73 47.7845 Q1063.65 44.7463 1063.65 39.4801 Q1063.65 33.0797 1068.19 29.5959 Q1072.72 26.1121 1081.07 26.1121 Q1085.2 26.1121 1088.85 26.7198 Q1092.49 27.3274 1095.57 28.5427 Z" fill="#000000" fill-rule="evenodd" fill-opacity="1" /><path clip-path="url(#clip060)" d="M1109.87 27.2059 L1117.33 27.2059 L1117.33 72.576 L1109.87 72.576 L1109.87 27.2059 M1109.87 9.54393 L1117.33 9.54393 L1117.33 18.9825 L1109.87 18.9825 L1109.87 9.54393 Z" fill="#000000" fill-rule="evenodd" fill-opacity="1" /><path clip-path="url(#clip060)" d="M1170.64 45.1919 L1170.64 72.576 L1163.18 72.576 L1163.18 45.4349 Q1163.18 38.994 1160.67 35.7938 Q1158.16 32.5936 1153.14 32.5936 Q1147.1 32.5936 1143.62 36.4419 Q1140.13 40.2903 1140.13 46.9338 L1140.13 72.576 L1132.64 72.576 L1132.64 27.2059 L1140.13 27.2059 L1140.13 34.2544 Q1142.81 30.163 1146.41 28.1376 Q1150.06 26.1121 1154.8 26.1121 Q1162.61 26.1121 1166.62 30.9732 Q1170.64 35.7938 1170.64 45.1919 Z" fill="#000000" fill-rule="evenodd" fill-opacity="1" /><path clip-path="url(#clip060)" d="M1215.36 49.3643 Q1215.36 41.2625 1212 36.8065 Q1208.67 32.3505 1202.64 32.3505 Q1196.64 32.3505 1193.28 36.8065 Q1189.96 41.2625 1189.96 49.3643 Q1189.96 57.4256 1193.28 61.8816 Q1196.64 66.3376 1202.64 66.3376 Q1208.67 66.3376 1212 61.8816 Q1215.36 57.4256 1215.36 49.3643 M1222.81 66.9452 Q1222.81 78.5308 1217.67 84.1616 Q1212.52 89.8329 1201.91 89.8329 Q1197.98 89.8329 1194.5 89.2252 Q1191.01 88.6581 1187.73 87.4428 L1187.73 80.1917 Q1191.01 81.9741 1194.21 82.8248 Q1197.41 83.6755 1200.73 83.6755 Q1208.07 83.6755 1211.71 79.8271 Q1215.36 76.0193 1215.36 68.282 L1215.36 64.5957 Q1213.05 68.6061 1209.44 70.5911 Q1205.84 72.576 1200.81 72.576 Q1192.47 72.576 1187.37 66.2161 Q1182.26 59.8562 1182.26 49.3643 Q1182.26 38.832 1187.37 32.472 Q1192.47 26.1121 1200.81 26.1121 Q1205.84 26.1121 1209.44 28.0971 Q1213.05 30.082 1215.36 34.0924 L1215.36 27.2059 L1222.81 27.2059 L1222.81 66.9452 Z" fill="#000000" fill-rule="evenodd" fill-opacity="1" /><path clip-path="url(#clip060)" d="M1283.09 17.4837 Q1276.77 17.4837 1273.57 23.7221 Q1270.41 29.92 1270.41 42.3968 Q1270.41 54.833 1273.57 61.0714 Q1276.77 67.2693 1283.09 67.2693 Q1289.45 67.2693 1292.61 61.0714 Q1295.81 54.833 1295.81 42.3968 Q1295.81 29.92 1292.61 23.7221 Q1289.45 17.4837 1283.09 17.4837 M1283.09 11.0023 Q1293.26 11.0023 1298.6 19.0636 Q1303.99 27.0843 1303.99 42.3968 Q1303.99 57.6687 1298.6 65.73 Q1293.26 73.7508 1283.09 73.7508 Q1272.92 73.7508 1267.53 65.73 Q1262.19 57.6687 1262.19 42.3968 Q1262.19 27.0843 1267.53 19.0636 Q1272.92 11.0023 1283.09 11.0023 Z" fill="#000000" fill-rule="evenodd" fill-opacity="1" /><path clip-path="url(#clip060)" d="M1343.69 27.2059 L1351.14 27.2059 L1351.14 72.576 L1343.69 72.576 L1343.69 27.2059 M1343.69 9.54393 L1351.14 9.54393 L1351.14 18.9825 L1343.69 18.9825 L1343.69 9.54393 Z" fill="#000000" fill-rule="evenodd" fill-opacity="1" /><path clip-path="url(#clip060)" d="M1395.66 28.5427 L1395.66 35.5912 Q1392.5 33.9709 1389.1 33.1607 Q1385.7 32.3505 1382.05 32.3505 Q1376.5 32.3505 1373.71 34.0519 Q1370.95 35.7533 1370.95 39.156 Q1370.95 41.7486 1372.94 43.2475 Q1374.92 44.7058 1380.92 46.0426 L1383.47 46.6097 Q1391.41 48.3111 1394.73 51.4303 Q1398.09 54.509 1398.09 60.0587 Q1398.09 66.3781 1393.07 70.0644 Q1388.09 73.7508 1379.34 73.7508 Q1375.69 73.7508 1371.72 73.0216 Q1367.79 72.3329 1363.42 70.9151 L1363.42 63.2184 Q1367.55 65.3654 1371.56 66.4591 Q1375.57 67.5124 1379.5 67.5124 Q1384.77 67.5124 1387.6 65.73 Q1390.44 63.9071 1390.44 60.6258 Q1390.44 57.5877 1388.37 55.9673 Q1386.35 54.3469 1379.42 52.8481 L1376.83 52.2405 Q1369.9 50.7821 1366.82 47.7845 Q1363.74 44.7463 1363.74 39.4801 Q1363.74 33.0797 1368.28 29.5959 Q1372.82 26.1121 1381.16 26.1121 Q1385.29 26.1121 1388.94 26.7198 Q1392.58 27.3274 1395.66 28.5427 Z" fill="#000000" fill-rule="evenodd" fill-opacity="1" /><path clip-path="url(#clip060)" d="M1456.95 49.7694 Q1447.92 49.7694 1444.44 51.8354 Q1440.95 53.9013 1440.95 58.8839 Q1440.95 62.8538 1443.54 65.2034 Q1446.18 67.5124 1450.67 67.5124 Q1456.87 67.5124 1460.6 63.1374 Q1464.37 58.7219 1464.37 51.4303 L1464.37 49.7694 L1456.95 49.7694 M1471.82 46.6907 L1471.82 72.576 L1464.37 72.576 L1464.37 65.6895 Q1461.81 69.8214 1458.01 71.8063 Q1454.2 73.7508 1448.69 73.7508 Q1441.72 73.7508 1437.59 69.8619 Q1433.5 65.9325 1433.5 59.3701 Q1433.5 51.7138 1438.6 47.825 Q1443.75 43.9361 1453.92 43.9361 L1464.37 43.9361 L1464.37 43.2069 Q1464.37 38.0623 1460.96 35.2672 Q1457.6 32.4315 1451.48 32.4315 Q1447.6 32.4315 1443.91 33.3632 Q1440.22 34.295 1436.82 36.1584 L1436.82 29.2718 Q1440.91 27.692 1444.76 26.9223 Q1448.61 26.1121 1452.25 26.1121 Q1462.1 26.1121 1466.96 31.2163 Q1471.82 36.3204 1471.82 46.6907 Z" fill="#000000" fill-rule="evenodd" fill-opacity="1" /><path clip-path="url(#clip060)" d="M1542.47 28.5427 L1542.47 35.5912 Q1539.31 33.9709 1535.91 33.1607 Q1532.5 32.3505 1528.86 32.3505 Q1523.31 32.3505 1520.51 34.0519 Q1517.76 35.7533 1517.76 39.156 Q1517.76 41.7486 1519.74 43.2475 Q1521.73 44.7058 1527.72 46.0426 L1530.27 46.6097 Q1538.21 48.3111 1541.54 51.4303 Q1544.9 54.509 1544.9 60.0587 Q1544.9 66.3781 1539.88 70.0644 Q1534.89 73.7508 1526.14 73.7508 Q1522.5 73.7508 1518.53 73.0216 Q1514.6 72.3329 1510.22 70.9151 L1510.22 63.2184 Q1514.35 65.3654 1518.36 66.4591 Q1522.38 67.5124 1526.3 67.5124 Q1531.57 67.5124 1534.41 65.73 Q1537.24 63.9071 1537.24 60.6258 Q1537.24 57.5877 1535.18 55.9673 Q1533.15 54.3469 1526.22 52.8481 L1523.63 52.2405 Q1516.7 50.7821 1513.63 47.7845 Q1510.55 44.7463 1510.55 39.4801 Q1510.55 33.0797 1515.08 29.5959 Q1519.62 26.1121 1527.97 26.1121 Q1532.1 26.1121 1535.74 26.7198 Q1539.39 27.3274 1542.47 28.5427 Z" fill="#000000" fill-rule="evenodd" fill-opacity="1" /><path clip-path="url(#clip060)" d="M1556 54.671 L1556 27.2059 L1563.45 27.2059 L1563.45 54.3874 Q1563.45 60.8284 1565.96 64.0691 Q1568.47 67.2693 1573.5 67.2693 Q1579.53 67.2693 1583.02 63.421 Q1586.54 59.5726 1586.54 52.9291 L1586.54 27.2059 L1594 27.2059 L1594 72.576 L1586.54 72.576 L1586.54 65.6084 Q1583.83 69.7404 1580.22 71.7658 Q1576.66 73.7508 1571.92 73.7508 Q1564.1 73.7508 1560.05 68.8897 Q1556 64.0286 1556 54.671 M1574.75 26.1121 L1574.75 26.1121 Z" fill="#000000" fill-rule="evenodd" fill-opacity="1" /><path clip-path="url(#clip060)" d="M1641.92 49.9314 Q1641.92 41.7081 1638.51 37.0496 Q1635.15 32.3505 1629.24 32.3505 Q1623.32 32.3505 1619.92 37.0496 Q1616.56 41.7081 1616.56 49.9314 Q1616.56 58.1548 1619.92 62.8538 Q1623.32 67.5124 1629.24 67.5124 Q1635.15 67.5124 1638.51 62.8538 Q1641.92 58.1548 1641.92 49.9314 M1616.56 34.0924 Q1618.91 30.0415 1622.47 28.0971 Q1626.08 26.1121 1631.06 26.1121 Q1639.32 26.1121 1644.47 32.6746 Q1649.65 39.2371 1649.65 49.9314 Q1649.65 60.6258 1644.47 67.1883 Q1639.32 73.7508 1631.06 73.7508 Q1626.08 73.7508 1622.47 71.8063 Q1618.91 69.8214 1616.56 65.7705 L1616.56 72.576 L1609.06 72.576 L1609.06 9.54393 L1616.56 9.54393 L1616.56 34.0924 Z" fill="#000000" fill-rule="evenodd" fill-opacity="1" /><path clip-path="url(#clip060)" d="M1690.93 28.5427 L1690.93 35.5912 Q1687.77 33.9709 1684.37 33.1607 Q1680.97 32.3505 1677.32 32.3505 Q1671.77 32.3505 1668.98 34.0519 Q1666.22 35.7533 1666.22 39.156 Q1666.22 41.7486 1668.21 43.2475 Q1670.19 44.7058 1676.19 46.0426 L1678.74 46.6097 Q1686.68 48.3111 1690 51.4303 Q1693.36 54.509 1693.36 60.0587 Q1693.36 66.3781 1688.34 70.0644 Q1683.36 73.7508 1674.61 73.7508 Q1670.96 73.7508 1666.99 73.0216 Q1663.06 72.3329 1658.69 70.9151 L1658.69 63.2184 Q1662.82 65.3654 1666.83 66.4591 Q1670.84 67.5124 1674.77 67.5124 Q1680.04 67.5124 1682.87 65.73 Q1685.71 63.9071 1685.71 60.6258 Q1685.71 57.5877 1683.64 55.9673 Q1681.62 54.3469 1674.69 52.8481 L1672.1 52.2405 Q1665.17 50.7821 1662.09 47.7845 Q1659.01 44.7463 1659.01 39.4801 Q1659.01 33.0797 1663.55 29.5959 Q1668.09 26.1121 1676.43 26.1121 Q1680.56 26.1121 1684.21 26.7198 Q1687.85 27.3274 1690.93 28.5427 Z" fill="#000000" fill-rule="evenodd" fill-opacity="1" /><path clip-path="url(#clip060)" d="M1712.44 65.7705 L1712.44 89.8329 L1704.95 89.8329 L1704.95 27.2059 L1712.44 27.2059 L1712.44 34.0924 Q1714.79 30.0415 1718.36 28.0971 Q1721.96 26.1121 1726.95 26.1121 Q1735.21 26.1121 1740.35 32.6746 Q1745.54 39.2371 1745.54 49.9314 Q1745.54 60.6258 1740.35 67.1883 Q1735.21 73.7508 1726.95 73.7508 Q1721.96 73.7508 1718.36 71.8063 Q1714.79 69.8214 1712.44 65.7705 M1737.8 49.9314 Q1737.8 41.7081 1734.4 37.0496 Q1731.04 32.3505 1725.12 32.3505 Q1719.21 32.3505 1715.81 37.0496 Q1712.44 41.7081 1712.44 49.9314 Q1712.44 58.1548 1715.81 62.8538 Q1719.21 67.5124 1725.12 67.5124 Q1731.04 67.5124 1734.4 62.8538 Q1737.8 58.1548 1737.8 49.9314 Z" fill="#000000" fill-rule="evenodd" fill-opacity="1" /><path clip-path="url(#clip060)" d="M1778.51 49.7694 Q1769.48 49.7694 1766 51.8354 Q1762.51 53.9013 1762.51 58.8839 Q1762.51 62.8538 1765.11 65.2034 Q1767.74 67.5124 1772.24 67.5124 Q1778.43 67.5124 1782.16 63.1374 Q1785.93 58.7219 1785.93 51.4303 L1785.93 49.7694 L1778.51 49.7694 M1793.38 46.6907 L1793.38 72.576 L1785.93 72.576 L1785.93 65.6895 Q1783.38 69.8214 1779.57 71.8063 Q1775.76 73.7508 1770.25 73.7508 Q1763.28 73.7508 1759.15 69.8619 Q1755.06 65.9325 1755.06 59.3701 Q1755.06 51.7138 1760.16 47.825 Q1765.31 43.9361 1775.48 43.9361 L1785.93 43.9361 L1785.93 43.2069 Q1785.93 38.0623 1782.52 35.2672 Q1779.16 32.4315 1773.05 32.4315 Q1769.16 32.4315 1765.47 33.3632 Q1761.78 34.295 1758.38 36.1584 L1758.38 29.2718 Q1762.47 27.692 1766.32 26.9223 Q1770.17 26.1121 1773.81 26.1121 Q1783.66 26.1121 1788.52 31.2163 Q1793.38 36.3204 1793.38 46.6907 Z" fill="#000000" fill-rule="evenodd" fill-opacity="1" /><path clip-path="url(#clip060)" d="M1841.38 28.9478 L1841.38 35.9153 Q1838.22 34.1734 1835.02 33.3227 Q1831.86 32.4315 1828.62 32.4315 Q1821.37 32.4315 1817.36 37.0496 Q1813.35 41.6271 1813.35 49.9314 Q1813.35 58.2358 1817.36 62.8538 Q1821.37 67.4314 1828.62 67.4314 Q1831.86 67.4314 1835.02 66.5807 Q1838.22 65.6895 1841.38 63.9476 L1841.38 70.8341 Q1838.26 72.2924 1834.9 73.0216 Q1831.58 73.7508 1827.81 73.7508 Q1817.56 73.7508 1811.53 67.3098 Q1805.49 60.8689 1805.49 49.9314 Q1805.49 38.832 1811.57 32.472 Q1817.69 26.1121 1828.3 26.1121 Q1831.74 26.1121 1835.02 26.8413 Q1838.31 27.5299 1841.38 28.9478 Z" fill="#000000" fill-rule="evenodd" fill-opacity="1" /><path clip-path="url(#clip060)" d="M1893.15 48.0275 L1893.15 51.6733 L1858.88 51.6733 Q1859.37 59.3701 1863.5 63.421 Q1867.67 67.4314 1875.09 67.4314 Q1879.38 67.4314 1883.39 66.3781 Q1887.44 65.3249 1891.41 63.2184 L1891.41 70.267 Q1887.4 71.9684 1883.19 72.8596 Q1878.98 73.7508 1874.64 73.7508 Q1863.79 73.7508 1857.43 67.4314 Q1851.11 61.1119 1851.11 50.3365 Q1851.11 39.1965 1857.1 32.6746 Q1863.14 26.1121 1873.35 26.1121 Q1882.5 26.1121 1887.81 32.0264 Q1893.15 37.9003 1893.15 48.0275 M1885.7 45.84 Q1885.62 39.7232 1882.26 36.0774 Q1878.94 32.4315 1873.43 32.4315 Q1867.19 32.4315 1863.42 35.9558 Q1859.69 39.4801 1859.13 45.8805 L1885.7 45.84 Z" fill="#000000" fill-rule="evenodd" fill-opacity="1" /><polyline clip-path="url(#clip062)" style="stroke:#009af9; stroke-linecap:round; stroke-linejoin:round; stroke-width:8; stroke-opacity:1; fill:none" points="
  1137.48,229.979 1142.01,249.145 1146.54,268.311 1151.07,287.477 1155.6,306.643 1160.13,325.809 1164.66,344.975 1169.18,364.141 1173.71,383.307 1178.24,402.473 
  1182.77,421.639 1187.3,440.805 1191.83,459.971 1196.36,479.137 1200.89,498.303 1205.41,517.469 1209.94,536.635 1214.47,555.801 1219,574.967 1223.53,594.134 
  1228.06,613.3 1232.59,632.466 1237.12,651.632 1241.64,670.798 1246.17,689.964 1250.7,709.13 1255.23,728.296 1259.76,747.462 1264.29,766.628 1268.82,785.794 
  1273.35,804.96 1277.87,824.126 1282.4,843.292 1286.93,862.458 1291.46,881.624 1295.99,900.79 1300.52,919.956 1305.05,939.122 1309.58,958.288 1314.11,977.454 
  1318.63,996.62 1323.16,1015.79 1327.69,1034.95 1332.22,1054.12 1336.75,1073.28 1341.28,1092.45 1345.81,1111.62 1350.34,1130.78 1354.86,1149.95 1359.39,1169.11 
  1363.92,1188.28 1368.45,1207.45 1372.98,1226.61 1377.51,1245.78 1382.04,1264.95 1386.57,1284.11 1391.09,1303.28 1395.62,1322.44 1400.15,1341.61 1404.68,1360.78 
  1409.21,1379.94 
  "/>
<polyline clip-path="url(#clip062)" style="stroke:#e26f46; stroke-linecap:round; stroke-linejoin:round; stroke-width:20; stroke-opacity:1; fill:none" points="
  1273.35,804.96 1318.63,996.62 
  "/>
<circle clip-path="url(#clip062)" cx="1273.35" cy="804.96" r="18" fill="#e26f46" fill-rule="evenodd" fill-opacity="1" stroke="#000000" stroke-opacity="1" stroke-width="3.2"/>
<circle clip-path="url(#clip062)" cx="1318.63" cy="996.62" r="18" fill="#e26f46" fill-rule="evenodd" fill-opacity="1" stroke="#000000" stroke-opacity="1" stroke-width="3.2"/>
</svg>
