<?xml version="1.0" encoding="utf-8"?>
<svg xmlns="http://www.w3.org/2000/svg" xmlns:xlink="http://www.w3.org/1999/xlink" width="600" height="400" viewBox="0 0 2400 1600">
<defs>
  <clipPath id="clip210">
    <rect x="0" y="0" width="2400" height="1600"/>
  </clipPath>
</defs>
<path clip-path="url(#clip210)" d="
M0 1600 L2400 1600 L2400 0 L0 0  Z
  " fill="#ffffff" fill-rule="evenodd" fill-opacity="1"/>
<defs>
  <clipPath id="clip211">
    <rect x="480" y="0" width="1681" height="1600"/>
  </clipPath>
</defs>
<path clip-path="url(#clip210)" d="
M474.476 1486.45 L1832.22 1486.45 L1832.22 47.2441 L474.476 47.2441  Z
  " fill="#ffffff" fill-rule="evenodd" fill-opacity="1"/>
<defs>
  <clipPath id="clip212">
    <rect x="474" y="47" width="1359" height="1440"/>
  </clipPath>
</defs>
<polyline clip-path="url(#clip212)" style="stroke:#000000; stroke-linecap:round; stroke-linejoin:round; stroke-width:2; stroke-opacity:0.1; fill:none" points="
  474.476,1486.45 474.476,47.2441 
  "/>
<polyline clip-path="url(#clip212)" style="stroke:#000000; stroke-linecap:round; stroke-linejoin:round; stroke-width:2; stroke-opacity:0.1; fill:none" points="
  813.911,1486.45 813.911,47.2441 
  "/>
<polyline clip-path="url(#clip212)" style="stroke:#000000; stroke-linecap:round; stroke-linejoin:round; stroke-width:2; stroke-opacity:0.1; fill:none" points="
  1153.35,1486.45 1153.35,47.2441 
  "/>
<polyline clip-path="url(#clip212)" style="stroke:#000000; stroke-linecap:round; stroke-linejoin:round; stroke-width:2; stroke-opacity:0.1; fill:none" points="
  1492.78,1486.45 1492.78,47.2441 
  "/>
<polyline clip-path="url(#clip212)" style="stroke:#000000; stroke-linecap:round; stroke-linejoin:round; stroke-width:2; stroke-opacity:0.1; fill:none" points="
  1832.22,1486.45 1832.22,47.2441 
  "/>
<polyline clip-path="url(#clip210)" style="stroke:#000000; stroke-linecap:round; stroke-linejoin:round; stroke-width:4; stroke-opacity:1; fill:none" points="
  474.476,1486.45 1832.22,1486.45 
  "/>
<polyline clip-path="url(#clip210)" style="stroke:#000000; stroke-linecap:round; stroke-linejoin:round; stroke-width:4; stroke-opacity:1; fill:none" points="
  474.476,1486.45 474.476,1467.55 
  "/>
<polyline clip-path="url(#clip210)" style="stroke:#000000; stroke-linecap:round; stroke-linejoin:round; stroke-width:4; stroke-opacity:1; fill:none" points="
  813.911,1486.45 813.911,1467.55 
  "/>
<polyline clip-path="url(#clip210)" style="stroke:#000000; stroke-linecap:round; stroke-linejoin:round; stroke-width:4; stroke-opacity:1; fill:none" points="
  1153.35,1486.45 1153.35,1467.55 
  "/>
<polyline clip-path="url(#clip210)" style="stroke:#000000; stroke-linecap:round; stroke-linejoin:round; stroke-width:4; stroke-opacity:1; fill:none" points="
  1492.78,1486.45 1492.78,1467.55 
  "/>
<polyline clip-path="url(#clip210)" style="stroke:#000000; stroke-linecap:round; stroke-linejoin:round; stroke-width:4; stroke-opacity:1; fill:none" points="
  1832.22,1486.45 1832.22,1467.55 
  "/>
<path clip-path="url(#clip210)" d="M421.004 1532.02 L450.68 1532.02 L450.68 1535.95 L421.004 1535.95 L421.004 1532.02 Z" fill="#000000" fill-rule="evenodd" fill-opacity="1" /><path clip-path="url(#clip210)" d="M461.583 1544.91 L469.222 1544.91 L469.222 1518.55 L460.912 1520.21 L460.912 1515.95 L469.175 1514.29 L473.851 1514.29 L473.851 1544.91 L481.49 1544.91 L481.49 1548.85 L461.583 1548.85 L461.583 1544.91 Z" fill="#000000" fill-rule="evenodd" fill-opacity="1" /><path clip-path="url(#clip210)" d="M490.934 1542.97 L495.819 1542.97 L495.819 1548.85 L490.934 1548.85 L490.934 1542.97 Z" fill="#000000" fill-rule="evenodd" fill-opacity="1" /><path clip-path="url(#clip210)" d="M516.004 1517.37 Q512.393 1517.37 510.564 1520.93 Q508.758 1524.47 508.758 1531.6 Q508.758 1538.71 510.564 1542.27 Q512.393 1545.82 516.004 1545.82 Q519.638 1545.82 521.444 1542.27 Q523.272 1538.71 523.272 1531.6 Q523.272 1524.47 521.444 1520.93 Q519.638 1517.37 516.004 1517.37 M516.004 1513.66 Q521.814 1513.66 524.869 1518.27 Q527.948 1522.85 527.948 1531.6 Q527.948 1540.33 524.869 1544.94 Q521.814 1549.52 516.004 1549.52 Q510.194 1549.52 507.115 1544.94 Q504.059 1540.33 504.059 1531.6 Q504.059 1522.85 507.115 1518.27 Q510.194 1513.66 516.004 1513.66 Z" fill="#000000" fill-rule="evenodd" fill-opacity="1" /><path clip-path="url(#clip210)" d="M760.937 1532.02 L790.613 1532.02 L790.613 1535.95 L760.937 1535.95 L760.937 1532.02 Z" fill="#000000" fill-rule="evenodd" fill-opacity="1" /><path clip-path="url(#clip210)" d="M810.705 1517.37 Q807.094 1517.37 805.265 1520.93 Q803.46 1524.47 803.46 1531.6 Q803.46 1538.71 805.265 1542.27 Q807.094 1545.82 810.705 1545.82 Q814.339 1545.82 816.145 1542.27 Q817.974 1538.71 817.974 1531.6 Q817.974 1524.47 816.145 1520.93 Q814.339 1517.37 810.705 1517.37 M810.705 1513.66 Q816.515 1513.66 819.571 1518.27 Q822.649 1522.85 822.649 1531.6 Q822.649 1540.33 819.571 1544.94 Q816.515 1549.52 810.705 1549.52 Q804.895 1549.52 801.816 1544.94 Q798.761 1540.33 798.761 1531.6 Q798.761 1522.85 801.816 1518.27 Q804.895 1513.66 810.705 1513.66 Z" fill="#000000" fill-rule="evenodd" fill-opacity="1" /><path clip-path="url(#clip210)" d="M830.867 1542.97 L835.751 1542.97 L835.751 1548.85 L830.867 1548.85 L830.867 1542.97 Z" fill="#000000" fill-rule="evenodd" fill-opacity="1" /><path clip-path="url(#clip210)" d="M845.983 1514.29 L864.339 1514.29 L864.339 1518.22 L850.265 1518.22 L850.265 1526.7 Q851.284 1526.35 852.302 1526.19 Q853.321 1526 854.339 1526 Q860.126 1526 863.506 1529.17 Q866.885 1532.34 866.885 1537.76 Q866.885 1543.34 863.413 1546.44 Q859.941 1549.52 853.622 1549.52 Q851.446 1549.52 849.177 1549.15 Q846.932 1548.78 844.524 1548.04 L844.524 1543.34 Q846.608 1544.47 848.83 1545.03 Q851.052 1545.58 853.529 1545.58 Q857.534 1545.58 859.871 1543.48 Q862.209 1541.37 862.209 1537.76 Q862.209 1534.15 859.871 1532.04 Q857.534 1529.94 853.529 1529.94 Q851.654 1529.94 849.779 1530.35 Q847.927 1530.77 845.983 1531.65 L845.983 1514.29 Z" fill="#000000" fill-rule="evenodd" fill-opacity="1" /><path clip-path="url(#clip210)" d="M1130.73 1517.37 Q1127.12 1517.37 1125.29 1520.93 Q1123.49 1524.47 1123.49 1531.6 Q1123.49 1538.71 1125.29 1542.27 Q1127.12 1545.82 1130.73 1545.82 Q1134.36 1545.82 1136.17 1542.27 Q1138 1538.71 1138 1531.6 Q1138 1524.47 1136.17 1520.93 Q1134.36 1517.37 1130.73 1517.37 M1130.73 1513.66 Q1136.54 1513.66 1139.6 1518.27 Q1142.67 1522.85 1142.67 1531.6 Q1142.67 1540.33 1139.6 1544.94 Q1136.54 1549.52 1130.73 1549.52 Q1124.92 1549.52 1121.84 1544.94 Q1118.79 1540.33 1118.79 1531.6 Q1118.79 1522.85 1121.84 1518.27 Q1124.92 1513.66 1130.73 1513.66 Z" fill="#000000" fill-rule="evenodd" fill-opacity="1" /><path clip-path="url(#clip210)" d="M1150.89 1542.97 L1155.78 1542.97 L1155.78 1548.85 L1150.89 1548.85 L1150.89 1542.97 Z" fill="#000000" fill-rule="evenodd" fill-opacity="1" /><path clip-path="url(#clip210)" d="M1175.96 1517.37 Q1172.35 1517.37 1170.52 1520.93 Q1168.72 1524.47 1168.72 1531.6 Q1168.72 1538.71 1170.52 1542.27 Q1172.35 1545.82 1175.96 1545.82 Q1179.6 1545.82 1181.4 1542.27 Q1183.23 1538.71 1183.23 1531.6 Q1183.23 1524.47 1181.4 1520.93 Q1179.6 1517.37 1175.96 1517.37 M1175.96 1513.66 Q1181.77 1513.66 1184.83 1518.27 Q1187.91 1522.85 1187.91 1531.6 Q1187.91 1540.33 1184.83 1544.94 Q1181.77 1549.52 1175.96 1549.52 Q1170.15 1549.52 1167.07 1544.94 Q1164.02 1540.33 1164.02 1531.6 Q1164.02 1522.85 1167.07 1518.27 Q1170.15 1513.66 1175.96 1513.66 Z" fill="#000000" fill-rule="evenodd" fill-opacity="1" /><path clip-path="url(#clip210)" d="M1470.66 1517.37 Q1467.05 1517.37 1465.22 1520.93 Q1463.42 1524.47 1463.42 1531.6 Q1463.42 1538.71 1465.22 1542.27 Q1467.05 1545.82 1470.66 1545.82 Q1474.3 1545.82 1476.1 1542.27 Q1477.93 1538.71 1477.93 1531.6 Q1477.93 1524.47 1476.1 1520.93 Q1474.3 1517.37 1470.66 1517.37 M1470.66 1513.66 Q1476.47 1513.66 1479.53 1518.27 Q1482.61 1522.85 1482.61 1531.6 Q1482.61 1540.33 1479.53 1544.94 Q1476.47 1549.52 1470.66 1549.52 Q1464.85 1549.52 1461.77 1544.94 Q1458.72 1540.33 1458.72 1531.6 Q1458.72 1522.85 1461.77 1518.27 Q1464.85 1513.66 1470.66 1513.66 Z" fill="#000000" fill-rule="evenodd" fill-opacity="1" /><path clip-path="url(#clip210)" d="M1490.82 1542.97 L1495.71 1542.97 L1495.71 1548.85 L1490.82 1548.85 L1490.82 1542.97 Z" fill="#000000" fill-rule="evenodd" fill-opacity="1" /><path clip-path="url(#clip210)" d="M1505.94 1514.29 L1524.3 1514.29 L1524.3 1518.22 L1510.22 1518.22 L1510.22 1526.7 Q1511.24 1526.35 1512.26 1526.19 Q1513.28 1526 1514.3 1526 Q1520.08 1526 1523.46 1529.17 Q1526.84 1532.34 1526.84 1537.76 Q1526.84 1543.34 1523.37 1546.44 Q1519.9 1549.52 1513.58 1549.52 Q1511.4 1549.52 1509.13 1549.15 Q1506.89 1548.78 1504.48 1548.04 L1504.48 1543.34 Q1506.57 1544.47 1508.79 1545.03 Q1511.01 1545.58 1513.49 1545.58 Q1517.49 1545.58 1519.83 1543.48 Q1522.17 1541.37 1522.17 1537.76 Q1522.17 1534.15 1519.83 1532.04 Q1517.49 1529.94 1513.49 1529.94 Q1511.61 1529.94 1509.74 1530.35 Q1507.88 1530.77 1505.94 1531.65 L1505.94 1514.29 Z" fill="#000000" fill-rule="evenodd" fill-opacity="1" /><path clip-path="url(#clip210)" d="M1799.37 1544.91 L1807.01 1544.91 L1807.01 1518.55 L1798.7 1520.21 L1798.7 1515.95 L1806.96 1514.29 L1811.64 1514.29 L1811.64 1544.91 L1819.28 1544.91 L1819.28 1548.85 L1799.37 1548.85 L1799.37 1544.91 Z" fill="#000000" fill-rule="evenodd" fill-opacity="1" /><path clip-path="url(#clip210)" d="M1828.72 1542.97 L1833.6 1542.97 L1833.6 1548.85 L1828.72 1548.85 L1828.72 1542.97 Z" fill="#000000" fill-rule="evenodd" fill-opacity="1" /><path clip-path="url(#clip210)" d="M1853.79 1517.37 Q1850.18 1517.37 1848.35 1520.93 Q1846.54 1524.47 1846.54 1531.6 Q1846.54 1538.71 1848.35 1542.27 Q1850.18 1545.82 1853.79 1545.82 Q1857.42 1545.82 1859.23 1542.27 Q1861.06 1538.71 1861.06 1531.6 Q1861.06 1524.47 1859.23 1520.93 Q1857.42 1517.37 1853.79 1517.37 M1853.79 1513.66 Q1859.6 1513.66 1862.66 1518.27 Q1865.73 1522.85 1865.73 1531.6 Q1865.73 1540.33 1862.66 1544.94 Q1859.6 1549.52 1853.79 1549.52 Q1847.98 1549.52 1844.9 1544.94 Q1841.85 1540.33 1841.85 1531.6 Q1841.85 1522.85 1844.9 1518.27 Q1847.98 1513.66 1853.79 1513.66 Z" fill="#000000" fill-rule="evenodd" fill-opacity="1" /><polyline clip-path="url(#clip212)" style="stroke:#000000; stroke-linecap:round; stroke-linejoin:round; stroke-width:2; stroke-opacity:0.1; fill:none" points="
  474.476,1445.72 1832.22,1445.72 
  "/>
<polyline clip-path="url(#clip212)" style="stroke:#000000; stroke-linecap:round; stroke-linejoin:round; stroke-width:2; stroke-opacity:0.1; fill:none" points="
  474.476,1106.28 1832.22,1106.28 
  "/>
<polyline clip-path="url(#clip212)" style="stroke:#000000; stroke-linecap:round; stroke-linejoin:round; stroke-width:2; stroke-opacity:0.1; fill:none" points="
  474.476,766.846 1832.22,766.846 
  "/>
<polyline clip-path="url(#clip212)" style="stroke:#000000; stroke-linecap:round; stroke-linejoin:round; stroke-width:2; stroke-opacity:0.1; fill:none" points="
  474.476,427.411 1832.22,427.411 
  "/>
<polyline clip-path="url(#clip212)" style="stroke:#000000; stroke-linecap:round; stroke-linejoin:round; stroke-width:2; stroke-opacity:0.1; fill:none" points="
  474.476,87.9763 1832.22,87.9763 
  "/>
<polyline clip-path="url(#clip210)" style="stroke:#000000; stroke-linecap:round; stroke-linejoin:round; stroke-width:4; stroke-opacity:1; fill:none" points="
  474.476,1486.45 474.476,47.2441 
  "/>
<polyline clip-path="url(#clip210)" style="stroke:#000000; stroke-linecap:round; stroke-linejoin:round; stroke-width:4; stroke-opacity:1; fill:none" points="
  474.476,1445.72 486.361,1445.72 
  "/>
<polyline clip-path="url(#clip210)" style="stroke:#000000; stroke-linecap:round; stroke-linejoin:round; stroke-width:4; stroke-opacity:1; fill:none" points="
  474.476,1106.28 486.361,1106.28 
  "/>
<polyline clip-path="url(#clip210)" style="stroke:#000000; stroke-linecap:round; stroke-linejoin:round; stroke-width:4; stroke-opacity:1; fill:none" points="
  474.476,766.846 486.361,766.846 
  "/>
<polyline clip-path="url(#clip210)" style="stroke:#000000; stroke-linecap:round; stroke-linejoin:round; stroke-width:4; stroke-opacity:1; fill:none" points="
  474.476,427.411 486.361,427.411 
  "/>
<polyline clip-path="url(#clip210)" style="stroke:#000000; stroke-linecap:round; stroke-linejoin:round; stroke-width:4; stroke-opacity:1; fill:none" points="
  474.476,87.9763 486.361,87.9763 
  "/>
<path clip-path="url(#clip210)" d="M331.532 1446.17 L361.208 1446.17 L361.208 1450.1 L331.532 1450.1 L331.532 1446.17 Z" fill="#000000" fill-rule="evenodd" fill-opacity="1" /><path clip-path="url(#clip210)" d="M372.111 1459.06 L379.75 1459.06 L379.75 1432.69 L371.44 1434.36 L371.44 1430.1 L379.703 1428.44 L384.379 1428.44 L384.379 1459.06 L392.018 1459.06 L392.018 1463 L372.111 1463 L372.111 1459.06 Z" fill="#000000" fill-rule="evenodd" fill-opacity="1" /><path clip-path="url(#clip210)" d="M401.463 1457.12 L406.347 1457.12 L406.347 1463 L401.463 1463 L401.463 1457.12 Z" fill="#000000" fill-rule="evenodd" fill-opacity="1" /><path clip-path="url(#clip210)" d="M426.532 1431.51 Q422.921 1431.51 421.092 1435.08 Q419.287 1438.62 419.287 1445.75 Q419.287 1452.86 421.092 1456.42 Q422.921 1459.96 426.532 1459.96 Q430.166 1459.96 431.972 1456.42 Q433.8 1452.86 433.8 1445.75 Q433.8 1438.62 431.972 1435.08 Q430.166 1431.51 426.532 1431.51 M426.532 1427.81 Q432.342 1427.81 435.398 1432.42 Q438.476 1437 438.476 1445.75 Q438.476 1454.48 435.398 1459.08 Q432.342 1463.67 426.532 1463.67 Q420.722 1463.67 417.643 1459.08 Q414.587 1454.48 414.587 1445.75 Q414.587 1437 417.643 1432.42 Q420.722 1427.81 426.532 1427.81 Z" fill="#000000" fill-rule="evenodd" fill-opacity="1" /><path clip-path="url(#clip210)" d="M332.528 1106.73 L362.204 1106.73 L362.204 1110.67 L332.528 1110.67 L332.528 1106.73 Z" fill="#000000" fill-rule="evenodd" fill-opacity="1" /><path clip-path="url(#clip210)" d="M382.296 1092.08 Q378.685 1092.08 376.856 1095.64 Q375.051 1099.19 375.051 1106.32 Q375.051 1113.42 376.856 1116.99 Q378.685 1120.53 382.296 1120.53 Q385.93 1120.53 387.736 1116.99 Q389.564 1113.42 389.564 1106.32 Q389.564 1099.19 387.736 1095.64 Q385.93 1092.08 382.296 1092.08 M382.296 1088.38 Q388.106 1088.38 391.162 1092.98 Q394.24 1097.57 394.24 1106.32 Q394.24 1115.04 391.162 1119.65 Q388.106 1124.23 382.296 1124.23 Q376.486 1124.23 373.407 1119.65 Q370.352 1115.04 370.352 1106.32 Q370.352 1097.57 373.407 1092.98 Q376.486 1088.38 382.296 1088.38 Z" fill="#000000" fill-rule="evenodd" fill-opacity="1" /><path clip-path="url(#clip210)" d="M402.458 1117.68 L407.342 1117.68 L407.342 1123.56 L402.458 1123.56 L402.458 1117.68 Z" fill="#000000" fill-rule="evenodd" fill-opacity="1" /><path clip-path="url(#clip210)" d="M417.574 1089 L435.93 1089 L435.93 1092.94 L421.856 1092.94 L421.856 1101.41 Q422.874 1101.06 423.893 1100.9 Q424.912 1100.71 425.93 1100.71 Q431.717 1100.71 435.097 1103.89 Q438.476 1107.06 438.476 1112.47 Q438.476 1118.05 435.004 1121.15 Q431.532 1124.23 425.212 1124.23 Q423.037 1124.23 420.768 1123.86 Q418.523 1123.49 416.115 1122.75 L416.115 1118.05 Q418.199 1119.19 420.421 1119.74 Q422.643 1120.3 425.12 1120.3 Q429.124 1120.3 431.462 1118.19 Q433.8 1116.08 433.8 1112.47 Q433.8 1108.86 431.462 1106.76 Q429.124 1104.65 425.12 1104.65 Q423.245 1104.65 421.37 1105.07 Q419.518 1105.48 417.574 1106.36 L417.574 1089 Z" fill="#000000" fill-rule="evenodd" fill-opacity="1" /><path clip-path="url(#clip210)" d="M381.301 752.645 Q377.69 752.645 375.861 756.209 Q374.055 759.751 374.055 766.881 Q374.055 773.987 375.861 777.552 Q377.69 781.094 381.301 781.094 Q384.935 781.094 386.74 777.552 Q388.569 773.987 388.569 766.881 Q388.569 759.751 386.74 756.209 Q384.935 752.645 381.301 752.645 M381.301 748.941 Q387.111 748.941 390.166 753.547 Q393.245 758.131 393.245 766.881 Q393.245 775.608 390.166 780.214 Q387.111 784.797 381.301 784.797 Q375.49 784.797 372.412 780.214 Q369.356 775.608 369.356 766.881 Q369.356 758.131 372.412 753.547 Q375.49 748.941 381.301 748.941 Z" fill="#000000" fill-rule="evenodd" fill-opacity="1" /><path clip-path="url(#clip210)" d="M401.463 778.246 L406.347 778.246 L406.347 784.126 L401.463 784.126 L401.463 778.246 Z" fill="#000000" fill-rule="evenodd" fill-opacity="1" /><path clip-path="url(#clip210)" d="M426.532 752.645 Q422.921 752.645 421.092 756.209 Q419.287 759.751 419.287 766.881 Q419.287 773.987 421.092 777.552 Q422.921 781.094 426.532 781.094 Q430.166 781.094 431.972 777.552 Q433.8 773.987 433.8 766.881 Q433.8 759.751 431.972 756.209 Q430.166 752.645 426.532 752.645 M426.532 748.941 Q432.342 748.941 435.398 753.547 Q438.476 758.131 438.476 766.881 Q438.476 775.608 435.398 780.214 Q432.342 784.797 426.532 784.797 Q420.722 784.797 417.643 780.214 Q414.587 775.608 414.587 766.881 Q414.587 758.131 417.643 753.547 Q420.722 748.941 426.532 748.941 Z" fill="#000000" fill-rule="evenodd" fill-opacity="1" /><path clip-path="url(#clip210)" d="M382.296 413.21 Q378.685 413.21 376.856 416.775 Q375.051 420.316 375.051 427.446 Q375.051 434.552 376.856 438.117 Q378.685 441.659 382.296 441.659 Q385.93 441.659 387.736 438.117 Q389.564 434.552 389.564 427.446 Q389.564 420.316 387.736 416.775 Q385.93 413.21 382.296 413.21 M382.296 409.506 Q388.106 409.506 391.162 414.113 Q394.24 418.696 394.24 427.446 Q394.24 436.173 391.162 440.779 Q388.106 445.362 382.296 445.362 Q376.486 445.362 373.407 440.779 Q370.352 436.173 370.352 427.446 Q370.352 418.696 373.407 414.113 Q376.486 409.506 382.296 409.506 Z" fill="#000000" fill-rule="evenodd" fill-opacity="1" /><path clip-path="url(#clip210)" d="M402.458 438.812 L407.342 438.812 L407.342 444.691 L402.458 444.691 L402.458 438.812 Z" fill="#000000" fill-rule="evenodd" fill-opacity="1" /><path clip-path="url(#clip210)" d="M417.574 410.131 L435.93 410.131 L435.93 414.066 L421.856 414.066 L421.856 422.538 Q422.874 422.191 423.893 422.029 Q424.912 421.844 425.93 421.844 Q431.717 421.844 435.097 425.015 Q438.476 428.187 438.476 433.603 Q438.476 439.182 435.004 442.284 Q431.532 445.362 425.212 445.362 Q423.037 445.362 420.768 444.992 Q418.523 444.622 416.115 443.881 L416.115 439.182 Q418.199 440.316 420.421 440.872 Q422.643 441.427 425.12 441.427 Q429.124 441.427 431.462 439.321 Q433.8 437.214 433.8 433.603 Q433.8 429.992 431.462 427.886 Q429.124 425.779 425.12 425.779 Q423.245 425.779 421.37 426.196 Q419.518 426.613 417.574 427.492 L417.574 410.131 Z" fill="#000000" fill-rule="evenodd" fill-opacity="1" /><path clip-path="url(#clip210)" d="M372.111 101.321 L379.75 101.321 L379.75 74.9555 L371.44 76.6222 L371.44 72.3629 L379.703 70.6963 L384.379 70.6963 L384.379 101.321 L392.018 101.321 L392.018 105.256 L372.111 105.256 L372.111 101.321 Z" fill="#000000" fill-rule="evenodd" fill-opacity="1" /><path clip-path="url(#clip210)" d="M401.463 99.3767 L406.347 99.3767 L406.347 105.256 L401.463 105.256 L401.463 99.3767 Z" fill="#000000" fill-rule="evenodd" fill-opacity="1" /><path clip-path="url(#clip210)" d="M426.532 73.775 Q422.921 73.775 421.092 77.3398 Q419.287 80.8814 419.287 88.011 Q419.287 95.1174 421.092 98.6822 Q422.921 102.224 426.532 102.224 Q430.166 102.224 431.972 98.6822 Q433.8 95.1174 433.8 88.011 Q433.8 80.8814 431.972 77.3398 Q430.166 73.775 426.532 73.775 M426.532 70.0713 Q432.342 70.0713 435.398 74.6777 Q438.476 79.261 438.476 88.011 Q438.476 96.7378 435.398 101.344 Q432.342 105.928 426.532 105.928 Q420.722 105.928 417.643 101.344 Q414.587 96.7378 414.587 88.011 Q414.587 79.261 417.643 74.6777 Q420.722 70.0713 426.532 70.0713 Z" fill="#000000" fill-rule="evenodd" fill-opacity="1" /><polyline clip-path="url(#clip212)" style="stroke:#cd4247; stroke-linecap:round; stroke-linejoin:round; stroke-width:4; stroke-opacity:1; fill:none" points="
  827.488,1445.72 813.911,1433.14 755.111,1377.83 746.024,1369.15 684.978,1309.94 678.137,1303.2 616.987,1242.05 610.25,1235.21 551.04,1174.17 542.363,1165.08 
  487.048,1106.28 474.476,1092.7 
  "/>
<polyline clip-path="url(#clip212)" style="stroke:#a42c60; stroke-linecap:round; stroke-linejoin:round; stroke-width:4; stroke-opacity:1; fill:none" points="
  474.476,979.362 527.931,1038.39 542.363,1054.06 591.242,1106.28 610.25,1126.25 656.612,1174.17 678.137,1196.05 724.143,1242.05 746.024,1263.58 793.944,1309.94 
  813.911,1328.95 866.132,1377.83 881.798,1392.26 940.83,1445.72 
  "/>
<polyline clip-path="url(#clip212)" style="stroke:#ba3655; stroke-linecap:round; stroke-linejoin:round; stroke-width:4; stroke-opacity:1; fill:none" points="
  881.798,1445.72 881.798,1445.72 813.911,1382.86 808.566,1377.83 746.024,1318.11 737.604,1309.94 678.137,1251.38 668.809,1242.05 610.25,1182.59 602.083,1174.17 
  542.363,1111.63 537.335,1106.28 474.476,1038.39 
  "/>
<polyline clip-path="url(#clip212)" style="stroke:#8e2468; stroke-linecap:round; stroke-linejoin:round; stroke-width:4; stroke-opacity:1; fill:none" points="
  474.476,915.551 522.967,970.507 542.363,992.078 584.72,1038.39 610.25,1065.8 648.621,1106.28 678.137,1136.86 714.784,1174.17 746.024,1205.41 783.331,1242.05 
  813.911,1271.57 854.394,1309.94 881.798,1335.47 928.113,1377.83 949.685,1397.22 1004.64,1445.72 
  "/>
<polyline clip-path="url(#clip212)" style="stroke:#781c6d; stroke-linecap:round; stroke-linejoin:round; stroke-width:4; stroke-opacity:1; fill:none" points="
  1074.74,1445.72 1017.57,1396.79 995.876,1377.83 949.685,1336.72 920.199,1309.94 881.798,1274.41 847.519,1242.05 813.911,1209.73 777.661,1174.17 746.024,1142.53 
  710.464,1106.28 678.137,1072.67 645.78,1038.39 610.25,999.993 583.469,970.507 542.363,924.316 523.404,902.62 474.476,845.452 
  "/>
<polyline clip-path="url(#clip212)" style="stroke:#60136e; stroke-linecap:round; stroke-linejoin:round; stroke-width:4; stroke-opacity:1; fill:none" points="
  474.476,766.846 474.476,766.846 530.499,834.733 542.363,848.779 588.741,902.62 610.25,927.029 649.337,970.507 678.137,1001.84 712.431,1038.39 746.024,1073.43 
  778.181,1106.28 813.911,1142.01 846.76,1174.17 881.798,1207.76 918.353,1242.05 949.685,1270.86 993.163,1309.94 1017.57,1331.45 1071.41,1377.83 1085.46,1389.69 
  1153.35,1445.72 
  "/>
<polyline clip-path="url(#clip212)" style="stroke:#4a0b6a; stroke-linecap:round; stroke-linejoin:round; stroke-width:4; stroke-opacity:1; fill:none" points="
  1247.34,1445.72 1221.23,1426.21 1158.41,1377.83 1153.35,1373.84 1085.46,1317.97 1076.01,1309.94 1017.57,1259.21 998.295,1242.05 949.685,1197.81 924.33,1174.17 
  881.798,1133.59 853.845,1106.28 813.911,1066.35 786.6,1038.39 746.024,995.862 722.378,970.507 678.137,921.896 660.979,902.62 610.25,844.186 602.221,834.733 
  546.357,766.846 542.363,761.78 493.984,698.959 474.476,672.849 
  "/>
<polyline clip-path="url(#clip212)" style="stroke:#32095d; stroke-linecap:round; stroke-linejoin:round; stroke-width:4; stroke-opacity:1; fill:none" points="
  474.476,555.642 479.257,563.185 526.036,631.072 542.363,653.701 575.866,698.959 610.25,743.833 628.353,766.846 678.137,828.056 683.717,834.733 742.672,902.62 
  746.024,906.34 805.318,970.507 813.911,979.558 871.218,1038.39 881.798,1048.97 940.633,1106.28 949.685,1114.87 1013.85,1174.17 1017.57,1177.52 1085.46,1236.48 
  1092.14,1242.05 1153.35,1291.84 1176.36,1309.94 1221.23,1344.33 1266.49,1377.83 1289.12,1394.16 1357.01,1440.93 1364.55,1445.72 
  "/>
<polyline clip-path="url(#clip212)" style="stroke:#1a0b40; stroke-linecap:round; stroke-linejoin:round; stroke-width:4; stroke-opacity:1; fill:none" points="
  1560.67,1445.72 1560.67,1445.72 1492.78,1414.86 1424.89,1381.06 1419.39,1377.83 1357.01,1339.99 1310.01,1309.94 1289.12,1296.13 1221.23,1248.13 1213.25,1242.05 
  1153.35,1195.06 1127.73,1174.17 1085.46,1138.61 1048.43,1106.28 1017.57,1078.46 974.696,1038.39 949.685,1014.23 905.961,970.507 881.798,945.496 841.734,902.62 
  813.911,871.762 781.584,834.733 746.024,792.464 725.136,766.846 678.137,706.946 672.058,698.959 624.058,631.072 610.25,610.184 580.202,563.185 542.363,500.802 
  539.131,495.298 505.334,427.411 474.476,359.524 
  "/>
<polyline clip-path="url(#clip212)" style="stroke:#1a0b40; stroke-linecap:round; stroke-linejoin:round; stroke-width:4; stroke-opacity:1; fill:none" points="
  474.476,87.9763 474.476,87.9763 
  "/>
<polyline clip-path="url(#clip212)" style="stroke:#1a0b40; stroke-linecap:round; stroke-linejoin:round; stroke-width:4; stroke-opacity:1; fill:none" points="
  746.024,87.9763 746.024,87.9763 813.911,118.834 881.798,152.631 887.302,155.863 949.685,193.702 996.684,223.75 1017.57,237.558 1085.46,285.558 1093.45,291.637 
  1153.35,338.636 1178.96,359.524 1221.23,395.084 1258.26,427.411 1289.12,455.234 1332,495.298 1357.01,519.461 1400.73,563.185 1424.89,588.196 1464.96,631.072 
  1492.78,661.93 1525.11,698.959 1560.67,741.228 1581.56,766.846 1628.55,826.746 1634.63,834.733 1682.63,902.62 1696.44,923.508 1726.49,970.507 1764.33,1032.89 
  1767.56,1038.39 1801.36,1106.28 1832.22,1174.17 
  "/>
<polyline clip-path="url(#clip212)" style="stroke:#32095d; stroke-linecap:round; stroke-linejoin:round; stroke-width:4; stroke-opacity:1; fill:none" points="
  1832.22,978.05 1827.43,970.507 1780.66,902.62 1764.33,879.991 1730.83,834.733 1696.44,789.859 1678.34,766.846 1628.55,705.636 1622.97,698.959 1564.02,631.072 
  1560.67,627.352 1501.37,563.185 1492.78,554.133 1435.47,495.298 1424.89,484.718 1366.06,427.411 1357.01,418.818 1292.84,359.524 1289.12,356.172 1221.23,297.217 
  1214.56,291.637 1153.35,241.853 1130.33,223.75 1085.46,189.366 1040.2,155.863 1017.57,139.536 949.685,92.757 942.142,87.9763 
  "/>
<polyline clip-path="url(#clip212)" style="stroke:#4a0b6a; stroke-linecap:round; stroke-linejoin:round; stroke-width:4; stroke-opacity:1; fill:none" points="
  1059.35,87.9763 1085.46,107.484 1148.28,155.863 1153.35,159.857 1221.23,215.721 1230.69,223.75 1289.12,274.479 1308.4,291.637 1357.01,335.878 1382.36,359.524 
  1424.89,400.1 1452.85,427.411 1492.78,467.345 1520.09,495.298 1560.67,537.83 1584.31,563.185 1628.55,611.795 1645.71,631.072 1696.44,689.506 1704.47,698.959 
  1760.34,766.846 1764.33,771.912 1812.71,834.733 1832.22,860.843 
  "/>
<polyline clip-path="url(#clip212)" style="stroke:#60136e; stroke-linecap:round; stroke-linejoin:round; stroke-width:4; stroke-opacity:1; fill:none" points="
  1832.22,766.846 1832.22,766.846 1776.19,698.959 1764.33,684.913 1717.95,631.072 1696.44,606.663 1657.36,563.185 1628.55,531.853 1594.26,495.298 1560.67,460.26 
  1528.51,427.411 1492.78,391.681 1459.93,359.524 1424.89,325.931 1388.34,291.637 1357.01,262.837 1313.53,223.75 1289.12,202.241 1235.28,155.863 1221.23,144 
  1153.35,87.9763 
  "/>
<polyline clip-path="url(#clip212)" style="stroke:#781c6d; stroke-linecap:round; stroke-linejoin:round; stroke-width:4; stroke-opacity:1; fill:none" points="
  1231.95,87.9763 1289.12,136.904 1310.82,155.863 1357.01,196.969 1386.49,223.75 1424.89,259.28 1459.17,291.637 1492.78,323.964 1529.03,359.524 1560.67,391.161 
  1596.23,427.411 1628.55,461.019 1660.91,495.298 1696.44,533.699 1723.22,563.185 1764.33,609.376 1783.29,631.072 1832.22,688.24 
  "/>
<polyline clip-path="url(#clip212)" style="stroke:#8e2468; stroke-linecap:round; stroke-linejoin:round; stroke-width:4; stroke-opacity:1; fill:none" points="
  1832.22,618.141 1783.72,563.185 1764.33,541.614 1721.97,495.298 1696.44,467.894 1658.07,427.411 1628.55,396.831 1591.91,359.524 1560.67,328.284 1523.36,291.637 
  1492.78,262.121 1452.3,223.75 1424.89,198.22 1378.58,155.863 1357.01,136.467 1302.05,87.9763 
  "/>
<polyline clip-path="url(#clip212)" style="stroke:#a42c60; stroke-linecap:round; stroke-linejoin:round; stroke-width:4; stroke-opacity:1; fill:none" points="
  1365.86,87.9763 1424.89,141.431 1440.56,155.863 1492.78,204.742 1512.75,223.75 1560.67,270.112 1582.55,291.637 1628.55,337.643 1650.08,359.524 1696.44,407.444 
  1715.45,427.411 1764.33,479.632 1778.76,495.298 1832.22,554.33 
  "/>
<polyline clip-path="url(#clip212)" style="stroke:#ba3655; stroke-linecap:round; stroke-linejoin:round; stroke-width:4; stroke-opacity:1; fill:none" points="
  1832.22,495.298 1832.22,495.298 1769.36,427.411 1764.33,422.066 1704.61,359.524 1696.44,351.104 1637.88,291.637 1628.55,282.309 1569.09,223.75 1560.67,215.583 
  1498.13,155.863 1492.78,150.835 1424.89,87.9763 
  "/>
<polyline clip-path="url(#clip212)" style="stroke:#cd4247; stroke-linecap:round; stroke-linejoin:round; stroke-width:4; stroke-opacity:1; fill:none" points="
  1479.2,87.9763 1492.78,100.548 1551.58,155.863 1560.67,164.541 1621.71,223.75 1628.55,230.487 1689.7,291.637 1696.44,298.479 1755.65,359.524 1764.33,368.611 
  1819.64,427.411 1832.22,440.989 
  "/>
<polyline clip-path="url(#clip212)" style="stroke:#1a0b40; stroke-linecap:round; stroke-linejoin:round; stroke-width:4; stroke-opacity:1; fill:none" points="
  1832.22,1445.72 1832.22,1445.72 
  "/>
<polyline clip-path="url(#clip212)" style="stroke:#08061f; stroke-linecap:round; stroke-linejoin:round; stroke-width:4; stroke-opacity:1; fill:none" points="
  1635.7,1242.05 1628.55,1249.2 1560.67,1269.71 1492.78,1261.45 1431.07,1242.05 1424.89,1240 1357.01,1205.63 1300.93,1174.17 1289.12,1167.21 1221.23,1120.72 
  1201.84,1106.28 1153.35,1068.57 1116.65,1038.39 1085.46,1011.55 1040.2,970.507 1017.57,948.982 971.21,902.62 949.685,879.991 908.637,834.733 881.798,803.542 
  851.626,766.846 813.911,718.355 799.467,698.959 752.987,631.072 746.024,619.266 714.564,563.185 680.194,495.298 678.137,489.127 658.741,427.411 650.48,359.524 
  670.991,291.637 678.137,284.491 746.024,263.98 813.911,272.241 875.627,291.637 881.798,293.694 949.685,328.064 1005.77,359.524 1017.57,366.487 1085.46,412.967 
  1104.86,427.411 1153.35,465.126 1190.04,495.298 1221.23,522.137 1266.49,563.185 1289.12,584.71 1335.48,631.072 1357.01,653.701 1398.05,698.959 1424.89,730.15 
  1455.07,766.846 1492.78,815.337 1507.22,834.733 1553.71,902.62 1560.67,914.426 1592.13,970.507 1626.5,1038.39 1628.55,1044.57 1647.95,1106.28 1656.21,1174.17 
  1635.7,1242.05 
  "/>
<polyline clip-path="url(#clip212)" style="stroke:#e26f46; stroke-linecap:round; stroke-linejoin:round; stroke-width:4; stroke-opacity:1; fill:none" points="
  1153.35,766.846 673.313,286.813 
  "/>
<polyline clip-path="url(#clip212)" style="stroke:#3da44d; stroke-linecap:round; stroke-linejoin:round; stroke-width:4; stroke-opacity:1; fill:none" points="
  1153.35,766.846 1313.36,606.835 
  "/>
<defs>
  <clipPath id="clip213">
    <rect x="1880" y="47" width="73" height="1440"/>
  </clipPath>
</defs>
<polyline clip-path="url(#clip213)" style="stroke:#08061f; stroke-linecap:round; stroke-linejoin:round; stroke-width:4; stroke-opacity:1; fill:none" points="
  1880.22,1406.49 1952.22,1406.49 
  "/>
<polyline clip-path="url(#clip213)" style="stroke:#1a0b40; stroke-linecap:round; stroke-linejoin:round; stroke-width:4; stroke-opacity:1; fill:none" points="
  1880.22,1326.54 1952.22,1326.54 
  "/>
<polyline clip-path="url(#clip213)" style="stroke:#32095d; stroke-linecap:round; stroke-linejoin:round; stroke-width:4; stroke-opacity:1; fill:none" points="
  1880.22,1246.58 1952.22,1246.58 
  "/>
<polyline clip-path="url(#clip213)" style="stroke:#4b0c6b; stroke-linecap:round; stroke-linejoin:round; stroke-width:4; stroke-opacity:1; fill:none" points="
  1880.22,1166.62 1952.22,1166.62 
  "/>
<polyline clip-path="url(#clip213)" style="stroke:#62146e; stroke-linecap:round; stroke-linejoin:round; stroke-width:4; stroke-opacity:1; fill:none" points="
  1880.22,1086.67 1952.22,1086.67 
  "/>
<polyline clip-path="url(#clip213)" style="stroke:#781c6d; stroke-linecap:round; stroke-linejoin:round; stroke-width:4; stroke-opacity:1; fill:none" points="
  1880.22,1006.71 1952.22,1006.71 
  "/>
<polyline clip-path="url(#clip213)" style="stroke:#8e2468; stroke-linecap:round; stroke-linejoin:round; stroke-width:4; stroke-opacity:1; fill:none" points="
  1880.22,926.758 1952.22,926.758 
  "/>
<polyline clip-path="url(#clip213)" style="stroke:#a42c60; stroke-linecap:round; stroke-linejoin:round; stroke-width:4; stroke-opacity:1; fill:none" points="
  1880.22,846.802 1952.22,846.802 
  "/>
<polyline clip-path="url(#clip213)" style="stroke:#bb3754; stroke-linecap:round; stroke-linejoin:round; stroke-width:4; stroke-opacity:1; fill:none" points="
  1880.22,766.846 1952.22,766.846 
  "/>
<polyline clip-path="url(#clip213)" style="stroke:#cf4446; stroke-linecap:round; stroke-linejoin:round; stroke-width:4; stroke-opacity:1; fill:none" points="
  1880.22,686.89 1952.22,686.89 
  "/>
<path clip-path="url(#clip210)" d="M2000.16 1468.62 Q1996.55 1468.62 1994.72 1472.18 Q1992.91 1475.72 1992.91 1482.85 Q1992.91 1489.96 1994.72 1493.53 Q1996.55 1497.07 2000.16 1497.07 Q2003.79 1497.07 2005.6 1493.53 Q2007.43 1489.96 2007.43 1482.85 Q2007.43 1475.72 2005.6 1472.18 Q2003.79 1468.62 2000.16 1468.62 M2000.16 1464.91 Q2005.97 1464.91 2009.03 1469.52 Q2012.1 1474.1 2012.1 1482.85 Q2012.1 1491.58 2009.03 1496.19 Q2005.97 1500.77 2000.16 1500.77 Q1994.35 1500.77 1991.27 1496.19 Q1988.22 1491.58 1988.22 1482.85 Q1988.22 1474.1 1991.27 1469.52 Q1994.35 1464.91 2000.16 1464.91 Z" fill="#000000" fill-rule="evenodd" fill-opacity="1" /><path clip-path="url(#clip210)" d="M1993.84 1296.27 L2010.16 1296.27 L2010.16 1300.21 L1988.22 1300.21 L1988.22 1296.27 Q1990.88 1293.52 1995.46 1288.89 Q2000.07 1284.24 2001.25 1282.89 Q2003.49 1280.37 2004.37 1278.64 Q2005.28 1276.88 2005.28 1275.19 Q2005.28 1272.43 2003.33 1270.7 Q2001.41 1268.96 1998.31 1268.96 Q1996.11 1268.96 1993.66 1269.72 Q1991.22 1270.49 1988.45 1272.04 L1988.45 1267.32 Q1991.27 1266.18 1993.72 1265.6 Q1996.18 1265.02 1998.22 1265.02 Q2003.59 1265.02 2006.78 1267.71 Q2009.97 1270.4 2009.97 1274.89 Q2009.97 1277.02 2009.16 1278.94 Q2008.38 1280.83 2006.27 1283.43 Q2005.69 1284.1 2002.59 1287.32 Q1999.49 1290.51 1993.84 1296.27 Z" fill="#000000" fill-rule="evenodd" fill-opacity="1" /><path clip-path="url(#clip210)" d="M2019.97 1294.33 L2024.86 1294.33 L2024.86 1300.21 L2019.97 1300.21 L2019.97 1294.33 Z" fill="#000000" fill-rule="evenodd" fill-opacity="1" /><path clip-path="url(#clip210)" d="M2035.09 1265.65 L2053.45 1265.65 L2053.45 1269.58 L2039.37 1269.58 L2039.37 1278.06 Q2040.39 1277.71 2041.41 1277.55 Q2042.43 1277.36 2043.45 1277.36 Q2049.23 1277.36 2052.61 1280.53 Q2055.99 1283.71 2055.99 1289.12 Q2055.99 1294.7 2052.52 1297.8 Q2049.05 1300.88 2042.73 1300.88 Q2040.55 1300.88 2038.28 1300.51 Q2036.04 1300.14 2033.63 1299.4 L2033.63 1294.7 Q2035.72 1295.83 2037.94 1296.39 Q2040.16 1296.95 2042.64 1296.95 Q2046.64 1296.95 2048.98 1294.84 Q2051.32 1292.73 2051.32 1289.12 Q2051.32 1285.51 2048.98 1283.4 Q2046.64 1281.3 2042.64 1281.3 Q2040.76 1281.3 2038.89 1281.71 Q2037.03 1282.13 2035.09 1283.01 L2035.09 1265.65 Z" fill="#000000" fill-rule="evenodd" fill-opacity="1" /><path clip-path="url(#clip210)" d="M1989.67 1065.76 L2008.03 1065.76 L2008.03 1069.7 L1993.96 1069.7 L1993.96 1078.17 Q1994.97 1077.82 1995.99 1077.66 Q1997.01 1077.47 1998.03 1077.47 Q2003.82 1077.47 2007.2 1080.64 Q2010.58 1083.82 2010.58 1089.23 Q2010.58 1094.81 2007.1 1097.91 Q2003.63 1100.99 1997.31 1100.99 Q1995.14 1100.99 1992.87 1100.62 Q1990.62 1100.25 1988.22 1099.51 L1988.22 1094.81 Q1990.3 1095.95 1992.52 1096.5 Q1994.74 1097.06 1997.22 1097.06 Q2001.22 1097.06 2003.56 1094.95 Q2005.9 1092.84 2005.9 1089.23 Q2005.9 1085.62 2003.56 1083.51 Q2001.22 1081.41 1997.22 1081.41 Q1995.35 1081.41 1993.47 1081.82 Q1991.62 1082.24 1989.67 1083.12 L1989.67 1065.76 Z" fill="#000000" fill-rule="evenodd" fill-opacity="1" /><path clip-path="url(#clip210)" d="M2019.79 1094.44 L2024.67 1094.44 L2024.67 1100.32 L2019.79 1100.32 L2019.79 1094.44 Z" fill="#000000" fill-rule="evenodd" fill-opacity="1" /><path clip-path="url(#clip210)" d="M2044.86 1068.84 Q2041.25 1068.84 2039.42 1072.4 Q2037.61 1075.95 2037.61 1083.07 Q2037.61 1090.18 2039.42 1093.75 Q2041.25 1097.29 2044.86 1097.29 Q2048.49 1097.29 2050.3 1093.75 Q2052.13 1090.18 2052.13 1083.07 Q2052.13 1075.95 2050.3 1072.4 Q2048.49 1068.84 2044.86 1068.84 M2044.86 1065.14 Q2050.67 1065.14 2053.72 1069.74 Q2056.8 1074.33 2056.8 1083.07 Q2056.8 1091.8 2053.72 1096.41 Q2050.67 1100.99 2044.86 1100.99 Q2039.05 1100.99 2035.97 1096.41 Q2032.91 1091.8 2032.91 1083.07 Q2032.91 1074.33 2035.97 1069.74 Q2039.05 1065.14 2044.86 1065.14 Z" fill="#000000" fill-rule="evenodd" fill-opacity="1" /><path clip-path="url(#clip210)" d="M1988.22 865.871 L2010.44 865.871 L2010.44 867.862 L1997.89 900.431 L1993.01 900.431 L2004.81 869.806 L1988.22 869.806 L1988.22 865.871 Z" fill="#000000" fill-rule="evenodd" fill-opacity="1" /><path clip-path="url(#clip210)" d="M2019.56 894.551 L2024.44 894.551 L2024.44 900.431 L2019.56 900.431 L2019.56 894.551 Z" fill="#000000" fill-rule="evenodd" fill-opacity="1" /><path clip-path="url(#clip210)" d="M2034.67 865.871 L2053.03 865.871 L2053.03 869.806 L2038.96 869.806 L2038.96 878.278 Q2039.97 877.931 2040.99 877.769 Q2042.01 877.584 2043.03 877.584 Q2048.82 877.584 2052.2 880.755 Q2055.58 883.926 2055.58 889.343 Q2055.58 894.922 2052.1 898.023 Q2048.63 901.102 2042.31 901.102 Q2040.14 901.102 2037.87 900.732 Q2035.62 900.361 2033.22 899.621 L2033.22 894.922 Q2035.3 896.056 2037.52 896.611 Q2039.74 897.167 2042.22 897.167 Q2046.22 897.167 2048.56 895.06 Q2050.9 892.954 2050.9 889.343 Q2050.9 885.732 2048.56 883.625 Q2046.22 881.519 2042.22 881.519 Q2040.35 881.519 2038.47 881.936 Q2036.62 882.352 2034.67 883.232 L2034.67 865.871 Z" fill="#000000" fill-rule="evenodd" fill-opacity="1" /><path clip-path="url(#clip210)" d="M1988.89 696.606 L1996.53 696.606 L1996.53 670.241 L1988.22 671.907 L1988.22 667.648 L1996.48 665.981 L2001.16 665.981 L2001.16 696.606 L2008.79 696.606 L2008.79 700.541 L1988.89 700.541 L1988.89 696.606 Z" fill="#000000" fill-rule="evenodd" fill-opacity="1" /><path clip-path="url(#clip210)" d="M2028.24 669.06 Q2024.63 669.06 2022.8 672.625 Q2020.99 676.167 2020.99 683.296 Q2020.99 690.403 2022.8 693.967 Q2024.63 697.509 2028.24 697.509 Q2031.87 697.509 2033.68 693.967 Q2035.51 690.403 2035.51 683.296 Q2035.51 676.167 2033.68 672.625 Q2031.87 669.06 2028.24 669.06 M2028.24 665.356 Q2034.05 665.356 2037.1 669.963 Q2040.18 674.546 2040.18 683.296 Q2040.18 692.023 2037.1 696.629 Q2034.05 701.213 2028.24 701.213 Q2022.43 701.213 2019.35 696.629 Q2016.29 692.023 2016.29 683.296 Q2016.29 674.546 2019.35 669.963 Q2022.43 665.356 2028.24 665.356 Z" fill="#000000" fill-rule="evenodd" fill-opacity="1" /><path clip-path="url(#clip210)" d="M2048.4 694.662 L2053.28 694.662 L2053.28 700.541 L2048.4 700.541 L2048.4 694.662 Z" fill="#000000" fill-rule="evenodd" fill-opacity="1" /><path clip-path="url(#clip210)" d="M2073.47 669.06 Q2069.86 669.06 2068.03 672.625 Q2066.22 676.167 2066.22 683.296 Q2066.22 690.403 2068.03 693.967 Q2069.86 697.509 2073.47 697.509 Q2077.1 697.509 2078.91 693.967 Q2080.74 690.403 2080.74 683.296 Q2080.74 676.167 2078.91 672.625 Q2077.1 669.06 2073.47 669.06 M2073.47 665.356 Q2079.28 665.356 2082.34 669.963 Q2085.41 674.546 2085.41 683.296 Q2085.41 692.023 2082.34 696.629 Q2079.28 701.213 2073.47 701.213 Q2067.66 701.213 2064.58 696.629 Q2061.53 692.023 2061.53 683.296 Q2061.53 674.546 2064.58 669.963 Q2067.66 665.356 2073.47 665.356 Z" fill="#000000" fill-rule="evenodd" fill-opacity="1" /><path clip-path="url(#clip210)" d="M1988.89 496.717 L1996.53 496.717 L1996.53 470.351 L1988.22 472.018 L1988.22 467.759 L1996.48 466.092 L2001.16 466.092 L2001.16 496.717 L2008.79 496.717 L2008.79 500.652 L1988.89 500.652 L1988.89 496.717 Z" fill="#000000" fill-rule="evenodd" fill-opacity="1" /><path clip-path="url(#clip210)" d="M2022.27 496.717 L2038.59 496.717 L2038.59 500.652 L2016.64 500.652 L2016.64 496.717 Q2019.3 493.962 2023.89 489.333 Q2028.49 484.68 2029.67 483.337 Q2031.92 480.814 2032.8 479.078 Q2033.7 477.319 2033.7 475.629 Q2033.7 472.874 2031.76 471.138 Q2029.84 469.402 2026.73 469.402 Q2024.53 469.402 2022.08 470.166 Q2019.65 470.93 2016.87 472.481 L2016.87 467.759 Q2019.7 466.624 2022.15 466.046 Q2024.6 465.467 2026.64 465.467 Q2032.01 465.467 2035.21 468.152 Q2038.4 470.837 2038.4 475.328 Q2038.4 477.458 2037.59 479.379 Q2036.8 481.277 2034.7 483.87 Q2034.12 484.541 2031.02 487.759 Q2027.91 490.953 2022.27 496.717 Z" fill="#000000" fill-rule="evenodd" fill-opacity="1" /><path clip-path="url(#clip210)" d="M2048.4 494.772 L2053.28 494.772 L2053.28 500.652 L2048.4 500.652 L2048.4 494.772 Z" fill="#000000" fill-rule="evenodd" fill-opacity="1" /><path clip-path="url(#clip210)" d="M2063.52 466.092 L2081.87 466.092 L2081.87 470.027 L2067.8 470.027 L2067.8 478.499 Q2068.82 478.152 2069.84 477.99 Q2070.85 477.805 2071.87 477.805 Q2077.66 477.805 2081.04 480.976 Q2084.42 484.147 2084.42 489.564 Q2084.42 495.143 2080.95 498.245 Q2077.47 501.323 2071.16 501.323 Q2068.98 501.323 2066.71 500.953 Q2064.47 500.583 2062.06 499.842 L2062.06 495.143 Q2064.14 496.277 2066.36 496.833 Q2068.59 497.388 2071.06 497.388 Q2075.07 497.388 2077.4 495.282 Q2079.74 493.175 2079.74 489.564 Q2079.74 485.953 2077.4 483.847 Q2075.07 481.74 2071.06 481.74 Q2069.19 481.74 2067.31 482.157 Q2065.46 482.573 2063.52 483.453 L2063.52 466.092 Z" fill="#000000" fill-rule="evenodd" fill-opacity="1" /><path clip-path="url(#clip210)" d="M1988.89 296.827 L1996.53 296.827 L1996.53 270.462 L1988.22 272.128 L1988.22 267.869 L1996.48 266.203 L2001.16 266.203 L2001.16 296.827 L2008.79 296.827 L2008.79 300.763 L1988.89 300.763 L1988.89 296.827 Z" fill="#000000" fill-rule="evenodd" fill-opacity="1" /><path clip-path="url(#clip210)" d="M2018.28 266.203 L2036.64 266.203 L2036.64 270.138 L2022.57 270.138 L2022.57 278.61 Q2023.59 278.263 2024.6 278.101 Q2025.62 277.915 2026.64 277.915 Q2032.43 277.915 2035.81 281.087 Q2039.19 284.258 2039.19 289.675 Q2039.19 295.253 2035.72 298.355 Q2032.24 301.434 2025.92 301.434 Q2023.75 301.434 2021.48 301.064 Q2019.23 300.693 2016.83 299.952 L2016.83 295.253 Q2018.91 296.388 2021.13 296.943 Q2023.35 297.499 2025.83 297.499 Q2029.84 297.499 2032.17 295.392 Q2034.51 293.286 2034.51 289.675 Q2034.51 286.064 2032.17 283.957 Q2029.84 281.851 2025.83 281.851 Q2023.96 281.851 2022.08 282.267 Q2020.23 282.684 2018.28 283.564 L2018.28 266.203 Z" fill="#000000" fill-rule="evenodd" fill-opacity="1" /><path clip-path="url(#clip210)" d="M2048.4 294.883 L2053.28 294.883 L2053.28 300.763 L2048.4 300.763 L2048.4 294.883 Z" fill="#000000" fill-rule="evenodd" fill-opacity="1" /><path clip-path="url(#clip210)" d="M2073.47 269.281 Q2069.86 269.281 2068.03 272.846 Q2066.22 276.388 2066.22 283.517 Q2066.22 290.624 2068.03 294.189 Q2069.86 297.73 2073.47 297.73 Q2077.1 297.73 2078.91 294.189 Q2080.74 290.624 2080.74 283.517 Q2080.74 276.388 2078.91 272.846 Q2077.1 269.281 2073.47 269.281 M2073.47 265.578 Q2079.28 265.578 2082.34 270.184 Q2085.41 274.767 2085.41 283.517 Q2085.41 292.244 2082.34 296.851 Q2079.28 301.434 2073.47 301.434 Q2067.66 301.434 2064.58 296.851 Q2061.53 292.244 2061.53 283.517 Q2061.53 274.767 2064.58 270.184 Q2067.66 265.578 2073.47 265.578 Z" fill="#000000" fill-rule="evenodd" fill-opacity="1" /><path clip-path="url(#clip210)" d="M1988.89 96.938 L1996.53 96.938 L1996.53 70.5724 L1988.22 72.2391 L1988.22 67.9798 L1996.48 66.3132 L2001.16 66.3132 L2001.16 96.938 L2008.79 96.938 L2008.79 100.873 L1988.89 100.873 L1988.89 96.938 Z" fill="#000000" fill-rule="evenodd" fill-opacity="1" /><path clip-path="url(#clip210)" d="M2017.06 66.3132 L2039.28 66.3132 L2039.28 68.3039 L2026.73 100.873 L2021.85 100.873 L2033.66 70.2483 L2017.06 70.2483 L2017.06 66.3132 Z" fill="#000000" fill-rule="evenodd" fill-opacity="1" /><path clip-path="url(#clip210)" d="M2048.4 94.9936 L2053.28 94.9936 L2053.28 100.873 L2048.4 100.873 L2048.4 94.9936 Z" fill="#000000" fill-rule="evenodd" fill-opacity="1" /><path clip-path="url(#clip210)" d="M2063.52 66.3132 L2081.87 66.3132 L2081.87 70.2483 L2067.8 70.2483 L2067.8 78.7205 Q2068.82 78.3733 2069.84 78.2113 Q2070.85 78.0261 2071.87 78.0261 Q2077.66 78.0261 2081.04 81.1974 Q2084.42 84.3686 2084.42 89.7853 Q2084.42 95.3639 2080.95 98.4658 Q2077.47 101.544 2071.16 101.544 Q2068.98 101.544 2066.71 101.174 Q2064.47 100.804 2062.06 100.063 L2062.06 95.3639 Q2064.14 96.4982 2066.36 97.0538 Q2068.59 97.6093 2071.06 97.6093 Q2075.07 97.6093 2077.4 95.5028 Q2079.74 93.3964 2079.74 89.7853 Q2079.74 86.1742 2077.4 84.0677 Q2075.07 81.9612 2071.06 81.9612 Q2069.19 81.9612 2067.31 82.3779 Q2065.46 82.7946 2063.52 83.6742 L2063.52 66.3132 Z" fill="#000000" fill-rule="evenodd" fill-opacity="1" /><polyline clip-path="url(#clip210)" style="stroke:#000000; stroke-linecap:round; stroke-linejoin:round; stroke-width:4; stroke-opacity:1; fill:none" points="
  1952.22,1486.45 1952.22,1486.45 1976.22,1486.45 1952.22,1486.45 1952.22,1286.56 1976.22,1286.56 1952.22,1286.56 1952.22,1086.67 1976.22,1086.67 1952.22,1086.67 
  1952.22,886.78 1976.22,886.78 1952.22,886.78 1952.22,686.89 1976.22,686.89 1952.22,686.89 1952.22,487.001 1976.22,487.001 1952.22,487.001 1952.22,287.111 
  1976.22,287.111 1952.22,287.111 1952.22,87.222 1976.22,87.222 1952.22,87.222 1952.22,47.2441 
  "/>
</svg>
