<?xml version="1.0" encoding="utf-8"?>
<svg xmlns="http://www.w3.org/2000/svg" xmlns:xlink="http://www.w3.org/1999/xlink" width="600" height="400" viewBox="0 0 2400 1600">
<defs>
  <clipPath id="clip350">
    <rect x="0" y="0" width="2400" height="1600"/>
  </clipPath>
</defs>
<path clip-path="url(#clip350)" d="
M0 1600 L2400 1600 L2400 0 L0 0  Z
  " fill="#ffffff" fill-rule="evenodd" fill-opacity="1"/>
<defs>
  <clipPath id="clip351">
    <rect x="480" y="0" width="1681" height="1600"/>
  </clipPath>
</defs>
<path clip-path="url(#clip350)" d="
M193.936 1486.45 L2352.76 1486.45 L2352.76 47.2441 L193.936 47.2441  Z
  " fill="#ffffff" fill-rule="evenodd" fill-opacity="1"/>
<defs>
  <clipPath id="clip352">
    <rect x="193" y="47" width="2160" height="1440"/>
  </clipPath>
</defs>
<polyline clip-path="url(#clip352)" style="stroke:#000000; stroke-linecap:round; stroke-linejoin:round; stroke-width:2; stroke-opacity:0.1; fill:none" points="
  301.546,1486.45 301.546,47.2441 
  "/>
<polyline clip-path="url(#clip352)" style="stroke:#000000; stroke-linecap:round; stroke-linejoin:round; stroke-width:2; stroke-opacity:0.1; fill:none" points="
  630.034,1486.45 630.034,47.2441 
  "/>
<polyline clip-path="url(#clip352)" style="stroke:#000000; stroke-linecap:round; stroke-linejoin:round; stroke-width:2; stroke-opacity:0.1; fill:none" points="
  958.521,1486.45 958.521,47.2441 
  "/>
<polyline clip-path="url(#clip352)" style="stroke:#000000; stroke-linecap:round; stroke-linejoin:round; stroke-width:2; stroke-opacity:0.1; fill:none" points="
  1287.01,1486.45 1287.01,47.2441 
  "/>
<polyline clip-path="url(#clip352)" style="stroke:#000000; stroke-linecap:round; stroke-linejoin:round; stroke-width:2; stroke-opacity:0.1; fill:none" points="
  1615.5,1486.45 1615.5,47.2441 
  "/>
<polyline clip-path="url(#clip352)" style="stroke:#000000; stroke-linecap:round; stroke-linejoin:round; stroke-width:2; stroke-opacity:0.1; fill:none" points="
  1943.98,1486.45 1943.98,47.2441 
  "/>
<polyline clip-path="url(#clip352)" style="stroke:#000000; stroke-linecap:round; stroke-linejoin:round; stroke-width:2; stroke-opacity:0.1; fill:none" points="
  2272.47,1486.45 2272.47,47.2441 
  "/>
<polyline clip-path="url(#clip350)" style="stroke:#000000; stroke-linecap:round; stroke-linejoin:round; stroke-width:4; stroke-opacity:1; fill:none" points="
  193.936,1486.45 2352.76,1486.45 
  "/>
<polyline clip-path="url(#clip350)" style="stroke:#000000; stroke-linecap:round; stroke-linejoin:round; stroke-width:4; stroke-opacity:1; fill:none" points="
  301.546,1486.45 301.546,1467.55 
  "/>
<polyline clip-path="url(#clip350)" style="stroke:#000000; stroke-linecap:round; stroke-linejoin:round; stroke-width:4; stroke-opacity:1; fill:none" points="
  630.034,1486.45 630.034,1467.55 
  "/>
<polyline clip-path="url(#clip350)" style="stroke:#000000; stroke-linecap:round; stroke-linejoin:round; stroke-width:4; stroke-opacity:1; fill:none" points="
  958.521,1486.45 958.521,1467.55 
  "/>
<polyline clip-path="url(#clip350)" style="stroke:#000000; stroke-linecap:round; stroke-linejoin:round; stroke-width:4; stroke-opacity:1; fill:none" points="
  1287.01,1486.45 1287.01,1467.55 
  "/>
<polyline clip-path="url(#clip350)" style="stroke:#000000; stroke-linecap:round; stroke-linejoin:round; stroke-width:4; stroke-opacity:1; fill:none" points="
  1615.5,1486.45 1615.5,1467.55 
  "/>
<polyline clip-path="url(#clip350)" style="stroke:#000000; stroke-linecap:round; stroke-linejoin:round; stroke-width:4; stroke-opacity:1; fill:none" points="
  1943.98,1486.45 1943.98,1467.55 
  "/>
<polyline clip-path="url(#clip350)" style="stroke:#000000; stroke-linecap:round; stroke-linejoin:round; stroke-width:4; stroke-opacity:1; fill:none" points="
  2272.47,1486.45 2272.47,1467.55 
  "/>
<path clip-path="url(#clip350)" d="M271.014 1532.02 L300.69 1532.02 L300.69 1535.95 L271.014 1535.95 L271.014 1532.02 Z" fill="#000000" fill-rule="evenodd" fill-opacity="1" /><path clip-path="url(#clip350)" d="M324.949 1530.21 Q328.305 1530.93 330.18 1533.2 Q332.078 1535.47 332.078 1538.8 Q332.078 1543.92 328.56 1546.72 Q325.041 1549.52 318.56 1549.52 Q316.384 1549.52 314.069 1549.08 Q311.778 1548.66 309.324 1547.81 L309.324 1543.29 Q311.268 1544.43 313.583 1545.01 Q315.898 1545.58 318.421 1545.58 Q322.819 1545.58 325.111 1543.85 Q327.426 1542.11 327.426 1538.8 Q327.426 1535.75 325.273 1534.03 Q323.143 1532.3 319.324 1532.3 L315.296 1532.3 L315.296 1528.45 L319.509 1528.45 Q322.958 1528.45 324.787 1527.09 Q326.615 1525.7 326.615 1523.11 Q326.615 1520.45 324.717 1519.03 Q322.842 1517.6 319.324 1517.6 Q317.402 1517.6 315.203 1518.01 Q313.004 1518.43 310.365 1519.31 L310.365 1515.14 Q313.028 1514.4 315.342 1514.03 Q317.68 1513.66 319.74 1513.66 Q325.064 1513.66 328.166 1516.09 Q331.268 1518.5 331.268 1522.62 Q331.268 1525.49 329.625 1527.48 Q327.981 1529.45 324.949 1530.21 Z" fill="#000000" fill-rule="evenodd" fill-opacity="1" /><path clip-path="url(#clip350)" d="M599.976 1532.02 L629.652 1532.02 L629.652 1535.95 L599.976 1535.95 L599.976 1532.02 Z" fill="#000000" fill-rule="evenodd" fill-opacity="1" /><path clip-path="url(#clip350)" d="M643.772 1544.91 L660.091 1544.91 L660.091 1548.85 L638.147 1548.85 L638.147 1544.91 Q640.809 1542.16 645.392 1537.53 Q649.999 1532.88 651.179 1531.53 Q653.425 1529.01 654.304 1527.27 Q655.207 1525.51 655.207 1523.82 Q655.207 1521.07 653.263 1519.33 Q651.341 1517.6 648.24 1517.6 Q646.04 1517.6 643.587 1518.36 Q641.156 1519.13 638.378 1520.68 L638.378 1515.95 Q641.203 1514.82 643.656 1514.24 Q646.11 1513.66 648.147 1513.66 Q653.517 1513.66 656.712 1516.35 Q659.906 1519.03 659.906 1523.52 Q659.906 1525.65 659.096 1527.57 Q658.309 1529.47 656.202 1532.07 Q655.624 1532.74 652.522 1535.95 Q649.42 1539.15 643.772 1544.91 Z" fill="#000000" fill-rule="evenodd" fill-opacity="1" /><path clip-path="url(#clip350)" d="M928.278 1532.02 L957.954 1532.02 L957.954 1535.95 L928.278 1535.95 L928.278 1532.02 Z" fill="#000000" fill-rule="evenodd" fill-opacity="1" /><path clip-path="url(#clip350)" d="M968.857 1544.91 L976.496 1544.91 L976.496 1518.55 L968.185 1520.21 L968.185 1515.95 L976.449 1514.29 L981.125 1514.29 L981.125 1544.91 L988.764 1544.91 L988.764 1548.85 L968.857 1548.85 L968.857 1544.91 Z" fill="#000000" fill-rule="evenodd" fill-opacity="1" /><path clip-path="url(#clip350)" d="M1287.01 1517.37 Q1283.4 1517.37 1281.57 1520.93 Q1279.76 1524.47 1279.76 1531.6 Q1279.76 1538.71 1281.57 1542.27 Q1283.4 1545.82 1287.01 1545.82 Q1290.64 1545.82 1292.45 1542.27 Q1294.28 1538.71 1294.28 1531.6 Q1294.28 1524.47 1292.45 1520.93 Q1290.64 1517.37 1287.01 1517.37 M1287.01 1513.66 Q1292.82 1513.66 1295.87 1518.27 Q1298.95 1522.85 1298.95 1531.6 Q1298.95 1540.33 1295.87 1544.94 Q1292.82 1549.52 1287.01 1549.52 Q1281.2 1549.52 1278.12 1544.94 Q1275.06 1540.33 1275.06 1531.6 Q1275.06 1522.85 1278.12 1518.27 Q1281.2 1513.66 1287.01 1513.66 Z" fill="#000000" fill-rule="evenodd" fill-opacity="1" /><path clip-path="url(#clip350)" d="M1605.88 1544.91 L1613.52 1544.91 L1613.52 1518.55 L1605.21 1520.21 L1605.21 1515.95 L1613.47 1514.29 L1618.15 1514.29 L1618.15 1544.91 L1625.79 1544.91 L1625.79 1548.85 L1605.88 1548.85 L1605.88 1544.91 Z" fill="#000000" fill-rule="evenodd" fill-opacity="1" /><path clip-path="url(#clip350)" d="M1938.64 1544.91 L1954.96 1544.91 L1954.96 1548.85 L1933.01 1548.85 L1933.01 1544.91 Q1935.67 1542.16 1940.26 1537.53 Q1944.86 1532.88 1946.04 1531.53 Q1948.29 1529.01 1949.17 1527.27 Q1950.07 1525.51 1950.07 1523.82 Q1950.07 1521.07 1948.13 1519.33 Q1946.21 1517.6 1943.1 1517.6 Q1940.9 1517.6 1938.45 1518.36 Q1936.02 1519.13 1933.24 1520.68 L1933.24 1515.95 Q1936.07 1514.82 1938.52 1514.24 Q1940.97 1513.66 1943.01 1513.66 Q1948.38 1513.66 1951.58 1516.35 Q1954.77 1519.03 1954.77 1523.52 Q1954.77 1525.65 1953.96 1527.57 Q1953.17 1529.47 1951.07 1532.07 Q1950.49 1532.74 1947.39 1535.95 Q1944.28 1539.15 1938.64 1544.91 Z" fill="#000000" fill-rule="evenodd" fill-opacity="1" /><path clip-path="url(#clip350)" d="M2276.72 1530.21 Q2280.08 1530.93 2281.95 1533.2 Q2283.85 1535.47 2283.85 1538.8 Q2283.85 1543.92 2280.33 1546.72 Q2276.81 1549.52 2270.33 1549.52 Q2268.15 1549.52 2265.84 1549.08 Q2263.55 1548.66 2261.09 1547.81 L2261.09 1543.29 Q2263.04 1544.43 2265.35 1545.01 Q2267.67 1545.58 2270.19 1545.58 Q2274.59 1545.58 2276.88 1543.85 Q2279.2 1542.11 2279.2 1538.8 Q2279.2 1535.75 2277.04 1534.03 Q2274.91 1532.3 2271.09 1532.3 L2267.07 1532.3 L2267.07 1528.45 L2271.28 1528.45 Q2274.73 1528.45 2276.56 1527.09 Q2278.39 1525.7 2278.39 1523.11 Q2278.39 1520.45 2276.49 1519.03 Q2274.61 1517.6 2271.09 1517.6 Q2269.17 1517.6 2266.97 1518.01 Q2264.77 1518.43 2262.14 1519.31 L2262.14 1515.14 Q2264.8 1514.4 2267.11 1514.03 Q2269.45 1513.66 2271.51 1513.66 Q2276.83 1513.66 2279.94 1516.09 Q2283.04 1518.5 2283.04 1522.62 Q2283.04 1525.49 2281.39 1527.48 Q2279.75 1529.45 2276.72 1530.21 Z" fill="#000000" fill-rule="evenodd" fill-opacity="1" /><polyline clip-path="url(#clip352)" style="stroke:#000000; stroke-linecap:round; stroke-linejoin:round; stroke-width:2; stroke-opacity:0.1; fill:none" points="
  193.936,1481.89 2352.76,1481.89 
  "/>
<polyline clip-path="url(#clip352)" style="stroke:#000000; stroke-linecap:round; stroke-linejoin:round; stroke-width:2; stroke-opacity:0.1; fill:none" points="
  193.936,1243.54 2352.76,1243.54 
  "/>
<polyline clip-path="url(#clip352)" style="stroke:#000000; stroke-linecap:round; stroke-linejoin:round; stroke-width:2; stroke-opacity:0.1; fill:none" points="
  193.936,1005.19 2352.76,1005.19 
  "/>
<polyline clip-path="url(#clip352)" style="stroke:#000000; stroke-linecap:round; stroke-linejoin:round; stroke-width:2; stroke-opacity:0.1; fill:none" points="
  193.936,766.846 2352.76,766.846 
  "/>
<polyline clip-path="url(#clip352)" style="stroke:#000000; stroke-linecap:round; stroke-linejoin:round; stroke-width:2; stroke-opacity:0.1; fill:none" points="
  193.936,528.498 2352.76,528.498 
  "/>
<polyline clip-path="url(#clip352)" style="stroke:#000000; stroke-linecap:round; stroke-linejoin:round; stroke-width:2; stroke-opacity:0.1; fill:none" points="
  193.936,290.15 2352.76,290.15 
  "/>
<polyline clip-path="url(#clip352)" style="stroke:#000000; stroke-linecap:round; stroke-linejoin:round; stroke-width:2; stroke-opacity:0.1; fill:none" points="
  193.936,51.8022 2352.76,51.8022 
  "/>
<polyline clip-path="url(#clip350)" style="stroke:#000000; stroke-linecap:round; stroke-linejoin:round; stroke-width:4; stroke-opacity:1; fill:none" points="
  193.936,1486.45 193.936,47.2441 
  "/>
<polyline clip-path="url(#clip350)" style="stroke:#000000; stroke-linecap:round; stroke-linejoin:round; stroke-width:4; stroke-opacity:1; fill:none" points="
  193.936,1481.89 212.834,1481.89 
  "/>
<polyline clip-path="url(#clip350)" style="stroke:#000000; stroke-linecap:round; stroke-linejoin:round; stroke-width:4; stroke-opacity:1; fill:none" points="
  193.936,1243.54 212.834,1243.54 
  "/>
<polyline clip-path="url(#clip350)" style="stroke:#000000; stroke-linecap:round; stroke-linejoin:round; stroke-width:4; stroke-opacity:1; fill:none" points="
  193.936,1005.19 212.834,1005.19 
  "/>
<polyline clip-path="url(#clip350)" style="stroke:#000000; stroke-linecap:round; stroke-linejoin:round; stroke-width:4; stroke-opacity:1; fill:none" points="
  193.936,766.846 212.834,766.846 
  "/>
<polyline clip-path="url(#clip350)" style="stroke:#000000; stroke-linecap:round; stroke-linejoin:round; stroke-width:4; stroke-opacity:1; fill:none" points="
  193.936,528.498 212.834,528.498 
  "/>
<polyline clip-path="url(#clip350)" style="stroke:#000000; stroke-linecap:round; stroke-linejoin:round; stroke-width:4; stroke-opacity:1; fill:none" points="
  193.936,290.15 212.834,290.15 
  "/>
<polyline clip-path="url(#clip350)" style="stroke:#000000; stroke-linecap:round; stroke-linejoin:round; stroke-width:4; stroke-opacity:1; fill:none" points="
  193.936,51.8022 212.834,51.8022 
  "/>
<path clip-path="url(#clip350)" d="M51.9875 1482.34 L81.6633 1482.34 L81.6633 1486.28 L51.9875 1486.28 L51.9875 1482.34 Z" fill="#000000" fill-rule="evenodd" fill-opacity="1" /><path clip-path="url(#clip350)" d="M92.566 1495.23 L100.205 1495.23 L100.205 1468.87 L91.8947 1470.54 L91.8947 1466.28 L100.159 1464.61 L104.834 1464.61 L104.834 1495.23 L112.473 1495.23 L112.473 1499.17 L92.566 1499.17 L92.566 1495.23 Z" fill="#000000" fill-rule="evenodd" fill-opacity="1" /><path clip-path="url(#clip350)" d="M121.918 1493.29 L126.802 1493.29 L126.802 1499.17 L121.918 1499.17 L121.918 1493.29 Z" fill="#000000" fill-rule="evenodd" fill-opacity="1" /><path clip-path="url(#clip350)" d="M137.033 1464.61 L155.39 1464.61 L155.39 1468.54 L141.316 1468.54 L141.316 1477.02 Q142.334 1476.67 143.353 1476.51 Q144.371 1476.32 145.39 1476.32 Q151.177 1476.32 154.556 1479.49 Q157.936 1482.67 157.936 1488.08 Q157.936 1493.66 154.464 1496.76 Q150.992 1499.84 144.672 1499.84 Q142.496 1499.84 140.228 1499.47 Q137.982 1499.1 135.575 1498.36 L135.575 1493.66 Q137.658 1494.79 139.881 1495.35 Q142.103 1495.91 144.58 1495.91 Q148.584 1495.91 150.922 1493.8 Q153.26 1491.69 153.26 1488.08 Q153.26 1484.47 150.922 1482.36 Q148.584 1480.26 144.58 1480.26 Q142.705 1480.26 140.83 1480.67 Q138.978 1481.09 137.033 1481.97 L137.033 1464.61 Z" fill="#000000" fill-rule="evenodd" fill-opacity="1" /><path clip-path="url(#clip350)" d="M50.9921 1243.99 L80.6679 1243.99 L80.6679 1247.93 L50.9921 1247.93 L50.9921 1243.99 Z" fill="#000000" fill-rule="evenodd" fill-opacity="1" /><path clip-path="url(#clip350)" d="M91.5706 1256.89 L99.2095 1256.89 L99.2095 1230.52 L90.8993 1232.19 L90.8993 1227.93 L99.1632 1226.26 L103.839 1226.26 L103.839 1256.89 L111.478 1256.89 L111.478 1260.82 L91.5706 1260.82 L91.5706 1256.89 Z" fill="#000000" fill-rule="evenodd" fill-opacity="1" /><path clip-path="url(#clip350)" d="M120.922 1254.94 L125.807 1254.94 L125.807 1260.82 L120.922 1260.82 L120.922 1254.94 Z" fill="#000000" fill-rule="evenodd" fill-opacity="1" /><path clip-path="url(#clip350)" d="M145.992 1229.34 Q142.381 1229.34 140.552 1232.91 Q138.746 1236.45 138.746 1243.58 Q138.746 1250.68 140.552 1254.25 Q142.381 1257.79 145.992 1257.79 Q149.626 1257.79 151.431 1254.25 Q153.26 1250.68 153.26 1243.58 Q153.26 1236.45 151.431 1232.91 Q149.626 1229.34 145.992 1229.34 M145.992 1225.64 Q151.802 1225.64 154.857 1230.24 Q157.936 1234.83 157.936 1243.58 Q157.936 1252.3 154.857 1256.91 Q151.802 1261.49 145.992 1261.49 Q140.181 1261.49 137.103 1256.91 Q134.047 1252.3 134.047 1243.58 Q134.047 1234.83 137.103 1230.24 Q140.181 1225.64 145.992 1225.64 Z" fill="#000000" fill-rule="evenodd" fill-opacity="1" /><path clip-path="url(#clip350)" d="M51.9875 1005.65 L81.6633 1005.65 L81.6633 1009.58 L51.9875 1009.58 L51.9875 1005.65 Z" fill="#000000" fill-rule="evenodd" fill-opacity="1" /><path clip-path="url(#clip350)" d="M101.756 990.993 Q98.1447 990.993 96.316 994.557 Q94.5104 998.099 94.5104 1005.23 Q94.5104 1012.34 96.316 1015.9 Q98.1447 1019.44 101.756 1019.44 Q105.39 1019.44 107.196 1015.9 Q109.024 1012.34 109.024 1005.23 Q109.024 998.099 107.196 994.557 Q105.39 990.993 101.756 990.993 M101.756 987.289 Q107.566 987.289 110.621 991.895 Q113.7 996.479 113.7 1005.23 Q113.7 1013.96 110.621 1018.56 Q107.566 1023.15 101.756 1023.15 Q95.9456 1023.15 92.8669 1018.56 Q89.8114 1013.96 89.8114 1005.23 Q89.8114 996.479 92.8669 991.895 Q95.9456 987.289 101.756 987.289 Z" fill="#000000" fill-rule="evenodd" fill-opacity="1" /><path clip-path="url(#clip350)" d="M121.918 1016.59 L126.802 1016.59 L126.802 1022.47 L121.918 1022.47 L121.918 1016.59 Z" fill="#000000" fill-rule="evenodd" fill-opacity="1" /><path clip-path="url(#clip350)" d="M137.033 987.914 L155.39 987.914 L155.39 991.849 L141.316 991.849 L141.316 1000.32 Q142.334 999.974 143.353 999.812 Q144.371 999.627 145.39 999.627 Q151.177 999.627 154.556 1002.8 Q157.936 1005.97 157.936 1011.39 Q157.936 1016.96 154.464 1020.07 Q150.992 1023.15 144.672 1023.15 Q142.496 1023.15 140.228 1022.77 Q137.982 1022.4 135.575 1021.66 L135.575 1016.96 Q137.658 1018.1 139.881 1018.65 Q142.103 1019.21 144.58 1019.21 Q148.584 1019.21 150.922 1017.1 Q153.26 1015 153.26 1011.39 Q153.26 1007.77 150.922 1005.67 Q148.584 1003.56 144.58 1003.56 Q142.705 1003.56 140.83 1003.98 Q138.978 1004.4 137.033 1005.27 L137.033 987.914 Z" fill="#000000" fill-rule="evenodd" fill-opacity="1" /><path clip-path="url(#clip350)" d="M100.76 752.645 Q97.1493 752.645 95.3206 756.209 Q93.515 759.751 93.515 766.881 Q93.515 773.987 95.3206 777.552 Q97.1493 781.094 100.76 781.094 Q104.395 781.094 106.2 777.552 Q108.029 773.987 108.029 766.881 Q108.029 759.751 106.2 756.209 Q104.395 752.645 100.76 752.645 M100.76 748.941 Q106.571 748.941 109.626 753.547 Q112.705 758.131 112.705 766.881 Q112.705 775.608 109.626 780.214 Q106.571 784.797 100.76 784.797 Q94.9502 784.797 91.8715 780.214 Q88.816 775.608 88.816 766.881 Q88.816 758.131 91.8715 753.547 Q94.9502 748.941 100.76 748.941 Z" fill="#000000" fill-rule="evenodd" fill-opacity="1" /><path clip-path="url(#clip350)" d="M120.922 778.246 L125.807 778.246 L125.807 784.126 L120.922 784.126 L120.922 778.246 Z" fill="#000000" fill-rule="evenodd" fill-opacity="1" /><path clip-path="url(#clip350)" d="M145.992 752.645 Q142.381 752.645 140.552 756.209 Q138.746 759.751 138.746 766.881 Q138.746 773.987 140.552 777.552 Q142.381 781.094 145.992 781.094 Q149.626 781.094 151.431 777.552 Q153.26 773.987 153.26 766.881 Q153.26 759.751 151.431 756.209 Q149.626 752.645 145.992 752.645 M145.992 748.941 Q151.802 748.941 154.857 753.547 Q157.936 758.131 157.936 766.881 Q157.936 775.608 154.857 780.214 Q151.802 784.797 145.992 784.797 Q140.181 784.797 137.103 780.214 Q134.047 775.608 134.047 766.881 Q134.047 758.131 137.103 753.547 Q140.181 748.941 145.992 748.941 Z" fill="#000000" fill-rule="evenodd" fill-opacity="1" /><path clip-path="url(#clip350)" d="M101.756 514.297 Q98.1447 514.297 96.316 517.862 Q94.5104 521.403 94.5104 528.533 Q94.5104 535.639 96.316 539.204 Q98.1447 542.746 101.756 542.746 Q105.39 542.746 107.196 539.204 Q109.024 535.639 109.024 528.533 Q109.024 521.403 107.196 517.862 Q105.39 514.297 101.756 514.297 M101.756 510.593 Q107.566 510.593 110.621 515.2 Q113.7 519.783 113.7 528.533 Q113.7 537.26 110.621 541.866 Q107.566 546.449 101.756 546.449 Q95.9456 546.449 92.8669 541.866 Q89.8114 537.26 89.8114 528.533 Q89.8114 519.783 92.8669 515.2 Q95.9456 510.593 101.756 510.593 Z" fill="#000000" fill-rule="evenodd" fill-opacity="1" /><path clip-path="url(#clip350)" d="M121.918 539.898 L126.802 539.898 L126.802 545.778 L121.918 545.778 L121.918 539.898 Z" fill="#000000" fill-rule="evenodd" fill-opacity="1" /><path clip-path="url(#clip350)" d="M137.033 511.218 L155.39 511.218 L155.39 515.153 L141.316 515.153 L141.316 523.625 Q142.334 523.278 143.353 523.116 Q144.371 522.931 145.39 522.931 Q151.177 522.931 154.556 526.102 Q157.936 529.274 157.936 534.69 Q157.936 540.269 154.464 543.371 Q150.992 546.449 144.672 546.449 Q142.496 546.449 140.228 546.079 Q137.982 545.709 135.575 544.968 L135.575 540.269 Q137.658 541.403 139.881 541.959 Q142.103 542.514 144.58 542.514 Q148.584 542.514 150.922 540.408 Q153.26 538.301 153.26 534.69 Q153.26 531.079 150.922 528.973 Q148.584 526.866 144.58 526.866 Q142.705 526.866 140.83 527.283 Q138.978 527.699 137.033 528.579 L137.033 511.218 Z" fill="#000000" fill-rule="evenodd" fill-opacity="1" /><path clip-path="url(#clip350)" d="M91.5706 303.495 L99.2095 303.495 L99.2095 277.129 L90.8993 278.796 L90.8993 274.537 L99.1632 272.87 L103.839 272.87 L103.839 303.495 L111.478 303.495 L111.478 307.43 L91.5706 307.43 L91.5706 303.495 Z" fill="#000000" fill-rule="evenodd" fill-opacity="1" /><path clip-path="url(#clip350)" d="M120.922 301.551 L125.807 301.551 L125.807 307.43 L120.922 307.43 L120.922 301.551 Z" fill="#000000" fill-rule="evenodd" fill-opacity="1" /><path clip-path="url(#clip350)" d="M145.992 275.949 Q142.381 275.949 140.552 279.514 Q138.746 283.055 138.746 290.185 Q138.746 297.291 140.552 300.856 Q142.381 304.398 145.992 304.398 Q149.626 304.398 151.431 300.856 Q153.26 297.291 153.26 290.185 Q153.26 283.055 151.431 279.514 Q149.626 275.949 145.992 275.949 M145.992 272.245 Q151.802 272.245 154.857 276.852 Q157.936 281.435 157.936 290.185 Q157.936 298.912 154.857 303.518 Q151.802 308.101 145.992 308.101 Q140.181 308.101 137.103 303.518 Q134.047 298.912 134.047 290.185 Q134.047 281.435 137.103 276.852 Q140.181 272.245 145.992 272.245 Z" fill="#000000" fill-rule="evenodd" fill-opacity="1" /><path clip-path="url(#clip350)" d="M92.566 65.147 L100.205 65.147 L100.205 38.7814 L91.8947 40.4481 L91.8947 36.1889 L100.159 34.5222 L104.834 34.5222 L104.834 65.147 L112.473 65.147 L112.473 69.0822 L92.566 69.0822 L92.566 65.147 Z" fill="#000000" fill-rule="evenodd" fill-opacity="1" /><path clip-path="url(#clip350)" d="M121.918 63.2026 L126.802 63.2026 L126.802 69.0822 L121.918 69.0822 L121.918 63.2026 Z" fill="#000000" fill-rule="evenodd" fill-opacity="1" /><path clip-path="url(#clip350)" d="M137.033 34.5222 L155.39 34.5222 L155.39 38.4574 L141.316 38.4574 L141.316 46.9295 Q142.334 46.5823 143.353 46.4203 Q144.371 46.2351 145.39 46.2351 Q151.177 46.2351 154.556 49.4064 Q157.936 52.5777 157.936 57.9943 Q157.936 63.573 154.464 66.6748 Q150.992 69.7535 144.672 69.7535 Q142.496 69.7535 140.228 69.3831 Q137.982 69.0128 135.575 68.272 L135.575 63.573 Q137.658 64.7072 139.881 65.2628 Q142.103 65.8183 144.58 65.8183 Q148.584 65.8183 150.922 63.7119 Q153.26 61.6054 153.26 57.9943 Q153.26 54.3832 150.922 52.2767 Q148.584 50.1703 144.58 50.1703 Q142.705 50.1703 140.83 50.5869 Q138.978 51.0036 137.033 51.8832 L137.033 34.5222 Z" fill="#000000" fill-rule="evenodd" fill-opacity="1" /><polyline clip-path="url(#clip352)" style="stroke:#009af9; stroke-linecap:round; stroke-linejoin:round; stroke-width:4; stroke-opacity:1; fill:none" points="
  255.035,1141.24 287.883,1176.91 320.732,1212.11 353.581,1246.36 386.43,1279.21 419.278,1310.2 452.127,1338.9 484.976,1364.92 517.825,1387.86 550.673,1407.39 
  583.522,1423.19 616.371,1434.99 649.22,1442.53 682.068,1445.64 714.917,1444.16 747.766,1437.98 780.615,1427.06 813.463,1411.37 846.312,1390.96 879.161,1365.91 
  912.01,1336.35 944.858,1302.47 977.707,1264.47 1010.56,1222.62 1043.4,1177.22 1076.25,1128.6 1109.1,1077.13 1141.95,1023.2 1174.8,967.242 1207.65,909.687 
  1240.5,850.991 1273.35,791.624 1306.19,732.059 1339.04,672.771 1371.89,614.235 1404.74,556.916 1437.59,501.268 1470.44,447.728 1503.29,396.711 1536.14,348.608 
  1568.98,303.782 1601.83,262.559 1634.68,225.235 1667.53,192.061 1700.38,163.252 1733.23,138.975 1766.08,119.353 1798.93,104.465 1831.77,94.3395 1864.62,88.9585 
  1897.47,88.257 1930.32,92.1228 1963.17,100.398 1996.02,112.882 2028.87,129.329 2061.72,149.457 2094.56,172.946 2127.41,199.441 2160.26,228.559 2193.11,259.89 
  2225.96,293.002 2258.81,327.445 2291.66,362.755 
  "/>
<circle clip-path="url(#clip352)" cx="688.019" cy="1445.72" r="14.4" fill="#e26f46" fill-rule="evenodd" fill-opacity="1" stroke="#000000" stroke-opacity="1" stroke-width="3.2"/>
<circle clip-path="url(#clip352)" cx="1886" cy="87.9763" r="14.4" fill="#e26f46" fill-rule="evenodd" fill-opacity="1" stroke="#000000" stroke-opacity="1" stroke-width="3.2"/>
<path clip-path="url(#clip350)" d="
M265.897 198.898 L930.879 198.898 L930.879 95.2176 L265.897 95.2176  Z
  " fill="#ffffff" fill-rule="evenodd" fill-opacity="1"/>
<polyline clip-path="url(#clip350)" style="stroke:#000000; stroke-linecap:round; stroke-linejoin:round; stroke-width:4; stroke-opacity:1; fill:none" points="
  265.897,198.898 930.879,198.898 930.879,95.2176 265.897,95.2176 265.897,198.898 
  "/>
<polyline clip-path="url(#clip350)" style="stroke:#009af9; stroke-linecap:round; stroke-linejoin:round; stroke-width:4; stroke-opacity:1; fill:none" points="
  289.884,147.058 433.805,147.058 
  "/>
<path clip-path="url(#clip350)" d="M474.296 128.319 L474.296 131.861 L470.222 131.861 Q467.931 131.861 467.028 132.787 Q466.148 133.713 466.148 136.12 L466.148 138.412 L473.162 138.412 L473.162 141.722 L466.148 141.722 L466.148 164.338 L461.866 164.338 L461.866 141.722 L457.792 141.722 L457.792 138.412 L461.866 138.412 L461.866 136.606 Q461.866 132.278 463.88 130.31 Q465.894 128.319 470.269 128.319 L474.296 128.319 Z" fill="#000000" fill-rule="evenodd" fill-opacity="1" /><path clip-path="url(#clip350)" d="M488.093 128.366 Q484.991 133.69 483.486 138.898 Q481.981 144.106 481.981 149.453 Q481.981 154.801 483.486 160.055 Q485.014 165.287 488.093 170.588 L484.389 170.588 Q480.917 165.148 479.181 159.893 Q477.468 154.639 477.468 149.453 Q477.468 144.291 479.181 139.06 Q480.893 133.828 484.389 128.366 L488.093 128.366 Z" fill="#000000" fill-rule="evenodd" fill-opacity="1" /><path clip-path="url(#clip350)" d="M517.907 138.412 L508.532 151.027 L518.393 164.338 L513.37 164.338 L505.824 154.152 L498.278 164.338 L493.255 164.338 L503.324 150.773 L494.111 138.412 L499.134 138.412 L506.009 147.648 L512.884 138.412 L517.907 138.412 Z" fill="#000000" fill-rule="evenodd" fill-opacity="1" /><path clip-path="url(#clip350)" d="M523.74 128.366 L527.444 128.366 Q530.916 133.828 532.629 139.06 Q534.365 144.291 534.365 149.453 Q534.365 154.639 532.629 159.893 Q530.916 165.148 527.444 170.588 L523.74 170.588 Q526.819 165.287 528.324 160.055 Q529.852 154.801 529.852 149.453 Q529.852 144.106 528.324 138.898 Q526.819 133.69 523.74 128.366 Z" fill="#000000" fill-rule="evenodd" fill-opacity="1" /><path clip-path="url(#clip350)" d="M543.463 142.81 L573.138 142.81 L573.138 146.699 L543.463 146.699 L543.463 142.81 M543.463 152.254 L573.138 152.254 L573.138 156.189 L543.463 156.189 L543.463 152.254 Z" fill="#000000" fill-rule="evenodd" fill-opacity="1" /><path clip-path="url(#clip350)" d="M599.157 139.176 L599.157 143.203 Q597.351 142.277 595.407 141.815 Q593.462 141.352 591.379 141.352 Q588.208 141.352 586.611 142.324 Q585.036 143.296 585.036 145.24 Q585.036 146.722 586.171 147.578 Q587.305 148.412 590.731 149.176 L592.189 149.5 Q596.726 150.472 598.624 152.254 Q600.546 154.014 600.546 157.185 Q600.546 160.796 597.675 162.902 Q594.828 165.009 589.828 165.009 Q587.745 165.009 585.476 164.592 Q583.231 164.199 580.731 163.388 L580.731 158.99 Q583.092 160.217 585.384 160.842 Q587.675 161.444 589.921 161.444 Q592.93 161.444 594.55 160.426 Q596.171 159.384 596.171 157.509 Q596.171 155.773 594.99 154.847 Q593.833 153.921 589.874 153.064 L588.393 152.717 Q584.435 151.884 582.675 150.171 Q580.916 148.435 580.916 145.426 Q580.916 141.768 583.509 139.778 Q586.101 137.787 590.87 137.787 Q593.231 137.787 595.314 138.134 Q597.397 138.481 599.157 139.176 Z" fill="#000000" fill-rule="evenodd" fill-opacity="1" /><path clip-path="url(#clip350)" d="M607.328 138.412 L611.587 138.412 L611.587 164.338 L607.328 164.338 L607.328 138.412 M607.328 128.319 L611.587 128.319 L611.587 133.713 L607.328 133.713 L607.328 128.319 Z" fill="#000000" fill-rule="evenodd" fill-opacity="1" /><path clip-path="url(#clip350)" d="M642.05 148.689 L642.05 164.338 L637.791 164.338 L637.791 148.828 Q637.791 145.148 636.356 143.319 Q634.92 141.49 632.05 141.49 Q628.601 141.49 626.61 143.69 Q624.62 145.889 624.62 149.685 L624.62 164.338 L620.337 164.338 L620.337 138.412 L624.62 138.412 L624.62 142.44 Q626.147 140.102 628.208 138.944 Q630.291 137.787 632.999 137.787 Q637.467 137.787 639.758 140.565 Q642.05 143.319 642.05 148.689 Z" fill="#000000" fill-rule="evenodd" fill-opacity="1" /><path clip-path="url(#clip350)" d="M660.777 128.366 Q657.675 133.69 656.17 138.898 Q654.666 144.106 654.666 149.453 Q654.666 154.801 656.17 160.055 Q657.698 165.287 660.777 170.588 L657.073 170.588 Q653.601 165.148 651.865 159.893 Q650.152 154.639 650.152 149.453 Q650.152 144.291 651.865 139.06 Q653.578 133.828 657.073 128.366 L660.777 128.366 Z" fill="#000000" fill-rule="evenodd" fill-opacity="1" /><path clip-path="url(#clip350)" d="M690.591 138.412 L681.216 151.027 L691.078 164.338 L686.054 164.338 L678.508 154.152 L670.962 164.338 L665.939 164.338 L676.008 150.773 L666.795 138.412 L671.818 138.412 L678.693 147.648 L685.568 138.412 L690.591 138.412 Z" fill="#000000" fill-rule="evenodd" fill-opacity="1" /><path clip-path="url(#clip350)" d="M696.425 128.366 L700.128 128.366 Q703.601 133.828 705.314 139.06 Q707.05 144.291 707.05 149.453 Q707.05 154.639 705.314 159.893 Q703.601 165.148 700.128 170.588 L696.425 170.588 Q699.503 165.287 701.008 160.055 Q702.536 154.801 702.536 149.453 Q702.536 144.106 701.008 138.898 Q699.503 133.69 696.425 128.366 Z" fill="#000000" fill-rule="evenodd" fill-opacity="1" /><path clip-path="url(#clip350)" d="M732.929 134.615 L732.929 147.509 L745.823 147.509 L745.823 151.444 L732.929 151.444 L732.929 164.338 L729.04 164.338 L729.04 151.444 L716.147 151.444 L716.147 147.509 L729.04 147.509 L729.04 134.615 L732.929 134.615 Z" fill="#000000" fill-rule="evenodd" fill-opacity="1" /><path clip-path="url(#clip350)" d="M765.915 132.856 Q762.304 132.856 760.475 136.421 Q758.67 139.963 758.67 147.092 Q758.67 154.199 760.475 157.764 Q762.304 161.305 765.915 161.305 Q769.549 161.305 771.355 157.764 Q773.184 154.199 773.184 147.092 Q773.184 139.963 771.355 136.421 Q769.549 132.856 765.915 132.856 M765.915 129.153 Q771.725 129.153 774.781 133.759 Q777.859 138.342 777.859 147.092 Q777.859 155.819 774.781 160.426 Q771.725 165.009 765.915 165.009 Q760.105 165.009 757.026 160.426 Q753.971 155.819 753.971 147.092 Q753.971 138.342 757.026 133.759 Q760.105 129.153 765.915 129.153 Z" fill="#000000" fill-rule="evenodd" fill-opacity="1" /><path clip-path="url(#clip350)" d="M786.077 158.458 L790.961 158.458 L790.961 164.338 L786.077 164.338 L786.077 158.458 Z" fill="#000000" fill-rule="evenodd" fill-opacity="1" /><path clip-path="url(#clip350)" d="M805.174 160.402 L821.494 160.402 L821.494 164.338 L799.549 164.338 L799.549 160.402 Q802.211 157.648 806.795 153.018 Q811.401 148.365 812.582 147.023 Q814.827 144.5 815.707 142.764 Q816.609 141.004 816.609 139.315 Q816.609 136.56 814.665 134.824 Q812.744 133.088 809.642 133.088 Q807.443 133.088 804.989 133.852 Q802.558 134.615 799.781 136.166 L799.781 131.444 Q802.605 130.31 805.058 129.731 Q807.512 129.153 809.549 129.153 Q814.919 129.153 818.114 131.838 Q821.308 134.523 821.308 139.014 Q821.308 141.143 820.498 143.065 Q819.711 144.963 817.605 147.555 Q817.026 148.227 813.924 151.444 Q810.822 154.639 805.174 160.402 Z" fill="#000000" fill-rule="evenodd" fill-opacity="1" /><path clip-path="url(#clip350)" d="M831.355 129.778 L849.711 129.778 L849.711 133.713 L835.637 133.713 L835.637 142.185 Q836.655 141.838 837.674 141.676 Q838.693 141.49 839.711 141.49 Q845.498 141.49 848.878 144.662 Q852.257 147.833 852.257 153.25 Q852.257 158.828 848.785 161.93 Q845.313 165.009 838.993 165.009 Q836.818 165.009 834.549 164.638 Q832.304 164.268 829.896 163.527 L829.896 158.828 Q831.98 159.963 834.202 160.518 Q836.424 161.074 838.901 161.074 Q842.905 161.074 845.243 158.967 Q847.581 156.861 847.581 153.25 Q847.581 149.639 845.243 147.532 Q842.905 145.426 838.901 145.426 Q837.026 145.426 835.151 145.842 Q833.299 146.259 831.355 147.139 L831.355 129.778 Z" fill="#000000" fill-rule="evenodd" fill-opacity="1" /><path clip-path="url(#clip350)" d="M882.419 138.412 L873.044 151.027 L882.905 164.338 L877.882 164.338 L870.336 154.152 L862.79 164.338 L857.766 164.338 L867.836 150.773 L858.623 138.412 L863.646 138.412 L870.521 147.648 L877.396 138.412 L882.419 138.412 Z" fill="#000000" fill-rule="evenodd" fill-opacity="1" /><path clip-path="url(#clip350)" d="M388.759 1364.54 L396.212 1364.54 L396.212 1427.57 L388.759 1427.57 L388.759 1364.54 Z" fill="#000000" fill-rule="evenodd" fill-opacity="1" /><path clip-path="url(#clip350)" d="M429.389 1387.43 Q423.394 1387.43 419.91 1392.13 Q416.426 1396.78 416.426 1404.93 Q416.426 1413.07 419.87 1417.77 Q423.354 1422.43 429.389 1422.43 Q435.344 1422.43 438.828 1417.73 Q442.312 1413.03 442.312 1404.93 Q442.312 1396.87 438.828 1392.17 Q435.344 1387.43 429.389 1387.43 M429.389 1381.11 Q439.112 1381.11 444.661 1387.43 Q450.211 1393.75 450.211 1404.93 Q450.211 1416.07 444.661 1422.43 Q439.112 1428.75 429.389 1428.75 Q419.627 1428.75 414.077 1422.43 Q408.568 1416.07 408.568 1404.93 Q408.568 1393.75 414.077 1387.43 Q419.627 1381.11 429.389 1381.11 Z" fill="#000000" fill-rule="evenodd" fill-opacity="1" /><path clip-path="url(#clip350)" d="M495.217 1383.94 L495.217 1390.91 Q492.057 1389.17 488.857 1388.32 Q485.697 1387.43 482.456 1387.43 Q475.205 1387.43 471.195 1392.05 Q467.184 1396.62 467.184 1404.93 Q467.184 1413.23 471.195 1417.85 Q475.205 1422.43 482.456 1422.43 Q485.697 1422.43 488.857 1421.58 Q492.057 1420.69 495.217 1418.94 L495.217 1425.83 Q492.097 1427.29 488.735 1428.02 Q485.413 1428.75 481.646 1428.75 Q471.397 1428.75 465.361 1422.31 Q459.326 1415.86 459.326 1404.93 Q459.326 1393.83 465.402 1387.47 Q471.519 1381.11 482.132 1381.11 Q485.575 1381.11 488.857 1381.84 Q492.138 1382.53 495.217 1383.94 Z" fill="#000000" fill-rule="evenodd" fill-opacity="1" /><path clip-path="url(#clip350)" d="M528.799 1404.77 Q519.765 1404.77 516.281 1406.83 Q512.797 1408.9 512.797 1413.88 Q512.797 1417.85 515.39 1420.2 Q518.023 1422.51 522.52 1422.51 Q528.718 1422.51 532.444 1418.13 Q536.212 1413.72 536.212 1406.43 L536.212 1404.77 L528.799 1404.77 M543.665 1401.69 L543.665 1427.57 L536.212 1427.57 L536.212 1420.69 Q533.66 1424.82 529.852 1426.8 Q526.044 1428.75 520.535 1428.75 Q513.567 1428.75 509.435 1424.86 Q505.344 1420.93 505.344 1414.37 Q505.344 1406.71 510.448 1402.82 Q515.593 1398.93 525.76 1398.93 L536.212 1398.93 L536.212 1398.2 Q536.212 1393.06 532.809 1390.26 Q529.447 1387.43 523.33 1387.43 Q519.441 1387.43 515.755 1388.36 Q512.068 1389.29 508.666 1391.15 L508.666 1384.27 Q512.757 1382.69 516.605 1381.92 Q520.454 1381.11 524.099 1381.11 Q533.943 1381.11 538.804 1386.21 Q543.665 1391.32 543.665 1401.69 Z" fill="#000000" fill-rule="evenodd" fill-opacity="1" /><path clip-path="url(#clip350)" d="M559.018 1364.54 L566.472 1364.54 L566.472 1427.57 L559.018 1427.57 L559.018 1364.54 Z" fill="#000000" fill-rule="evenodd" fill-opacity="1" /><path clip-path="url(#clip350)" d="M643.763 1390.91 Q646.558 1385.89 650.447 1383.5 Q654.336 1381.11 659.602 1381.11 Q666.691 1381.11 670.54 1386.09 Q674.388 1391.03 674.388 1400.19 L674.388 1427.57 L666.894 1427.57 L666.894 1400.43 Q666.894 1393.91 664.585 1390.75 Q662.276 1387.59 657.536 1387.59 Q651.743 1387.59 648.381 1391.44 Q645.019 1395.29 645.019 1401.93 L645.019 1427.57 L637.525 1427.57 L637.525 1400.43 Q637.525 1393.87 635.216 1390.75 Q632.907 1387.59 628.086 1387.59 Q622.374 1387.59 619.012 1391.48 Q615.65 1395.33 615.65 1401.93 L615.65 1427.57 L608.156 1427.57 L608.156 1382.2 L615.65 1382.2 L615.65 1389.25 Q618.202 1385.08 621.767 1383.09 Q625.332 1381.11 630.233 1381.11 Q635.175 1381.11 638.619 1383.62 Q642.102 1386.13 643.763 1390.91 Z" fill="#000000" fill-rule="evenodd" fill-opacity="1" /><path clip-path="url(#clip350)" d="M689.255 1382.2 L696.709 1382.2 L696.709 1427.57 L689.255 1427.57 L689.255 1382.2 M689.255 1364.54 L696.709 1364.54 L696.709 1373.98 L689.255 1373.98 L689.255 1364.54 Z" fill="#000000" fill-rule="evenodd" fill-opacity="1" /><path clip-path="url(#clip350)" d="M750.018 1400.19 L750.018 1427.57 L742.565 1427.57 L742.565 1400.43 Q742.565 1393.99 740.053 1390.79 Q737.542 1387.59 732.519 1387.59 Q726.483 1387.59 722.999 1391.44 Q719.515 1395.29 719.515 1401.93 L719.515 1427.57 L712.021 1427.57 L712.021 1382.2 L719.515 1382.2 L719.515 1389.25 Q722.189 1385.16 725.794 1383.13 Q729.44 1381.11 734.179 1381.11 Q741.998 1381.11 746.008 1385.97 Q750.018 1390.79 750.018 1400.19 Z" fill="#000000" fill-rule="evenodd" fill-opacity="1" /><path clip-path="url(#clip350)" d="M764.885 1382.2 L772.339 1382.2 L772.339 1427.57 L764.885 1427.57 L764.885 1382.2 M764.885 1364.54 L772.339 1364.54 L772.339 1373.98 L764.885 1373.98 L764.885 1364.54 Z" fill="#000000" fill-rule="evenodd" fill-opacity="1" /><path clip-path="url(#clip350)" d="M823.259 1390.91 Q826.054 1385.89 829.943 1383.5 Q833.832 1381.11 839.098 1381.11 Q846.187 1381.11 850.035 1386.09 Q853.884 1391.03 853.884 1400.19 L853.884 1427.57 L846.389 1427.57 L846.389 1400.43 Q846.389 1393.91 844.08 1390.75 Q841.771 1387.59 837.032 1387.59 Q831.239 1387.59 827.877 1391.44 Q824.515 1395.29 824.515 1401.93 L824.515 1427.57 L817.02 1427.57 L817.02 1400.43 Q817.02 1393.87 814.711 1390.75 Q812.402 1387.59 807.582 1387.59 Q801.87 1387.59 798.508 1391.48 Q795.146 1395.33 795.146 1401.93 L795.146 1427.57 L787.651 1427.57 L787.651 1382.2 L795.146 1382.2 L795.146 1389.25 Q797.698 1385.08 801.262 1383.09 Q804.827 1381.11 809.729 1381.11 Q814.671 1381.11 818.114 1383.62 Q821.598 1386.13 823.259 1390.91 Z" fill="#000000" fill-rule="evenodd" fill-opacity="1" /><path clip-path="url(#clip350)" d="M867.981 1409.67 L867.981 1382.2 L875.434 1382.2 L875.434 1409.38 Q875.434 1415.82 877.946 1419.06 Q880.458 1422.27 885.481 1422.27 Q891.517 1422.27 895 1418.42 Q898.525 1414.57 898.525 1407.92 L898.525 1382.2 L905.978 1382.2 L905.978 1427.57 L898.525 1427.57 L898.525 1420.6 Q895.81 1424.74 892.205 1426.76 Q888.64 1428.75 883.901 1428.75 Q876.083 1428.75 872.032 1423.89 Q867.981 1419.02 867.981 1409.67 M886.736 1381.11 L886.736 1381.11 Z" fill="#000000" fill-rule="evenodd" fill-opacity="1" /><path clip-path="url(#clip350)" d="M956.655 1390.91 Q959.45 1385.89 963.339 1383.5 Q967.228 1381.11 972.494 1381.11 Q979.583 1381.11 983.432 1386.09 Q987.28 1391.03 987.28 1400.19 L987.28 1427.57 L979.786 1427.57 L979.786 1400.43 Q979.786 1393.91 977.477 1390.75 Q975.168 1387.59 970.428 1387.59 Q964.635 1387.59 961.273 1391.44 Q957.911 1395.29 957.911 1401.93 L957.911 1427.57 L950.417 1427.57 L950.417 1400.43 Q950.417 1393.87 948.108 1390.75 Q945.799 1387.59 940.978 1387.59 Q935.266 1387.59 931.904 1391.48 Q928.542 1395.33 928.542 1401.93 L928.542 1427.57 L921.048 1427.57 L921.048 1382.2 L928.542 1382.2 L928.542 1389.25 Q931.094 1385.08 934.659 1383.09 Q938.223 1381.11 943.125 1381.11 Q948.067 1381.11 951.51 1383.62 Q954.994 1386.13 956.655 1390.91 Z" fill="#000000" fill-rule="evenodd" fill-opacity="1" /><path clip-path="url(#clip350)" d="M1574.58 97.5202 L1582.04 97.5202 L1582.04 160.552 L1574.58 160.552 L1574.58 97.5202 Z" fill="#000000" fill-rule="evenodd" fill-opacity="1" /><path clip-path="url(#clip350)" d="M1615.22 120.408 Q1609.22 120.408 1605.74 125.107 Q1602.25 129.765 1602.25 137.908 Q1602.25 146.05 1605.7 150.749 Q1609.18 155.408 1615.22 155.408 Q1621.17 155.408 1624.65 150.709 Q1628.14 146.01 1628.14 137.908 Q1628.14 129.846 1624.65 125.147 Q1621.17 120.408 1615.22 120.408 M1615.22 114.088 Q1624.94 114.088 1630.49 120.408 Q1636.04 126.727 1636.04 137.908 Q1636.04 149.048 1630.49 155.408 Q1624.94 161.727 1615.22 161.727 Q1605.45 161.727 1599.9 155.408 Q1594.39 149.048 1594.39 137.908 Q1594.39 126.727 1599.9 120.408 Q1605.45 114.088 1615.22 114.088 Z" fill="#000000" fill-rule="evenodd" fill-opacity="1" /><path clip-path="url(#clip350)" d="M1681.04 116.924 L1681.04 123.892 Q1677.88 122.15 1674.68 121.299 Q1671.52 120.408 1668.28 120.408 Q1661.03 120.408 1657.02 125.026 Q1653.01 129.603 1653.01 137.908 Q1653.01 146.212 1657.02 150.83 Q1661.03 155.408 1668.28 155.408 Q1671.52 155.408 1674.68 154.557 Q1677.88 153.666 1681.04 151.924 L1681.04 158.81 Q1677.92 160.269 1674.56 160.998 Q1671.24 161.727 1667.47 161.727 Q1657.22 161.727 1651.19 155.286 Q1645.15 148.845 1645.15 137.908 Q1645.15 126.808 1651.23 120.448 Q1657.34 114.088 1667.96 114.088 Q1671.4 114.088 1674.68 114.818 Q1677.96 115.506 1681.04 116.924 Z" fill="#000000" fill-rule="evenodd" fill-opacity="1" /><path clip-path="url(#clip350)" d="M1714.62 137.746 Q1705.59 137.746 1702.11 139.812 Q1698.62 141.878 1698.62 146.86 Q1698.62 150.83 1701.22 153.18 Q1703.85 155.489 1708.35 155.489 Q1714.54 155.489 1718.27 151.114 Q1722.04 146.698 1722.04 139.407 L1722.04 137.746 L1714.62 137.746 M1729.49 134.667 L1729.49 160.552 L1722.04 160.552 L1722.04 153.666 Q1719.49 157.798 1715.68 159.783 Q1711.87 161.727 1706.36 161.727 Q1699.39 161.727 1695.26 157.838 Q1691.17 153.909 1691.17 147.346 Q1691.17 139.69 1696.27 135.801 Q1701.42 131.912 1711.59 131.912 L1722.04 131.912 L1722.04 131.183 Q1722.04 126.039 1718.63 123.243 Q1715.27 120.408 1709.16 120.408 Q1705.27 120.408 1701.58 121.34 Q1697.89 122.271 1694.49 124.135 L1694.49 117.248 Q1698.58 115.668 1702.43 114.899 Q1706.28 114.088 1709.93 114.088 Q1719.77 114.088 1724.63 119.193 Q1729.49 124.297 1729.49 134.667 Z" fill="#000000" fill-rule="evenodd" fill-opacity="1" /><path clip-path="url(#clip350)" d="M1744.84 97.5202 L1752.3 97.5202 L1752.3 160.552 L1744.84 160.552 L1744.84 97.5202 Z" fill="#000000" fill-rule="evenodd" fill-opacity="1" /><path clip-path="url(#clip350)" d="M1829.59 123.892 Q1832.38 118.868 1836.27 116.478 Q1840.16 114.088 1845.43 114.088 Q1852.52 114.088 1856.37 119.071 Q1860.21 124.013 1860.21 133.168 L1860.21 160.552 L1852.72 160.552 L1852.72 133.411 Q1852.72 126.889 1850.41 123.73 Q1848.1 120.57 1843.36 120.57 Q1837.57 120.57 1834.21 124.418 Q1830.84 128.267 1830.84 134.91 L1830.84 160.552 L1823.35 160.552 L1823.35 133.411 Q1823.35 126.849 1821.04 123.73 Q1818.73 120.57 1813.91 120.57 Q1808.2 120.57 1804.84 124.459 Q1801.48 128.307 1801.48 134.91 L1801.48 160.552 L1793.98 160.552 L1793.98 115.182 L1801.48 115.182 L1801.48 122.231 Q1804.03 118.058 1807.59 116.073 Q1811.16 114.088 1816.06 114.088 Q1821 114.088 1824.44 116.6 Q1827.93 119.112 1829.59 123.892 Z" fill="#000000" fill-rule="evenodd" fill-opacity="1" /><path clip-path="url(#clip350)" d="M1895.7 137.746 Q1886.67 137.746 1883.18 139.812 Q1879.7 141.878 1879.7 146.86 Q1879.7 150.83 1882.29 153.18 Q1884.92 155.489 1889.42 155.489 Q1895.62 155.489 1899.35 151.114 Q1903.11 146.698 1903.11 139.407 L1903.11 137.746 L1895.7 137.746 M1910.57 134.667 L1910.57 160.552 L1903.11 160.552 L1903.11 153.666 Q1900.56 157.798 1896.75 159.783 Q1892.95 161.727 1887.44 161.727 Q1880.47 161.727 1876.34 157.838 Q1872.25 153.909 1872.25 147.346 Q1872.25 139.69 1877.35 135.801 Q1882.49 131.912 1892.66 131.912 L1903.11 131.912 L1903.11 131.183 Q1903.11 126.039 1899.71 123.243 Q1896.35 120.408 1890.23 120.408 Q1886.34 120.408 1882.66 121.34 Q1878.97 122.271 1875.57 124.135 L1875.57 117.248 Q1879.66 115.668 1883.51 114.899 Q1887.35 114.088 1891 114.088 Q1900.84 114.088 1905.71 119.193 Q1910.57 124.297 1910.57 134.667 Z" fill="#000000" fill-rule="evenodd" fill-opacity="1" /><path clip-path="url(#clip350)" d="M1963.63 115.182 L1947.23 137.26 L1964.48 160.552 L1955.69 160.552 L1942.49 142.728 L1929.28 160.552 L1920.49 160.552 L1938.11 136.814 L1921.99 115.182 L1930.78 115.182 L1942.81 131.345 L1954.84 115.182 L1963.63 115.182 Z" fill="#000000" fill-rule="evenodd" fill-opacity="1" /><path clip-path="url(#clip350)" d="M1975.02 115.182 L1982.47 115.182 L1982.47 160.552 L1975.02 160.552 L1975.02 115.182 M1975.02 97.5202 L1982.47 97.5202 L1982.47 106.959 L1975.02 106.959 L1975.02 97.5202 Z" fill="#000000" fill-rule="evenodd" fill-opacity="1" /><path clip-path="url(#clip350)" d="M2033.39 123.892 Q2036.19 118.868 2040.07 116.478 Q2043.96 114.088 2049.23 114.088 Q2056.32 114.088 2060.17 119.071 Q2064.01 124.013 2064.01 133.168 L2064.01 160.552 L2056.52 160.552 L2056.52 133.411 Q2056.52 126.889 2054.21 123.73 Q2051.9 120.57 2047.16 120.57 Q2041.37 120.57 2038.01 124.418 Q2034.65 128.267 2034.65 134.91 L2034.65 160.552 L2027.15 160.552 L2027.15 133.411 Q2027.15 126.849 2024.84 123.73 Q2022.53 120.57 2017.71 120.57 Q2012 120.57 2008.64 124.459 Q2005.28 128.307 2005.28 134.91 L2005.28 160.552 L1997.78 160.552 L1997.78 115.182 L2005.28 115.182 L2005.28 122.231 Q2007.83 118.058 2011.39 116.073 Q2014.96 114.088 2019.86 114.088 Q2024.8 114.088 2028.25 116.6 Q2031.73 119.112 2033.39 123.892 Z" fill="#000000" fill-rule="evenodd" fill-opacity="1" /><path clip-path="url(#clip350)" d="M2078.11 142.647 L2078.11 115.182 L2085.57 115.182 L2085.57 142.364 Q2085.57 148.805 2088.08 152.045 Q2090.59 155.246 2095.61 155.246 Q2101.65 155.246 2105.13 151.397 Q2108.66 147.549 2108.66 140.905 L2108.66 115.182 L2116.11 115.182 L2116.11 160.552 L2108.66 160.552 L2108.66 153.585 Q2105.94 157.717 2102.34 159.742 Q2098.77 161.727 2094.03 161.727 Q2086.21 161.727 2082.16 156.866 Q2078.11 152.005 2078.11 142.647 M2096.87 114.088 L2096.87 114.088 Z" fill="#000000" fill-rule="evenodd" fill-opacity="1" /><path clip-path="url(#clip350)" d="M2166.79 123.892 Q2169.58 118.868 2173.47 116.478 Q2177.36 114.088 2182.63 114.088 Q2189.71 114.088 2193.56 119.071 Q2197.41 124.013 2197.41 133.168 L2197.41 160.552 L2189.92 160.552 L2189.92 133.411 Q2189.92 126.889 2187.61 123.73 Q2185.3 120.57 2180.56 120.57 Q2174.77 120.57 2171.4 124.418 Q2168.04 128.267 2168.04 134.91 L2168.04 160.552 L2160.55 160.552 L2160.55 133.411 Q2160.55 126.849 2158.24 123.73 Q2155.93 120.57 2151.11 120.57 Q2145.4 120.57 2142.04 124.459 Q2138.67 128.307 2138.67 134.91 L2138.67 160.552 L2131.18 160.552 L2131.18 115.182 L2138.67 115.182 L2138.67 122.231 Q2141.23 118.058 2144.79 116.073 Q2148.35 114.088 2153.26 114.088 Q2158.2 114.088 2161.64 116.6 Q2165.13 119.112 2166.79 123.892 Z" fill="#000000" fill-rule="evenodd" fill-opacity="1" /></svg>
