<?xml version="1.0" encoding="utf-8"?>
<svg xmlns="http://www.w3.org/2000/svg" xmlns:xlink="http://www.w3.org/1999/xlink" width="600" height="400" viewBox="0 0 2400 1600">
<defs>
  <clipPath id="clip250">
    <rect x="0" y="0" width="2400" height="1600"/>
  </clipPath>
</defs>
<path clip-path="url(#clip250)" d="
M0 1600 L2400 1600 L2400 0 L0 0  Z
  " fill="#ffffff" fill-rule="evenodd" fill-opacity="1"/>
<defs>
  <clipPath id="clip251">
    <rect x="480" y="0" width="1681" height="1600"/>
  </clipPath>
</defs>
<path clip-path="url(#clip250)" d="
M474.476 1486.45 L1832.22 1486.45 L1832.22 47.2441 L474.476 47.2441  Z
  " fill="#ffffff" fill-rule="evenodd" fill-opacity="1"/>
<defs>
  <clipPath id="clip252">
    <rect x="474" y="47" width="1359" height="1440"/>
  </clipPath>
</defs>
<polyline clip-path="url(#clip252)" style="stroke:#000000; stroke-linecap:round; stroke-linejoin:round; stroke-width:2; stroke-opacity:0.1; fill:none" points="
  474.476,1486.45 474.476,47.2441 
  "/>
<polyline clip-path="url(#clip252)" style="stroke:#000000; stroke-linecap:round; stroke-linejoin:round; stroke-width:2; stroke-opacity:0.1; fill:none" points="
  813.911,1486.45 813.911,47.2441 
  "/>
<polyline clip-path="url(#clip252)" style="stroke:#000000; stroke-linecap:round; stroke-linejoin:round; stroke-width:2; stroke-opacity:0.1; fill:none" points="
  1153.35,1486.45 1153.35,47.2441 
  "/>
<polyline clip-path="url(#clip252)" style="stroke:#000000; stroke-linecap:round; stroke-linejoin:round; stroke-width:2; stroke-opacity:0.1; fill:none" points="
  1492.78,1486.45 1492.78,47.2441 
  "/>
<polyline clip-path="url(#clip252)" style="stroke:#000000; stroke-linecap:round; stroke-linejoin:round; stroke-width:2; stroke-opacity:0.1; fill:none" points="
  1832.22,1486.45 1832.22,47.2441 
  "/>
<polyline clip-path="url(#clip250)" style="stroke:#000000; stroke-linecap:round; stroke-linejoin:round; stroke-width:4; stroke-opacity:1; fill:none" points="
  474.476,1486.45 1832.22,1486.45 
  "/>
<polyline clip-path="url(#clip250)" style="stroke:#000000; stroke-linecap:round; stroke-linejoin:round; stroke-width:4; stroke-opacity:1; fill:none" points="
  474.476,1486.45 474.476,1467.55 
  "/>
<polyline clip-path="url(#clip250)" style="stroke:#000000; stroke-linecap:round; stroke-linejoin:round; stroke-width:4; stroke-opacity:1; fill:none" points="
  813.911,1486.45 813.911,1467.55 
  "/>
<polyline clip-path="url(#clip250)" style="stroke:#000000; stroke-linecap:round; stroke-linejoin:round; stroke-width:4; stroke-opacity:1; fill:none" points="
  1153.35,1486.45 1153.35,1467.55 
  "/>
<polyline clip-path="url(#clip250)" style="stroke:#000000; stroke-linecap:round; stroke-linejoin:round; stroke-width:4; stroke-opacity:1; fill:none" points="
  1492.78,1486.45 1492.78,1467.55 
  "/>
<polyline clip-path="url(#clip250)" style="stroke:#000000; stroke-linecap:round; stroke-linejoin:round; stroke-width:4; stroke-opacity:1; fill:none" points="
  1832.22,1486.45 1832.22,1467.55 
  "/>
<path clip-path="url(#clip250)" d="M421.004 1532.02 L450.68 1532.02 L450.68 1535.95 L421.004 1535.95 L421.004 1532.02 Z" fill="#000000" fill-rule="evenodd" fill-opacity="1" /><path clip-path="url(#clip250)" d="M461.583 1544.91 L469.222 1544.91 L469.222 1518.55 L460.912 1520.21 L460.912 1515.95 L469.175 1514.29 L473.851 1514.29 L473.851 1544.91 L481.49 1544.91 L481.49 1548.85 L461.583 1548.85 L461.583 1544.91 Z" fill="#000000" fill-rule="evenodd" fill-opacity="1" /><path clip-path="url(#clip250)" d="M490.934 1542.97 L495.819 1542.97 L495.819 1548.85 L490.934 1548.85 L490.934 1542.97 Z" fill="#000000" fill-rule="evenodd" fill-opacity="1" /><path clip-path="url(#clip250)" d="M516.004 1517.37 Q512.393 1517.37 510.564 1520.93 Q508.758 1524.47 508.758 1531.6 Q508.758 1538.71 510.564 1542.27 Q512.393 1545.82 516.004 1545.82 Q519.638 1545.82 521.444 1542.27 Q523.272 1538.71 523.272 1531.6 Q523.272 1524.47 521.444 1520.93 Q519.638 1517.37 516.004 1517.37 M516.004 1513.66 Q521.814 1513.66 524.869 1518.27 Q527.948 1522.85 527.948 1531.6 Q527.948 1540.33 524.869 1544.94 Q521.814 1549.52 516.004 1549.52 Q510.194 1549.52 507.115 1544.94 Q504.059 1540.33 504.059 1531.6 Q504.059 1522.85 507.115 1518.27 Q510.194 1513.66 516.004 1513.66 Z" fill="#000000" fill-rule="evenodd" fill-opacity="1" /><path clip-path="url(#clip250)" d="M760.937 1532.02 L790.613 1532.02 L790.613 1535.95 L760.937 1535.95 L760.937 1532.02 Z" fill="#000000" fill-rule="evenodd" fill-opacity="1" /><path clip-path="url(#clip250)" d="M810.705 1517.37 Q807.094 1517.37 805.265 1520.93 Q803.46 1524.47 803.46 1531.6 Q803.46 1538.71 805.265 1542.27 Q807.094 1545.82 810.705 1545.82 Q814.339 1545.82 816.145 1542.27 Q817.974 1538.71 817.974 1531.6 Q817.974 1524.47 816.145 1520.93 Q814.339 1517.37 810.705 1517.37 M810.705 1513.66 Q816.515 1513.66 819.571 1518.27 Q822.649 1522.85 822.649 1531.6 Q822.649 1540.33 819.571 1544.94 Q816.515 1549.52 810.705 1549.52 Q804.895 1549.52 801.816 1544.94 Q798.761 1540.33 798.761 1531.6 Q798.761 1522.85 801.816 1518.27 Q804.895 1513.66 810.705 1513.66 Z" fill="#000000" fill-rule="evenodd" fill-opacity="1" /><path clip-path="url(#clip250)" d="M830.867 1542.97 L835.751 1542.97 L835.751 1548.85 L830.867 1548.85 L830.867 1542.97 Z" fill="#000000" fill-rule="evenodd" fill-opacity="1" /><path clip-path="url(#clip250)" d="M845.983 1514.29 L864.339 1514.29 L864.339 1518.22 L850.265 1518.22 L850.265 1526.7 Q851.284 1526.35 852.302 1526.19 Q853.321 1526 854.339 1526 Q860.126 1526 863.506 1529.17 Q866.885 1532.34 866.885 1537.76 Q866.885 1543.34 863.413 1546.44 Q859.941 1549.52 853.622 1549.52 Q851.446 1549.52 849.177 1549.15 Q846.932 1548.78 844.524 1548.04 L844.524 1543.34 Q846.608 1544.47 848.83 1545.03 Q851.052 1545.58 853.529 1545.58 Q857.534 1545.58 859.871 1543.48 Q862.209 1541.37 862.209 1537.76 Q862.209 1534.15 859.871 1532.04 Q857.534 1529.94 853.529 1529.94 Q851.654 1529.94 849.779 1530.35 Q847.927 1530.77 845.983 1531.65 L845.983 1514.29 Z" fill="#000000" fill-rule="evenodd" fill-opacity="1" /><path clip-path="url(#clip250)" d="M1130.73 1517.37 Q1127.12 1517.37 1125.29 1520.93 Q1123.49 1524.47 1123.49 1531.6 Q1123.49 1538.71 1125.29 1542.27 Q1127.12 1545.82 1130.73 1545.82 Q1134.36 1545.82 1136.17 1542.27 Q1138 1538.71 1138 1531.6 Q1138 1524.47 1136.17 1520.93 Q1134.36 1517.37 1130.73 1517.37 M1130.73 1513.66 Q1136.54 1513.66 1139.6 1518.27 Q1142.67 1522.85 1142.67 1531.6 Q1142.67 1540.33 1139.6 1544.94 Q1136.54 1549.52 1130.73 1549.52 Q1124.92 1549.52 1121.84 1544.94 Q1118.79 1540.33 1118.79 1531.6 Q1118.79 1522.85 1121.84 1518.27 Q1124.92 1513.66 1130.73 1513.66 Z" fill="#000000" fill-rule="evenodd" fill-opacity="1" /><path clip-path="url(#clip250)" d="M1150.89 1542.97 L1155.78 1542.97 L1155.78 1548.85 L1150.89 1548.85 L1150.89 1542.97 Z" fill="#000000" fill-rule="evenodd" fill-opacity="1" /><path clip-path="url(#clip250)" d="M1175.96 1517.37 Q1172.35 1517.37 1170.52 1520.93 Q1168.72 1524.47 1168.72 1531.6 Q1168.72 1538.71 1170.52 1542.27 Q1172.35 1545.82 1175.96 1545.82 Q1179.6 1545.82 1181.4 1542.27 Q1183.23 1538.71 1183.23 1531.6 Q1183.23 1524.47 1181.4 1520.93 Q1179.6 1517.37 1175.96 1517.37 M1175.96 1513.66 Q1181.77 1513.66 1184.83 1518.27 Q1187.91 1522.85 1187.91 1531.6 Q1187.91 1540.33 1184.83 1544.94 Q1181.77 1549.52 1175.96 1549.52 Q1170.15 1549.52 1167.07 1544.94 Q1164.02 1540.33 1164.02 1531.6 Q1164.02 1522.85 1167.07 1518.27 Q1170.15 1513.66 1175.96 1513.66 Z" fill="#000000" fill-rule="evenodd" fill-opacity="1" /><path clip-path="url(#clip250)" d="M1470.66 1517.37 Q1467.05 1517.37 1465.22 1520.93 Q1463.42 1524.47 1463.42 1531.6 Q1463.42 1538.71 1465.22 1542.27 Q1467.05 1545.82 1470.66 1545.82 Q1474.3 1545.82 1476.1 1542.27 Q1477.93 1538.71 1477.93 1531.6 Q1477.93 1524.47 1476.1 1520.93 Q1474.3 1517.37 1470.66 1517.37 M1470.66 1513.66 Q1476.47 1513.66 1479.53 1518.27 Q1482.61 1522.85 1482.61 1531.6 Q1482.61 1540.33 1479.53 1544.94 Q1476.47 1549.52 1470.66 1549.52 Q1464.85 1549.52 1461.77 1544.94 Q1458.72 1540.33 1458.72 1531.6 Q1458.72 1522.85 1461.77 1518.27 Q1464.85 1513.66 1470.66 1513.66 Z" fill="#000000" fill-rule="evenodd" fill-opacity="1" /><path clip-path="url(#clip250)" d="M1490.82 1542.97 L1495.71 1542.97 L1495.71 1548.85 L1490.82 1548.85 L1490.82 1542.97 Z" fill="#000000" fill-rule="evenodd" fill-opacity="1" /><path clip-path="url(#clip250)" d="M1505.94 1514.29 L1524.3 1514.29 L1524.3 1518.22 L1510.22 1518.22 L1510.22 1526.7 Q1511.24 1526.35 1512.26 1526.19 Q1513.28 1526 1514.3 1526 Q1520.08 1526 1523.46 1529.17 Q1526.84 1532.34 1526.84 1537.76 Q1526.84 1543.34 1523.37 1546.44 Q1519.9 1549.52 1513.58 1549.52 Q1511.4 1549.52 1509.13 1549.15 Q1506.89 1548.78 1504.48 1548.04 L1504.48 1543.34 Q1506.57 1544.47 1508.79 1545.03 Q1511.01 1545.58 1513.49 1545.58 Q1517.49 1545.58 1519.83 1543.48 Q1522.17 1541.37 1522.17 1537.76 Q1522.17 1534.15 1519.83 1532.04 Q1517.49 1529.94 1513.49 1529.94 Q1511.61 1529.94 1509.74 1530.35 Q1507.88 1530.77 1505.94 1531.65 L1505.94 1514.29 Z" fill="#000000" fill-rule="evenodd" fill-opacity="1" /><path clip-path="url(#clip250)" d="M1799.37 1544.91 L1807.01 1544.91 L1807.01 1518.55 L1798.7 1520.21 L1798.7 1515.95 L1806.96 1514.29 L1811.64 1514.29 L1811.64 1544.91 L1819.28 1544.91 L1819.28 1548.85 L1799.37 1548.85 L1799.37 1544.91 Z" fill="#000000" fill-rule="evenodd" fill-opacity="1" /><path clip-path="url(#clip250)" d="M1828.72 1542.97 L1833.6 1542.97 L1833.6 1548.85 L1828.72 1548.85 L1828.72 1542.97 Z" fill="#000000" fill-rule="evenodd" fill-opacity="1" /><path clip-path="url(#clip250)" d="M1853.79 1517.37 Q1850.18 1517.37 1848.35 1520.93 Q1846.54 1524.47 1846.54 1531.6 Q1846.54 1538.71 1848.35 1542.27 Q1850.18 1545.82 1853.79 1545.82 Q1857.42 1545.82 1859.23 1542.27 Q1861.06 1538.71 1861.06 1531.6 Q1861.06 1524.47 1859.23 1520.93 Q1857.42 1517.37 1853.79 1517.37 M1853.79 1513.66 Q1859.6 1513.66 1862.66 1518.27 Q1865.73 1522.85 1865.73 1531.6 Q1865.73 1540.33 1862.66 1544.94 Q1859.6 1549.52 1853.79 1549.52 Q1847.98 1549.52 1844.9 1544.94 Q1841.85 1540.33 1841.85 1531.6 Q1841.85 1522.85 1844.9 1518.27 Q1847.98 1513.66 1853.79 1513.66 Z" fill="#000000" fill-rule="evenodd" fill-opacity="1" /><polyline clip-path="url(#clip252)" style="stroke:#000000; stroke-linecap:round; stroke-linejoin:round; stroke-width:2; stroke-opacity:0.1; fill:none" points="
  474.476,1445.72 1832.22,1445.72 
  "/>
<polyline clip-path="url(#clip252)" style="stroke:#000000; stroke-linecap:round; stroke-linejoin:round; stroke-width:2; stroke-opacity:0.1; fill:none" points="
  474.476,1106.28 1832.22,1106.28 
  "/>
<polyline clip-path="url(#clip252)" style="stroke:#000000; stroke-linecap:round; stroke-linejoin:round; stroke-width:2; stroke-opacity:0.1; fill:none" points="
  474.476,766.846 1832.22,766.846 
  "/>
<polyline clip-path="url(#clip252)" style="stroke:#000000; stroke-linecap:round; stroke-linejoin:round; stroke-width:2; stroke-opacity:0.1; fill:none" points="
  474.476,427.411 1832.22,427.411 
  "/>
<polyline clip-path="url(#clip252)" style="stroke:#000000; stroke-linecap:round; stroke-linejoin:round; stroke-width:2; stroke-opacity:0.1; fill:none" points="
  474.476,87.9763 1832.22,87.9763 
  "/>
<polyline clip-path="url(#clip250)" style="stroke:#000000; stroke-linecap:round; stroke-linejoin:round; stroke-width:4; stroke-opacity:1; fill:none" points="
  474.476,1486.45 474.476,47.2441 
  "/>
<polyline clip-path="url(#clip250)" style="stroke:#000000; stroke-linecap:round; stroke-linejoin:round; stroke-width:4; stroke-opacity:1; fill:none" points="
  474.476,1445.72 486.361,1445.72 
  "/>
<polyline clip-path="url(#clip250)" style="stroke:#000000; stroke-linecap:round; stroke-linejoin:round; stroke-width:4; stroke-opacity:1; fill:none" points="
  474.476,1106.28 486.361,1106.28 
  "/>
<polyline clip-path="url(#clip250)" style="stroke:#000000; stroke-linecap:round; stroke-linejoin:round; stroke-width:4; stroke-opacity:1; fill:none" points="
  474.476,766.846 486.361,766.846 
  "/>
<polyline clip-path="url(#clip250)" style="stroke:#000000; stroke-linecap:round; stroke-linejoin:round; stroke-width:4; stroke-opacity:1; fill:none" points="
  474.476,427.411 486.361,427.411 
  "/>
<polyline clip-path="url(#clip250)" style="stroke:#000000; stroke-linecap:round; stroke-linejoin:round; stroke-width:4; stroke-opacity:1; fill:none" points="
  474.476,87.9763 486.361,87.9763 
  "/>
<path clip-path="url(#clip250)" d="M331.532 1446.17 L361.208 1446.17 L361.208 1450.1 L331.532 1450.1 L331.532 1446.17 Z" fill="#000000" fill-rule="evenodd" fill-opacity="1" /><path clip-path="url(#clip250)" d="M372.111 1459.06 L379.75 1459.06 L379.75 1432.69 L371.44 1434.36 L371.44 1430.1 L379.703 1428.44 L384.379 1428.44 L384.379 1459.06 L392.018 1459.06 L392.018 1463 L372.111 1463 L372.111 1459.06 Z" fill="#000000" fill-rule="evenodd" fill-opacity="1" /><path clip-path="url(#clip250)" d="M401.463 1457.12 L406.347 1457.12 L406.347 1463 L401.463 1463 L401.463 1457.12 Z" fill="#000000" fill-rule="evenodd" fill-opacity="1" /><path clip-path="url(#clip250)" d="M426.532 1431.51 Q422.921 1431.51 421.092 1435.08 Q419.287 1438.62 419.287 1445.75 Q419.287 1452.86 421.092 1456.42 Q422.921 1459.96 426.532 1459.96 Q430.166 1459.96 431.972 1456.42 Q433.8 1452.86 433.8 1445.75 Q433.8 1438.62 431.972 1435.08 Q430.166 1431.51 426.532 1431.51 M426.532 1427.81 Q432.342 1427.81 435.398 1432.42 Q438.476 1437 438.476 1445.75 Q438.476 1454.48 435.398 1459.08 Q432.342 1463.67 426.532 1463.67 Q420.722 1463.67 417.643 1459.08 Q414.587 1454.48 414.587 1445.75 Q414.587 1437 417.643 1432.42 Q420.722 1427.81 426.532 1427.81 Z" fill="#000000" fill-rule="evenodd" fill-opacity="1" /><path clip-path="url(#clip250)" d="M332.528 1106.73 L362.204 1106.73 L362.204 1110.67 L332.528 1110.67 L332.528 1106.73 Z" fill="#000000" fill-rule="evenodd" fill-opacity="1" /><path clip-path="url(#clip250)" d="M382.296 1092.08 Q378.685 1092.08 376.856 1095.64 Q375.051 1099.19 375.051 1106.32 Q375.051 1113.42 376.856 1116.99 Q378.685 1120.53 382.296 1120.53 Q385.93 1120.53 387.736 1116.99 Q389.564 1113.42 389.564 1106.32 Q389.564 1099.19 387.736 1095.64 Q385.93 1092.08 382.296 1092.08 M382.296 1088.38 Q388.106 1088.38 391.162 1092.98 Q394.24 1097.57 394.24 1106.32 Q394.24 1115.04 391.162 1119.65 Q388.106 1124.23 382.296 1124.23 Q376.486 1124.23 373.407 1119.65 Q370.352 1115.04 370.352 1106.32 Q370.352 1097.57 373.407 1092.98 Q376.486 1088.38 382.296 1088.38 Z" fill="#000000" fill-rule="evenodd" fill-opacity="1" /><path clip-path="url(#clip250)" d="M402.458 1117.68 L407.342 1117.68 L407.342 1123.56 L402.458 1123.56 L402.458 1117.68 Z" fill="#000000" fill-rule="evenodd" fill-opacity="1" /><path clip-path="url(#clip250)" d="M417.574 1089 L435.93 1089 L435.93 1092.94 L421.856 1092.94 L421.856 1101.41 Q422.874 1101.06 423.893 1100.9 Q424.912 1100.71 425.93 1100.71 Q431.717 1100.71 435.097 1103.89 Q438.476 1107.06 438.476 1112.47 Q438.476 1118.05 435.004 1121.15 Q431.532 1124.23 425.212 1124.23 Q423.037 1124.23 420.768 1123.86 Q418.523 1123.49 416.115 1122.75 L416.115 1118.05 Q418.199 1119.19 420.421 1119.74 Q422.643 1120.3 425.12 1120.3 Q429.124 1120.3 431.462 1118.19 Q433.8 1116.08 433.8 1112.47 Q433.8 1108.86 431.462 1106.76 Q429.124 1104.65 425.12 1104.65 Q423.245 1104.65 421.37 1105.07 Q419.518 1105.48 417.574 1106.36 L417.574 1089 Z" fill="#000000" fill-rule="evenodd" fill-opacity="1" /><path clip-path="url(#clip250)" d="M381.301 752.645 Q377.69 752.645 375.861 756.209 Q374.055 759.751 374.055 766.881 Q374.055 773.987 375.861 777.552 Q377.69 781.094 381.301 781.094 Q384.935 781.094 386.74 777.552 Q388.569 773.987 388.569 766.881 Q388.569 759.751 386.74 756.209 Q384.935 752.645 381.301 752.645 M381.301 748.941 Q387.111 748.941 390.166 753.547 Q393.245 758.131 393.245 766.881 Q393.245 775.608 390.166 780.214 Q387.111 784.797 381.301 784.797 Q375.49 784.797 372.412 780.214 Q369.356 775.608 369.356 766.881 Q369.356 758.131 372.412 753.547 Q375.49 748.941 381.301 748.941 Z" fill="#000000" fill-rule="evenodd" fill-opacity="1" /><path clip-path="url(#clip250)" d="M401.463 778.246 L406.347 778.246 L406.347 784.126 L401.463 784.126 L401.463 778.246 Z" fill="#000000" fill-rule="evenodd" fill-opacity="1" /><path clip-path="url(#clip250)" d="M426.532 752.645 Q422.921 752.645 421.092 756.209 Q419.287 759.751 419.287 766.881 Q419.287 773.987 421.092 777.552 Q422.921 781.094 426.532 781.094 Q430.166 781.094 431.972 777.552 Q433.8 773.987 433.8 766.881 Q433.8 759.751 431.972 756.209 Q430.166 752.645 426.532 752.645 M426.532 748.941 Q432.342 748.941 435.398 753.547 Q438.476 758.131 438.476 766.881 Q438.476 775.608 435.398 780.214 Q432.342 784.797 426.532 784.797 Q420.722 784.797 417.643 780.214 Q414.587 775.608 414.587 766.881 Q414.587 758.131 417.643 753.547 Q420.722 748.941 426.532 748.941 Z" fill="#000000" fill-rule="evenodd" fill-opacity="1" /><path clip-path="url(#clip250)" d="M382.296 413.21 Q378.685 413.21 376.856 416.775 Q375.051 420.316 375.051 427.446 Q375.051 434.552 376.856 438.117 Q378.685 441.659 382.296 441.659 Q385.93 441.659 387.736 438.117 Q389.564 434.552 389.564 427.446 Q389.564 420.316 387.736 416.775 Q385.93 413.21 382.296 413.21 M382.296 409.506 Q388.106 409.506 391.162 414.113 Q394.24 418.696 394.24 427.446 Q394.24 436.173 391.162 440.779 Q388.106 445.362 382.296 445.362 Q376.486 445.362 373.407 440.779 Q370.352 436.173 370.352 427.446 Q370.352 418.696 373.407 414.113 Q376.486 409.506 382.296 409.506 Z" fill="#000000" fill-rule="evenodd" fill-opacity="1" /><path clip-path="url(#clip250)" d="M402.458 438.812 L407.342 438.812 L407.342 444.691 L402.458 444.691 L402.458 438.812 Z" fill="#000000" fill-rule="evenodd" fill-opacity="1" /><path clip-path="url(#clip250)" d="M417.574 410.131 L435.93 410.131 L435.93 414.066 L421.856 414.066 L421.856 422.538 Q422.874 422.191 423.893 422.029 Q424.912 421.844 425.93 421.844 Q431.717 421.844 435.097 425.015 Q438.476 428.187 438.476 433.603 Q438.476 439.182 435.004 442.284 Q431.532 445.362 425.212 445.362 Q423.037 445.362 420.768 444.992 Q418.523 444.622 416.115 443.881 L416.115 439.182 Q418.199 440.316 420.421 440.872 Q422.643 441.427 425.12 441.427 Q429.124 441.427 431.462 439.321 Q433.8 437.214 433.8 433.603 Q433.8 429.992 431.462 427.886 Q429.124 425.779 425.12 425.779 Q423.245 425.779 421.37 426.196 Q419.518 426.613 417.574 427.492 L417.574 410.131 Z" fill="#000000" fill-rule="evenodd" fill-opacity="1" /><path clip-path="url(#clip250)" d="M372.111 101.321 L379.75 101.321 L379.75 74.9555 L371.44 76.6222 L371.44 72.3629 L379.703 70.6963 L384.379 70.6963 L384.379 101.321 L392.018 101.321 L392.018 105.256 L372.111 105.256 L372.111 101.321 Z" fill="#000000" fill-rule="evenodd" fill-opacity="1" /><path clip-path="url(#clip250)" d="M401.463 99.3767 L406.347 99.3767 L406.347 105.256 L401.463 105.256 L401.463 99.3767 Z" fill="#000000" fill-rule="evenodd" fill-opacity="1" /><path clip-path="url(#clip250)" d="M426.532 73.775 Q422.921 73.775 421.092 77.3398 Q419.287 80.8814 419.287 88.011 Q419.287 95.1174 421.092 98.6822 Q422.921 102.224 426.532 102.224 Q430.166 102.224 431.972 98.6822 Q433.8 95.1174 433.8 88.011 Q433.8 80.8814 431.972 77.3398 Q430.166 73.775 426.532 73.775 M426.532 70.0713 Q432.342 70.0713 435.398 74.6777 Q438.476 79.261 438.476 88.011 Q438.476 96.7378 435.398 101.344 Q432.342 105.928 426.532 105.928 Q420.722 105.928 417.643 101.344 Q414.587 96.7378 414.587 88.011 Q414.587 79.261 417.643 74.6777 Q420.722 70.0713 426.532 70.0713 Z" fill="#000000" fill-rule="evenodd" fill-opacity="1" /><polyline clip-path="url(#clip252)" style="stroke:#cc4148; stroke-linecap:round; stroke-linejoin:round; stroke-width:4; stroke-opacity:1; fill:none" points="
  863.828,1445.72 813.911,1391.84 800.739,1377.83 746.024,1320.55 735.738,1309.94 678.137,1251.45 668.737,1242.05 610.25,1184.45 599.643,1174.17 542.363,1119.45 
  528.355,1106.28 474.476,1056.36 
  "/>
<polyline clip-path="url(#clip252)" style="stroke:#dc5039; stroke-linecap:round; stroke-linejoin:round; stroke-width:4; stroke-opacity:1; fill:none" points="
  474.476,1106.28 474.476,1106.28 542.363,1170.11 546.606,1174.17 610.25,1235.88 616.517,1242.05 678.137,1303.68 684.309,1309.94 746.024,1373.59 750.077,1377.83 
  813.911,1445.72 
  "/>
<polyline clip-path="url(#clip252)" style="stroke:#ba3655; stroke-linecap:round; stroke-linejoin:round; stroke-width:4; stroke-opacity:1; fill:none" points="
  915.742,1445.72 881.798,1408.26 853.781,1377.83 813.911,1335.26 789.822,1309.94 746.024,1264.68 723.766,1242.05 678.137,1196.43 655.508,1174.17 610.25,1130.37 
  584.936,1106.28 542.363,1066.41 511.931,1038.39 474.476,1004.45 
  "/>
<polyline clip-path="url(#clip252)" style="stroke:#a62c5f; stroke-linecap:round; stroke-linejoin:round; stroke-width:4; stroke-opacity:1; fill:none" points="
  474.476,950.141 497.532,970.507 542.363,1010.78 572.535,1038.39 610.25,1073.51 644.811,1106.28 678.137,1138.44 714.505,1174.17 746.024,1205.69 781.754,1242.05 
  813.911,1275.38 846.684,1309.94 881.798,1347.66 909.413,1377.83 949.685,1422.66 970.051,1445.72 
  "/>
<polyline clip-path="url(#clip252)" style="stroke:#932567; stroke-linecap:round; stroke-linejoin:round; stroke-width:4; stroke-opacity:1; fill:none" points="
  1027.27,1445.72 1017.57,1434.4 968.2,1377.83 949.685,1357.05 906.941,1309.94 881.798,1282.79 843.371,1242.05 813.911,1211.44 777.357,1174.17 746.024,1142.84 
  708.753,1106.28 678.137,1076.82 637.405,1038.39 610.25,1013.25 563.145,970.507 542.363,951.992 485.791,902.62 474.476,892.922 
  "/>
<polyline clip-path="url(#clip252)" style="stroke:#7e1e6c; stroke-linecap:round; stroke-linejoin:round; stroke-width:4; stroke-opacity:1; fill:none" points="
  474.476,832.122 477.634,834.733 542.363,889.309 557.792,902.62 610.25,948.783 634.388,970.507 678.137,1010.68 707.653,1038.39 746.024,1075.17 777.801,1106.28 
  813.911,1142.39 845.026,1174.17 881.798,1212.54 909.507,1242.05 949.685,1285.8 971.409,1309.94 1017.57,1362.4 1030.88,1377.83 1085.46,1442.56 1088.07,1445.72 
  
  "/>
<polyline clip-path="url(#clip252)" style="stroke:#6a176e; stroke-linecap:round; stroke-linejoin:round; stroke-width:4; stroke-opacity:1; fill:none" points="
  1153.35,1445.72 1153.35,1445.72 1098.46,1377.83 1085.46,1362.16 1041.18,1309.94 1017.57,1282.79 981.366,1242.05 949.685,1207.28 918.827,1174.17 881.798,1135.38 
  853.38,1106.28 813.911,1066.81 784.817,1038.39 746.024,1001.36 712.909,970.507 678.137,938.826 637.405,902.62 610.25,879.007 558.029,834.733 542.363,821.733 
  474.476,766.846 
  "/>
<polyline clip-path="url(#clip252)" style="stroke:#550f6d; stroke-linecap:round; stroke-linejoin:round; stroke-width:4; stroke-opacity:1; fill:none" points="
  474.476,695.873 478.591,698.959 542.363,747.901 566.323,766.846 610.25,802.406 649.043,834.733 678.137,859.57 727.167,902.62 746.024,919.592 801.068,970.507 
  813.911,982.692 871.079,1038.39 881.798,1049.11 937.5,1106.28 949.685,1119.12 1000.6,1174.17 1017.57,1193.03 1060.62,1242.05 1085.46,1271.15 1117.79,1309.94 
  1153.35,1353.87 1172.29,1377.83 1221.23,1441.6 1224.32,1445.72 
  "/>
<polyline clip-path="url(#clip252)" style="stroke:#410967; stroke-linecap:round; stroke-linejoin:round; stroke-width:4; stroke-opacity:1; fill:none" points="
  1302.7,1445.72 1289.12,1426.32 1254.31,1377.83 1221.23,1333.35 1203.37,1309.94 1153.35,1246.58 1149.68,1242.05 1093.94,1174.17 1085.46,1164.11 1035.09,1106.28 
  1017.57,1086.88 972.314,1038.39 949.685,1014.98 905.207,970.507 881.798,947.878 833.307,902.62 813.911,885.101 756.081,834.733 746.024,826.247 678.137,770.516 
  673.611,766.846 610.25,716.824 586.841,698.959 542.363,665.886 493.873,631.072 474.476,617.495 
  "/>
<polyline clip-path="url(#clip252)" style="stroke:#2b0a56; stroke-linecap:round; stroke-linejoin:round; stroke-width:4; stroke-opacity:1; fill:none" points="
  474.476,529.242 527.605,563.185 542.363,572.883 610.25,617.495 630.616,631.072 678.137,663.845 726.628,698.959 746.024,713.506 813.911,766.846 
  881.798,822.39 896.09,834.733 949.685,883.224 970.051,902.62 1017.57,950.141 1036.97,970.507 1085.46,1024.1 1097.8,1038.39 1153.35,1106.28 
  1206.69,1174.17 1221.23,1193.56 1256.35,1242.05 1289.12,1289.58 1302.7,1309.94 1347.31,1377.83 1357.01,1392.59 1390.95,1445.72 
  "/>
<polyline clip-path="url(#clip252)" style="stroke:#160b39; stroke-linecap:round; stroke-linejoin:round; stroke-width:4; stroke-opacity:1; fill:none" points="
  1492.78,1445.72 1492.78,1445.72 1460.09,1377.83 1424.89,1309.94 1392.57,1242.05 1357.01,1174.17 1325.33,1106.28 1289.12,1038.39 
  1258.95,970.507 1221.23,902.62 1198.6,834.733 1221.23,812.104 1289.12,834.733 1357.01,872.448 1424.89,902.62 
  1492.78,938.826 1560.67,970.507 1628.55,1006.07 1696.44,1038.39 1764.33,1073.59 1832.22,1106.28 
  
  "/>
<polyline clip-path="url(#clip252)" style="stroke:#06041b; stroke-linecap:round; stroke-linejoin:round; stroke-width:4; stroke-opacity:1; fill:none" points="
  1832.22,1236.4 1764.33,1224.19 1696.44,1222.66 1642.13,1242.05 1628.55,1255.63 1609.16,1309.94 1610.69,1377.83 1622.9,1445.72 
  "/>
<polyline clip-path="url(#clip252)" style="stroke:#2b0a56; stroke-linecap:round; stroke-linejoin:round; stroke-width:4; stroke-opacity:1; fill:none" points="
  1832.22,1004.45 1779.09,970.507 1764.33,960.809 1696.44,916.197 1676.08,902.62 1628.55,869.847 1580.06,834.733 1560.67,820.186 1492.78,766.846 
  1424.89,711.302 1410.6,698.959 1357.01,650.468 1336.64,631.072 1289.12,583.551 1269.72,563.185 1221.23,509.59 1208.89,495.298 1153.35,427.411 
  1100.01,359.524 1085.46,340.128 1050.35,291.637 1017.57,244.116 1003.99,223.75 959.383,155.863 949.685,141.105 915.742,87.9763 
  "/>
<polyline clip-path="url(#clip252)" style="stroke:#410967; stroke-linecap:round; stroke-linejoin:round; stroke-width:4; stroke-opacity:1; fill:none" points="
  1003.99,87.9763 1017.57,107.373 1052.39,155.863 1085.46,200.341 1103.32,223.75 1153.35,287.111 1157.02,291.637 1212.75,359.524 1221.23,369.581 1271.6,427.411 
  1289.12,446.807 1334.38,495.298 1357.01,518.707 1401.48,563.185 1424.89,585.814 1473.38,631.072 1492.78,648.591 1550.61,698.959 1560.67,707.445 1628.55,763.176 
  1633.08,766.846 1696.44,816.868 1719.85,834.733 1764.33,867.806 1812.82,902.62 1832.22,916.197 
  "/>
<polyline clip-path="url(#clip252)" style="stroke:#550f6d; stroke-linecap:round; stroke-linejoin:round; stroke-width:4; stroke-opacity:1; fill:none" points="
  1832.22,837.819 1828.1,834.733 1764.33,785.791 1740.37,766.846 1696.44,731.286 1657.65,698.959 1628.55,674.122 1579.53,631.072 1560.67,614.1 1505.62,563.185 
  1492.78,551 1435.61,495.298 1424.89,484.579 1369.19,427.411 1357.01,414.568 1306.09,359.524 1289.12,340.667 1246.07,291.637 1221.23,262.543 1188.91,223.75 
  1153.35,179.823 1134.4,155.863 1085.46,92.0906 1082.37,87.9763 
  "/>
<polyline clip-path="url(#clip252)" style="stroke:#6a176e; stroke-linecap:round; stroke-linejoin:round; stroke-width:4; stroke-opacity:1; fill:none" points="
  1153.35,87.9763 1153.35,87.9763 1208.23,155.863 1221.23,171.529 1265.51,223.75 1289.12,250.905 1325.33,291.637 1357.01,326.409 1387.86,359.524 1424.89,398.317 
  1453.31,427.411 1492.78,466.88 1521.88,495.298 1560.67,532.327 1593.78,563.185 1628.55,594.866 1669.29,631.072 1696.44,654.685 1748.66,698.959 1764.33,711.959 
  1832.22,766.846 
  "/>
<polyline clip-path="url(#clip252)" style="stroke:#7e1e6c; stroke-linecap:round; stroke-linejoin:round; stroke-width:4; stroke-opacity:1; fill:none" points="
  1832.22,701.57 1829.06,698.959 1764.33,644.383 1748.9,631.072 1696.44,584.909 1672.3,563.185 1628.55,523.007 1599.04,495.298 1560.67,458.526 1528.89,427.411 
  1492.78,391.301 1461.67,359.524 1424.89,321.153 1397.18,291.637 1357.01,247.888 1335.28,223.75 1289.12,171.292 1275.81,155.863 1221.23,91.1338 1218.62,87.9763 
  
  "/>
<polyline clip-path="url(#clip252)" style="stroke:#932567; stroke-linecap:round; stroke-linejoin:round; stroke-width:4; stroke-opacity:1; fill:none" points="
  1279.42,87.9763 1289.12,99.2908 1338.49,155.863 1357.01,176.645 1399.75,223.75 1424.89,250.905 1463.32,291.637 1492.78,322.253 1529.34,359.524 1560.67,390.857 
  1597.94,427.411 1628.55,456.872 1669.29,495.298 1696.44,520.441 1743.55,563.185 1764.33,581.7 1820.9,631.072 1832.22,640.77 
  "/>
<polyline clip-path="url(#clip252)" style="stroke:#a62c5f; stroke-linecap:round; stroke-linejoin:round; stroke-width:4; stroke-opacity:1; fill:none" points="
  1832.22,583.551 1809.16,563.185 1764.33,522.913 1734.16,495.298 1696.44,460.184 1661.88,427.411 1628.55,395.254 1592.19,359.524 1560.67,328.005 1524.94,291.637 
  1492.78,258.311 1460.01,223.75 1424.89,186.035 1397.28,155.863 1357.01,111.032 1336.64,87.9763 
  "/>
<polyline clip-path="url(#clip252)" style="stroke:#ba3655; stroke-linecap:round; stroke-linejoin:round; stroke-width:4; stroke-opacity:1; fill:none" points="
  1390.95,87.9763 1424.89,125.431 1452.91,155.863 1492.78,198.436 1516.87,223.75 1560.67,269.008 1582.93,291.637 1628.55,337.266 1651.18,359.524 1696.44,403.322 
  1721.76,427.411 1764.33,467.281 1794.76,495.298 1832.22,529.242 
  "/>
<polyline clip-path="url(#clip252)" style="stroke:#cc4148; stroke-linecap:round; stroke-linejoin:round; stroke-width:4; stroke-opacity:1; fill:none" points="
  1832.22,477.328 1778.34,427.411 1764.33,414.239 1707.05,359.524 1696.44,349.238 1637.95,291.637 1628.55,282.237 1570.95,223.75 1560.67,213.143 1505.95,155.863 
  1492.78,141.855 1442.86,87.9763 
  "/>
<polyline clip-path="url(#clip252)" style="stroke:#dc5039; stroke-linecap:round; stroke-linejoin:round; stroke-width:4; stroke-opacity:1; fill:none" points="
  1492.78,87.9763 1492.78,87.9763 1556.61,155.863 1560.67,160.106 1622.38,223.75 1628.55,230.017 1690.18,291.637 1696.44,297.809 1760.09,359.524 1764.33,363.577 
  1832.22,427.411 
  "/>
<polyline clip-path="url(#clip252)" style="stroke:#160b39; stroke-linecap:round; stroke-linejoin:round; stroke-width:4; stroke-opacity:1; fill:none" points="
  813.911,87.9763 813.911,87.9763 846.597,155.863 881.798,223.75 881.798,223.75 914.125,291.637 949.685,359.524 981.366,427.411 1017.57,495.298 
  1047.74,563.185 1085.46,631.072 1108.09,698.959 1085.46,721.588 1017.57,698.959 949.685,661.244 881.798,631.072 
  813.911,594.866 746.024,563.185 746.024,563.185 678.137,527.625 610.25,495.298 542.363,460.097 474.476,427.411 
  
  "/>
<polyline clip-path="url(#clip252)" style="stroke:#06041b; stroke-linecap:round; stroke-linejoin:round; stroke-width:4; stroke-opacity:1; fill:none" points="
  474.476,297.294 542.363,309.502 610.25,311.033 664.56,291.637 678.137,278.06 697.533,223.75 696.002,155.863 683.794,87.9763 
  "/>
<polyline clip-path="url(#clip252)" style="stroke:#e26f46; stroke-linecap:round; stroke-linejoin:round; stroke-width:4; stroke-opacity:1; fill:none" points="
  1153.35,766.846 673.313,286.813 
  "/>
<polyline clip-path="url(#clip252)" style="stroke:#3da44d; stroke-linecap:round; stroke-linejoin:round; stroke-width:4; stroke-opacity:1; fill:none" points="
  1153.35,766.846 1313.36,606.835 
  "/>
<defs>
  <clipPath id="clip253">
    <rect x="1880" y="47" width="73" height="1440"/>
  </clipPath>
</defs>
<polyline clip-path="url(#clip253)" style="stroke:#19ff19; stroke-linecap:round; stroke-linejoin:round; stroke-width:4; stroke-opacity:1; fill:none" points="
  1880.22,2062.13 1952.22,2062.13 
  "/>
<polyline clip-path="url(#clip253)" style="stroke:#87ff87; stroke-linecap:round; stroke-linejoin:round; stroke-width:4; stroke-opacity:1; fill:none" points="
  1880.22,1990.17 1952.22,1990.17 
  "/>
<polyline clip-path="url(#clip253)" style="stroke:#002d2d; stroke-linecap:round; stroke-linejoin:round; stroke-width:4; stroke-opacity:1; fill:none" points="
  1880.22,1918.21 1952.22,1918.21 
  "/>
<polyline clip-path="url(#clip253)" style="stroke:#008181; stroke-linecap:round; stroke-linejoin:round; stroke-width:4; stroke-opacity:1; fill:none" points="
  1880.22,1846.25 1952.22,1846.25 
  "/>
<polyline clip-path="url(#clip253)" style="stroke:#00dcdc; stroke-linecap:round; stroke-linejoin:round; stroke-width:4; stroke-opacity:1; fill:none" points="
  1880.22,1774.29 1952.22,1774.29 
  "/>
<polyline clip-path="url(#clip253)" style="stroke:#5dffff; stroke-linecap:round; stroke-linejoin:round; stroke-width:4; stroke-opacity:1; fill:none" points="
  1880.22,1702.33 1952.22,1702.33 
  "/>
<polyline clip-path="url(#clip253)" style="stroke:#c3ffff; stroke-linecap:round; stroke-linejoin:round; stroke-width:4; stroke-opacity:1; fill:none" points="
  1880.22,1630.37 1952.22,1630.37 
  "/>
<polyline clip-path="url(#clip253)" style="stroke:#007d33; stroke-linecap:round; stroke-linejoin:round; stroke-width:4; stroke-opacity:1; fill:none" points="
  1880.22,1558.41 1952.22,1558.41 
  "/>
<polyline clip-path="url(#clip253)" style="stroke:#000003; stroke-linecap:round; stroke-linejoin:round; stroke-width:4; stroke-opacity:1; fill:none" points="
  1880.22,1486.45 1952.22,1486.45 
  "/>
<polyline clip-path="url(#clip253)" style="stroke:#07051d; stroke-linecap:round; stroke-linejoin:round; stroke-width:4; stroke-opacity:1; fill:none" points="
  1880.22,1414.49 1952.22,1414.49 
  "/>
<polyline clip-path="url(#clip253)" style="stroke:#170b3b; stroke-linecap:round; stroke-linejoin:round; stroke-width:4; stroke-opacity:1; fill:none" points="
  1880.22,1342.53 1952.22,1342.53 
  "/>
<polyline clip-path="url(#clip253)" style="stroke:#2b0a56; stroke-linecap:round; stroke-linejoin:round; stroke-width:4; stroke-opacity:1; fill:none" points="
  1880.22,1270.57 1952.22,1270.57 
  "/>
<polyline clip-path="url(#clip253)" style="stroke:#410967; stroke-linecap:round; stroke-linejoin:round; stroke-width:4; stroke-opacity:1; fill:none" points="
  1880.22,1198.61 1952.22,1198.61 
  "/>
<polyline clip-path="url(#clip253)" style="stroke:#570f6d; stroke-linecap:round; stroke-linejoin:round; stroke-width:4; stroke-opacity:1; fill:none" points="
  1880.22,1126.65 1952.22,1126.65 
  "/>
<polyline clip-path="url(#clip253)" style="stroke:#6a176e; stroke-linecap:round; stroke-linejoin:round; stroke-width:4; stroke-opacity:1; fill:none" points="
  1880.22,1054.69 1952.22,1054.69 
  "/>
<polyline clip-path="url(#clip253)" style="stroke:#7e1e6c; stroke-linecap:round; stroke-linejoin:round; stroke-width:4; stroke-opacity:1; fill:none" points="
  1880.22,982.727 1952.22,982.727 
  "/>
<polyline clip-path="url(#clip253)" style="stroke:#932567; stroke-linecap:round; stroke-linejoin:round; stroke-width:4; stroke-opacity:1; fill:none" points="
  1880.22,910.766 1952.22,910.766 
  "/>
<polyline clip-path="url(#clip253)" style="stroke:#a72d5f; stroke-linecap:round; stroke-linejoin:round; stroke-width:4; stroke-opacity:1; fill:none" points="
  1880.22,838.806 1952.22,838.806 
  "/>
<polyline clip-path="url(#clip253)" style="stroke:#bb3754; stroke-linecap:round; stroke-linejoin:round; stroke-width:4; stroke-opacity:1; fill:none" points="
  1880.22,766.846 1952.22,766.846 
  "/>
<polyline clip-path="url(#clip253)" style="stroke:#cc4148; stroke-linecap:round; stroke-linejoin:round; stroke-width:4; stroke-opacity:1; fill:none" points="
  1880.22,694.886 1952.22,694.886 
  "/>
<polyline clip-path="url(#clip253)" style="stroke:#dc5039; stroke-linecap:round; stroke-linejoin:round; stroke-width:4; stroke-opacity:1; fill:none" points="
  1880.22,622.926 1952.22,622.926 
  "/>
<path clip-path="url(#clip250)" d="M2000.16 1324.7 Q1996.55 1324.7 1994.72 1328.26 Q1992.91 1331.8 1992.91 1338.93 Q1992.91 1346.04 1994.72 1349.6 Q1996.55 1353.15 2000.16 1353.15 Q2003.79 1353.15 2005.6 1349.6 Q2007.43 1346.04 2007.43 1338.93 Q2007.43 1331.8 2005.6 1328.26 Q2003.79 1324.7 2000.16 1324.7 M2000.16 1320.99 Q2005.97 1320.99 2009.03 1325.6 Q2012.1 1330.18 2012.1 1338.93 Q2012.1 1347.66 2009.03 1352.27 Q2005.97 1356.85 2000.16 1356.85 Q1994.35 1356.85 1991.27 1352.27 Q1988.22 1347.66 1988.22 1338.93 Q1988.22 1330.18 1991.27 1325.6 Q1994.35 1320.99 2000.16 1320.99 Z" fill="#000000" fill-rule="evenodd" fill-opacity="1" /><path clip-path="url(#clip250)" d="M1993.84 1172.34 L2010.16 1172.34 L2010.16 1176.28 L1988.22 1176.28 L1988.22 1172.34 Q1990.88 1169.59 1995.46 1164.96 Q2000.07 1160.31 2001.25 1158.96 Q2003.49 1156.44 2004.37 1154.7 Q2005.28 1152.95 2005.28 1151.26 Q2005.28 1148.5 2003.33 1146.76 Q2001.41 1145.03 1998.31 1145.03 Q1996.11 1145.03 1993.66 1145.79 Q1991.22 1146.56 1988.45 1148.11 L1988.45 1143.38 Q1991.27 1142.25 1993.72 1141.67 Q1996.18 1141.09 1998.22 1141.09 Q2003.59 1141.09 2006.78 1143.78 Q2009.97 1146.46 2009.97 1150.95 Q2009.97 1153.08 2009.16 1155.01 Q2008.38 1156.9 2006.27 1159.5 Q2005.69 1160.17 2002.59 1163.38 Q1999.49 1166.58 1993.84 1172.34 Z" fill="#000000" fill-rule="evenodd" fill-opacity="1" /><path clip-path="url(#clip250)" d="M2019.97 1170.4 L2024.86 1170.4 L2024.86 1176.28 L2019.97 1176.28 L2019.97 1170.4 Z" fill="#000000" fill-rule="evenodd" fill-opacity="1" /><path clip-path="url(#clip250)" d="M2035.09 1141.72 L2053.45 1141.72 L2053.45 1145.65 L2039.37 1145.65 L2039.37 1154.13 Q2040.39 1153.78 2041.41 1153.62 Q2042.43 1153.43 2043.45 1153.43 Q2049.23 1153.43 2052.61 1156.6 Q2055.99 1159.77 2055.99 1165.19 Q2055.99 1170.77 2052.52 1173.87 Q2049.05 1176.95 2042.73 1176.95 Q2040.55 1176.95 2038.28 1176.58 Q2036.04 1176.21 2033.63 1175.47 L2033.63 1170.77 Q2035.72 1171.9 2037.94 1172.46 Q2040.16 1173.01 2042.64 1173.01 Q2046.64 1173.01 2048.98 1170.91 Q2051.32 1168.8 2051.32 1165.19 Q2051.32 1161.58 2048.98 1159.47 Q2046.64 1157.37 2042.64 1157.37 Q2040.76 1157.37 2038.89 1157.78 Q2037.03 1158.2 2035.09 1159.08 L2035.09 1141.72 Z" fill="#000000" fill-rule="evenodd" fill-opacity="1" /><path clip-path="url(#clip250)" d="M1989.67 961.818 L2008.03 961.818 L2008.03 965.753 L1993.96 965.753 L1993.96 974.225 Q1994.97 973.878 1995.99 973.716 Q1997.01 973.531 1998.03 973.531 Q2003.82 973.531 2007.2 976.702 Q2010.58 979.873 2010.58 985.29 Q2010.58 990.869 2007.1 993.97 Q2003.63 997.049 1997.31 997.049 Q1995.14 997.049 1992.87 996.679 Q1990.62 996.308 1988.22 995.568 L1988.22 990.869 Q1990.3 992.003 1992.52 992.558 Q1994.74 993.114 1997.22 993.114 Q2001.22 993.114 2003.56 991.007 Q2005.9 988.901 2005.9 985.29 Q2005.9 981.679 2003.56 979.572 Q2001.22 977.466 1997.22 977.466 Q1995.35 977.466 1993.47 977.882 Q1991.62 978.299 1989.67 979.179 L1989.67 961.818 Z" fill="#000000" fill-rule="evenodd" fill-opacity="1" /><path clip-path="url(#clip250)" d="M2019.79 990.498 L2024.67 990.498 L2024.67 996.378 L2019.79 996.378 L2019.79 990.498 Z" fill="#000000" fill-rule="evenodd" fill-opacity="1" /><path clip-path="url(#clip250)" d="M2044.86 964.896 Q2041.25 964.896 2039.42 968.461 Q2037.61 972.003 2037.61 979.132 Q2037.61 986.239 2039.42 989.804 Q2041.25 993.345 2044.86 993.345 Q2048.49 993.345 2050.3 989.804 Q2052.13 986.239 2052.13 979.132 Q2052.13 972.003 2050.3 968.461 Q2048.49 964.896 2044.86 964.896 M2044.86 961.193 Q2050.67 961.193 2053.72 965.799 Q2056.8 970.383 2056.8 979.132 Q2056.8 987.859 2053.72 992.466 Q2050.67 997.049 2044.86 997.049 Q2039.05 997.049 2035.97 992.466 Q2032.91 987.859 2032.91 979.132 Q2032.91 970.383 2035.97 965.799 Q2039.05 961.193 2044.86 961.193 Z" fill="#000000" fill-rule="evenodd" fill-opacity="1" /><path clip-path="url(#clip250)" d="M1988.22 781.917 L2010.44 781.917 L2010.44 783.908 L1997.89 816.477 L1993.01 816.477 L2004.81 785.852 L1988.22 785.852 L1988.22 781.917 Z" fill="#000000" fill-rule="evenodd" fill-opacity="1" /><path clip-path="url(#clip250)" d="M2019.56 810.598 L2024.44 810.598 L2024.44 816.477 L2019.56 816.477 L2019.56 810.598 Z" fill="#000000" fill-rule="evenodd" fill-opacity="1" /><path clip-path="url(#clip250)" d="M2034.67 781.917 L2053.03 781.917 L2053.03 785.852 L2038.96 785.852 L2038.96 794.325 Q2039.97 793.977 2040.99 793.815 Q2042.01 793.63 2043.03 793.63 Q2048.82 793.63 2052.2 796.801 Q2055.58 799.973 2055.58 805.389 Q2055.58 810.968 2052.1 814.07 Q2048.63 817.149 2042.31 817.149 Q2040.14 817.149 2037.87 816.778 Q2035.62 816.408 2033.22 815.667 L2033.22 810.968 Q2035.3 812.102 2037.52 812.658 Q2039.74 813.213 2042.22 813.213 Q2046.22 813.213 2048.56 811.107 Q2050.9 809 2050.9 805.389 Q2050.9 801.778 2048.56 799.672 Q2046.22 797.565 2042.22 797.565 Q2040.35 797.565 2038.47 797.982 Q2036.62 798.399 2034.67 799.278 L2034.67 781.917 Z" fill="#000000" fill-rule="evenodd" fill-opacity="1" /><path clip-path="url(#clip250)" d="M1988.89 632.642 L1996.53 632.642 L1996.53 606.276 L1988.22 607.943 L1988.22 603.683 L1996.48 602.017 L2001.16 602.017 L2001.16 632.642 L2008.79 632.642 L2008.79 636.577 L1988.89 636.577 L1988.89 632.642 Z" fill="#000000" fill-rule="evenodd" fill-opacity="1" /><path clip-path="url(#clip250)" d="M2028.24 605.095 Q2024.63 605.095 2022.8 608.66 Q2020.99 612.202 2020.99 619.332 Q2020.99 626.438 2022.8 630.003 Q2024.63 633.544 2028.24 633.544 Q2031.87 633.544 2033.68 630.003 Q2035.51 626.438 2035.51 619.332 Q2035.51 612.202 2033.68 608.66 Q2031.87 605.095 2028.24 605.095 M2028.24 601.392 Q2034.05 601.392 2037.1 605.998 Q2040.18 610.582 2040.18 619.332 Q2040.18 628.058 2037.1 632.665 Q2034.05 637.248 2028.24 637.248 Q2022.43 637.248 2019.35 632.665 Q2016.29 628.058 2016.29 619.332 Q2016.29 610.582 2019.35 605.998 Q2022.43 601.392 2028.24 601.392 Z" fill="#000000" fill-rule="evenodd" fill-opacity="1" /><path clip-path="url(#clip250)" d="M2048.4 630.697 L2053.28 630.697 L2053.28 636.577 L2048.4 636.577 L2048.4 630.697 Z" fill="#000000" fill-rule="evenodd" fill-opacity="1" /><path clip-path="url(#clip250)" d="M2073.47 605.095 Q2069.86 605.095 2068.03 608.66 Q2066.22 612.202 2066.22 619.332 Q2066.22 626.438 2068.03 630.003 Q2069.86 633.544 2073.47 633.544 Q2077.1 633.544 2078.91 630.003 Q2080.74 626.438 2080.74 619.332 Q2080.74 612.202 2078.91 608.66 Q2077.1 605.095 2073.47 605.095 M2073.47 601.392 Q2079.28 601.392 2082.34 605.998 Q2085.41 610.582 2085.41 619.332 Q2085.41 628.058 2082.34 632.665 Q2079.28 637.248 2073.47 637.248 Q2067.66 637.248 2064.58 632.665 Q2061.53 628.058 2061.53 619.332 Q2061.53 610.582 2064.58 605.998 Q2067.66 601.392 2073.47 601.392 Z" fill="#000000" fill-rule="evenodd" fill-opacity="1" /><path clip-path="url(#clip250)" d="M1988.89 452.741 L1996.53 452.741 L1996.53 426.376 L1988.22 428.042 L1988.22 423.783 L1996.48 422.116 L2001.16 422.116 L2001.16 452.741 L2008.79 452.741 L2008.79 456.676 L1988.89 456.676 L1988.89 452.741 Z" fill="#000000" fill-rule="evenodd" fill-opacity="1" /><path clip-path="url(#clip250)" d="M2022.27 452.741 L2038.59 452.741 L2038.59 456.676 L2016.64 456.676 L2016.64 452.741 Q2019.3 449.987 2023.89 445.357 Q2028.49 440.704 2029.67 439.362 Q2031.92 436.838 2032.8 435.102 Q2033.7 433.343 2033.7 431.653 Q2033.7 428.899 2031.76 427.163 Q2029.84 425.427 2026.73 425.427 Q2024.53 425.427 2022.08 426.19 Q2019.65 426.954 2016.87 428.505 L2016.87 423.783 Q2019.7 422.649 2022.15 422.07 Q2024.6 421.491 2026.64 421.491 Q2032.01 421.491 2035.21 424.177 Q2038.4 426.862 2038.4 431.352 Q2038.4 433.482 2037.59 435.403 Q2036.8 437.301 2034.7 439.894 Q2034.12 440.565 2031.02 443.783 Q2027.91 446.977 2022.27 452.741 Z" fill="#000000" fill-rule="evenodd" fill-opacity="1" /><path clip-path="url(#clip250)" d="M2048.4 450.797 L2053.28 450.797 L2053.28 456.676 L2048.4 456.676 L2048.4 450.797 Z" fill="#000000" fill-rule="evenodd" fill-opacity="1" /><path clip-path="url(#clip250)" d="M2063.52 422.116 L2081.87 422.116 L2081.87 426.051 L2067.8 426.051 L2067.8 434.524 Q2068.82 434.176 2069.84 434.014 Q2070.85 433.829 2071.87 433.829 Q2077.66 433.829 2081.04 437.001 Q2084.42 440.172 2084.42 445.588 Q2084.42 451.167 2080.95 454.269 Q2077.47 457.348 2071.16 457.348 Q2068.98 457.348 2066.71 456.977 Q2064.47 456.607 2062.06 455.866 L2062.06 451.167 Q2064.14 452.301 2066.36 452.857 Q2068.59 453.412 2071.06 453.412 Q2075.07 453.412 2077.4 451.306 Q2079.74 449.2 2079.74 445.588 Q2079.74 441.977 2077.4 439.871 Q2075.07 437.764 2071.06 437.764 Q2069.19 437.764 2067.31 438.181 Q2065.46 438.598 2063.52 439.477 L2063.52 422.116 Z" fill="#000000" fill-rule="evenodd" fill-opacity="1" /><path clip-path="url(#clip250)" d="M1988.89 272.841 L1996.53 272.841 L1996.53 246.475 L1988.22 248.142 L1988.22 243.883 L1996.48 242.216 L2001.16 242.216 L2001.16 272.841 L2008.79 272.841 L2008.79 276.776 L1988.89 276.776 L1988.89 272.841 Z" fill="#000000" fill-rule="evenodd" fill-opacity="1" /><path clip-path="url(#clip250)" d="M2018.28 242.216 L2036.64 242.216 L2036.64 246.151 L2022.57 246.151 L2022.57 254.623 Q2023.59 254.276 2024.6 254.114 Q2025.62 253.929 2026.64 253.929 Q2032.43 253.929 2035.81 257.1 Q2039.19 260.271 2039.19 265.688 Q2039.19 271.267 2035.72 274.368 Q2032.24 277.447 2025.92 277.447 Q2023.75 277.447 2021.48 277.077 Q2019.23 276.706 2016.83 275.966 L2016.83 271.267 Q2018.91 272.401 2021.13 272.956 Q2023.35 273.512 2025.83 273.512 Q2029.84 273.512 2032.17 271.406 Q2034.51 269.299 2034.51 265.688 Q2034.51 262.077 2032.17 259.97 Q2029.84 257.864 2025.83 257.864 Q2023.96 257.864 2022.08 258.281 Q2020.23 258.697 2018.28 259.577 L2018.28 242.216 Z" fill="#000000" fill-rule="evenodd" fill-opacity="1" /><path clip-path="url(#clip250)" d="M2048.4 270.896 L2053.28 270.896 L2053.28 276.776 L2048.4 276.776 L2048.4 270.896 Z" fill="#000000" fill-rule="evenodd" fill-opacity="1" /><path clip-path="url(#clip250)" d="M2073.47 245.295 Q2069.86 245.295 2068.03 248.859 Q2066.22 252.401 2066.22 259.531 Q2066.22 266.637 2068.03 270.202 Q2069.86 273.743 2073.47 273.743 Q2077.1 273.743 2078.91 270.202 Q2080.74 266.637 2080.74 259.531 Q2080.74 252.401 2078.91 248.859 Q2077.1 245.295 2073.47 245.295 M2073.47 241.591 Q2079.28 241.591 2082.34 246.197 Q2085.41 250.781 2085.41 259.531 Q2085.41 268.257 2082.34 272.864 Q2079.28 277.447 2073.47 277.447 Q2067.66 277.447 2064.58 272.864 Q2061.53 268.257 2061.53 259.531 Q2061.53 250.781 2064.58 246.197 Q2067.66 241.591 2073.47 241.591 Z" fill="#000000" fill-rule="evenodd" fill-opacity="1" /><path clip-path="url(#clip250)" d="M1988.89 92.9402 L1996.53 92.9402 L1996.53 66.5746 L1988.22 68.2413 L1988.22 63.982 L1996.48 62.3154 L2001.16 62.3154 L2001.16 92.9402 L2008.79 92.9402 L2008.79 96.8754 L1988.89 96.8754 L1988.89 92.9402 Z" fill="#000000" fill-rule="evenodd" fill-opacity="1" /><path clip-path="url(#clip250)" d="M2017.06 62.3154 L2039.28 62.3154 L2039.28 64.3061 L2026.73 96.8754 L2021.85 96.8754 L2033.66 66.2506 L2017.06 66.2506 L2017.06 62.3154 Z" fill="#000000" fill-rule="evenodd" fill-opacity="1" /><path clip-path="url(#clip250)" d="M2048.4 90.9958 L2053.28 90.9958 L2053.28 96.8754 L2048.4 96.8754 L2048.4 90.9958 Z" fill="#000000" fill-rule="evenodd" fill-opacity="1" /><path clip-path="url(#clip250)" d="M2063.52 62.3154 L2081.87 62.3154 L2081.87 66.2506 L2067.8 66.2506 L2067.8 74.7227 Q2068.82 74.3755 2069.84 74.2135 Q2070.85 74.0283 2071.87 74.0283 Q2077.66 74.0283 2081.04 77.1996 Q2084.42 80.3708 2084.42 85.7875 Q2084.42 91.3662 2080.95 94.468 Q2077.47 97.5467 2071.16 97.5467 Q2068.98 97.5467 2066.71 97.1763 Q2064.47 96.8059 2062.06 96.0652 L2062.06 91.3662 Q2064.14 92.5004 2066.36 93.056 Q2068.59 93.6115 2071.06 93.6115 Q2075.07 93.6115 2077.4 91.505 Q2079.74 89.3986 2079.74 85.7875 Q2079.74 82.1764 2077.4 80.0699 Q2075.07 77.9635 2071.06 77.9635 Q2069.19 77.9635 2067.31 78.3801 Q2065.46 78.7968 2063.52 79.6764 L2063.52 62.3154 Z" fill="#000000" fill-rule="evenodd" fill-opacity="1" /><polyline clip-path="url(#clip250)" style="stroke:#000000; stroke-linecap:round; stroke-linejoin:round; stroke-width:4; stroke-opacity:1; fill:none" points="
  1952.22,1486.45 1952.22,1342.53 1976.22,1342.53 1952.22,1342.53 1952.22,1162.63 1976.22,1162.63 1952.22,1162.63 1952.22,982.727 1976.22,982.727 1952.22,982.727 
  1952.22,802.826 1976.22,802.826 1952.22,802.826 1952.22,622.926 1976.22,622.926 1952.22,622.926 1952.22,443.025 1976.22,443.025 1952.22,443.025 1952.22,263.125 
  1976.22,263.125 1952.22,263.125 1952.22,83.2242 1976.22,83.2242 1952.22,83.2242 1952.22,47.2441 
  "/>
</svg>
